ISO-10303-21;
HEADER;
/* Generated by software containing ST-Developer
 * from STEP Tools, Inc. (www.steptools.com) 
 */

FILE_DESCRIPTION(
/* description */ (''),
/* implementation_level */ '2;1');

FILE_NAME(
/* name */ 'BottomCover.step',
/* time_stamp */ '2026-09-29T20:57:07+02:00',
/* author */ (''),
/* organization */ (''),
/* preprocessor_version */ 'ST-DEVELOPER v20.2',
/* originating_system */ 'Autodesk Translation Framework v15.15.0.0',
/* authorisation */ '');

FILE_SCHEMA (('AUTOMOTIVE_DESIGN { 1 0 10303 214 3 1 1 }'));
ENDSEC;

DATA;
#10=MECHANICAL_DESIGN_GEOMETRIC_PRESENTATION_REPRESENTATION('',(#17),#1849);
#11=ITEM_DEFINED_TRANSFORMATION($,$,#1113,#1212);
#12=(
REPRESENTATION_RELATIONSHIP($,$,#1860,#1859)
REPRESENTATION_RELATIONSHIP_WITH_TRANSFORMATION(#11)
SHAPE_REPRESENTATION_RELATIONSHIP()
);
#13=CONTEXT_DEPENDENT_SHAPE_REPRESENTATION(#12,#1858);
#14=NEXT_ASSEMBLY_USAGE_OCCURRENCE('BottomCover:1','BottomCover:1',
'BottomCover:1',#1862,#1863,'BottomCover:1');
#15=SHAPE_REPRESENTATION_RELATIONSHIP('SRR','None',#1860,#16);
#16=ADVANCED_BREP_SHAPE_REPRESENTATION('',(#18),#1848);
#17=STYLED_ITEM('',(#1873),#18);
#18=MANIFOLD_SOLID_BREP('Body2',#1099);
#19=FACE_BOUND('',#123,.T.);
#20=FACE_BOUND('',#127,.T.);
#21=FACE_BOUND('',#132,.T.);
#22=FACE_BOUND('',#137,.T.);
#23=FACE_BOUND('',#141,.T.);
#24=FACE_BOUND('',#146,.T.);
#25=FACE_BOUND('',#177,.T.);
#26=FACE_BOUND('',#178,.T.);
#27=FACE_BOUND('',#179,.T.);
#28=FACE_BOUND('',#180,.T.);
#29=FACE_BOUND('',#181,.T.);
#30=FACE_BOUND('',#182,.T.);
#31=PLANE('',#1117);
#32=PLANE('',#1121);
#33=PLANE('',#1125);
#34=PLANE('',#1128);
#35=PLANE('',#1132);
#36=PLANE('',#1135);
#37=PLANE('',#1136);
#38=PLANE('',#1137);
#39=PLANE('',#1138);
#40=PLANE('',#1144);
#41=PLANE('',#1145);
#42=PLANE('',#1146);
#43=PLANE('',#1148);
#44=PLANE('',#1149);
#45=PLANE('',#1150);
#46=PLANE('',#1156);
#47=PLANE('',#1157);
#48=PLANE('',#1158);
#49=PLANE('',#1160);
#50=PLANE('',#1161);
#51=PLANE('',#1162);
#52=PLANE('',#1163);
#53=PLANE('',#1184);
#54=PLANE('',#1187);
#55=PLANE('',#1192);
#56=PLANE('',#1197);
#57=PLANE('',#1200);
#58=PLANE('',#1203);
#59=PLANE('',#1206);
#60=PLANE('',#1209);
#61=PLANE('',#1210);
#62=PLANE('',#1211);
#63=FACE_OUTER_BOUND('',#117,.T.);
#64=FACE_OUTER_BOUND('',#118,.T.);
#65=FACE_OUTER_BOUND('',#119,.T.);
#66=FACE_OUTER_BOUND('',#120,.T.);
#67=FACE_OUTER_BOUND('',#121,.T.);
#68=FACE_OUTER_BOUND('',#122,.T.);
#69=FACE_OUTER_BOUND('',#124,.T.);
#70=FACE_OUTER_BOUND('',#125,.T.);
#71=FACE_OUTER_BOUND('',#126,.T.);
#72=FACE_OUTER_BOUND('',#128,.T.);
#73=FACE_OUTER_BOUND('',#129,.T.);
#74=FACE_OUTER_BOUND('',#130,.T.);
#75=FACE_OUTER_BOUND('',#131,.T.);
#76=FACE_OUTER_BOUND('',#133,.T.);
#77=FACE_OUTER_BOUND('',#134,.T.);
#78=FACE_OUTER_BOUND('',#135,.T.);
#79=FACE_OUTER_BOUND('',#136,.T.);
#80=FACE_OUTER_BOUND('',#138,.T.);
#81=FACE_OUTER_BOUND('',#139,.T.);
#82=FACE_OUTER_BOUND('',#140,.T.);
#83=FACE_OUTER_BOUND('',#142,.T.);
#84=FACE_OUTER_BOUND('',#143,.T.);
#85=FACE_OUTER_BOUND('',#144,.T.);
#86=FACE_OUTER_BOUND('',#145,.T.);
#87=FACE_OUTER_BOUND('',#147,.T.);
#88=FACE_OUTER_BOUND('',#148,.T.);
#89=FACE_OUTER_BOUND('',#149,.T.);
#90=FACE_OUTER_BOUND('',#150,.T.);
#91=FACE_OUTER_BOUND('',#151,.T.);
#92=FACE_OUTER_BOUND('',#152,.T.);
#93=FACE_OUTER_BOUND('',#153,.T.);
#94=FACE_OUTER_BOUND('',#154,.T.);
#95=FACE_OUTER_BOUND('',#155,.T.);
#96=FACE_OUTER_BOUND('',#156,.T.);
#97=FACE_OUTER_BOUND('',#157,.T.);
#98=FACE_OUTER_BOUND('',#158,.T.);
#99=FACE_OUTER_BOUND('',#159,.T.);
#100=FACE_OUTER_BOUND('',#160,.T.);
#101=FACE_OUTER_BOUND('',#161,.T.);
#102=FACE_OUTER_BOUND('',#162,.T.);
#103=FACE_OUTER_BOUND('',#163,.T.);
#104=FACE_OUTER_BOUND('',#164,.T.);
#105=FACE_OUTER_BOUND('',#165,.T.);
#106=FACE_OUTER_BOUND('',#166,.T.);
#107=FACE_OUTER_BOUND('',#167,.T.);
#108=FACE_OUTER_BOUND('',#168,.T.);
#109=FACE_OUTER_BOUND('',#169,.T.);
#110=FACE_OUTER_BOUND('',#170,.T.);
#111=FACE_OUTER_BOUND('',#171,.T.);
#112=FACE_OUTER_BOUND('',#172,.T.);
#113=FACE_OUTER_BOUND('',#173,.T.);
#114=FACE_OUTER_BOUND('',#174,.T.);
#115=FACE_OUTER_BOUND('',#175,.T.);
#116=FACE_OUTER_BOUND('',#176,.T.);
#117=EDGE_LOOP('',(#711,#712,#713,#714));
#118=EDGE_LOOP('',(#715,#716,#717,#718));
#119=EDGE_LOOP('',(#719,#720,#721,#722));
#120=EDGE_LOOP('',(#723,#724,#725,#726));
#121=EDGE_LOOP('',(#727,#728,#729,#730));
#122=EDGE_LOOP('',(#731,#732,#733,#734,#735,#736));
#123=EDGE_LOOP('',(#737));
#124=EDGE_LOOP('',(#738,#739,#740,#741));
#125=EDGE_LOOP('',(#742,#743,#744,#745));
#126=EDGE_LOOP('',(#746,#747,#748,#749,#750,#751));
#127=EDGE_LOOP('',(#752));
#128=EDGE_LOOP('',(#753,#754,#755,#756));
#129=EDGE_LOOP('',(#757,#758,#759,#760));
#130=EDGE_LOOP('',(#761,#762,#763,#764));
#131=EDGE_LOOP('',(#765,#766,#767,#768,#769,#770));
#132=EDGE_LOOP('',(#771));
#133=EDGE_LOOP('',(#772,#773,#774,#775));
#134=EDGE_LOOP('',(#776,#777,#778,#779));
#135=EDGE_LOOP('',(#780,#781,#782,#783));
#136=EDGE_LOOP('',(#784,#785,#786,#787));
#137=EDGE_LOOP('',(#788));
#138=EDGE_LOOP('',(#789,#790,#791,#792));
#139=EDGE_LOOP('',(#793,#794,#795,#796));
#140=EDGE_LOOP('',(#797,#798,#799,#800,#801,#802));
#141=EDGE_LOOP('',(#803));
#142=EDGE_LOOP('',(#804,#805,#806,#807));
#143=EDGE_LOOP('',(#808,#809,#810,#811));
#144=EDGE_LOOP('',(#812,#813,#814,#815));
#145=EDGE_LOOP('',(#816,#817,#818,#819));
#146=EDGE_LOOP('',(#820));
#147=EDGE_LOOP('',(#821,#822,#823,#824,#825,#826));
#148=EDGE_LOOP('',(#827,#828,#829,#830,#831,#832,#833,#834));
#149=EDGE_LOOP('',(#835,#836,#837,#838,#839,#840,#841,#842,#843,#844,#845,
#846));
#150=EDGE_LOOP('',(#847,#848,#849,#850,#851,#852,#853,#854,#855,#856,#857,
#858,#859,#860,#861,#862,#863,#864,#865,#866,#867,#868,#869,#870,#871,#872,
#873,#874,#875,#876,#877,#878,#879,#880,#881,#882,#883,#884));
#151=EDGE_LOOP('',(#885,#886,#887,#888));
#152=EDGE_LOOP('',(#889,#890,#891,#892));
#153=EDGE_LOOP('',(#893,#894,#895,#896));
#154=EDGE_LOOP('',(#897,#898,#899,#900));
#155=EDGE_LOOP('',(#901,#902,#903,#904));
#156=EDGE_LOOP('',(#905,#906,#907,#908));
#157=EDGE_LOOP('',(#909,#910,#911,#912));
#158=EDGE_LOOP('',(#913,#914,#915,#916));
#159=EDGE_LOOP('',(#917,#918,#919,#920));
#160=EDGE_LOOP('',(#921,#922,#923,#924));
#161=EDGE_LOOP('',(#925,#926,#927,#928));
#162=EDGE_LOOP('',(#929,#930,#931,#932));
#163=EDGE_LOOP('',(#933,#934,#935,#936,#937,#938,#939,#940));
#164=EDGE_LOOP('',(#941,#942,#943,#944));
#165=EDGE_LOOP('',(#945,#946,#947,#948));
#166=EDGE_LOOP('',(#949,#950,#951,#952,#953,#954,#955,#956));
#167=EDGE_LOOP('',(#957,#958,#959,#960));
#168=EDGE_LOOP('',(#961,#962,#963,#964,#965,#966));
#169=EDGE_LOOP('',(#967,#968,#969,#970));
#170=EDGE_LOOP('',(#971,#972,#973,#974));
#171=EDGE_LOOP('',(#975,#976,#977,#978));
#172=EDGE_LOOP('',(#979,#980,#981,#982));
#173=EDGE_LOOP('',(#983,#984,#985,#986));
#174=EDGE_LOOP('',(#987,#988,#989,#990));
#175=EDGE_LOOP('',(#991,#992,#993,#994));
#176=EDGE_LOOP('',(#995,#996,#997,#998,#999,#1000,#1001,#1002,#1003,#1004,
#1005,#1006,#1007,#1008,#1009,#1010,#1011,#1012,#1013,#1014,#1015,#1016));
#177=EDGE_LOOP('',(#1017));
#178=EDGE_LOOP('',(#1018));
#179=EDGE_LOOP('',(#1019));
#180=EDGE_LOOP('',(#1020));
#181=EDGE_LOOP('',(#1021));
#182=EDGE_LOOP('',(#1022));
#183=LINE('',#1534,#295);
#184=LINE('',#1537,#296);
#185=LINE('',#1540,#297);
#186=LINE('',#1542,#298);
#187=LINE('',#1543,#299);
#188=LINE('',#1549,#300);
#189=LINE('',#1552,#301);
#190=LINE('',#1555,#302);
#191=LINE('',#1557,#303);
#192=LINE('',#1558,#304);
#193=LINE('',#1564,#305);
#194=LINE('',#1567,#306);
#195=LINE('',#1570,#307);
#196=LINE('',#1572,#308);
#197=LINE('',#1576,#309);
#198=LINE('',#1577,#310);
#199=LINE('',#1582,#311);
#200=LINE('',#1583,#312);
#201=LINE('',#1589,#313);
#202=LINE('',#1592,#314);
#203=LINE('',#1595,#315);
#204=LINE('',#1597,#316);
#205=LINE('',#1601,#317);
#206=LINE('',#1602,#318);
#207=LINE('',#1607,#319);
#208=LINE('',#1608,#320);
#209=LINE('',#1611,#321);
#210=LINE('',#1612,#322);
#211=LINE('',#1615,#323);
#212=LINE('',#1617,#324);
#213=LINE('',#1618,#325);
#214=LINE('',#1621,#326);
#215=LINE('',#1624,#327);
#216=LINE('',#1632,#328);
#217=LINE('',#1635,#329);
#218=LINE('',#1638,#330);
#219=LINE('',#1640,#331);
#220=LINE('',#1641,#332);
#221=LINE('',#1644,#333);
#222=LINE('',#1646,#334);
#223=LINE('',#1647,#335);
#224=LINE('',#1649,#336);
#225=LINE('',#1654,#337);
#226=LINE('',#1655,#338);
#227=LINE('',#1658,#339);
#228=LINE('',#1660,#340);
#229=LINE('',#1661,#341);
#230=LINE('',#1664,#342);
#231=LINE('',#1667,#343);
#232=LINE('',#1675,#344);
#233=LINE('',#1678,#345);
#234=LINE('',#1681,#346);
#235=LINE('',#1683,#347);
#236=LINE('',#1684,#348);
#237=LINE('',#1687,#349);
#238=LINE('',#1689,#350);
#239=LINE('',#1690,#351);
#240=LINE('',#1692,#352);
#241=LINE('',#1697,#353);
#242=LINE('',#1699,#354);
#243=LINE('',#1701,#355);
#244=LINE('',#1702,#356);
#245=LINE('',#1705,#357);
#246=LINE('',#1707,#358);
#247=LINE('',#1708,#359);
#248=LINE('',#1709,#360);
#249=LINE('',#1712,#361);
#250=LINE('',#1714,#362);
#251=LINE('',#1716,#363);
#252=LINE('',#1718,#364);
#253=LINE('',#1719,#365);
#254=LINE('',#1720,#366);
#255=LINE('',#1725,#367);
#256=LINE('',#1729,#368);
#257=LINE('',#1732,#369);
#258=LINE('',#1734,#370);
#259=LINE('',#1738,#371);
#260=LINE('',#1742,#372);
#261=LINE('',#1745,#373);
#262=LINE('',#1746,#374);
#263=LINE('',#1747,#375);
#264=LINE('',#1750,#376);
#265=LINE('',#1754,#377);
#266=LINE('',#1758,#378);
#267=LINE('',#1762,#379);
#268=LINE('',#1766,#380);
#269=LINE('',#1770,#381);
#270=LINE('',#1776,#382);
#271=LINE('',#1777,#383);
#272=LINE('',#1780,#384);
#273=LINE('',#1781,#385);
#274=LINE('',#1785,#386);
#275=LINE('',#1788,#387);
#276=LINE('',#1789,#388);
#277=LINE('',#1794,#389);
#278=LINE('',#1798,#390);
#279=LINE('',#1799,#391);
#280=LINE('',#1804,#392);
#281=LINE('',#1808,#393);
#282=LINE('',#1809,#394);
#283=LINE('',#1812,#395);
#284=LINE('',#1816,#396);
#285=LINE('',#1817,#397);
#286=LINE('',#1821,#398);
#287=LINE('',#1824,#399);
#288=LINE('',#1825,#400);
#289=LINE('',#1829,#401);
#290=LINE('',#1832,#402);
#291=LINE('',#1833,#403);
#292=LINE('',#1837,#404);
#293=LINE('',#1839,#405);
#294=LINE('',#1841,#406);
#295=VECTOR('',#1221,10.);
#296=VECTOR('',#1224,10.);
#297=VECTOR('',#1227,10.);
#298=VECTOR('',#1228,10.);
#299=VECTOR('',#1229,10.);
#300=VECTOR('',#1234,10.);
#301=VECTOR('',#1237,10.);
#302=VECTOR('',#1240,10.);
#303=VECTOR('',#1241,10.);
#304=VECTOR('',#1242,10.);
#305=VECTOR('',#1247,10.);
#306=VECTOR('',#1250,10.);
#307=VECTOR('',#1253,10.);
#308=VECTOR('',#1254,10.);
#309=VECTOR('',#1257,10.);
#310=VECTOR('',#1258,10.);
#311=VECTOR('',#1263,10.);
#312=VECTOR('',#1264,10.);
#313=VECTOR('',#1269,10.);
#314=VECTOR('',#1272,10.);
#315=VECTOR('',#1275,10.);
#316=VECTOR('',#1276,10.);
#317=VECTOR('',#1279,10.);
#318=VECTOR('',#1280,10.);
#319=VECTOR('',#1285,10.);
#320=VECTOR('',#1286,10.);
#321=VECTOR('',#1289,10.);
#322=VECTOR('',#1290,10.);
#323=VECTOR('',#1293,10.);
#324=VECTOR('',#1294,10.);
#325=VECTOR('',#1295,10.);
#326=VECTOR('',#1298,10.);
#327=VECTOR('',#1301,10.);
#328=VECTOR('',#1308,10.);
#329=VECTOR('',#1311,10.);
#330=VECTOR('',#1314,10.);
#331=VECTOR('',#1315,10.);
#332=VECTOR('',#1316,10.);
#333=VECTOR('',#1319,10.);
#334=VECTOR('',#1320,10.);
#335=VECTOR('',#1321,10.);
#336=VECTOR('',#1324,10.);
#337=VECTOR('',#1329,10.);
#338=VECTOR('',#1330,10.);
#339=VECTOR('',#1333,10.);
#340=VECTOR('',#1334,10.);
#341=VECTOR('',#1335,10.);
#342=VECTOR('',#1338,10.);
#343=VECTOR('',#1341,10.);
#344=VECTOR('',#1348,10.);
#345=VECTOR('',#1351,10.);
#346=VECTOR('',#1354,10.);
#347=VECTOR('',#1355,10.);
#348=VECTOR('',#1356,10.);
#349=VECTOR('',#1359,10.);
#350=VECTOR('',#1360,10.);
#351=VECTOR('',#1361,10.);
#352=VECTOR('',#1364,10.);
#353=VECTOR('',#1369,10.);
#354=VECTOR('',#1370,10.);
#355=VECTOR('',#1371,10.);
#356=VECTOR('',#1372,10.);
#357=VECTOR('',#1375,10.);
#358=VECTOR('',#1376,10.);
#359=VECTOR('',#1377,10.);
#360=VECTOR('',#1378,10.);
#361=VECTOR('',#1381,10.);
#362=VECTOR('',#1382,10.);
#363=VECTOR('',#1383,10.);
#364=VECTOR('',#1384,10.);
#365=VECTOR('',#1385,10.);
#366=VECTOR('',#1386,10.);
#367=VECTOR('',#1391,10.);
#368=VECTOR('',#1394,10.);
#369=VECTOR('',#1397,10.);
#370=VECTOR('',#1398,10.);
#371=VECTOR('',#1401,10.);
#372=VECTOR('',#1404,10.);
#373=VECTOR('',#1407,10.);
#374=VECTOR('',#1408,10.);
#375=VECTOR('',#1409,10.);
#376=VECTOR('',#1412,1.05);
#377=VECTOR('',#1417,1.05);
#378=VECTOR('',#1422,1.05);
#379=VECTOR('',#1427,1.05);
#380=VECTOR('',#1432,1.05);
#381=VECTOR('',#1437,1.05);
#382=VECTOR('',#1444,10.);
#383=VECTOR('',#1445,10.);
#384=VECTOR('',#1448,10.);
#385=VECTOR('',#1449,10.);
#386=VECTOR('',#1454,10.);
#387=VECTOR('',#1457,10.);
#388=VECTOR('',#1458,10.);
#389=VECTOR('',#1465,10.);
#390=VECTOR('',#1470,10.);
#391=VECTOR('',#1471,10.);
#392=VECTOR('',#1478,10.);
#393=VECTOR('',#1483,10.);
#394=VECTOR('',#1484,10.);
#395=VECTOR('',#1487,10.);
#396=VECTOR('',#1492,10.);
#397=VECTOR('',#1493,10.);
#398=VECTOR('',#1498,10.);
#399=VECTOR('',#1501,10.);
#400=VECTOR('',#1502,10.);
#401=VECTOR('',#1507,10.);
#402=VECTOR('',#1510,10.);
#403=VECTOR('',#1511,10.);
#404=VECTOR('',#1516,10.);
#405=VECTOR('',#1519,10.);
#406=VECTOR('',#1522,10.);
#407=CIRCLE('',#1115,2.);
#408=CIRCLE('',#1116,2.);
#409=CIRCLE('',#1119,2.);
#410=CIRCLE('',#1120,2.);
#411=CIRCLE('',#1123,2.);
#412=CIRCLE('',#1124,2.);
#413=CIRCLE('',#1126,3.00000000000427);
#414=CIRCLE('',#1127,1.05);
#415=CIRCLE('',#1130,2.);
#416=CIRCLE('',#1131,2.);
#417=CIRCLE('',#1133,2.99999999999578);
#418=CIRCLE('',#1134,1.05);
#419=CIRCLE('',#1139,2.99999999999572);
#420=CIRCLE('',#1140,1.05);
#421=CIRCLE('',#1142,2.);
#422=CIRCLE('',#1143,2.);
#423=CIRCLE('',#1147,1.05);
#424=CIRCLE('',#1151,2.99999999991809);
#425=CIRCLE('',#1152,1.05);
#426=CIRCLE('',#1154,2.);
#427=CIRCLE('',#1155,2.);
#428=CIRCLE('',#1159,1.05);
#429=CIRCLE('',#1164,3.00000000000001);
#430=CIRCLE('',#1165,0.999999999999999);
#431=CIRCLE('',#1166,0.999999999999996);
#432=CIRCLE('',#1167,1.);
#433=CIRCLE('',#1168,0.999999999999979);
#434=CIRCLE('',#1169,2.99999999999999);
#435=CIRCLE('',#1171,1.05);
#436=CIRCLE('',#1173,1.05);
#437=CIRCLE('',#1175,1.05);
#438=CIRCLE('',#1177,1.05);
#439=CIRCLE('',#1179,1.05);
#440=CIRCLE('',#1181,1.05);
#441=CIRCLE('',#1183,0.999999999999996);
#442=CIRCLE('',#1186,0.999999999999999);
#443=CIRCLE('',#1189,3.00000000000001);
#444=CIRCLE('',#1191,2.99999999999578);
#445=CIRCLE('',#1194,3.00000000000427);
#446=CIRCLE('',#1196,2.99999999999572);
#447=CIRCLE('',#1199,2.99999999991809);
#448=CIRCLE('',#1202,2.99999999999999);
#449=CIRCLE('',#1205,0.999999999999979);
#450=CIRCLE('',#1208,1.);
#451=VERTEX_POINT('',#1530);
#452=VERTEX_POINT('',#1531);
#453=VERTEX_POINT('',#1533);
#454=VERTEX_POINT('',#1535);
#455=VERTEX_POINT('',#1539);
#456=VERTEX_POINT('',#1541);
#457=VERTEX_POINT('',#1545);
#458=VERTEX_POINT('',#1546);
#459=VERTEX_POINT('',#1548);
#460=VERTEX_POINT('',#1550);
#461=VERTEX_POINT('',#1554);
#462=VERTEX_POINT('',#1556);
#463=VERTEX_POINT('',#1560);
#464=VERTEX_POINT('',#1561);
#465=VERTEX_POINT('',#1563);
#466=VERTEX_POINT('',#1565);
#467=VERTEX_POINT('',#1569);
#468=VERTEX_POINT('',#1571);
#469=VERTEX_POINT('',#1573);
#470=VERTEX_POINT('',#1575);
#471=VERTEX_POINT('',#1578);
#472=VERTEX_POINT('',#1581);
#473=VERTEX_POINT('',#1585);
#474=VERTEX_POINT('',#1586);
#475=VERTEX_POINT('',#1588);
#476=VERTEX_POINT('',#1590);
#477=VERTEX_POINT('',#1594);
#478=VERTEX_POINT('',#1596);
#479=VERTEX_POINT('',#1598);
#480=VERTEX_POINT('',#1600);
#481=VERTEX_POINT('',#1603);
#482=VERTEX_POINT('',#1606);
#483=VERTEX_POINT('',#1610);
#484=VERTEX_POINT('',#1614);
#485=VERTEX_POINT('',#1616);
#486=VERTEX_POINT('',#1620);
#487=VERTEX_POINT('',#1622);
#488=VERTEX_POINT('',#1625);
#489=VERTEX_POINT('',#1628);
#490=VERTEX_POINT('',#1629);
#491=VERTEX_POINT('',#1631);
#492=VERTEX_POINT('',#1633);
#493=VERTEX_POINT('',#1637);
#494=VERTEX_POINT('',#1639);
#495=VERTEX_POINT('',#1643);
#496=VERTEX_POINT('',#1645);
#497=VERTEX_POINT('',#1650);
#498=VERTEX_POINT('',#1653);
#499=VERTEX_POINT('',#1657);
#500=VERTEX_POINT('',#1659);
#501=VERTEX_POINT('',#1663);
#502=VERTEX_POINT('',#1665);
#503=VERTEX_POINT('',#1668);
#504=VERTEX_POINT('',#1671);
#505=VERTEX_POINT('',#1672);
#506=VERTEX_POINT('',#1674);
#507=VERTEX_POINT('',#1676);
#508=VERTEX_POINT('',#1680);
#509=VERTEX_POINT('',#1682);
#510=VERTEX_POINT('',#1686);
#511=VERTEX_POINT('',#1688);
#512=VERTEX_POINT('',#1693);
#513=VERTEX_POINT('',#1696);
#514=VERTEX_POINT('',#1698);
#515=VERTEX_POINT('',#1700);
#516=VERTEX_POINT('',#1704);
#517=VERTEX_POINT('',#1706);
#518=VERTEX_POINT('',#1711);
#519=VERTEX_POINT('',#1713);
#520=VERTEX_POINT('',#1715);
#521=VERTEX_POINT('',#1717);
#522=VERTEX_POINT('',#1722);
#523=VERTEX_POINT('',#1724);
#524=VERTEX_POINT('',#1726);
#525=VERTEX_POINT('',#1728);
#526=VERTEX_POINT('',#1730);
#527=VERTEX_POINT('',#1733);
#528=VERTEX_POINT('',#1735);
#529=VERTEX_POINT('',#1737);
#530=VERTEX_POINT('',#1739);
#531=VERTEX_POINT('',#1741);
#532=VERTEX_POINT('',#1743);
#533=VERTEX_POINT('',#1749);
#534=VERTEX_POINT('',#1753);
#535=VERTEX_POINT('',#1757);
#536=VERTEX_POINT('',#1761);
#537=VERTEX_POINT('',#1765);
#538=VERTEX_POINT('',#1769);
#539=VERTEX_POINT('',#1773);
#540=VERTEX_POINT('',#1774);
#541=VERTEX_POINT('',#1779);
#542=VERTEX_POINT('',#1783);
#543=VERTEX_POINT('',#1787);
#544=VERTEX_POINT('',#1793);
#545=VERTEX_POINT('',#1797);
#546=VERTEX_POINT('',#1803);
#547=VERTEX_POINT('',#1807);
#548=VERTEX_POINT('',#1811);
#549=VERTEX_POINT('',#1815);
#550=VERTEX_POINT('',#1819);
#551=VERTEX_POINT('',#1823);
#552=VERTEX_POINT('',#1827);
#553=VERTEX_POINT('',#1831);
#554=VERTEX_POINT('',#1835);
#555=EDGE_CURVE('',#451,#452,#407,.T.);
#556=EDGE_CURVE('',#451,#453,#183,.T.);
#557=EDGE_CURVE('',#453,#454,#408,.T.);
#558=EDGE_CURVE('',#454,#452,#184,.T.);
#559=EDGE_CURVE('',#455,#454,#185,.T.);
#560=EDGE_CURVE('',#456,#455,#186,.T.);
#561=EDGE_CURVE('',#456,#452,#187,.T.);
#562=EDGE_CURVE('',#457,#458,#409,.T.);
#563=EDGE_CURVE('',#457,#459,#188,.T.);
#564=EDGE_CURVE('',#459,#460,#410,.T.);
#565=EDGE_CURVE('',#460,#458,#189,.T.);
#566=EDGE_CURVE('',#461,#460,#190,.T.);
#567=EDGE_CURVE('',#462,#461,#191,.T.);
#568=EDGE_CURVE('',#462,#458,#192,.T.);
#569=EDGE_CURVE('',#463,#464,#411,.T.);
#570=EDGE_CURVE('',#463,#465,#193,.T.);
#571=EDGE_CURVE('',#465,#466,#412,.T.);
#572=EDGE_CURVE('',#466,#464,#194,.T.);
#573=EDGE_CURVE('',#467,#464,#195,.T.);
#574=EDGE_CURVE('',#468,#467,#196,.T.);
#575=EDGE_CURVE('',#469,#468,#413,.T.);
#576=EDGE_CURVE('',#470,#469,#197,.T.);
#577=EDGE_CURVE('',#463,#470,#198,.T.);
#578=EDGE_CURVE('',#471,#471,#414,.T.);
#579=EDGE_CURVE('',#472,#466,#199,.T.);
#580=EDGE_CURVE('',#467,#472,#200,.T.);
#581=EDGE_CURVE('',#473,#474,#415,.T.);
#582=EDGE_CURVE('',#473,#475,#201,.T.);
#583=EDGE_CURVE('',#475,#476,#416,.T.);
#584=EDGE_CURVE('',#476,#474,#202,.T.);
#585=EDGE_CURVE('',#477,#474,#203,.T.);
#586=EDGE_CURVE('',#478,#477,#204,.T.);
#587=EDGE_CURVE('',#479,#478,#417,.T.);
#588=EDGE_CURVE('',#480,#479,#205,.T.);
#589=EDGE_CURVE('',#473,#480,#206,.T.);
#590=EDGE_CURVE('',#481,#481,#418,.T.);
#591=EDGE_CURVE('',#482,#476,#207,.T.);
#592=EDGE_CURVE('',#477,#482,#208,.T.);
#593=EDGE_CURVE('',#483,#480,#209,.T.);
#594=EDGE_CURVE('',#475,#483,#210,.T.);
#595=EDGE_CURVE('',#457,#484,#211,.T.);
#596=EDGE_CURVE('',#485,#484,#212,.T.);
#597=EDGE_CURVE('',#459,#485,#213,.T.);
#598=EDGE_CURVE('',#486,#462,#214,.T.);
#599=EDGE_CURVE('',#487,#486,#419,.T.);
#600=EDGE_CURVE('',#484,#487,#215,.T.);
#601=EDGE_CURVE('',#488,#488,#420,.T.);
#602=EDGE_CURVE('',#489,#490,#421,.T.);
#603=EDGE_CURVE('',#489,#491,#216,.T.);
#604=EDGE_CURVE('',#491,#492,#422,.T.);
#605=EDGE_CURVE('',#490,#492,#217,.T.);
#606=EDGE_CURVE('',#493,#489,#218,.T.);
#607=EDGE_CURVE('',#494,#493,#219,.T.);
#608=EDGE_CURVE('',#494,#491,#220,.T.);
#609=EDGE_CURVE('',#490,#495,#221,.T.);
#610=EDGE_CURVE('',#492,#496,#222,.T.);
#611=EDGE_CURVE('',#495,#496,#223,.T.);
#612=EDGE_CURVE('',#496,#494,#224,.T.);
#613=EDGE_CURVE('',#497,#497,#423,.T.);
#614=EDGE_CURVE('',#498,#470,#225,.T.);
#615=EDGE_CURVE('',#465,#498,#226,.T.);
#616=EDGE_CURVE('',#451,#499,#227,.T.);
#617=EDGE_CURVE('',#500,#499,#228,.T.);
#618=EDGE_CURVE('',#453,#500,#229,.T.);
#619=EDGE_CURVE('',#501,#456,#230,.T.);
#620=EDGE_CURVE('',#502,#501,#424,.T.);
#621=EDGE_CURVE('',#499,#502,#231,.T.);
#622=EDGE_CURVE('',#503,#503,#425,.T.);
#623=EDGE_CURVE('',#504,#505,#426,.T.);
#624=EDGE_CURVE('',#504,#506,#232,.T.);
#625=EDGE_CURVE('',#506,#507,#427,.T.);
#626=EDGE_CURVE('',#505,#507,#233,.T.);
#627=EDGE_CURVE('',#508,#504,#234,.T.);
#628=EDGE_CURVE('',#509,#508,#235,.T.);
#629=EDGE_CURVE('',#509,#506,#236,.T.);
#630=EDGE_CURVE('',#505,#510,#237,.T.);
#631=EDGE_CURVE('',#507,#511,#238,.T.);
#632=EDGE_CURVE('',#510,#511,#239,.T.);
#633=EDGE_CURVE('',#511,#509,#240,.T.);
#634=EDGE_CURVE('',#512,#512,#428,.T.);
#635=EDGE_CURVE('',#513,#479,#241,.T.);
#636=EDGE_CURVE('',#513,#514,#242,.T.);
#637=EDGE_CURVE('',#514,#515,#243,.T.);
#638=EDGE_CURVE('',#483,#515,#244,.T.);
#639=EDGE_CURVE('',#516,#487,#245,.T.);
#640=EDGE_CURVE('',#516,#517,#246,.T.);
#641=EDGE_CURVE('',#517,#468,#247,.T.);
#642=EDGE_CURVE('',#485,#472,#248,.T.);
#643=EDGE_CURVE('',#518,#493,#249,.T.);
#644=EDGE_CURVE('',#519,#518,#250,.T.);
#645=EDGE_CURVE('',#519,#520,#251,.T.);
#646=EDGE_CURVE('',#520,#521,#252,.T.);
#647=EDGE_CURVE('',#510,#521,#253,.T.);
#648=EDGE_CURVE('',#495,#508,#254,.T.);
#649=EDGE_CURVE('',#515,#522,#429,.T.);
#650=EDGE_CURVE('',#522,#523,#255,.T.);
#651=EDGE_CURVE('',#523,#524,#430,.T.);
#652=EDGE_CURVE('',#524,#525,#256,.T.);
#653=EDGE_CURVE('',#525,#526,#431,.T.);
#654=EDGE_CURVE('',#526,#518,#257,.T.);
#655=EDGE_CURVE('',#521,#527,#258,.T.);
#656=EDGE_CURVE('',#527,#528,#432,.T.);
#657=EDGE_CURVE('',#528,#529,#259,.T.);
#658=EDGE_CURVE('',#529,#530,#433,.T.);
#659=EDGE_CURVE('',#530,#531,#260,.T.);
#660=EDGE_CURVE('',#531,#532,#434,.T.);
#661=EDGE_CURVE('',#532,#455,#261,.T.);
#662=EDGE_CURVE('',#500,#461,#262,.T.);
#663=EDGE_CURVE('',#498,#482,#263,.T.);
#664=EDGE_CURVE('',#481,#533,#264,.T.);
#665=EDGE_CURVE('',#533,#533,#435,.T.);
#666=EDGE_CURVE('',#488,#534,#265,.T.);
#667=EDGE_CURVE('',#534,#534,#436,.T.);
#668=EDGE_CURVE('',#471,#535,#266,.T.);
#669=EDGE_CURVE('',#535,#535,#437,.T.);
#670=EDGE_CURVE('',#503,#536,#267,.T.);
#671=EDGE_CURVE('',#536,#536,#438,.T.);
#672=EDGE_CURVE('',#512,#537,#268,.T.);
#673=EDGE_CURVE('',#537,#537,#439,.T.);
#674=EDGE_CURVE('',#497,#538,#269,.T.);
#675=EDGE_CURVE('',#538,#538,#440,.T.);
#676=EDGE_CURVE('',#539,#540,#441,.T.);
#677=EDGE_CURVE('',#539,#526,#270,.T.);
#678=EDGE_CURVE('',#540,#525,#271,.T.);
#679=EDGE_CURVE('',#541,#540,#272,.T.);
#680=EDGE_CURVE('',#541,#524,#273,.T.);
#681=EDGE_CURVE('',#541,#542,#442,.T.);
#682=EDGE_CURVE('',#542,#523,#274,.T.);
#683=EDGE_CURVE('',#543,#542,#275,.T.);
#684=EDGE_CURVE('',#543,#522,#276,.T.);
#685=EDGE_CURVE('',#514,#543,#443,.T.);
#686=EDGE_CURVE('',#544,#478,#277,.T.);
#687=EDGE_CURVE('',#544,#513,#444,.T.);
#688=EDGE_CURVE('',#545,#469,#278,.T.);
#689=EDGE_CURVE('',#545,#544,#279,.T.);
#690=EDGE_CURVE('',#517,#545,#445,.T.);
#691=EDGE_CURVE('',#546,#486,#280,.T.);
#692=EDGE_CURVE('',#546,#516,#446,.T.);
#693=EDGE_CURVE('',#547,#502,#281,.T.);
#694=EDGE_CURVE('',#547,#546,#282,.T.);
#695=EDGE_CURVE('',#548,#501,#283,.T.);
#696=EDGE_CURVE('',#548,#547,#447,.T.);
#697=EDGE_CURVE('',#549,#532,#284,.T.);
#698=EDGE_CURVE('',#549,#548,#285,.T.);
#699=EDGE_CURVE('',#550,#549,#448,.T.);
#700=EDGE_CURVE('',#550,#531,#286,.T.);
#701=EDGE_CURVE('',#551,#550,#287,.T.);
#702=EDGE_CURVE('',#551,#530,#288,.T.);
#703=EDGE_CURVE('',#551,#552,#449,.T.);
#704=EDGE_CURVE('',#552,#529,#289,.T.);
#705=EDGE_CURVE('',#553,#552,#290,.T.);
#706=EDGE_CURVE('',#553,#528,#291,.T.);
#707=EDGE_CURVE('',#553,#554,#450,.T.);
#708=EDGE_CURVE('',#554,#527,#292,.T.);
#709=EDGE_CURVE('',#520,#554,#293,.T.);
#710=EDGE_CURVE('',#539,#519,#294,.T.);
#711=ORIENTED_EDGE('',*,*,#555,.F.);
#712=ORIENTED_EDGE('',*,*,#556,.T.);
#713=ORIENTED_EDGE('',*,*,#557,.T.);
#714=ORIENTED_EDGE('',*,*,#558,.T.);
#715=ORIENTED_EDGE('',*,*,#558,.F.);
#716=ORIENTED_EDGE('',*,*,#559,.F.);
#717=ORIENTED_EDGE('',*,*,#560,.F.);
#718=ORIENTED_EDGE('',*,*,#561,.T.);
#719=ORIENTED_EDGE('',*,*,#562,.F.);
#720=ORIENTED_EDGE('',*,*,#563,.T.);
#721=ORIENTED_EDGE('',*,*,#564,.T.);
#722=ORIENTED_EDGE('',*,*,#565,.T.);
#723=ORIENTED_EDGE('',*,*,#565,.F.);
#724=ORIENTED_EDGE('',*,*,#566,.F.);
#725=ORIENTED_EDGE('',*,*,#567,.F.);
#726=ORIENTED_EDGE('',*,*,#568,.T.);
#727=ORIENTED_EDGE('',*,*,#569,.F.);
#728=ORIENTED_EDGE('',*,*,#570,.T.);
#729=ORIENTED_EDGE('',*,*,#571,.T.);
#730=ORIENTED_EDGE('',*,*,#572,.T.);
#731=ORIENTED_EDGE('',*,*,#569,.T.);
#732=ORIENTED_EDGE('',*,*,#573,.F.);
#733=ORIENTED_EDGE('',*,*,#574,.F.);
#734=ORIENTED_EDGE('',*,*,#575,.F.);
#735=ORIENTED_EDGE('',*,*,#576,.F.);
#736=ORIENTED_EDGE('',*,*,#577,.F.);
#737=ORIENTED_EDGE('',*,*,#578,.F.);
#738=ORIENTED_EDGE('',*,*,#572,.F.);
#739=ORIENTED_EDGE('',*,*,#579,.F.);
#740=ORIENTED_EDGE('',*,*,#580,.F.);
#741=ORIENTED_EDGE('',*,*,#573,.T.);
#742=ORIENTED_EDGE('',*,*,#581,.F.);
#743=ORIENTED_EDGE('',*,*,#582,.T.);
#744=ORIENTED_EDGE('',*,*,#583,.T.);
#745=ORIENTED_EDGE('',*,*,#584,.T.);
#746=ORIENTED_EDGE('',*,*,#581,.T.);
#747=ORIENTED_EDGE('',*,*,#585,.F.);
#748=ORIENTED_EDGE('',*,*,#586,.F.);
#749=ORIENTED_EDGE('',*,*,#587,.F.);
#750=ORIENTED_EDGE('',*,*,#588,.F.);
#751=ORIENTED_EDGE('',*,*,#589,.F.);
#752=ORIENTED_EDGE('',*,*,#590,.F.);
#753=ORIENTED_EDGE('',*,*,#584,.F.);
#754=ORIENTED_EDGE('',*,*,#591,.F.);
#755=ORIENTED_EDGE('',*,*,#592,.F.);
#756=ORIENTED_EDGE('',*,*,#585,.T.);
#757=ORIENTED_EDGE('',*,*,#582,.F.);
#758=ORIENTED_EDGE('',*,*,#589,.T.);
#759=ORIENTED_EDGE('',*,*,#593,.F.);
#760=ORIENTED_EDGE('',*,*,#594,.F.);
#761=ORIENTED_EDGE('',*,*,#563,.F.);
#762=ORIENTED_EDGE('',*,*,#595,.T.);
#763=ORIENTED_EDGE('',*,*,#596,.F.);
#764=ORIENTED_EDGE('',*,*,#597,.F.);
#765=ORIENTED_EDGE('',*,*,#562,.T.);
#766=ORIENTED_EDGE('',*,*,#568,.F.);
#767=ORIENTED_EDGE('',*,*,#598,.F.);
#768=ORIENTED_EDGE('',*,*,#599,.F.);
#769=ORIENTED_EDGE('',*,*,#600,.F.);
#770=ORIENTED_EDGE('',*,*,#595,.F.);
#771=ORIENTED_EDGE('',*,*,#601,.F.);
#772=ORIENTED_EDGE('',*,*,#602,.F.);
#773=ORIENTED_EDGE('',*,*,#603,.T.);
#774=ORIENTED_EDGE('',*,*,#604,.T.);
#775=ORIENTED_EDGE('',*,*,#605,.F.);
#776=ORIENTED_EDGE('',*,*,#606,.F.);
#777=ORIENTED_EDGE('',*,*,#607,.F.);
#778=ORIENTED_EDGE('',*,*,#608,.T.);
#779=ORIENTED_EDGE('',*,*,#603,.F.);
#780=ORIENTED_EDGE('',*,*,#609,.F.);
#781=ORIENTED_EDGE('',*,*,#605,.T.);
#782=ORIENTED_EDGE('',*,*,#610,.T.);
#783=ORIENTED_EDGE('',*,*,#611,.F.);
#784=ORIENTED_EDGE('',*,*,#610,.F.);
#785=ORIENTED_EDGE('',*,*,#604,.F.);
#786=ORIENTED_EDGE('',*,*,#608,.F.);
#787=ORIENTED_EDGE('',*,*,#612,.F.);
#788=ORIENTED_EDGE('',*,*,#613,.F.);
#789=ORIENTED_EDGE('',*,*,#570,.F.);
#790=ORIENTED_EDGE('',*,*,#577,.T.);
#791=ORIENTED_EDGE('',*,*,#614,.F.);
#792=ORIENTED_EDGE('',*,*,#615,.F.);
#793=ORIENTED_EDGE('',*,*,#556,.F.);
#794=ORIENTED_EDGE('',*,*,#616,.T.);
#795=ORIENTED_EDGE('',*,*,#617,.F.);
#796=ORIENTED_EDGE('',*,*,#618,.F.);
#797=ORIENTED_EDGE('',*,*,#555,.T.);
#798=ORIENTED_EDGE('',*,*,#561,.F.);
#799=ORIENTED_EDGE('',*,*,#619,.F.);
#800=ORIENTED_EDGE('',*,*,#620,.F.);
#801=ORIENTED_EDGE('',*,*,#621,.F.);
#802=ORIENTED_EDGE('',*,*,#616,.F.);
#803=ORIENTED_EDGE('',*,*,#622,.F.);
#804=ORIENTED_EDGE('',*,*,#623,.F.);
#805=ORIENTED_EDGE('',*,*,#624,.T.);
#806=ORIENTED_EDGE('',*,*,#625,.T.);
#807=ORIENTED_EDGE('',*,*,#626,.F.);
#808=ORIENTED_EDGE('',*,*,#627,.F.);
#809=ORIENTED_EDGE('',*,*,#628,.F.);
#810=ORIENTED_EDGE('',*,*,#629,.T.);
#811=ORIENTED_EDGE('',*,*,#624,.F.);
#812=ORIENTED_EDGE('',*,*,#630,.F.);
#813=ORIENTED_EDGE('',*,*,#626,.T.);
#814=ORIENTED_EDGE('',*,*,#631,.T.);
#815=ORIENTED_EDGE('',*,*,#632,.F.);
#816=ORIENTED_EDGE('',*,*,#631,.F.);
#817=ORIENTED_EDGE('',*,*,#625,.F.);
#818=ORIENTED_EDGE('',*,*,#629,.F.);
#819=ORIENTED_EDGE('',*,*,#633,.F.);
#820=ORIENTED_EDGE('',*,*,#634,.F.);
#821=ORIENTED_EDGE('',*,*,#593,.T.);
#822=ORIENTED_EDGE('',*,*,#588,.T.);
#823=ORIENTED_EDGE('',*,*,#635,.F.);
#824=ORIENTED_EDGE('',*,*,#636,.T.);
#825=ORIENTED_EDGE('',*,*,#637,.T.);
#826=ORIENTED_EDGE('',*,*,#638,.F.);
#827=ORIENTED_EDGE('',*,*,#596,.T.);
#828=ORIENTED_EDGE('',*,*,#600,.T.);
#829=ORIENTED_EDGE('',*,*,#639,.F.);
#830=ORIENTED_EDGE('',*,*,#640,.T.);
#831=ORIENTED_EDGE('',*,*,#641,.T.);
#832=ORIENTED_EDGE('',*,*,#574,.T.);
#833=ORIENTED_EDGE('',*,*,#580,.T.);
#834=ORIENTED_EDGE('',*,*,#642,.F.);
#835=ORIENTED_EDGE('',*,*,#611,.T.);
#836=ORIENTED_EDGE('',*,*,#612,.T.);
#837=ORIENTED_EDGE('',*,*,#607,.T.);
#838=ORIENTED_EDGE('',*,*,#643,.F.);
#839=ORIENTED_EDGE('',*,*,#644,.F.);
#840=ORIENTED_EDGE('',*,*,#645,.T.);
#841=ORIENTED_EDGE('',*,*,#646,.T.);
#842=ORIENTED_EDGE('',*,*,#647,.F.);
#843=ORIENTED_EDGE('',*,*,#632,.T.);
#844=ORIENTED_EDGE('',*,*,#633,.T.);
#845=ORIENTED_EDGE('',*,*,#628,.T.);
#846=ORIENTED_EDGE('',*,*,#648,.F.);
#847=ORIENTED_EDGE('',*,*,#591,.T.);
#848=ORIENTED_EDGE('',*,*,#583,.F.);
#849=ORIENTED_EDGE('',*,*,#594,.T.);
#850=ORIENTED_EDGE('',*,*,#638,.T.);
#851=ORIENTED_EDGE('',*,*,#649,.T.);
#852=ORIENTED_EDGE('',*,*,#650,.T.);
#853=ORIENTED_EDGE('',*,*,#651,.T.);
#854=ORIENTED_EDGE('',*,*,#652,.T.);
#855=ORIENTED_EDGE('',*,*,#653,.T.);
#856=ORIENTED_EDGE('',*,*,#654,.T.);
#857=ORIENTED_EDGE('',*,*,#643,.T.);
#858=ORIENTED_EDGE('',*,*,#606,.T.);
#859=ORIENTED_EDGE('',*,*,#602,.T.);
#860=ORIENTED_EDGE('',*,*,#609,.T.);
#861=ORIENTED_EDGE('',*,*,#648,.T.);
#862=ORIENTED_EDGE('',*,*,#627,.T.);
#863=ORIENTED_EDGE('',*,*,#623,.T.);
#864=ORIENTED_EDGE('',*,*,#630,.T.);
#865=ORIENTED_EDGE('',*,*,#647,.T.);
#866=ORIENTED_EDGE('',*,*,#655,.T.);
#867=ORIENTED_EDGE('',*,*,#656,.T.);
#868=ORIENTED_EDGE('',*,*,#657,.T.);
#869=ORIENTED_EDGE('',*,*,#658,.T.);
#870=ORIENTED_EDGE('',*,*,#659,.T.);
#871=ORIENTED_EDGE('',*,*,#660,.T.);
#872=ORIENTED_EDGE('',*,*,#661,.T.);
#873=ORIENTED_EDGE('',*,*,#559,.T.);
#874=ORIENTED_EDGE('',*,*,#557,.F.);
#875=ORIENTED_EDGE('',*,*,#618,.T.);
#876=ORIENTED_EDGE('',*,*,#662,.T.);
#877=ORIENTED_EDGE('',*,*,#566,.T.);
#878=ORIENTED_EDGE('',*,*,#564,.F.);
#879=ORIENTED_EDGE('',*,*,#597,.T.);
#880=ORIENTED_EDGE('',*,*,#642,.T.);
#881=ORIENTED_EDGE('',*,*,#579,.T.);
#882=ORIENTED_EDGE('',*,*,#571,.F.);
#883=ORIENTED_EDGE('',*,*,#615,.T.);
#884=ORIENTED_EDGE('',*,*,#663,.T.);
#885=ORIENTED_EDGE('',*,*,#590,.T.);
#886=ORIENTED_EDGE('',*,*,#664,.T.);
#887=ORIENTED_EDGE('',*,*,#665,.T.);
#888=ORIENTED_EDGE('',*,*,#664,.F.);
#889=ORIENTED_EDGE('',*,*,#601,.T.);
#890=ORIENTED_EDGE('',*,*,#666,.T.);
#891=ORIENTED_EDGE('',*,*,#667,.T.);
#892=ORIENTED_EDGE('',*,*,#666,.F.);
#893=ORIENTED_EDGE('',*,*,#578,.T.);
#894=ORIENTED_EDGE('',*,*,#668,.T.);
#895=ORIENTED_EDGE('',*,*,#669,.T.);
#896=ORIENTED_EDGE('',*,*,#668,.F.);
#897=ORIENTED_EDGE('',*,*,#622,.T.);
#898=ORIENTED_EDGE('',*,*,#670,.T.);
#899=ORIENTED_EDGE('',*,*,#671,.T.);
#900=ORIENTED_EDGE('',*,*,#670,.F.);
#901=ORIENTED_EDGE('',*,*,#634,.T.);
#902=ORIENTED_EDGE('',*,*,#672,.T.);
#903=ORIENTED_EDGE('',*,*,#673,.T.);
#904=ORIENTED_EDGE('',*,*,#672,.F.);
#905=ORIENTED_EDGE('',*,*,#613,.T.);
#906=ORIENTED_EDGE('',*,*,#674,.T.);
#907=ORIENTED_EDGE('',*,*,#675,.T.);
#908=ORIENTED_EDGE('',*,*,#674,.F.);
#909=ORIENTED_EDGE('',*,*,#676,.F.);
#910=ORIENTED_EDGE('',*,*,#677,.T.);
#911=ORIENTED_EDGE('',*,*,#653,.F.);
#912=ORIENTED_EDGE('',*,*,#678,.F.);
#913=ORIENTED_EDGE('',*,*,#679,.T.);
#914=ORIENTED_EDGE('',*,*,#678,.T.);
#915=ORIENTED_EDGE('',*,*,#652,.F.);
#916=ORIENTED_EDGE('',*,*,#680,.F.);
#917=ORIENTED_EDGE('',*,*,#681,.F.);
#918=ORIENTED_EDGE('',*,*,#680,.T.);
#919=ORIENTED_EDGE('',*,*,#651,.F.);
#920=ORIENTED_EDGE('',*,*,#682,.F.);
#921=ORIENTED_EDGE('',*,*,#683,.T.);
#922=ORIENTED_EDGE('',*,*,#682,.T.);
#923=ORIENTED_EDGE('',*,*,#650,.F.);
#924=ORIENTED_EDGE('',*,*,#684,.F.);
#925=ORIENTED_EDGE('',*,*,#685,.T.);
#926=ORIENTED_EDGE('',*,*,#684,.T.);
#927=ORIENTED_EDGE('',*,*,#649,.F.);
#928=ORIENTED_EDGE('',*,*,#637,.F.);
#929=ORIENTED_EDGE('',*,*,#587,.T.);
#930=ORIENTED_EDGE('',*,*,#686,.F.);
#931=ORIENTED_EDGE('',*,*,#687,.T.);
#932=ORIENTED_EDGE('',*,*,#635,.T.);
#933=ORIENTED_EDGE('',*,*,#592,.T.);
#934=ORIENTED_EDGE('',*,*,#663,.F.);
#935=ORIENTED_EDGE('',*,*,#614,.T.);
#936=ORIENTED_EDGE('',*,*,#576,.T.);
#937=ORIENTED_EDGE('',*,*,#688,.F.);
#938=ORIENTED_EDGE('',*,*,#689,.T.);
#939=ORIENTED_EDGE('',*,*,#686,.T.);
#940=ORIENTED_EDGE('',*,*,#586,.T.);
#941=ORIENTED_EDGE('',*,*,#575,.T.);
#942=ORIENTED_EDGE('',*,*,#641,.F.);
#943=ORIENTED_EDGE('',*,*,#690,.T.);
#944=ORIENTED_EDGE('',*,*,#688,.T.);
#945=ORIENTED_EDGE('',*,*,#599,.T.);
#946=ORIENTED_EDGE('',*,*,#691,.F.);
#947=ORIENTED_EDGE('',*,*,#692,.T.);
#948=ORIENTED_EDGE('',*,*,#639,.T.);
#949=ORIENTED_EDGE('',*,*,#567,.T.);
#950=ORIENTED_EDGE('',*,*,#662,.F.);
#951=ORIENTED_EDGE('',*,*,#617,.T.);
#952=ORIENTED_EDGE('',*,*,#621,.T.);
#953=ORIENTED_EDGE('',*,*,#693,.F.);
#954=ORIENTED_EDGE('',*,*,#694,.T.);
#955=ORIENTED_EDGE('',*,*,#691,.T.);
#956=ORIENTED_EDGE('',*,*,#598,.T.);
#957=ORIENTED_EDGE('',*,*,#620,.T.);
#958=ORIENTED_EDGE('',*,*,#695,.F.);
#959=ORIENTED_EDGE('',*,*,#696,.T.);
#960=ORIENTED_EDGE('',*,*,#693,.T.);
#961=ORIENTED_EDGE('',*,*,#560,.T.);
#962=ORIENTED_EDGE('',*,*,#661,.F.);
#963=ORIENTED_EDGE('',*,*,#697,.F.);
#964=ORIENTED_EDGE('',*,*,#698,.T.);
#965=ORIENTED_EDGE('',*,*,#695,.T.);
#966=ORIENTED_EDGE('',*,*,#619,.T.);
#967=ORIENTED_EDGE('',*,*,#699,.T.);
#968=ORIENTED_EDGE('',*,*,#697,.T.);
#969=ORIENTED_EDGE('',*,*,#660,.F.);
#970=ORIENTED_EDGE('',*,*,#700,.F.);
#971=ORIENTED_EDGE('',*,*,#701,.T.);
#972=ORIENTED_EDGE('',*,*,#700,.T.);
#973=ORIENTED_EDGE('',*,*,#659,.F.);
#974=ORIENTED_EDGE('',*,*,#702,.F.);
#975=ORIENTED_EDGE('',*,*,#703,.F.);
#976=ORIENTED_EDGE('',*,*,#702,.T.);
#977=ORIENTED_EDGE('',*,*,#658,.F.);
#978=ORIENTED_EDGE('',*,*,#704,.F.);
#979=ORIENTED_EDGE('',*,*,#705,.T.);
#980=ORIENTED_EDGE('',*,*,#704,.T.);
#981=ORIENTED_EDGE('',*,*,#657,.F.);
#982=ORIENTED_EDGE('',*,*,#706,.F.);
#983=ORIENTED_EDGE('',*,*,#707,.F.);
#984=ORIENTED_EDGE('',*,*,#706,.T.);
#985=ORIENTED_EDGE('',*,*,#656,.F.);
#986=ORIENTED_EDGE('',*,*,#708,.F.);
#987=ORIENTED_EDGE('',*,*,#709,.T.);
#988=ORIENTED_EDGE('',*,*,#708,.T.);
#989=ORIENTED_EDGE('',*,*,#655,.F.);
#990=ORIENTED_EDGE('',*,*,#646,.F.);
#991=ORIENTED_EDGE('',*,*,#710,.T.);
#992=ORIENTED_EDGE('',*,*,#644,.T.);
#993=ORIENTED_EDGE('',*,*,#654,.F.);
#994=ORIENTED_EDGE('',*,*,#677,.F.);
#995=ORIENTED_EDGE('',*,*,#710,.F.);
#996=ORIENTED_EDGE('',*,*,#676,.T.);
#997=ORIENTED_EDGE('',*,*,#679,.F.);
#998=ORIENTED_EDGE('',*,*,#681,.T.);
#999=ORIENTED_EDGE('',*,*,#683,.F.);
#1000=ORIENTED_EDGE('',*,*,#685,.F.);
#1001=ORIENTED_EDGE('',*,*,#636,.F.);
#1002=ORIENTED_EDGE('',*,*,#687,.F.);
#1003=ORIENTED_EDGE('',*,*,#689,.F.);
#1004=ORIENTED_EDGE('',*,*,#690,.F.);
#1005=ORIENTED_EDGE('',*,*,#640,.F.);
#1006=ORIENTED_EDGE('',*,*,#692,.F.);
#1007=ORIENTED_EDGE('',*,*,#694,.F.);
#1008=ORIENTED_EDGE('',*,*,#696,.F.);
#1009=ORIENTED_EDGE('',*,*,#698,.F.);
#1010=ORIENTED_EDGE('',*,*,#699,.F.);
#1011=ORIENTED_EDGE('',*,*,#701,.F.);
#1012=ORIENTED_EDGE('',*,*,#703,.T.);
#1013=ORIENTED_EDGE('',*,*,#705,.F.);
#1014=ORIENTED_EDGE('',*,*,#707,.T.);
#1015=ORIENTED_EDGE('',*,*,#709,.F.);
#1016=ORIENTED_EDGE('',*,*,#645,.F.);
#1017=ORIENTED_EDGE('',*,*,#675,.F.);
#1018=ORIENTED_EDGE('',*,*,#673,.F.);
#1019=ORIENTED_EDGE('',*,*,#671,.F.);
#1020=ORIENTED_EDGE('',*,*,#669,.F.);
#1021=ORIENTED_EDGE('',*,*,#667,.F.);
#1022=ORIENTED_EDGE('',*,*,#665,.F.);
#1023=CYLINDRICAL_SURFACE('',#1114,2.);
#1024=CYLINDRICAL_SURFACE('',#1118,2.);
#1025=CYLINDRICAL_SURFACE('',#1122,2.);
#1026=CYLINDRICAL_SURFACE('',#1129,2.);
#1027=CYLINDRICAL_SURFACE('',#1141,2.);
#1028=CYLINDRICAL_SURFACE('',#1153,2.);
#1029=CYLINDRICAL_SURFACE('',#1170,1.05);
#1030=CYLINDRICAL_SURFACE('',#1172,1.05);
#1031=CYLINDRICAL_SURFACE('',#1174,1.05);
#1032=CYLINDRICAL_SURFACE('',#1176,1.05);
#1033=CYLINDRICAL_SURFACE('',#1178,1.05);
#1034=CYLINDRICAL_SURFACE('',#1180,1.05);
#1035=CYLINDRICAL_SURFACE('',#1182,0.999999999999996);
#1036=CYLINDRICAL_SURFACE('',#1185,0.999999999999999);
#1037=CYLINDRICAL_SURFACE('',#1188,3.00000000000001);
#1038=CYLINDRICAL_SURFACE('',#1190,2.99999999999578);
#1039=CYLINDRICAL_SURFACE('',#1193,3.00000000000427);
#1040=CYLINDRICAL_SURFACE('',#1195,2.99999999999572);
#1041=CYLINDRICAL_SURFACE('',#1198,2.99999999991809);
#1042=CYLINDRICAL_SURFACE('',#1201,2.99999999999999);
#1043=CYLINDRICAL_SURFACE('',#1204,0.999999999999979);
#1044=CYLINDRICAL_SURFACE('',#1207,1.);
#1045=ADVANCED_FACE('',(#63),#1023,.F.);
#1046=ADVANCED_FACE('',(#64),#31,.F.);
#1047=ADVANCED_FACE('',(#65),#1024,.F.);
#1048=ADVANCED_FACE('',(#66),#32,.F.);
#1049=ADVANCED_FACE('',(#67),#1025,.F.);
#1050=ADVANCED_FACE('',(#68,#19),#33,.T.);
#1051=ADVANCED_FACE('',(#69),#34,.F.);
#1052=ADVANCED_FACE('',(#70),#1026,.F.);
#1053=ADVANCED_FACE('',(#71,#20),#35,.T.);
#1054=ADVANCED_FACE('',(#72),#36,.F.);
#1055=ADVANCED_FACE('',(#73),#37,.F.);
#1056=ADVANCED_FACE('',(#74),#38,.F.);
#1057=ADVANCED_FACE('',(#75,#21),#39,.T.);
#1058=ADVANCED_FACE('',(#76),#1027,.F.);
#1059=ADVANCED_FACE('',(#77),#40,.F.);
#1060=ADVANCED_FACE('',(#78),#41,.F.);
#1061=ADVANCED_FACE('',(#79,#22),#42,.T.);
#1062=ADVANCED_FACE('',(#80),#43,.F.);
#1063=ADVANCED_FACE('',(#81),#44,.F.);
#1064=ADVANCED_FACE('',(#82,#23),#45,.T.);
#1065=ADVANCED_FACE('',(#83),#1028,.F.);
#1066=ADVANCED_FACE('',(#84),#46,.F.);
#1067=ADVANCED_FACE('',(#85),#47,.F.);
#1068=ADVANCED_FACE('',(#86,#24),#48,.T.);
#1069=ADVANCED_FACE('',(#87),#49,.T.);
#1070=ADVANCED_FACE('',(#88),#50,.T.);
#1071=ADVANCED_FACE('',(#89),#51,.T.);
#1072=ADVANCED_FACE('',(#90),#52,.T.);
#1073=ADVANCED_FACE('',(#91),#1029,.F.);
#1074=ADVANCED_FACE('',(#92),#1030,.F.);
#1075=ADVANCED_FACE('',(#93),#1031,.F.);
#1076=ADVANCED_FACE('',(#94),#1032,.F.);
#1077=ADVANCED_FACE('',(#95),#1033,.F.);
#1078=ADVANCED_FACE('',(#96),#1034,.F.);
#1079=ADVANCED_FACE('',(#97),#1035,.F.);
#1080=ADVANCED_FACE('',(#98),#53,.T.);
#1081=ADVANCED_FACE('',(#99),#1036,.F.);
#1082=ADVANCED_FACE('',(#100),#54,.T.);
#1083=ADVANCED_FACE('',(#101),#1037,.T.);
#1084=ADVANCED_FACE('',(#102),#1038,.T.);
#1085=ADVANCED_FACE('',(#103),#55,.T.);
#1086=ADVANCED_FACE('',(#104),#1039,.T.);
#1087=ADVANCED_FACE('',(#105),#1040,.T.);
#1088=ADVANCED_FACE('',(#106),#56,.T.);
#1089=ADVANCED_FACE('',(#107),#1041,.T.);
#1090=ADVANCED_FACE('',(#108),#57,.T.);
#1091=ADVANCED_FACE('',(#109),#1042,.T.);
#1092=ADVANCED_FACE('',(#110),#58,.T.);
#1093=ADVANCED_FACE('',(#111),#1043,.F.);
#1094=ADVANCED_FACE('',(#112),#59,.T.);
#1095=ADVANCED_FACE('',(#113),#1044,.F.);
#1096=ADVANCED_FACE('',(#114),#60,.T.);
#1097=ADVANCED_FACE('',(#115),#61,.T.);
#1098=ADVANCED_FACE('',(#116,#25,#26,#27,#28,#29,#30),#62,.F.);
#1099=CLOSED_SHELL('',(#1045,#1046,#1047,#1048,#1049,#1050,#1051,#1052,
#1053,#1054,#1055,#1056,#1057,#1058,#1059,#1060,#1061,#1062,#1063,#1064,
#1065,#1066,#1067,#1068,#1069,#1070,#1071,#1072,#1073,#1074,#1075,#1076,
#1077,#1078,#1079,#1080,#1081,#1082,#1083,#1084,#1085,#1086,#1087,#1088,
#1089,#1090,#1091,#1092,#1093,#1094,#1095,#1096,#1097,#1098));
#1100=DERIVED_UNIT_ELEMENT(#1102,1.);
#1101=DERIVED_UNIT_ELEMENT(#1851,-3.);
#1102=(
MASS_UNIT()
NAMED_UNIT(*)
SI_UNIT(.KILO.,.GRAM.)
);
#1103=DERIVED_UNIT((#1100,#1101));
#1104=MEASURE_REPRESENTATION_ITEM('density measure',
POSITIVE_RATIO_MEASURE(7850.),#1103);
#1105=PROPERTY_DEFINITION_REPRESENTATION(#1110,#1107);
#1106=PROPERTY_DEFINITION_REPRESENTATION(#1111,#1108);
#1107=REPRESENTATION('material name',(#1109),#1848);
#1108=REPRESENTATION('density',(#1104),#1848);
#1109=DESCRIPTIVE_REPRESENTATION_ITEM('Steel','Steel');
#1110=PROPERTY_DEFINITION('material property','material name',#1863);
#1111=PROPERTY_DEFINITION('material property','density of part',#1863);
#1112=AXIS2_PLACEMENT_3D('',#1527,#1213,#1214);
#1113=AXIS2_PLACEMENT_3D('',#1528,#1215,#1216);
#1114=AXIS2_PLACEMENT_3D('',#1529,#1217,#1218);
#1115=AXIS2_PLACEMENT_3D('',#1532,#1219,#1220);
#1116=AXIS2_PLACEMENT_3D('',#1536,#1222,#1223);
#1117=AXIS2_PLACEMENT_3D('',#1538,#1225,#1226);
#1118=AXIS2_PLACEMENT_3D('',#1544,#1230,#1231);
#1119=AXIS2_PLACEMENT_3D('',#1547,#1232,#1233);
#1120=AXIS2_PLACEMENT_3D('',#1551,#1235,#1236);
#1121=AXIS2_PLACEMENT_3D('',#1553,#1238,#1239);
#1122=AXIS2_PLACEMENT_3D('',#1559,#1243,#1244);
#1123=AXIS2_PLACEMENT_3D('',#1562,#1245,#1246);
#1124=AXIS2_PLACEMENT_3D('',#1566,#1248,#1249);
#1125=AXIS2_PLACEMENT_3D('',#1568,#1251,#1252);
#1126=AXIS2_PLACEMENT_3D('',#1574,#1255,#1256);
#1127=AXIS2_PLACEMENT_3D('',#1579,#1259,#1260);
#1128=AXIS2_PLACEMENT_3D('',#1580,#1261,#1262);
#1129=AXIS2_PLACEMENT_3D('',#1584,#1265,#1266);
#1130=AXIS2_PLACEMENT_3D('',#1587,#1267,#1268);
#1131=AXIS2_PLACEMENT_3D('',#1591,#1270,#1271);
#1132=AXIS2_PLACEMENT_3D('',#1593,#1273,#1274);
#1133=AXIS2_PLACEMENT_3D('',#1599,#1277,#1278);
#1134=AXIS2_PLACEMENT_3D('',#1604,#1281,#1282);
#1135=AXIS2_PLACEMENT_3D('',#1605,#1283,#1284);
#1136=AXIS2_PLACEMENT_3D('',#1609,#1287,#1288);
#1137=AXIS2_PLACEMENT_3D('',#1613,#1291,#1292);
#1138=AXIS2_PLACEMENT_3D('',#1619,#1296,#1297);
#1139=AXIS2_PLACEMENT_3D('',#1623,#1299,#1300);
#1140=AXIS2_PLACEMENT_3D('',#1626,#1302,#1303);
#1141=AXIS2_PLACEMENT_3D('',#1627,#1304,#1305);
#1142=AXIS2_PLACEMENT_3D('',#1630,#1306,#1307);
#1143=AXIS2_PLACEMENT_3D('',#1634,#1309,#1310);
#1144=AXIS2_PLACEMENT_3D('',#1636,#1312,#1313);
#1145=AXIS2_PLACEMENT_3D('',#1642,#1317,#1318);
#1146=AXIS2_PLACEMENT_3D('',#1648,#1322,#1323);
#1147=AXIS2_PLACEMENT_3D('',#1651,#1325,#1326);
#1148=AXIS2_PLACEMENT_3D('',#1652,#1327,#1328);
#1149=AXIS2_PLACEMENT_3D('',#1656,#1331,#1332);
#1150=AXIS2_PLACEMENT_3D('',#1662,#1336,#1337);
#1151=AXIS2_PLACEMENT_3D('',#1666,#1339,#1340);
#1152=AXIS2_PLACEMENT_3D('',#1669,#1342,#1343);
#1153=AXIS2_PLACEMENT_3D('',#1670,#1344,#1345);
#1154=AXIS2_PLACEMENT_3D('',#1673,#1346,#1347);
#1155=AXIS2_PLACEMENT_3D('',#1677,#1349,#1350);
#1156=AXIS2_PLACEMENT_3D('',#1679,#1352,#1353);
#1157=AXIS2_PLACEMENT_3D('',#1685,#1357,#1358);
#1158=AXIS2_PLACEMENT_3D('',#1691,#1362,#1363);
#1159=AXIS2_PLACEMENT_3D('',#1694,#1365,#1366);
#1160=AXIS2_PLACEMENT_3D('',#1695,#1367,#1368);
#1161=AXIS2_PLACEMENT_3D('',#1703,#1373,#1374);
#1162=AXIS2_PLACEMENT_3D('',#1710,#1379,#1380);
#1163=AXIS2_PLACEMENT_3D('',#1721,#1387,#1388);
#1164=AXIS2_PLACEMENT_3D('',#1723,#1389,#1390);
#1165=AXIS2_PLACEMENT_3D('',#1727,#1392,#1393);
#1166=AXIS2_PLACEMENT_3D('',#1731,#1395,#1396);
#1167=AXIS2_PLACEMENT_3D('',#1736,#1399,#1400);
#1168=AXIS2_PLACEMENT_3D('',#1740,#1402,#1403);
#1169=AXIS2_PLACEMENT_3D('',#1744,#1405,#1406);
#1170=AXIS2_PLACEMENT_3D('',#1748,#1410,#1411);
#1171=AXIS2_PLACEMENT_3D('',#1751,#1413,#1414);
#1172=AXIS2_PLACEMENT_3D('',#1752,#1415,#1416);
#1173=AXIS2_PLACEMENT_3D('',#1755,#1418,#1419);
#1174=AXIS2_PLACEMENT_3D('',#1756,#1420,#1421);
#1175=AXIS2_PLACEMENT_3D('',#1759,#1423,#1424);
#1176=AXIS2_PLACEMENT_3D('',#1760,#1425,#1426);
#1177=AXIS2_PLACEMENT_3D('',#1763,#1428,#1429);
#1178=AXIS2_PLACEMENT_3D('',#1764,#1430,#1431);
#1179=AXIS2_PLACEMENT_3D('',#1767,#1433,#1434);
#1180=AXIS2_PLACEMENT_3D('',#1768,#1435,#1436);
#1181=AXIS2_PLACEMENT_3D('',#1771,#1438,#1439);
#1182=AXIS2_PLACEMENT_3D('',#1772,#1440,#1441);
#1183=AXIS2_PLACEMENT_3D('',#1775,#1442,#1443);
#1184=AXIS2_PLACEMENT_3D('',#1778,#1446,#1447);
#1185=AXIS2_PLACEMENT_3D('',#1782,#1450,#1451);
#1186=AXIS2_PLACEMENT_3D('',#1784,#1452,#1453);
#1187=AXIS2_PLACEMENT_3D('',#1786,#1455,#1456);
#1188=AXIS2_PLACEMENT_3D('',#1790,#1459,#1460);
#1189=AXIS2_PLACEMENT_3D('',#1791,#1461,#1462);
#1190=AXIS2_PLACEMENT_3D('',#1792,#1463,#1464);
#1191=AXIS2_PLACEMENT_3D('',#1795,#1466,#1467);
#1192=AXIS2_PLACEMENT_3D('',#1796,#1468,#1469);
#1193=AXIS2_PLACEMENT_3D('',#1800,#1472,#1473);
#1194=AXIS2_PLACEMENT_3D('',#1801,#1474,#1475);
#1195=AXIS2_PLACEMENT_3D('',#1802,#1476,#1477);
#1196=AXIS2_PLACEMENT_3D('',#1805,#1479,#1480);
#1197=AXIS2_PLACEMENT_3D('',#1806,#1481,#1482);
#1198=AXIS2_PLACEMENT_3D('',#1810,#1485,#1486);
#1199=AXIS2_PLACEMENT_3D('',#1813,#1488,#1489);
#1200=AXIS2_PLACEMENT_3D('',#1814,#1490,#1491);
#1201=AXIS2_PLACEMENT_3D('',#1818,#1494,#1495);
#1202=AXIS2_PLACEMENT_3D('',#1820,#1496,#1497);
#1203=AXIS2_PLACEMENT_3D('',#1822,#1499,#1500);
#1204=AXIS2_PLACEMENT_3D('',#1826,#1503,#1504);
#1205=AXIS2_PLACEMENT_3D('',#1828,#1505,#1506);
#1206=AXIS2_PLACEMENT_3D('',#1830,#1508,#1509);
#1207=AXIS2_PLACEMENT_3D('',#1834,#1512,#1513);
#1208=AXIS2_PLACEMENT_3D('',#1836,#1514,#1515);
#1209=AXIS2_PLACEMENT_3D('',#1838,#1517,#1518);
#1210=AXIS2_PLACEMENT_3D('',#1840,#1520,#1521);
#1211=AXIS2_PLACEMENT_3D('',#1842,#1523,#1524);
#1212=AXIS2_PLACEMENT_3D('',#1843,#1525,#1526);
#1213=DIRECTION('axis',(0.,0.,1.));
#1214=DIRECTION('refdir',(1.,0.,0.));
#1215=DIRECTION('axis',(0.,0.,1.));
#1216=DIRECTION('refdir',(1.,0.,0.));
#1217=DIRECTION('center_axis',(0.,0.,1.));
#1218=DIRECTION('ref_axis',(0.70710678118638,-0.707106781186716,0.));
#1219=DIRECTION('center_axis',(0.,0.,-1.));
#1220=DIRECTION('ref_axis',(0.70710678118638,-0.707106781186716,0.));
#1221=DIRECTION('',(0.,0.,-1.));
#1222=DIRECTION('center_axis',(0.,0.,-1.));
#1223=DIRECTION('ref_axis',(0.70710678118638,-0.707106781186716,0.));
#1224=DIRECTION('',(0.,0.,1.));
#1225=DIRECTION('center_axis',(-4.79616346645925E-13,-1.,0.));
#1226=DIRECTION('ref_axis',(1.,-4.79616346645925E-13,0.));
#1227=DIRECTION('',(1.,-4.79616346645925E-13,0.));
#1228=DIRECTION('',(0.,0.,-1.));
#1229=DIRECTION('',(1.,-4.79616346645925E-13,0.));
#1230=DIRECTION('center_axis',(0.,0.,1.));
#1231=DIRECTION('ref_axis',(-0.707106781187053,-0.707106781186042,0.));
#1232=DIRECTION('center_axis',(0.,0.,-1.));
#1233=DIRECTION('ref_axis',(-0.707106781187053,-0.707106781186042,0.));
#1234=DIRECTION('',(0.,0.,-1.));
#1235=DIRECTION('center_axis',(0.,0.,-1.));
#1236=DIRECTION('ref_axis',(-0.707106781187053,-0.707106781186042,0.));
#1237=DIRECTION('',(0.,0.,1.));
#1238=DIRECTION('center_axis',(-1.,-3.55271367880559E-15,0.));
#1239=DIRECTION('ref_axis',(3.55271367880559E-15,-1.,0.));
#1240=DIRECTION('',(3.55271367880559E-15,-1.,0.));
#1241=DIRECTION('',(0.,0.,-1.));
#1242=DIRECTION('',(3.55271367880559E-15,-1.,0.));
#1243=DIRECTION('center_axis',(0.,0.,1.));
#1244=DIRECTION('ref_axis',(-0.707106781186039,0.707106781187056,0.));
#1245=DIRECTION('center_axis',(0.,0.,-1.));
#1246=DIRECTION('ref_axis',(-0.707106781186039,0.707106781187056,0.));
#1247=DIRECTION('',(0.,0.,-1.));
#1248=DIRECTION('center_axis',(0.,0.,-1.));
#1249=DIRECTION('ref_axis',(-0.707106781186039,0.707106781187056,0.));
#1250=DIRECTION('',(0.,0.,1.));
#1251=DIRECTION('center_axis',(0.,0.,-1.));
#1252=DIRECTION('ref_axis',(-1.,0.,0.));
#1253=DIRECTION('',(-1.,1.43884903991214E-12,0.));
#1254=DIRECTION('',(1.43918035467551E-12,1.,0.));
#1255=DIRECTION('center_axis',(0.,0.,1.));
#1256=DIRECTION('ref_axis',(1.,-1.77635683939772E-14,0.));
#1257=DIRECTION('',(1.,-1.43837744075301E-12,0.));
#1258=DIRECTION('',(5.3290705182053E-15,-1.,0.));
#1259=DIRECTION('center_axis',(0.,0.,-1.));
#1260=DIRECTION('ref_axis',(1.,0.,0.));
#1261=DIRECTION('center_axis',(1.43884903991214E-12,1.,0.));
#1262=DIRECTION('ref_axis',(-1.,1.43884903991214E-12,0.));
#1263=DIRECTION('',(-1.,1.43884903991214E-12,0.));
#1264=DIRECTION('',(0.,0.,-1.));
#1265=DIRECTION('center_axis',(0.,0.,1.));
#1266=DIRECTION('ref_axis',(0.707106781187052,0.707106781186044,0.));
#1267=DIRECTION('center_axis',(0.,0.,-1.));
#1268=DIRECTION('ref_axis',(0.707106781187052,0.707106781186044,0.));
#1269=DIRECTION('',(0.,0.,-1.));
#1270=DIRECTION('center_axis',(0.,0.,-1.));
#1271=DIRECTION('ref_axis',(0.707106781187052,0.707106781186044,0.));
#1272=DIRECTION('',(0.,0.,1.));
#1273=DIRECTION('center_axis',(0.,0.,-1.));
#1274=DIRECTION('ref_axis',(-1.,0.,0.));
#1275=DIRECTION('',(1.43751677228503E-12,1.,0.));
#1276=DIRECTION('',(1.,-1.43837744075301E-12,0.));
#1277=DIRECTION('center_axis',(0.,0.,1.));
#1278=DIRECTION('ref_axis',(2.5863755581704E-11,-1.,0.));
#1279=DIRECTION('',(-1.43818290609509E-12,-1.,0.));
#1280=DIRECTION('',(-1.,-7.1054273577174E-15,0.));
#1281=DIRECTION('center_axis',(0.,0.,-1.));
#1282=DIRECTION('ref_axis',(1.,0.,0.));
#1283=DIRECTION('center_axis',(1.,-1.43751677228503E-12,0.));
#1284=DIRECTION('ref_axis',(1.43751677228503E-12,1.,0.));
#1285=DIRECTION('',(1.43751677228503E-12,1.,0.));
#1286=DIRECTION('',(0.,0.,-1.));
#1287=DIRECTION('center_axis',(-7.1054273577174E-15,1.,0.));
#1288=DIRECTION('ref_axis',(-1.,-7.1054273577174E-15,0.));
#1289=DIRECTION('',(0.,0.,1.));
#1290=DIRECTION('',(-1.,-7.1054273577174E-15,0.));
#1291=DIRECTION('center_axis',(-1.43884903988485E-12,-1.,0.));
#1292=DIRECTION('ref_axis',(1.,-1.43884903988485E-12,0.));
#1293=DIRECTION('',(1.,-1.43884903988485E-12,0.));
#1294=DIRECTION('',(0.,0.,1.));
#1295=DIRECTION('',(1.,-1.43884903988485E-12,0.));
#1296=DIRECTION('center_axis',(0.,0.,-1.));
#1297=DIRECTION('ref_axis',(-1.,0.,0.));
#1298=DIRECTION('',(-1.,-3.53699370676445E-15,0.));
#1299=DIRECTION('center_axis',(0.,0.,1.));
#1300=DIRECTION('ref_axis',(3.49587025994468E-11,1.,0.));
#1301=DIRECTION('',(1.43918035467551E-12,1.,0.));
#1302=DIRECTION('center_axis',(0.,0.,-1.));
#1303=DIRECTION('ref_axis',(1.,0.,0.));
#1304=DIRECTION('center_axis',(0.,0.,1.));
#1305=DIRECTION('ref_axis',(0.,1.,0.));
#1306=DIRECTION('center_axis',(0.,0.,1.));
#1307=DIRECTION('ref_axis',(0.,1.,0.));
#1308=DIRECTION('',(0.,0.,1.));
#1309=DIRECTION('center_axis',(0.,0.,1.));
#1310=DIRECTION('ref_axis',(0.,1.,0.));
#1311=DIRECTION('',(0.,0.,1.));
#1312=DIRECTION('center_axis',(0.,-1.,0.));
#1313=DIRECTION('ref_axis',(1.,0.,0.));
#1314=DIRECTION('',(1.,0.,0.));
#1315=DIRECTION('',(0.,0.,-1.));
#1316=DIRECTION('',(1.,0.,0.));
#1317=DIRECTION('center_axis',(0.,1.,0.));
#1318=DIRECTION('ref_axis',(-1.,0.,0.));
#1319=DIRECTION('',(-1.,0.,0.));
#1320=DIRECTION('',(-1.,0.,0.));
#1321=DIRECTION('',(0.,0.,1.));
#1322=DIRECTION('center_axis',(0.,0.,-1.));
#1323=DIRECTION('ref_axis',(-1.,0.,0.));
#1324=DIRECTION('',(0.,-1.,0.));
#1325=DIRECTION('center_axis',(0.,0.,-1.));
#1326=DIRECTION('ref_axis',(1.,0.,0.));
#1327=DIRECTION('center_axis',(-1.,-5.3290705182053E-15,0.));
#1328=DIRECTION('ref_axis',(5.3290705182053E-15,-1.,0.));
#1329=DIRECTION('',(0.,0.,1.));
#1330=DIRECTION('',(5.3290705182053E-15,-1.,0.));
#1331=DIRECTION('center_axis',(1.,3.55271367880281E-15,0.));
#1332=DIRECTION('ref_axis',(-3.55271367880281E-15,1.,0.));
#1333=DIRECTION('',(-3.55271367880281E-15,1.,0.));
#1334=DIRECTION('',(0.,0.,1.));
#1335=DIRECTION('',(-3.55271367880281E-15,1.,0.));
#1336=DIRECTION('center_axis',(0.,0.,-1.));
#1337=DIRECTION('ref_axis',(-1.,0.,0.));
#1338=DIRECTION('',(4.44089209849873E-15,-1.,0.));
#1339=DIRECTION('center_axis',(0.,0.,1.));
#1340=DIRECTION('ref_axis',(-1.,-1.41220368736176E-12,0.));
#1341=DIRECTION('',(-1.,-3.53699370676445E-15,0.));
#1342=DIRECTION('center_axis',(0.,0.,-1.));
#1343=DIRECTION('ref_axis',(1.,0.,0.));
#1344=DIRECTION('center_axis',(0.,0.,1.));
#1345=DIRECTION('ref_axis',(0.,1.,0.));
#1346=DIRECTION('center_axis',(0.,0.,1.));
#1347=DIRECTION('ref_axis',(0.,1.,0.));
#1348=DIRECTION('',(0.,0.,1.));
#1349=DIRECTION('center_axis',(0.,0.,1.));
#1350=DIRECTION('ref_axis',(0.,1.,0.));
#1351=DIRECTION('',(0.,0.,1.));
#1352=DIRECTION('center_axis',(2.92921242821531E-12,-1.,0.));
#1353=DIRECTION('ref_axis',(1.,2.92921242821531E-12,0.));
#1354=DIRECTION('',(1.,2.92921242821531E-12,0.));
#1355=DIRECTION('',(0.,0.,-1.));
#1356=DIRECTION('',(1.,2.92921242821531E-12,0.));
#1357=DIRECTION('center_axis',(0.,1.,0.));
#1358=DIRECTION('ref_axis',(-1.,0.,0.));
#1359=DIRECTION('',(-1.,0.,0.));
#1360=DIRECTION('',(-1.,0.,0.));
#1361=DIRECTION('',(0.,0.,1.));
#1362=DIRECTION('center_axis',(0.,0.,-1.));
#1363=DIRECTION('ref_axis',(-1.,0.,0.));
#1364=DIRECTION('',(0.,-1.,0.));
#1365=DIRECTION('center_axis',(0.,0.,-1.));
#1366=DIRECTION('ref_axis',(1.,0.,0.));
#1367=DIRECTION('center_axis',(-1.,1.43818290609509E-12,0.));
#1368=DIRECTION('ref_axis',(1.43818290609509E-12,1.,0.));
#1369=DIRECTION('',(0.,0.,-1.));
#1370=DIRECTION('',(1.43818290609509E-12,1.,0.));
#1371=DIRECTION('',(0.,0.,-1.));
#1372=DIRECTION('',(1.43818290609509E-12,1.,0.));
#1373=DIRECTION('center_axis',(1.,-1.43918035467551E-12,0.));
#1374=DIRECTION('ref_axis',(-1.43918035467551E-12,-1.,0.));
#1375=DIRECTION('',(0.,0.,-1.));
#1376=DIRECTION('',(-1.43918035467551E-12,-1.,0.));
#1377=DIRECTION('',(0.,0.,-1.));
#1378=DIRECTION('',(-1.43918035467551E-12,-1.,0.));
#1379=DIRECTION('center_axis',(-1.,0.,0.));
#1380=DIRECTION('ref_axis',(0.,1.,0.));
#1381=DIRECTION('',(0.,1.,0.));
#1382=DIRECTION('',(0.,0.,-1.));
#1383=DIRECTION('',(0.,1.,0.));
#1384=DIRECTION('',(0.,0.,-1.));
#1385=DIRECTION('',(0.,1.,0.));
#1386=DIRECTION('',(0.,1.,0.));
#1387=DIRECTION('center_axis',(0.,0.,-1.));
#1388=DIRECTION('ref_axis',(1.,0.,0.));
#1389=DIRECTION('center_axis',(0.,0.,-1.));
#1390=DIRECTION('ref_axis',(-1.,1.4388490399142E-12,0.));
#1391=DIRECTION('',(1.,1.03620815629616E-14,0.));
#1392=DIRECTION('center_axis',(0.,0.,1.));
#1393=DIRECTION('ref_axis',(1.,0.,0.));
#1394=DIRECTION('',(0.,1.,0.));
#1395=DIRECTION('center_axis',(0.,0.,1.));
#1396=DIRECTION('ref_axis',(-7.94919685631615E-13,1.,0.));
#1397=DIRECTION('',(-1.,-7.94126525393163E-13,0.));
#1398=DIRECTION('',(1.,-7.17306741856965E-13,0.));
#1399=DIRECTION('center_axis',(0.,0.,1.));
#1400=DIRECTION('ref_axis',(1.,-8.88178419700124E-15,0.));
#1401=DIRECTION('',(0.,1.,0.));
#1402=DIRECTION('center_axis',(0.,0.,1.));
#1403=DIRECTION('ref_axis',(2.76667577736595E-12,1.,0.));
#1404=DIRECTION('',(-1.,2.7799984536339E-12,0.));
#1405=DIRECTION('center_axis',(0.,0.,-1.));
#1406=DIRECTION('ref_axis',(-2.77777800761215E-12,-1.,0.));
#1407=DIRECTION('',(-4.44089209849873E-15,1.,0.));
#1408=DIRECTION('',(1.,3.53699370676445E-15,0.));
#1409=DIRECTION('',(-1.,1.43837744075301E-12,0.));
#1410=DIRECTION('center_axis',(0.,0.,-1.));
#1411=DIRECTION('ref_axis',(1.,0.,0.));
#1412=DIRECTION('',(0.,0.,1.));
#1413=DIRECTION('center_axis',(0.,0.,1.));
#1414=DIRECTION('ref_axis',(1.,0.,0.));
#1415=DIRECTION('center_axis',(0.,0.,-1.));
#1416=DIRECTION('ref_axis',(1.,0.,0.));
#1417=DIRECTION('',(0.,0.,1.));
#1418=DIRECTION('center_axis',(0.,0.,1.));
#1419=DIRECTION('ref_axis',(1.,0.,0.));
#1420=DIRECTION('center_axis',(0.,0.,-1.));
#1421=DIRECTION('ref_axis',(1.,0.,0.));
#1422=DIRECTION('',(0.,0.,1.));
#1423=DIRECTION('center_axis',(0.,0.,1.));
#1424=DIRECTION('ref_axis',(1.,0.,0.));
#1425=DIRECTION('center_axis',(0.,0.,-1.));
#1426=DIRECTION('ref_axis',(1.,0.,0.));
#1427=DIRECTION('',(0.,0.,1.));
#1428=DIRECTION('center_axis',(0.,0.,1.));
#1429=DIRECTION('ref_axis',(1.,0.,0.));
#1430=DIRECTION('center_axis',(0.,0.,-1.));
#1431=DIRECTION('ref_axis',(1.,0.,0.));
#1432=DIRECTION('',(0.,0.,1.));
#1433=DIRECTION('center_axis',(0.,0.,1.));
#1434=DIRECTION('ref_axis',(1.,0.,0.));
#1435=DIRECTION('center_axis',(0.,0.,-1.));
#1436=DIRECTION('ref_axis',(1.,0.,0.));
#1437=DIRECTION('',(0.,0.,1.));
#1438=DIRECTION('center_axis',(0.,0.,1.));
#1439=DIRECTION('ref_axis',(1.,0.,0.));
#1440=DIRECTION('center_axis',(0.,0.,-1.));
#1441=DIRECTION('ref_axis',(-7.94919685631615E-13,1.,0.));
#1442=DIRECTION('center_axis',(0.,0.,-1.));
#1443=DIRECTION('ref_axis',(-7.94919685631615E-13,1.,0.));
#1444=DIRECTION('',(0.,0.,-1.));
#1445=DIRECTION('',(0.,0.,-1.));
#1446=DIRECTION('center_axis',(-1.,0.,0.));
#1447=DIRECTION('ref_axis',(0.,1.,0.));
#1448=DIRECTION('',(0.,1.,0.));
#1449=DIRECTION('',(0.,0.,-1.));
#1450=DIRECTION('center_axis',(0.,0.,-1.));
#1451=DIRECTION('ref_axis',(1.,0.,0.));
#1452=DIRECTION('center_axis',(0.,0.,-1.));
#1453=DIRECTION('ref_axis',(1.,0.,0.));
#1454=DIRECTION('',(0.,0.,-1.));
#1455=DIRECTION('center_axis',(-1.03620815629616E-14,1.,0.));
#1456=DIRECTION('ref_axis',(1.,1.03620815629616E-14,0.));
#1457=DIRECTION('',(1.,1.03620815629616E-14,0.));
#1458=DIRECTION('',(0.,0.,-1.));
#1459=DIRECTION('center_axis',(0.,0.,-1.));
#1460=DIRECTION('ref_axis',(-1.,1.4388490399142E-12,0.));
#1461=DIRECTION('center_axis',(0.,0.,-1.));
#1462=DIRECTION('ref_axis',(-1.,1.4388490399142E-12,0.));
#1463=DIRECTION('center_axis',(0.,0.,-1.));
#1464=DIRECTION('ref_axis',(2.5863755581704E-11,-1.,0.));
#1465=DIRECTION('',(0.,0.,-1.));
#1466=DIRECTION('center_axis',(0.,0.,-1.));
#1467=DIRECTION('ref_axis',(2.5863755581704E-11,-1.,0.));
#1468=DIRECTION('center_axis',(-1.43837744075301E-12,-1.,0.));
#1469=DIRECTION('ref_axis',(-1.,1.43837744075301E-12,0.));
#1470=DIRECTION('',(0.,0.,-1.));
#1471=DIRECTION('',(-1.,1.43837744075301E-12,0.));
#1472=DIRECTION('center_axis',(0.,0.,-1.));
#1473=DIRECTION('ref_axis',(1.,-1.77635683939772E-14,0.));
#1474=DIRECTION('center_axis',(0.,0.,-1.));
#1475=DIRECTION('ref_axis',(1.,-1.77635683939772E-14,0.));
#1476=DIRECTION('center_axis',(0.,0.,-1.));
#1477=DIRECTION('ref_axis',(3.49587025994468E-11,1.,0.));
#1478=DIRECTION('',(0.,0.,-1.));
#1479=DIRECTION('center_axis',(0.,0.,-1.));
#1480=DIRECTION('ref_axis',(3.49587025994468E-11,1.,0.));
#1481=DIRECTION('center_axis',(-3.53699370676445E-15,1.,0.));
#1482=DIRECTION('ref_axis',(1.,3.53699370676445E-15,0.));
#1483=DIRECTION('',(0.,0.,-1.));
#1484=DIRECTION('',(1.,3.53699370676445E-15,0.));
#1485=DIRECTION('center_axis',(0.,0.,-1.));
#1486=DIRECTION('ref_axis',(-1.,-1.41220368736176E-12,0.));
#1487=DIRECTION('',(0.,0.,-1.));
#1488=DIRECTION('center_axis',(0.,0.,-1.));
#1489=DIRECTION('ref_axis',(-1.,-1.41220368736176E-12,0.));
#1490=DIRECTION('center_axis',(-1.,-4.44089209849873E-15,0.));
#1491=DIRECTION('ref_axis',(-4.44089209849873E-15,1.,0.));
#1492=DIRECTION('',(0.,0.,-1.));
#1493=DIRECTION('',(-4.44089209849873E-15,1.,0.));
#1494=DIRECTION('center_axis',(0.,0.,-1.));
#1495=DIRECTION('ref_axis',(-2.77777800761215E-12,-1.,0.));
#1496=DIRECTION('center_axis',(0.,0.,-1.));
#1497=DIRECTION('ref_axis',(-2.77777800761215E-12,-1.,0.));
#1498=DIRECTION('',(0.,0.,-1.));
#1499=DIRECTION('center_axis',(-2.7799984536339E-12,-1.,0.));
#1500=DIRECTION('ref_axis',(-1.,2.7799984536339E-12,0.));
#1501=DIRECTION('',(-1.,2.7799984536339E-12,0.));
#1502=DIRECTION('',(0.,0.,-1.));
#1503=DIRECTION('center_axis',(0.,0.,-1.));
#1504=DIRECTION('ref_axis',(2.76667577736595E-12,1.,0.));
#1505=DIRECTION('center_axis',(0.,0.,-1.));
#1506=DIRECTION('ref_axis',(2.76667577736595E-12,1.,0.));
#1507=DIRECTION('',(0.,0.,-1.));
#1508=DIRECTION('center_axis',(-1.,0.,0.));
#1509=DIRECTION('ref_axis',(0.,1.,0.));
#1510=DIRECTION('',(0.,1.,0.));
#1511=DIRECTION('',(0.,0.,-1.));
#1512=DIRECTION('center_axis',(0.,0.,-1.));
#1513=DIRECTION('ref_axis',(1.,-8.88178419700124E-15,0.));
#1514=DIRECTION('center_axis',(0.,0.,-1.));
#1515=DIRECTION('ref_axis',(1.,-8.88178419700124E-15,0.));
#1516=DIRECTION('',(0.,0.,-1.));
#1517=DIRECTION('center_axis',(7.17306741856965E-13,1.,0.));
#1518=DIRECTION('ref_axis',(1.,-7.17306741856965E-13,0.));
#1519=DIRECTION('',(1.,-7.17306741856965E-13,0.));
#1520=DIRECTION('center_axis',(7.94126525393163E-13,-1.,0.));
#1521=DIRECTION('ref_axis',(-1.,-7.94126525393163E-13,0.));
#1522=DIRECTION('',(-1.,-7.94126525393163E-13,0.));
#1523=DIRECTION('center_axis',(0.,0.,-1.));
#1524=DIRECTION('ref_axis',(1.,0.,0.));
#1525=DIRECTION('',(-1.41250800940523E-45,-1.25193590504948E-88,-1.));
#1526=DIRECTION('',(1.,0.,-1.02867511125553E-58));
#1527=CARTESIAN_POINT('',(0.,0.,0.));
#1528=CARTESIAN_POINT('',(0.,0.,0.));
#1529=CARTESIAN_POINT('Origin',(13.5999999998438,69.6999999999693,-97.4000000000941));
#1530=CARTESIAN_POINT('',(15.5999999998438,69.6999999999693,-95.1000000000941));
#1531=CARTESIAN_POINT('',(13.5999999998428,67.6999999999693,-95.1000000000941));
#1532=CARTESIAN_POINT('Origin',(13.5999999998438,69.6999999999693,-95.1000000000941));
#1533=CARTESIAN_POINT('',(15.5999999998438,69.6999999999693,-97.4000000000941));
#1534=CARTESIAN_POINT('',(15.5999999998438,69.6999999999693,-97.4000000000941));
#1535=CARTESIAN_POINT('',(13.5999999998428,67.6999999999693,-97.4000000000941));
#1536=CARTESIAN_POINT('Origin',(13.5999999998438,69.6999999999693,-97.4000000000941));
#1537=CARTESIAN_POINT('',(13.5999999998428,67.6999999999693,-97.4000000000941));
#1538=CARTESIAN_POINT('Origin',(10.5999999999257,67.6999999999708,-97.4000000000941));
#1539=CARTESIAN_POINT('',(10.5999999999257,67.6999999999708,-97.4000000000941));
#1540=CARTESIAN_POINT('',(17.5124999999712,67.6999999999674,-97.4000000000941));
#1541=CARTESIAN_POINT('',(10.5999999999257,67.6999999999708,-95.1000000000941));
#1542=CARTESIAN_POINT('',(10.5999999999257,67.6999999999708,-95.5000000000941));
#1543=CARTESIAN_POINT('',(20.0124999999476,67.6999999999663,-95.1000000000941));
#1544=CARTESIAN_POINT('Origin',(81.399999999935,69.6999999999696,-97.4000000000941));
#1545=CARTESIAN_POINT('',(81.3999999999321,67.6999999999696,-95.1000000000941));
#1546=CARTESIAN_POINT('',(79.399999999935,69.6999999999696,-95.1000000000941));
#1547=CARTESIAN_POINT('Origin',(81.399999999935,69.6999999999696,-95.1000000000941));
#1548=CARTESIAN_POINT('',(81.3999999999321,67.6999999999696,-97.4000000000941));
#1549=CARTESIAN_POINT('',(81.3999999999321,67.6999999999696,-97.4000000000941));
#1550=CARTESIAN_POINT('',(79.399999999935,69.6999999999696,-97.4000000000941));
#1551=CARTESIAN_POINT('Origin',(81.399999999935,69.6999999999696,-97.4000000000941));
#1552=CARTESIAN_POINT('',(79.399999999935,69.6999999999696,-97.4000000000941));
#1553=CARTESIAN_POINT('Origin',(79.399999999935,72.6999999999653,-97.4000000000941));
#1554=CARTESIAN_POINT('',(79.399999999935,72.6999999999653,-97.4000000000941));
#1555=CARTESIAN_POINT('',(79.3999999999351,36.3499999999463,-97.4000000000941));
#1556=CARTESIAN_POINT('',(79.399999999935,72.6999999999653,-95.1000000000941));
#1557=CARTESIAN_POINT('',(79.399999999935,72.6999999999653,-95.5000000000941));
#1558=CARTESIAN_POINT('',(79.3999999999352,33.8499999999499,-95.1000000000941));
#1559=CARTESIAN_POINT('Origin',(81.399999999835,-69.700000000107,-97.4000000000941));
#1560=CARTESIAN_POINT('',(79.399999999835,-69.700000000107,-95.1000000000941));
#1561=CARTESIAN_POINT('',(81.3999999998379,-67.700000000107,-95.1000000000941));
#1562=CARTESIAN_POINT('Origin',(81.399999999835,-69.700000000107,-95.1000000000941));
#1563=CARTESIAN_POINT('',(79.399999999835,-69.700000000107,-97.4000000000941));
#1564=CARTESIAN_POINT('',(79.399999999835,-69.700000000107,-97.4000000000941));
#1565=CARTESIAN_POINT('',(81.3999999998379,-67.700000000107,-97.4000000000941));
#1566=CARTESIAN_POINT('Origin',(81.399999999835,-69.700000000107,-97.4000000000941));
#1567=CARTESIAN_POINT('',(81.3999999998379,-67.700000000107,-97.4000000000941));
#1568=CARTESIAN_POINT('Origin',(24.425000000019,-7.29549753941683E-11,-95.1000000000941));
#1569=CARTESIAN_POINT('',(84.3999999998422,-67.7000000001113,-95.1000000000941));
#1570=CARTESIAN_POINT('',(51.9124999998783,-67.7000000000646,-95.1000000000941));
#1571=CARTESIAN_POINT('',(84.3999999998393,-69.700000000107,-95.1000000000941));
#1572=CARTESIAN_POINT('',(84.3999999999897,34.8499999999009,-95.1000000000941));
#1573=CARTESIAN_POINT('',(81.399999999835,-72.7000000001027,-95.1000000000941));
#1574=CARTESIAN_POINT('Origin',(81.399999999835,-69.700000000107,-95.1000000000941));
#1575=CARTESIAN_POINT('',(79.399999999835,-72.7000000000998,-95.1000000000941));
#1576=CARTESIAN_POINT('',(52.9124999998747,-72.7000000000617,-95.1000000000941));
#1577=CARTESIAN_POINT('',(79.3999999998348,-36.3500000000862,-95.1000000000941));
#1578=CARTESIAN_POINT('',(80.349999999835,-69.700000000107,-95.1000000000941));
#1579=CARTESIAN_POINT('Origin',(81.399999999835,-69.700000000107,-95.1000000000941));
#1580=CARTESIAN_POINT('Origin',(84.3999999998422,-67.7000000001113,-97.4000000000941));
#1581=CARTESIAN_POINT('',(84.3999999998422,-67.7000000001113,-97.4000000000941));
#1582=CARTESIAN_POINT('',(54.4124999998645,-67.7000000000682,-97.4000000000941));
#1583=CARTESIAN_POINT('',(84.3999999998422,-67.7000000001113,-95.5000000000941));
#1584=CARTESIAN_POINT('Origin',(13.5999999997438,-69.7000000000094,-97.4000000000941));
#1585=CARTESIAN_POINT('',(13.5999999997438,-67.7000000000094,-95.1000000000941));
#1586=CARTESIAN_POINT('',(15.5999999997438,-69.7000000000123,-95.1000000000941));
#1587=CARTESIAN_POINT('Origin',(13.5999999997438,-69.7000000000094,-95.1000000000941));
#1588=CARTESIAN_POINT('',(13.5999999997438,-67.7000000000094,-97.4000000000941));
#1589=CARTESIAN_POINT('',(13.5999999997438,-67.7000000000094,-97.4000000000941));
#1590=CARTESIAN_POINT('',(15.5999999997438,-69.7000000000123,-97.4000000000941));
#1591=CARTESIAN_POINT('Origin',(13.5999999997438,-69.7000000000094,-97.4000000000941));
#1592=CARTESIAN_POINT('',(15.5999999997438,-69.7000000000123,-97.4000000000941));
#1593=CARTESIAN_POINT('Origin',(24.425000000019,-7.29549753941683E-11,-95.1000000000941));
#1594=CARTESIAN_POINT('',(15.5999999997395,-72.7000000000081,-95.1000000000941));
#1595=CARTESIAN_POINT('',(15.5999999997953,-33.8500000000348,-95.1000000000941));
#1596=CARTESIAN_POINT('',(13.5999999998214,-72.7000000000052,-95.1000000000941));
#1597=CARTESIAN_POINT('',(52.9124999998747,-72.7000000000617,-95.1000000000941));
#1598=CARTESIAN_POINT('',(10.5999999998257,-69.7000000000009,-95.1000000000941));
#1599=CARTESIAN_POINT('Origin',(13.5999999997438,-69.7000000000094,-95.1000000000941));
#1600=CARTESIAN_POINT('',(10.5999999998286,-67.7000000000094,-95.1000000000941));
#1601=CARTESIAN_POINT('',(10.5999999998758,-34.850000000027,-95.1000000000941));
#1602=CARTESIAN_POINT('',(17.512499999924,-67.7000000000094,-95.1000000000941));
#1603=CARTESIAN_POINT('',(12.5499999997438,-69.7000000000094,-95.1000000000941));
#1604=CARTESIAN_POINT('Origin',(13.5999999997438,-69.7000000000094,-95.1000000000941));
#1605=CARTESIAN_POINT('Origin',(15.5999999997395,-72.7000000000081,-97.4000000000941));
#1606=CARTESIAN_POINT('',(15.5999999997395,-72.7000000000081,-97.4000000000941));
#1607=CARTESIAN_POINT('',(15.5999999997917,-36.3500000000342,-97.4000000000941));
#1608=CARTESIAN_POINT('',(15.5999999997395,-72.7000000000081,-95.5000000000941));
#1609=CARTESIAN_POINT('Origin',(15.5999999997467,-67.7000000000094,-97.4000000000941));
#1610=CARTESIAN_POINT('',(10.5999999998286,-67.7000000000094,-97.4000000000941));
#1611=CARTESIAN_POINT('',(10.5999999998286,-67.7000000000094,-95.5000000000941));
#1612=CARTESIAN_POINT('',(20.0124999998657,-67.7000000000094,-97.4000000000941));
#1613=CARTESIAN_POINT('Origin',(79.399999999935,67.6999999999725,-97.4000000000941));
#1614=CARTESIAN_POINT('',(84.400000000037,67.6999999999653,-95.1000000000941));
#1615=CARTESIAN_POINT('',(54.4125000000767,67.7000000000085,-95.1000000000941));
#1616=CARTESIAN_POINT('',(84.400000000037,67.6999999999653,-97.4000000000941));
#1617=CARTESIAN_POINT('',(84.400000000037,67.6999999999653,-95.5000000000941));
#1618=CARTESIAN_POINT('',(51.9125000000084,67.7000000000121,-97.4000000000941));
#1619=CARTESIAN_POINT('Origin',(24.425000000019,-7.29549753941683E-11,-95.1000000000941));
#1620=CARTESIAN_POINT('',(81.4000000000399,72.6999999999653,-95.1000000000941));
#1621=CARTESIAN_POINT('',(19.0124999999722,72.6999999999651,-95.1000000000941));
#1622=CARTESIAN_POINT('',(84.4000000000399,69.699999999961,-95.1000000000941));
#1623=CARTESIAN_POINT('Origin',(81.399999999935,69.6999999999696,-95.1000000000941));
#1624=CARTESIAN_POINT('',(84.3999999999897,34.8499999999009,-95.1000000000941));
#1625=CARTESIAN_POINT('',(80.349999999935,69.6999999999696,-95.1000000000941));
#1626=CARTESIAN_POINT('Origin',(81.399999999935,69.6999999999696,-95.1000000000941));
#1627=CARTESIAN_POINT('Origin',(-33.0500000000309,-22.7999999999873,-97.4000000000941));
#1628=CARTESIAN_POINT('',(-33.0500000000309,-24.7999999999873,-97.4000000000941));
#1629=CARTESIAN_POINT('',(-33.0500000000309,-20.7999999999873,-97.4000000000941));
#1630=CARTESIAN_POINT('Origin',(-33.0500000000309,-22.7999999999873,-97.4000000000941));
#1631=CARTESIAN_POINT('',(-33.0500000000309,-24.7999999999873,-95.1000000000941));
#1632=CARTESIAN_POINT('',(-33.0500000000309,-24.7999999999873,-97.4000000000941));
#1633=CARTESIAN_POINT('',(-33.0500000000309,-20.7999999999873,-95.1000000000941));
#1634=CARTESIAN_POINT('Origin',(-33.0500000000309,-22.7999999999873,-95.1000000000941));
#1635=CARTESIAN_POINT('',(-33.0500000000309,-20.7999999999873,-97.4000000000941));
#1636=CARTESIAN_POINT('Origin',(-35.5500000000019,-24.7999999999873,-97.4000000000941));
#1637=CARTESIAN_POINT('',(-35.5500000000019,-24.7999999999873,-97.4000000000941));
#1638=CARTESIAN_POINT('',(-5.56250000000879,-24.7999999999873,-97.4000000000941));
#1639=CARTESIAN_POINT('',(-35.5500000000019,-24.7999999999873,-95.1000000000941));
#1640=CARTESIAN_POINT('',(-35.5500000000019,-24.7999999999873,-95.5000000000941));
#1641=CARTESIAN_POINT('',(-4.31250000000595,-24.7999999999873,-95.1000000000941));
#1642=CARTESIAN_POINT('Origin',(-33.0500000000309,-20.7999999999873,-97.4000000000941));
#1643=CARTESIAN_POINT('',(-35.5500000000019,-20.7999999999873,-97.4000000000941));
#1644=CARTESIAN_POINT('',(-4.31250000002329,-20.7999999999873,-97.4000000000941));
#1645=CARTESIAN_POINT('',(-35.5500000000019,-20.7999999999873,-95.1000000000941));
#1646=CARTESIAN_POINT('',(-5.56249999999145,-20.7999999999873,-95.1000000000941));
#1647=CARTESIAN_POINT('',(-35.5500000000019,-20.7999999999873,-95.5000000000941));
#1648=CARTESIAN_POINT('Origin',(24.425000000019,-7.29549753941683E-11,-95.1000000000941));
#1649=CARTESIAN_POINT('',(-35.5500000000019,-21.8500000000312,-95.1000000000941));
#1650=CARTESIAN_POINT('',(-34.1000000000309,-22.7999999999873,-95.1000000000941));
#1651=CARTESIAN_POINT('Origin',(-33.0500000000309,-22.7999999999873,-95.1000000000941));
#1652=CARTESIAN_POINT('Origin',(79.399999999835,-67.7000000001041,-97.4000000000941));
#1653=CARTESIAN_POINT('',(79.399999999835,-72.7000000000998,-97.4000000000941));
#1654=CARTESIAN_POINT('',(79.399999999835,-72.7000000000998,-95.5000000000941));
#1655=CARTESIAN_POINT('',(79.3999999998348,-33.8500000000884,-97.4000000000941));
#1656=CARTESIAN_POINT('Origin',(15.5999999998438,67.6999999999684,-97.4000000000941));
#1657=CARTESIAN_POINT('',(15.5999999998438,72.6999999999651,-95.1000000000941));
#1658=CARTESIAN_POINT('',(15.5999999998439,36.3499999999461,-95.1000000000941));
#1659=CARTESIAN_POINT('',(15.5999999998438,72.6999999999651,-97.4000000000941));
#1660=CARTESIAN_POINT('',(15.5999999998438,72.6999999999651,-95.5000000000941));
#1661=CARTESIAN_POINT('',(15.5999999998439,33.8499999999477,-97.4000000000941));
#1662=CARTESIAN_POINT('Origin',(24.425000000019,-7.29549753941683E-11,-95.1000000000941));
#1663=CARTESIAN_POINT('',(10.5999999999257,69.6999999999651,-95.1000000000941));
#1664=CARTESIAN_POINT('',(10.5999999999259,24.8499999999418,-95.1000000000941));
#1665=CARTESIAN_POINT('',(13.5999999999257,72.6999999999651,-95.1000000000941));
#1666=CARTESIAN_POINT('Origin',(13.5999999998438,69.6999999999693,-95.1000000000941));
#1667=CARTESIAN_POINT('',(19.0124999999722,72.6999999999651,-95.1000000000941));
#1668=CARTESIAN_POINT('',(12.5499999998438,69.6999999999693,-95.1000000000941));
#1669=CARTESIAN_POINT('Origin',(13.5999999998438,69.6999999999693,-95.1000000000941));
#1670=CARTESIAN_POINT('Origin',(-33.0500000000397,22.7999999999757,-97.4000000000941));
#1671=CARTESIAN_POINT('',(-33.0500000000397,20.7999999999757,-97.4000000000941));
#1672=CARTESIAN_POINT('',(-33.0500000000397,24.7999999999757,-97.4000000000941));
#1673=CARTESIAN_POINT('Origin',(-33.0500000000397,22.7999999999757,-97.4000000000941));
#1674=CARTESIAN_POINT('',(-33.0500000000397,20.7999999999757,-95.1000000000941));
#1675=CARTESIAN_POINT('',(-33.0500000000397,20.7999999999757,-97.4000000000941));
#1676=CARTESIAN_POINT('',(-33.0500000000397,24.7999999999757,-95.1000000000941));
#1677=CARTESIAN_POINT('Origin',(-33.0500000000397,22.7999999999757,-95.1000000000941));
#1678=CARTESIAN_POINT('',(-33.0500000000397,24.7999999999757,-97.4000000000941));
#1679=CARTESIAN_POINT('Origin',(-35.5500000000019,20.7999999999684,-97.4000000000941));
#1680=CARTESIAN_POINT('',(-35.5500000000019,20.7999999999684,-97.4000000000941));
#1681=CARTESIAN_POINT('',(-5.56250000003926,20.8000000000562,-97.4000000000941));
#1682=CARTESIAN_POINT('',(-35.5500000000019,20.7999999999684,-95.1000000000941));
#1683=CARTESIAN_POINT('',(-35.5500000000019,20.7999999999684,-95.5000000000941));
#1684=CARTESIAN_POINT('',(-4.31250000004082,20.8000000000599,-95.1000000000941));
#1685=CARTESIAN_POINT('Origin',(-33.0500000000397,24.7999999999757,-97.4000000000941));
#1686=CARTESIAN_POINT('',(-35.5500000000019,24.7999999999757,-97.4000000000941));
#1687=CARTESIAN_POINT('',(-4.3125000000277,24.7999999999757,-97.4000000000941));
#1688=CARTESIAN_POINT('',(-35.5500000000019,24.7999999999757,-95.1000000000941));
#1689=CARTESIAN_POINT('',(-5.56249999999145,24.7999999999757,-95.1000000000941));
#1690=CARTESIAN_POINT('',(-35.5500000000019,24.7999999999757,-95.5000000000941));
#1691=CARTESIAN_POINT('Origin',(24.425000000019,-7.29549753941683E-11,-95.1000000000941));
#1692=CARTESIAN_POINT('',(-35.5500000000019,-21.8500000000312,-95.1000000000941));
#1693=CARTESIAN_POINT('',(-34.1000000000397,22.7999999999757,-95.1000000000941));
#1694=CARTESIAN_POINT('Origin',(-33.0500000000397,22.7999999999757,-95.1000000000941));
#1695=CARTESIAN_POINT('Origin',(10.5999999998257,-69.7000000000009,-93.6000000000941));
#1696=CARTESIAN_POINT('',(10.5999999998257,-69.7000000000009,-93.6000000000941));
#1697=CARTESIAN_POINT('',(10.5999999998257,-69.7000000000009,-93.6000000000941));
#1698=CARTESIAN_POINT('',(10.5999999998544,-49.6999999999406,-93.6000000000941));
#1699=CARTESIAN_POINT('',(10.5999999998257,-69.7000000000009,-93.6000000000941));
#1700=CARTESIAN_POINT('',(10.5999999998545,-49.6999999999406,-97.4000000000941));
#1701=CARTESIAN_POINT('',(10.5999999998544,-49.6999999999406,-93.6000000000941));
#1702=CARTESIAN_POINT('',(10.5999999998257,-69.7000000000009,-97.4000000000941));
#1703=CARTESIAN_POINT('Origin',(84.4000000000399,69.699999999961,-93.6000000000941));
#1704=CARTESIAN_POINT('',(84.4000000000399,69.699999999961,-93.6000000000941));
#1705=CARTESIAN_POINT('',(84.4000000000399,69.699999999961,-93.6000000000941));
#1706=CARTESIAN_POINT('',(84.3999999998393,-69.700000000107,-93.6000000000941));
#1707=CARTESIAN_POINT('',(84.4000000000399,69.699999999961,-93.6000000000941));
#1708=CARTESIAN_POINT('',(84.3999999998393,-69.700000000107,-93.6000000000941));
#1709=CARTESIAN_POINT('',(84.4000000000399,69.699999999961,-97.4000000000941));
#1710=CARTESIAN_POINT('Origin',(-35.5500000000019,-43.6999999999894,-93.6000000000941));
#1711=CARTESIAN_POINT('',(-35.5500000000019,-43.6999999999894,-97.4000000000941));
#1712=CARTESIAN_POINT('',(-35.5500000000019,-43.6999999999894,-97.4000000000941));
#1713=CARTESIAN_POINT('',(-35.5500000000019,-43.6999999999894,-93.6000000000941));
#1714=CARTESIAN_POINT('',(-35.5500000000019,-43.6999999999894,-93.6000000000941));
#1715=CARTESIAN_POINT('',(-35.5500000000713,43.6999999999774,-93.6000000000941));
#1716=CARTESIAN_POINT('',(-35.5500000000019,-43.6999999999894,-93.6000000000941));
#1717=CARTESIAN_POINT('',(-35.5500000000713,43.6999999999774,-97.4000000000941));
#1718=CARTESIAN_POINT('',(-35.5500000000713,43.6999999999774,-93.6000000000941));
#1719=CARTESIAN_POINT('',(-35.5500000000019,-43.6999999999894,-97.4000000000941));
#1720=CARTESIAN_POINT('',(-35.5500000000019,-43.6999999999894,-97.4000000000941));
#1721=CARTESIAN_POINT('Origin',(24.4249999999843,-7.29549753941682E-11,
-97.4000000000941));
#1722=CARTESIAN_POINT('',(13.5999999998544,-46.6999999999449,-97.4000000000941));
#1723=CARTESIAN_POINT('Origin',(13.5999999998545,-49.6999999999449,-97.4000000000941));
#1724=CARTESIAN_POINT('',(19.599999999974,-46.6999999999448,-97.4000000000941));
#1725=CARTESIAN_POINT('',(13.5999999998544,-46.6999999999449,-97.4000000000941));
#1726=CARTESIAN_POINT('',(20.599999999974,-45.6999999999448,-97.4000000000941));
#1727=CARTESIAN_POINT('Origin',(19.599999999974,-45.6999999999448,-97.4000000000941));
#1728=CARTESIAN_POINT('',(20.599999999974,-44.6999999999456,-97.4000000000941));
#1729=CARTESIAN_POINT('',(20.599999999974,-45.6999999999448,-97.4000000000941));
#1730=CARTESIAN_POINT('',(19.5999999999732,-43.6999999999456,-97.4000000000941));
#1731=CARTESIAN_POINT('Origin',(19.599999999974,-44.6999999999456,-97.4000000000941));
#1732=CARTESIAN_POINT('',(19.5999999999732,-43.6999999999456,-97.4000000000941));
#1733=CARTESIAN_POINT('',(19.5999999999733,43.6999999999379,-97.4000000000941));
#1734=CARTESIAN_POINT('',(-35.5500000000713,43.6999999999774,-97.4000000000941));
#1735=CARTESIAN_POINT('',(20.599999999974,44.6999999999378,-97.4000000000941));
#1736=CARTESIAN_POINT('Origin',(19.599999999974,44.6999999999379,-97.4000000000941));
#1737=CARTESIAN_POINT('',(20.599999999974,45.6999999999399,-97.4000000000941));
#1738=CARTESIAN_POINT('',(20.599999999974,44.6999999999378,-97.4000000000941));
#1739=CARTESIAN_POINT('',(19.5999999999768,46.6999999999399,-97.4000000000941));
#1740=CARTESIAN_POINT('Origin',(19.599999999974,45.6999999999399,-97.4000000000941));
#1741=CARTESIAN_POINT('',(13.5999999999174,46.6999999999566,-97.4000000000941));
#1742=CARTESIAN_POINT('',(19.5999999999768,46.6999999999399,-97.4000000000941));
#1743=CARTESIAN_POINT('',(10.5999999999258,49.6999999999566,-97.4000000000941));
#1744=CARTESIAN_POINT('Origin',(13.5999999999258,49.6999999999566,-97.4000000000941));
#1745=CARTESIAN_POINT('',(10.5999999999258,49.6999999999566,-97.4000000000941));
#1746=CARTESIAN_POINT('',(13.5999999999257,72.6999999999651,-97.4000000000941));
#1747=CARTESIAN_POINT('',(81.399999999835,-72.7000000001027,-97.4000000000941));
#1748=CARTESIAN_POINT('Origin',(13.5999999997438,-69.7000000000094,-93.6000000000941));
#1749=CARTESIAN_POINT('',(12.5499999997438,-69.7000000000094,-93.6000000000941));
#1750=CARTESIAN_POINT('',(12.5499999997438,-69.7000000000094,-93.6000000000941));
#1751=CARTESIAN_POINT('Origin',(13.5999999997438,-69.7000000000094,-93.6000000000941));
#1752=CARTESIAN_POINT('Origin',(81.399999999935,69.6999999999696,-93.6000000000941));
#1753=CARTESIAN_POINT('',(80.349999999935,69.6999999999696,-93.6000000000941));
#1754=CARTESIAN_POINT('',(80.349999999935,69.6999999999696,-93.6000000000941));
#1755=CARTESIAN_POINT('Origin',(81.399999999935,69.6999999999696,-93.6000000000941));
#1756=CARTESIAN_POINT('Origin',(81.399999999835,-69.700000000107,-93.6000000000941));
#1757=CARTESIAN_POINT('',(80.349999999835,-69.700000000107,-93.6000000000941));
#1758=CARTESIAN_POINT('',(80.349999999835,-69.700000000107,-93.6000000000941));
#1759=CARTESIAN_POINT('Origin',(81.399999999835,-69.700000000107,-93.6000000000941));
#1760=CARTESIAN_POINT('Origin',(13.5999999998438,69.6999999999693,-93.6000000000941));
#1761=CARTESIAN_POINT('',(12.5499999998438,69.6999999999693,-93.6000000000941));
#1762=CARTESIAN_POINT('',(12.5499999998438,69.6999999999693,-93.6000000000941));
#1763=CARTESIAN_POINT('Origin',(13.5999999998438,69.6999999999693,-93.6000000000941));
#1764=CARTESIAN_POINT('Origin',(-33.0500000000397,22.7999999999757,-93.6000000000941));
#1765=CARTESIAN_POINT('',(-34.1000000000397,22.7999999999757,-93.6000000000941));
#1766=CARTESIAN_POINT('',(-34.1000000000397,22.7999999999757,-93.6000000000941));
#1767=CARTESIAN_POINT('Origin',(-33.0500000000397,22.7999999999757,-93.6000000000941));
#1768=CARTESIAN_POINT('Origin',(-33.0500000000309,-22.7999999999873,-93.6000000000941));
#1769=CARTESIAN_POINT('',(-34.1000000000309,-22.7999999999873,-93.6000000000941));
#1770=CARTESIAN_POINT('',(-34.1000000000309,-22.7999999999873,-93.6000000000941));
#1771=CARTESIAN_POINT('Origin',(-33.0500000000309,-22.7999999999873,-93.6000000000941));
#1772=CARTESIAN_POINT('Origin',(19.599999999974,-44.6999999999456,-93.6000000000941));
#1773=CARTESIAN_POINT('',(19.5999999999732,-43.6999999999456,-93.6000000000941));
#1774=CARTESIAN_POINT('',(20.599999999974,-44.6999999999456,-93.6000000000941));
#1775=CARTESIAN_POINT('Origin',(19.599999999974,-44.6999999999456,-93.6000000000941));
#1776=CARTESIAN_POINT('',(19.5999999999732,-43.6999999999456,-93.6000000000941));
#1777=CARTESIAN_POINT('',(20.599999999974,-44.6999999999456,-93.6000000000941));
#1778=CARTESIAN_POINT('Origin',(20.599999999974,-45.6999999999448,-93.6000000000941));
#1779=CARTESIAN_POINT('',(20.599999999974,-45.6999999999448,-93.6000000000941));
#1780=CARTESIAN_POINT('',(20.599999999974,-45.6999999999448,-93.6000000000941));
#1781=CARTESIAN_POINT('',(20.599999999974,-45.6999999999448,-93.6000000000941));
#1782=CARTESIAN_POINT('Origin',(19.599999999974,-45.6999999999448,-93.6000000000941));
#1783=CARTESIAN_POINT('',(19.599999999974,-46.6999999999448,-93.6000000000941));
#1784=CARTESIAN_POINT('Origin',(19.599999999974,-45.6999999999448,-93.6000000000941));
#1785=CARTESIAN_POINT('',(19.599999999974,-46.6999999999448,-93.6000000000941));
#1786=CARTESIAN_POINT('Origin',(13.5999999998544,-46.6999999999449,-93.6000000000941));
#1787=CARTESIAN_POINT('',(13.5999999998544,-46.6999999999449,-93.6000000000941));
#1788=CARTESIAN_POINT('',(13.5999999998544,-46.6999999999449,-93.6000000000941));
#1789=CARTESIAN_POINT('',(13.5999999998544,-46.6999999999449,-93.6000000000941));
#1790=CARTESIAN_POINT('Origin',(13.5999999998545,-49.6999999999449,-93.6000000000941));
#1791=CARTESIAN_POINT('Origin',(13.5999999998545,-49.6999999999449,-93.6000000000941));
#1792=CARTESIAN_POINT('Origin',(13.5999999997438,-69.7000000000094,-93.6000000000941));
#1793=CARTESIAN_POINT('',(13.5999999998214,-72.7000000000052,-93.6000000000941));
#1794=CARTESIAN_POINT('',(13.5999999998214,-72.7000000000052,-93.6000000000941));
#1795=CARTESIAN_POINT('Origin',(13.5999999997438,-69.7000000000094,-93.6000000000941));
#1796=CARTESIAN_POINT('Origin',(81.399999999835,-72.7000000001027,-93.6000000000941));
#1797=CARTESIAN_POINT('',(81.399999999835,-72.7000000001027,-93.6000000000941));
#1798=CARTESIAN_POINT('',(81.399999999835,-72.7000000001027,-93.6000000000941));
#1799=CARTESIAN_POINT('',(81.399999999835,-72.7000000001027,-93.6000000000941));
#1800=CARTESIAN_POINT('Origin',(81.399999999835,-69.700000000107,-93.6000000000941));
#1801=CARTESIAN_POINT('Origin',(81.399999999835,-69.700000000107,-93.6000000000941));
#1802=CARTESIAN_POINT('Origin',(81.399999999935,69.6999999999696,-93.6000000000941));
#1803=CARTESIAN_POINT('',(81.4000000000399,72.6999999999653,-93.6000000000941));
#1804=CARTESIAN_POINT('',(81.4000000000399,72.6999999999653,-93.6000000000941));
#1805=CARTESIAN_POINT('Origin',(81.399999999935,69.6999999999696,-93.6000000000941));
#1806=CARTESIAN_POINT('Origin',(13.5999999999257,72.6999999999651,-93.6000000000941));
#1807=CARTESIAN_POINT('',(13.5999999999257,72.6999999999651,-93.6000000000941));
#1808=CARTESIAN_POINT('',(13.5999999999257,72.6999999999651,-93.6000000000941));
#1809=CARTESIAN_POINT('',(13.5999999999257,72.6999999999651,-93.6000000000941));
#1810=CARTESIAN_POINT('Origin',(13.5999999998438,69.6999999999693,-93.6000000000941));
#1811=CARTESIAN_POINT('',(10.5999999999257,69.6999999999651,-93.6000000000941));
#1812=CARTESIAN_POINT('',(10.5999999999257,69.6999999999651,-93.6000000000941));
#1813=CARTESIAN_POINT('Origin',(13.5999999998438,69.6999999999693,-93.6000000000941));
#1814=CARTESIAN_POINT('Origin',(10.5999999999258,49.6999999999566,-93.6000000000941));
#1815=CARTESIAN_POINT('',(10.5999999999258,49.6999999999566,-93.6000000000941));
#1816=CARTESIAN_POINT('',(10.5999999999258,49.6999999999566,-93.6000000000941));
#1817=CARTESIAN_POINT('',(10.5999999999258,49.6999999999566,-93.6000000000941));
#1818=CARTESIAN_POINT('Origin',(13.5999999999258,49.6999999999566,-93.6000000000941));
#1819=CARTESIAN_POINT('',(13.5999999999174,46.6999999999566,-93.6000000000941));
#1820=CARTESIAN_POINT('Origin',(13.5999999999258,49.6999999999566,-93.6000000000941));
#1821=CARTESIAN_POINT('',(13.5999999999174,46.6999999999566,-93.6000000000941));
#1822=CARTESIAN_POINT('Origin',(19.5999999999768,46.6999999999399,-93.6000000000941));
#1823=CARTESIAN_POINT('',(19.5999999999768,46.6999999999399,-93.6000000000941));
#1824=CARTESIAN_POINT('',(19.5999999999768,46.6999999999399,-93.6000000000941));
#1825=CARTESIAN_POINT('',(19.5999999999768,46.6999999999399,-93.6000000000941));
#1826=CARTESIAN_POINT('Origin',(19.599999999974,45.6999999999399,-93.6000000000941));
#1827=CARTESIAN_POINT('',(20.599999999974,45.6999999999399,-93.6000000000941));
#1828=CARTESIAN_POINT('Origin',(19.599999999974,45.6999999999399,-93.6000000000941));
#1829=CARTESIAN_POINT('',(20.599999999974,45.6999999999399,-93.6000000000941));
#1830=CARTESIAN_POINT('Origin',(20.599999999974,44.6999999999378,-93.6000000000941));
#1831=CARTESIAN_POINT('',(20.599999999974,44.6999999999378,-93.6000000000941));
#1832=CARTESIAN_POINT('',(20.599999999974,44.6999999999378,-93.6000000000941));
#1833=CARTESIAN_POINT('',(20.599999999974,44.6999999999378,-93.6000000000941));
#1834=CARTESIAN_POINT('Origin',(19.599999999974,44.6999999999379,-93.6000000000941));
#1835=CARTESIAN_POINT('',(19.5999999999733,43.6999999999379,-93.6000000000941));
#1836=CARTESIAN_POINT('Origin',(19.599999999974,44.6999999999379,-93.6000000000941));
#1837=CARTESIAN_POINT('',(19.5999999999733,43.6999999999379,-93.6000000000941));
#1838=CARTESIAN_POINT('Origin',(-35.5500000000713,43.6999999999774,-93.6000000000941));
#1839=CARTESIAN_POINT('',(-35.5500000000713,43.6999999999774,-93.6000000000941));
#1840=CARTESIAN_POINT('Origin',(19.5999999999732,-43.6999999999456,-93.6000000000941));
#1841=CARTESIAN_POINT('',(19.5999999999732,-43.6999999999456,-93.6000000000941));
#1842=CARTESIAN_POINT('Origin',(24.4249999999843,-7.29549753941682E-11,
-93.6000000000941));
#1843=CARTESIAN_POINT('',(-24.4249999999843,-7.0992101086631E-11,-93.6000000000941));
#1844=UNCERTAINTY_MEASURE_WITH_UNIT(LENGTH_MEASURE(0.01),#1850,
'DISTANCE_ACCURACY_VALUE',
'Maximum model space distance between geometric entities at asserted c
onnectivities');
#1845=UNCERTAINTY_MEASURE_WITH_UNIT(LENGTH_MEASURE(0.01),#1850,
'DISTANCE_ACCURACY_VALUE',
'Maximum model space distance between geometric entities at asserted c
onnectivities');
#1846=UNCERTAINTY_MEASURE_WITH_UNIT(LENGTH_MEASURE(0.01),#1850,
'DISTANCE_ACCURACY_VALUE',
'Maximum model space distance between geometric entities at asserted c
onnectivities');
#1847=(
GEOMETRIC_REPRESENTATION_CONTEXT(3)
GLOBAL_UNCERTAINTY_ASSIGNED_CONTEXT((#1844))
GLOBAL_UNIT_ASSIGNED_CONTEXT((#1850,#1852,#1853))
REPRESENTATION_CONTEXT('','3D')
);
#1848=(
GEOMETRIC_REPRESENTATION_CONTEXT(3)
GLOBAL_UNCERTAINTY_ASSIGNED_CONTEXT((#1845))
GLOBAL_UNIT_ASSIGNED_CONTEXT((#1850,#1852,#1853))
REPRESENTATION_CONTEXT('','3D')
);
#1849=(
GEOMETRIC_REPRESENTATION_CONTEXT(3)
GLOBAL_UNCERTAINTY_ASSIGNED_CONTEXT((#1846))
GLOBAL_UNIT_ASSIGNED_CONTEXT((#1850,#1852,#1853))
REPRESENTATION_CONTEXT('','3D')
);
#1850=(
LENGTH_UNIT()
NAMED_UNIT(*)
SI_UNIT(.MILLI.,.METRE.)
);
#1851=(
LENGTH_UNIT()
NAMED_UNIT(*)
SI_UNIT($,.METRE.)
);
#1852=(
NAMED_UNIT(*)
PLANE_ANGLE_UNIT()
SI_UNIT($,.RADIAN.)
);
#1853=(
NAMED_UNIT(*)
SI_UNIT($,.STERADIAN.)
SOLID_ANGLE_UNIT()
);
#1854=SHAPE_DEFINITION_REPRESENTATION(#1856,#1859);
#1855=SHAPE_DEFINITION_REPRESENTATION(#1857,#1860);
#1856=PRODUCT_DEFINITION_SHAPE('',$,#1862);
#1857=PRODUCT_DEFINITION_SHAPE('',$,#1863);
#1858=PRODUCT_DEFINITION_SHAPE($,$,#14);
#1859=SHAPE_REPRESENTATION('',(#1112,#1212),#1847);
#1860=SHAPE_REPRESENTATION('',(#1113),#1848);
#1861=PRODUCT_DEFINITION_CONTEXT('part definition',#1869,'design');
#1862=PRODUCT_DEFINITION('2026-09-29-20-57-06-767','PRINT_LAYOUT',#1864,
#1861);
#1863=PRODUCT_DEFINITION('2026-09-29-20-57-06-775','BottomCover',#1865,
#1861);
#1864=PRODUCT_DEFINITION_FORMATION('',$,#1871);
#1865=PRODUCT_DEFINITION_FORMATION('',$,#1872);
#1866=PRODUCT_RELATED_PRODUCT_CATEGORY('PRINT_LAYOUT','PRINT_LAYOUT',(#1871));
#1867=PRODUCT_RELATED_PRODUCT_CATEGORY('BottomCover','BottomCover',(#1872));
#1868=APPLICATION_PROTOCOL_DEFINITION('international standard',
'automotive_design',2009,#1869);
#1869=APPLICATION_CONTEXT(
'Core Data for Automotive Mechanical Design Process');
#1870=PRODUCT_CONTEXT('part definition',#1869,'mechanical');
#1871=PRODUCT('2026-09-29-20-57-06-767','PRINT_LAYOUT',$,(#1870));
#1872=PRODUCT('2026-09-29-20-57-06-775','BottomCover',$,(#1870));
#1873=PRESENTATION_STYLE_ASSIGNMENT((#1876));
#1874=PRESENTATION_STYLE_ASSIGNMENT((#1877));
#1875=PRESENTATION_STYLE_ASSIGNMENT((#1878));
#1876=SURFACE_STYLE_USAGE(.BOTH.,#1879);
#1877=SURFACE_STYLE_USAGE(.BOTH.,#1880);
#1878=SURFACE_STYLE_USAGE(.BOTH.,#1881);
#1879=SURFACE_SIDE_STYLE('',(#1882));
#1880=SURFACE_SIDE_STYLE('',(#1883));
#1881=SURFACE_SIDE_STYLE('',(#1884));
#1882=SURFACE_STYLE_FILL_AREA(#1885);
#1883=SURFACE_STYLE_FILL_AREA(#1886);
#1884=SURFACE_STYLE_FILL_AREA(#1887);
#1885=FILL_AREA_STYLE('Plastic - Matte (Black)',(#1888));
#1886=FILL_AREA_STYLE('Steel - Satin',(#1889));
#1887=FILL_AREA_STYLE('Brass - Old',(#1890));
#1888=FILL_AREA_STYLE_COLOUR('Plastic - Matte (Black)',#1891);
#1889=FILL_AREA_STYLE_COLOUR('Steel - Satin',#1892);
#1890=FILL_AREA_STYLE_COLOUR('Brass - Old',#1893);
#1891=COLOUR_RGB('Plastic - Matte (Black)',0.0980392156862745,0.0980392156862745,
0.0980392156862745);
#1892=COLOUR_RGB('Steel - Satin',0.627450980392157,0.627450980392157,0.627450980392157);
#1893=COLOUR_RGB('Brass - Old',0.,0.,0.);
ENDSEC;
END-ISO-10303-21;
