ISO-10303-21;
HEADER;
/* Generated by software containing ST-Developer
 * from STEP Tools, Inc. (www.steptools.com) 
 */

FILE_DESCRIPTION(
/* description */ (''),
/* implementation_level */ '2;1');

FILE_NAME(
/* name */ 'DeskTop.step',
/* time_stamp */ '2026-10-05T11:41:55+02:00',
/* author */ (''),
/* organization */ (''),
/* preprocessor_version */ 'ST-DEVELOPER v20.2',
/* originating_system */ 'Autodesk Translation Framework v15.15.0.0',
/* authorisation */ '');

FILE_SCHEMA (('AUTOMOTIVE_DESIGN { 1 0 10303 214 3 1 1 }'));
ENDSEC;

DATA;
#10=MECHANICAL_DESIGN_GEOMETRIC_PRESENTATION_REPRESENTATION('',(#17),#1691);
#11=ITEM_DEFINED_TRANSFORMATION($,$,#999,#1108);
#12=(
REPRESENTATION_RELATIONSHIP($,$,#1702,#1701)
REPRESENTATION_RELATIONSHIP_WITH_TRANSFORMATION(#11)
SHAPE_REPRESENTATION_RELATIONSHIP()
);
#13=CONTEXT_DEPENDENT_SHAPE_REPRESENTATION(#12,#1700);
#14=NEXT_ASSEMBLY_USAGE_OCCURRENCE('DeskTop:1','DeskTop:1','DeskTop:1',
#1704,#1705,'DeskTop:1');
#15=SHAPE_REPRESENTATION_RELATIONSHIP('SRR','None',#1702,#16);
#16=ADVANCED_BREP_SHAPE_REPRESENTATION('',(#18),#1690);
#17=STYLED_ITEM('',(#1715),#18);
#18=MANIFOLD_SOLID_BREP('Body1',#985);
#19=FACE_BOUND('',#137,.T.);
#20=FACE_BOUND('',#141,.T.);
#21=FACE_BOUND('',#144,.T.);
#22=FACE_BOUND('',#147,.T.);
#23=FACE_BOUND('',#162,.T.);
#24=FACE_BOUND('',#165,.T.);
#25=FACE_BOUND('',#168,.T.);
#26=FACE_BOUND('',#171,.T.);
#27=FACE_BOUND('',#179,.T.);
#28=FACE_BOUND('',#180,.T.);
#29=FACE_BOUND('',#181,.T.);
#30=FACE_BOUND('',#182,.T.);
#31=FACE_BOUND('',#183,.T.);
#32=FACE_BOUND('',#184,.T.);
#33=FACE_BOUND('',#185,.T.);
#34=FACE_BOUND('',#186,.T.);
#35=FACE_BOUND('',#187,.T.);
#36=FACE_BOUND('',#188,.T.);
#37=FACE_BOUND('',#200,.T.);
#38=FACE_BOUND('',#201,.T.);
#39=FACE_BOUND('',#202,.T.);
#40=FACE_BOUND('',#203,.T.);
#41=FACE_BOUND('',#204,.T.);
#42=FACE_BOUND('',#205,.T.);
#43=FACE_BOUND('',#206,.T.);
#44=FACE_BOUND('',#207,.T.);
#45=FACE_BOUND('',#208,.T.);
#46=FACE_BOUND('',#209,.T.);
#47=PLANE('',#1003);
#48=PLANE('',#1007);
#49=PLANE('',#1011);
#50=PLANE('',#1015);
#51=PLANE('',#1016);
#52=PLANE('',#1023);
#53=PLANE('',#1028);
#54=PLANE('',#1032);
#55=PLANE('',#1041);
#56=PLANE('',#1042);
#57=PLANE('',#1043);
#58=PLANE('',#1044);
#59=PLANE('',#1045);
#60=PLANE('',#1046);
#61=PLANE('',#1047);
#62=PLANE('',#1048);
#63=PLANE('',#1055);
#64=PLANE('',#1060);
#65=PLANE('',#1065);
#66=PLANE('',#1070);
#67=PLANE('',#1083);
#68=PLANE('',#1084);
#69=PLANE('',#1093);
#70=PLANE('',#1098);
#71=PLANE('',#1105);
#72=PLANE('',#1106);
#73=PLANE('',#1107);
#74=FACE_OUTER_BOUND('',#128,.T.);
#75=FACE_OUTER_BOUND('',#129,.T.);
#76=FACE_OUTER_BOUND('',#130,.T.);
#77=FACE_OUTER_BOUND('',#131,.T.);
#78=FACE_OUTER_BOUND('',#132,.T.);
#79=FACE_OUTER_BOUND('',#133,.T.);
#80=FACE_OUTER_BOUND('',#134,.T.);
#81=FACE_OUTER_BOUND('',#135,.T.);
#82=FACE_OUTER_BOUND('',#136,.T.);
#83=FACE_OUTER_BOUND('',#138,.T.);
#84=FACE_OUTER_BOUND('',#139,.T.);
#85=FACE_OUTER_BOUND('',#140,.T.);
#86=FACE_OUTER_BOUND('',#142,.T.);
#87=FACE_OUTER_BOUND('',#143,.T.);
#88=FACE_OUTER_BOUND('',#145,.T.);
#89=FACE_OUTER_BOUND('',#146,.T.);
#90=FACE_OUTER_BOUND('',#148,.T.);
#91=FACE_OUTER_BOUND('',#149,.T.);
#92=FACE_OUTER_BOUND('',#150,.T.);
#93=FACE_OUTER_BOUND('',#151,.T.);
#94=FACE_OUTER_BOUND('',#152,.T.);
#95=FACE_OUTER_BOUND('',#153,.T.);
#96=FACE_OUTER_BOUND('',#154,.T.);
#97=FACE_OUTER_BOUND('',#155,.T.);
#98=FACE_OUTER_BOUND('',#156,.T.);
#99=FACE_OUTER_BOUND('',#157,.T.);
#100=FACE_OUTER_BOUND('',#158,.T.);
#101=FACE_OUTER_BOUND('',#159,.T.);
#102=FACE_OUTER_BOUND('',#160,.T.);
#103=FACE_OUTER_BOUND('',#161,.T.);
#104=FACE_OUTER_BOUND('',#163,.T.);
#105=FACE_OUTER_BOUND('',#164,.T.);
#106=FACE_OUTER_BOUND('',#166,.T.);
#107=FACE_OUTER_BOUND('',#167,.T.);
#108=FACE_OUTER_BOUND('',#169,.T.);
#109=FACE_OUTER_BOUND('',#170,.T.);
#110=FACE_OUTER_BOUND('',#172,.T.);
#111=FACE_OUTER_BOUND('',#173,.T.);
#112=FACE_OUTER_BOUND('',#174,.T.);
#113=FACE_OUTER_BOUND('',#175,.T.);
#114=FACE_OUTER_BOUND('',#176,.T.);
#115=FACE_OUTER_BOUND('',#177,.T.);
#116=FACE_OUTER_BOUND('',#178,.T.);
#117=FACE_OUTER_BOUND('',#189,.T.);
#118=FACE_OUTER_BOUND('',#190,.T.);
#119=FACE_OUTER_BOUND('',#191,.T.);
#120=FACE_OUTER_BOUND('',#192,.T.);
#121=FACE_OUTER_BOUND('',#193,.T.);
#122=FACE_OUTER_BOUND('',#194,.T.);
#123=FACE_OUTER_BOUND('',#195,.T.);
#124=FACE_OUTER_BOUND('',#196,.T.);
#125=FACE_OUTER_BOUND('',#197,.T.);
#126=FACE_OUTER_BOUND('',#198,.T.);
#127=FACE_OUTER_BOUND('',#199,.T.);
#128=EDGE_LOOP('',(#640,#641,#642,#643));
#129=EDGE_LOOP('',(#644,#645,#646,#647));
#130=EDGE_LOOP('',(#648,#649,#650,#651));
#131=EDGE_LOOP('',(#652,#653,#654,#655));
#132=EDGE_LOOP('',(#656,#657,#658,#659));
#133=EDGE_LOOP('',(#660,#661,#662,#663));
#134=EDGE_LOOP('',(#664,#665,#666,#667));
#135=EDGE_LOOP('',(#668,#669,#670,#671));
#136=EDGE_LOOP('',(#672,#673,#674,#675,#676,#677,#678,#679));
#137=EDGE_LOOP('',(#680));
#138=EDGE_LOOP('',(#681,#682,#683,#684));
#139=EDGE_LOOP('',(#685,#686,#687,#688));
#140=EDGE_LOOP('',(#689));
#141=EDGE_LOOP('',(#690));
#142=EDGE_LOOP('',(#691,#692,#693,#694));
#143=EDGE_LOOP('',(#695));
#144=EDGE_LOOP('',(#696));
#145=EDGE_LOOP('',(#697,#698,#699,#700));
#146=EDGE_LOOP('',(#701));
#147=EDGE_LOOP('',(#702));
#148=EDGE_LOOP('',(#703,#704,#705,#706));
#149=EDGE_LOOP('',(#707,#708,#709,#710));
#150=EDGE_LOOP('',(#711,#712,#713,#714));
#151=EDGE_LOOP('',(#715,#716,#717,#718));
#152=EDGE_LOOP('',(#719,#720,#721,#722));
#153=EDGE_LOOP('',(#723,#724,#725,#726));
#154=EDGE_LOOP('',(#727,#728,#729,#730));
#155=EDGE_LOOP('',(#731,#732,#733,#734));
#156=EDGE_LOOP('',(#735,#736,#737,#738));
#157=EDGE_LOOP('',(#739,#740,#741,#742));
#158=EDGE_LOOP('',(#743,#744,#745,#746));
#159=EDGE_LOOP('',(#747,#748,#749,#750));
#160=EDGE_LOOP('',(#751,#752,#753,#754));
#161=EDGE_LOOP('',(#755));
#162=EDGE_LOOP('',(#756));
#163=EDGE_LOOP('',(#757,#758,#759,#760));
#164=EDGE_LOOP('',(#761));
#165=EDGE_LOOP('',(#762));
#166=EDGE_LOOP('',(#763,#764,#765,#766));
#167=EDGE_LOOP('',(#767));
#168=EDGE_LOOP('',(#768));
#169=EDGE_LOOP('',(#769,#770,#771,#772));
#170=EDGE_LOOP('',(#773));
#171=EDGE_LOOP('',(#774));
#172=EDGE_LOOP('',(#775,#776,#777,#778));
#173=EDGE_LOOP('',(#779,#780,#781,#782));
#174=EDGE_LOOP('',(#783,#784,#785,#786));
#175=EDGE_LOOP('',(#787,#788,#789,#790));
#176=EDGE_LOOP('',(#791,#792,#793,#794));
#177=EDGE_LOOP('',(#795,#796,#797,#798));
#178=EDGE_LOOP('',(#799,#800,#801,#802,#803,#804,#805,#806,#807,#808,#809,
#810));
#179=EDGE_LOOP('',(#811));
#180=EDGE_LOOP('',(#812));
#181=EDGE_LOOP('',(#813));
#182=EDGE_LOOP('',(#814));
#183=EDGE_LOOP('',(#815));
#184=EDGE_LOOP('',(#816));
#185=EDGE_LOOP('',(#817));
#186=EDGE_LOOP('',(#818,#819,#820,#821,#822,#823,#824,#825));
#187=EDGE_LOOP('',(#826));
#188=EDGE_LOOP('',(#827));
#189=EDGE_LOOP('',(#828,#829,#830,#831));
#190=EDGE_LOOP('',(#832,#833,#834,#835));
#191=EDGE_LOOP('',(#836,#837,#838,#839));
#192=EDGE_LOOP('',(#840,#841,#842,#843));
#193=EDGE_LOOP('',(#844,#845,#846,#847));
#194=EDGE_LOOP('',(#848,#849,#850,#851));
#195=EDGE_LOOP('',(#852,#853,#854,#855));
#196=EDGE_LOOP('',(#856,#857,#858,#859));
#197=EDGE_LOOP('',(#860,#861,#862,#863));
#198=EDGE_LOOP('',(#864,#865,#866,#867));
#199=EDGE_LOOP('',(#868,#869,#870,#871,#872,#873,#874,#875,#876,#877,#878,
#879));
#200=EDGE_LOOP('',(#880));
#201=EDGE_LOOP('',(#881));
#202=EDGE_LOOP('',(#882,#883,#884,#885,#886,#887,#888,#889));
#203=EDGE_LOOP('',(#890));
#204=EDGE_LOOP('',(#891));
#205=EDGE_LOOP('',(#892));
#206=EDGE_LOOP('',(#893));
#207=EDGE_LOOP('',(#894));
#208=EDGE_LOOP('',(#895));
#209=EDGE_LOOP('',(#896,#897,#898,#899,#900,#901,#902,#903));
#210=LINE('',#1416,#288);
#211=LINE('',#1419,#289);
#212=LINE('',#1422,#290);
#213=LINE('',#1424,#291);
#214=LINE('',#1425,#292);
#215=LINE('',#1431,#293);
#216=LINE('',#1434,#294);
#217=LINE('',#1436,#295);
#218=LINE('',#1437,#296);
#219=LINE('',#1443,#297);
#220=LINE('',#1446,#298);
#221=LINE('',#1448,#299);
#222=LINE('',#1449,#300);
#223=LINE('',#1455,#301);
#224=LINE('',#1457,#302);
#225=LINE('',#1458,#303);
#226=LINE('',#1464,#304);
#227=LINE('',#1470,#305);
#228=LINE('',#1479,#306);
#229=LINE('',#1486,#307);
#230=LINE('',#1493,#308);
#231=LINE('',#1497,#309);
#232=LINE('',#1503,#310);
#233=LINE('',#1508,#311);
#234=LINE('',#1510,#312);
#235=LINE('',#1512,#313);
#236=LINE('',#1513,#314);
#237=LINE('',#1516,#315);
#238=LINE('',#1518,#316);
#239=LINE('',#1519,#317);
#240=LINE('',#1522,#318);
#241=LINE('',#1524,#319);
#242=LINE('',#1525,#320);
#243=LINE('',#1528,#321);
#244=LINE('',#1530,#322);
#245=LINE('',#1531,#323);
#246=LINE('',#1534,#324);
#247=LINE('',#1536,#325);
#248=LINE('',#1537,#326);
#249=LINE('',#1540,#327);
#250=LINE('',#1542,#328);
#251=LINE('',#1543,#329);
#252=LINE('',#1546,#330);
#253=LINE('',#1548,#331);
#254=LINE('',#1549,#332);
#255=LINE('',#1551,#333);
#256=LINE('',#1552,#334);
#257=LINE('',#1557,#335);
#258=LINE('',#1563,#336);
#259=LINE('',#1572,#337);
#260=LINE('',#1581,#338);
#261=LINE('',#1590,#339);
#262=LINE('',#1597,#340);
#263=LINE('',#1601,#341);
#264=LINE('',#1605,#342);
#265=LINE('',#1609,#343);
#266=LINE('',#1616,#344);
#267=LINE('',#1619,#345);
#268=LINE('',#1622,#346);
#269=LINE('',#1624,#347);
#270=LINE('',#1625,#348);
#271=LINE('',#1628,#349);
#272=LINE('',#1632,#350);
#273=LINE('',#1636,#351);
#274=LINE('',#1640,#352);
#275=LINE('',#1650,#353);
#276=LINE('',#1651,#354);
#277=LINE('',#1654,#355);
#278=LINE('',#1655,#356);
#279=LINE('',#1659,#357);
#280=LINE('',#1664,#358);
#281=LINE('',#1665,#359);
#282=LINE('',#1668,#360);
#283=LINE('',#1669,#361);
#284=LINE('',#1673,#362);
#285=LINE('',#1677,#363);
#286=LINE('',#1681,#364);
#287=LINE('',#1683,#365);
#288=VECTOR('',#1117,10.);
#289=VECTOR('',#1120,10.);
#290=VECTOR('',#1123,10.);
#291=VECTOR('',#1124,10.);
#292=VECTOR('',#1125,10.);
#293=VECTOR('',#1130,10.);
#294=VECTOR('',#1133,10.);
#295=VECTOR('',#1136,10.);
#296=VECTOR('',#1137,10.);
#297=VECTOR('',#1142,10.);
#298=VECTOR('',#1145,10.);
#299=VECTOR('',#1148,10.);
#300=VECTOR('',#1149,10.);
#301=VECTOR('',#1156,10.);
#302=VECTOR('',#1159,10.);
#303=VECTOR('',#1160,10.);
#304=VECTOR('',#1167,1.05);
#305=VECTOR('',#1174,6.5);
#306=VECTOR('',#1185,7.8);
#307=VECTOR('',#1194,5.);
#308=VECTOR('',#1203,1.05);
#309=VECTOR('',#1208,1.05);
#310=VECTOR('',#1215,1.05);
#311=VECTOR('',#1220,10.);
#312=VECTOR('',#1221,10.);
#313=VECTOR('',#1222,10.);
#314=VECTOR('',#1223,10.);
#315=VECTOR('',#1226,10.);
#316=VECTOR('',#1227,10.);
#317=VECTOR('',#1228,10.);
#318=VECTOR('',#1231,10.);
#319=VECTOR('',#1232,10.);
#320=VECTOR('',#1233,10.);
#321=VECTOR('',#1236,10.);
#322=VECTOR('',#1237,10.);
#323=VECTOR('',#1238,10.);
#324=VECTOR('',#1241,10.);
#325=VECTOR('',#1242,10.);
#326=VECTOR('',#1243,10.);
#327=VECTOR('',#1246,10.);
#328=VECTOR('',#1247,10.);
#329=VECTOR('',#1248,10.);
#330=VECTOR('',#1251,10.);
#331=VECTOR('',#1252,10.);
#332=VECTOR('',#1253,10.);
#333=VECTOR('',#1256,10.);
#334=VECTOR('',#1257,10.);
#335=VECTOR('',#1262,1.05);
#336=VECTOR('',#1269,2.);
#337=VECTOR('',#1280,2.);
#338=VECTOR('',#1291,2.);
#339=VECTOR('',#1302,2.);
#340=VECTOR('',#1311,1.05);
#341=VECTOR('',#1316,1.05);
#342=VECTOR('',#1321,1.05);
#343=VECTOR('',#1326,1.05);
#344=VECTOR('',#1333,10.);
#345=VECTOR('',#1336,10.);
#346=VECTOR('',#1339,10.);
#347=VECTOR('',#1340,10.);
#348=VECTOR('',#1341,10.);
#349=VECTOR('',#1344,10.);
#350=VECTOR('',#1347,10.);
#351=VECTOR('',#1350,10.);
#352=VECTOR('',#1353,10.);
#353=VECTOR('',#1364,10.);
#354=VECTOR('',#1365,10.);
#355=VECTOR('',#1368,10.);
#356=VECTOR('',#1369,10.);
#357=VECTOR('',#1374,10.);
#358=VECTOR('',#1379,10.);
#359=VECTOR('',#1380,10.);
#360=VECTOR('',#1383,10.);
#361=VECTOR('',#1384,10.);
#362=VECTOR('',#1389,10.);
#363=VECTOR('',#1394,10.);
#364=VECTOR('',#1401,10.);
#365=VECTOR('',#1404,10.);
#366=CIRCLE('',#1001,3.4);
#367=CIRCLE('',#1002,3.4);
#368=CIRCLE('',#1005,3.4);
#369=CIRCLE('',#1006,3.4);
#370=CIRCLE('',#1009,3.4);
#371=CIRCLE('',#1010,3.4);
#372=CIRCLE('',#1013,3.4);
#373=CIRCLE('',#1014,3.4);
#374=CIRCLE('',#1017,1.05);
#375=CIRCLE('',#1019,1.05);
#376=CIRCLE('',#1021,6.5);
#377=CIRCLE('',#1022,6.5);
#378=CIRCLE('',#1024,5.);
#379=CIRCLE('',#1026,7.8);
#380=CIRCLE('',#1027,7.8);
#381=CIRCLE('',#1029,1.05);
#382=CIRCLE('',#1031,5.);
#383=CIRCLE('',#1033,1.05);
#384=CIRCLE('',#1035,1.05);
#385=CIRCLE('',#1037,1.05);
#386=CIRCLE('',#1039,1.05);
#387=CIRCLE('',#1040,1.05);
#388=CIRCLE('',#1050,1.05);
#389=CIRCLE('',#1051,1.05);
#390=CIRCLE('',#1053,2.);
#391=CIRCLE('',#1054,2.);
#392=CIRCLE('',#1056,1.05);
#393=CIRCLE('',#1058,2.);
#394=CIRCLE('',#1059,2.);
#395=CIRCLE('',#1061,1.05);
#396=CIRCLE('',#1063,2.);
#397=CIRCLE('',#1064,2.);
#398=CIRCLE('',#1066,1.05);
#399=CIRCLE('',#1068,2.);
#400=CIRCLE('',#1069,2.);
#401=CIRCLE('',#1071,1.05);
#402=CIRCLE('',#1073,1.05);
#403=CIRCLE('',#1075,1.05);
#404=CIRCLE('',#1077,1.05);
#405=CIRCLE('',#1079,1.05);
#406=CIRCLE('',#1081,5.);
#407=CIRCLE('',#1082,5.);
#408=CIRCLE('',#1085,5.);
#409=CIRCLE('',#1086,5.);
#410=CIRCLE('',#1087,5.);
#411=CIRCLE('',#1088,20.);
#412=CIRCLE('',#1089,128.504500001595);
#413=CIRCLE('',#1090,20.);
#414=CIRCLE('',#1092,5.);
#415=CIRCLE('',#1095,5.);
#416=CIRCLE('',#1097,5.);
#417=CIRCLE('',#1100,20.);
#418=CIRCLE('',#1102,20.);
#419=CIRCLE('',#1104,128.504500001595);
#420=VERTEX_POINT('',#1412);
#421=VERTEX_POINT('',#1413);
#422=VERTEX_POINT('',#1415);
#423=VERTEX_POINT('',#1417);
#424=VERTEX_POINT('',#1421);
#425=VERTEX_POINT('',#1423);
#426=VERTEX_POINT('',#1427);
#427=VERTEX_POINT('',#1428);
#428=VERTEX_POINT('',#1430);
#429=VERTEX_POINT('',#1432);
#430=VERTEX_POINT('',#1439);
#431=VERTEX_POINT('',#1440);
#432=VERTEX_POINT('',#1442);
#433=VERTEX_POINT('',#1444);
#434=VERTEX_POINT('',#1451);
#435=VERTEX_POINT('',#1453);
#436=VERTEX_POINT('',#1460);
#437=VERTEX_POINT('',#1463);
#438=VERTEX_POINT('',#1467);
#439=VERTEX_POINT('',#1469);
#440=VERTEX_POINT('',#1473);
#441=VERTEX_POINT('',#1476);
#442=VERTEX_POINT('',#1478);
#443=VERTEX_POINT('',#1482);
#444=VERTEX_POINT('',#1485);
#445=VERTEX_POINT('',#1489);
#446=VERTEX_POINT('',#1492);
#447=VERTEX_POINT('',#1496);
#448=VERTEX_POINT('',#1500);
#449=VERTEX_POINT('',#1502);
#450=VERTEX_POINT('',#1506);
#451=VERTEX_POINT('',#1507);
#452=VERTEX_POINT('',#1509);
#453=VERTEX_POINT('',#1511);
#454=VERTEX_POINT('',#1515);
#455=VERTEX_POINT('',#1517);
#456=VERTEX_POINT('',#1521);
#457=VERTEX_POINT('',#1523);
#458=VERTEX_POINT('',#1527);
#459=VERTEX_POINT('',#1529);
#460=VERTEX_POINT('',#1533);
#461=VERTEX_POINT('',#1535);
#462=VERTEX_POINT('',#1539);
#463=VERTEX_POINT('',#1541);
#464=VERTEX_POINT('',#1545);
#465=VERTEX_POINT('',#1547);
#466=VERTEX_POINT('',#1554);
#467=VERTEX_POINT('',#1556);
#468=VERTEX_POINT('',#1560);
#469=VERTEX_POINT('',#1562);
#470=VERTEX_POINT('',#1566);
#471=VERTEX_POINT('',#1569);
#472=VERTEX_POINT('',#1571);
#473=VERTEX_POINT('',#1575);
#474=VERTEX_POINT('',#1578);
#475=VERTEX_POINT('',#1580);
#476=VERTEX_POINT('',#1584);
#477=VERTEX_POINT('',#1587);
#478=VERTEX_POINT('',#1589);
#479=VERTEX_POINT('',#1593);
#480=VERTEX_POINT('',#1596);
#481=VERTEX_POINT('',#1600);
#482=VERTEX_POINT('',#1604);
#483=VERTEX_POINT('',#1608);
#484=VERTEX_POINT('',#1612);
#485=VERTEX_POINT('',#1613);
#486=VERTEX_POINT('',#1615);
#487=VERTEX_POINT('',#1617);
#488=VERTEX_POINT('',#1621);
#489=VERTEX_POINT('',#1623);
#490=VERTEX_POINT('',#1627);
#491=VERTEX_POINT('',#1629);
#492=VERTEX_POINT('',#1631);
#493=VERTEX_POINT('',#1633);
#494=VERTEX_POINT('',#1635);
#495=VERTEX_POINT('',#1637);
#496=VERTEX_POINT('',#1639);
#497=VERTEX_POINT('',#1641);
#498=VERTEX_POINT('',#1643);
#499=VERTEX_POINT('',#1647);
#500=VERTEX_POINT('',#1648);
#501=VERTEX_POINT('',#1653);
#502=VERTEX_POINT('',#1657);
#503=VERTEX_POINT('',#1661);
#504=VERTEX_POINT('',#1662);
#505=VERTEX_POINT('',#1667);
#506=VERTEX_POINT('',#1671);
#507=VERTEX_POINT('',#1675);
#508=EDGE_CURVE('',#420,#421,#366,.T.);
#509=EDGE_CURVE('',#420,#422,#210,.T.);
#510=EDGE_CURVE('',#422,#423,#367,.T.);
#511=EDGE_CURVE('',#423,#421,#211,.T.);
#512=EDGE_CURVE('',#424,#423,#212,.T.);
#513=EDGE_CURVE('',#425,#424,#213,.T.);
#514=EDGE_CURVE('',#425,#421,#214,.T.);
#515=EDGE_CURVE('',#426,#427,#368,.T.);
#516=EDGE_CURVE('',#426,#428,#215,.T.);
#517=EDGE_CURVE('',#428,#429,#369,.T.);
#518=EDGE_CURVE('',#429,#427,#216,.T.);
#519=EDGE_CURVE('',#420,#427,#217,.T.);
#520=EDGE_CURVE('',#422,#429,#218,.T.);
#521=EDGE_CURVE('',#430,#431,#370,.T.);
#522=EDGE_CURVE('',#430,#432,#219,.T.);
#523=EDGE_CURVE('',#432,#433,#371,.T.);
#524=EDGE_CURVE('',#433,#431,#220,.T.);
#525=EDGE_CURVE('',#426,#431,#221,.T.);
#526=EDGE_CURVE('',#428,#433,#222,.T.);
#527=EDGE_CURVE('',#425,#434,#372,.T.);
#528=EDGE_CURVE('',#424,#435,#373,.T.);
#529=EDGE_CURVE('',#435,#434,#223,.T.);
#530=EDGE_CURVE('',#430,#434,#224,.T.);
#531=EDGE_CURVE('',#432,#435,#225,.T.);
#532=EDGE_CURVE('',#436,#436,#374,.T.);
#533=EDGE_CURVE('',#436,#437,#226,.T.);
#534=EDGE_CURVE('',#437,#437,#375,.T.);
#535=EDGE_CURVE('',#438,#438,#376,.T.);
#536=EDGE_CURVE('',#438,#439,#227,.T.);
#537=EDGE_CURVE('',#439,#439,#377,.T.);
#538=EDGE_CURVE('',#440,#440,#378,.T.);
#539=EDGE_CURVE('',#441,#441,#379,.T.);
#540=EDGE_CURVE('',#441,#442,#228,.T.);
#541=EDGE_CURVE('',#442,#442,#380,.T.);
#542=EDGE_CURVE('',#443,#443,#381,.T.);
#543=EDGE_CURVE('',#440,#444,#229,.T.);
#544=EDGE_CURVE('',#444,#444,#382,.T.);
#545=EDGE_CURVE('',#445,#445,#383,.T.);
#546=EDGE_CURVE('',#443,#446,#230,.T.);
#547=EDGE_CURVE('',#446,#446,#384,.T.);
#548=EDGE_CURVE('',#445,#447,#231,.T.);
#549=EDGE_CURVE('',#447,#447,#385,.T.);
#550=EDGE_CURVE('',#448,#448,#386,.T.);
#551=EDGE_CURVE('',#448,#449,#232,.T.);
#552=EDGE_CURVE('',#449,#449,#387,.T.);
#553=EDGE_CURVE('',#450,#451,#233,.T.);
#554=EDGE_CURVE('',#452,#450,#234,.T.);
#555=EDGE_CURVE('',#453,#452,#235,.T.);
#556=EDGE_CURVE('',#453,#451,#236,.T.);
#557=EDGE_CURVE('',#451,#454,#237,.T.);
#558=EDGE_CURVE('',#455,#453,#238,.T.);
#559=EDGE_CURVE('',#455,#454,#239,.T.);
#560=EDGE_CURVE('',#454,#456,#240,.T.);
#561=EDGE_CURVE('',#457,#455,#241,.T.);
#562=EDGE_CURVE('',#457,#456,#242,.T.);
#563=EDGE_CURVE('',#456,#458,#243,.T.);
#564=EDGE_CURVE('',#459,#457,#244,.T.);
#565=EDGE_CURVE('',#459,#458,#245,.T.);
#566=EDGE_CURVE('',#458,#460,#246,.T.);
#567=EDGE_CURVE('',#461,#459,#247,.T.);
#568=EDGE_CURVE('',#461,#460,#248,.T.);
#569=EDGE_CURVE('',#460,#462,#249,.T.);
#570=EDGE_CURVE('',#463,#461,#250,.T.);
#571=EDGE_CURVE('',#463,#462,#251,.T.);
#572=EDGE_CURVE('',#462,#464,#252,.T.);
#573=EDGE_CURVE('',#465,#463,#253,.T.);
#574=EDGE_CURVE('',#465,#464,#254,.T.);
#575=EDGE_CURVE('',#464,#450,#255,.T.);
#576=EDGE_CURVE('',#452,#465,#256,.T.);
#577=EDGE_CURVE('',#466,#466,#388,.T.);
#578=EDGE_CURVE('',#466,#467,#257,.T.);
#579=EDGE_CURVE('',#467,#467,#389,.T.);
#580=EDGE_CURVE('',#468,#468,#390,.T.);
#581=EDGE_CURVE('',#468,#469,#258,.T.);
#582=EDGE_CURVE('',#469,#469,#391,.T.);
#583=EDGE_CURVE('',#470,#470,#392,.T.);
#584=EDGE_CURVE('',#471,#471,#393,.T.);
#585=EDGE_CURVE('',#471,#472,#259,.T.);
#586=EDGE_CURVE('',#472,#472,#394,.T.);
#587=EDGE_CURVE('',#473,#473,#395,.T.);
#588=EDGE_CURVE('',#474,#474,#396,.T.);
#589=EDGE_CURVE('',#474,#475,#260,.T.);
#590=EDGE_CURVE('',#475,#475,#397,.T.);
#591=EDGE_CURVE('',#476,#476,#398,.T.);
#592=EDGE_CURVE('',#477,#477,#399,.T.);
#593=EDGE_CURVE('',#477,#478,#261,.T.);
#594=EDGE_CURVE('',#478,#478,#400,.T.);
#595=EDGE_CURVE('',#479,#479,#401,.T.);
#596=EDGE_CURVE('',#479,#480,#262,.T.);
#597=EDGE_CURVE('',#480,#480,#402,.T.);
#598=EDGE_CURVE('',#470,#481,#263,.T.);
#599=EDGE_CURVE('',#481,#481,#403,.T.);
#600=EDGE_CURVE('',#473,#482,#264,.T.);
#601=EDGE_CURVE('',#482,#482,#404,.T.);
#602=EDGE_CURVE('',#476,#483,#265,.T.);
#603=EDGE_CURVE('',#483,#483,#405,.T.);
#604=EDGE_CURVE('',#484,#485,#406,.T.);
#605=EDGE_CURVE('',#485,#486,#266,.T.);
#606=EDGE_CURVE('',#486,#487,#407,.T.);
#607=EDGE_CURVE('',#487,#484,#267,.T.);
#608=EDGE_CURVE('',#487,#488,#268,.T.);
#609=EDGE_CURVE('',#489,#488,#269,.T.);
#610=EDGE_CURVE('',#484,#489,#270,.T.);
#611=EDGE_CURVE('',#490,#486,#271,.T.);
#612=EDGE_CURVE('',#491,#490,#408,.T.);
#613=EDGE_CURVE('',#492,#491,#272,.T.);
#614=EDGE_CURVE('',#493,#492,#409,.T.);
#615=EDGE_CURVE('',#494,#493,#273,.T.);
#616=EDGE_CURVE('',#495,#494,#410,.T.);
#617=EDGE_CURVE('',#495,#496,#274,.T.);
#618=EDGE_CURVE('',#497,#496,#411,.T.);
#619=EDGE_CURVE('',#497,#498,#412,.T.);
#620=EDGE_CURVE('',#488,#498,#413,.T.);
#621=EDGE_CURVE('',#499,#500,#414,.T.);
#622=EDGE_CURVE('',#500,#491,#275,.T.);
#623=EDGE_CURVE('',#490,#499,#276,.T.);
#624=EDGE_CURVE('',#501,#500,#277,.T.);
#625=EDGE_CURVE('',#492,#501,#278,.T.);
#626=EDGE_CURVE('',#501,#502,#415,.T.);
#627=EDGE_CURVE('',#502,#493,#279,.T.);
#628=EDGE_CURVE('',#503,#504,#416,.T.);
#629=EDGE_CURVE('',#504,#495,#280,.T.);
#630=EDGE_CURVE('',#494,#503,#281,.T.);
#631=EDGE_CURVE('',#505,#504,#282,.T.);
#632=EDGE_CURVE('',#496,#505,#283,.T.);
#633=EDGE_CURVE('',#505,#506,#417,.T.);
#634=EDGE_CURVE('',#506,#497,#284,.T.);
#635=EDGE_CURVE('',#507,#489,#418,.T.);
#636=EDGE_CURVE('',#498,#507,#285,.T.);
#637=EDGE_CURVE('',#507,#506,#419,.T.);
#638=EDGE_CURVE('',#499,#485,#286,.T.);
#639=EDGE_CURVE('',#503,#502,#287,.T.);
#640=ORIENTED_EDGE('',*,*,#508,.F.);
#641=ORIENTED_EDGE('',*,*,#509,.T.);
#642=ORIENTED_EDGE('',*,*,#510,.T.);
#643=ORIENTED_EDGE('',*,*,#511,.T.);
#644=ORIENTED_EDGE('',*,*,#511,.F.);
#645=ORIENTED_EDGE('',*,*,#512,.F.);
#646=ORIENTED_EDGE('',*,*,#513,.F.);
#647=ORIENTED_EDGE('',*,*,#514,.T.);
#648=ORIENTED_EDGE('',*,*,#515,.F.);
#649=ORIENTED_EDGE('',*,*,#516,.T.);
#650=ORIENTED_EDGE('',*,*,#517,.T.);
#651=ORIENTED_EDGE('',*,*,#518,.T.);
#652=ORIENTED_EDGE('',*,*,#509,.F.);
#653=ORIENTED_EDGE('',*,*,#519,.T.);
#654=ORIENTED_EDGE('',*,*,#518,.F.);
#655=ORIENTED_EDGE('',*,*,#520,.F.);
#656=ORIENTED_EDGE('',*,*,#521,.F.);
#657=ORIENTED_EDGE('',*,*,#522,.T.);
#658=ORIENTED_EDGE('',*,*,#523,.T.);
#659=ORIENTED_EDGE('',*,*,#524,.T.);
#660=ORIENTED_EDGE('',*,*,#516,.F.);
#661=ORIENTED_EDGE('',*,*,#525,.T.);
#662=ORIENTED_EDGE('',*,*,#524,.F.);
#663=ORIENTED_EDGE('',*,*,#526,.F.);
#664=ORIENTED_EDGE('',*,*,#527,.F.);
#665=ORIENTED_EDGE('',*,*,#513,.T.);
#666=ORIENTED_EDGE('',*,*,#528,.T.);
#667=ORIENTED_EDGE('',*,*,#529,.T.);
#668=ORIENTED_EDGE('',*,*,#522,.F.);
#669=ORIENTED_EDGE('',*,*,#530,.T.);
#670=ORIENTED_EDGE('',*,*,#529,.F.);
#671=ORIENTED_EDGE('',*,*,#531,.F.);
#672=ORIENTED_EDGE('',*,*,#508,.T.);
#673=ORIENTED_EDGE('',*,*,#514,.F.);
#674=ORIENTED_EDGE('',*,*,#527,.T.);
#675=ORIENTED_EDGE('',*,*,#530,.F.);
#676=ORIENTED_EDGE('',*,*,#521,.T.);
#677=ORIENTED_EDGE('',*,*,#525,.F.);
#678=ORIENTED_EDGE('',*,*,#515,.T.);
#679=ORIENTED_EDGE('',*,*,#519,.F.);
#680=ORIENTED_EDGE('',*,*,#532,.F.);
#681=ORIENTED_EDGE('',*,*,#532,.T.);
#682=ORIENTED_EDGE('',*,*,#533,.T.);
#683=ORIENTED_EDGE('',*,*,#534,.F.);
#684=ORIENTED_EDGE('',*,*,#533,.F.);
#685=ORIENTED_EDGE('',*,*,#535,.F.);
#686=ORIENTED_EDGE('',*,*,#536,.T.);
#687=ORIENTED_EDGE('',*,*,#537,.F.);
#688=ORIENTED_EDGE('',*,*,#536,.F.);
#689=ORIENTED_EDGE('',*,*,#535,.T.);
#690=ORIENTED_EDGE('',*,*,#538,.T.);
#691=ORIENTED_EDGE('',*,*,#539,.F.);
#692=ORIENTED_EDGE('',*,*,#540,.T.);
#693=ORIENTED_EDGE('',*,*,#541,.T.);
#694=ORIENTED_EDGE('',*,*,#540,.F.);
#695=ORIENTED_EDGE('',*,*,#541,.F.);
#696=ORIENTED_EDGE('',*,*,#542,.F.);
#697=ORIENTED_EDGE('',*,*,#538,.F.);
#698=ORIENTED_EDGE('',*,*,#543,.T.);
#699=ORIENTED_EDGE('',*,*,#544,.T.);
#700=ORIENTED_EDGE('',*,*,#543,.F.);
#701=ORIENTED_EDGE('',*,*,#544,.F.);
#702=ORIENTED_EDGE('',*,*,#545,.F.);
#703=ORIENTED_EDGE('',*,*,#542,.T.);
#704=ORIENTED_EDGE('',*,*,#546,.T.);
#705=ORIENTED_EDGE('',*,*,#547,.F.);
#706=ORIENTED_EDGE('',*,*,#546,.F.);
#707=ORIENTED_EDGE('',*,*,#545,.T.);
#708=ORIENTED_EDGE('',*,*,#548,.T.);
#709=ORIENTED_EDGE('',*,*,#549,.F.);
#710=ORIENTED_EDGE('',*,*,#548,.F.);
#711=ORIENTED_EDGE('',*,*,#550,.F.);
#712=ORIENTED_EDGE('',*,*,#551,.T.);
#713=ORIENTED_EDGE('',*,*,#552,.F.);
#714=ORIENTED_EDGE('',*,*,#551,.F.);
#715=ORIENTED_EDGE('',*,*,#553,.F.);
#716=ORIENTED_EDGE('',*,*,#554,.F.);
#717=ORIENTED_EDGE('',*,*,#555,.F.);
#718=ORIENTED_EDGE('',*,*,#556,.T.);
#719=ORIENTED_EDGE('',*,*,#557,.F.);
#720=ORIENTED_EDGE('',*,*,#556,.F.);
#721=ORIENTED_EDGE('',*,*,#558,.F.);
#722=ORIENTED_EDGE('',*,*,#559,.T.);
#723=ORIENTED_EDGE('',*,*,#560,.F.);
#724=ORIENTED_EDGE('',*,*,#559,.F.);
#725=ORIENTED_EDGE('',*,*,#561,.F.);
#726=ORIENTED_EDGE('',*,*,#562,.T.);
#727=ORIENTED_EDGE('',*,*,#563,.F.);
#728=ORIENTED_EDGE('',*,*,#562,.F.);
#729=ORIENTED_EDGE('',*,*,#564,.F.);
#730=ORIENTED_EDGE('',*,*,#565,.T.);
#731=ORIENTED_EDGE('',*,*,#566,.F.);
#732=ORIENTED_EDGE('',*,*,#565,.F.);
#733=ORIENTED_EDGE('',*,*,#567,.F.);
#734=ORIENTED_EDGE('',*,*,#568,.T.);
#735=ORIENTED_EDGE('',*,*,#569,.F.);
#736=ORIENTED_EDGE('',*,*,#568,.F.);
#737=ORIENTED_EDGE('',*,*,#570,.F.);
#738=ORIENTED_EDGE('',*,*,#571,.T.);
#739=ORIENTED_EDGE('',*,*,#572,.F.);
#740=ORIENTED_EDGE('',*,*,#571,.F.);
#741=ORIENTED_EDGE('',*,*,#573,.F.);
#742=ORIENTED_EDGE('',*,*,#574,.T.);
#743=ORIENTED_EDGE('',*,*,#575,.F.);
#744=ORIENTED_EDGE('',*,*,#574,.F.);
#745=ORIENTED_EDGE('',*,*,#576,.F.);
#746=ORIENTED_EDGE('',*,*,#554,.T.);
#747=ORIENTED_EDGE('',*,*,#577,.F.);
#748=ORIENTED_EDGE('',*,*,#578,.T.);
#749=ORIENTED_EDGE('',*,*,#579,.F.);
#750=ORIENTED_EDGE('',*,*,#578,.F.);
#751=ORIENTED_EDGE('',*,*,#580,.F.);
#752=ORIENTED_EDGE('',*,*,#581,.T.);
#753=ORIENTED_EDGE('',*,*,#582,.T.);
#754=ORIENTED_EDGE('',*,*,#581,.F.);
#755=ORIENTED_EDGE('',*,*,#582,.F.);
#756=ORIENTED_EDGE('',*,*,#583,.F.);
#757=ORIENTED_EDGE('',*,*,#584,.F.);
#758=ORIENTED_EDGE('',*,*,#585,.T.);
#759=ORIENTED_EDGE('',*,*,#586,.T.);
#760=ORIENTED_EDGE('',*,*,#585,.F.);
#761=ORIENTED_EDGE('',*,*,#586,.F.);
#762=ORIENTED_EDGE('',*,*,#587,.F.);
#763=ORIENTED_EDGE('',*,*,#588,.F.);
#764=ORIENTED_EDGE('',*,*,#589,.T.);
#765=ORIENTED_EDGE('',*,*,#590,.T.);
#766=ORIENTED_EDGE('',*,*,#589,.F.);
#767=ORIENTED_EDGE('',*,*,#590,.F.);
#768=ORIENTED_EDGE('',*,*,#591,.F.);
#769=ORIENTED_EDGE('',*,*,#592,.F.);
#770=ORIENTED_EDGE('',*,*,#593,.T.);
#771=ORIENTED_EDGE('',*,*,#594,.T.);
#772=ORIENTED_EDGE('',*,*,#593,.F.);
#773=ORIENTED_EDGE('',*,*,#594,.F.);
#774=ORIENTED_EDGE('',*,*,#595,.F.);
#775=ORIENTED_EDGE('',*,*,#595,.T.);
#776=ORIENTED_EDGE('',*,*,#596,.T.);
#777=ORIENTED_EDGE('',*,*,#597,.F.);
#778=ORIENTED_EDGE('',*,*,#596,.F.);
#779=ORIENTED_EDGE('',*,*,#583,.T.);
#780=ORIENTED_EDGE('',*,*,#598,.T.);
#781=ORIENTED_EDGE('',*,*,#599,.F.);
#782=ORIENTED_EDGE('',*,*,#598,.F.);
#783=ORIENTED_EDGE('',*,*,#587,.T.);
#784=ORIENTED_EDGE('',*,*,#600,.T.);
#785=ORIENTED_EDGE('',*,*,#601,.F.);
#786=ORIENTED_EDGE('',*,*,#600,.F.);
#787=ORIENTED_EDGE('',*,*,#591,.T.);
#788=ORIENTED_EDGE('',*,*,#602,.T.);
#789=ORIENTED_EDGE('',*,*,#603,.F.);
#790=ORIENTED_EDGE('',*,*,#602,.F.);
#791=ORIENTED_EDGE('',*,*,#604,.T.);
#792=ORIENTED_EDGE('',*,*,#605,.T.);
#793=ORIENTED_EDGE('',*,*,#606,.T.);
#794=ORIENTED_EDGE('',*,*,#607,.T.);
#795=ORIENTED_EDGE('',*,*,#607,.F.);
#796=ORIENTED_EDGE('',*,*,#608,.T.);
#797=ORIENTED_EDGE('',*,*,#609,.F.);
#798=ORIENTED_EDGE('',*,*,#610,.F.);
#799=ORIENTED_EDGE('',*,*,#606,.F.);
#800=ORIENTED_EDGE('',*,*,#611,.F.);
#801=ORIENTED_EDGE('',*,*,#612,.F.);
#802=ORIENTED_EDGE('',*,*,#613,.F.);
#803=ORIENTED_EDGE('',*,*,#614,.F.);
#804=ORIENTED_EDGE('',*,*,#615,.F.);
#805=ORIENTED_EDGE('',*,*,#616,.F.);
#806=ORIENTED_EDGE('',*,*,#617,.T.);
#807=ORIENTED_EDGE('',*,*,#618,.F.);
#808=ORIENTED_EDGE('',*,*,#619,.T.);
#809=ORIENTED_EDGE('',*,*,#620,.F.);
#810=ORIENTED_EDGE('',*,*,#608,.F.);
#811=ORIENTED_EDGE('',*,*,#547,.T.);
#812=ORIENTED_EDGE('',*,*,#549,.T.);
#813=ORIENTED_EDGE('',*,*,#603,.T.);
#814=ORIENTED_EDGE('',*,*,#601,.T.);
#815=ORIENTED_EDGE('',*,*,#599,.T.);
#816=ORIENTED_EDGE('',*,*,#597,.T.);
#817=ORIENTED_EDGE('',*,*,#579,.T.);
#818=ORIENTED_EDGE('',*,*,#553,.T.);
#819=ORIENTED_EDGE('',*,*,#557,.T.);
#820=ORIENTED_EDGE('',*,*,#560,.T.);
#821=ORIENTED_EDGE('',*,*,#563,.T.);
#822=ORIENTED_EDGE('',*,*,#566,.T.);
#823=ORIENTED_EDGE('',*,*,#569,.T.);
#824=ORIENTED_EDGE('',*,*,#572,.T.);
#825=ORIENTED_EDGE('',*,*,#575,.T.);
#826=ORIENTED_EDGE('',*,*,#552,.T.);
#827=ORIENTED_EDGE('',*,*,#534,.T.);
#828=ORIENTED_EDGE('',*,*,#621,.T.);
#829=ORIENTED_EDGE('',*,*,#622,.T.);
#830=ORIENTED_EDGE('',*,*,#612,.T.);
#831=ORIENTED_EDGE('',*,*,#623,.T.);
#832=ORIENTED_EDGE('',*,*,#622,.F.);
#833=ORIENTED_EDGE('',*,*,#624,.F.);
#834=ORIENTED_EDGE('',*,*,#625,.F.);
#835=ORIENTED_EDGE('',*,*,#613,.T.);
#836=ORIENTED_EDGE('',*,*,#626,.T.);
#837=ORIENTED_EDGE('',*,*,#627,.T.);
#838=ORIENTED_EDGE('',*,*,#614,.T.);
#839=ORIENTED_EDGE('',*,*,#625,.T.);
#840=ORIENTED_EDGE('',*,*,#628,.T.);
#841=ORIENTED_EDGE('',*,*,#629,.T.);
#842=ORIENTED_EDGE('',*,*,#616,.T.);
#843=ORIENTED_EDGE('',*,*,#630,.T.);
#844=ORIENTED_EDGE('',*,*,#629,.F.);
#845=ORIENTED_EDGE('',*,*,#631,.F.);
#846=ORIENTED_EDGE('',*,*,#632,.F.);
#847=ORIENTED_EDGE('',*,*,#617,.F.);
#848=ORIENTED_EDGE('',*,*,#633,.T.);
#849=ORIENTED_EDGE('',*,*,#634,.T.);
#850=ORIENTED_EDGE('',*,*,#618,.T.);
#851=ORIENTED_EDGE('',*,*,#632,.T.);
#852=ORIENTED_EDGE('',*,*,#635,.T.);
#853=ORIENTED_EDGE('',*,*,#609,.T.);
#854=ORIENTED_EDGE('',*,*,#620,.T.);
#855=ORIENTED_EDGE('',*,*,#636,.T.);
#856=ORIENTED_EDGE('',*,*,#634,.F.);
#857=ORIENTED_EDGE('',*,*,#637,.F.);
#858=ORIENTED_EDGE('',*,*,#636,.F.);
#859=ORIENTED_EDGE('',*,*,#619,.F.);
#860=ORIENTED_EDGE('',*,*,#605,.F.);
#861=ORIENTED_EDGE('',*,*,#638,.F.);
#862=ORIENTED_EDGE('',*,*,#623,.F.);
#863=ORIENTED_EDGE('',*,*,#611,.T.);
#864=ORIENTED_EDGE('',*,*,#627,.F.);
#865=ORIENTED_EDGE('',*,*,#639,.F.);
#866=ORIENTED_EDGE('',*,*,#630,.F.);
#867=ORIENTED_EDGE('',*,*,#615,.T.);
#868=ORIENTED_EDGE('',*,*,#604,.F.);
#869=ORIENTED_EDGE('',*,*,#610,.T.);
#870=ORIENTED_EDGE('',*,*,#635,.F.);
#871=ORIENTED_EDGE('',*,*,#637,.T.);
#872=ORIENTED_EDGE('',*,*,#633,.F.);
#873=ORIENTED_EDGE('',*,*,#631,.T.);
#874=ORIENTED_EDGE('',*,*,#628,.F.);
#875=ORIENTED_EDGE('',*,*,#639,.T.);
#876=ORIENTED_EDGE('',*,*,#626,.F.);
#877=ORIENTED_EDGE('',*,*,#624,.T.);
#878=ORIENTED_EDGE('',*,*,#621,.F.);
#879=ORIENTED_EDGE('',*,*,#638,.T.);
#880=ORIENTED_EDGE('',*,*,#539,.T.);
#881=ORIENTED_EDGE('',*,*,#550,.T.);
#882=ORIENTED_EDGE('',*,*,#555,.T.);
#883=ORIENTED_EDGE('',*,*,#576,.T.);
#884=ORIENTED_EDGE('',*,*,#573,.T.);
#885=ORIENTED_EDGE('',*,*,#570,.T.);
#886=ORIENTED_EDGE('',*,*,#567,.T.);
#887=ORIENTED_EDGE('',*,*,#564,.T.);
#888=ORIENTED_EDGE('',*,*,#561,.T.);
#889=ORIENTED_EDGE('',*,*,#558,.T.);
#890=ORIENTED_EDGE('',*,*,#577,.T.);
#891=ORIENTED_EDGE('',*,*,#592,.T.);
#892=ORIENTED_EDGE('',*,*,#588,.T.);
#893=ORIENTED_EDGE('',*,*,#584,.T.);
#894=ORIENTED_EDGE('',*,*,#580,.T.);
#895=ORIENTED_EDGE('',*,*,#537,.T.);
#896=ORIENTED_EDGE('',*,*,#520,.T.);
#897=ORIENTED_EDGE('',*,*,#517,.F.);
#898=ORIENTED_EDGE('',*,*,#526,.T.);
#899=ORIENTED_EDGE('',*,*,#523,.F.);
#900=ORIENTED_EDGE('',*,*,#531,.T.);
#901=ORIENTED_EDGE('',*,*,#528,.F.);
#902=ORIENTED_EDGE('',*,*,#512,.T.);
#903=ORIENTED_EDGE('',*,*,#510,.F.);
#904=CYLINDRICAL_SURFACE('',#1000,3.4);
#905=CYLINDRICAL_SURFACE('',#1004,3.4);
#906=CYLINDRICAL_SURFACE('',#1008,3.4);
#907=CYLINDRICAL_SURFACE('',#1012,3.4);
#908=CYLINDRICAL_SURFACE('',#1018,1.05);
#909=CYLINDRICAL_SURFACE('',#1020,6.5);
#910=CYLINDRICAL_SURFACE('',#1025,7.8);
#911=CYLINDRICAL_SURFACE('',#1030,5.);
#912=CYLINDRICAL_SURFACE('',#1034,1.05);
#913=CYLINDRICAL_SURFACE('',#1036,1.05);
#914=CYLINDRICAL_SURFACE('',#1038,1.05);
#915=CYLINDRICAL_SURFACE('',#1049,1.05);
#916=CYLINDRICAL_SURFACE('',#1052,2.);
#917=CYLINDRICAL_SURFACE('',#1057,2.);
#918=CYLINDRICAL_SURFACE('',#1062,2.);
#919=CYLINDRICAL_SURFACE('',#1067,2.);
#920=CYLINDRICAL_SURFACE('',#1072,1.05);
#921=CYLINDRICAL_SURFACE('',#1074,1.05);
#922=CYLINDRICAL_SURFACE('',#1076,1.05);
#923=CYLINDRICAL_SURFACE('',#1078,1.05);
#924=CYLINDRICAL_SURFACE('',#1080,5.);
#925=CYLINDRICAL_SURFACE('',#1091,5.);
#926=CYLINDRICAL_SURFACE('',#1094,5.);
#927=CYLINDRICAL_SURFACE('',#1096,5.);
#928=CYLINDRICAL_SURFACE('',#1099,20.);
#929=CYLINDRICAL_SURFACE('',#1101,20.);
#930=CYLINDRICAL_SURFACE('',#1103,128.504500001595);
#931=ADVANCED_FACE('',(#74),#904,.F.);
#932=ADVANCED_FACE('',(#75),#47,.F.);
#933=ADVANCED_FACE('',(#76),#905,.F.);
#934=ADVANCED_FACE('',(#77),#48,.F.);
#935=ADVANCED_FACE('',(#78),#906,.F.);
#936=ADVANCED_FACE('',(#79),#49,.F.);
#937=ADVANCED_FACE('',(#80),#907,.F.);
#938=ADVANCED_FACE('',(#81),#50,.F.);
#939=ADVANCED_FACE('',(#82,#19),#51,.T.);
#940=ADVANCED_FACE('',(#83),#908,.F.);
#941=ADVANCED_FACE('',(#84),#909,.T.);
#942=ADVANCED_FACE('',(#85,#20),#52,.T.);
#943=ADVANCED_FACE('',(#86),#910,.F.);
#944=ADVANCED_FACE('',(#87,#21),#53,.T.);
#945=ADVANCED_FACE('',(#88),#911,.F.);
#946=ADVANCED_FACE('',(#89,#22),#54,.T.);
#947=ADVANCED_FACE('',(#90),#912,.F.);
#948=ADVANCED_FACE('',(#91),#913,.F.);
#949=ADVANCED_FACE('',(#92),#914,.F.);
#950=ADVANCED_FACE('',(#93),#55,.F.);
#951=ADVANCED_FACE('',(#94),#56,.F.);
#952=ADVANCED_FACE('',(#95),#57,.F.);
#953=ADVANCED_FACE('',(#96),#58,.F.);
#954=ADVANCED_FACE('',(#97),#59,.F.);
#955=ADVANCED_FACE('',(#98),#60,.F.);
#956=ADVANCED_FACE('',(#99),#61,.F.);
#957=ADVANCED_FACE('',(#100),#62,.F.);
#958=ADVANCED_FACE('',(#101),#915,.F.);
#959=ADVANCED_FACE('',(#102),#916,.F.);
#960=ADVANCED_FACE('',(#103,#23),#63,.T.);
#961=ADVANCED_FACE('',(#104),#917,.F.);
#962=ADVANCED_FACE('',(#105,#24),#64,.T.);
#963=ADVANCED_FACE('',(#106),#918,.F.);
#964=ADVANCED_FACE('',(#107,#25),#65,.T.);
#965=ADVANCED_FACE('',(#108),#919,.F.);
#966=ADVANCED_FACE('',(#109,#26),#66,.T.);
#967=ADVANCED_FACE('',(#110),#920,.F.);
#968=ADVANCED_FACE('',(#111),#921,.F.);
#969=ADVANCED_FACE('',(#112),#922,.F.);
#970=ADVANCED_FACE('',(#113),#923,.F.);
#971=ADVANCED_FACE('',(#114),#924,.T.);
#972=ADVANCED_FACE('',(#115),#67,.T.);
#973=ADVANCED_FACE('',(#116,#27,#28,#29,#30,#31,#32,#33,#34,#35,#36),#68,
 .F.);
#974=ADVANCED_FACE('',(#117),#925,.T.);
#975=ADVANCED_FACE('',(#118),#69,.T.);
#976=ADVANCED_FACE('',(#119),#926,.T.);
#977=ADVANCED_FACE('',(#120),#927,.T.);
#978=ADVANCED_FACE('',(#121),#70,.T.);
#979=ADVANCED_FACE('',(#122),#928,.T.);
#980=ADVANCED_FACE('',(#123),#929,.T.);
#981=ADVANCED_FACE('',(#124),#930,.F.);
#982=ADVANCED_FACE('',(#125),#71,.T.);
#983=ADVANCED_FACE('',(#126),#72,.T.);
#984=ADVANCED_FACE('',(#127,#37,#38,#39,#40,#41,#42,#43,#44,#45,#46),#73,
 .T.);
#985=CLOSED_SHELL('',(#931,#932,#933,#934,#935,#936,#937,#938,#939,#940,
#941,#942,#943,#944,#945,#946,#947,#948,#949,#950,#951,#952,#953,#954,#955,
#956,#957,#958,#959,#960,#961,#962,#963,#964,#965,#966,#967,#968,#969,#970,
#971,#972,#973,#974,#975,#976,#977,#978,#979,#980,#981,#982,#983,#984));
#986=DERIVED_UNIT_ELEMENT(#988,1.);
#987=DERIVED_UNIT_ELEMENT(#1693,-3.);
#988=(
MASS_UNIT()
NAMED_UNIT(*)
SI_UNIT(.KILO.,.GRAM.)
);
#989=DERIVED_UNIT((#986,#987));
#990=MEASURE_REPRESENTATION_ITEM('density measure',
POSITIVE_RATIO_MEASURE(7850.),#989);
#991=PROPERTY_DEFINITION_REPRESENTATION(#996,#993);
#992=PROPERTY_DEFINITION_REPRESENTATION(#997,#994);
#993=REPRESENTATION('material name',(#995),#1690);
#994=REPRESENTATION('density',(#990),#1690);
#995=DESCRIPTIVE_REPRESENTATION_ITEM('Steel','Steel');
#996=PROPERTY_DEFINITION('material property','material name',#1705);
#997=PROPERTY_DEFINITION('material property','density of part',#1705);
#998=AXIS2_PLACEMENT_3D('',#1409,#1109,#1110);
#999=AXIS2_PLACEMENT_3D('',#1410,#1111,#1112);
#1000=AXIS2_PLACEMENT_3D('',#1411,#1113,#1114);
#1001=AXIS2_PLACEMENT_3D('',#1414,#1115,#1116);
#1002=AXIS2_PLACEMENT_3D('',#1418,#1118,#1119);
#1003=AXIS2_PLACEMENT_3D('',#1420,#1121,#1122);
#1004=AXIS2_PLACEMENT_3D('',#1426,#1126,#1127);
#1005=AXIS2_PLACEMENT_3D('',#1429,#1128,#1129);
#1006=AXIS2_PLACEMENT_3D('',#1433,#1131,#1132);
#1007=AXIS2_PLACEMENT_3D('',#1435,#1134,#1135);
#1008=AXIS2_PLACEMENT_3D('',#1438,#1138,#1139);
#1009=AXIS2_PLACEMENT_3D('',#1441,#1140,#1141);
#1010=AXIS2_PLACEMENT_3D('',#1445,#1143,#1144);
#1011=AXIS2_PLACEMENT_3D('',#1447,#1146,#1147);
#1012=AXIS2_PLACEMENT_3D('',#1450,#1150,#1151);
#1013=AXIS2_PLACEMENT_3D('',#1452,#1152,#1153);
#1014=AXIS2_PLACEMENT_3D('',#1454,#1154,#1155);
#1015=AXIS2_PLACEMENT_3D('',#1456,#1157,#1158);
#1016=AXIS2_PLACEMENT_3D('',#1459,#1161,#1162);
#1017=AXIS2_PLACEMENT_3D('',#1461,#1163,#1164);
#1018=AXIS2_PLACEMENT_3D('',#1462,#1165,#1166);
#1019=AXIS2_PLACEMENT_3D('',#1465,#1168,#1169);
#1020=AXIS2_PLACEMENT_3D('',#1466,#1170,#1171);
#1021=AXIS2_PLACEMENT_3D('',#1468,#1172,#1173);
#1022=AXIS2_PLACEMENT_3D('',#1471,#1175,#1176);
#1023=AXIS2_PLACEMENT_3D('',#1472,#1177,#1178);
#1024=AXIS2_PLACEMENT_3D('',#1474,#1179,#1180);
#1025=AXIS2_PLACEMENT_3D('',#1475,#1181,#1182);
#1026=AXIS2_PLACEMENT_3D('',#1477,#1183,#1184);
#1027=AXIS2_PLACEMENT_3D('',#1480,#1186,#1187);
#1028=AXIS2_PLACEMENT_3D('',#1481,#1188,#1189);
#1029=AXIS2_PLACEMENT_3D('',#1483,#1190,#1191);
#1030=AXIS2_PLACEMENT_3D('',#1484,#1192,#1193);
#1031=AXIS2_PLACEMENT_3D('',#1487,#1195,#1196);
#1032=AXIS2_PLACEMENT_3D('',#1488,#1197,#1198);
#1033=AXIS2_PLACEMENT_3D('',#1490,#1199,#1200);
#1034=AXIS2_PLACEMENT_3D('',#1491,#1201,#1202);
#1035=AXIS2_PLACEMENT_3D('',#1494,#1204,#1205);
#1036=AXIS2_PLACEMENT_3D('',#1495,#1206,#1207);
#1037=AXIS2_PLACEMENT_3D('',#1498,#1209,#1210);
#1038=AXIS2_PLACEMENT_3D('',#1499,#1211,#1212);
#1039=AXIS2_PLACEMENT_3D('',#1501,#1213,#1214);
#1040=AXIS2_PLACEMENT_3D('',#1504,#1216,#1217);
#1041=AXIS2_PLACEMENT_3D('',#1505,#1218,#1219);
#1042=AXIS2_PLACEMENT_3D('',#1514,#1224,#1225);
#1043=AXIS2_PLACEMENT_3D('',#1520,#1229,#1230);
#1044=AXIS2_PLACEMENT_3D('',#1526,#1234,#1235);
#1045=AXIS2_PLACEMENT_3D('',#1532,#1239,#1240);
#1046=AXIS2_PLACEMENT_3D('',#1538,#1244,#1245);
#1047=AXIS2_PLACEMENT_3D('',#1544,#1249,#1250);
#1048=AXIS2_PLACEMENT_3D('',#1550,#1254,#1255);
#1049=AXIS2_PLACEMENT_3D('',#1553,#1258,#1259);
#1050=AXIS2_PLACEMENT_3D('',#1555,#1260,#1261);
#1051=AXIS2_PLACEMENT_3D('',#1558,#1263,#1264);
#1052=AXIS2_PLACEMENT_3D('',#1559,#1265,#1266);
#1053=AXIS2_PLACEMENT_3D('',#1561,#1267,#1268);
#1054=AXIS2_PLACEMENT_3D('',#1564,#1270,#1271);
#1055=AXIS2_PLACEMENT_3D('',#1565,#1272,#1273);
#1056=AXIS2_PLACEMENT_3D('',#1567,#1274,#1275);
#1057=AXIS2_PLACEMENT_3D('',#1568,#1276,#1277);
#1058=AXIS2_PLACEMENT_3D('',#1570,#1278,#1279);
#1059=AXIS2_PLACEMENT_3D('',#1573,#1281,#1282);
#1060=AXIS2_PLACEMENT_3D('',#1574,#1283,#1284);
#1061=AXIS2_PLACEMENT_3D('',#1576,#1285,#1286);
#1062=AXIS2_PLACEMENT_3D('',#1577,#1287,#1288);
#1063=AXIS2_PLACEMENT_3D('',#1579,#1289,#1290);
#1064=AXIS2_PLACEMENT_3D('',#1582,#1292,#1293);
#1065=AXIS2_PLACEMENT_3D('',#1583,#1294,#1295);
#1066=AXIS2_PLACEMENT_3D('',#1585,#1296,#1297);
#1067=AXIS2_PLACEMENT_3D('',#1586,#1298,#1299);
#1068=AXIS2_PLACEMENT_3D('',#1588,#1300,#1301);
#1069=AXIS2_PLACEMENT_3D('',#1591,#1303,#1304);
#1070=AXIS2_PLACEMENT_3D('',#1592,#1305,#1306);
#1071=AXIS2_PLACEMENT_3D('',#1594,#1307,#1308);
#1072=AXIS2_PLACEMENT_3D('',#1595,#1309,#1310);
#1073=AXIS2_PLACEMENT_3D('',#1598,#1312,#1313);
#1074=AXIS2_PLACEMENT_3D('',#1599,#1314,#1315);
#1075=AXIS2_PLACEMENT_3D('',#1602,#1317,#1318);
#1076=AXIS2_PLACEMENT_3D('',#1603,#1319,#1320);
#1077=AXIS2_PLACEMENT_3D('',#1606,#1322,#1323);
#1078=AXIS2_PLACEMENT_3D('',#1607,#1324,#1325);
#1079=AXIS2_PLACEMENT_3D('',#1610,#1327,#1328);
#1080=AXIS2_PLACEMENT_3D('',#1611,#1329,#1330);
#1081=AXIS2_PLACEMENT_3D('',#1614,#1331,#1332);
#1082=AXIS2_PLACEMENT_3D('',#1618,#1334,#1335);
#1083=AXIS2_PLACEMENT_3D('',#1620,#1337,#1338);
#1084=AXIS2_PLACEMENT_3D('',#1626,#1342,#1343);
#1085=AXIS2_PLACEMENT_3D('',#1630,#1345,#1346);
#1086=AXIS2_PLACEMENT_3D('',#1634,#1348,#1349);
#1087=AXIS2_PLACEMENT_3D('',#1638,#1351,#1352);
#1088=AXIS2_PLACEMENT_3D('',#1642,#1354,#1355);
#1089=AXIS2_PLACEMENT_3D('',#1644,#1356,#1357);
#1090=AXIS2_PLACEMENT_3D('',#1645,#1358,#1359);
#1091=AXIS2_PLACEMENT_3D('',#1646,#1360,#1361);
#1092=AXIS2_PLACEMENT_3D('',#1649,#1362,#1363);
#1093=AXIS2_PLACEMENT_3D('',#1652,#1366,#1367);
#1094=AXIS2_PLACEMENT_3D('',#1656,#1370,#1371);
#1095=AXIS2_PLACEMENT_3D('',#1658,#1372,#1373);
#1096=AXIS2_PLACEMENT_3D('',#1660,#1375,#1376);
#1097=AXIS2_PLACEMENT_3D('',#1663,#1377,#1378);
#1098=AXIS2_PLACEMENT_3D('',#1666,#1381,#1382);
#1099=AXIS2_PLACEMENT_3D('',#1670,#1385,#1386);
#1100=AXIS2_PLACEMENT_3D('',#1672,#1387,#1388);
#1101=AXIS2_PLACEMENT_3D('',#1674,#1390,#1391);
#1102=AXIS2_PLACEMENT_3D('',#1676,#1392,#1393);
#1103=AXIS2_PLACEMENT_3D('',#1678,#1395,#1396);
#1104=AXIS2_PLACEMENT_3D('',#1679,#1397,#1398);
#1105=AXIS2_PLACEMENT_3D('',#1680,#1399,#1400);
#1106=AXIS2_PLACEMENT_3D('',#1682,#1402,#1403);
#1107=AXIS2_PLACEMENT_3D('',#1684,#1405,#1406);
#1108=AXIS2_PLACEMENT_3D('',#1685,#1407,#1408);
#1109=DIRECTION('axis',(0.,0.,1.));
#1110=DIRECTION('refdir',(1.,0.,0.));
#1111=DIRECTION('axis',(0.,0.,1.));
#1112=DIRECTION('refdir',(1.,0.,0.));
#1113=DIRECTION('center_axis',(0.,-1.7106907672478E-15,-1.));
#1114=DIRECTION('ref_axis',(0.707106781186548,0.707106781186548,0.));
#1115=DIRECTION('center_axis',(-1.00929365874844E-15,1.7106907672478E-15,
1.));
#1116=DIRECTION('ref_axis',(0.707106781186548,0.707106781186548,0.));
#1117=DIRECTION('',(0.,1.7106907672478E-15,1.));
#1118=DIRECTION('center_axis',(1.41166323996136E-27,1.98068972494406E-15,
1.));
#1119=DIRECTION('ref_axis',(0.707106781186548,0.707106781186548,0.));
#1120=DIRECTION('',(0.,-1.7106907672478E-15,-1.));
#1121=DIRECTION('center_axis',(1.72658934346271E-30,1.,-1.7106907672478E-15));
#1122=DIRECTION('ref_axis',(1.,0.,1.00929365874844E-15));
#1123=DIRECTION('',(1.,-1.72658934346512E-30,-1.41166323996136E-27));
#1124=DIRECTION('',(0.,1.7106907672478E-15,1.));
#1125=DIRECTION('',(1.,0.,1.00929365874844E-15));
#1126=DIRECTION('center_axis',(0.,-1.7106907672478E-15,-1.));
#1127=DIRECTION('ref_axis',(0.707106781186548,-0.707106781186548,3.694335196903E-15));
#1128=DIRECTION('center_axis',(-1.00929365874844E-15,1.7106907672478E-15,
1.));
#1129=DIRECTION('ref_axis',(0.707106781186548,-0.707106781186548,3.694335196903E-15));
#1130=DIRECTION('',(0.,1.7106907672478E-15,1.));
#1131=DIRECTION('center_axis',(1.41166323996136E-27,1.98068972494406E-15,
1.));
#1132=DIRECTION('ref_axis',(0.707106781186548,-0.707106781186548,3.694335196903E-15));
#1133=DIRECTION('',(0.,-1.7106907672478E-15,-1.));
#1134=DIRECTION('center_axis',(1.,-1.72658934346271E-30,2.9536604486901E-45));
#1135=DIRECTION('ref_axis',(-1.72658934346271E-30,-1.,1.7106907672478E-15));
#1136=DIRECTION('',(-1.72658934346271E-30,-1.,1.7106907672478E-15));
#1137=DIRECTION('',(-1.72658934346271E-30,-1.,1.98068972494406E-15));
#1138=DIRECTION('center_axis',(0.,-1.7106907672478E-15,-1.));
#1139=DIRECTION('ref_axis',(-0.707106781186548,-0.707106781186548,0.));
#1140=DIRECTION('center_axis',(-1.00929365874844E-15,1.7106907672478E-15,
1.));
#1141=DIRECTION('ref_axis',(-0.707106781186548,-0.707106781186548,0.));
#1142=DIRECTION('',(0.,1.7106907672478E-15,1.));
#1143=DIRECTION('center_axis',(1.41166323996136E-27,1.98068972494406E-15,
1.));
#1144=DIRECTION('ref_axis',(-0.707106781186548,-0.707106781186548,0.));
#1145=DIRECTION('',(0.,-1.7106907672478E-15,-1.));
#1146=DIRECTION('center_axis',(-1.72658934346271E-30,-1.,1.7106907672478E-15));
#1147=DIRECTION('ref_axis',(-1.,0.,-1.00929365874844E-15));
#1148=DIRECTION('',(-1.,0.,-1.00929365874844E-15));
#1149=DIRECTION('',(-1.,1.72658934346512E-30,1.41166323996136E-27));
#1150=DIRECTION('center_axis',(0.,-1.7106907672478E-15,-1.));
#1151=DIRECTION('ref_axis',(-0.707106781186548,0.707106781186548,0.));
#1152=DIRECTION('center_axis',(-1.00929365874844E-15,1.7106907672478E-15,
1.));
#1153=DIRECTION('ref_axis',(-0.707106781186548,0.707106781186548,0.));
#1154=DIRECTION('center_axis',(1.41166323996136E-27,1.98068972494406E-15,
1.));
#1155=DIRECTION('ref_axis',(-0.707106781186548,0.707106781186548,0.));
#1156=DIRECTION('',(0.,-1.7106907672478E-15,-1.));
#1157=DIRECTION('center_axis',(-1.,1.72658934346271E-30,-2.9536604486901E-45));
#1158=DIRECTION('ref_axis',(1.72658934346271E-30,1.,-1.7106907672478E-15));
#1159=DIRECTION('',(1.72658934346271E-30,1.,-1.7106907672478E-15));
#1160=DIRECTION('',(1.72658934346271E-30,1.,-1.98068972494406E-15));
#1161=DIRECTION('center_axis',(-1.00929365874844E-15,1.7106907672478E-15,
1.));
#1162=DIRECTION('ref_axis',(-1.,0.,-1.00929365874844E-15));
#1163=DIRECTION('center_axis',(-1.00929365874844E-15,1.7106907672478E-15,
1.));
#1164=DIRECTION('ref_axis',(-1.,1.72658934346266E-30,0.));
#1165=DIRECTION('center_axis',(0.,-1.71069076724775E-15,-1.));
#1166=DIRECTION('ref_axis',(-1.,1.72658934346266E-30,0.));
#1167=DIRECTION('',(0.,-1.71069076724775E-15,-1.));
#1168=DIRECTION('center_axis',(1.41166323996136E-27,1.98068972494406E-15,
1.));
#1169=DIRECTION('ref_axis',(-1.,1.72658934346266E-30,0.));
#1170=DIRECTION('center_axis',(0.,0.,1.));
#1171=DIRECTION('ref_axis',(-1.,0.,0.));
#1172=DIRECTION('center_axis',(-1.00929365874844E-15,1.7106907672478E-15,
1.));
#1173=DIRECTION('ref_axis',(-1.,0.,-1.00929365874844E-15));
#1174=DIRECTION('',(0.,0.,-1.));
#1175=DIRECTION('center_axis',(-1.41166323996136E-27,-1.98068972494406E-15,
-1.));
#1176=DIRECTION('ref_axis',(-1.,0.,0.));
#1177=DIRECTION('center_axis',(-1.00929365874844E-15,1.7106907672478E-15,
1.));
#1178=DIRECTION('ref_axis',(-1.,0.,-1.00929365874844E-15));
#1179=DIRECTION('center_axis',(1.00929365874844E-15,-1.7106907672478E-15,
-1.));
#1180=DIRECTION('ref_axis',(-1.,0.,-1.00929365874844E-15));
#1181=DIRECTION('center_axis',(0.,0.,-1.));
#1182=DIRECTION('ref_axis',(-1.,0.,0.));
#1183=DIRECTION('center_axis',(-1.41166323996136E-27,-1.98068972494406E-15,
-1.));
#1184=DIRECTION('ref_axis',(-1.,0.,0.));
#1185=DIRECTION('',(0.,0.,-1.));
#1186=DIRECTION('center_axis',(1.00929365874844E-15,-1.7106907672478E-15,
-1.));
#1187=DIRECTION('ref_axis',(-1.,0.,-1.00929365874844E-15));
#1188=DIRECTION('center_axis',(-1.00929365874844E-15,1.7106907672478E-15,
1.));
#1189=DIRECTION('ref_axis',(-1.,0.,-1.00929365874844E-15));
#1190=DIRECTION('center_axis',(-1.00929365874844E-15,1.7106907672478E-15,
1.));
#1191=DIRECTION('ref_axis',(-1.,2.32839700478063E-30,0.));
#1192=DIRECTION('center_axis',(0.,0.,-1.));
#1193=DIRECTION('ref_axis',(-1.,0.,0.));
#1194=DIRECTION('',(0.,0.,-1.));
#1195=DIRECTION('center_axis',(1.00929365874844E-15,-1.7106907672478E-15,
-1.));
#1196=DIRECTION('ref_axis',(-1.,0.,-1.00929365874844E-15));
#1197=DIRECTION('center_axis',(-1.00929365874844E-15,1.7106907672478E-15,
1.));
#1198=DIRECTION('ref_axis',(-1.,0.,-1.00929365874844E-15));
#1199=DIRECTION('center_axis',(-1.00929365874844E-15,1.7106907672478E-15,
1.));
#1200=DIRECTION('ref_axis',(-1.,-3.32628143544555E-31,-1.15347846714301E-15));
#1201=DIRECTION('center_axis',(0.,-2.30695693428602E-15,-1.));
#1202=DIRECTION('ref_axis',(-1.,2.32839700478063E-30,0.));
#1203=DIRECTION('',(0.,-2.30695693428602E-15,-1.));
#1204=DIRECTION('center_axis',(1.41166323996136E-27,1.98068972494406E-15,
1.));
#1205=DIRECTION('ref_axis',(-1.,2.32839700478063E-30,0.));
#1206=DIRECTION('center_axis',(1.15347846714301E-15,-2.30695693428602E-15,
-1.));
#1207=DIRECTION('ref_axis',(-1.,-3.32628143544555E-31,-1.15347846714301E-15));
#1208=DIRECTION('',(1.15347846714301E-15,-2.30695693428602E-15,-1.));
#1209=DIRECTION('center_axis',(1.41166323996136E-27,1.98068972494406E-15,
1.));
#1210=DIRECTION('ref_axis',(-1.,-3.32628143544555E-31,-1.15347846714301E-15));
#1211=DIRECTION('center_axis',(1.153478467143E-15,-2.306956934286E-15,-1.));
#1212=DIRECTION('ref_axis',(-1.,-3.32628143544527E-31,-1.153478467143E-15));
#1213=DIRECTION('center_axis',(-1.41166323996136E-27,-1.98068972494406E-15,
-1.));
#1214=DIRECTION('ref_axis',(-1.,-3.32628143544527E-31,-1.153478467143E-15));
#1215=DIRECTION('',(1.153478467143E-15,-2.306956934286E-15,-1.));
#1216=DIRECTION('center_axis',(1.41166323996136E-27,1.98068972494406E-15,
1.));
#1217=DIRECTION('ref_axis',(-1.,-3.32628143544527E-31,-1.153478467143E-15));
#1218=DIRECTION('center_axis',(-1.,1.72658934346271E-30,-3.98316725856561E-45));
#1219=DIRECTION('ref_axis',(1.72658934346271E-30,1.,-1.7106907672478E-15));
#1220=DIRECTION('',(-1.72658934346271E-30,-1.,1.98068972494406E-15));
#1221=DIRECTION('',(0.,-2.306956934286E-15,-1.));
#1222=DIRECTION('',(1.72658934346271E-30,1.,-1.98068972494406E-15));
#1223=DIRECTION('',(0.,-2.306956934286E-15,-1.));
#1224=DIRECTION('center_axis',(-2.3283970047806E-30,-1.,2.306956934286E-15));
#1225=DIRECTION('ref_axis',(-1.,0.,-1.00929365874844E-15));
#1226=DIRECTION('',(1.,-2.32839700478385E-30,-1.41166323996136E-27));
#1227=DIRECTION('',(-1.,2.32839700478385E-30,1.41166323996136E-27));
#1228=DIRECTION('',(0.,-2.306956934286E-15,-1.));
#1229=DIRECTION('center_axis',(1.,-1.72658934346271E-30,3.98316725856561E-45));
#1230=DIRECTION('ref_axis',(-1.72658934346271E-30,-1.,1.7106907672478E-15));
#1231=DIRECTION('',(1.72658934346271E-30,1.,-1.98068972494406E-15));
#1232=DIRECTION('',(-1.72658934346271E-30,-1.,1.98068972494406E-15));
#1233=DIRECTION('',(0.,-2.306956934286E-15,-1.));
#1234=DIRECTION('center_axis',(-2.3283970047806E-30,-1.,2.306956934286E-15));
#1235=DIRECTION('ref_axis',(-1.,0.,-1.00929365874844E-15));
#1236=DIRECTION('',(1.,-2.32839700478385E-30,-1.41166323996136E-27));
#1237=DIRECTION('',(-1.,2.32839700478385E-30,1.41166323996136E-27));
#1238=DIRECTION('',(0.,-2.306956934286E-15,-1.));
#1239=DIRECTION('center_axis',(1.,-1.61486985400023E-15,3.72543520765525E-30));
#1240=DIRECTION('ref_axis',(-1.61486985400023E-15,-1.,1.7106907672478E-15));
#1241=DIRECTION('',(1.61486985400023E-15,1.,-1.98068972494406E-15));
#1242=DIRECTION('',(-1.61486985400023E-15,-1.,1.98068972494406E-15));
#1243=DIRECTION('',(0.,-2.306956934286E-15,-1.));
#1244=DIRECTION('center_axis',(2.3283970047806E-30,1.,-2.306956934286E-15));
#1245=DIRECTION('ref_axis',(1.,0.,1.00929365874844E-15));
#1246=DIRECTION('',(-1.,2.32839700478385E-30,1.41166323996136E-27));
#1247=DIRECTION('',(1.,-2.32839700478385E-30,-1.41166323996136E-27));
#1248=DIRECTION('',(0.,-2.306956934286E-15,-1.));
#1249=DIRECTION('center_axis',(1.,-1.72658934346271E-30,3.98316725856561E-45));
#1250=DIRECTION('ref_axis',(-1.72658934346271E-30,-1.,1.7106907672478E-15));
#1251=DIRECTION('',(1.72658934346271E-30,1.,-1.98068972494406E-15));
#1252=DIRECTION('',(-1.72658934346271E-30,-1.,1.98068972494406E-15));
#1253=DIRECTION('',(0.,-2.306956934286E-15,-1.));
#1254=DIRECTION('center_axis',(2.3283970047806E-30,1.,-2.306956934286E-15));
#1255=DIRECTION('ref_axis',(1.,0.,1.00929365874844E-15));
#1256=DIRECTION('',(-1.,2.32839700478385E-30,1.41166323996136E-27));
#1257=DIRECTION('',(1.,-2.32839700478385E-30,-1.41166323996136E-27));
#1258=DIRECTION('center_axis',(0.,-2.306956934286E-15,-1.));
#1259=DIRECTION('ref_axis',(-1.,2.3283970047806E-30,0.));
#1260=DIRECTION('center_axis',(-1.41166323996136E-27,-1.98068972494406E-15,
-1.));
#1261=DIRECTION('ref_axis',(-1.,2.3283970047806E-30,0.));
#1262=DIRECTION('',(0.,-2.306956934286E-15,-1.));
#1263=DIRECTION('center_axis',(1.41166323996136E-27,1.98068972494406E-15,
1.));
#1264=DIRECTION('ref_axis',(-1.,2.3283970047806E-30,0.));
#1265=DIRECTION('center_axis',(0.,0.,-1.));
#1266=DIRECTION('ref_axis',(-1.,0.,0.));
#1267=DIRECTION('center_axis',(-1.41166323996136E-27,-1.98068972494406E-15,
-1.));
#1268=DIRECTION('ref_axis',(-1.,0.,0.));
#1269=DIRECTION('',(0.,0.,-1.));
#1270=DIRECTION('center_axis',(1.00929365874844E-15,-1.7106907672478E-15,
-1.));
#1271=DIRECTION('ref_axis',(-1.,0.,-1.00929365874844E-15));
#1272=DIRECTION('center_axis',(-1.00929365874844E-15,1.7106907672478E-15,
1.));
#1273=DIRECTION('ref_axis',(-1.,0.,-1.00929365874844E-15));
#1274=DIRECTION('center_axis',(-1.00929365874844E-15,1.7106907672478E-15,
1.));
#1275=DIRECTION('ref_axis',(-1.,2.32839700478061E-30,0.));
#1276=DIRECTION('center_axis',(0.,0.,-1.));
#1277=DIRECTION('ref_axis',(-1.,0.,0.));
#1278=DIRECTION('center_axis',(-1.41166323996136E-27,-1.98068972494406E-15,
-1.));
#1279=DIRECTION('ref_axis',(-1.,0.,0.));
#1280=DIRECTION('',(0.,0.,-1.));
#1281=DIRECTION('center_axis',(1.00929365874844E-15,-1.7106907672478E-15,
-1.));
#1282=DIRECTION('ref_axis',(-1.,0.,-1.00929365874844E-15));
#1283=DIRECTION('center_axis',(-1.00929365874844E-15,1.7106907672478E-15,
1.));
#1284=DIRECTION('ref_axis',(-1.,0.,-1.00929365874844E-15));
#1285=DIRECTION('center_axis',(-1.00929365874844E-15,1.7106907672478E-15,
1.));
#1286=DIRECTION('ref_axis',(-1.,2.3283970047806E-30,0.));
#1287=DIRECTION('center_axis',(1.11022302462516E-15,0.,-1.));
#1288=DIRECTION('ref_axis',(-1.,0.,-1.11022302462516E-15));
#1289=DIRECTION('center_axis',(-1.41166323996136E-27,-1.98068972494406E-15,
-1.));
#1290=DIRECTION('ref_axis',(-1.,0.,-1.11022302462516E-15));
#1291=DIRECTION('',(1.11022302462516E-15,0.,-1.));
#1292=DIRECTION('center_axis',(1.00929365874844E-15,-1.7106907672478E-15,
-1.));
#1293=DIRECTION('ref_axis',(-1.,0.,-1.00929365874844E-15));
#1294=DIRECTION('center_axis',(-1.00929365874844E-15,1.7106907672478E-15,
1.));
#1295=DIRECTION('ref_axis',(-1.,0.,-1.00929365874844E-15));
#1296=DIRECTION('center_axis',(-1.00929365874844E-15,1.7106907672478E-15,
1.));
#1297=DIRECTION('ref_axis',(-1.,-3.32628143544541E-31,-1.153478467143E-15));
#1298=DIRECTION('center_axis',(1.11022302462516E-15,0.,-1.));
#1299=DIRECTION('ref_axis',(-1.,0.,-1.11022302462516E-15));
#1300=DIRECTION('center_axis',(-1.41166323996136E-27,-1.98068972494406E-15,
-1.));
#1301=DIRECTION('ref_axis',(-1.,0.,-1.11022302462516E-15));
#1302=DIRECTION('',(1.11022302462516E-15,0.,-1.));
#1303=DIRECTION('center_axis',(1.00929365874844E-15,-1.7106907672478E-15,
-1.));
#1304=DIRECTION('ref_axis',(-1.,0.,-1.00929365874844E-15));
#1305=DIRECTION('center_axis',(-1.00929365874844E-15,1.7106907672478E-15,
1.));
#1306=DIRECTION('ref_axis',(-1.,0.,-1.00929365874844E-15));
#1307=DIRECTION('center_axis',(-1.00929365874844E-15,1.7106907672478E-15,
1.));
#1308=DIRECTION('ref_axis',(-1.,-3.32628143544534E-31,-1.153478467143E-15));
#1309=DIRECTION('center_axis',(1.153478467143E-15,-2.306956934286E-15,-1.));
#1310=DIRECTION('ref_axis',(-1.,-3.32628143544534E-31,-1.153478467143E-15));
#1311=DIRECTION('',(1.153478467143E-15,-2.306956934286E-15,-1.));
#1312=DIRECTION('center_axis',(1.41166323996136E-27,1.98068972494406E-15,
1.));
#1313=DIRECTION('ref_axis',(-1.,-3.32628143544534E-31,-1.153478467143E-15));
#1314=DIRECTION('center_axis',(0.,-2.30695693428601E-15,-1.));
#1315=DIRECTION('ref_axis',(-1.,2.32839700478061E-30,0.));
#1316=DIRECTION('',(0.,-2.30695693428601E-15,-1.));
#1317=DIRECTION('center_axis',(1.41166323996136E-27,1.98068972494406E-15,
1.));
#1318=DIRECTION('ref_axis',(-1.,2.32839700478061E-30,0.));
#1319=DIRECTION('center_axis',(0.,-2.306956934286E-15,-1.));
#1320=DIRECTION('ref_axis',(-1.,2.3283970047806E-30,0.));
#1321=DIRECTION('',(0.,-2.306956934286E-15,-1.));
#1322=DIRECTION('center_axis',(1.41166323996136E-27,1.98068972494406E-15,
1.));
#1323=DIRECTION('ref_axis',(-1.,2.3283970047806E-30,0.));
#1324=DIRECTION('center_axis',(1.153478467143E-15,-2.30695693428601E-15,
-1.));
#1325=DIRECTION('ref_axis',(-1.,-3.32628143544541E-31,-1.153478467143E-15));
#1326=DIRECTION('',(1.153478467143E-15,-2.30695693428601E-15,-1.));
#1327=DIRECTION('center_axis',(1.41166323996136E-27,1.98068972494406E-15,
1.));
#1328=DIRECTION('ref_axis',(-1.,-3.32628143544541E-31,-1.153478467143E-15));
#1329=DIRECTION('center_axis',(0.,2.53765262771465E-15,1.));
#1330=DIRECTION('ref_axis',(-0.707106781186547,0.707106781186547,-2.51214793389404E-15));
#1331=DIRECTION('center_axis',(-1.41166323996136E-27,-1.98068972494406E-15,
-1.));
#1332=DIRECTION('ref_axis',(-0.707106781186547,0.707106781186547,-2.51214793389404E-15));
#1333=DIRECTION('',(0.,-2.53765262771465E-15,-1.));
#1334=DIRECTION('center_axis',(1.41166323996136E-27,1.98068972494406E-15,
1.));
#1335=DIRECTION('ref_axis',(-0.707106781186547,0.707106781186547,-2.51214793389404E-15));
#1336=DIRECTION('',(0.,2.53765262771465E-15,1.));
#1337=DIRECTION('center_axis',(-1.,8.88178419728504E-17,-2.25388830070348E-31));
#1338=DIRECTION('ref_axis',(-8.88178419728504E-17,-1.,1.98068972494406E-15));
#1339=DIRECTION('',(-8.88178419728504E-17,-1.,1.98068972494406E-15));
#1340=DIRECTION('',(0.,-2.53765262771465E-15,-1.));
#1341=DIRECTION('',(-8.88178419728504E-17,-1.,1.98068972494406E-15));
#1342=DIRECTION('center_axis',(1.41166323996136E-27,1.98068972494406E-15,
1.));
#1343=DIRECTION('ref_axis',(-1.,-9.37826556307805E-47,1.41166323996136E-27));
#1344=DIRECTION('',(-1.,0.,1.4117105884453E-27));
#1345=DIRECTION('center_axis',(1.41166323996136E-27,1.98068972494406E-15,
1.));
#1346=DIRECTION('ref_axis',(0.707106781186547,0.707106781186547,-2.51214793389404E-15));
#1347=DIRECTION('',(-2.79616065712834E-42,1.,-1.98068972494406E-15));
#1348=DIRECTION('center_axis',(1.41166323996136E-27,1.98068972494406E-15,
1.));
#1349=DIRECTION('ref_axis',(0.707106781186547,-0.707106781186547,2.51214793389404E-15));
#1350=DIRECTION('',(1.,0.,-1.4117105884453E-27));
#1351=DIRECTION('center_axis',(1.41166323996136E-27,1.98068972494406E-15,
1.));
#1352=DIRECTION('ref_axis',(-0.707106781186547,-0.707106781186547,2.51214793389404E-15));
#1353=DIRECTION('',(8.88178419700536E-17,1.,-1.98068972494406E-15));
#1354=DIRECTION('center_axis',(1.41166323996136E-27,1.98068972494406E-15,
1.));
#1355=DIRECTION('ref_axis',(-0.983021356127674,0.183491180706074,-4.51759473059082E-16));
#1356=DIRECTION('center_axis',(1.4117105884453E-27,1.98068972494406E-15,
1.));
#1357=DIRECTION('ref_axis',(0.922181713480961,-0.386756883999909,7.66045386188699E-16));
#1358=DIRECTION('center_axis',(1.41166323996136E-27,1.98068972494406E-15,
1.));
#1359=DIRECTION('ref_axis',(-0.983021356128602,-0.1834911807011,4.51759473058656E-16));
#1360=DIRECTION('center_axis',(0.,2.53765262771465E-15,1.));
#1361=DIRECTION('ref_axis',(0.707106781186547,0.707106781186547,-2.51214793389404E-15));
#1362=DIRECTION('center_axis',(-1.41166323996136E-27,-1.98068972494406E-15,
-1.));
#1363=DIRECTION('ref_axis',(0.707106781186547,0.707106781186547,-2.51214793389404E-15));
#1364=DIRECTION('',(0.,-2.53765262771465E-15,-1.));
#1365=DIRECTION('',(0.,2.53765262771465E-15,1.));
#1366=DIRECTION('center_axis',(1.,2.79616065712834E-42,-7.09568443907404E-57));
#1367=DIRECTION('ref_axis',(-2.79616065712834E-42,1.,-1.98068972494406E-15));
#1368=DIRECTION('',(-2.79616065712834E-42,1.,-1.98068972494406E-15));
#1369=DIRECTION('',(0.,2.53765262771465E-15,1.));
#1370=DIRECTION('center_axis',(0.,2.53765262771465E-15,1.));
#1371=DIRECTION('ref_axis',(0.707106781186547,-0.707106781186547,2.51214793389404E-15));
#1372=DIRECTION('center_axis',(-1.41166323996136E-27,-1.98068972494406E-15,
-1.));
#1373=DIRECTION('ref_axis',(0.707106781186547,-0.707106781186547,2.51214793389404E-15));
#1374=DIRECTION('',(0.,-2.53765262771465E-15,-1.));
#1375=DIRECTION('center_axis',(0.,2.53765262771465E-15,1.));
#1376=DIRECTION('ref_axis',(-0.707106781186547,-0.707106781186547,2.51214793389404E-15));
#1377=DIRECTION('center_axis',(-1.41166323996136E-27,-1.98068972494406E-15,
-1.));
#1378=DIRECTION('ref_axis',(-0.707106781186547,-0.707106781186547,2.51214793389404E-15));
#1379=DIRECTION('',(0.,-2.53765262771465E-15,-1.));
#1380=DIRECTION('',(0.,2.53765262771465E-15,1.));
#1381=DIRECTION('center_axis',(-1.,8.88178419700536E-17,-2.25388830063251E-31));
#1382=DIRECTION('ref_axis',(-8.88178419700536E-17,-1.,1.98068972494406E-15));
#1383=DIRECTION('',(-8.88178419700536E-17,-1.,1.98068972494406E-15));
#1384=DIRECTION('',(0.,2.53765262771465E-15,1.));
#1385=DIRECTION('center_axis',(0.,2.53765262771465E-15,1.));
#1386=DIRECTION('ref_axis',(-0.983021356127674,0.183491180706074,-4.51759473059082E-16));
#1387=DIRECTION('center_axis',(-1.41166323996136E-27,-1.98068972494406E-15,
-1.));
#1388=DIRECTION('ref_axis',(-0.983021356127674,0.183491180706074,-4.51759473059082E-16));
#1389=DIRECTION('',(0.,-2.53765262771465E-15,-1.));
#1390=DIRECTION('center_axis',(0.,2.53765262771465E-15,1.));
#1391=DIRECTION('ref_axis',(-0.983021356128602,-0.1834911807011,4.51759473058656E-16));
#1392=DIRECTION('center_axis',(-1.41166323996136E-27,-1.98068972494406E-15,
-1.));
#1393=DIRECTION('ref_axis',(-0.983021356128602,-0.1834911807011,4.51759473058656E-16));
#1394=DIRECTION('',(0.,2.53765262771465E-15,1.));
#1395=DIRECTION('center_axis',(0.,2.53765262771465E-15,1.));
#1396=DIRECTION('ref_axis',(0.922181713480961,-0.386756883999909,9.81454622969097E-16));
#1397=DIRECTION('center_axis',(-1.4117105884453E-27,-1.98068972494406E-15,
-1.));
#1398=DIRECTION('ref_axis',(0.922181713480961,-0.386756883999909,7.66045386188699E-16));
#1399=DIRECTION('center_axis',(-3.5824310843408E-42,1.,-2.53765262771465E-15));
#1400=DIRECTION('ref_axis',(-1.,0.,1.4117105884453E-27));
#1401=DIRECTION('',(-1.,0.,1.4117105884453E-27));
#1402=DIRECTION('center_axis',(3.5824310843408E-42,-1.,2.53765262771465E-15));
#1403=DIRECTION('ref_axis',(1.,0.,-1.4117105884453E-27));
#1404=DIRECTION('',(1.,0.,-1.4117105884453E-27));
#1405=DIRECTION('center_axis',(1.41166323996136E-27,1.98068972494406E-15,
1.));
#1406=DIRECTION('ref_axis',(-1.,-9.37826556307805E-47,1.41166323996136E-27));
#1407=DIRECTION('',(-2.06566856136334E-45,2.40253309175928E-88,1.));
#1408=DIRECTION('',(1.,0.,1.66391174007138E-58));
#1409=CARTESIAN_POINT('',(0.,0.,0.));
#1410=CARTESIAN_POINT('',(0.,0.,0.));
#1411=CARTESIAN_POINT('Origin',(65.0177599999107,23.3199999999973,-42.4));
#1412=CARTESIAN_POINT('',(68.4177599999106,23.3199999999973,-43.4));
#1413=CARTESIAN_POINT('',(65.0177599999107,26.7199999999973,-43.4));
#1414=CARTESIAN_POINT('Origin',(65.0177599999107,23.3199999999973,-43.4));
#1415=CARTESIAN_POINT('',(68.4177599999106,23.3199999999973,-42.4000000000001));
#1416=CARTESIAN_POINT('',(68.4177599999106,23.3199999999973,-42.4));
#1417=CARTESIAN_POINT('',(65.0177599999107,26.7199999999973,-42.4000000000001));
#1418=CARTESIAN_POINT('Origin',(65.0177599999107,23.3199999999973,-42.4000000000001));
#1419=CARTESIAN_POINT('',(65.0177599999107,26.7199999999973,-42.4));
#1420=CARTESIAN_POINT('Origin',(30.5822399999106,26.7199999999973,-42.4000000000001));
#1421=CARTESIAN_POINT('',(33.9822399999106,26.7199999999973,-42.4000000000001));
#1422=CARTESIAN_POINT('',(39.0411199998761,26.7199999999973,-42.4000000000001));
#1423=CARTESIAN_POINT('',(33.9822399999106,26.7199999999973,-43.4000000000001));
#1424=CARTESIAN_POINT('',(33.9822399999106,26.7199999999973,-42.4000000000001));
#1425=CARTESIAN_POINT('',(30.5822399999106,26.7199999999973,-43.4000000000001));
#1426=CARTESIAN_POINT('Origin',(65.0177599999107,-23.3200000000027,-42.3999999999999));
#1427=CARTESIAN_POINT('',(65.0177599999107,-26.7200000000027,-43.3999999999999));
#1428=CARTESIAN_POINT('',(68.4177599999106,-23.3200000000027,-43.3999999999999));
#1429=CARTESIAN_POINT('Origin',(65.0177599999107,-23.3200000000027,-43.4));
#1430=CARTESIAN_POINT('',(65.0177599999107,-26.7200000000027,-42.4));
#1431=CARTESIAN_POINT('',(65.0177599999107,-26.7200000000027,-42.3999999999999));
#1432=CARTESIAN_POINT('',(68.4177599999106,-23.3200000000027,-42.4));
#1433=CARTESIAN_POINT('Origin',(65.0177599999107,-23.3200000000027,-42.4));
#1434=CARTESIAN_POINT('',(68.4177599999106,-23.3200000000027,-42.3999999999999));
#1435=CARTESIAN_POINT('Origin',(68.4177599999106,26.7199999999973,-42.4));
#1436=CARTESIAN_POINT('',(68.4177599999106,26.7199999999973,-43.4));
#1437=CARTESIAN_POINT('',(68.4177599999106,13.3599999998011,-42.4000000000001));
#1438=CARTESIAN_POINT('Origin',(33.9822399999106,-23.3200000000027,-42.3999999999999));
#1439=CARTESIAN_POINT('',(30.5822399999106,-23.3200000000027,-43.4));
#1440=CARTESIAN_POINT('',(33.9822399999106,-26.7200000000027,-43.4));
#1441=CARTESIAN_POINT('Origin',(33.9822399999106,-23.3200000000027,-43.4));
#1442=CARTESIAN_POINT('',(30.5822399999106,-23.3200000000027,-42.4));
#1443=CARTESIAN_POINT('',(30.5822399999106,-23.3200000000027,-42.3999999999999));
#1444=CARTESIAN_POINT('',(33.9822399999106,-26.7200000000027,-42.4));
#1445=CARTESIAN_POINT('Origin',(33.9822399999106,-23.3200000000027,-42.4));
#1446=CARTESIAN_POINT('',(33.9822399999106,-26.7200000000027,-42.3999999999999));
#1447=CARTESIAN_POINT('Origin',(68.4177599999106,-26.7200000000027,-42.3999999999999));
#1448=CARTESIAN_POINT('',(68.4177599999106,-26.7200000000027,-43.3999999999999));
#1449=CARTESIAN_POINT('',(57.9588799998761,-26.7200000000027,-42.4));
#1450=CARTESIAN_POINT('Origin',(33.9822399999106,23.3199999999973,-42.4000000000001));
#1451=CARTESIAN_POINT('',(30.5822399999106,23.3199999999973,-43.4));
#1452=CARTESIAN_POINT('Origin',(33.9822399999106,23.3199999999973,-43.4));
#1453=CARTESIAN_POINT('',(30.5822399999106,23.3199999999973,-42.4000000000001));
#1454=CARTESIAN_POINT('Origin',(33.9822399999106,23.3199999999973,-42.4000000000001));
#1455=CARTESIAN_POINT('',(30.5822399999106,23.3199999999973,-42.4000000000001));
#1456=CARTESIAN_POINT('Origin',(30.5822399999106,-26.7200000000027,-42.4));
#1457=CARTESIAN_POINT('',(30.5822399999106,-26.7200000000027,-43.4));
#1458=CARTESIAN_POINT('',(30.5822399999106,-13.3600000001989,-42.4));
#1459=CARTESIAN_POINT('Origin',(49.4999999999106,-2.73140944836503E-12,
-43.4));
#1460=CARTESIAN_POINT('',(50.5499999999106,-2.72935833934103E-12,-43.4));
#1461=CARTESIAN_POINT('Origin',(49.4999999999106,-2.72948692725494E-12,
-43.4));
#1462=CARTESIAN_POINT('Origin',(49.4999999999106,-2.7277762364877E-12,-42.4));
#1463=CARTESIAN_POINT('',(50.5499999999106,-2.73363506625915E-12,-45.9));
#1464=CARTESIAN_POINT('',(50.5499999999106,-2.72790482440161E-12,-42.4));
#1465=CARTESIAN_POINT('Origin',(49.4999999999106,-2.73376365417306E-12,
-45.9));
#1466=CARTESIAN_POINT('Origin',(26.3955549576989,-41.9858285509987,-42.3999999999999));
#1467=CARTESIAN_POINT('',(32.8955549576989,-41.9858285509987,-41.3999999999999));
#1468=CARTESIAN_POINT('Origin',(26.3955549576989,-41.9858285509987,-41.3999999999999));
#1469=CARTESIAN_POINT('',(32.8955549576989,-41.9858285509987,-42.3999999999999));
#1470=CARTESIAN_POINT('',(32.8955549576989,-41.9858285509987,-42.3999999999999));
#1471=CARTESIAN_POINT('Origin',(26.3955549576989,-41.9858285509987,-42.4));
#1472=CARTESIAN_POINT('Origin',(26.3955549576989,-41.9858285509987,-41.3999999999999));
#1473=CARTESIAN_POINT('',(31.3955549576989,-41.9858285509987,-41.3999999999999));
#1474=CARTESIAN_POINT('Origin',(26.3955549576989,-41.9858285509987,-41.3999999999999));
#1475=CARTESIAN_POINT('Origin',(69.9111126055115,-53.6457870809461,-42.3999999999999));
#1476=CARTESIAN_POINT('',(77.7111126055115,-53.6457870809461,-42.3999999999999));
#1477=CARTESIAN_POINT('Origin',(69.9111126055115,-53.6457870809461,-42.4));
#1478=CARTESIAN_POINT('',(77.7111126055115,-53.6457870809461,-43.3999999999999));
#1479=CARTESIAN_POINT('',(77.7111126055115,-53.6457870809461,-42.3999999999999));
#1480=CARTESIAN_POINT('Origin',(69.9111126055115,-53.6457870809461,-43.3999999999999));
#1481=CARTESIAN_POINT('Origin',(69.9111126055115,-53.6457870809461,-43.3999999999999));
#1482=CARTESIAN_POINT('',(70.9611126055116,-53.6457870809461,-43.3999999999999));
#1483=CARTESIAN_POINT('Origin',(69.9111126055115,-53.6457870809461,-43.3999999999999));
#1484=CARTESIAN_POINT('Origin',(26.3955549576989,-41.9858285509987,-42.3999999999999));
#1485=CARTESIAN_POINT('',(31.3955549576989,-41.9858285509987,-43.3999999999999));
#1486=CARTESIAN_POINT('',(31.3955549576989,-41.9858285509987,-42.3999999999999));
#1487=CARTESIAN_POINT('Origin',(26.3955549576989,-41.9858285509987,-43.3999999999999));
#1488=CARTESIAN_POINT('Origin',(26.3955549576989,-41.9858285509987,-43.3999999999999));
#1489=CARTESIAN_POINT('',(27.4455549576989,-41.9858285509987,-43.3999999999999));
#1490=CARTESIAN_POINT('Origin',(26.3955549576989,-41.9858285509987,-43.3999999999999));
#1491=CARTESIAN_POINT('Origin',(69.9111126055115,-53.6457870809461,-42.3999999999999));
#1492=CARTESIAN_POINT('',(70.9611126055116,-53.6457870809461,-45.8999999999999));
#1493=CARTESIAN_POINT('',(70.9611126055116,-53.6457870809461,-42.3999999999999));
#1494=CARTESIAN_POINT('Origin',(69.9111126055115,-53.6457870809461,-45.8999999999999));
#1495=CARTESIAN_POINT('Origin',(26.3955549576989,-41.9858285509987,-42.3999999999999));
#1496=CARTESIAN_POINT('',(27.445554957699,-41.9858285509988,-45.9));
#1497=CARTESIAN_POINT('',(27.4455549576989,-41.9858285509987,-42.3999999999999));
#1498=CARTESIAN_POINT('Origin',(26.395554957699,-41.9858285509988,-45.9));
#1499=CARTESIAN_POINT('Origin',(34.0999999998984,55.9499999999683,-42.4000000000001));
#1500=CARTESIAN_POINT('',(35.1499999998984,55.9499999999683,-42.4000000000001));
#1501=CARTESIAN_POINT('Origin',(34.0999999998984,55.9499999999683,-42.4000000000002));
#1502=CARTESIAN_POINT('',(35.1499999998984,55.9499999999683,-45.9000000000002));
#1503=CARTESIAN_POINT('',(35.1499999998984,55.9499999999683,-42.4000000000001));
#1504=CARTESIAN_POINT('Origin',(34.0999999998984,55.9499999999683,-45.9000000000002));
#1505=CARTESIAN_POINT('Origin',(36.3999999999174,46.1999999999391,-42.4000000000001));
#1506=CARTESIAN_POINT('',(36.3999999999174,65.6999999999391,-45.9000000000002));
#1507=CARTESIAN_POINT('',(36.3999999999174,46.1999999999391,-45.9000000000001));
#1508=CARTESIAN_POINT('',(36.3999999999174,23.099999999772,-45.9000000000001));
#1509=CARTESIAN_POINT('',(36.3999999999174,65.6999999999391,-42.4000000000001));
#1510=CARTESIAN_POINT('',(36.3999999999174,65.6999999999391,-42.4000000000001));
#1511=CARTESIAN_POINT('',(36.3999999999174,46.1999999999391,-42.4000000000001));
#1512=CARTESIAN_POINT('',(36.3999999999174,23.099999999772,-42.4000000000001));
#1513=CARTESIAN_POINT('',(36.3999999999174,46.1999999999391,-42.4000000000001));
#1514=CARTESIAN_POINT('Origin',(61.8999999999174,46.1999999999391,-42.4000000000001));
#1515=CARTESIAN_POINT('',(61.8999999999174,46.1999999999391,-45.9000000000001));
#1516=CARTESIAN_POINT('',(54.6999999998794,46.1999999999391,-45.9000000000001));
#1517=CARTESIAN_POINT('',(61.8999999999174,46.1999999999391,-42.4000000000001));
#1518=CARTESIAN_POINT('',(54.6999999998794,46.1999999999391,-42.4000000000001));
#1519=CARTESIAN_POINT('',(61.8999999999174,46.1999999999391,-42.4000000000001));
#1520=CARTESIAN_POINT('Origin',(61.8999999999174,50.4499999999391,-42.4000000000001));
#1521=CARTESIAN_POINT('',(61.8999999999174,50.4499999999391,-45.9000000000001));
#1522=CARTESIAN_POINT('',(61.8999999999174,25.224999999772,-45.9000000000001));
#1523=CARTESIAN_POINT('',(61.8999999999174,50.4499999999391,-42.4000000000001));
#1524=CARTESIAN_POINT('',(61.8999999999174,25.224999999772,-42.4000000000001));
#1525=CARTESIAN_POINT('',(61.8999999999174,50.4499999999391,-42.4000000000001));
#1526=CARTESIAN_POINT('Origin',(62.8999999999173,50.4499999999391,-42.4000000000001));
#1527=CARTESIAN_POINT('',(62.8999999999173,50.4499999999391,-45.9000000000001));
#1528=CARTESIAN_POINT('',(55.1999999998794,50.4499999999391,-45.9000000000001));
#1529=CARTESIAN_POINT('',(62.8999999999173,50.4499999999391,-42.4000000000001));
#1530=CARTESIAN_POINT('',(55.1999999998794,50.4499999999391,-42.4000000000001));
#1531=CARTESIAN_POINT('',(62.8999999999173,50.4499999999391,-42.4000000000001));
#1532=CARTESIAN_POINT('Origin',(62.8999999999174,61.4499999999391,-42.4000000000001));
#1533=CARTESIAN_POINT('',(62.8999999999174,61.4499999999391,-45.9000000000002));
#1534=CARTESIAN_POINT('',(62.8999999999173,30.724999999772,-45.9000000000001));
#1535=CARTESIAN_POINT('',(62.8999999999174,61.4499999999391,-42.4000000000001));
#1536=CARTESIAN_POINT('',(62.8999999999173,30.724999999772,-42.4000000000001));
#1537=CARTESIAN_POINT('',(62.8999999999174,61.4499999999391,-42.4000000000001));
#1538=CARTESIAN_POINT('Origin',(61.8999999999174,61.4499999999391,-42.4000000000001));
#1539=CARTESIAN_POINT('',(61.8999999999174,61.4499999999391,-45.9000000000002));
#1540=CARTESIAN_POINT('',(54.6999999998794,61.4499999999391,-45.9000000000002));
#1541=CARTESIAN_POINT('',(61.8999999999174,61.4499999999391,-42.4000000000001));
#1542=CARTESIAN_POINT('',(54.6999999998794,61.4499999999391,-42.4000000000002));
#1543=CARTESIAN_POINT('',(61.8999999999174,61.4499999999391,-42.4000000000001));
#1544=CARTESIAN_POINT('Origin',(61.8999999999174,65.6999999999391,-42.4000000000001));
#1545=CARTESIAN_POINT('',(61.8999999999174,65.6999999999391,-45.9000000000002));
#1546=CARTESIAN_POINT('',(61.8999999999174,32.849999999772,-45.9000000000001));
#1547=CARTESIAN_POINT('',(61.8999999999174,65.6999999999391,-42.4000000000001));
#1548=CARTESIAN_POINT('',(61.8999999999174,32.849999999772,-42.4000000000001));
#1549=CARTESIAN_POINT('',(61.8999999999174,65.6999999999391,-42.4000000000001));
#1550=CARTESIAN_POINT('Origin',(36.3999999999174,65.6999999999391,-42.4000000000001));
#1551=CARTESIAN_POINT('',(41.9499999998795,65.6999999999391,-45.9000000000002));
#1552=CARTESIAN_POINT('',(41.9499999998795,65.6999999999391,-42.4000000000002));
#1553=CARTESIAN_POINT('Origin',(64.6999999999363,55.9499999999099,-42.4000000000001));
#1554=CARTESIAN_POINT('',(65.7499999999363,55.9499999999099,-42.4000000000001));
#1555=CARTESIAN_POINT('Origin',(64.6999999999363,55.9499999999099,-42.4000000000002));
#1556=CARTESIAN_POINT('',(65.7499999999363,55.9499999999099,-45.9000000000002));
#1557=CARTESIAN_POINT('',(65.7499999999363,55.9499999999099,-42.4000000000001));
#1558=CARTESIAN_POINT('Origin',(64.6999999999363,55.9499999999099,-45.9000000000002));
#1559=CARTESIAN_POINT('Origin',(81.3999999998342,-69.7000000000782,-42.3999999999998));
#1560=CARTESIAN_POINT('',(83.3999999998342,-69.7000000000782,-42.3999999999998));
#1561=CARTESIAN_POINT('Origin',(81.3999999998342,-69.7000000000782,-42.4));
#1562=CARTESIAN_POINT('',(83.3999999998342,-69.7000000000782,-44.3999999999998));
#1563=CARTESIAN_POINT('',(83.3999999998342,-69.7000000000782,-42.3999999999998));
#1564=CARTESIAN_POINT('Origin',(81.3999999998342,-69.7000000000782,-44.3999999999998));
#1565=CARTESIAN_POINT('Origin',(81.3999999998342,-69.7000000000782,-44.3999999999998));
#1566=CARTESIAN_POINT('',(82.4499999998342,-69.7000000000782,-44.3999999999998));
#1567=CARTESIAN_POINT('Origin',(81.3999999998342,-69.7000000000782,-44.3999999999998));
#1568=CARTESIAN_POINT('Origin',(81.3999999999336,69.69999999994,-42.4000000000001));
#1569=CARTESIAN_POINT('',(83.3999999999336,69.69999999994,-42.4000000000001));
#1570=CARTESIAN_POINT('Origin',(81.3999999999336,69.69999999994,-42.4));
#1571=CARTESIAN_POINT('',(83.3999999999336,69.69999999994,-44.4000000000001));
#1572=CARTESIAN_POINT('',(83.3999999999336,69.69999999994,-42.4000000000001));
#1573=CARTESIAN_POINT('Origin',(81.3999999999336,69.69999999994,-44.4000000000001));
#1574=CARTESIAN_POINT('Origin',(81.3999999999336,69.69999999994,-44.4000000000001));
#1575=CARTESIAN_POINT('',(82.4499999999336,69.69999999994,-44.4000000000001));
#1576=CARTESIAN_POINT('Origin',(81.3999999999336,69.6999999999399,-44.4000000000001));
#1577=CARTESIAN_POINT('Origin',(13.599999999863,-69.6999999999268,-42.3999999999999));
#1578=CARTESIAN_POINT('',(15.599999999863,-69.6999999999268,-42.3999999999999));
#1579=CARTESIAN_POINT('Origin',(13.599999999863,-69.6999999999268,-42.4000000000001));
#1580=CARTESIAN_POINT('',(15.599999999863,-69.6999999999268,-44.3999999999999));
#1581=CARTESIAN_POINT('',(15.599999999863,-69.6999999999268,-42.3999999999999));
#1582=CARTESIAN_POINT('Origin',(13.599999999863,-69.6999999999268,-44.3999999999999));
#1583=CARTESIAN_POINT('Origin',(13.599999999863,-69.6999999999268,-44.3999999999999));
#1584=CARTESIAN_POINT('',(14.6499999997173,-69.6999999999812,-44.3999999999999));
#1585=CARTESIAN_POINT('Origin',(13.5999999997173,-69.6999999999813,-44.3999999999999));
#1586=CARTESIAN_POINT('Origin',(13.5999999998167,69.6999999999396,-42.4000000000002));
#1587=CARTESIAN_POINT('',(15.5999999998167,69.6999999999396,-42.4000000000002));
#1588=CARTESIAN_POINT('Origin',(13.5999999998167,69.6999999999396,-42.4000000000001));
#1589=CARTESIAN_POINT('',(15.5999999998167,69.6999999999396,-44.4000000000002));
#1590=CARTESIAN_POINT('',(15.5999999998167,69.6999999999396,-42.4000000000002));
#1591=CARTESIAN_POINT('Origin',(13.5999999998167,69.6999999999396,-44.4000000000002));
#1592=CARTESIAN_POINT('Origin',(13.5999999998167,69.6999999999396,-44.4000000000002));
#1593=CARTESIAN_POINT('',(14.6500000004051,69.6999999991366,-44.4000000000002));
#1594=CARTESIAN_POINT('Origin',(13.6000000004051,69.6999999991366,-44.4000000000002));
#1595=CARTESIAN_POINT('Origin',(13.6000000004051,69.6999999991366,-42.4000000000002));
#1596=CARTESIAN_POINT('',(14.6500000004051,69.6999999991366,-45.9000000000002));
#1597=CARTESIAN_POINT('',(14.6500000004051,69.6999999991366,-42.4000000000002));
#1598=CARTESIAN_POINT('Origin',(13.6000000004051,69.6999999991366,-45.9000000000002));
#1599=CARTESIAN_POINT('Origin',(81.3999999998342,-69.7000000000782,-42.3999999999998));
#1600=CARTESIAN_POINT('',(82.4499999998342,-69.7000000000782,-45.8999999999999));
#1601=CARTESIAN_POINT('',(82.4499999998342,-69.7000000000782,-42.3999999999998));
#1602=CARTESIAN_POINT('Origin',(81.3999999998342,-69.7000000000782,-45.8999999999999));
#1603=CARTESIAN_POINT('Origin',(81.3999999999336,69.69999999994,-42.4000000000001));
#1604=CARTESIAN_POINT('',(82.4499999999336,69.6999999999399,-45.9000000000002));
#1605=CARTESIAN_POINT('',(82.4499999999336,69.69999999994,-42.4000000000001));
#1606=CARTESIAN_POINT('Origin',(81.3999999999336,69.6999999999399,-45.9000000000002));
#1607=CARTESIAN_POINT('Origin',(13.5999999997173,-69.6999999999812,-42.3999999999999));
#1608=CARTESIAN_POINT('',(14.6499999997173,-69.6999999999813,-45.8999999999999));
#1609=CARTESIAN_POINT('',(14.6499999997173,-69.6999999999812,-42.3999999999999));
#1610=CARTESIAN_POINT('Origin',(13.5999999997173,-69.6999999999813,-45.8999999999999));
#1611=CARTESIAN_POINT('Origin',(13.6000000004051,69.6999999991366,-45.9000000000002));
#1612=CARTESIAN_POINT('',(8.60000000040512,69.6999999991366,-42.4000000000002));
#1613=CARTESIAN_POINT('',(13.6000000004051,74.6999999991366,-42.4000000000002));
#1614=CARTESIAN_POINT('Origin',(13.6000000004051,69.6999999991366,-42.4000000000002));
#1615=CARTESIAN_POINT('',(13.6000000004051,74.6999999991366,-45.9000000000002));
#1616=CARTESIAN_POINT('',(13.6000000004051,74.6999999991366,-45.9000000000002));
#1617=CARTESIAN_POINT('',(8.60000000040512,69.6999999991366,-45.9000000000002));
#1618=CARTESIAN_POINT('Origin',(13.6000000004051,69.6999999991366,-45.9000000000002));
#1619=CARTESIAN_POINT('',(8.60000000040512,69.6999999991366,-45.9000000000002));
#1620=CARTESIAN_POINT('Origin',(8.60000000040512,74.6999999991366,-45.9000000000002));
#1621=CARTESIAN_POINT('',(8.60000000040512,53.5732209222228,-45.9000000000001));
#1622=CARTESIAN_POINT('',(8.60000000040512,74.6999999991366,-45.9000000000002));
#1623=CARTESIAN_POINT('',(8.60000000040512,53.5732209222228,-42.4000000000002));
#1624=CARTESIAN_POINT('',(8.60000000040512,53.5732209222228,-45.9000000000002));
#1625=CARTESIAN_POINT('',(8.60000000040512,74.6999999991366,-42.4000000000002));
#1626=CARTESIAN_POINT('Origin',(47.4999999998415,-3.95106753825843E-10,
-45.9));
#1627=CARTESIAN_POINT('',(81.3999999998201,74.6999999991366,-45.9000000000002));
#1628=CARTESIAN_POINT('',(86.3999999998201,74.6999999991366,-45.9000000000002));
#1629=CARTESIAN_POINT('',(86.3999999998201,69.6999999991366,-45.9000000000002));
#1630=CARTESIAN_POINT('Origin',(81.3999999998201,69.6999999991366,-45.9000000000002));
#1631=CARTESIAN_POINT('',(86.3999999998201,-69.6999999999268,-45.8999999999999));
#1632=CARTESIAN_POINT('',(86.3999999998201,-74.6999999999268,-45.8999999999999));
#1633=CARTESIAN_POINT('',(81.3999999998201,-74.6999999999268,-45.8999999999999));
#1634=CARTESIAN_POINT('Origin',(81.3999999998201,-69.6999999999268,-45.8999999999999));
#1635=CARTESIAN_POINT('',(13.599999999863,-74.6999999999268,-45.8999999999999));
#1636=CARTESIAN_POINT('',(8.59999999986296,-74.6999999999268,-45.8999999999999));
#1637=CARTESIAN_POINT('',(8.59999999986296,-69.6999999999268,-45.8999999999999));
#1638=CARTESIAN_POINT('Origin',(13.599999999863,-69.6999999999268,-45.8999999999999));
#1639=CARTESIAN_POINT('',(8.59999999986297,-53.5732209223347,-45.8999999999999));
#1640=CARTESIAN_POINT('',(8.59999999986296,-74.6999999999268,-45.8999999999999));
#1641=CARTESIAN_POINT('',(9.94676053573933,-46.3581909505286,-45.8999999999999));
#1642=CARTESIAN_POINT('Origin',(28.599999999863,-53.5732209223347,-45.8999999999999));
#1643=CARTESIAN_POINT('',(9.94676053620845,46.3581909506055,-45.9000000000001));
#1644=CARTESIAN_POINT('Origin',(-109.904500001622,6.44861088364551E-10,
-45.9));
#1645=CARTESIAN_POINT('Origin',(28.6000000004051,53.5732209222228,-45.9000000000002));
#1646=CARTESIAN_POINT('Origin',(81.3999999998201,69.6999999991366,-45.9000000000002));
#1647=CARTESIAN_POINT('',(81.3999999998201,74.6999999991366,-42.4000000000002));
#1648=CARTESIAN_POINT('',(86.3999999998201,69.6999999991366,-42.4000000000002));
#1649=CARTESIAN_POINT('Origin',(81.3999999998201,69.6999999991366,-42.4000000000002));
#1650=CARTESIAN_POINT('',(86.3999999998201,69.6999999991366,-45.9000000000002));
#1651=CARTESIAN_POINT('',(81.3999999998201,74.6999999991366,-45.9000000000002));
#1652=CARTESIAN_POINT('Origin',(86.3999999998201,-74.6999999999268,-45.8999999999999));
#1653=CARTESIAN_POINT('',(86.3999999998201,-69.6999999999268,-42.3999999999999));
#1654=CARTESIAN_POINT('',(86.3999999998201,-74.6999999999268,-42.3999999999999));
#1655=CARTESIAN_POINT('',(86.3999999998201,-69.6999999999268,-45.8999999999999));
#1656=CARTESIAN_POINT('Origin',(81.3999999998201,-69.6999999999268,-45.8999999999999));
#1657=CARTESIAN_POINT('',(81.3999999998201,-74.6999999999268,-42.3999999999999));
#1658=CARTESIAN_POINT('Origin',(81.3999999998201,-69.6999999999268,-42.3999999999999));
#1659=CARTESIAN_POINT('',(81.3999999998201,-74.6999999999268,-45.8999999999999));
#1660=CARTESIAN_POINT('Origin',(13.599999999863,-69.6999999999268,-45.8999999999999));
#1661=CARTESIAN_POINT('',(13.599999999863,-74.6999999999268,-42.3999999999999));
#1662=CARTESIAN_POINT('',(8.59999999986296,-69.6999999999268,-42.3999999999999));
#1663=CARTESIAN_POINT('Origin',(13.599999999863,-69.6999999999268,-42.3999999999999));
#1664=CARTESIAN_POINT('',(8.59999999986296,-69.6999999999268,-45.8999999999999));
#1665=CARTESIAN_POINT('',(13.599999999863,-74.6999999999268,-45.8999999999999));
#1666=CARTESIAN_POINT('Origin',(8.59999999986297,-49.6999999999384,-45.8999999999999));
#1667=CARTESIAN_POINT('',(8.59999999986297,-53.5732209223347,-42.3999999999999));
#1668=CARTESIAN_POINT('',(8.59999999986296,-74.6999999999268,-42.3999999999999));
#1669=CARTESIAN_POINT('',(8.59999999986297,-53.5732209223347,-45.8999999999999));
#1670=CARTESIAN_POINT('Origin',(28.599999999863,-53.5732209223347,-45.8999999999999));
#1671=CARTESIAN_POINT('',(9.94676053573933,-46.3581909505286,-42.4));
#1672=CARTESIAN_POINT('Origin',(28.599999999863,-53.5732209223347,-42.3999999999999));
#1673=CARTESIAN_POINT('',(9.94676053573933,-46.3581909505286,-45.8999999999999));
#1674=CARTESIAN_POINT('Origin',(28.6000000004051,53.5732209222228,-45.9000000000002));
#1675=CARTESIAN_POINT('',(9.94676053620845,46.3581909506055,-42.4000000000001));
#1676=CARTESIAN_POINT('Origin',(28.6000000004051,53.5732209222228,-42.4000000000002));
#1677=CARTESIAN_POINT('',(9.94676053620845,46.3581909506055,-45.9000000000002));
#1678=CARTESIAN_POINT('Origin',(-109.904500001622,6.44861088364551E-10,
-45.9));
#1679=CARTESIAN_POINT('Origin',(-109.904500001622,6.44869970148748E-10,
-42.4));
#1680=CARTESIAN_POINT('Origin',(86.3999999998201,74.6999999991366,-45.9000000000002));
#1681=CARTESIAN_POINT('',(86.3999999998201,74.6999999991366,-42.4000000000002));
#1682=CARTESIAN_POINT('Origin',(8.59999999986296,-74.6999999999268,-45.8999999999999));
#1683=CARTESIAN_POINT('',(8.59999999986296,-74.6999999999268,-42.3999999999999));
#1684=CARTESIAN_POINT('Origin',(47.4999999998415,-3.95097872041646E-10,
-42.4));
#1685=CARTESIAN_POINT('',(-49.4999999999106,2.73336908662714E-12,45.9));
#1686=UNCERTAINTY_MEASURE_WITH_UNIT(LENGTH_MEASURE(0.01),#1692,
'DISTANCE_ACCURACY_VALUE',
'Maximum model space distance between geometric entities at asserted c
onnectivities');
#1687=UNCERTAINTY_MEASURE_WITH_UNIT(LENGTH_MEASURE(0.01),#1692,
'DISTANCE_ACCURACY_VALUE',
'Maximum model space distance between geometric entities at asserted c
onnectivities');
#1688=UNCERTAINTY_MEASURE_WITH_UNIT(LENGTH_MEASURE(0.01),#1692,
'DISTANCE_ACCURACY_VALUE',
'Maximum model space distance between geometric entities at asserted c
onnectivities');
#1689=(
GEOMETRIC_REPRESENTATION_CONTEXT(3)
GLOBAL_UNCERTAINTY_ASSIGNED_CONTEXT((#1686))
GLOBAL_UNIT_ASSIGNED_CONTEXT((#1692,#1694,#1695))
REPRESENTATION_CONTEXT('','3D')
);
#1690=(
GEOMETRIC_REPRESENTATION_CONTEXT(3)
GLOBAL_UNCERTAINTY_ASSIGNED_CONTEXT((#1687))
GLOBAL_UNIT_ASSIGNED_CONTEXT((#1692,#1694,#1695))
REPRESENTATION_CONTEXT('','3D')
);
#1691=(
GEOMETRIC_REPRESENTATION_CONTEXT(3)
GLOBAL_UNCERTAINTY_ASSIGNED_CONTEXT((#1688))
GLOBAL_UNIT_ASSIGNED_CONTEXT((#1692,#1694,#1695))
REPRESENTATION_CONTEXT('','3D')
);
#1692=(
LENGTH_UNIT()
NAMED_UNIT(*)
SI_UNIT(.MILLI.,.METRE.)
);
#1693=(
LENGTH_UNIT()
NAMED_UNIT(*)
SI_UNIT($,.METRE.)
);
#1694=(
NAMED_UNIT(*)
PLANE_ANGLE_UNIT()
SI_UNIT($,.RADIAN.)
);
#1695=(
NAMED_UNIT(*)
SI_UNIT($,.STERADIAN.)
SOLID_ANGLE_UNIT()
);
#1696=SHAPE_DEFINITION_REPRESENTATION(#1698,#1701);
#1697=SHAPE_DEFINITION_REPRESENTATION(#1699,#1702);
#1698=PRODUCT_DEFINITION_SHAPE('',$,#1704);
#1699=PRODUCT_DEFINITION_SHAPE('',$,#1705);
#1700=PRODUCT_DEFINITION_SHAPE($,$,#14);
#1701=SHAPE_REPRESENTATION('',(#998,#1108),#1689);
#1702=SHAPE_REPRESENTATION('',(#999),#1690);
#1703=PRODUCT_DEFINITION_CONTEXT('part definition',#1711,'design');
#1704=PRODUCT_DEFINITION('2026-10-05-11-41-55-034','PRINT_LAYOUT',#1706,
#1703);
#1705=PRODUCT_DEFINITION('2026-10-05-11-41-55-024','DeskTop',#1707,#1703);
#1706=PRODUCT_DEFINITION_FORMATION('',$,#1713);
#1707=PRODUCT_DEFINITION_FORMATION('',$,#1714);
#1708=PRODUCT_RELATED_PRODUCT_CATEGORY('PRINT_LAYOUT','PRINT_LAYOUT',(#1713));
#1709=PRODUCT_RELATED_PRODUCT_CATEGORY('DeskTop','DeskTop',(#1714));
#1710=APPLICATION_PROTOCOL_DEFINITION('international standard',
'automotive_design',2009,#1711);
#1711=APPLICATION_CONTEXT(
'Core Data for Automotive Mechanical Design Process');
#1712=PRODUCT_CONTEXT('part definition',#1711,'mechanical');
#1713=PRODUCT('2026-10-05-11-41-55-034','PRINT_LAYOUT',$,(#1712));
#1714=PRODUCT('2026-10-05-11-41-55-024','DeskTop',$,(#1712));
#1715=PRESENTATION_STYLE_ASSIGNMENT((#1718));
#1716=PRESENTATION_STYLE_ASSIGNMENT((#1719));
#1717=PRESENTATION_STYLE_ASSIGNMENT((#1720));
#1718=SURFACE_STYLE_USAGE(.BOTH.,#1721);
#1719=SURFACE_STYLE_USAGE(.BOTH.,#1722);
#1720=SURFACE_STYLE_USAGE(.BOTH.,#1723);
#1721=SURFACE_SIDE_STYLE('',(#1724));
#1722=SURFACE_SIDE_STYLE('',(#1725));
#1723=SURFACE_SIDE_STYLE('',(#1726));
#1724=SURFACE_STYLE_FILL_AREA(#1727);
#1725=SURFACE_STYLE_FILL_AREA(#1728);
#1726=SURFACE_STYLE_FILL_AREA(#1729);
#1727=FILL_AREA_STYLE('Plastic - Matte (Black)',(#1730));
#1728=FILL_AREA_STYLE('Steel - Satin',(#1731));
#1729=FILL_AREA_STYLE('Brass - Old',(#1732));
#1730=FILL_AREA_STYLE_COLOUR('Plastic - Matte (Black)',#1733);
#1731=FILL_AREA_STYLE_COLOUR('Steel - Satin',#1734);
#1732=FILL_AREA_STYLE_COLOUR('Brass - Old',#1735);
#1733=COLOUR_RGB('Plastic - Matte (Black)',0.0980392156862745,0.0980392156862745,
0.0980392156862745);
#1734=COLOUR_RGB('Steel - Satin',0.627450980392157,0.627450980392157,0.627450980392157);
#1735=COLOUR_RGB('Brass - Old',0.,0.,0.);
ENDSEC;
END-ISO-10303-21;
