ISO-10303-21;
HEADER;
/* Generated by software containing ST-Developer
 * from STEP Tools, Inc. (www.steptools.com) 
 */

FILE_DESCRIPTION(
/* description */ (''),
/* implementation_level */ '2;1');

FILE_NAME(
/* name */ 'LampBase.step',
/* time_stamp */ '2026-09-20T10:32:41+02:00',
/* author */ (''),
/* organization */ (''),
/* preprocessor_version */ 'ST-DEVELOPER v20.2',
/* originating_system */ 'Autodesk Translation Framework v15.15.0.0',
/* authorisation */ '');

FILE_SCHEMA (('AUTOMOTIVE_DESIGN { 1 0 10303 214 3 1 1 }'));
ENDSEC;

DATA;
#10=MECHANICAL_DESIGN_GEOMETRIC_PRESENTATION_REPRESENTATION('',(#17),#1399);
#11=ITEM_DEFINED_TRANSFORMATION($,$,#757,#845);
#12=(
REPRESENTATION_RELATIONSHIP($,$,#1410,#1409)
REPRESENTATION_RELATIONSHIP_WITH_TRANSFORMATION(#11)
SHAPE_REPRESENTATION_RELATIONSHIP()
);
#13=CONTEXT_DEPENDENT_SHAPE_REPRESENTATION(#12,#1408);
#14=NEXT_ASSEMBLY_USAGE_OCCURRENCE('LampBase:1','LampBase:1',
'LampBase:1',#1412,#1413,'LampBase:1');
#15=SHAPE_REPRESENTATION_RELATIONSHIP('SRR','None',#1410,#16);
#16=ADVANCED_BREP_SHAPE_REPRESENTATION('',(#18),#1398);
#17=STYLED_ITEM('',(#1425),#18);
#18=MANIFOLD_SOLID_BREP('Body2',#743);
#19=(
BOUNDED_SURFACE()
B_SPLINE_SURFACE(2,2,((#1280,#1281,#1282),(#1283,#1284,#1285),(#1286,#1287,
#1288)),.UNSPECIFIED.,.F.,.F.,.F.)
B_SPLINE_SURFACE_WITH_KNOTS((3,3),(3,3),(-5.63018113150384E-16,1.5707963267949),
(-3.14159265358979,-1.5707963267949),.UNSPECIFIED.)
GEOMETRIC_REPRESENTATION_ITEM()
RATIONAL_B_SPLINE_SURFACE(((1.,0.707106781186548,1.),(0.707106781186541,
0.499999999999995,0.707106781186541),(1.,0.707106781186548,1.)))
REPRESENTATION_ITEM('')
SURFACE()
);
#20=(
BOUNDED_SURFACE()
B_SPLINE_SURFACE(2,2,((#1300,#1301,#1302),(#1303,#1304,#1305),(#1306,#1307,
#1308)),.UNSPECIFIED.,.F.,.F.,.F.)
B_SPLINE_SURFACE_WITH_KNOTS((3,3),(3,3),(-6.54658452365449E-15,1.57079632679491),
(1.5707963267949,3.14159265358979),.UNSPECIFIED.)
GEOMETRIC_REPRESENTATION_ITEM()
RATIONAL_B_SPLINE_SURFACE(((1.,0.707106781186548,1.),(0.70710678118654,
0.499999999999994,0.70710678118654),(1.,0.707106781186548,1.)))
REPRESENTATION_ITEM('')
SURFACE()
);
#21=(
BOUNDED_SURFACE()
B_SPLINE_SURFACE(2,2,((#1322,#1323,#1324),(#1325,#1326,#1327),(#1328,#1329,
#1330)),.UNSPECIFIED.,.F.,.F.,.F.)
B_SPLINE_SURFACE_WITH_KNOTS((3,3),(3,3),(-6.25395058986983E-16,1.57079632679491),
(-1.5707963267949,0.),.UNSPECIFIED.)
GEOMETRIC_REPRESENTATION_ITEM()
RATIONAL_B_SPLINE_SURFACE(((1.,0.707106781186548,1.),(0.707106781186548,
0.5,0.707106781186548),(1.,0.707106781186548,1.)))
REPRESENTATION_ITEM('')
SURFACE()
);
#22=(
BOUNDED_SURFACE()
B_SPLINE_SURFACE(2,2,((#1342,#1343,#1344),(#1345,#1346,#1347),(#1348,#1349,
#1350)),.UNSPECIFIED.,.F.,.F.,.F.)
B_SPLINE_SURFACE_WITH_KNOTS((3,3),(3,3),(-1.30329019786928E-14,1.5707963267949),
(0.,1.5707963267949),.UNSPECIFIED.)
GEOMETRIC_REPRESENTATION_ITEM()
RATIONAL_B_SPLINE_SURFACE(((1.,0.707106781186548,1.),(0.707106781186537,
0.499999999999993,0.707106781186537),(1.,0.707106781186548,1.)))
REPRESENTATION_ITEM('')
SURFACE()
);
#23=TOROIDAL_SURFACE('',#792,4.25,0.75);
#24=TOROIDAL_SURFACE('',#797,5.75,0.75);
#25=FACE_BOUND('',#93,.T.);
#26=FACE_BOUND('',#96,.T.);
#27=FACE_BOUND('',#98,.T.);
#28=FACE_BOUND('',#99,.T.);
#29=FACE_BOUND('',#100,.T.);
#30=FACE_BOUND('',#130,.T.);
#31=FACE_BOUND('',#131,.T.);
#32=FACE_BOUND('',#132,.T.);
#33=FACE_BOUND('',#133,.T.);
#34=FACE_BOUND('',#134,.T.);
#35=FACE_BOUND('',#135,.T.);
#36=FACE_BOUND('',#138,.T.);
#37=PLANE('',#761);
#38=PLANE('',#767);
#39=PLANE('',#769);
#40=PLANE('',#782);
#41=PLANE('',#785);
#42=PLANE('',#788);
#43=PLANE('',#791);
#44=PLANE('',#806);
#45=PLANE('',#831);
#46=PLANE('',#832);
#47=PLANE('',#834);
#48=PLANE('',#840);
#49=PLANE('',#843);
#50=PLANE('',#844);
#51=FACE_OUTER_BOUND('',#91,.T.);
#52=FACE_OUTER_BOUND('',#92,.T.);
#53=FACE_OUTER_BOUND('',#94,.T.);
#54=FACE_OUTER_BOUND('',#95,.T.);
#55=FACE_OUTER_BOUND('',#97,.T.);
#56=FACE_OUTER_BOUND('',#101,.T.);
#57=FACE_OUTER_BOUND('',#102,.T.);
#58=FACE_OUTER_BOUND('',#103,.T.);
#59=FACE_OUTER_BOUND('',#104,.T.);
#60=FACE_OUTER_BOUND('',#105,.T.);
#61=FACE_OUTER_BOUND('',#106,.T.);
#62=FACE_OUTER_BOUND('',#107,.T.);
#63=FACE_OUTER_BOUND('',#108,.T.);
#64=FACE_OUTER_BOUND('',#109,.T.);
#65=FACE_OUTER_BOUND('',#110,.T.);
#66=FACE_OUTER_BOUND('',#111,.T.);
#67=FACE_OUTER_BOUND('',#112,.T.);
#68=FACE_OUTER_BOUND('',#113,.T.);
#69=FACE_OUTER_BOUND('',#114,.T.);
#70=FACE_OUTER_BOUND('',#115,.T.);
#71=FACE_OUTER_BOUND('',#116,.T.);
#72=FACE_OUTER_BOUND('',#117,.T.);
#73=FACE_OUTER_BOUND('',#118,.T.);
#74=FACE_OUTER_BOUND('',#119,.T.);
#75=FACE_OUTER_BOUND('',#120,.T.);
#76=FACE_OUTER_BOUND('',#121,.T.);
#77=FACE_OUTER_BOUND('',#122,.T.);
#78=FACE_OUTER_BOUND('',#123,.T.);
#79=FACE_OUTER_BOUND('',#124,.T.);
#80=FACE_OUTER_BOUND('',#125,.T.);
#81=FACE_OUTER_BOUND('',#126,.T.);
#82=FACE_OUTER_BOUND('',#127,.T.);
#83=FACE_OUTER_BOUND('',#128,.T.);
#84=FACE_OUTER_BOUND('',#129,.T.);
#85=FACE_OUTER_BOUND('',#136,.T.);
#86=FACE_OUTER_BOUND('',#137,.T.);
#87=FACE_OUTER_BOUND('',#139,.T.);
#88=FACE_OUTER_BOUND('',#140,.T.);
#89=FACE_OUTER_BOUND('',#141,.T.);
#90=FACE_OUTER_BOUND('',#142,.T.);
#91=EDGE_LOOP('',(#471,#472,#473,#474,#475,#476));
#92=EDGE_LOOP('',(#477));
#93=EDGE_LOOP('',(#478));
#94=EDGE_LOOP('',(#479,#480,#481,#482,#483,#484));
#95=EDGE_LOOP('',(#485));
#96=EDGE_LOOP('',(#486));
#97=EDGE_LOOP('',(#487,#488,#489,#490,#491,#492,#493,#494,#495,#496,#497,
#498,#499));
#98=EDGE_LOOP('',(#500,#501));
#99=EDGE_LOOP('',(#502,#503,#504,#505));
#100=EDGE_LOOP('',(#506,#507,#508,#509));
#101=EDGE_LOOP('',(#510,#511,#512,#513));
#102=EDGE_LOOP('',(#514,#515,#516,#517));
#103=EDGE_LOOP('',(#518,#519,#520,#521));
#104=EDGE_LOOP('',(#522,#523,#524,#525));
#105=EDGE_LOOP('',(#526,#527,#528,#529));
#106=EDGE_LOOP('',(#530,#531,#532,#533));
#107=EDGE_LOOP('',(#534,#535,#536,#537));
#108=EDGE_LOOP('',(#538,#539,#540,#541));
#109=EDGE_LOOP('',(#542,#543,#544,#545));
#110=EDGE_LOOP('',(#546,#547,#548,#549));
#111=EDGE_LOOP('',(#550,#551,#552,#553));
#112=EDGE_LOOP('',(#554,#555,#556,#557,#558,#559,#560,#561,#562,#563,#564,
#565,#566,#567,#568,#569));
#113=EDGE_LOOP('',(#570,#571,#572,#573,#574));
#114=EDGE_LOOP('',(#575,#576,#577,#578));
#115=EDGE_LOOP('',(#579,#580,#581,#582));
#116=EDGE_LOOP('',(#583,#584,#585,#586));
#117=EDGE_LOOP('',(#587,#588,#589,#590));
#118=EDGE_LOOP('',(#591,#592,#593,#594,#595,#596));
#119=EDGE_LOOP('',(#597,#598,#599,#600));
#120=EDGE_LOOP('',(#601,#602,#603,#604));
#121=EDGE_LOOP('',(#605,#606,#607,#608));
#122=EDGE_LOOP('',(#609,#610,#611,#612));
#123=EDGE_LOOP('',(#613,#614,#615,#616));
#124=EDGE_LOOP('',(#617,#618,#619,#620,#621,#622,#623));
#125=EDGE_LOOP('',(#624,#625,#626,#627));
#126=EDGE_LOOP('',(#628,#629,#630,#631));
#127=EDGE_LOOP('',(#632,#633,#634,#635));
#128=EDGE_LOOP('',(#636,#637,#638,#639));
#129=EDGE_LOOP('',(#640,#641,#642,#643,#644,#645,#646,#647));
#130=EDGE_LOOP('',(#648));
#131=EDGE_LOOP('',(#649));
#132=EDGE_LOOP('',(#650,#651,#652,#653));
#133=EDGE_LOOP('',(#654));
#134=EDGE_LOOP('',(#655));
#135=EDGE_LOOP('',(#656,#657,#658,#659));
#136=EDGE_LOOP('',(#660,#661,#662,#663));
#137=EDGE_LOOP('',(#664,#665));
#138=EDGE_LOOP('',(#666));
#139=EDGE_LOOP('',(#667,#668,#669,#670));
#140=EDGE_LOOP('',(#671,#672,#673,#674));
#141=EDGE_LOOP('',(#675,#676,#677,#678));
#142=EDGE_LOOP('',(#679,#680,#681,#682));
#143=LINE('',#1098,#191);
#144=LINE('',#1123,#192);
#145=LINE('',#1131,#193);
#146=LINE('',#1135,#194);
#147=LINE('',#1138,#195);
#148=LINE('',#1140,#196);
#149=LINE('',#1144,#197);
#150=LINE('',#1147,#198);
#151=LINE('',#1154,#199);
#152=LINE('',#1158,#200);
#153=LINE('',#1162,#201);
#154=LINE('',#1166,#202);
#155=LINE('',#1172,#203);
#156=LINE('',#1173,#204);
#157=LINE('',#1176,#205);
#158=LINE('',#1177,#206);
#159=LINE('',#1182,#207);
#160=LINE('',#1183,#208);
#161=LINE('',#1186,#209);
#162=LINE('',#1187,#210);
#163=LINE('',#1191,#211);
#164=LINE('',#1193,#212);
#165=LINE('',#1197,#213);
#166=LINE('',#1199,#214);
#167=LINE('',#1233,#215);
#168=LINE('',#1236,#216);
#169=LINE('',#1270,#217);
#170=LINE('',#1271,#218);
#171=LINE('',#1275,#219);
#172=LINE('',#1298,#220);
#173=LINE('',#1299,#221);
#174=LINE('',#1318,#222);
#175=LINE('',#1319,#223);
#176=LINE('',#1321,#224);
#177=LINE('',#1340,#225);
#178=LINE('',#1341,#226);
#179=LINE('',#1360,#227);
#180=LINE('',#1361,#228);
#181=LINE('',#1363,#229);
#182=LINE('',#1365,#230);
#183=LINE('',#1367,#231);
#184=LINE('',#1369,#232);
#185=LINE('',#1371,#233);
#186=LINE('',#1374,#234);
#187=LINE('',#1375,#235);
#188=LINE('',#1385,#236);
#189=LINE('',#1388,#237);
#190=LINE('',#1390,#238);
#191=VECTOR('',#854,2.);
#192=VECTOR('',#865,2.);
#193=VECTOR('',#876,10.);
#194=VECTOR('',#879,10.);
#195=VECTOR('',#882,10.);
#196=VECTOR('',#883,10.);
#197=VECTOR('',#886,10.);
#198=VECTOR('',#889,10.);
#199=VECTOR('',#894,10.);
#200=VECTOR('',#897,10.);
#201=VECTOR('',#900,10.);
#202=VECTOR('',#903,10.);
#203=VECTOR('',#910,10.);
#204=VECTOR('',#911,10.);
#205=VECTOR('',#914,10.);
#206=VECTOR('',#915,10.);
#207=VECTOR('',#920,10.);
#208=VECTOR('',#921,10.);
#209=VECTOR('',#924,10.);
#210=VECTOR('',#925,10.);
#211=VECTOR('',#930,10.);
#212=VECTOR('',#933,10.);
#213=VECTOR('',#938,10.);
#214=VECTOR('',#941,10.);
#215=VECTOR('',#950,10.);
#216=VECTOR('',#953,10.);
#217=VECTOR('',#964,10.);
#218=VECTOR('',#965,10.);
#219=VECTOR('',#968,1.75);
#220=VECTOR('',#987,10.);
#221=VECTOR('',#988,10.);
#222=VECTOR('',#999,10.);
#223=VECTOR('',#1000,10.);
#224=VECTOR('',#1003,10.);
#225=VECTOR('',#1014,10.);
#226=VECTOR('',#1015,10.);
#227=VECTOR('',#1026,10.);
#228=VECTOR('',#1027,10.);
#229=VECTOR('',#1030,10.);
#230=VECTOR('',#1033,10.);
#231=VECTOR('',#1036,10.);
#232=VECTOR('',#1039,10.);
#233=VECTOR('',#1042,10.);
#234=VECTOR('',#1047,10.);
#235=VECTOR('',#1048,10.);
#236=VECTOR('',#1059,3.5);
#237=VECTOR('',#1064,1.05);
#238=VECTOR('',#1067,1.05);
#239=CIRCLE('',#759,2.);
#240=CIRCLE('',#760,2.);
#241=CIRCLE('',#762,1.05);
#242=CIRCLE('',#764,2.);
#243=CIRCLE('',#765,2.);
#244=CIRCLE('',#766,2.);
#245=CIRCLE('',#768,1.05);
#246=CIRCLE('',#770,1.49999999999999);
#247=CIRCLE('',#771,1.49999999999999);
#248=CIRCLE('',#772,1.5);
#249=CIRCLE('',#773,1.49999999999999);
#250=CIRCLE('',#774,6.5);
#251=CIRCLE('',#775,1.75);
#252=CIRCLE('',#776,0.75);
#253=CIRCLE('',#777,0.75);
#254=CIRCLE('',#778,0.75);
#255=CIRCLE('',#779,0.75);
#256=CIRCLE('',#781,0.75);
#257=CIRCLE('',#784,0.75);
#258=CIRCLE('',#787,0.75);
#259=CIRCLE('',#790,0.75);
#260=CIRCLE('',#793,5.);
#261=CIRCLE('',#794,4.25);
#262=CIRCLE('',#796,5.);
#263=CIRCLE('',#798,6.5);
#264=CIRCLE('',#799,5.75);
#265=CIRCLE('',#801,1.75);
#266=CIRCLE('',#802,1.75);
#267=CIRCLE('',#803,1.75);
#268=CIRCLE('',#804,1.75);
#269=CIRCLE('',#805,1.75);
#270=CIRCLE('',#807,1.5);
#271=CIRCLE('',#808,3.);
#272=CIRCLE('',#809,1.5);
#273=CIRCLE('',#811,3.);
#274=CIRCLE('',#812,1.5);
#275=CIRCLE('',#813,3.);
#276=CIRCLE('',#814,1.50000000000001);
#277=CIRCLE('',#816,3.);
#278=CIRCLE('',#818,1.5);
#279=CIRCLE('',#819,3.);
#280=CIRCLE('',#820,1.5);
#281=CIRCLE('',#822,3.);
#282=CIRCLE('',#823,1.5);
#283=CIRCLE('',#824,3.);
#284=CIRCLE('',#825,1.50000000000001);
#285=CIRCLE('',#827,3.);
#286=CIRCLE('',#835,3.5);
#287=CIRCLE('',#836,1.05);
#288=CIRCLE('',#837,1.05);
#289=CIRCLE('',#839,3.5);
#290=B_SPLINE_CURVE_WITH_KNOTS('',3,(#1079,#1080,#1081,#1082,#1083,#1084,
#1085,#1086),.UNSPECIFIED.,.F.,.F.,(4,2,2,4),(0.232542351563828,0.245566308756757,
0.330023513762428,0.414480718768099),.UNSPECIFIED.);
#291=B_SPLINE_CURVE_WITH_KNOTS('',3,(#1089,#1090,#1091,#1092,#1093,#1094,
#1095,#1096),.UNSPECIFIED.,.F.,.F.,(4,2,2,4),(0.414480718768099,0.498937923773769,
0.58339512877944,0.596419085972369),.UNSPECIFIED.);
#292=B_SPLINE_CURVE_WITH_KNOTS('',3,(#1106,#1107,#1108,#1109,#1110,#1111,
#1112,#1113,#1114,#1115,#1116,#1117,#1118,#1119),.UNSPECIFIED.,.F.,.F.,
(4,2,2,2,2,2,4),(0.232542351563828,0.245566308756755,0.330023513762425,
0.414480718768095,0.498937923773765,0.583395128779435,0.596419085972361),
 .UNSPECIFIED.);
#293=B_SPLINE_CURVE_WITH_KNOTS('',3,(#1203,#1204,#1205,#1206,#1207,#1208,
#1209,#1210,#1211,#1212,#1213,#1214),.UNSPECIFIED.,.F.,.F.,(4,2,2,2,2,4),
(1.27824806402287,1.3205937401927,1.380270061104,1.43586022656258,1.49002157064235,
1.53015316738315),.UNSPECIFIED.);
#294=B_SPLINE_CURVE_WITH_KNOTS('',3,(#1218,#1219,#1220,#1221,#1222,#1223,
#1224,#1225,#1226,#1227,#1228,#1229),.UNSPECIFIED.,.F.,.F.,(4,2,2,2,2,4),
(0.969370662567557,0.992247155913739,1.0198203381654,1.04689223684664,1.07544030282822,
1.10644991638315),.UNSPECIFIED.);
#295=B_SPLINE_CURVE_WITH_KNOTS('',3,(#1240,#1241,#1242,#1243,#1244,#1245,
#1246,#1247,#1248,#1249,#1250,#1251),.UNSPECIFIED.,.F.,.F.,(4,2,2,2,2,4),
(0.358802867312728,0.36891367572238,0.396932432910225,0.427888327185457,
0.45395756359776,0.48033211418694),.UNSPECIFIED.);
#296=B_SPLINE_CURVE_WITH_KNOTS('',3,(#1255,#1256,#1257,#1258,#1259,#1260,
#1261,#1262,#1263,#1264,#1265,#1266),.UNSPECIFIED.,.F.,.F.,(4,2,2,2,2,4),
(0.480332114187015,0.505479276943075,0.532860583305155,0.564179300381309,
0.593926922931335,0.601855576045008),.UNSPECIFIED.);
#297=VERTEX_POINT('',#1077);
#298=VERTEX_POINT('',#1078);
#299=VERTEX_POINT('',#1087);
#300=VERTEX_POINT('',#1097);
#301=VERTEX_POINT('',#1101);
#302=VERTEX_POINT('',#1104);
#303=VERTEX_POINT('',#1105);
#304=VERTEX_POINT('',#1120);
#305=VERTEX_POINT('',#1122);
#306=VERTEX_POINT('',#1127);
#307=VERTEX_POINT('',#1130);
#308=VERTEX_POINT('',#1132);
#309=VERTEX_POINT('',#1134);
#310=VERTEX_POINT('',#1136);
#311=VERTEX_POINT('',#1139);
#312=VERTEX_POINT('',#1141);
#313=VERTEX_POINT('',#1143);
#314=VERTEX_POINT('',#1145);
#315=VERTEX_POINT('',#1148);
#316=VERTEX_POINT('',#1149);
#317=VERTEX_POINT('',#1152);
#318=VERTEX_POINT('',#1153);
#319=VERTEX_POINT('',#1155);
#320=VERTEX_POINT('',#1157);
#321=VERTEX_POINT('',#1160);
#322=VERTEX_POINT('',#1161);
#323=VERTEX_POINT('',#1163);
#324=VERTEX_POINT('',#1165);
#325=VERTEX_POINT('',#1169);
#326=VERTEX_POINT('',#1170);
#327=VERTEX_POINT('',#1175);
#328=VERTEX_POINT('',#1179);
#329=VERTEX_POINT('',#1180);
#330=VERTEX_POINT('',#1185);
#331=VERTEX_POINT('',#1189);
#332=VERTEX_POINT('',#1195);
#333=VERTEX_POINT('',#1201);
#334=VERTEX_POINT('',#1202);
#335=VERTEX_POINT('',#1215);
#336=VERTEX_POINT('',#1217);
#337=VERTEX_POINT('',#1232);
#338=VERTEX_POINT('',#1234);
#339=VERTEX_POINT('',#1238);
#340=VERTEX_POINT('',#1239);
#341=VERTEX_POINT('',#1252);
#342=VERTEX_POINT('',#1254);
#343=VERTEX_POINT('',#1272);
#344=VERTEX_POINT('',#1274);
#345=VERTEX_POINT('',#1289);
#346=VERTEX_POINT('',#1291);
#347=VERTEX_POINT('',#1295);
#348=VERTEX_POINT('',#1296);
#349=VERTEX_POINT('',#1309);
#350=VERTEX_POINT('',#1311);
#351=VERTEX_POINT('',#1315);
#352=VERTEX_POINT('',#1316);
#353=VERTEX_POINT('',#1331);
#354=VERTEX_POINT('',#1333);
#355=VERTEX_POINT('',#1337);
#356=VERTEX_POINT('',#1338);
#357=VERTEX_POINT('',#1351);
#358=VERTEX_POINT('',#1353);
#359=VERTEX_POINT('',#1357);
#360=VERTEX_POINT('',#1358);
#361=VERTEX_POINT('',#1376);
#362=VERTEX_POINT('',#1378);
#363=VERTEX_POINT('',#1380);
#364=VERTEX_POINT('',#1383);
#365=EDGE_CURVE('',#297,#298,#290,.T.);
#366=EDGE_CURVE('',#299,#297,#239,.T.);
#367=EDGE_CURVE('',#298,#299,#291,.T.);
#368=EDGE_CURVE('',#298,#300,#143,.T.);
#369=EDGE_CURVE('',#300,#300,#240,.T.);
#370=EDGE_CURVE('',#301,#301,#241,.T.);
#371=EDGE_CURVE('',#302,#303,#292,.T.);
#372=EDGE_CURVE('',#304,#302,#242,.T.);
#373=EDGE_CURVE('',#304,#305,#144,.T.);
#374=EDGE_CURVE('',#305,#305,#243,.T.);
#375=EDGE_CURVE('',#303,#304,#244,.T.);
#376=EDGE_CURVE('',#306,#306,#245,.T.);
#377=EDGE_CURVE('',#307,#297,#145,.T.);
#378=EDGE_CURVE('',#308,#307,#246,.T.);
#379=EDGE_CURVE('',#309,#308,#146,.T.);
#380=EDGE_CURVE('',#310,#309,#247,.T.);
#381=EDGE_CURVE('',#303,#310,#147,.T.);
#382=EDGE_CURVE('',#311,#302,#148,.T.);
#383=EDGE_CURVE('',#312,#311,#248,.T.);
#384=EDGE_CURVE('',#313,#312,#149,.T.);
#385=EDGE_CURVE('',#314,#313,#249,.T.);
#386=EDGE_CURVE('',#299,#314,#150,.T.);
#387=EDGE_CURVE('',#315,#316,#250,.T.);
#388=EDGE_CURVE('',#316,#315,#251,.T.);
#389=EDGE_CURVE('',#317,#318,#151,.T.);
#390=EDGE_CURVE('',#319,#318,#252,.T.);
#391=EDGE_CURVE('',#319,#320,#152,.T.);
#392=EDGE_CURVE('',#317,#320,#253,.T.);
#393=EDGE_CURVE('',#321,#322,#153,.T.);
#394=EDGE_CURVE('',#323,#322,#254,.T.);
#395=EDGE_CURVE('',#323,#324,#154,.T.);
#396=EDGE_CURVE('',#321,#324,#255,.T.);
#397=EDGE_CURVE('',#325,#326,#256,.T.);
#398=EDGE_CURVE('',#326,#317,#155,.T.);
#399=EDGE_CURVE('',#320,#325,#156,.T.);
#400=EDGE_CURVE('',#326,#327,#157,.T.);
#401=EDGE_CURVE('',#318,#327,#158,.T.);
#402=EDGE_CURVE('',#328,#329,#257,.T.);
#403=EDGE_CURVE('',#329,#321,#159,.T.);
#404=EDGE_CURVE('',#324,#328,#160,.T.);
#405=EDGE_CURVE('',#329,#330,#161,.T.);
#406=EDGE_CURVE('',#322,#330,#162,.T.);
#407=EDGE_CURVE('',#330,#331,#258,.T.);
#408=EDGE_CURVE('',#331,#323,#163,.T.);
#409=EDGE_CURVE('',#331,#328,#164,.T.);
#410=EDGE_CURVE('',#327,#332,#259,.T.);
#411=EDGE_CURVE('',#332,#319,#165,.T.);
#412=EDGE_CURVE('',#332,#325,#166,.T.);
#413=EDGE_CURVE('',#333,#334,#293,.T.);
#414=EDGE_CURVE('',#334,#335,#260,.T.);
#415=EDGE_CURVE('',#335,#336,#294,.T.);
#416=EDGE_CURVE('',#336,#333,#261,.T.);
#417=EDGE_CURVE('',#337,#334,#167,.T.);
#418=EDGE_CURVE('',#337,#338,#262,.T.);
#419=EDGE_CURVE('',#338,#335,#168,.T.);
#420=EDGE_CURVE('',#339,#340,#295,.T.);
#421=EDGE_CURVE('',#340,#341,#263,.T.);
#422=EDGE_CURVE('',#341,#342,#296,.T.);
#423=EDGE_CURVE('',#342,#339,#264,.T.);
#424=EDGE_CURVE('',#338,#342,#265,.F.);
#425=EDGE_CURVE('',#315,#341,#169,.T.);
#426=EDGE_CURVE('',#316,#340,#170,.T.);
#427=EDGE_CURVE('',#339,#343,#266,.F.);
#428=EDGE_CURVE('',#343,#344,#171,.T.);
#429=EDGE_CURVE('',#344,#344,#267,.T.);
#430=EDGE_CURVE('',#343,#337,#268,.F.);
#431=EDGE_CURVE('',#333,#336,#269,.F.);
#432=EDGE_CURVE('',#345,#311,#270,.T.);
#433=EDGE_CURVE('',#346,#345,#271,.F.);
#434=EDGE_CURVE('',#312,#346,#272,.T.);
#435=EDGE_CURVE('',#347,#348,#273,.T.);
#436=EDGE_CURVE('',#348,#346,#172,.T.);
#437=EDGE_CURVE('',#345,#347,#173,.T.);
#438=EDGE_CURVE('',#349,#309,#274,.T.);
#439=EDGE_CURVE('',#350,#349,#275,.F.);
#440=EDGE_CURVE('',#310,#350,#276,.T.);
#441=EDGE_CURVE('',#351,#352,#277,.T.);
#442=EDGE_CURVE('',#352,#350,#174,.T.);
#443=EDGE_CURVE('',#349,#351,#175,.T.);
#444=EDGE_CURVE('',#350,#345,#176,.T.);
#445=EDGE_CURVE('',#353,#313,#278,.T.);
#446=EDGE_CURVE('',#354,#353,#279,.F.);
#447=EDGE_CURVE('',#314,#354,#280,.T.);
#448=EDGE_CURVE('',#355,#356,#281,.T.);
#449=EDGE_CURVE('',#356,#354,#177,.T.);
#450=EDGE_CURVE('',#353,#355,#178,.T.);
#451=EDGE_CURVE('',#357,#307,#282,.T.);
#452=EDGE_CURVE('',#358,#357,#283,.F.);
#453=EDGE_CURVE('',#308,#358,#284,.T.);
#454=EDGE_CURVE('',#359,#360,#285,.T.);
#455=EDGE_CURVE('',#360,#358,#179,.T.);
#456=EDGE_CURVE('',#357,#359,#180,.T.);
#457=EDGE_CURVE('',#358,#349,#181,.T.);
#458=EDGE_CURVE('',#354,#357,#182,.T.);
#459=EDGE_CURVE('',#346,#353,#183,.T.);
#460=EDGE_CURVE('',#347,#352,#184,.T.);
#461=EDGE_CURVE('',#351,#360,#185,.T.);
#462=EDGE_CURVE('',#359,#356,#186,.T.);
#463=EDGE_CURVE('',#355,#348,#187,.T.);
#464=EDGE_CURVE('',#361,#361,#286,.T.);
#465=EDGE_CURVE('',#362,#362,#287,.T.);
#466=EDGE_CURVE('',#363,#363,#288,.T.);
#467=EDGE_CURVE('',#364,#364,#289,.F.);
#468=EDGE_CURVE('',#364,#361,#188,.T.);
#469=EDGE_CURVE('',#306,#362,#189,.T.);
#470=EDGE_CURVE('',#301,#363,#190,.T.);
#471=ORIENTED_EDGE('',*,*,#365,.F.);
#472=ORIENTED_EDGE('',*,*,#366,.F.);
#473=ORIENTED_EDGE('',*,*,#367,.F.);
#474=ORIENTED_EDGE('',*,*,#368,.T.);
#475=ORIENTED_EDGE('',*,*,#369,.T.);
#476=ORIENTED_EDGE('',*,*,#368,.F.);
#477=ORIENTED_EDGE('',*,*,#369,.F.);
#478=ORIENTED_EDGE('',*,*,#370,.F.);
#479=ORIENTED_EDGE('',*,*,#371,.F.);
#480=ORIENTED_EDGE('',*,*,#372,.F.);
#481=ORIENTED_EDGE('',*,*,#373,.T.);
#482=ORIENTED_EDGE('',*,*,#374,.T.);
#483=ORIENTED_EDGE('',*,*,#373,.F.);
#484=ORIENTED_EDGE('',*,*,#375,.F.);
#485=ORIENTED_EDGE('',*,*,#374,.F.);
#486=ORIENTED_EDGE('',*,*,#376,.F.);
#487=ORIENTED_EDGE('',*,*,#366,.T.);
#488=ORIENTED_EDGE('',*,*,#377,.F.);
#489=ORIENTED_EDGE('',*,*,#378,.F.);
#490=ORIENTED_EDGE('',*,*,#379,.F.);
#491=ORIENTED_EDGE('',*,*,#380,.F.);
#492=ORIENTED_EDGE('',*,*,#381,.F.);
#493=ORIENTED_EDGE('',*,*,#375,.T.);
#494=ORIENTED_EDGE('',*,*,#372,.T.);
#495=ORIENTED_EDGE('',*,*,#382,.F.);
#496=ORIENTED_EDGE('',*,*,#383,.F.);
#497=ORIENTED_EDGE('',*,*,#384,.F.);
#498=ORIENTED_EDGE('',*,*,#385,.F.);
#499=ORIENTED_EDGE('',*,*,#386,.F.);
#500=ORIENTED_EDGE('',*,*,#387,.T.);
#501=ORIENTED_EDGE('',*,*,#388,.T.);
#502=ORIENTED_EDGE('',*,*,#389,.T.);
#503=ORIENTED_EDGE('',*,*,#390,.F.);
#504=ORIENTED_EDGE('',*,*,#391,.T.);
#505=ORIENTED_EDGE('',*,*,#392,.F.);
#506=ORIENTED_EDGE('',*,*,#393,.T.);
#507=ORIENTED_EDGE('',*,*,#394,.F.);
#508=ORIENTED_EDGE('',*,*,#395,.T.);
#509=ORIENTED_EDGE('',*,*,#396,.F.);
#510=ORIENTED_EDGE('',*,*,#397,.T.);
#511=ORIENTED_EDGE('',*,*,#398,.T.);
#512=ORIENTED_EDGE('',*,*,#392,.T.);
#513=ORIENTED_EDGE('',*,*,#399,.T.);
#514=ORIENTED_EDGE('',*,*,#398,.F.);
#515=ORIENTED_EDGE('',*,*,#400,.T.);
#516=ORIENTED_EDGE('',*,*,#401,.F.);
#517=ORIENTED_EDGE('',*,*,#389,.F.);
#518=ORIENTED_EDGE('',*,*,#402,.T.);
#519=ORIENTED_EDGE('',*,*,#403,.T.);
#520=ORIENTED_EDGE('',*,*,#396,.T.);
#521=ORIENTED_EDGE('',*,*,#404,.T.);
#522=ORIENTED_EDGE('',*,*,#403,.F.);
#523=ORIENTED_EDGE('',*,*,#405,.T.);
#524=ORIENTED_EDGE('',*,*,#406,.F.);
#525=ORIENTED_EDGE('',*,*,#393,.F.);
#526=ORIENTED_EDGE('',*,*,#407,.T.);
#527=ORIENTED_EDGE('',*,*,#408,.T.);
#528=ORIENTED_EDGE('',*,*,#394,.T.);
#529=ORIENTED_EDGE('',*,*,#406,.T.);
#530=ORIENTED_EDGE('',*,*,#404,.F.);
#531=ORIENTED_EDGE('',*,*,#395,.F.);
#532=ORIENTED_EDGE('',*,*,#408,.F.);
#533=ORIENTED_EDGE('',*,*,#409,.T.);
#534=ORIENTED_EDGE('',*,*,#410,.T.);
#535=ORIENTED_EDGE('',*,*,#411,.T.);
#536=ORIENTED_EDGE('',*,*,#390,.T.);
#537=ORIENTED_EDGE('',*,*,#401,.T.);
#538=ORIENTED_EDGE('',*,*,#399,.F.);
#539=ORIENTED_EDGE('',*,*,#391,.F.);
#540=ORIENTED_EDGE('',*,*,#411,.F.);
#541=ORIENTED_EDGE('',*,*,#412,.T.);
#542=ORIENTED_EDGE('',*,*,#413,.T.);
#543=ORIENTED_EDGE('',*,*,#414,.T.);
#544=ORIENTED_EDGE('',*,*,#415,.T.);
#545=ORIENTED_EDGE('',*,*,#416,.T.);
#546=ORIENTED_EDGE('',*,*,#414,.F.);
#547=ORIENTED_EDGE('',*,*,#417,.F.);
#548=ORIENTED_EDGE('',*,*,#418,.T.);
#549=ORIENTED_EDGE('',*,*,#419,.T.);
#550=ORIENTED_EDGE('',*,*,#420,.T.);
#551=ORIENTED_EDGE('',*,*,#421,.T.);
#552=ORIENTED_EDGE('',*,*,#422,.T.);
#553=ORIENTED_EDGE('',*,*,#423,.T.);
#554=ORIENTED_EDGE('',*,*,#415,.F.);
#555=ORIENTED_EDGE('',*,*,#419,.F.);
#556=ORIENTED_EDGE('',*,*,#424,.T.);
#557=ORIENTED_EDGE('',*,*,#422,.F.);
#558=ORIENTED_EDGE('',*,*,#425,.F.);
#559=ORIENTED_EDGE('',*,*,#388,.F.);
#560=ORIENTED_EDGE('',*,*,#426,.T.);
#561=ORIENTED_EDGE('',*,*,#420,.F.);
#562=ORIENTED_EDGE('',*,*,#427,.T.);
#563=ORIENTED_EDGE('',*,*,#428,.T.);
#564=ORIENTED_EDGE('',*,*,#429,.T.);
#565=ORIENTED_EDGE('',*,*,#428,.F.);
#566=ORIENTED_EDGE('',*,*,#430,.T.);
#567=ORIENTED_EDGE('',*,*,#417,.T.);
#568=ORIENTED_EDGE('',*,*,#413,.F.);
#569=ORIENTED_EDGE('',*,*,#431,.T.);
#570=ORIENTED_EDGE('',*,*,#423,.F.);
#571=ORIENTED_EDGE('',*,*,#424,.F.);
#572=ORIENTED_EDGE('',*,*,#418,.F.);
#573=ORIENTED_EDGE('',*,*,#430,.F.);
#574=ORIENTED_EDGE('',*,*,#427,.F.);
#575=ORIENTED_EDGE('',*,*,#432,.F.);
#576=ORIENTED_EDGE('',*,*,#433,.F.);
#577=ORIENTED_EDGE('',*,*,#434,.F.);
#578=ORIENTED_EDGE('',*,*,#383,.T.);
#579=ORIENTED_EDGE('',*,*,#435,.T.);
#580=ORIENTED_EDGE('',*,*,#436,.T.);
#581=ORIENTED_EDGE('',*,*,#433,.T.);
#582=ORIENTED_EDGE('',*,*,#437,.T.);
#583=ORIENTED_EDGE('',*,*,#438,.F.);
#584=ORIENTED_EDGE('',*,*,#439,.F.);
#585=ORIENTED_EDGE('',*,*,#440,.F.);
#586=ORIENTED_EDGE('',*,*,#380,.T.);
#587=ORIENTED_EDGE('',*,*,#441,.T.);
#588=ORIENTED_EDGE('',*,*,#442,.T.);
#589=ORIENTED_EDGE('',*,*,#439,.T.);
#590=ORIENTED_EDGE('',*,*,#443,.T.);
#591=ORIENTED_EDGE('',*,*,#371,.T.);
#592=ORIENTED_EDGE('',*,*,#381,.T.);
#593=ORIENTED_EDGE('',*,*,#440,.T.);
#594=ORIENTED_EDGE('',*,*,#444,.T.);
#595=ORIENTED_EDGE('',*,*,#432,.T.);
#596=ORIENTED_EDGE('',*,*,#382,.T.);
#597=ORIENTED_EDGE('',*,*,#445,.F.);
#598=ORIENTED_EDGE('',*,*,#446,.F.);
#599=ORIENTED_EDGE('',*,*,#447,.F.);
#600=ORIENTED_EDGE('',*,*,#385,.T.);
#601=ORIENTED_EDGE('',*,*,#448,.T.);
#602=ORIENTED_EDGE('',*,*,#449,.T.);
#603=ORIENTED_EDGE('',*,*,#446,.T.);
#604=ORIENTED_EDGE('',*,*,#450,.T.);
#605=ORIENTED_EDGE('',*,*,#451,.F.);
#606=ORIENTED_EDGE('',*,*,#452,.F.);
#607=ORIENTED_EDGE('',*,*,#453,.F.);
#608=ORIENTED_EDGE('',*,*,#378,.T.);
#609=ORIENTED_EDGE('',*,*,#454,.T.);
#610=ORIENTED_EDGE('',*,*,#455,.T.);
#611=ORIENTED_EDGE('',*,*,#452,.T.);
#612=ORIENTED_EDGE('',*,*,#456,.T.);
#613=ORIENTED_EDGE('',*,*,#438,.T.);
#614=ORIENTED_EDGE('',*,*,#379,.T.);
#615=ORIENTED_EDGE('',*,*,#453,.T.);
#616=ORIENTED_EDGE('',*,*,#457,.T.);
#617=ORIENTED_EDGE('',*,*,#365,.T.);
#618=ORIENTED_EDGE('',*,*,#367,.T.);
#619=ORIENTED_EDGE('',*,*,#386,.T.);
#620=ORIENTED_EDGE('',*,*,#447,.T.);
#621=ORIENTED_EDGE('',*,*,#458,.T.);
#622=ORIENTED_EDGE('',*,*,#451,.T.);
#623=ORIENTED_EDGE('',*,*,#377,.T.);
#624=ORIENTED_EDGE('',*,*,#445,.T.);
#625=ORIENTED_EDGE('',*,*,#384,.T.);
#626=ORIENTED_EDGE('',*,*,#434,.T.);
#627=ORIENTED_EDGE('',*,*,#459,.T.);
#628=ORIENTED_EDGE('',*,*,#437,.F.);
#629=ORIENTED_EDGE('',*,*,#444,.F.);
#630=ORIENTED_EDGE('',*,*,#442,.F.);
#631=ORIENTED_EDGE('',*,*,#460,.F.);
#632=ORIENTED_EDGE('',*,*,#443,.F.);
#633=ORIENTED_EDGE('',*,*,#457,.F.);
#634=ORIENTED_EDGE('',*,*,#455,.F.);
#635=ORIENTED_EDGE('',*,*,#461,.F.);
#636=ORIENTED_EDGE('',*,*,#421,.F.);
#637=ORIENTED_EDGE('',*,*,#426,.F.);
#638=ORIENTED_EDGE('',*,*,#387,.F.);
#639=ORIENTED_EDGE('',*,*,#425,.T.);
#640=ORIENTED_EDGE('',*,*,#435,.F.);
#641=ORIENTED_EDGE('',*,*,#460,.T.);
#642=ORIENTED_EDGE('',*,*,#441,.F.);
#643=ORIENTED_EDGE('',*,*,#461,.T.);
#644=ORIENTED_EDGE('',*,*,#454,.F.);
#645=ORIENTED_EDGE('',*,*,#462,.T.);
#646=ORIENTED_EDGE('',*,*,#448,.F.);
#647=ORIENTED_EDGE('',*,*,#463,.T.);
#648=ORIENTED_EDGE('',*,*,#464,.F.);
#649=ORIENTED_EDGE('',*,*,#429,.F.);
#650=ORIENTED_EDGE('',*,*,#402,.F.);
#651=ORIENTED_EDGE('',*,*,#409,.F.);
#652=ORIENTED_EDGE('',*,*,#407,.F.);
#653=ORIENTED_EDGE('',*,*,#405,.F.);
#654=ORIENTED_EDGE('',*,*,#465,.F.);
#655=ORIENTED_EDGE('',*,*,#466,.F.);
#656=ORIENTED_EDGE('',*,*,#397,.F.);
#657=ORIENTED_EDGE('',*,*,#412,.F.);
#658=ORIENTED_EDGE('',*,*,#410,.F.);
#659=ORIENTED_EDGE('',*,*,#400,.F.);
#660=ORIENTED_EDGE('',*,*,#467,.T.);
#661=ORIENTED_EDGE('',*,*,#468,.T.);
#662=ORIENTED_EDGE('',*,*,#464,.T.);
#663=ORIENTED_EDGE('',*,*,#468,.F.);
#664=ORIENTED_EDGE('',*,*,#416,.F.);
#665=ORIENTED_EDGE('',*,*,#431,.F.);
#666=ORIENTED_EDGE('',*,*,#467,.F.);
#667=ORIENTED_EDGE('',*,*,#376,.T.);
#668=ORIENTED_EDGE('',*,*,#469,.T.);
#669=ORIENTED_EDGE('',*,*,#465,.T.);
#670=ORIENTED_EDGE('',*,*,#469,.F.);
#671=ORIENTED_EDGE('',*,*,#370,.T.);
#672=ORIENTED_EDGE('',*,*,#470,.T.);
#673=ORIENTED_EDGE('',*,*,#466,.T.);
#674=ORIENTED_EDGE('',*,*,#470,.F.);
#675=ORIENTED_EDGE('',*,*,#449,.F.);
#676=ORIENTED_EDGE('',*,*,#462,.F.);
#677=ORIENTED_EDGE('',*,*,#456,.F.);
#678=ORIENTED_EDGE('',*,*,#458,.F.);
#679=ORIENTED_EDGE('',*,*,#436,.F.);
#680=ORIENTED_EDGE('',*,*,#463,.F.);
#681=ORIENTED_EDGE('',*,*,#450,.F.);
#682=ORIENTED_EDGE('',*,*,#459,.F.);
#683=CYLINDRICAL_SURFACE('',#758,2.);
#684=CYLINDRICAL_SURFACE('',#763,2.);
#685=CYLINDRICAL_SURFACE('',#780,0.75);
#686=CYLINDRICAL_SURFACE('',#783,0.75);
#687=CYLINDRICAL_SURFACE('',#786,0.75);
#688=CYLINDRICAL_SURFACE('',#789,0.75);
#689=CYLINDRICAL_SURFACE('',#795,5.);
#690=CYLINDRICAL_SURFACE('',#800,1.75);
#691=CYLINDRICAL_SURFACE('',#810,3.);
#692=CYLINDRICAL_SURFACE('',#815,3.);
#693=CYLINDRICAL_SURFACE('',#817,1.5);
#694=CYLINDRICAL_SURFACE('',#821,3.);
#695=CYLINDRICAL_SURFACE('',#826,3.);
#696=CYLINDRICAL_SURFACE('',#828,1.5);
#697=CYLINDRICAL_SURFACE('',#829,1.5);
#698=CYLINDRICAL_SURFACE('',#830,1.5);
#699=CYLINDRICAL_SURFACE('',#833,6.5);
#700=CYLINDRICAL_SURFACE('',#838,3.5);
#701=CYLINDRICAL_SURFACE('',#841,1.05);
#702=CYLINDRICAL_SURFACE('',#842,1.05);
#703=ADVANCED_FACE('',(#51),#683,.F.);
#704=ADVANCED_FACE('',(#52,#25),#37,.T.);
#705=ADVANCED_FACE('',(#53),#684,.F.);
#706=ADVANCED_FACE('',(#54,#26),#38,.T.);
#707=ADVANCED_FACE('',(#55,#27,#28,#29),#39,.T.);
#708=ADVANCED_FACE('',(#56),#685,.F.);
#709=ADVANCED_FACE('',(#57),#40,.T.);
#710=ADVANCED_FACE('',(#58),#686,.F.);
#711=ADVANCED_FACE('',(#59),#41,.T.);
#712=ADVANCED_FACE('',(#60),#687,.F.);
#713=ADVANCED_FACE('',(#61),#42,.T.);
#714=ADVANCED_FACE('',(#62),#688,.F.);
#715=ADVANCED_FACE('',(#63),#43,.T.);
#716=ADVANCED_FACE('',(#64),#23,.T.);
#717=ADVANCED_FACE('',(#65),#689,.T.);
#718=ADVANCED_FACE('',(#66),#24,.T.);
#719=ADVANCED_FACE('',(#67),#690,.F.);
#720=ADVANCED_FACE('',(#68),#44,.T.);
#721=ADVANCED_FACE('',(#69),#19,.F.);
#722=ADVANCED_FACE('',(#70),#691,.T.);
#723=ADVANCED_FACE('',(#71),#20,.F.);
#724=ADVANCED_FACE('',(#72),#692,.T.);
#725=ADVANCED_FACE('',(#73),#693,.T.);
#726=ADVANCED_FACE('',(#74),#21,.F.);
#727=ADVANCED_FACE('',(#75),#694,.T.);
#728=ADVANCED_FACE('',(#76),#22,.F.);
#729=ADVANCED_FACE('',(#77),#695,.T.);
#730=ADVANCED_FACE('',(#78),#696,.T.);
#731=ADVANCED_FACE('',(#79),#697,.T.);
#732=ADVANCED_FACE('',(#80),#698,.T.);
#733=ADVANCED_FACE('',(#81),#45,.T.);
#734=ADVANCED_FACE('',(#82),#46,.T.);
#735=ADVANCED_FACE('',(#83),#699,.T.);
#736=ADVANCED_FACE('',(#84,#30,#31,#32,#33,#34,#35),#47,.F.);
#737=ADVANCED_FACE('',(#85),#700,.F.);
#738=ADVANCED_FACE('',(#86,#36),#48,.T.);
#739=ADVANCED_FACE('',(#87),#701,.F.);
#740=ADVANCED_FACE('',(#88),#702,.F.);
#741=ADVANCED_FACE('',(#89),#49,.T.);
#742=ADVANCED_FACE('',(#90),#50,.T.);
#743=CLOSED_SHELL('',(#703,#704,#705,#706,#707,#708,#709,#710,#711,#712,
#713,#714,#715,#716,#717,#718,#719,#720,#721,#722,#723,#724,#725,#726,#727,
#728,#729,#730,#731,#732,#733,#734,#735,#736,#737,#738,#739,#740,#741,#742));
#744=DERIVED_UNIT_ELEMENT(#746,1.);
#745=DERIVED_UNIT_ELEMENT(#1401,-3.);
#746=(
MASS_UNIT()
NAMED_UNIT(*)
SI_UNIT(.KILO.,.GRAM.)
);
#747=DERIVED_UNIT((#744,#745));
#748=MEASURE_REPRESENTATION_ITEM('density measure',
POSITIVE_RATIO_MEASURE(7850.),#747);
#749=PROPERTY_DEFINITION_REPRESENTATION(#754,#751);
#750=PROPERTY_DEFINITION_REPRESENTATION(#755,#752);
#751=REPRESENTATION('material name',(#753),#1398);
#752=REPRESENTATION('density',(#748),#1398);
#753=DESCRIPTIVE_REPRESENTATION_ITEM('Steel','Steel');
#754=PROPERTY_DEFINITION('material property','material name',#1413);
#755=PROPERTY_DEFINITION('material property','density of part',#1413);
#756=AXIS2_PLACEMENT_3D('',#1074,#846,#847);
#757=AXIS2_PLACEMENT_3D('',#1075,#848,#849);
#758=AXIS2_PLACEMENT_3D('',#1076,#850,#851);
#759=AXIS2_PLACEMENT_3D('',#1088,#852,#853);
#760=AXIS2_PLACEMENT_3D('',#1099,#855,#856);
#761=AXIS2_PLACEMENT_3D('',#1100,#857,#858);
#762=AXIS2_PLACEMENT_3D('',#1102,#859,#860);
#763=AXIS2_PLACEMENT_3D('',#1103,#861,#862);
#764=AXIS2_PLACEMENT_3D('',#1121,#863,#864);
#765=AXIS2_PLACEMENT_3D('',#1124,#866,#867);
#766=AXIS2_PLACEMENT_3D('',#1125,#868,#869);
#767=AXIS2_PLACEMENT_3D('',#1126,#870,#871);
#768=AXIS2_PLACEMENT_3D('',#1128,#872,#873);
#769=AXIS2_PLACEMENT_3D('',#1129,#874,#875);
#770=AXIS2_PLACEMENT_3D('',#1133,#877,#878);
#771=AXIS2_PLACEMENT_3D('',#1137,#880,#881);
#772=AXIS2_PLACEMENT_3D('',#1142,#884,#885);
#773=AXIS2_PLACEMENT_3D('',#1146,#887,#888);
#774=AXIS2_PLACEMENT_3D('',#1150,#890,#891);
#775=AXIS2_PLACEMENT_3D('',#1151,#892,#893);
#776=AXIS2_PLACEMENT_3D('',#1156,#895,#896);
#777=AXIS2_PLACEMENT_3D('',#1159,#898,#899);
#778=AXIS2_PLACEMENT_3D('',#1164,#901,#902);
#779=AXIS2_PLACEMENT_3D('',#1167,#904,#905);
#780=AXIS2_PLACEMENT_3D('',#1168,#906,#907);
#781=AXIS2_PLACEMENT_3D('',#1171,#908,#909);
#782=AXIS2_PLACEMENT_3D('',#1174,#912,#913);
#783=AXIS2_PLACEMENT_3D('',#1178,#916,#917);
#784=AXIS2_PLACEMENT_3D('',#1181,#918,#919);
#785=AXIS2_PLACEMENT_3D('',#1184,#922,#923);
#786=AXIS2_PLACEMENT_3D('',#1188,#926,#927);
#787=AXIS2_PLACEMENT_3D('',#1190,#928,#929);
#788=AXIS2_PLACEMENT_3D('',#1192,#931,#932);
#789=AXIS2_PLACEMENT_3D('',#1194,#934,#935);
#790=AXIS2_PLACEMENT_3D('',#1196,#936,#937);
#791=AXIS2_PLACEMENT_3D('',#1198,#939,#940);
#792=AXIS2_PLACEMENT_3D('',#1200,#942,#943);
#793=AXIS2_PLACEMENT_3D('',#1216,#944,#945);
#794=AXIS2_PLACEMENT_3D('',#1230,#946,#947);
#795=AXIS2_PLACEMENT_3D('',#1231,#948,#949);
#796=AXIS2_PLACEMENT_3D('',#1235,#951,#952);
#797=AXIS2_PLACEMENT_3D('',#1237,#954,#955);
#798=AXIS2_PLACEMENT_3D('',#1253,#956,#957);
#799=AXIS2_PLACEMENT_3D('',#1267,#958,#959);
#800=AXIS2_PLACEMENT_3D('',#1268,#960,#961);
#801=AXIS2_PLACEMENT_3D('',#1269,#962,#963);
#802=AXIS2_PLACEMENT_3D('',#1273,#966,#967);
#803=AXIS2_PLACEMENT_3D('',#1276,#969,#970);
#804=AXIS2_PLACEMENT_3D('',#1277,#971,#972);
#805=AXIS2_PLACEMENT_3D('',#1278,#973,#974);
#806=AXIS2_PLACEMENT_3D('',#1279,#975,#976);
#807=AXIS2_PLACEMENT_3D('',#1290,#977,#978);
#808=AXIS2_PLACEMENT_3D('',#1292,#979,#980);
#809=AXIS2_PLACEMENT_3D('',#1293,#981,#982);
#810=AXIS2_PLACEMENT_3D('',#1294,#983,#984);
#811=AXIS2_PLACEMENT_3D('',#1297,#985,#986);
#812=AXIS2_PLACEMENT_3D('',#1310,#989,#990);
#813=AXIS2_PLACEMENT_3D('',#1312,#991,#992);
#814=AXIS2_PLACEMENT_3D('',#1313,#993,#994);
#815=AXIS2_PLACEMENT_3D('',#1314,#995,#996);
#816=AXIS2_PLACEMENT_3D('',#1317,#997,#998);
#817=AXIS2_PLACEMENT_3D('',#1320,#1001,#1002);
#818=AXIS2_PLACEMENT_3D('',#1332,#1004,#1005);
#819=AXIS2_PLACEMENT_3D('',#1334,#1006,#1007);
#820=AXIS2_PLACEMENT_3D('',#1335,#1008,#1009);
#821=AXIS2_PLACEMENT_3D('',#1336,#1010,#1011);
#822=AXIS2_PLACEMENT_3D('',#1339,#1012,#1013);
#823=AXIS2_PLACEMENT_3D('',#1352,#1016,#1017);
#824=AXIS2_PLACEMENT_3D('',#1354,#1018,#1019);
#825=AXIS2_PLACEMENT_3D('',#1355,#1020,#1021);
#826=AXIS2_PLACEMENT_3D('',#1356,#1022,#1023);
#827=AXIS2_PLACEMENT_3D('',#1359,#1024,#1025);
#828=AXIS2_PLACEMENT_3D('',#1362,#1028,#1029);
#829=AXIS2_PLACEMENT_3D('',#1364,#1031,#1032);
#830=AXIS2_PLACEMENT_3D('',#1366,#1034,#1035);
#831=AXIS2_PLACEMENT_3D('',#1368,#1037,#1038);
#832=AXIS2_PLACEMENT_3D('',#1370,#1040,#1041);
#833=AXIS2_PLACEMENT_3D('',#1372,#1043,#1044);
#834=AXIS2_PLACEMENT_3D('',#1373,#1045,#1046);
#835=AXIS2_PLACEMENT_3D('',#1377,#1049,#1050);
#836=AXIS2_PLACEMENT_3D('',#1379,#1051,#1052);
#837=AXIS2_PLACEMENT_3D('',#1381,#1053,#1054);
#838=AXIS2_PLACEMENT_3D('',#1382,#1055,#1056);
#839=AXIS2_PLACEMENT_3D('',#1384,#1057,#1058);
#840=AXIS2_PLACEMENT_3D('',#1386,#1060,#1061);
#841=AXIS2_PLACEMENT_3D('',#1387,#1062,#1063);
#842=AXIS2_PLACEMENT_3D('',#1389,#1065,#1066);
#843=AXIS2_PLACEMENT_3D('',#1391,#1068,#1069);
#844=AXIS2_PLACEMENT_3D('',#1392,#1070,#1071);
#845=AXIS2_PLACEMENT_3D('',#1393,#1072,#1073);
#846=DIRECTION('axis',(0.,0.,1.));
#847=DIRECTION('refdir',(1.,0.,0.));
#848=DIRECTION('axis',(0.,0.,1.));
#849=DIRECTION('refdir',(1.,0.,0.));
#850=DIRECTION('center_axis',(0.,0.,-1.));
#851=DIRECTION('ref_axis',(-1.,2.81443456522638E-30,0.));
#852=DIRECTION('center_axis',(5.10447367642451E-16,-1.98068972494487E-15,
-1.));
#853=DIRECTION('ref_axis',(-1.,2.81443456522638E-30,0.));
#854=DIRECTION('',(0.,0.,-1.));
#855=DIRECTION('center_axis',(5.10447367642451E-16,-1.98068972494487E-15,
-1.));
#856=DIRECTION('ref_axis',(-1.,2.81443456522638E-30,0.));
#857=DIRECTION('center_axis',(-5.10447367642451E-16,1.98068972494487E-15,
1.));
#858=DIRECTION('ref_axis',(1.,0.,5.10447367642451E-16));
#859=DIRECTION('center_axis',(-5.10447367642451E-16,1.98068972494487E-15,
1.));
#860=DIRECTION('ref_axis',(-1.,2.95181890956964E-30,0.));
#861=DIRECTION('center_axis',(0.,0.,-1.));
#862=DIRECTION('ref_axis',(-1.,2.81443456522638E-30,0.));
#863=DIRECTION('center_axis',(5.10447367642451E-16,-1.98068972494487E-15,
-1.));
#864=DIRECTION('ref_axis',(-1.,2.81443456522638E-30,0.));
#865=DIRECTION('',(0.,0.,-1.));
#866=DIRECTION('center_axis',(5.10447367642451E-16,-1.98068972494487E-15,
-1.));
#867=DIRECTION('ref_axis',(-1.,2.81443456522638E-30,0.));
#868=DIRECTION('center_axis',(5.10447367642451E-16,-1.98068972494487E-15,
-1.));
#869=DIRECTION('ref_axis',(-1.,2.81443456522638E-30,0.));
#870=DIRECTION('center_axis',(-5.10447367642451E-16,1.98068972494487E-15,
1.));
#871=DIRECTION('ref_axis',(1.,0.,5.10447367642451E-16));
#872=DIRECTION('center_axis',(-5.10447367642451E-16,1.98068972494487E-15,
1.));
#873=DIRECTION('ref_axis',(-1.,2.95181890956964E-30,0.));
#874=DIRECTION('center_axis',(-5.10447367642451E-16,1.98068972494487E-15,
1.));
#875=DIRECTION('ref_axis',(-1.,1.44059112179377E-30,-5.10447367642451E-16));
#876=DIRECTION('',(-3.86164530304405E-16,-1.,1.98068972494487E-15));
#877=DIRECTION('center_axis',(5.10447367642451E-16,-1.98068972494487E-15,
-1.));
#878=DIRECTION('ref_axis',(0.707106781186552,0.707106781186543,0.));
#879=DIRECTION('',(1.,-2.46716227694481E-16,5.10447367642452E-16));
#880=DIRECTION('center_axis',(5.10447367642451E-16,-1.98068972494487E-15,
-1.));
#881=DIRECTION('ref_axis',(-0.707106781186545,0.70710678118655,-4.18691322315674E-15));
#882=DIRECTION('',(-3.861645303044E-16,1.,-1.98068972494487E-15));
#883=DIRECTION('',(-3.861645303044E-16,1.,-1.98068972494487E-15));
#884=DIRECTION('center_axis',(5.10447367642451E-16,-1.98068972494487E-15,
-1.));
#885=DIRECTION('ref_axis',(-0.707106781186547,-0.707106781186547,0.));
#886=DIRECTION('',(-1.,1.44059112179377E-30,-5.10447367642451E-16));
#887=DIRECTION('center_axis',(5.10447367642451E-16,-1.98068972494487E-15,
-1.));
#888=DIRECTION('ref_axis',(0.707106781186543,-0.707106781186552,4.18691322315675E-15));
#889=DIRECTION('',(-3.86164530304405E-16,-1.,1.98068972494487E-15));
#890=DIRECTION('center_axis',(5.10447367642451E-16,-1.98068972494487E-15,
-1.));
#891=DIRECTION('ref_axis',(-1.,2.38510848915369E-30,0.));
#892=DIRECTION('center_axis',(5.10447367642451E-16,-1.98068972494487E-15,
-1.));
#893=DIRECTION('ref_axis',(-1.,1.44059112179377E-30,-5.10447367642451E-16));
#894=DIRECTION('',(2.45162897800833E-30,1.,-1.98068972494487E-15));
#895=DIRECTION('center_axis',(-5.10447367642451E-16,1.98068972494487E-15,
1.));
#896=DIRECTION('ref_axis',(0.707106781186548,0.707106781186548,0.));
#897=DIRECTION('',(2.15315980533363E-15,-1.,1.98068972494487E-15));
#898=DIRECTION('center_axis',(-5.10447367642451E-16,1.98068972494487E-15,
1.));
#899=DIRECTION('ref_axis',(-0.707106781186548,-0.707106781186548,0.));
#900=DIRECTION('',(2.45162897800833E-30,1.,-1.98068972494487E-15));
#901=DIRECTION('center_axis',(-5.10447367642451E-16,1.98068972494487E-15,
1.));
#902=DIRECTION('ref_axis',(0.707106781186556,0.707106781186539,0.));
#903=DIRECTION('',(2.15315980533363E-15,-1.,1.98068972494487E-15));
#904=DIRECTION('center_axis',(-5.10447367642451E-16,1.98068972494487E-15,
1.));
#905=DIRECTION('ref_axis',(-0.707106781186556,-0.707106781186539,0.));
#906=DIRECTION('center_axis',(0.,2.96059473233375E-15,1.));
#907=DIRECTION('ref_axis',(-0.707106781186548,-0.707106781186548,0.));
#908=DIRECTION('center_axis',(5.10447367642451E-16,-1.98068972494487E-15,
-1.));
#909=DIRECTION('ref_axis',(0.707106781186556,-0.707106781186539,0.));
#910=DIRECTION('',(0.,2.96059473233375E-15,1.));
#911=DIRECTION('',(0.,-2.96059473233375E-15,-1.));
#912=DIRECTION('center_axis',(1.,-2.45162897800833E-30,7.25827983792824E-45));
#913=DIRECTION('ref_axis',(2.45162897800833E-30,1.,-1.98068972494487E-15));
#914=DIRECTION('',(2.45162897800833E-30,1.,-1.98068972494487E-15));
#915=DIRECTION('',(0.,-2.96059473233375E-15,-1.));
#916=DIRECTION('center_axis',(0.,2.96059473233375E-15,1.));
#917=DIRECTION('ref_axis',(-0.707106781186556,-0.707106781186539,0.));
#918=DIRECTION('center_axis',(5.10447367642451E-16,-1.98068972494487E-15,
-1.));
#919=DIRECTION('ref_axis',(0.707106781186556,-0.707106781186539,0.));
#920=DIRECTION('',(0.,2.96059473233375E-15,1.));
#921=DIRECTION('',(0.,-2.96059473233375E-15,-1.));
#922=DIRECTION('center_axis',(1.,-2.45162897800833E-30,7.25827983792824E-45));
#923=DIRECTION('ref_axis',(2.45162897800833E-30,1.,-1.98068972494487E-15));
#924=DIRECTION('',(2.45162897800833E-30,1.,-1.98068972494487E-15));
#925=DIRECTION('',(0.,-2.96059473233375E-15,-1.));
#926=DIRECTION('center_axis',(0.,2.96059473233375E-15,1.));
#927=DIRECTION('ref_axis',(0.707106781186556,0.707106781186539,0.));
#928=DIRECTION('center_axis',(5.10447367642451E-16,-1.98068972494487E-15,
-1.));
#929=DIRECTION('ref_axis',(-0.707106781186548,0.707106781186548,0.));
#930=DIRECTION('',(0.,2.96059473233375E-15,1.));
#931=DIRECTION('center_axis',(-1.,-2.15315980533363E-15,6.37463357754353E-30));
#932=DIRECTION('ref_axis',(2.15315980533363E-15,-1.,1.98068972494487E-15));
#933=DIRECTION('',(2.15315980533363E-15,-1.,1.98068972494487E-15));
#934=DIRECTION('center_axis',(0.,2.96059473233375E-15,1.));
#935=DIRECTION('ref_axis',(0.707106781186548,0.707106781186548,0.));
#936=DIRECTION('center_axis',(5.10447367642451E-16,-1.98068972494487E-15,
-1.));
#937=DIRECTION('ref_axis',(-0.707106781186548,0.707106781186548,0.));
#938=DIRECTION('',(0.,2.96059473233375E-15,1.));
#939=DIRECTION('center_axis',(-1.,-2.15315980533363E-15,6.37463357754353E-30));
#940=DIRECTION('ref_axis',(2.15315980533363E-15,-1.,1.98068972494487E-15));
#941=DIRECTION('',(2.15315980533363E-15,-1.,1.98068972494487E-15));
#942=DIRECTION('center_axis',(5.10447367642451E-16,-1.98068972494487E-15,
-1.));
#943=DIRECTION('ref_axis',(0.38031502974879,0.92485700416182,-1.4210854715202E-15));
#944=DIRECTION('center_axis',(-5.10447367642451E-16,1.98068972494487E-15,
1.));
#945=DIRECTION('ref_axis',(0.380315029748788,0.924857004161821,-1.6375789613221E-15));
#946=DIRECTION('center_axis',(5.10447367642451E-16,-1.98068972494487E-15,
-1.));
#947=DIRECTION('ref_axis',(0.380315029748788,0.924857004161821,-1.63772395937648E-15));
#948=DIRECTION('center_axis',(0.,1.40980701539702E-15,1.));
#949=DIRECTION('ref_axis',(0.380315029748788,0.924857004161821,-1.30386989270641E-15));
#950=DIRECTION('',(0.,1.40980701539702E-15,1.));
#951=DIRECTION('center_axis',(-5.10447367642451E-16,1.98068972494487E-15,
1.));
#952=DIRECTION('ref_axis',(-1.,2.16022340168704E-30,0.));
#953=DIRECTION('',(0.,1.40980701539702E-15,1.));
#954=DIRECTION('center_axis',(5.10447367642451E-16,-1.98068972494487E-15,
-1.));
#955=DIRECTION('ref_axis',(0.380315029748788,0.924857004161821,-1.09314267040015E-15));
#956=DIRECTION('center_axis',(-5.10447367642451E-16,1.98068972494487E-15,
1.));
#957=DIRECTION('ref_axis',(0.380315029748788,0.924857004161821,-1.64398409415648E-15));
#958=DIRECTION('center_axis',(5.10447367642451E-16,-1.98068972494487E-15,
-1.));
#959=DIRECTION('ref_axis',(0.380315029748788,0.924857004161821,-1.63772395937648E-15));
#960=DIRECTION('center_axis',(0.,2.96059473233375E-15,1.));
#961=DIRECTION('ref_axis',(-1.,2.95181890956964E-30,0.));
#962=DIRECTION('center_axis',(5.10447367642451E-16,-1.98068972494487E-15,
-1.));
#963=DIRECTION('ref_axis',(-1.,2.38510848915369E-30,0.));
#964=DIRECTION('',(0.,1.85037170770859E-15,1.));
#965=DIRECTION('',(0.,1.85037170770859E-15,1.));
#966=DIRECTION('center_axis',(5.10447367642451E-16,-1.98068972494487E-15,
-1.));
#967=DIRECTION('ref_axis',(-1.,2.38510848915369E-30,0.));
#968=DIRECTION('',(0.,-2.96059473233375E-15,-1.));
#969=DIRECTION('center_axis',(5.10447367642451E-16,-1.98068972494487E-15,
-1.));
#970=DIRECTION('ref_axis',(-1.,1.44059112179377E-30,-5.10447367642451E-16));
#971=DIRECTION('center_axis',(5.10447367642451E-16,-1.98068972494487E-15,
-1.));
#972=DIRECTION('ref_axis',(-1.,2.38510848915369E-30,0.));
#973=DIRECTION('center_axis',(5.10447367642451E-16,-1.98068972494487E-15,
-1.));
#974=DIRECTION('ref_axis',(-1.,2.16022340168704E-30,0.));
#975=DIRECTION('center_axis',(-5.10447367642451E-16,1.98068972494487E-15,
1.));
#976=DIRECTION('ref_axis',(1.,0.,5.10447367642451E-16));
#977=DIRECTION('center_axis',(0.,1.,0.));
#978=DIRECTION('ref_axis',(-1.,0.,0.));
#979=DIRECTION('center_axis',(2.96059473233375E-15,2.96059473233375E-15,
1.));
#980=DIRECTION('ref_axis',(0.,-1.,2.96059473233375E-15));
#981=DIRECTION('center_axis',(1.,0.,0.));
#982=DIRECTION('ref_axis',(0.,0.,1.));
#983=DIRECTION('center_axis',(0.,2.96059473233375E-15,1.));
#984=DIRECTION('ref_axis',(-0.707106781186548,-0.707106781186547,4.18691322315674E-15));
#985=DIRECTION('center_axis',(-5.10447367642451E-16,1.98068972494487E-15,
1.));
#986=DIRECTION('ref_axis',(-0.707106781186548,-0.707106781186547,4.18691322315674E-15));
#987=DIRECTION('',(0.,2.96059473233375E-15,1.));
#988=DIRECTION('',(0.,-2.96059473233375E-15,-1.));
#989=DIRECTION('center_axis',(1.,0.,0.));
#990=DIRECTION('ref_axis',(0.,1.,-5.92118946466749E-15));
#991=DIRECTION('center_axis',(0.,2.96059473233374E-15,1.));
#992=DIRECTION('ref_axis',(-1.,0.,0.));
#993=DIRECTION('center_axis',(0.,-1.,0.));
#994=DIRECTION('ref_axis',(0.,0.,1.));
#995=DIRECTION('center_axis',(0.,2.96059473233375E-15,1.));
#996=DIRECTION('ref_axis',(-0.707106781186546,0.707106781186549,-4.18691322315673E-15));
#997=DIRECTION('center_axis',(-5.10447367642451E-16,1.98068972494487E-15,
1.));
#998=DIRECTION('ref_axis',(-0.707106781186546,0.707106781186549,-4.18691322315673E-15));
#999=DIRECTION('',(0.,2.96059473233375E-15,1.));
#1000=DIRECTION('',(0.,-2.96059473233375E-15,-1.));
#1001=DIRECTION('center_axis',(3.861645303044E-16,-1.,1.98068972494487E-15));
#1002=DIRECTION('ref_axis',(-0.707106781186548,0.,0.707106781186548));
#1003=DIRECTION('',(3.861645303044E-16,-1.,1.98068972494487E-15));
#1004=DIRECTION('center_axis',(-1.,0.,0.));
#1005=DIRECTION('ref_axis',(0.,-1.,0.));
#1006=DIRECTION('center_axis',(0.,-2.96059473233374E-15,1.));
#1007=DIRECTION('ref_axis',(1.,0.,0.));
#1008=DIRECTION('center_axis',(0.,1.,0.));
#1009=DIRECTION('ref_axis',(0.,0.,1.));
#1010=DIRECTION('center_axis',(0.,2.96059473233375E-15,1.));
#1011=DIRECTION('ref_axis',(0.707106781186548,-0.707106781186548,0.));
#1012=DIRECTION('center_axis',(-5.10447367642451E-16,1.98068972494487E-15,
1.));
#1013=DIRECTION('ref_axis',(0.707106781186548,-0.707106781186548,0.));
#1014=DIRECTION('',(0.,2.96059473233375E-15,1.));
#1015=DIRECTION('',(0.,-2.96059473233375E-15,-1.));
#1016=DIRECTION('center_axis',(0.,-1.,0.));
#1017=DIRECTION('ref_axis',(1.,0.,0.));
#1018=DIRECTION('center_axis',(-2.96059473233375E-15,2.96059473233375E-15,
1.));
#1019=DIRECTION('ref_axis',(0.,1.,-2.96059473233375E-15));
#1020=DIRECTION('center_axis',(-1.,0.,0.));
#1021=DIRECTION('ref_axis',(0.,0.,1.));
#1022=DIRECTION('center_axis',(0.,2.96059473233375E-15,1.));
#1023=DIRECTION('ref_axis',(0.70710678118655,0.707106781186545,0.));
#1024=DIRECTION('center_axis',(-5.10447367642451E-16,1.98068972494487E-15,
1.));
#1025=DIRECTION('ref_axis',(0.70710678118655,0.707106781186545,0.));
#1026=DIRECTION('',(0.,2.96059473233375E-15,1.));
#1027=DIRECTION('',(0.,-2.96059473233375E-15,-1.));
#1028=DIRECTION('center_axis',(-1.,2.46716227694481E-16,-5.10447367642452E-16));
#1029=DIRECTION('ref_axis',(0.,0.707106781186548,0.707106781186548));
#1030=DIRECTION('',(-1.,2.46716227694481E-16,-5.10447367642452E-16));
#1031=DIRECTION('center_axis',(3.86164530304405E-16,1.,-1.98068972494487E-15));
#1032=DIRECTION('ref_axis',(0.707106781186548,0.,0.707106781186548));
#1033=DIRECTION('',(3.86164530304405E-16,1.,-1.98068972494487E-15));
#1034=DIRECTION('center_axis',(1.,-1.44059112179377E-30,5.10447367642451E-16));
#1035=DIRECTION('ref_axis',(0.,-0.707106781186548,0.707106781186548));
#1036=DIRECTION('',(1.,-1.44059112179377E-30,5.10447367642451E-16));
#1037=DIRECTION('center_axis',(-1.,-3.861645303044E-16,1.14327667423334E-30));
#1038=DIRECTION('ref_axis',(3.861645303044E-16,-1.,1.98068972494487E-15));
#1039=DIRECTION('',(-3.861645303044E-16,1.,-1.98068972494487E-15));
#1040=DIRECTION('center_axis',(2.46716227694482E-16,1.,-2.96059473233375E-15));
#1041=DIRECTION('ref_axis',(-1.,2.46716227694481E-16,-5.10447367642452E-16));
#1042=DIRECTION('',(1.,-2.46716227694481E-16,5.10447367642452E-16));
#1043=DIRECTION('center_axis',(0.,1.85037170770859E-15,1.));
#1044=DIRECTION('ref_axis',(0.380315029748789,0.924857004161821,-1.71132923417716E-15));
#1045=DIRECTION('center_axis',(-5.10447367642451E-16,1.98068972494487E-15,
1.));
#1046=DIRECTION('ref_axis',(-1.,1.44059112179377E-30,-5.10447367642451E-16));
#1047=DIRECTION('',(-3.86164530304405E-16,-1.,1.98068972494487E-15));
#1048=DIRECTION('',(-1.,1.44059112179377E-30,-5.10447367642451E-16));
#1049=DIRECTION('center_axis',(5.10447367642451E-16,-1.98068972494487E-15,
-1.));
#1050=DIRECTION('ref_axis',(-1.,1.44059112179377E-30,-5.10447367642451E-16));
#1051=DIRECTION('center_axis',(5.10447367642451E-16,-1.98068972494487E-15,
-1.));
#1052=DIRECTION('ref_axis',(-1.,1.44059112179377E-30,-5.10447367642451E-16));
#1053=DIRECTION('center_axis',(5.10447367642451E-16,-1.98068972494487E-15,
-1.));
#1054=DIRECTION('ref_axis',(-1.,1.44059112179377E-30,-5.10447367642451E-16));
#1055=DIRECTION('center_axis',(0.,1.40980701539702E-15,1.));
#1056=DIRECTION('ref_axis',(-1.,2.16022340168704E-30,0.));
#1057=DIRECTION('center_axis',(5.10447367642451E-16,-1.98068972494487E-15,
-1.));
#1058=DIRECTION('ref_axis',(-1.,2.16022340168704E-30,0.));
#1059=DIRECTION('',(0.,-1.40980701539702E-15,-1.));
#1060=DIRECTION('center_axis',(-5.10447367642451E-16,1.98068972494487E-15,
1.));
#1061=DIRECTION('ref_axis',(1.,0.,5.10447367642451E-16));
#1062=DIRECTION('center_axis',(0.,2.96059473233375E-15,1.));
#1063=DIRECTION('ref_axis',(-1.,2.95181890956964E-30,0.));
#1064=DIRECTION('',(0.,-2.96059473233375E-15,-1.));
#1065=DIRECTION('center_axis',(0.,2.96059473233375E-15,1.));
#1066=DIRECTION('ref_axis',(-1.,2.95181890956964E-30,0.));
#1067=DIRECTION('',(0.,-2.96059473233375E-15,-1.));
#1068=DIRECTION('center_axis',(1.,-3.86164530304405E-16,1.14327667423336E-30));
#1069=DIRECTION('ref_axis',(3.86164530304405E-16,1.,-1.98068972494487E-15));
#1070=DIRECTION('center_axis',(-2.95181890956964E-30,-1.,2.96059473233375E-15));
#1071=DIRECTION('ref_axis',(1.,-1.44059112179377E-30,5.10447367642451E-16));
#1072=DIRECTION('',(-1.00916813750722E-61,1.10303369384083E-104,1.));
#1073=DIRECTION('',(1.,0.,1.00916813750793E-61));
#1074=CARTESIAN_POINT('',(0.,0.,0.));
#1075=CARTESIAN_POINT('',(0.,0.,0.));
#1076=CARTESIAN_POINT('Origin',(67.7999999999255,55.9499999999159,-39.4000000000001));
#1077=CARTESIAN_POINT('',(68.9999999999163,57.5499999999228,-39.4000000000001));
#1078=CARTESIAN_POINT('',(69.7999999999255,55.9499999999159,-39.631142245961));
#1079=CARTESIAN_POINT('Ctrl Pts',(68.9999999999163,57.5499999999228,-39.4000000000001));
#1080=CARTESIAN_POINT('Ctrl Pts',(69.0362362470211,57.5228228145946,-39.4000000000001));
#1081=CARTESIAN_POINT('Ctrl Pts',(69.0709662802245,57.4948379251824,-39.4013173437127));
#1082=CARTESIAN_POINT('Ctrl Pts',(69.3170217030749,57.2832974460742,-39.4183919825407));
#1083=CARTESIAN_POINT('Ctrl Pts',(69.4964474969296,57.0480180252366,-39.478349646002));
#1084=CARTESIAN_POINT('Ctrl Pts',(69.7379413849424,56.5226756791017,-39.5873709081466));
#1085=CARTESIAN_POINT('Ctrl Pts',(69.7999999999255,56.2315240166015,-39.631142245961));
#1086=CARTESIAN_POINT('Ctrl Pts',(69.7999999999255,55.9499999999159,-39.631142245961));
#1087=CARTESIAN_POINT('',(68.9999999999162,54.349999999909,-39.4000000000001));
#1088=CARTESIAN_POINT('Origin',(67.7999999999255,55.9499999999159,-39.4000000000001));
#1089=CARTESIAN_POINT('Ctrl Pts',(69.7999999999255,55.9499999999159,-39.631142245961));
#1090=CARTESIAN_POINT('Ctrl Pts',(69.7999999999255,55.6684759832304,-39.631142245961));
#1091=CARTESIAN_POINT('Ctrl Pts',(69.7379413849424,55.3773243207302,-39.5873709081466));
#1092=CARTESIAN_POINT('Ctrl Pts',(69.4964474969296,54.8519819745952,-39.478349646002));
#1093=CARTESIAN_POINT('Ctrl Pts',(69.3170217030749,54.6167025537577,-39.4183919825407));
#1094=CARTESIAN_POINT('Ctrl Pts',(69.0709662802245,54.4051620746495,-39.4013173437127));
#1095=CARTESIAN_POINT('Ctrl Pts',(69.0362362470211,54.3771771852373,-39.4000000000001));
#1096=CARTESIAN_POINT('Ctrl Pts',(68.9999999999162,54.349999999909,-39.4000000000001));
#1097=CARTESIAN_POINT('',(69.7999999999255,55.9499999999159,-41.4000000000001));
#1098=CARTESIAN_POINT('',(69.7999999999255,55.9499999999159,-39.4000000000001));
#1099=CARTESIAN_POINT('Origin',(67.7999999999255,55.9499999999159,-41.4000000000001));
#1100=CARTESIAN_POINT('Origin',(52.4999999999163,55.9499999999428,-41.4000000000001));
#1101=CARTESIAN_POINT('',(68.8499999999255,55.9499999999159,-41.4000000000001));
#1102=CARTESIAN_POINT('Origin',(67.7999999999255,55.9499999999159,-41.4000000000001));
#1103=CARTESIAN_POINT('Origin',(37.199999999907,55.9499999999697,-39.4000000000001));
#1104=CARTESIAN_POINT('',(35.9999999999163,54.3499999999628,-39.4000000000001));
#1105=CARTESIAN_POINT('',(35.9999999999163,57.5499999999766,-39.4000000000001));
#1106=CARTESIAN_POINT('Ctrl Pts',(35.9999999999163,54.3499999999628,-39.4000000000001));
#1107=CARTESIAN_POINT('Ctrl Pts',(35.9637637528115,54.3771771852911,-39.4000000000001));
#1108=CARTESIAN_POINT('Ctrl Pts',(35.9290337196081,54.4051620747032,-39.4013173437127));
#1109=CARTESIAN_POINT('Ctrl Pts',(35.6829782967576,54.6167025538114,-39.4183919825407));
#1110=CARTESIAN_POINT('Ctrl Pts',(35.5035525029029,54.851981974649,-39.478349646002));
#1111=CARTESIAN_POINT('Ctrl Pts',(35.2620586148902,55.377324320784,-39.5873709081466));
#1112=CARTESIAN_POINT('Ctrl Pts',(35.199999999907,55.6684759832841,-39.631142245961));
#1113=CARTESIAN_POINT('Ctrl Pts',(35.199999999907,56.2315240166553,-39.631142245961));
#1114=CARTESIAN_POINT('Ctrl Pts',(35.2620586148902,56.5226756791554,-39.5873709081466));
#1115=CARTESIAN_POINT('Ctrl Pts',(35.5035525029029,57.0480180252904,-39.478349646002));
#1116=CARTESIAN_POINT('Ctrl Pts',(35.6829782967576,57.2832974461279,-39.4183919825407));
#1117=CARTESIAN_POINT('Ctrl Pts',(35.9290337196081,57.4948379252361,-39.4013173437127));
#1118=CARTESIAN_POINT('Ctrl Pts',(35.9637637528115,57.5228228146483,-39.4000000000001));
#1119=CARTESIAN_POINT('Ctrl Pts',(35.9999999999163,57.5499999999766,-39.4000000000001));
#1120=CARTESIAN_POINT('',(39.199999999907,55.9499999999697,-39.4000000000001));
#1121=CARTESIAN_POINT('Origin',(37.199999999907,55.9499999999697,-39.4000000000001));
#1122=CARTESIAN_POINT('',(39.199999999907,55.9499999999697,-41.4000000000001));
#1123=CARTESIAN_POINT('',(39.199999999907,55.9499999999697,-39.4000000000001));
#1124=CARTESIAN_POINT('Origin',(37.199999999907,55.9499999999697,-41.4000000000001));
#1125=CARTESIAN_POINT('Origin',(37.199999999907,55.9499999999697,-39.4000000000001));
#1126=CARTESIAN_POINT('Origin',(52.4999999999163,55.9499999999428,-41.4000000000001));
#1127=CARTESIAN_POINT('',(38.249999999907,55.9499999999697,-41.4000000000001));
#1128=CARTESIAN_POINT('Origin',(37.199999999907,55.9499999999697,-41.4000000000001));
#1129=CARTESIAN_POINT('Origin',(52.4999999999163,55.9499999999428,-39.4000000000001));
#1130=CARTESIAN_POINT('',(68.9999999999163,64.4499999999428,-39.4000000000001));
#1131=CARTESIAN_POINT('',(68.9999999999163,50.1999999999428,-39.4000000000001));
#1132=CARTESIAN_POINT('',(67.4999999999163,65.9499999999428,-39.4000000000001));
#1133=CARTESIAN_POINT('Origin',(67.4999999999163,64.4499999999428,-39.4000000000001));
#1134=CARTESIAN_POINT('',(37.4999999999163,65.9499999999428,-39.4000000000002));
#1135=CARTESIAN_POINT('',(61.4999999999163,65.9499999999428,-39.4000000000001));
#1136=CARTESIAN_POINT('',(35.9999999999163,64.4499999999428,-39.4000000000001));
#1137=CARTESIAN_POINT('Origin',(37.4999999999163,64.4499999999428,-39.4000000000001));
#1138=CARTESIAN_POINT('',(35.9999999999163,61.6999999999428,-39.4000000000001));
#1139=CARTESIAN_POINT('',(35.9999999999163,47.4499999999428,-39.4000000000001));
#1140=CARTESIAN_POINT('',(35.9999999999163,61.6999999999428,-39.4000000000001));
#1141=CARTESIAN_POINT('',(37.4999999999163,45.9499999999428,-39.4000000000001));
#1142=CARTESIAN_POINT('Origin',(37.4999999999163,47.4499999999428,-39.4000000000001));
#1143=CARTESIAN_POINT('',(67.4999999999163,45.9499999999428,-39.4000000000001));
#1144=CARTESIAN_POINT('',(43.4999999999163,45.9499999999428,-39.4000000000001));
#1145=CARTESIAN_POINT('',(68.9999999999163,47.4499999999428,-39.4000000000001));
#1146=CARTESIAN_POINT('Origin',(67.4999999999163,47.4499999999428,-39.4000000000001));
#1147=CARTESIAN_POINT('',(68.9999999999163,50.1999999999428,-39.4000000000001));
#1148=CARTESIAN_POINT('',(51.0593575512147,50.7807314741752,-39.4000000000001));
#1149=CARTESIAN_POINT('',(54.1642509656145,49.5039528738613,-39.4000000000001));
#1150=CARTESIAN_POINT('Origin',(54.9999999999163,55.9499999999428,-39.4000000000001));
#1151=CARTESIAN_POINT('Origin',(52.7999999999163,50.5999999999428,-39.4000000000001));
#1152=CARTESIAN_POINT('',(44.4999999999163,48.4499999999428,-39.4000000000001));
#1153=CARTESIAN_POINT('',(44.4999999999163,63.4499999999428,-39.4000000000002));
#1154=CARTESIAN_POINT('',(44.4999999999163,64.1999999999428,-39.4000000000002));
#1155=CARTESIAN_POINT('',(45.9999999999163,63.4499999999428,-39.4000000000001));
#1156=CARTESIAN_POINT('Origin',(45.2499999999163,63.4499999999428,-39.4000000000001));
#1157=CARTESIAN_POINT('',(45.9999999999163,48.4499999999428,-39.4000000000001));
#1158=CARTESIAN_POINT('',(45.9999999999163,47.6999999999428,-39.4000000000001));
#1159=CARTESIAN_POINT('Origin',(45.2499999999163,48.4499999999428,-39.4000000000001));
#1160=CARTESIAN_POINT('',(41.4999999999163,48.4499999999428,-39.4000000000001));
#1161=CARTESIAN_POINT('',(41.4999999999163,63.4499999999428,-39.4000000000002));
#1162=CARTESIAN_POINT('',(41.4999999999163,64.1999999999428,-39.4000000000002));
#1163=CARTESIAN_POINT('',(42.9999999999163,63.4499999999428,-39.4000000000001));
#1164=CARTESIAN_POINT('Origin',(42.2499999999163,63.4499999999428,-39.4000000000001));
#1165=CARTESIAN_POINT('',(42.9999999999163,48.4499999999428,-39.4000000000001));
#1166=CARTESIAN_POINT('',(42.9999999999163,47.6999999999428,-39.4000000000001));
#1167=CARTESIAN_POINT('Origin',(42.2499999999163,48.4499999999428,-39.4000000000001));
#1168=CARTESIAN_POINT('Origin',(45.2499999999163,48.4499999999428,-42.4000000000001));
#1169=CARTESIAN_POINT('',(45.9999999999163,48.4499999999428,-42.4000000000001));
#1170=CARTESIAN_POINT('',(44.4999999999163,48.4499999999428,-42.4000000000001));
#1171=CARTESIAN_POINT('Origin',(45.2499999999163,48.4499999999428,-42.4000000000001));
#1172=CARTESIAN_POINT('',(44.4999999999163,48.4499999999428,-42.4000000000001));
#1173=CARTESIAN_POINT('',(45.9999999999163,48.4499999999428,-42.4000000000001));
#1174=CARTESIAN_POINT('Origin',(44.4999999999163,47.6999999999428,-42.4000000000001));
#1175=CARTESIAN_POINT('',(44.4999999999163,63.4499999999428,-42.4000000000002));
#1176=CARTESIAN_POINT('',(44.4999999999163,64.1999999999428,-42.4000000000002));
#1177=CARTESIAN_POINT('',(44.4999999999163,63.4499999999428,-42.4000000000002));
#1178=CARTESIAN_POINT('Origin',(42.2499999999163,48.4499999999428,-42.4000000000001));
#1179=CARTESIAN_POINT('',(42.9999999999163,48.4499999999428,-42.4000000000001));
#1180=CARTESIAN_POINT('',(41.4999999999163,48.4499999999428,-42.4000000000001));
#1181=CARTESIAN_POINT('Origin',(42.2499999999163,48.4499999999428,-42.4000000000001));
#1182=CARTESIAN_POINT('',(41.4999999999163,48.4499999999428,-42.4000000000001));
#1183=CARTESIAN_POINT('',(42.9999999999163,48.4499999999428,-42.4000000000001));
#1184=CARTESIAN_POINT('Origin',(41.4999999999163,47.6999999999428,-42.4000000000001));
#1185=CARTESIAN_POINT('',(41.4999999999163,63.4499999999428,-42.4000000000002));
#1186=CARTESIAN_POINT('',(41.4999999999163,64.1999999999428,-42.4000000000002));
#1187=CARTESIAN_POINT('',(41.4999999999163,63.4499999999428,-42.4000000000002));
#1188=CARTESIAN_POINT('Origin',(42.2499999999163,63.4499999999428,-42.4000000000002));
#1189=CARTESIAN_POINT('',(42.9999999999163,63.4499999999428,-42.4000000000002));
#1190=CARTESIAN_POINT('Origin',(42.2499999999163,63.4499999999428,-42.4000000000002));
#1191=CARTESIAN_POINT('',(42.9999999999163,63.4499999999428,-42.4000000000002));
#1192=CARTESIAN_POINT('Origin',(42.9999999999163,64.1999999999428,-42.4000000000002));
#1193=CARTESIAN_POINT('',(42.9999999999163,47.6999999999428,-42.4000000000001));
#1194=CARTESIAN_POINT('Origin',(45.2499999999163,63.4499999999428,-42.4000000000001));
#1195=CARTESIAN_POINT('',(45.9999999999163,63.4499999999428,-42.4000000000002));
#1196=CARTESIAN_POINT('Origin',(45.2499999999163,63.4499999999428,-42.4000000000002));
#1197=CARTESIAN_POINT('',(45.9999999999163,63.4499999999428,-42.4000000000001));
#1198=CARTESIAN_POINT('Origin',(45.9999999999163,64.1999999999428,-42.4000000000002));
#1199=CARTESIAN_POINT('',(45.9999999999163,47.6999999999428,-42.4000000000001));
#1200=CARTESIAN_POINT('Origin',(54.9999999999163,55.9499999999428,-37.1500000000001));
#1201=CARTESIAN_POINT('',(54.0711929718618,51.8027337311054,-36.4000000000001));
#1202=CARTESIAN_POINT('',(54.5095436669799,50.9741128845148,-37.1500000000001));
#1203=CARTESIAN_POINT('Ctrl Pts',(54.0711929718618,51.8027337311054,-36.4000000000001));
#1204=CARTESIAN_POINT('Ctrl Pts',(54.1323480171287,51.7380977591292,-36.4000000000001));
#1205=CARTESIAN_POINT('Ctrl Pts',(54.1872263242437,51.670212261037,-36.4049308138633));
#1206=CARTESIAN_POINT('Ctrl Pts',(54.3044995946057,51.5018769276372,-36.4380099736042));
#1207=CARTESIAN_POINT('Ctrl Pts',(54.3539319055422,51.4098757704121,-36.4731005915377));
#1208=CARTESIAN_POINT('Ctrl Pts',(54.4262640337564,51.251764327929,-36.5699070419276));
#1209=CARTESIAN_POINT('Ctrl Pts',(54.4512200587048,51.1827093375868,-36.6304667051717));
#1210=CARTESIAN_POINT('Ctrl Pts',(54.4866922291288,51.0700698040272,-36.7769223747912));
#1211=CARTESIAN_POINT('Ctrl Pts',(54.4970417848907,51.0280606609284,-36.85951576204));
#1212=CARTESIAN_POINT('Ctrl Pts',(54.5075366968927,50.9836606217542,-37.0138803592637));
#1213=CARTESIAN_POINT('Ctrl Pts',(54.5095436669799,50.9741128845148,-37.0818888175843));
#1214=CARTESIAN_POINT('Ctrl Pts',(54.5095436669799,50.9741128845148,-37.1500000000001));
#1215=CARTESIAN_POINT('',(51.8481701916498,52.0685094538094,-37.1500000000001));
#1216=CARTESIAN_POINT('Origin',(54.9999999999163,55.9499999999428,-37.1500000000001));
#1217=CARTESIAN_POINT('',(52.7426284698833,52.349059320704,-36.4000000000001));
#1218=CARTESIAN_POINT('Ctrl Pts',(51.8481701916498,52.0685094538094,-37.1500000000001));
#1219=CARTESIAN_POINT('Ctrl Pts',(51.8481701916498,52.0685094538094,-37.0736969600001));
#1220=CARTESIAN_POINT('Ctrl Pts',(51.8583786829603,52.0752719760601,-36.9978600810489));
#1221=CARTESIAN_POINT('Ctrl Pts',(51.9034621610147,52.1031832082123,-36.838321532894));
#1222=CARTESIAN_POINT('Ctrl Pts',(51.9424511867965,52.1266490778164,-36.7580762751093));
#1223=CARTESIAN_POINT('Ctrl Pts',(52.0472702813001,52.1809230005085,-36.6202156650733));
#1224=CARTESIAN_POINT('Ctrl Pts',(52.1107648879283,52.21048082136,-36.5645516003953));
#1225=CARTESIAN_POINT('Ctrl Pts',(52.2621209285532,52.267355232386,-36.4755995719303));
#1226=CARTESIAN_POINT('Ctrl Pts',(52.3475558771989,52.2930511669681,-36.4456543978757));
#1227=CARTESIAN_POINT('Ctrl Pts',(52.5371573618691,52.3330879129833,-36.4065744105005));
#1228=CARTESIAN_POINT('Ctrl Pts',(52.6393186534615,52.3456706178938,-36.4000000000001));
#1229=CARTESIAN_POINT('Ctrl Pts',(52.7426284698833,52.349059320704,-36.4000000000001));
#1230=CARTESIAN_POINT('Origin',(54.9999999999163,55.9499999999428,-36.4000000000001));
#1231=CARTESIAN_POINT('Origin',(54.9999999999163,55.9499999999428,-42.4000000000001));
#1232=CARTESIAN_POINT('',(54.5095436669799,50.9741128845148,-37.9000000000001));
#1233=CARTESIAN_POINT('',(54.5095436669799,50.9741128845148,-42.4000000000001));
#1234=CARTESIAN_POINT('',(51.8481701916498,52.0685094538094,-37.9000000000001));
#1235=CARTESIAN_POINT('Origin',(54.9999999999163,55.9499999999428,-37.9000000000001));
#1236=CARTESIAN_POINT('',(51.8481701916498,52.0685094538094,-42.4000000000001));
#1237=CARTESIAN_POINT('Origin',(54.9999999999163,55.9499999999428,-38.6500000000001));
#1238=CARTESIAN_POINT('',(54.5084772262327,50.2210467479996,-37.9000000000001));
#1239=CARTESIAN_POINT('',(54.1642509656145,49.5039528738613,-38.6500000000001));
#1240=CARTESIAN_POINT('Ctrl Pts',(54.5084772262326,50.2210467479996,-37.9000000000001));
#1241=CARTESIAN_POINT('Ctrl Pts',(54.5012234635703,50.1883438004719,-37.9000000000001));
#1242=CARTESIAN_POINT('Ctrl Pts',(54.4930154410467,50.1557941471401,-37.9022035916582));
#1243=CARTESIAN_POINT('Ctrl Pts',(54.4586555483319,50.0343467292948,-37.9187546494081));
#1244=CARTESIAN_POINT('Ctrl Pts',(54.4270100446707,49.9501725931048,-37.9473197598151));
#1245=CARTESIAN_POINT('Ctrl Pts',(54.3543183516692,49.7906406926343,-38.0368016324644));
#1246=CARTESIAN_POINT('Ctrl Pts',(54.3129850658006,49.7178673038096,-38.1004413201003));
#1247=CARTESIAN_POINT('Ctrl Pts',(54.2445275811627,49.610438783038,-38.2413759779132));
#1248=CARTESIAN_POINT('Ctrl Pts',(54.2163286539085,49.5715883566907,-38.3148746461842));
#1249=CARTESIAN_POINT('Ctrl Pts',(54.1757861554247,49.5179389369443,-38.4760817585767));
#1250=CARTESIAN_POINT('Ctrl Pts',(54.1642509656145,49.5039528738613,-38.5620848313695));
#1251=CARTESIAN_POINT('Ctrl Pts',(54.1642509656145,49.5039528738613,-38.6500000000001));
#1252=CARTESIAN_POINT('',(51.0593575512147,50.7807314741752,-38.6500000000001));
#1253=CARTESIAN_POINT('Origin',(54.9999999999163,55.9499999999428,-38.6500000000001));
#1254=CARTESIAN_POINT('',(51.3191656574251,51.5325393557336,-37.9000000000001));
#1255=CARTESIAN_POINT('Ctrl Pts',(51.0593575512147,50.7807314741752,-38.6500000000001));
#1256=CARTESIAN_POINT('Ctrl Pts',(51.0593575512147,50.7807314741752,-38.5661761241466));
#1257=CARTESIAN_POINT('Ctrl Pts',(51.0608647382889,50.7971407538227,-38.4840315809862));
#1258=CARTESIAN_POINT('Ctrl Pts',(51.0692714816172,50.8611745241386,-38.3214176790233));
#1259=CARTESIAN_POINT('Ctrl Pts',(51.0766937957216,50.9105914797508,-38.2438166907654));
#1260=CARTESIAN_POINT('Ctrl Pts',(51.1044890619296,51.0389196403781,-38.098896641727));
#1261=CARTESIAN_POINT('Ctrl Pts',(51.1267093583417,51.1208783624815,-38.0347594823835));
#1262=CARTESIAN_POINT('Ctrl Pts',(51.1899961574428,51.2915568993538,-37.9430883291731));
#1263=CARTESIAN_POINT('Ctrl Pts',(51.2297983734247,51.3789260050194,-37.9142390894369));
#1264=CARTESIAN_POINT('Ctrl Pts',(51.2916280437818,51.4876977515529,-37.9013565583529));
#1265=CARTESIAN_POINT('Ctrl Pts',(51.3051616586556,51.5103015786561,-37.9000000000001));
#1266=CARTESIAN_POINT('Ctrl Pts',(51.3191656574251,51.5325393557336,-37.9000000000001));
#1267=CARTESIAN_POINT('Origin',(54.9999999999163,55.9499999999428,-37.9000000000001));
#1268=CARTESIAN_POINT('Origin',(52.7999999999163,50.5999999999428,-42.4000000000001));
#1269=CARTESIAN_POINT('Origin',(52.7999999999163,50.5999999999428,-37.9000000000001));
#1270=CARTESIAN_POINT('',(51.0593575512147,50.7807314741752,-42.4000000000001));
#1271=CARTESIAN_POINT('',(54.1642509656145,49.5039528738613,-42.4000000000001));
#1272=CARTESIAN_POINT('',(54.5499999999163,50.5999999999428,-37.9000000000001));
#1273=CARTESIAN_POINT('Origin',(52.7999999999163,50.5999999999428,-37.9000000000001));
#1274=CARTESIAN_POINT('',(54.5499999999163,50.5999999999428,-42.4000000000001));
#1275=CARTESIAN_POINT('',(54.5499999999163,50.5999999999428,-42.4000000000001));
#1276=CARTESIAN_POINT('Origin',(52.7999999999163,50.5999999999428,-42.4000000000001));
#1277=CARTESIAN_POINT('Origin',(52.7999999999163,50.5999999999428,-37.9000000000001));
#1278=CARTESIAN_POINT('Origin',(52.7999999999163,50.5999999999428,-36.4000000000001));
#1279=CARTESIAN_POINT('Origin',(54.9999999999163,55.9499999999428,-37.9000000000001));
#1280=CARTESIAN_POINT('Ctrl Pts',(34.4999999999163,47.4499999999428,-40.9000000000001));
#1281=CARTESIAN_POINT('Ctrl Pts',(34.4999999999163,44.4499999999428,-40.9000000000001));
#1282=CARTESIAN_POINT('Ctrl Pts',(37.4999999999163,44.4499999999428,-40.9000000000001));
#1283=CARTESIAN_POINT('Ctrl Pts',(34.4999999999163,47.4499999999428,-39.4000000000001));
#1284=CARTESIAN_POINT('Ctrl Pts',(34.4999999999163,44.4499999999428,-39.4000000000001));
#1285=CARTESIAN_POINT('Ctrl Pts',(37.4999999999163,44.4499999999428,-39.4000000000001));
#1286=CARTESIAN_POINT('Ctrl Pts',(35.9999999999163,47.4499999999428,-39.4000000000001));
#1287=CARTESIAN_POINT('Ctrl Pts',(35.9999999999163,45.9499999999428,-39.4000000000001));
#1288=CARTESIAN_POINT('Ctrl Pts',(37.4999999999163,45.9499999999428,-39.4000000000001));
#1289=CARTESIAN_POINT('',(34.4999999999163,47.4499999999428,-40.9000000000001));
#1290=CARTESIAN_POINT('Origin',(35.9999999999163,47.4499999999428,-40.9000000000001));
#1291=CARTESIAN_POINT('',(37.4999999999163,44.4499999999428,-40.9000000000001));
#1292=CARTESIAN_POINT('Origin',(37.4999999999163,47.4499999999428,-40.9000000000001));
#1293=CARTESIAN_POINT('Origin',(37.4999999999163,45.9499999999428,-40.9000000000001));
#1294=CARTESIAN_POINT('Origin',(37.4999999999163,47.4499999999428,-42.4000000000001));
#1295=CARTESIAN_POINT('',(34.4999999999163,47.4499999999428,-42.4000000000001));
#1296=CARTESIAN_POINT('',(37.4999999999163,44.4499999999428,-42.4000000000001));
#1297=CARTESIAN_POINT('Origin',(37.4999999999163,47.4499999999428,-42.4000000000001));
#1298=CARTESIAN_POINT('',(37.4999999999163,44.4499999999428,-42.4000000000001));
#1299=CARTESIAN_POINT('',(34.4999999999163,47.4499999999428,-42.4000000000001));
#1300=CARTESIAN_POINT('Ctrl Pts',(37.4999999999163,67.4499999999428,-40.9000000000002));
#1301=CARTESIAN_POINT('Ctrl Pts',(34.4999999999162,67.4499999999428,-40.9000000000002));
#1302=CARTESIAN_POINT('Ctrl Pts',(34.4999999999162,64.4499999999428,-40.9000000000002));
#1303=CARTESIAN_POINT('Ctrl Pts',(37.4999999999163,67.4499999999428,-39.4000000000001));
#1304=CARTESIAN_POINT('Ctrl Pts',(34.4999999999162,67.4499999999428,-39.4000000000001));
#1305=CARTESIAN_POINT('Ctrl Pts',(34.4999999999162,64.4499999999428,-39.4000000000001));
#1306=CARTESIAN_POINT('Ctrl Pts',(37.4999999999163,65.9499999999428,-39.4000000000002));
#1307=CARTESIAN_POINT('Ctrl Pts',(35.9999999999163,65.9499999999428,-39.4000000000002));
#1308=CARTESIAN_POINT('Ctrl Pts',(35.9999999999163,64.4499999999428,-39.4000000000002));
#1309=CARTESIAN_POINT('',(37.4999999999163,67.4499999999428,-40.9000000000002));
#1310=CARTESIAN_POINT('Origin',(37.4999999999163,65.9499999999428,-40.9000000000002));
#1311=CARTESIAN_POINT('',(34.4999999999163,64.4499999999428,-40.9000000000002));
#1312=CARTESIAN_POINT('Origin',(37.4999999999163,64.4499999999428,-40.9000000000002));
#1313=CARTESIAN_POINT('Origin',(35.9999999999163,64.4499999999428,-40.9000000000002));
#1314=CARTESIAN_POINT('Origin',(37.4999999999163,64.4499999999428,-42.4000000000001));
#1315=CARTESIAN_POINT('',(37.4999999999163,67.4499999999428,-42.4000000000002));
#1316=CARTESIAN_POINT('',(34.4999999999163,64.4499999999428,-42.4000000000002));
#1317=CARTESIAN_POINT('Origin',(37.4999999999163,64.4499999999428,-42.4000000000002));
#1318=CARTESIAN_POINT('',(34.4999999999163,64.4499999999428,-42.4000000000001));
#1319=CARTESIAN_POINT('',(37.4999999999163,67.4499999999428,-42.4000000000001));
#1320=CARTESIAN_POINT('Origin',(35.9999999999163,61.6999999999428,-40.9000000000001));
#1321=CARTESIAN_POINT('',(34.4999999999163,61.6999999999428,-40.9000000000001));
#1322=CARTESIAN_POINT('Ctrl Pts',(67.4999999999163,44.4499999999428,-40.9000000000001));
#1323=CARTESIAN_POINT('Ctrl Pts',(70.4999999999163,44.4499999999428,-40.9000000000001));
#1324=CARTESIAN_POINT('Ctrl Pts',(70.4999999999163,47.4499999999428,-40.9000000000001));
#1325=CARTESIAN_POINT('Ctrl Pts',(67.4999999999163,44.4499999999428,-39.4000000000001));
#1326=CARTESIAN_POINT('Ctrl Pts',(70.4999999999163,44.4499999999428,-39.4000000000001));
#1327=CARTESIAN_POINT('Ctrl Pts',(70.4999999999163,47.4499999999428,-39.4000000000001));
#1328=CARTESIAN_POINT('Ctrl Pts',(67.4999999999163,45.9499999999428,-39.4000000000001));
#1329=CARTESIAN_POINT('Ctrl Pts',(68.9999999999163,45.9499999999428,-39.4000000000001));
#1330=CARTESIAN_POINT('Ctrl Pts',(68.9999999999163,47.4499999999428,-39.4000000000001));
#1331=CARTESIAN_POINT('',(67.4999999999163,44.4499999999428,-40.9000000000001));
#1332=CARTESIAN_POINT('Origin',(67.4999999999163,45.9499999999428,-40.9000000000001));
#1333=CARTESIAN_POINT('',(70.4999999999163,47.4499999999428,-40.9000000000001));
#1334=CARTESIAN_POINT('Origin',(67.4999999999163,47.4499999999428,-40.9000000000001));
#1335=CARTESIAN_POINT('Origin',(68.9999999999163,47.4499999999428,-40.9000000000001));
#1336=CARTESIAN_POINT('Origin',(67.4999999999163,47.4499999999428,-42.4000000000001));
#1337=CARTESIAN_POINT('',(67.4999999999163,44.4499999999428,-42.4000000000001));
#1338=CARTESIAN_POINT('',(70.4999999999163,47.4499999999428,-42.4000000000001));
#1339=CARTESIAN_POINT('Origin',(67.4999999999163,47.4499999999428,-42.4000000000001));
#1340=CARTESIAN_POINT('',(70.4999999999163,47.4499999999428,-42.4000000000001));
#1341=CARTESIAN_POINT('',(67.4999999999163,44.4499999999428,-42.4000000000001));
#1342=CARTESIAN_POINT('Ctrl Pts',(70.4999999999163,64.4499999999428,-40.9000000000002));
#1343=CARTESIAN_POINT('Ctrl Pts',(70.4999999999163,67.4499999999428,-40.9000000000002));
#1344=CARTESIAN_POINT('Ctrl Pts',(67.4999999999163,67.4499999999428,-40.9000000000002));
#1345=CARTESIAN_POINT('Ctrl Pts',(70.4999999999163,64.4499999999428,-39.4000000000001));
#1346=CARTESIAN_POINT('Ctrl Pts',(70.4999999999163,67.4499999999428,-39.4000000000001));
#1347=CARTESIAN_POINT('Ctrl Pts',(67.4999999999163,67.4499999999428,-39.4000000000001));
#1348=CARTESIAN_POINT('Ctrl Pts',(68.9999999999163,64.4499999999428,-39.4000000000001));
#1349=CARTESIAN_POINT('Ctrl Pts',(68.9999999999163,65.9499999999428,-39.4000000000001));
#1350=CARTESIAN_POINT('Ctrl Pts',(67.4999999999163,65.9499999999428,-39.4000000000001));
#1351=CARTESIAN_POINT('',(70.4999999999163,64.4499999999428,-40.9000000000001));
#1352=CARTESIAN_POINT('Origin',(68.9999999999163,64.4499999999428,-40.9000000000001));
#1353=CARTESIAN_POINT('',(67.4999999999163,67.4499999999428,-40.9000000000002));
#1354=CARTESIAN_POINT('Origin',(67.4999999999163,64.4499999999428,-40.9000000000001));
#1355=CARTESIAN_POINT('Origin',(67.4999999999163,65.9499999999428,-40.9000000000001));
#1356=CARTESIAN_POINT('Origin',(67.4999999999163,64.4499999999428,-42.4000000000001));
#1357=CARTESIAN_POINT('',(70.4999999999163,64.4499999999428,-42.4000000000001));
#1358=CARTESIAN_POINT('',(67.4999999999163,67.4499999999428,-42.4000000000001));
#1359=CARTESIAN_POINT('Origin',(67.4999999999163,64.4499999999428,-42.4000000000002));
#1360=CARTESIAN_POINT('',(67.4999999999163,67.4499999999428,-42.4000000000002));
#1361=CARTESIAN_POINT('',(70.4999999999163,64.4499999999428,-42.4000000000001));
#1362=CARTESIAN_POINT('Origin',(61.4999999999163,65.9499999999428,-40.9000000000001));
#1363=CARTESIAN_POINT('',(61.4999999999163,67.4499999999428,-40.9000000000002));
#1364=CARTESIAN_POINT('Origin',(68.9999999999163,50.1999999999428,-40.9000000000001));
#1365=CARTESIAN_POINT('',(70.4999999999163,50.1999999999428,-40.9000000000001));
#1366=CARTESIAN_POINT('Origin',(43.4999999999163,45.9499999999428,-40.9000000000001));
#1367=CARTESIAN_POINT('',(43.4999999999163,44.4499999999428,-40.9000000000001));
#1368=CARTESIAN_POINT('Origin',(34.4999999999163,67.4499999999428,-42.4000000000002));
#1369=CARTESIAN_POINT('',(34.4999999999163,44.4499999999428,-42.4000000000001));
#1370=CARTESIAN_POINT('Origin',(70.4999999999163,67.4499999999428,-42.4000000000001));
#1371=CARTESIAN_POINT('',(34.4999999999163,67.4499999999428,-42.4000000000002));
#1372=CARTESIAN_POINT('Origin',(54.9999999999163,55.9499999999428,-42.4000000000001));
#1373=CARTESIAN_POINT('Origin',(52.4999999999163,55.9499999999428,-42.4000000000001));
#1374=CARTESIAN_POINT('',(70.4999999999163,67.4499999999428,-42.4000000000001));
#1375=CARTESIAN_POINT('',(70.4999999999163,44.4499999999428,-42.4000000000001));
#1376=CARTESIAN_POINT('',(58.4999999999163,55.9499999999428,-42.4000000000001));
#1377=CARTESIAN_POINT('Origin',(54.9999999999163,55.9499999999428,-42.4000000000001));
#1378=CARTESIAN_POINT('',(38.249999999907,55.9499999999697,-42.4000000000001));
#1379=CARTESIAN_POINT('Origin',(37.199999999907,55.9499999999697,-42.4000000000001));
#1380=CARTESIAN_POINT('',(68.8499999999255,55.9499999999159,-42.4000000000001));
#1381=CARTESIAN_POINT('Origin',(67.7999999999255,55.9499999999159,-42.4000000000001));
#1382=CARTESIAN_POINT('Origin',(54.9999999999163,55.9499999999428,-42.4000000000001));
#1383=CARTESIAN_POINT('',(58.4999999999163,55.9499999999428,-36.4000000000001));
#1384=CARTESIAN_POINT('Origin',(54.9999999999163,55.9499999999428,-36.4000000000001));
#1385=CARTESIAN_POINT('',(58.4999999999163,55.9499999999428,-42.4000000000001));
#1386=CARTESIAN_POINT('Origin',(54.9999999999163,55.9499999999428,-36.4000000000001));
#1387=CARTESIAN_POINT('Origin',(37.199999999907,55.9499999999697,-42.4000000000001));
#1388=CARTESIAN_POINT('',(38.249999999907,55.9499999999697,-42.4000000000001));
#1389=CARTESIAN_POINT('Origin',(67.7999999999255,55.9499999999159,-42.4000000000001));
#1390=CARTESIAN_POINT('',(68.8499999999255,55.9499999999159,-42.4000000000001));
#1391=CARTESIAN_POINT('Origin',(70.4999999999163,44.4499999999428,-42.4000000000001));
#1392=CARTESIAN_POINT('Origin',(34.4999999999163,44.4499999999428,-42.4000000000001));
#1393=CARTESIAN_POINT('',(-52.4999999999163,-55.9499999999428,42.4000000000001));
#1394=UNCERTAINTY_MEASURE_WITH_UNIT(LENGTH_MEASURE(0.01),#1400,
'DISTANCE_ACCURACY_VALUE',
'Maximum model space distance between geometric entities at asserted c
onnectivities');
#1395=UNCERTAINTY_MEASURE_WITH_UNIT(LENGTH_MEASURE(0.01),#1400,
'DISTANCE_ACCURACY_VALUE',
'Maximum model space distance between geometric entities at asserted c
onnectivities');
#1396=UNCERTAINTY_MEASURE_WITH_UNIT(LENGTH_MEASURE(0.01),#1400,
'DISTANCE_ACCURACY_VALUE',
'Maximum model space distance between geometric entities at asserted c
onnectivities');
#1397=(
GEOMETRIC_REPRESENTATION_CONTEXT(3)
GLOBAL_UNCERTAINTY_ASSIGNED_CONTEXT((#1394))
GLOBAL_UNIT_ASSIGNED_CONTEXT((#1400,#1402,#1403))
REPRESENTATION_CONTEXT('','3D')
);
#1398=(
GEOMETRIC_REPRESENTATION_CONTEXT(3)
GLOBAL_UNCERTAINTY_ASSIGNED_CONTEXT((#1395))
GLOBAL_UNIT_ASSIGNED_CONTEXT((#1400,#1402,#1403))
REPRESENTATION_CONTEXT('','3D')
);
#1399=(
GEOMETRIC_REPRESENTATION_CONTEXT(3)
GLOBAL_UNCERTAINTY_ASSIGNED_CONTEXT((#1396))
GLOBAL_UNIT_ASSIGNED_CONTEXT((#1400,#1402,#1403))
REPRESENTATION_CONTEXT('','3D')
);
#1400=(
LENGTH_UNIT()
NAMED_UNIT(*)
SI_UNIT(.MILLI.,.METRE.)
);
#1401=(
LENGTH_UNIT()
NAMED_UNIT(*)
SI_UNIT($,.METRE.)
);
#1402=(
NAMED_UNIT(*)
PLANE_ANGLE_UNIT()
SI_UNIT($,.RADIAN.)
);
#1403=(
NAMED_UNIT(*)
SI_UNIT($,.STERADIAN.)
SOLID_ANGLE_UNIT()
);
#1404=SHAPE_DEFINITION_REPRESENTATION(#1406,#1409);
#1405=SHAPE_DEFINITION_REPRESENTATION(#1407,#1410);
#1406=PRODUCT_DEFINITION_SHAPE('',$,#1412);
#1407=PRODUCT_DEFINITION_SHAPE('',$,#1413);
#1408=PRODUCT_DEFINITION_SHAPE($,$,#14);
#1409=SHAPE_REPRESENTATION('',(#756,#845),#1397);
#1410=SHAPE_REPRESENTATION('',(#757),#1398);
#1411=PRODUCT_DEFINITION_CONTEXT('part definition',#1419,'design');
#1412=PRODUCT_DEFINITION('2026-09-20-10-32-40-557','PRINT_LAYOUT',#1414,
#1411);
#1413=PRODUCT_DEFINITION('2026-09-20-10-32-40-555','LampBase',#1415,#1411);
#1414=PRODUCT_DEFINITION_FORMATION('',$,#1421);
#1415=PRODUCT_DEFINITION_FORMATION('',$,#1422);
#1416=PRODUCT_RELATED_PRODUCT_CATEGORY('PRINT_LAYOUT','PRINT_LAYOUT',(#1421));
#1417=PRODUCT_RELATED_PRODUCT_CATEGORY('LampBase','LampBase',(#1422));
#1418=APPLICATION_PROTOCOL_DEFINITION('international standard',
'automotive_design',2009,#1419);
#1419=APPLICATION_CONTEXT(
'Core Data for Automotive Mechanical Design Process');
#1420=PRODUCT_CONTEXT('part definition',#1419,'mechanical');
#1421=PRODUCT('2026-09-20-10-32-40-557','PRINT_LAYOUT',$,(#1420));
#1422=PRODUCT('2026-09-20-10-32-40-555','LampBase',$,(#1420));
#1423=PRESENTATION_STYLE_ASSIGNMENT((#1426));
#1424=PRESENTATION_STYLE_ASSIGNMENT((#1427));
#1425=PRESENTATION_STYLE_ASSIGNMENT((#1428));
#1426=SURFACE_STYLE_USAGE(.BOTH.,#1429);
#1427=SURFACE_STYLE_USAGE(.BOTH.,#1430);
#1428=SURFACE_STYLE_USAGE(.BOTH.,#1431);
#1429=SURFACE_SIDE_STYLE('',(#1432));
#1430=SURFACE_SIDE_STYLE('',(#1433));
#1431=SURFACE_SIDE_STYLE('',(#1434));
#1432=SURFACE_STYLE_FILL_AREA(#1435);
#1433=SURFACE_STYLE_FILL_AREA(#1436);
#1434=SURFACE_STYLE_FILL_AREA(#1437);
#1435=FILL_AREA_STYLE('Plastic - Matte (Black)',(#1438));
#1436=FILL_AREA_STYLE('Steel - Satin',(#1439));
#1437=FILL_AREA_STYLE('Brass - Old',(#1440));
#1438=FILL_AREA_STYLE_COLOUR('Plastic - Matte (Black)',#1441);
#1439=FILL_AREA_STYLE_COLOUR('Steel - Satin',#1442);
#1440=FILL_AREA_STYLE_COLOUR('Brass - Old',#1443);
#1441=COLOUR_RGB('Plastic - Matte (Black)',0.0980392156862745,0.0980392156862745,
0.0980392156862745);
#1442=COLOUR_RGB('Steel - Satin',0.627450980392157,0.627450980392157,0.627450980392157);
#1443=COLOUR_RGB('Brass - Old',0.,0.,0.);
ENDSEC;
END-ISO-10303-21;
