ISO-10303-21;
HEADER;
/* Generated by software containing ST-Developer
 * from STEP Tools, Inc. (www.steptools.com) 
 */

FILE_DESCRIPTION(
/* description */ (''),
/* implementation_level */ '2;1');

FILE_NAME(
/* name */ 'LampCap.step',
/* time_stamp */ '2026-09-12T16:13:41+02:00',
/* author */ (''),
/* organization */ (''),
/* preprocessor_version */ 'ST-DEVELOPER v20.2',
/* originating_system */ 'Autodesk Translation Framework v15.15.0.0',
/* authorisation */ '');

FILE_SCHEMA (('AUTOMOTIVE_DESIGN { 1 0 10303 214 3 1 1 }'));
ENDSEC;

DATA;
#10=MECHANICAL_DESIGN_GEOMETRIC_PRESENTATION_REPRESENTATION('',(#17),#228);
#11=ITEM_DEFINED_TRANSFORMATION($,$,#125,#145);
#12=(
REPRESENTATION_RELATIONSHIP($,$,#239,#238)
REPRESENTATION_RELATIONSHIP_WITH_TRANSFORMATION(#11)
SHAPE_REPRESENTATION_RELATIONSHIP()
);
#13=CONTEXT_DEPENDENT_SHAPE_REPRESENTATION(#12,#237);
#14=NEXT_ASSEMBLY_USAGE_OCCURRENCE('LampCap:1','LampCap:1','LampCap:1',
#241,#242,'LampCap:1');
#15=SHAPE_REPRESENTATION_RELATIONSHIP('SRR','None',#239,#16);
#16=ADVANCED_BREP_SHAPE_REPRESENTATION('',(#18),#227);
#17=STYLED_ITEM('',(#254),#18);
#18=MANIFOLD_SOLID_BREP('Body1',#111);
#19=LINE('',#219,#20);
#20=VECTOR('',#184,3.50000000000005);
#21=CYLINDRICAL_SURFACE('',#142,3.50000000000005);
#22=FACE_BOUND('',#38,.T.);
#23=PLANE('',#140);
#24=PLANE('',#144);
#25=TOROIDAL_SURFACE('',#133,8.50000000000005,1.5);
#26=FACE_OUTER_BOUND('',#33,.T.);
#27=FACE_OUTER_BOUND('',#34,.T.);
#28=FACE_OUTER_BOUND('',#35,.T.);
#29=FACE_OUTER_BOUND('',#36,.T.);
#30=FACE_OUTER_BOUND('',#37,.T.);
#31=FACE_OUTER_BOUND('',#39,.T.);
#32=FACE_OUTER_BOUND('',#40,.T.);
#33=EDGE_LOOP('',(#75,#76,#77));
#34=EDGE_LOOP('',(#78,#79,#80,#81,#82));
#35=EDGE_LOOP('',(#83,#84,#85,#86,#87,#88));
#36=EDGE_LOOP('',(#89,#90,#91,#92,#93));
#37=EDGE_LOOP('',(#94));
#38=EDGE_LOOP('',(#95));
#39=EDGE_LOOP('',(#96,#97,#98,#99));
#40=EDGE_LOOP('',(#100));
#41=CIRCLE('',#127,1.);
#42=CIRCLE('',#128,1.00000000000001);
#43=CIRCLE('',#130,7.91343793808986);
#44=CIRCLE('',#131,7.80132352941175);
#45=CIRCLE('',#132,7.80132352941175);
#46=CIRCLE('',#134,1.5);
#47=CIRCLE('',#135,7.80132352941177);
#48=CIRCLE('',#136,7.80132352941177);
#49=CIRCLE('',#138,7.91343793808986);
#50=CIRCLE('',#139,7.65653315802913);
#51=CIRCLE('',#141,3.50000000000005);
#52=CIRCLE('',#143,3.50000000000005);
#53=VERTEX_POINT('',#194);
#54=VERTEX_POINT('',#196);
#55=VERTEX_POINT('',#199);
#56=VERTEX_POINT('',#201);
#57=VERTEX_POINT('',#205);
#58=VERTEX_POINT('',#207);
#59=VERTEX_POINT('',#211);
#60=VERTEX_POINT('',#215);
#61=VERTEX_POINT('',#218);
#62=EDGE_CURVE('',#53,#53,#41,.T.);
#63=EDGE_CURVE('',#54,#53,#42,.T.);
#64=EDGE_CURVE('',#53,#55,#43,.T.);
#65=EDGE_CURVE('',#56,#55,#44,.T.);
#66=EDGE_CURVE('',#55,#56,#45,.T.);
#67=EDGE_CURVE('',#56,#57,#46,.T.);
#68=EDGE_CURVE('',#58,#57,#47,.T.);
#69=EDGE_CURVE('',#57,#58,#48,.T.);
#70=EDGE_CURVE('',#58,#59,#49,.T.);
#71=EDGE_CURVE('',#59,#59,#50,.T.);
#72=EDGE_CURVE('',#60,#60,#51,.T.);
#73=EDGE_CURVE('',#60,#61,#19,.T.);
#74=EDGE_CURVE('',#61,#61,#52,.T.);
#75=ORIENTED_EDGE('',*,*,#62,.F.);
#76=ORIENTED_EDGE('',*,*,#63,.F.);
#77=ORIENTED_EDGE('',*,*,#63,.T.);
#78=ORIENTED_EDGE('',*,*,#62,.T.);
#79=ORIENTED_EDGE('',*,*,#64,.T.);
#80=ORIENTED_EDGE('',*,*,#65,.F.);
#81=ORIENTED_EDGE('',*,*,#66,.F.);
#82=ORIENTED_EDGE('',*,*,#64,.F.);
#83=ORIENTED_EDGE('',*,*,#65,.T.);
#84=ORIENTED_EDGE('',*,*,#66,.T.);
#85=ORIENTED_EDGE('',*,*,#67,.T.);
#86=ORIENTED_EDGE('',*,*,#68,.F.);
#87=ORIENTED_EDGE('',*,*,#69,.F.);
#88=ORIENTED_EDGE('',*,*,#67,.F.);
#89=ORIENTED_EDGE('',*,*,#69,.T.);
#90=ORIENTED_EDGE('',*,*,#70,.T.);
#91=ORIENTED_EDGE('',*,*,#71,.F.);
#92=ORIENTED_EDGE('',*,*,#70,.F.);
#93=ORIENTED_EDGE('',*,*,#68,.T.);
#94=ORIENTED_EDGE('',*,*,#71,.T.);
#95=ORIENTED_EDGE('',*,*,#72,.F.);
#96=ORIENTED_EDGE('',*,*,#72,.T.);
#97=ORIENTED_EDGE('',*,*,#73,.T.);
#98=ORIENTED_EDGE('',*,*,#74,.F.);
#99=ORIENTED_EDGE('',*,*,#73,.F.);
#100=ORIENTED_EDGE('',*,*,#74,.T.);
#101=SPHERICAL_SURFACE('',#126,1.00000000000001);
#102=SPHERICAL_SURFACE('',#129,7.91343793808986);
#103=SPHERICAL_SURFACE('',#137,7.91343793808986);
#104=ADVANCED_FACE('',(#26),#101,.T.);
#105=ADVANCED_FACE('',(#27),#102,.T.);
#106=ADVANCED_FACE('',(#28),#25,.F.);
#107=ADVANCED_FACE('',(#29),#103,.T.);
#108=ADVANCED_FACE('',(#30,#22),#23,.T.);
#109=ADVANCED_FACE('',(#31),#21,.F.);
#110=ADVANCED_FACE('',(#32),#24,.T.);
#111=CLOSED_SHELL('',(#104,#105,#106,#107,#108,#109,#110));
#112=DERIVED_UNIT_ELEMENT(#114,1.);
#113=DERIVED_UNIT_ELEMENT(#230,-3.);
#114=(
MASS_UNIT()
NAMED_UNIT(*)
SI_UNIT(.KILO.,.GRAM.)
);
#115=DERIVED_UNIT((#112,#113));
#116=MEASURE_REPRESENTATION_ITEM('density measure',
POSITIVE_RATIO_MEASURE(7850.),#115);
#117=PROPERTY_DEFINITION_REPRESENTATION(#122,#119);
#118=PROPERTY_DEFINITION_REPRESENTATION(#123,#120);
#119=REPRESENTATION('material name',(#121),#227);
#120=REPRESENTATION('density',(#116),#227);
#121=DESCRIPTIVE_REPRESENTATION_ITEM('Steel','Steel');
#122=PROPERTY_DEFINITION('material property','material name',#242);
#123=PROPERTY_DEFINITION('material property','density of part',#242);
#124=AXIS2_PLACEMENT_3D('',#191,#146,#147);
#125=AXIS2_PLACEMENT_3D('',#192,#148,#149);
#126=AXIS2_PLACEMENT_3D('',#193,#150,#151);
#127=AXIS2_PLACEMENT_3D('',#195,#152,#153);
#128=AXIS2_PLACEMENT_3D('',#197,#154,#155);
#129=AXIS2_PLACEMENT_3D('',#198,#156,#157);
#130=AXIS2_PLACEMENT_3D('',#200,#158,#159);
#131=AXIS2_PLACEMENT_3D('',#202,#160,#161);
#132=AXIS2_PLACEMENT_3D('',#203,#162,#163);
#133=AXIS2_PLACEMENT_3D('',#204,#164,#165);
#134=AXIS2_PLACEMENT_3D('',#206,#166,#167);
#135=AXIS2_PLACEMENT_3D('',#208,#168,#169);
#136=AXIS2_PLACEMENT_3D('',#209,#170,#171);
#137=AXIS2_PLACEMENT_3D('',#210,#172,#173);
#138=AXIS2_PLACEMENT_3D('',#212,#174,#175);
#139=AXIS2_PLACEMENT_3D('',#213,#176,#177);
#140=AXIS2_PLACEMENT_3D('',#214,#178,#179);
#141=AXIS2_PLACEMENT_3D('',#216,#180,#181);
#142=AXIS2_PLACEMENT_3D('',#217,#182,#183);
#143=AXIS2_PLACEMENT_3D('',#220,#185,#186);
#144=AXIS2_PLACEMENT_3D('',#221,#187,#188);
#145=AXIS2_PLACEMENT_3D('',#222,#189,#190);
#146=DIRECTION('axis',(0.,0.,1.));
#147=DIRECTION('refdir',(1.,0.,0.));
#148=DIRECTION('axis',(0.,0.,1.));
#149=DIRECTION('refdir',(1.,0.,0.));
#150=DIRECTION('center_axis',(0.,0.,1.));
#151=DIRECTION('ref_axis',(1.,0.,0.));
#152=DIRECTION('center_axis',(9.38073777104241E-31,-2.96059473233375E-15,
-1.));
#153=DIRECTION('ref_axis',(1.,2.77725628303524E-45,9.38073777104241E-31));
#154=DIRECTION('center_axis',(0.,-1.,0.));
#155=DIRECTION('ref_axis',(-1.,0.,0.));
#156=DIRECTION('center_axis',(0.,0.,1.));
#157=DIRECTION('ref_axis',(1.,0.,0.));
#158=DIRECTION('center_axis',(0.,-1.,0.));
#159=DIRECTION('ref_axis',(-1.,0.,0.));
#160=DIRECTION('center_axis',(9.38073777104241E-31,-2.96059473233375E-15,
-1.));
#161=DIRECTION('ref_axis',(1.,2.77725628303524E-45,9.38073777104241E-31));
#162=DIRECTION('center_axis',(9.38073777104241E-31,-2.96059473233375E-15,
-1.));
#163=DIRECTION('ref_axis',(1.,2.77725628303524E-45,9.38073777104241E-31));
#164=DIRECTION('center_axis',(9.38073777104241E-31,-2.96059473233375E-15,
-1.));
#165=DIRECTION('ref_axis',(-1.,0.,0.));
#166=DIRECTION('center_axis',(0.,-1.,2.96059473233375E-15));
#167=DIRECTION('ref_axis',(1.,0.,0.));
#168=DIRECTION('center_axis',(9.38073777104241E-31,-2.96059473233375E-15,
-1.));
#169=DIRECTION('ref_axis',(1.,2.77725628303524E-45,9.38073777104241E-31));
#170=DIRECTION('center_axis',(9.38073777104241E-31,-2.96059473233375E-15,
-1.));
#171=DIRECTION('ref_axis',(1.,2.77725628303524E-45,9.38073777104241E-31));
#172=DIRECTION('center_axis',(0.,0.,1.));
#173=DIRECTION('ref_axis',(1.,0.,0.));
#174=DIRECTION('center_axis',(0.,-1.,0.));
#175=DIRECTION('ref_axis',(-1.,0.,0.));
#176=DIRECTION('center_axis',(9.38073777104241E-31,-2.96059473233375E-15,
-1.));
#177=DIRECTION('ref_axis',(1.,2.77725628303524E-45,9.38073777104241E-31));
#178=DIRECTION('center_axis',(9.38073777104241E-31,-2.96059473233375E-15,
-1.));
#179=DIRECTION('ref_axis',(-1.,0.,-9.38073777104241E-31));
#180=DIRECTION('center_axis',(9.38073777104241E-31,-2.96059473233375E-15,
-1.));
#181=DIRECTION('ref_axis',(1.,2.77725628303524E-45,9.38073777104241E-31));
#182=DIRECTION('center_axis',(9.38073777104241E-31,-2.96059473233375E-15,
-1.));
#183=DIRECTION('ref_axis',(9.71889036307528E-31,-1.,2.92125420199545E-15));
#184=DIRECTION('',(-9.38073777104241E-31,2.96059473233375E-15,1.));
#185=DIRECTION('center_axis',(9.38073777104241E-31,-2.96059473233375E-15,
-1.));
#186=DIRECTION('ref_axis',(1.,2.77725628303524E-45,9.38073777104241E-31));
#187=DIRECTION('center_axis',(9.38073777104241E-31,-2.96059473233375E-15,
-1.));
#188=DIRECTION('ref_axis',(-1.,0.,-9.38073777104241E-31));
#189=DIRECTION('',(-1.32667056827057E-59,2.96059473233375E-15,1.));
#190=DIRECTION('',(-1.,1.22464679914735E-16,-3.62568286252504E-31));
#191=CARTESIAN_POINT('',(0.,0.,0.));
#192=CARTESIAN_POINT('',(0.,0.,0.));
#193=CARTESIAN_POINT('Origin',(57.499999999929,55.9499999999425,-14.4000000000001));
#194=CARTESIAN_POINT('',(56.499999999929,55.9499999999425,-14.4000000000001));
#195=CARTESIAN_POINT('Origin',(57.499999999929,55.9499999999425,-14.4000000000001));
#196=CARTESIAN_POINT('',(57.499999999929,55.9499999999425,-13.4000000000001));
#197=CARTESIAN_POINT('Origin',(57.499999999929,55.9499999999425,-14.4000000000001));
#198=CARTESIAN_POINT('Origin',(57.499999999929,55.9499999999424,-22.2500000000001));
#199=CARTESIAN_POINT('',(49.6986764705172,55.9499999999424,-20.9226525739483));
#200=CARTESIAN_POINT('Origin',(57.499999999929,55.9499999999424,-22.2500000000001));
#201=CARTESIAN_POINT('',(65.3013235293407,55.9499999999424,-20.9226525739483));
#202=CARTESIAN_POINT('Origin',(57.499999999929,55.9499999999424,-20.9226525739483));
#203=CARTESIAN_POINT('Origin',(57.499999999929,55.9499999999424,-20.9226525739483));
#204=CARTESIAN_POINT('Origin',(57.499999999929,55.9499999999424,-22.25));
#205=CARTESIAN_POINT('',(65.3013235293407,55.9499999999424,-23.5773474260518));
#206=CARTESIAN_POINT('Origin',(65.999999999929,55.9499999999424,-22.25));
#207=CARTESIAN_POINT('',(49.6986764705172,55.9499999999424,-23.5773474260518));
#208=CARTESIAN_POINT('Origin',(57.499999999929,55.9499999999424,-23.5773474260518));
#209=CARTESIAN_POINT('Origin',(57.499999999929,55.9499999999424,-23.5773474260518));
#210=CARTESIAN_POINT('Origin',(57.499999999929,55.9499999999424,-22.2500000000001));
#211=CARTESIAN_POINT('',(49.8434668418998,55.9499999999424,-24.2500000000002));
#212=CARTESIAN_POINT('Origin',(57.499999999929,55.9499999999424,-22.2500000000001));
#213=CARTESIAN_POINT('Origin',(57.499999999929,55.9499999999424,-24.2500000000002));
#214=CARTESIAN_POINT('Origin',(57.499999999929,52.4499999999424,-24.25));
#215=CARTESIAN_POINT('',(57.499999999929,59.4499999999425,-24.25));
#216=CARTESIAN_POINT('Origin',(57.499999999929,55.9499999999424,-24.25));
#217=CARTESIAN_POINT('Origin',(57.499999999929,55.9499999999424,-23.25));
#218=CARTESIAN_POINT('',(57.499999999929,59.4499999999425,-22.25));
#219=CARTESIAN_POINT('',(57.499999999929,59.4499999999425,-23.25));
#220=CARTESIAN_POINT('Origin',(57.499999999929,55.9499999999424,-22.25));
#221=CARTESIAN_POINT('Origin',(57.499999999929,55.9499999999424,-22.2500000000001));
#222=CARTESIAN_POINT('',(57.499999999929,55.9499999999425,24.2499999999999));
#223=UNCERTAINTY_MEASURE_WITH_UNIT(LENGTH_MEASURE(0.01),#229,
'DISTANCE_ACCURACY_VALUE',
'Maximum model space distance between geometric entities at asserted c
onnectivities');
#224=UNCERTAINTY_MEASURE_WITH_UNIT(LENGTH_MEASURE(0.01),#229,
'DISTANCE_ACCURACY_VALUE',
'Maximum model space distance between geometric entities at asserted c
onnectivities');
#225=UNCERTAINTY_MEASURE_WITH_UNIT(LENGTH_MEASURE(0.01),#229,
'DISTANCE_ACCURACY_VALUE',
'Maximum model space distance between geometric entities at asserted c
onnectivities');
#226=(
GEOMETRIC_REPRESENTATION_CONTEXT(3)
GLOBAL_UNCERTAINTY_ASSIGNED_CONTEXT((#223))
GLOBAL_UNIT_ASSIGNED_CONTEXT((#229,#231,#232))
REPRESENTATION_CONTEXT('','3D')
);
#227=(
GEOMETRIC_REPRESENTATION_CONTEXT(3)
GLOBAL_UNCERTAINTY_ASSIGNED_CONTEXT((#224))
GLOBAL_UNIT_ASSIGNED_CONTEXT((#229,#231,#232))
REPRESENTATION_CONTEXT('','3D')
);
#228=(
GEOMETRIC_REPRESENTATION_CONTEXT(3)
GLOBAL_UNCERTAINTY_ASSIGNED_CONTEXT((#225))
GLOBAL_UNIT_ASSIGNED_CONTEXT((#229,#231,#232))
REPRESENTATION_CONTEXT('','3D')
);
#229=(
LENGTH_UNIT()
NAMED_UNIT(*)
SI_UNIT(.MILLI.,.METRE.)
);
#230=(
LENGTH_UNIT()
NAMED_UNIT(*)
SI_UNIT($,.METRE.)
);
#231=(
NAMED_UNIT(*)
PLANE_ANGLE_UNIT()
SI_UNIT($,.RADIAN.)
);
#232=(
NAMED_UNIT(*)
SI_UNIT($,.STERADIAN.)
SOLID_ANGLE_UNIT()
);
#233=SHAPE_DEFINITION_REPRESENTATION(#235,#238);
#234=SHAPE_DEFINITION_REPRESENTATION(#236,#239);
#235=PRODUCT_DEFINITION_SHAPE('',$,#241);
#236=PRODUCT_DEFINITION_SHAPE('',$,#242);
#237=PRODUCT_DEFINITION_SHAPE($,$,#14);
#238=SHAPE_REPRESENTATION('',(#124,#145),#226);
#239=SHAPE_REPRESENTATION('',(#125),#227);
#240=PRODUCT_DEFINITION_CONTEXT('part definition',#248,'design');
#241=PRODUCT_DEFINITION('2026-09-12-16-13-41-203','PRINT_LAYOUT',#243,#240);
#242=PRODUCT_DEFINITION('2026-09-12-16-13-41-202','LampCap',#244,#240);
#243=PRODUCT_DEFINITION_FORMATION('',$,#250);
#244=PRODUCT_DEFINITION_FORMATION('',$,#251);
#245=PRODUCT_RELATED_PRODUCT_CATEGORY('PRINT_LAYOUT','PRINT_LAYOUT',(#250));
#246=PRODUCT_RELATED_PRODUCT_CATEGORY('LampCap','LampCap',(#251));
#247=APPLICATION_PROTOCOL_DEFINITION('international standard',
'automotive_design',2009,#248);
#248=APPLICATION_CONTEXT(
'Core Data for Automotive Mechanical Design Process');
#249=PRODUCT_CONTEXT('part definition',#248,'mechanical');
#250=PRODUCT('2026-09-12-16-13-41-203','PRINT_LAYOUT',$,(#249));
#251=PRODUCT('2026-09-12-16-13-41-202','LampCap',$,(#249));
#252=PRESENTATION_STYLE_ASSIGNMENT((#255));
#253=PRESENTATION_STYLE_ASSIGNMENT((#256));
#254=PRESENTATION_STYLE_ASSIGNMENT((#257));
#255=SURFACE_STYLE_USAGE(.BOTH.,#258);
#256=SURFACE_STYLE_USAGE(.BOTH.,#259);
#257=SURFACE_STYLE_USAGE(.BOTH.,#260);
#258=SURFACE_SIDE_STYLE('',(#261));
#259=SURFACE_SIDE_STYLE('',(#262));
#260=SURFACE_SIDE_STYLE('',(#263));
#261=SURFACE_STYLE_FILL_AREA(#264);
#262=SURFACE_STYLE_FILL_AREA(#265);
#263=SURFACE_STYLE_FILL_AREA(#266);
#264=FILL_AREA_STYLE('Plastic - Matte (Black)',(#267));
#265=FILL_AREA_STYLE('Steel - Satin',(#268));
#266=FILL_AREA_STYLE('Brass - Old',(#269));
#267=FILL_AREA_STYLE_COLOUR('Plastic - Matte (Black)',#270);
#268=FILL_AREA_STYLE_COLOUR('Steel - Satin',#271);
#269=FILL_AREA_STYLE_COLOUR('Brass - Old',#272);
#270=COLOUR_RGB('Plastic - Matte (Black)',0.0980392156862745,0.0980392156862745,
0.0980392156862745);
#271=COLOUR_RGB('Steel - Satin',0.627450980392157,0.627450980392157,0.627450980392157);
#272=COLOUR_RGB('Brass - Old',0.,0.,0.);
ENDSEC;
END-ISO-10303-21;
