ISO-10303-21;
HEADER;
/* Generated by software containing ST-Developer
 * from STEP Tools, Inc. (www.steptools.com) 
 */

FILE_DESCRIPTION(
/* description */ (''),
/* implementation_level */ '2;1');

FILE_NAME(
/* name */ 'Mug.step',
/* time_stamp */ '2026-09-12T16:13:12+02:00',
/* author */ (''),
/* organization */ (''),
/* preprocessor_version */ 'ST-DEVELOPER v20.2',
/* originating_system */ 'Autodesk Translation Framework v15.15.0.0',
/* authorisation */ '');

FILE_SCHEMA (('AUTOMOTIVE_DESIGN { 1 0 10303 214 3 1 1 }'));
ENDSEC;

DATA;
#10=MECHANICAL_DESIGN_GEOMETRIC_PRESENTATION_REPRESENTATION('',(#17),#1424);
#11=ITEM_DEFINED_TRANSFORMATION($,$,#759,#855);
#12=(
REPRESENTATION_RELATIONSHIP($,$,#1435,#1434)
REPRESENTATION_RELATIONSHIP_WITH_TRANSFORMATION(#11)
SHAPE_REPRESENTATION_RELATIONSHIP()
);
#13=CONTEXT_DEPENDENT_SHAPE_REPRESENTATION(#12,#1433);
#14=NEXT_ASSEMBLY_USAGE_OCCURRENCE('Mug:1','Mug:1','Mug:1',#1437,#1438,
'Mug:1');
#15=SHAPE_REPRESENTATION_RELATIONSHIP('SRR','None',#1435,#16);
#16=ADVANCED_BREP_SHAPE_REPRESENTATION('',(#18),#1423);
#17=STYLED_ITEM('',(#1450),#18);
#18=MANIFOLD_SOLID_BREP('Body1',#745);
#19=B_SPLINE_CURVE_WITH_KNOTS('',3,(#1122,#1123,#1124,#1125,#1126,#1127,
#1128,#1129,#1130,#1131,#1132,#1133),.UNSPECIFIED.,.F.,.F.,(4,2,2,2,2,4),
(0.310879134326213,0.334388126080472,0.362386458278742,0.394649525782395,
0.429022827570656,0.429557305636997),.UNSPECIFIED.);
#20=B_SPLINE_CURVE_WITH_KNOTS('',3,(#1138,#1139,#1140,#1141,#1142,#1143,
#1144,#1145,#1146,#1147,#1148,#1149),.UNSPECIFIED.,.F.,.F.,(4,2,2,2,2,4),
(-0.000460334582275517,1.44238462319868E-14,0.0296049932021532,0.0573924865308071,
0.0815068541148827,0.101754648329147),.UNSPECIFIED.);
#21=B_SPLINE_CURVE_WITH_KNOTS('',3,(#1152,#1153,#1154,#1155),
 .UNSPECIFIED.,.F.,.F.,(4,4),(-0.0245661208502688,0.),.UNSPECIFIED.);
#22=B_SPLINE_CURVE_WITH_KNOTS('',3,(#1159,#1160,#1161,#1162,#1163,#1164,
#1165,#1166,#1167,#1168),.UNSPECIFIED.,.F.,.F.,(4,2,2,2,4),(0.227069439611172,
0.25535806453806,0.283646689464949,0.312302615814677,0.340958542164406),
 .UNSPECIFIED.);
#23=B_SPLINE_CURVE_WITH_KNOTS('',3,(#1172,#1173,#1174,#1175,#1176,#1177,
#1178,#1179,#1180,#1181),.UNSPECIFIED.,.F.,.F.,(4,2,2,2,4),(0.113180337057937,
0.141836263407666,0.170492189757395,0.198780814684283,0.227069439611171),
 .UNSPECIFIED.);
#24=B_SPLINE_CURVE_WITH_KNOTS('',3,(#1184,#1185,#1186,#1187),
 .UNSPECIFIED.,.F.,.F.,(4,4),(0.,0.0245661208502693),.UNSPECIFIED.);
#25=B_SPLINE_CURVE_WITH_KNOTS('',3,(#1195,#1196,#1197,#1198,#1199,#1200,
#1201,#1202,#1203,#1204),.UNSPECIFIED.,.F.,.F.,(4,2,2,2,4),(0.,0.0282886249268883,
0.0565772498537767,0.0852331762035055,0.113889102553234),.UNSPECIFIED.);
#26=B_SPLINE_CURVE_WITH_KNOTS('',3,(#1208,#1209,#1210,#1211,#1212,#1213,
#1214,#1215,#1216,#1217),.UNSPECIFIED.,.F.,.F.,(4,2,2,2,4),(-0.113889102553234,
-0.0852331762035055,-0.0565772498537768,-0.0282886249268884,0.),
 .UNSPECIFIED.);
#27=B_SPLINE_CURVE_WITH_KNOTS('',3,(#1228,#1229,#1230,#1231,#1232,#1233,
#1234,#1235,#1236,#1237),.UNSPECIFIED.,.F.,.F.,(4,2,2,2,4),(0.113128754942645,
0.141663565915307,0.170198376887968,0.1984753003506,0.226752223813232),
 .UNSPECIFIED.);
#28=B_SPLINE_CURVE_WITH_KNOTS('',3,(#1356,#1357,#1358,#1359,#1360,#1361,
#1362,#1363,#1364,#1365),.UNSPECIFIED.,.F.,.F.,(4,2,2,2,4),(0.226752223813232,
0.255029147275864,0.283306070738495,0.311840881711157,0.340375692683819),
 .UNSPECIFIED.);
#29=B_SPLINE_CURVE_WITH_KNOTS('',3,(#1373,#1374,#1375,#1376,#1377,#1378,
#1379,#1380,#1381,#1382),.UNSPECIFIED.,.F.,.F.,(4,2,2,2,4),(0.337689817000669,
0.366198183936352,0.394300939908299,0.422329466813287,0.450063048012458),
 .UNSPECIFIED.);
#30=B_SPLINE_CURVE_WITH_KNOTS('',3,(#1386,#1387,#1388,#1389,#1390,#1391,
#1392,#1393,#1394,#1395),.UNSPECIFIED.,.F.,.F.,(4,2,2,2,4),(0.,0.0277335811991713,
0.055762108104159,0.0838648640761062,0.112373231011789),.UNSPECIFIED.);
#31=CYLINDRICAL_SURFACE('',#767,4.8);
#32=CYLINDRICAL_SURFACE('',#772,6.3);
#33=CYLINDRICAL_SURFACE('',#777,0.75);
#34=CYLINDRICAL_SURFACE('',#783,0.75);
#35=CYLINDRICAL_SURFACE('',#789,0.75);
#36=CYLINDRICAL_SURFACE('',#790,3.6);
#37=CYLINDRICAL_SURFACE('',#793,3.6);
#38=CYLINDRICAL_SURFACE('',#797,0.75);
#39=CYLINDRICAL_SURFACE('',#803,0.75);
#40=CYLINDRICAL_SURFACE('',#809,0.75);
#41=CYLINDRICAL_SURFACE('',#811,1.8);
#42=CYLINDRICAL_SURFACE('',#814,1.8);
#43=CYLINDRICAL_SURFACE('',#817,0.75);
#44=CYLINDRICAL_SURFACE('',#822,0.75);
#45=CYLINDRICAL_SURFACE('',#827,0.75);
#46=CYLINDRICAL_SURFACE('',#828,0.75);
#47=CYLINDRICAL_SURFACE('',#833,0.75);
#48=CYLINDRICAL_SURFACE('',#838,0.75);
#49=CYLINDRICAL_SURFACE('',#845,7.5);
#50=CYLINDRICAL_SURFACE('',#852,1.1);
#51=FACE_BOUND('',#201,.T.);
#52=FACE_BOUND('',#241,.T.);
#53=FACE_BOUND('',#244,.T.);
#54=LINE('',#1110,#99);
#55=LINE('',#1112,#100);
#56=LINE('',#1114,#101);
#57=LINE('',#1118,#102);
#58=LINE('',#1157,#103);
#59=LINE('',#1183,#104);
#60=LINE('',#1189,#105);
#61=LINE('',#1193,#106);
#62=LINE('',#1219,#107);
#63=LINE('',#1226,#108);
#64=LINE('',#1238,#109);
#65=LINE('',#1249,#110);
#66=LINE('',#1250,#111);
#67=LINE('',#1257,#112);
#68=LINE('',#1260,#113);
#69=LINE('',#1264,#114);
#70=LINE('',#1265,#115);
#71=LINE('',#1268,#116);
#72=LINE('',#1270,#117);
#73=LINE('',#1278,#118);
#74=LINE('',#1279,#119);
#75=LINE('',#1290,#120);
#76=LINE('',#1291,#121);
#77=LINE('',#1299,#122);
#78=LINE('',#1300,#123);
#79=LINE('',#1303,#124);
#80=LINE('',#1304,#125);
#81=LINE('',#1307,#126);
#82=LINE('',#1311,#127);
#83=LINE('',#1312,#128);
#84=LINE('',#1315,#129);
#85=LINE('',#1318,#130);
#86=LINE('',#1322,#131);
#87=LINE('',#1330,#132);
#88=LINE('',#1336,#133);
#89=LINE('',#1340,#134);
#90=LINE('',#1348,#135);
#91=LINE('',#1366,#136);
#92=LINE('',#1367,#137);
#93=LINE('',#1400,#138);
#94=LINE('',#1402,#139);
#95=LINE('',#1404,#140);
#96=LINE('',#1406,#141);
#97=LINE('',#1408,#142);
#98=LINE('',#1415,#143);
#99=VECTOR('',#872,10.);
#100=VECTOR('',#873,10.);
#101=VECTOR('',#874,10.);
#102=VECTOR('',#879,4.8);
#103=VECTOR('',#890,10.);
#104=VECTOR('',#893,10.);
#105=VECTOR('',#894,6.3);
#106=VECTOR('',#897,10.);
#107=VECTOR('',#900,10.);
#108=VECTOR('',#907,10.);
#109=VECTOR('',#908,10.);
#110=VECTOR('',#921,10.);
#111=VECTOR('',#922,10.);
#112=VECTOR('',#933,10.);
#113=VECTOR('',#936,10.);
#114=VECTOR('',#941,10.);
#115=VECTOR('',#942,10.);
#116=VECTOR('',#945,10.);
#117=VECTOR('',#946,10.);
#118=VECTOR('',#957,10.);
#119=VECTOR('',#958,10.);
#120=VECTOR('',#971,10.);
#121=VECTOR('',#972,10.);
#122=VECTOR('',#983,10.);
#123=VECTOR('',#984,10.);
#124=VECTOR('',#987,10.);
#125=VECTOR('',#988,10.);
#126=VECTOR('',#991,10.);
#127=VECTOR('',#996,10.);
#128=VECTOR('',#997,10.);
#129=VECTOR('',#1000,10.);
#130=VECTOR('',#1005,10.);
#131=VECTOR('',#1010,10.);
#132=VECTOR('',#1021,10.);
#133=VECTOR('',#1030,10.);
#134=VECTOR('',#1035,10.);
#135=VECTOR('',#1046,10.);
#136=VECTOR('',#1055,10.);
#137=VECTOR('',#1056,10.);
#138=VECTOR('',#1071,10.);
#139=VECTOR('',#1072,7.5);
#140=VECTOR('',#1075,10.);
#141=VECTOR('',#1078,10.);
#142=VECTOR('',#1081,10.);
#143=VECTOR('',#1090,1.1);
#144=PLANE('',#765);
#145=PLANE('',#792);
#146=PLANE('',#795);
#147=PLANE('',#810);
#148=PLANE('',#813);
#149=PLANE('',#816);
#150=PLANE('',#839);
#151=PLANE('',#847);
#152=PLANE('',#848);
#153=PLANE('',#849);
#154=PLANE('',#850);
#155=PLANE('',#854);
#156=FACE_OUTER_BOUND('',#199,.T.);
#157=FACE_OUTER_BOUND('',#200,.T.);
#158=FACE_OUTER_BOUND('',#202,.T.);
#159=FACE_OUTER_BOUND('',#203,.T.);
#160=FACE_OUTER_BOUND('',#204,.T.);
#161=FACE_OUTER_BOUND('',#205,.T.);
#162=FACE_OUTER_BOUND('',#206,.T.);
#163=FACE_OUTER_BOUND('',#207,.T.);
#164=FACE_OUTER_BOUND('',#208,.T.);
#165=FACE_OUTER_BOUND('',#209,.T.);
#166=FACE_OUTER_BOUND('',#210,.T.);
#167=FACE_OUTER_BOUND('',#211,.T.);
#168=FACE_OUTER_BOUND('',#212,.T.);
#169=FACE_OUTER_BOUND('',#213,.T.);
#170=FACE_OUTER_BOUND('',#214,.T.);
#171=FACE_OUTER_BOUND('',#215,.T.);
#172=FACE_OUTER_BOUND('',#216,.T.);
#173=FACE_OUTER_BOUND('',#217,.T.);
#174=FACE_OUTER_BOUND('',#218,.T.);
#175=FACE_OUTER_BOUND('',#219,.T.);
#176=FACE_OUTER_BOUND('',#220,.T.);
#177=FACE_OUTER_BOUND('',#221,.T.);
#178=FACE_OUTER_BOUND('',#222,.T.);
#179=FACE_OUTER_BOUND('',#223,.T.);
#180=FACE_OUTER_BOUND('',#224,.T.);
#181=FACE_OUTER_BOUND('',#225,.T.);
#182=FACE_OUTER_BOUND('',#226,.T.);
#183=FACE_OUTER_BOUND('',#227,.T.);
#184=FACE_OUTER_BOUND('',#228,.T.);
#185=FACE_OUTER_BOUND('',#229,.T.);
#186=FACE_OUTER_BOUND('',#230,.T.);
#187=FACE_OUTER_BOUND('',#231,.T.);
#188=FACE_OUTER_BOUND('',#232,.T.);
#189=FACE_OUTER_BOUND('',#233,.T.);
#190=FACE_OUTER_BOUND('',#234,.T.);
#191=FACE_OUTER_BOUND('',#235,.T.);
#192=FACE_OUTER_BOUND('',#236,.T.);
#193=FACE_OUTER_BOUND('',#237,.T.);
#194=FACE_OUTER_BOUND('',#238,.T.);
#195=FACE_OUTER_BOUND('',#239,.T.);
#196=FACE_OUTER_BOUND('',#240,.T.);
#197=FACE_OUTER_BOUND('',#242,.T.);
#198=FACE_OUTER_BOUND('',#243,.T.);
#199=EDGE_LOOP('',(#473,#474,#475,#476,#477));
#200=EDGE_LOOP('',(#478,#479,#480,#481));
#201=EDGE_LOOP('',(#482));
#202=EDGE_LOOP('',(#483,#484,#485,#486,#487));
#203=EDGE_LOOP('',(#488,#489,#490,#491,#492));
#204=EDGE_LOOP('',(#493,#494,#495,#496,#497,#498,#499,#500,#501,#502,#503,
#504,#505,#506,#507,#508,#509,#510));
#205=EDGE_LOOP('',(#511,#512,#513,#514));
#206=EDGE_LOOP('',(#515,#516,#517,#518));
#207=EDGE_LOOP('',(#519,#520,#521,#522));
#208=EDGE_LOOP('',(#523,#524,#525,#526));
#209=EDGE_LOOP('',(#527,#528,#529,#530,#531));
#210=EDGE_LOOP('',(#532,#533,#534,#535));
#211=EDGE_LOOP('',(#536,#537,#538,#539));
#212=EDGE_LOOP('',(#540,#541,#542,#543,#544));
#213=EDGE_LOOP('',(#545,#546,#547));
#214=EDGE_LOOP('',(#548,#549,#550,#551));
#215=EDGE_LOOP('',(#552,#553,#554,#555));
#216=EDGE_LOOP('',(#556,#557,#558,#559));
#217=EDGE_LOOP('',(#560,#561,#562,#563));
#218=EDGE_LOOP('',(#564,#565,#566,#567));
#219=EDGE_LOOP('',(#568,#569,#570,#571));
#220=EDGE_LOOP('',(#572,#573,#574,#575));
#221=EDGE_LOOP('',(#576,#577,#578,#579));
#222=EDGE_LOOP('',(#580,#581,#582,#583));
#223=EDGE_LOOP('',(#584,#585,#586,#587));
#224=EDGE_LOOP('',(#588,#589,#590,#591));
#225=EDGE_LOOP('',(#592,#593,#594,#595));
#226=EDGE_LOOP('',(#596,#597,#598,#599));
#227=EDGE_LOOP('',(#600,#601,#602,#603));
#228=EDGE_LOOP('',(#604,#605,#606,#607));
#229=EDGE_LOOP('',(#608,#609,#610,#611,#612));
#230=EDGE_LOOP('',(#613,#614,#615,#616));
#231=EDGE_LOOP('',(#617,#618,#619,#620));
#232=EDGE_LOOP('',(#621,#622,#623,#624));
#233=EDGE_LOOP('',(#625,#626,#627,#628));
#234=EDGE_LOOP('',(#629,#630,#631));
#235=EDGE_LOOP('',(#632,#633,#634,#635,#636));
#236=EDGE_LOOP('',(#637,#638,#639,#640,#641,#642,#643,#644,#645,#646,#647));
#237=EDGE_LOOP('',(#648,#649,#650,#651,#652,#653,#654,#655,#656,#657,#658,
#659,#660,#661,#662));
#238=EDGE_LOOP('',(#663,#664,#665,#666,#667,#668,#669,#670,#671,#672,#673,
#674,#675,#676,#677));
#239=EDGE_LOOP('',(#678,#679,#680,#681,#682));
#240=EDGE_LOOP('',(#683));
#241=EDGE_LOOP('',(#684));
#242=EDGE_LOOP('',(#685,#686,#687,#688));
#243=EDGE_LOOP('',(#689));
#244=EDGE_LOOP('',(#690));
#245=CIRCLE('',#761,5.3);
#246=CIRCLE('',#762,0.5);
#247=CIRCLE('',#763,4.8);
#248=CIRCLE('',#764,4.8);
#249=CIRCLE('',#766,5.8);
#250=CIRCLE('',#768,4.8);
#251=CIRCLE('',#770,6.3);
#252=CIRCLE('',#771,6.3);
#253=CIRCLE('',#773,6.3);
#254=CIRCLE('',#774,6.3);
#255=CIRCLE('',#775,6.3);
#256=CIRCLE('',#776,6.3);
#257=CIRCLE('',#778,0.75);
#258=CIRCLE('',#780,0.75);
#259=CIRCLE('',#781,2.85);
#260=CIRCLE('',#782,3.6);
#261=CIRCLE('',#784,0.75);
#262=CIRCLE('',#786,0.75);
#263=CIRCLE('',#787,2.85);
#264=CIRCLE('',#788,3.6);
#265=CIRCLE('',#791,3.6);
#266=CIRCLE('',#794,3.6);
#267=CIRCLE('',#796,7.5);
#268=CIRCLE('',#798,0.75);
#269=CIRCLE('',#800,0.75);
#270=CIRCLE('',#801,2.55);
#271=CIRCLE('',#802,1.8);
#272=CIRCLE('',#804,0.75);
#273=CIRCLE('',#806,0.75);
#274=CIRCLE('',#807,2.55);
#275=CIRCLE('',#808,1.8);
#276=CIRCLE('',#812,1.8);
#277=CIRCLE('',#815,1.8);
#278=CIRCLE('',#818,0.749999999999999);
#279=CIRCLE('',#820,0.75);
#280=CIRCLE('',#821,2.55);
#281=CIRCLE('',#823,0.75);
#282=CIRCLE('',#825,0.75);
#283=CIRCLE('',#826,2.55);
#284=CIRCLE('',#829,0.75);
#285=CIRCLE('',#831,0.75);
#286=CIRCLE('',#832,2.85);
#287=CIRCLE('',#834,0.75);
#288=CIRCLE('',#836,0.750000000000003);
#289=CIRCLE('',#837,2.85);
#290=CIRCLE('',#840,7.5);
#291=CIRCLE('',#842,6.75);
#292=CIRCLE('',#843,7.5);
#293=CIRCLE('',#844,7.5);
#294=CIRCLE('',#846,7.5);
#295=CIRCLE('',#851,1.1);
#296=CIRCLE('',#853,1.1);
#297=VERTEX_POINT('',#1100);
#298=VERTEX_POINT('',#1102);
#299=VERTEX_POINT('',#1104);
#300=VERTEX_POINT('',#1108);
#301=VERTEX_POINT('',#1109);
#302=VERTEX_POINT('',#1111);
#303=VERTEX_POINT('',#1113);
#304=VERTEX_POINT('',#1117);
#305=VERTEX_POINT('',#1121);
#306=VERTEX_POINT('',#1134);
#307=VERTEX_POINT('',#1136);
#308=VERTEX_POINT('',#1151);
#309=VERTEX_POINT('',#1156);
#310=VERTEX_POINT('',#1158);
#311=VERTEX_POINT('',#1169);
#312=VERTEX_POINT('',#1171);
#313=VERTEX_POINT('',#1182);
#314=VERTEX_POINT('',#1188);
#315=VERTEX_POINT('',#1190);
#316=VERTEX_POINT('',#1192);
#317=VERTEX_POINT('',#1194);
#318=VERTEX_POINT('',#1205);
#319=VERTEX_POINT('',#1207);
#320=VERTEX_POINT('',#1218);
#321=VERTEX_POINT('',#1222);
#322=VERTEX_POINT('',#1223);
#323=VERTEX_POINT('',#1225);
#324=VERTEX_POINT('',#1227);
#325=VERTEX_POINT('',#1240);
#326=VERTEX_POINT('',#1241);
#327=VERTEX_POINT('',#1246);
#328=VERTEX_POINT('',#1247);
#329=VERTEX_POINT('',#1252);
#330=VERTEX_POINT('',#1259);
#331=VERTEX_POINT('',#1263);
#332=VERTEX_POINT('',#1267);
#333=VERTEX_POINT('',#1269);
#334=VERTEX_POINT('',#1275);
#335=VERTEX_POINT('',#1276);
#336=VERTEX_POINT('',#1281);
#337=VERTEX_POINT('',#1282);
#338=VERTEX_POINT('',#1287);
#339=VERTEX_POINT('',#1288);
#340=VERTEX_POINT('',#1293);
#341=VERTEX_POINT('',#1294);
#342=VERTEX_POINT('',#1302);
#343=VERTEX_POINT('',#1306);
#344=VERTEX_POINT('',#1310);
#345=VERTEX_POINT('',#1314);
#346=VERTEX_POINT('',#1320);
#347=VERTEX_POINT('',#1324);
#348=VERTEX_POINT('',#1328);
#349=VERTEX_POINT('',#1332);
#350=VERTEX_POINT('',#1338);
#351=VERTEX_POINT('',#1342);
#352=VERTEX_POINT('',#1346);
#353=VERTEX_POINT('',#1350);
#354=VERTEX_POINT('',#1354);
#355=VERTEX_POINT('',#1355);
#356=VERTEX_POINT('',#1371);
#357=VERTEX_POINT('',#1372);
#358=VERTEX_POINT('',#1383);
#359=VERTEX_POINT('',#1385);
#360=VERTEX_POINT('',#1396);
#361=VERTEX_POINT('',#1401);
#362=VERTEX_POINT('',#1411);
#363=VERTEX_POINT('',#1414);
#364=EDGE_CURVE('',#297,#297,#245,.T.);
#365=EDGE_CURVE('',#297,#298,#246,.T.);
#366=EDGE_CURVE('',#298,#299,#247,.T.);
#367=EDGE_CURVE('',#299,#298,#248,.T.);
#368=EDGE_CURVE('',#300,#301,#54,.T.);
#369=EDGE_CURVE('',#300,#302,#55,.T.);
#370=EDGE_CURVE('',#303,#302,#56,.T.);
#371=EDGE_CURVE('',#301,#303,#249,.T.);
#372=EDGE_CURVE('',#299,#304,#57,.T.);
#373=EDGE_CURVE('',#304,#304,#250,.T.);
#374=EDGE_CURVE('',#303,#305,#19,.F.);
#375=EDGE_CURVE('',#305,#306,#251,.T.);
#376=EDGE_CURVE('',#306,#307,#252,.T.);
#377=EDGE_CURVE('',#307,#301,#20,.F.);
#378=EDGE_CURVE('',#308,#305,#21,.F.);
#379=EDGE_CURVE('',#308,#309,#58,.T.);
#380=EDGE_CURVE('',#310,#309,#22,.F.);
#381=EDGE_CURVE('',#310,#311,#253,.T.);
#382=EDGE_CURVE('',#312,#311,#23,.F.);
#383=EDGE_CURVE('',#312,#313,#59,.T.);
#384=EDGE_CURVE('',#307,#313,#24,.F.);
#385=EDGE_CURVE('',#306,#314,#60,.T.);
#386=EDGE_CURVE('',#314,#315,#254,.T.);
#387=EDGE_CURVE('',#315,#316,#61,.T.);
#388=EDGE_CURVE('',#317,#316,#25,.F.);
#389=EDGE_CURVE('',#317,#318,#255,.T.);
#390=EDGE_CURVE('',#319,#318,#26,.F.);
#391=EDGE_CURVE('',#319,#320,#62,.T.);
#392=EDGE_CURVE('',#320,#314,#256,.T.);
#393=EDGE_CURVE('',#321,#322,#257,.T.);
#394=EDGE_CURVE('',#322,#323,#63,.T.);
#395=EDGE_CURVE('',#323,#324,#27,.F.);
#396=EDGE_CURVE('',#324,#321,#64,.T.);
#397=EDGE_CURVE('',#325,#326,#258,.T.);
#398=EDGE_CURVE('',#326,#322,#259,.T.);
#399=EDGE_CURVE('',#321,#325,#260,.T.);
#400=EDGE_CURVE('',#327,#328,#261,.T.);
#401=EDGE_CURVE('',#328,#326,#65,.T.);
#402=EDGE_CURVE('',#325,#327,#66,.T.);
#403=EDGE_CURVE('',#300,#329,#262,.T.);
#404=EDGE_CURVE('',#329,#328,#263,.T.);
#405=EDGE_CURVE('',#327,#300,#264,.T.);
#406=EDGE_CURVE('',#313,#329,#67,.T.);
#407=EDGE_CURVE('',#327,#330,#68,.T.);
#408=EDGE_CURVE('',#302,#330,#265,.T.);
#409=EDGE_CURVE('',#325,#331,#69,.T.);
#410=EDGE_CURVE('',#330,#331,#70,.T.);
#411=EDGE_CURVE('',#321,#332,#71,.T.);
#412=EDGE_CURVE('',#332,#333,#72,.T.);
#413=EDGE_CURVE('',#331,#333,#266,.T.);
#414=EDGE_CURVE('',#324,#332,#267,.T.);
#415=EDGE_CURVE('',#334,#335,#268,.T.);
#416=EDGE_CURVE('',#335,#312,#73,.T.);
#417=EDGE_CURVE('',#311,#334,#74,.T.);
#418=EDGE_CURVE('',#336,#337,#269,.T.);
#419=EDGE_CURVE('',#337,#335,#270,.T.);
#420=EDGE_CURVE('',#334,#336,#271,.T.);
#421=EDGE_CURVE('',#338,#339,#272,.T.);
#422=EDGE_CURVE('',#339,#337,#75,.T.);
#423=EDGE_CURVE('',#336,#338,#76,.T.);
#424=EDGE_CURVE('',#340,#341,#273,.T.);
#425=EDGE_CURVE('',#341,#339,#274,.T.);
#426=EDGE_CURVE('',#338,#340,#275,.T.);
#427=EDGE_CURVE('',#316,#341,#77,.T.);
#428=EDGE_CURVE('',#340,#317,#78,.T.);
#429=EDGE_CURVE('',#340,#342,#79,.T.);
#430=EDGE_CURVE('',#318,#342,#80,.T.);
#431=EDGE_CURVE('',#338,#343,#81,.T.);
#432=EDGE_CURVE('',#342,#343,#276,.T.);
#433=EDGE_CURVE('',#336,#344,#82,.T.);
#434=EDGE_CURVE('',#343,#344,#83,.T.);
#435=EDGE_CURVE('',#334,#345,#84,.T.);
#436=EDGE_CURVE('',#344,#345,#277,.T.);
#437=EDGE_CURVE('',#345,#310,#85,.T.);
#438=EDGE_CURVE('',#342,#346,#278,.T.);
#439=EDGE_CURVE('',#346,#319,#86,.T.);
#440=EDGE_CURVE('',#343,#347,#279,.T.);
#441=EDGE_CURVE('',#347,#346,#280,.T.);
#442=EDGE_CURVE('',#344,#348,#281,.T.);
#443=EDGE_CURVE('',#348,#347,#87,.T.);
#444=EDGE_CURVE('',#345,#349,#282,.T.);
#445=EDGE_CURVE('',#349,#348,#283,.T.);
#446=EDGE_CURVE('',#309,#349,#88,.T.);
#447=EDGE_CURVE('',#302,#350,#284,.T.);
#448=EDGE_CURVE('',#350,#308,#89,.T.);
#449=EDGE_CURVE('',#330,#351,#285,.T.);
#450=EDGE_CURVE('',#351,#350,#286,.T.);
#451=EDGE_CURVE('',#331,#352,#287,.T.);
#452=EDGE_CURVE('',#352,#351,#90,.T.);
#453=EDGE_CURVE('',#333,#353,#288,.T.);
#454=EDGE_CURVE('',#353,#352,#289,.T.);
#455=EDGE_CURVE('',#354,#355,#28,.F.);
#456=EDGE_CURVE('',#355,#353,#91,.T.);
#457=EDGE_CURVE('',#333,#354,#92,.T.);
#458=EDGE_CURVE('',#332,#354,#290,.T.);
#459=EDGE_CURVE('',#356,#357,#29,.F.);
#460=EDGE_CURVE('',#357,#358,#291,.T.);
#461=EDGE_CURVE('',#359,#358,#30,.T.);
#462=EDGE_CURVE('',#359,#360,#292,.T.);
#463=EDGE_CURVE('',#360,#356,#293,.T.);
#464=EDGE_CURVE('',#356,#323,#93,.T.);
#465=EDGE_CURVE('',#360,#361,#94,.T.);
#466=EDGE_CURVE('',#361,#361,#294,.T.);
#467=EDGE_CURVE('',#355,#359,#95,.T.);
#468=EDGE_CURVE('',#357,#315,#96,.T.);
#469=EDGE_CURVE('',#320,#358,#97,.T.);
#470=EDGE_CURVE('',#362,#362,#295,.T.);
#471=EDGE_CURVE('',#362,#363,#98,.T.);
#472=EDGE_CURVE('',#363,#363,#296,.T.);
#473=ORIENTED_EDGE('',*,*,#364,.T.);
#474=ORIENTED_EDGE('',*,*,#365,.T.);
#475=ORIENTED_EDGE('',*,*,#366,.T.);
#476=ORIENTED_EDGE('',*,*,#367,.T.);
#477=ORIENTED_EDGE('',*,*,#365,.F.);
#478=ORIENTED_EDGE('',*,*,#368,.F.);
#479=ORIENTED_EDGE('',*,*,#369,.T.);
#480=ORIENTED_EDGE('',*,*,#370,.F.);
#481=ORIENTED_EDGE('',*,*,#371,.F.);
#482=ORIENTED_EDGE('',*,*,#364,.F.);
#483=ORIENTED_EDGE('',*,*,#367,.F.);
#484=ORIENTED_EDGE('',*,*,#372,.T.);
#485=ORIENTED_EDGE('',*,*,#373,.T.);
#486=ORIENTED_EDGE('',*,*,#372,.F.);
#487=ORIENTED_EDGE('',*,*,#366,.F.);
#488=ORIENTED_EDGE('',*,*,#374,.T.);
#489=ORIENTED_EDGE('',*,*,#375,.T.);
#490=ORIENTED_EDGE('',*,*,#376,.T.);
#491=ORIENTED_EDGE('',*,*,#377,.T.);
#492=ORIENTED_EDGE('',*,*,#371,.T.);
#493=ORIENTED_EDGE('',*,*,#375,.F.);
#494=ORIENTED_EDGE('',*,*,#378,.F.);
#495=ORIENTED_EDGE('',*,*,#379,.T.);
#496=ORIENTED_EDGE('',*,*,#380,.F.);
#497=ORIENTED_EDGE('',*,*,#381,.T.);
#498=ORIENTED_EDGE('',*,*,#382,.F.);
#499=ORIENTED_EDGE('',*,*,#383,.T.);
#500=ORIENTED_EDGE('',*,*,#384,.F.);
#501=ORIENTED_EDGE('',*,*,#376,.F.);
#502=ORIENTED_EDGE('',*,*,#385,.T.);
#503=ORIENTED_EDGE('',*,*,#386,.T.);
#504=ORIENTED_EDGE('',*,*,#387,.T.);
#505=ORIENTED_EDGE('',*,*,#388,.F.);
#506=ORIENTED_EDGE('',*,*,#389,.T.);
#507=ORIENTED_EDGE('',*,*,#390,.F.);
#508=ORIENTED_EDGE('',*,*,#391,.T.);
#509=ORIENTED_EDGE('',*,*,#392,.T.);
#510=ORIENTED_EDGE('',*,*,#385,.F.);
#511=ORIENTED_EDGE('',*,*,#393,.T.);
#512=ORIENTED_EDGE('',*,*,#394,.T.);
#513=ORIENTED_EDGE('',*,*,#395,.T.);
#514=ORIENTED_EDGE('',*,*,#396,.T.);
#515=ORIENTED_EDGE('',*,*,#397,.T.);
#516=ORIENTED_EDGE('',*,*,#398,.T.);
#517=ORIENTED_EDGE('',*,*,#393,.F.);
#518=ORIENTED_EDGE('',*,*,#399,.T.);
#519=ORIENTED_EDGE('',*,*,#400,.T.);
#520=ORIENTED_EDGE('',*,*,#401,.T.);
#521=ORIENTED_EDGE('',*,*,#397,.F.);
#522=ORIENTED_EDGE('',*,*,#402,.T.);
#523=ORIENTED_EDGE('',*,*,#403,.T.);
#524=ORIENTED_EDGE('',*,*,#404,.T.);
#525=ORIENTED_EDGE('',*,*,#400,.F.);
#526=ORIENTED_EDGE('',*,*,#405,.T.);
#527=ORIENTED_EDGE('',*,*,#384,.T.);
#528=ORIENTED_EDGE('',*,*,#406,.T.);
#529=ORIENTED_EDGE('',*,*,#403,.F.);
#530=ORIENTED_EDGE('',*,*,#368,.T.);
#531=ORIENTED_EDGE('',*,*,#377,.F.);
#532=ORIENTED_EDGE('',*,*,#405,.F.);
#533=ORIENTED_EDGE('',*,*,#407,.T.);
#534=ORIENTED_EDGE('',*,*,#408,.F.);
#535=ORIENTED_EDGE('',*,*,#369,.F.);
#536=ORIENTED_EDGE('',*,*,#402,.F.);
#537=ORIENTED_EDGE('',*,*,#409,.T.);
#538=ORIENTED_EDGE('',*,*,#410,.F.);
#539=ORIENTED_EDGE('',*,*,#407,.F.);
#540=ORIENTED_EDGE('',*,*,#399,.F.);
#541=ORIENTED_EDGE('',*,*,#411,.T.);
#542=ORIENTED_EDGE('',*,*,#412,.T.);
#543=ORIENTED_EDGE('',*,*,#413,.F.);
#544=ORIENTED_EDGE('',*,*,#409,.F.);
#545=ORIENTED_EDGE('',*,*,#396,.F.);
#546=ORIENTED_EDGE('',*,*,#414,.T.);
#547=ORIENTED_EDGE('',*,*,#411,.F.);
#548=ORIENTED_EDGE('',*,*,#415,.T.);
#549=ORIENTED_EDGE('',*,*,#416,.T.);
#550=ORIENTED_EDGE('',*,*,#382,.T.);
#551=ORIENTED_EDGE('',*,*,#417,.T.);
#552=ORIENTED_EDGE('',*,*,#418,.T.);
#553=ORIENTED_EDGE('',*,*,#419,.T.);
#554=ORIENTED_EDGE('',*,*,#415,.F.);
#555=ORIENTED_EDGE('',*,*,#420,.T.);
#556=ORIENTED_EDGE('',*,*,#421,.T.);
#557=ORIENTED_EDGE('',*,*,#422,.T.);
#558=ORIENTED_EDGE('',*,*,#418,.F.);
#559=ORIENTED_EDGE('',*,*,#423,.T.);
#560=ORIENTED_EDGE('',*,*,#424,.T.);
#561=ORIENTED_EDGE('',*,*,#425,.T.);
#562=ORIENTED_EDGE('',*,*,#421,.F.);
#563=ORIENTED_EDGE('',*,*,#426,.T.);
#564=ORIENTED_EDGE('',*,*,#388,.T.);
#565=ORIENTED_EDGE('',*,*,#427,.T.);
#566=ORIENTED_EDGE('',*,*,#424,.F.);
#567=ORIENTED_EDGE('',*,*,#428,.T.);
#568=ORIENTED_EDGE('',*,*,#428,.F.);
#569=ORIENTED_EDGE('',*,*,#429,.T.);
#570=ORIENTED_EDGE('',*,*,#430,.F.);
#571=ORIENTED_EDGE('',*,*,#389,.F.);
#572=ORIENTED_EDGE('',*,*,#426,.F.);
#573=ORIENTED_EDGE('',*,*,#431,.T.);
#574=ORIENTED_EDGE('',*,*,#432,.F.);
#575=ORIENTED_EDGE('',*,*,#429,.F.);
#576=ORIENTED_EDGE('',*,*,#423,.F.);
#577=ORIENTED_EDGE('',*,*,#433,.T.);
#578=ORIENTED_EDGE('',*,*,#434,.F.);
#579=ORIENTED_EDGE('',*,*,#431,.F.);
#580=ORIENTED_EDGE('',*,*,#420,.F.);
#581=ORIENTED_EDGE('',*,*,#435,.T.);
#582=ORIENTED_EDGE('',*,*,#436,.F.);
#583=ORIENTED_EDGE('',*,*,#433,.F.);
#584=ORIENTED_EDGE('',*,*,#417,.F.);
#585=ORIENTED_EDGE('',*,*,#381,.F.);
#586=ORIENTED_EDGE('',*,*,#437,.F.);
#587=ORIENTED_EDGE('',*,*,#435,.F.);
#588=ORIENTED_EDGE('',*,*,#438,.T.);
#589=ORIENTED_EDGE('',*,*,#439,.T.);
#590=ORIENTED_EDGE('',*,*,#390,.T.);
#591=ORIENTED_EDGE('',*,*,#430,.T.);
#592=ORIENTED_EDGE('',*,*,#440,.T.);
#593=ORIENTED_EDGE('',*,*,#441,.T.);
#594=ORIENTED_EDGE('',*,*,#438,.F.);
#595=ORIENTED_EDGE('',*,*,#432,.T.);
#596=ORIENTED_EDGE('',*,*,#442,.T.);
#597=ORIENTED_EDGE('',*,*,#443,.T.);
#598=ORIENTED_EDGE('',*,*,#440,.F.);
#599=ORIENTED_EDGE('',*,*,#434,.T.);
#600=ORIENTED_EDGE('',*,*,#444,.T.);
#601=ORIENTED_EDGE('',*,*,#445,.T.);
#602=ORIENTED_EDGE('',*,*,#442,.F.);
#603=ORIENTED_EDGE('',*,*,#436,.T.);
#604=ORIENTED_EDGE('',*,*,#380,.T.);
#605=ORIENTED_EDGE('',*,*,#446,.T.);
#606=ORIENTED_EDGE('',*,*,#444,.F.);
#607=ORIENTED_EDGE('',*,*,#437,.T.);
#608=ORIENTED_EDGE('',*,*,#447,.T.);
#609=ORIENTED_EDGE('',*,*,#448,.T.);
#610=ORIENTED_EDGE('',*,*,#378,.T.);
#611=ORIENTED_EDGE('',*,*,#374,.F.);
#612=ORIENTED_EDGE('',*,*,#370,.T.);
#613=ORIENTED_EDGE('',*,*,#449,.T.);
#614=ORIENTED_EDGE('',*,*,#450,.T.);
#615=ORIENTED_EDGE('',*,*,#447,.F.);
#616=ORIENTED_EDGE('',*,*,#408,.T.);
#617=ORIENTED_EDGE('',*,*,#451,.T.);
#618=ORIENTED_EDGE('',*,*,#452,.T.);
#619=ORIENTED_EDGE('',*,*,#449,.F.);
#620=ORIENTED_EDGE('',*,*,#410,.T.);
#621=ORIENTED_EDGE('',*,*,#453,.T.);
#622=ORIENTED_EDGE('',*,*,#454,.T.);
#623=ORIENTED_EDGE('',*,*,#451,.F.);
#624=ORIENTED_EDGE('',*,*,#413,.T.);
#625=ORIENTED_EDGE('',*,*,#455,.T.);
#626=ORIENTED_EDGE('',*,*,#456,.T.);
#627=ORIENTED_EDGE('',*,*,#453,.F.);
#628=ORIENTED_EDGE('',*,*,#457,.T.);
#629=ORIENTED_EDGE('',*,*,#457,.F.);
#630=ORIENTED_EDGE('',*,*,#412,.F.);
#631=ORIENTED_EDGE('',*,*,#458,.T.);
#632=ORIENTED_EDGE('',*,*,#459,.T.);
#633=ORIENTED_EDGE('',*,*,#460,.T.);
#634=ORIENTED_EDGE('',*,*,#461,.F.);
#635=ORIENTED_EDGE('',*,*,#462,.T.);
#636=ORIENTED_EDGE('',*,*,#463,.T.);
#637=ORIENTED_EDGE('',*,*,#464,.F.);
#638=ORIENTED_EDGE('',*,*,#463,.F.);
#639=ORIENTED_EDGE('',*,*,#465,.T.);
#640=ORIENTED_EDGE('',*,*,#466,.T.);
#641=ORIENTED_EDGE('',*,*,#465,.F.);
#642=ORIENTED_EDGE('',*,*,#462,.F.);
#643=ORIENTED_EDGE('',*,*,#467,.F.);
#644=ORIENTED_EDGE('',*,*,#455,.F.);
#645=ORIENTED_EDGE('',*,*,#458,.F.);
#646=ORIENTED_EDGE('',*,*,#414,.F.);
#647=ORIENTED_EDGE('',*,*,#395,.F.);
#648=ORIENTED_EDGE('',*,*,#406,.F.);
#649=ORIENTED_EDGE('',*,*,#383,.F.);
#650=ORIENTED_EDGE('',*,*,#416,.F.);
#651=ORIENTED_EDGE('',*,*,#419,.F.);
#652=ORIENTED_EDGE('',*,*,#422,.F.);
#653=ORIENTED_EDGE('',*,*,#425,.F.);
#654=ORIENTED_EDGE('',*,*,#427,.F.);
#655=ORIENTED_EDGE('',*,*,#387,.F.);
#656=ORIENTED_EDGE('',*,*,#468,.F.);
#657=ORIENTED_EDGE('',*,*,#459,.F.);
#658=ORIENTED_EDGE('',*,*,#464,.T.);
#659=ORIENTED_EDGE('',*,*,#394,.F.);
#660=ORIENTED_EDGE('',*,*,#398,.F.);
#661=ORIENTED_EDGE('',*,*,#401,.F.);
#662=ORIENTED_EDGE('',*,*,#404,.F.);
#663=ORIENTED_EDGE('',*,*,#446,.F.);
#664=ORIENTED_EDGE('',*,*,#379,.F.);
#665=ORIENTED_EDGE('',*,*,#448,.F.);
#666=ORIENTED_EDGE('',*,*,#450,.F.);
#667=ORIENTED_EDGE('',*,*,#452,.F.);
#668=ORIENTED_EDGE('',*,*,#454,.F.);
#669=ORIENTED_EDGE('',*,*,#456,.F.);
#670=ORIENTED_EDGE('',*,*,#467,.T.);
#671=ORIENTED_EDGE('',*,*,#461,.T.);
#672=ORIENTED_EDGE('',*,*,#469,.F.);
#673=ORIENTED_EDGE('',*,*,#391,.F.);
#674=ORIENTED_EDGE('',*,*,#439,.F.);
#675=ORIENTED_EDGE('',*,*,#441,.F.);
#676=ORIENTED_EDGE('',*,*,#443,.F.);
#677=ORIENTED_EDGE('',*,*,#445,.F.);
#678=ORIENTED_EDGE('',*,*,#460,.F.);
#679=ORIENTED_EDGE('',*,*,#468,.T.);
#680=ORIENTED_EDGE('',*,*,#386,.F.);
#681=ORIENTED_EDGE('',*,*,#392,.F.);
#682=ORIENTED_EDGE('',*,*,#469,.T.);
#683=ORIENTED_EDGE('',*,*,#373,.F.);
#684=ORIENTED_EDGE('',*,*,#470,.T.);
#685=ORIENTED_EDGE('',*,*,#470,.F.);
#686=ORIENTED_EDGE('',*,*,#471,.T.);
#687=ORIENTED_EDGE('',*,*,#472,.T.);
#688=ORIENTED_EDGE('',*,*,#471,.F.);
#689=ORIENTED_EDGE('',*,*,#466,.F.);
#690=ORIENTED_EDGE('',*,*,#472,.F.);
#691=TOROIDAL_SURFACE('',#760,5.3,0.5);
#692=TOROIDAL_SURFACE('',#769,5.8,0.5);
#693=TOROIDAL_SURFACE('',#779,2.85,0.75);
#694=TOROIDAL_SURFACE('',#785,2.85,0.75);
#695=TOROIDAL_SURFACE('',#799,2.55,0.75);
#696=TOROIDAL_SURFACE('',#805,2.55,0.75);
#697=TOROIDAL_SURFACE('',#819,2.55,0.75);
#698=TOROIDAL_SURFACE('',#824,2.55,0.75);
#699=TOROIDAL_SURFACE('',#830,2.85,0.75);
#700=TOROIDAL_SURFACE('',#835,2.85,0.75);
#701=TOROIDAL_SURFACE('',#841,6.75,0.75);
#702=ADVANCED_FACE('',(#156),#691,.T.);
#703=ADVANCED_FACE('',(#157,#51),#144,.T.);
#704=ADVANCED_FACE('',(#158),#31,.F.);
#705=ADVANCED_FACE('',(#159),#692,.T.);
#706=ADVANCED_FACE('',(#160),#32,.T.);
#707=ADVANCED_FACE('',(#161),#33,.T.);
#708=ADVANCED_FACE('',(#162),#693,.T.);
#709=ADVANCED_FACE('',(#163),#34,.T.);
#710=ADVANCED_FACE('',(#164),#694,.T.);
#711=ADVANCED_FACE('',(#165),#35,.T.);
#712=ADVANCED_FACE('',(#166),#36,.T.);
#713=ADVANCED_FACE('',(#167),#145,.T.);
#714=ADVANCED_FACE('',(#168),#37,.T.);
#715=ADVANCED_FACE('',(#169),#146,.T.);
#716=ADVANCED_FACE('',(#170),#38,.T.);
#717=ADVANCED_FACE('',(#171),#695,.T.);
#718=ADVANCED_FACE('',(#172),#39,.T.);
#719=ADVANCED_FACE('',(#173),#696,.T.);
#720=ADVANCED_FACE('',(#174),#40,.T.);
#721=ADVANCED_FACE('',(#175),#147,.T.);
#722=ADVANCED_FACE('',(#176),#41,.F.);
#723=ADVANCED_FACE('',(#177),#148,.T.);
#724=ADVANCED_FACE('',(#178),#42,.F.);
#725=ADVANCED_FACE('',(#179),#149,.T.);
#726=ADVANCED_FACE('',(#180),#43,.T.);
#727=ADVANCED_FACE('',(#181),#697,.T.);
#728=ADVANCED_FACE('',(#182),#44,.T.);
#729=ADVANCED_FACE('',(#183),#698,.T.);
#730=ADVANCED_FACE('',(#184),#45,.T.);
#731=ADVANCED_FACE('',(#185),#46,.T.);
#732=ADVANCED_FACE('',(#186),#699,.T.);
#733=ADVANCED_FACE('',(#187),#47,.T.);
#734=ADVANCED_FACE('',(#188),#700,.T.);
#735=ADVANCED_FACE('',(#189),#48,.T.);
#736=ADVANCED_FACE('',(#190),#150,.T.);
#737=ADVANCED_FACE('',(#191),#701,.T.);
#738=ADVANCED_FACE('',(#192),#49,.T.);
#739=ADVANCED_FACE('',(#193),#151,.F.);
#740=ADVANCED_FACE('',(#194),#152,.T.);
#741=ADVANCED_FACE('',(#195),#153,.T.);
#742=ADVANCED_FACE('',(#196,#52),#154,.T.);
#743=ADVANCED_FACE('',(#197),#50,.F.);
#744=ADVANCED_FACE('',(#198,#53),#155,.F.);
#745=CLOSED_SHELL('',(#702,#703,#704,#705,#706,#707,#708,#709,#710,#711,
#712,#713,#714,#715,#716,#717,#718,#719,#720,#721,#722,#723,#724,#725,#726,
#727,#728,#729,#730,#731,#732,#733,#734,#735,#736,#737,#738,#739,#740,#741,
#742,#743,#744));
#746=DERIVED_UNIT_ELEMENT(#748,1.);
#747=DERIVED_UNIT_ELEMENT(#1426,-3.);
#748=(
MASS_UNIT()
NAMED_UNIT(*)
SI_UNIT(.KILO.,.GRAM.)
);
#749=DERIVED_UNIT((#746,#747));
#750=MEASURE_REPRESENTATION_ITEM('density measure',
POSITIVE_RATIO_MEASURE(7850.),#749);
#751=PROPERTY_DEFINITION_REPRESENTATION(#756,#753);
#752=PROPERTY_DEFINITION_REPRESENTATION(#757,#754);
#753=REPRESENTATION('material name',(#755),#1423);
#754=REPRESENTATION('density',(#750),#1423);
#755=DESCRIPTIVE_REPRESENTATION_ITEM('Steel','Steel');
#756=PROPERTY_DEFINITION('material property','material name',#1438);
#757=PROPERTY_DEFINITION('material property','density of part',#1438);
#758=AXIS2_PLACEMENT_3D('',#1097,#856,#857);
#759=AXIS2_PLACEMENT_3D('',#1098,#858,#859);
#760=AXIS2_PLACEMENT_3D('',#1099,#860,#861);
#761=AXIS2_PLACEMENT_3D('',#1101,#862,#863);
#762=AXIS2_PLACEMENT_3D('',#1103,#864,#865);
#763=AXIS2_PLACEMENT_3D('',#1105,#866,#867);
#764=AXIS2_PLACEMENT_3D('',#1106,#868,#869);
#765=AXIS2_PLACEMENT_3D('',#1107,#870,#871);
#766=AXIS2_PLACEMENT_3D('',#1115,#875,#876);
#767=AXIS2_PLACEMENT_3D('',#1116,#877,#878);
#768=AXIS2_PLACEMENT_3D('',#1119,#880,#881);
#769=AXIS2_PLACEMENT_3D('',#1120,#882,#883);
#770=AXIS2_PLACEMENT_3D('',#1135,#884,#885);
#771=AXIS2_PLACEMENT_3D('',#1137,#886,#887);
#772=AXIS2_PLACEMENT_3D('',#1150,#888,#889);
#773=AXIS2_PLACEMENT_3D('',#1170,#891,#892);
#774=AXIS2_PLACEMENT_3D('',#1191,#895,#896);
#775=AXIS2_PLACEMENT_3D('',#1206,#898,#899);
#776=AXIS2_PLACEMENT_3D('',#1220,#901,#902);
#777=AXIS2_PLACEMENT_3D('',#1221,#903,#904);
#778=AXIS2_PLACEMENT_3D('',#1224,#905,#906);
#779=AXIS2_PLACEMENT_3D('',#1239,#909,#910);
#780=AXIS2_PLACEMENT_3D('',#1242,#911,#912);
#781=AXIS2_PLACEMENT_3D('',#1243,#913,#914);
#782=AXIS2_PLACEMENT_3D('',#1244,#915,#916);
#783=AXIS2_PLACEMENT_3D('',#1245,#917,#918);
#784=AXIS2_PLACEMENT_3D('',#1248,#919,#920);
#785=AXIS2_PLACEMENT_3D('',#1251,#923,#924);
#786=AXIS2_PLACEMENT_3D('',#1253,#925,#926);
#787=AXIS2_PLACEMENT_3D('',#1254,#927,#928);
#788=AXIS2_PLACEMENT_3D('',#1255,#929,#930);
#789=AXIS2_PLACEMENT_3D('',#1256,#931,#932);
#790=AXIS2_PLACEMENT_3D('',#1258,#934,#935);
#791=AXIS2_PLACEMENT_3D('',#1261,#937,#938);
#792=AXIS2_PLACEMENT_3D('',#1262,#939,#940);
#793=AXIS2_PLACEMENT_3D('',#1266,#943,#944);
#794=AXIS2_PLACEMENT_3D('',#1271,#947,#948);
#795=AXIS2_PLACEMENT_3D('',#1272,#949,#950);
#796=AXIS2_PLACEMENT_3D('',#1273,#951,#952);
#797=AXIS2_PLACEMENT_3D('',#1274,#953,#954);
#798=AXIS2_PLACEMENT_3D('',#1277,#955,#956);
#799=AXIS2_PLACEMENT_3D('',#1280,#959,#960);
#800=AXIS2_PLACEMENT_3D('',#1283,#961,#962);
#801=AXIS2_PLACEMENT_3D('',#1284,#963,#964);
#802=AXIS2_PLACEMENT_3D('',#1285,#965,#966);
#803=AXIS2_PLACEMENT_3D('',#1286,#967,#968);
#804=AXIS2_PLACEMENT_3D('',#1289,#969,#970);
#805=AXIS2_PLACEMENT_3D('',#1292,#973,#974);
#806=AXIS2_PLACEMENT_3D('',#1295,#975,#976);
#807=AXIS2_PLACEMENT_3D('',#1296,#977,#978);
#808=AXIS2_PLACEMENT_3D('',#1297,#979,#980);
#809=AXIS2_PLACEMENT_3D('',#1298,#981,#982);
#810=AXIS2_PLACEMENT_3D('',#1301,#985,#986);
#811=AXIS2_PLACEMENT_3D('',#1305,#989,#990);
#812=AXIS2_PLACEMENT_3D('',#1308,#992,#993);
#813=AXIS2_PLACEMENT_3D('',#1309,#994,#995);
#814=AXIS2_PLACEMENT_3D('',#1313,#998,#999);
#815=AXIS2_PLACEMENT_3D('',#1316,#1001,#1002);
#816=AXIS2_PLACEMENT_3D('',#1317,#1003,#1004);
#817=AXIS2_PLACEMENT_3D('',#1319,#1006,#1007);
#818=AXIS2_PLACEMENT_3D('',#1321,#1008,#1009);
#819=AXIS2_PLACEMENT_3D('',#1323,#1011,#1012);
#820=AXIS2_PLACEMENT_3D('',#1325,#1013,#1014);
#821=AXIS2_PLACEMENT_3D('',#1326,#1015,#1016);
#822=AXIS2_PLACEMENT_3D('',#1327,#1017,#1018);
#823=AXIS2_PLACEMENT_3D('',#1329,#1019,#1020);
#824=AXIS2_PLACEMENT_3D('',#1331,#1022,#1023);
#825=AXIS2_PLACEMENT_3D('',#1333,#1024,#1025);
#826=AXIS2_PLACEMENT_3D('',#1334,#1026,#1027);
#827=AXIS2_PLACEMENT_3D('',#1335,#1028,#1029);
#828=AXIS2_PLACEMENT_3D('',#1337,#1031,#1032);
#829=AXIS2_PLACEMENT_3D('',#1339,#1033,#1034);
#830=AXIS2_PLACEMENT_3D('',#1341,#1036,#1037);
#831=AXIS2_PLACEMENT_3D('',#1343,#1038,#1039);
#832=AXIS2_PLACEMENT_3D('',#1344,#1040,#1041);
#833=AXIS2_PLACEMENT_3D('',#1345,#1042,#1043);
#834=AXIS2_PLACEMENT_3D('',#1347,#1044,#1045);
#835=AXIS2_PLACEMENT_3D('',#1349,#1047,#1048);
#836=AXIS2_PLACEMENT_3D('',#1351,#1049,#1050);
#837=AXIS2_PLACEMENT_3D('',#1352,#1051,#1052);
#838=AXIS2_PLACEMENT_3D('',#1353,#1053,#1054);
#839=AXIS2_PLACEMENT_3D('',#1368,#1057,#1058);
#840=AXIS2_PLACEMENT_3D('',#1369,#1059,#1060);
#841=AXIS2_PLACEMENT_3D('',#1370,#1061,#1062);
#842=AXIS2_PLACEMENT_3D('',#1384,#1063,#1064);
#843=AXIS2_PLACEMENT_3D('',#1397,#1065,#1066);
#844=AXIS2_PLACEMENT_3D('',#1398,#1067,#1068);
#845=AXIS2_PLACEMENT_3D('',#1399,#1069,#1070);
#846=AXIS2_PLACEMENT_3D('',#1403,#1073,#1074);
#847=AXIS2_PLACEMENT_3D('',#1405,#1076,#1077);
#848=AXIS2_PLACEMENT_3D('',#1407,#1079,#1080);
#849=AXIS2_PLACEMENT_3D('',#1409,#1082,#1083);
#850=AXIS2_PLACEMENT_3D('',#1410,#1084,#1085);
#851=AXIS2_PLACEMENT_3D('',#1412,#1086,#1087);
#852=AXIS2_PLACEMENT_3D('',#1413,#1088,#1089);
#853=AXIS2_PLACEMENT_3D('',#1416,#1091,#1092);
#854=AXIS2_PLACEMENT_3D('',#1417,#1093,#1094);
#855=AXIS2_PLACEMENT_3D('',#1418,#1095,#1096);
#856=DIRECTION('axis',(0.,0.,1.));
#857=DIRECTION('refdir',(1.,0.,0.));
#858=DIRECTION('axis',(0.,0.,1.));
#859=DIRECTION('refdir',(1.,0.,0.));
#860=DIRECTION('center_axis',(0.,0.,-1.));
#861=DIRECTION('ref_axis',(-1.,0.,0.));
#862=DIRECTION('center_axis',(0.,0.,1.));
#863=DIRECTION('ref_axis',(1.,0.,0.));
#864=DIRECTION('center_axis',(-1.22464679914735E-16,-1.,0.));
#865=DIRECTION('ref_axis',(1.,-1.22464679914735E-16,0.));
#866=DIRECTION('center_axis',(0.,0.,-1.));
#867=DIRECTION('ref_axis',(1.,0.,0.));
#868=DIRECTION('center_axis',(0.,0.,-1.));
#869=DIRECTION('ref_axis',(1.,0.,0.));
#870=DIRECTION('center_axis',(0.,0.,1.));
#871=DIRECTION('ref_axis',(1.,0.,0.));
#872=DIRECTION('',(-1.,0.,0.));
#873=DIRECTION('',(0.,1.,0.));
#874=DIRECTION('',(1.,0.,0.));
#875=DIRECTION('center_axis',(0.,0.,-1.));
#876=DIRECTION('ref_axis',(-1.,-1.22464679914735E-16,0.));
#877=DIRECTION('center_axis',(0.,0.,1.));
#878=DIRECTION('ref_axis',(1.,0.,0.));
#879=DIRECTION('',(0.,0.,-1.));
#880=DIRECTION('center_axis',(0.,0.,-1.));
#881=DIRECTION('ref_axis',(1.,0.,0.));
#882=DIRECTION('center_axis',(0.,0.,1.));
#883=DIRECTION('ref_axis',(-1.,4.85281885535716E-14,0.));
#884=DIRECTION('center_axis',(0.,0.,1.));
#885=DIRECTION('ref_axis',(-1.,-1.22464679914735E-16,0.));
#886=DIRECTION('center_axis',(0.,0.,1.));
#887=DIRECTION('ref_axis',(-1.,-1.22464679914735E-16,0.));
#888=DIRECTION('center_axis',(0.,0.,1.));
#889=DIRECTION('ref_axis',(1.,0.,0.));
#890=DIRECTION('',(0.,0.,-1.));
#891=DIRECTION('center_axis',(0.,0.,-1.));
#892=DIRECTION('ref_axis',(1.,0.,0.));
#893=DIRECTION('',(0.,0.,1.));
#894=DIRECTION('',(0.,0.,-1.));
#895=DIRECTION('center_axis',(0.,0.,1.));
#896=DIRECTION('ref_axis',(1.,0.,0.));
#897=DIRECTION('',(0.,0.,1.));
#898=DIRECTION('center_axis',(0.,0.,1.));
#899=DIRECTION('ref_axis',(1.,0.,0.));
#900=DIRECTION('',(0.,0.,-1.));
#901=DIRECTION('center_axis',(0.,0.,1.));
#902=DIRECTION('ref_axis',(1.,0.,0.));
#903=DIRECTION('center_axis',(1.,0.,0.));
#904=DIRECTION('ref_axis',(0.,-0.707106781186547,-0.707106781186548));
#905=DIRECTION('center_axis',(-1.,0.,0.));
#906=DIRECTION('ref_axis',(0.,0.,-1.));
#907=DIRECTION('',(-1.,0.,0.));
#908=DIRECTION('',(1.,0.,0.));
#909=DIRECTION('center_axis',(0.,-1.,0.));
#910=DIRECTION('ref_axis',(0.,0.,-1.));
#911=DIRECTION('center_axis',(0.,0.,-1.));
#912=DIRECTION('ref_axis',(1.,0.,0.));
#913=DIRECTION('center_axis',(0.,1.,0.));
#914=DIRECTION('ref_axis',(0.707106781186548,0.,-0.707106781186547));
#915=DIRECTION('center_axis',(0.,-1.,0.));
#916=DIRECTION('ref_axis',(0.707106781186548,0.,-0.707106781186547));
#917=DIRECTION('center_axis',(0.,0.,1.));
#918=DIRECTION('ref_axis',(0.707106781186546,-0.707106781186549,0.));
#919=DIRECTION('center_axis',(0.,0.,-1.));
#920=DIRECTION('ref_axis',(1.,0.,0.));
#921=DIRECTION('',(0.,0.,-1.));
#922=DIRECTION('',(0.,0.,1.));
#923=DIRECTION('center_axis',(0.,-1.,0.));
#924=DIRECTION('ref_axis',(0.,0.,-1.));
#925=DIRECTION('center_axis',(1.,0.,0.));
#926=DIRECTION('ref_axis',(0.,0.,1.));
#927=DIRECTION('center_axis',(0.,1.,0.));
#928=DIRECTION('ref_axis',(0.707106781186547,0.,0.707106781186548));
#929=DIRECTION('center_axis',(0.,-1.,0.));
#930=DIRECTION('ref_axis',(0.707106781186547,0.,0.707106781186548));
#931=DIRECTION('center_axis',(-1.,0.,0.));
#932=DIRECTION('ref_axis',(0.,-0.707106781186549,0.707106781186546));
#933=DIRECTION('',(1.,0.,0.));
#934=DIRECTION('center_axis',(0.,1.,0.));
#935=DIRECTION('ref_axis',(0.,0.,1.));
#936=DIRECTION('',(0.,1.,0.));
#937=DIRECTION('center_axis',(0.,1.,0.));
#938=DIRECTION('ref_axis',(0.707106781186547,0.,0.707106781186548));
#939=DIRECTION('center_axis',(1.,0.,0.));
#940=DIRECTION('ref_axis',(0.,0.,-1.));
#941=DIRECTION('',(0.,1.,0.));
#942=DIRECTION('',(0.,0.,-1.));
#943=DIRECTION('center_axis',(0.,1.,0.));
#944=DIRECTION('ref_axis',(1.,0.,0.));
#945=DIRECTION('',(0.,1.,0.));
#946=DIRECTION('',(0.,1.,0.));
#947=DIRECTION('center_axis',(0.,1.,0.));
#948=DIRECTION('ref_axis',(0.707106781186548,0.,-0.707106781186547));
#949=DIRECTION('center_axis',(0.,0.,-1.));
#950=DIRECTION('ref_axis',(-1.,0.,0.));
#951=DIRECTION('center_axis',(0.,0.,1.));
#952=DIRECTION('ref_axis',(1.,0.,0.));
#953=DIRECTION('center_axis',(1.,0.,0.));
#954=DIRECTION('ref_axis',(0.,-0.707106781186547,-0.707106781186548));
#955=DIRECTION('center_axis',(-1.,0.,0.));
#956=DIRECTION('ref_axis',(0.,0.,-1.));
#957=DIRECTION('',(-1.,0.,0.));
#958=DIRECTION('',(1.,0.,0.));
#959=DIRECTION('center_axis',(0.,1.,0.));
#960=DIRECTION('ref_axis',(0.,0.,1.));
#961=DIRECTION('center_axis',(0.,0.,1.));
#962=DIRECTION('ref_axis',(-1.,0.,0.));
#963=DIRECTION('center_axis',(0.,-1.,0.));
#964=DIRECTION('ref_axis',(0.707106781186548,0.,0.707106781186548));
#965=DIRECTION('center_axis',(0.,1.,0.));
#966=DIRECTION('ref_axis',(0.707106781186548,0.,0.707106781186548));
#967=DIRECTION('center_axis',(4.1895208476421E-16,0.,-1.));
#968=DIRECTION('ref_axis',(-0.707106781186547,-0.707106781186548,0.));
#969=DIRECTION('center_axis',(0.,0.,1.));
#970=DIRECTION('ref_axis',(-1.,0.,0.));
#971=DIRECTION('',(-4.1895208476421E-16,0.,1.));
#972=DIRECTION('',(4.1895208476421E-16,0.,-1.));
#973=DIRECTION('center_axis',(0.,1.,0.));
#974=DIRECTION('ref_axis',(0.,0.,1.));
#975=DIRECTION('center_axis',(1.,0.,0.));
#976=DIRECTION('ref_axis',(0.,0.,1.));
#977=DIRECTION('center_axis',(0.,-1.,0.));
#978=DIRECTION('ref_axis',(0.707106781186547,0.,-0.707106781186547));
#979=DIRECTION('center_axis',(0.,1.,0.));
#980=DIRECTION('ref_axis',(0.707106781186548,0.,-0.707106781186548));
#981=DIRECTION('center_axis',(-1.,0.,0.));
#982=DIRECTION('ref_axis',(0.,-0.707106781186547,0.707106781186548));
#983=DIRECTION('',(1.,0.,0.));
#984=DIRECTION('',(-1.,0.,0.));
#985=DIRECTION('center_axis',(0.,0.,1.));
#986=DIRECTION('ref_axis',(1.,0.,0.));
#987=DIRECTION('',(0.,1.,0.));
#988=DIRECTION('',(1.,0.,0.));
#989=DIRECTION('center_axis',(0.,1.,0.));
#990=DIRECTION('ref_axis',(1.,0.,0.));
#991=DIRECTION('',(0.,1.,0.));
#992=DIRECTION('center_axis',(0.,-1.,0.));
#993=DIRECTION('ref_axis',(0.707106781186548,0.,-0.707106781186548));
#994=DIRECTION('center_axis',(-1.,0.,-4.1895208476421E-16));
#995=DIRECTION('ref_axis',(-4.1895208476421E-16,0.,1.));
#996=DIRECTION('',(0.,1.,0.));
#997=DIRECTION('',(-4.1895208476421E-16,0.,1.));
#998=DIRECTION('center_axis',(0.,1.,0.));
#999=DIRECTION('ref_axis',(0.,0.,1.));
#1000=DIRECTION('',(0.,1.,0.));
#1001=DIRECTION('center_axis',(0.,-1.,0.));
#1002=DIRECTION('ref_axis',(0.707106781186548,0.,0.707106781186548));
#1003=DIRECTION('center_axis',(0.,0.,-1.));
#1004=DIRECTION('ref_axis',(-1.,0.,0.));
#1005=DIRECTION('',(-1.,0.,0.));
#1006=DIRECTION('center_axis',(1.,0.,0.));
#1007=DIRECTION('ref_axis',(0.,0.707106781186547,0.707106781186548));
#1008=DIRECTION('center_axis',(-1.,0.,0.));
#1009=DIRECTION('ref_axis',(0.,0.,1.));
#1010=DIRECTION('',(-1.,0.,0.));
#1011=DIRECTION('center_axis',(0.,-1.,0.));
#1012=DIRECTION('ref_axis',(0.,0.,-1.));
#1013=DIRECTION('center_axis',(0.,0.,-1.));
#1014=DIRECTION('ref_axis',(-1.,0.,0.));
#1015=DIRECTION('center_axis',(0.,1.,0.));
#1016=DIRECTION('ref_axis',(0.707106781186547,0.,-0.707106781186547));
#1017=DIRECTION('center_axis',(-4.1895208476421E-16,0.,1.));
#1018=DIRECTION('ref_axis',(-0.707106781186547,0.707106781186548,0.));
#1019=DIRECTION('center_axis',(0.,0.,-1.));
#1020=DIRECTION('ref_axis',(-1.,0.,0.));
#1021=DIRECTION('',(4.1895208476421E-16,0.,-1.));
#1022=DIRECTION('center_axis',(0.,-1.,0.));
#1023=DIRECTION('ref_axis',(0.,0.,-1.));
#1024=DIRECTION('center_axis',(1.,0.,0.));
#1025=DIRECTION('ref_axis',(0.,0.,-1.));
#1026=DIRECTION('center_axis',(0.,1.,0.));
#1027=DIRECTION('ref_axis',(0.707106781186548,0.,0.707106781186548));
#1028=DIRECTION('center_axis',(-1.,0.,0.));
#1029=DIRECTION('ref_axis',(0.,0.707106781186547,-0.707106781186548));
#1030=DIRECTION('',(1.,0.,0.));
#1031=DIRECTION('center_axis',(1.,0.,0.));
#1032=DIRECTION('ref_axis',(0.,0.707106781186549,0.707106781186546));
#1033=DIRECTION('center_axis',(-1.,0.,0.));
#1034=DIRECTION('ref_axis',(0.,0.,1.));
#1035=DIRECTION('',(-1.,0.,0.));
#1036=DIRECTION('center_axis',(0.,1.,0.));
#1037=DIRECTION('ref_axis',(0.,0.,1.));
#1038=DIRECTION('center_axis',(0.,0.,1.));
#1039=DIRECTION('ref_axis',(1.,0.,0.));
#1040=DIRECTION('center_axis',(0.,-1.,0.));
#1041=DIRECTION('ref_axis',(0.707106781186547,0.,0.707106781186548));
#1042=DIRECTION('center_axis',(0.,0.,-1.));
#1043=DIRECTION('ref_axis',(0.707106781186546,0.707106781186549,0.));
#1044=DIRECTION('center_axis',(0.,0.,1.));
#1045=DIRECTION('ref_axis',(1.,0.,0.));
#1046=DIRECTION('',(0.,0.,1.));
#1047=DIRECTION('center_axis',(0.,1.,0.));
#1048=DIRECTION('ref_axis',(0.,0.,1.));
#1049=DIRECTION('center_axis',(1.,0.,0.));
#1050=DIRECTION('ref_axis',(0.,0.,-1.));
#1051=DIRECTION('center_axis',(0.,-1.,0.));
#1052=DIRECTION('ref_axis',(0.707106781186548,0.,-0.707106781186547));
#1053=DIRECTION('center_axis',(-1.,0.,0.));
#1054=DIRECTION('ref_axis',(0.,0.707106781186547,-0.707106781186548));
#1055=DIRECTION('',(1.,0.,0.));
#1056=DIRECTION('',(-1.,0.,0.));
#1057=DIRECTION('center_axis',(0.,0.,-1.));
#1058=DIRECTION('ref_axis',(-1.,0.,0.));
#1059=DIRECTION('center_axis',(0.,0.,1.));
#1060=DIRECTION('ref_axis',(1.,0.,0.));
#1061=DIRECTION('center_axis',(0.,0.,1.));
#1062=DIRECTION('ref_axis',(-1.,-1.22464679914735E-16,0.));
#1063=DIRECTION('center_axis',(0.,0.,-1.));
#1064=DIRECTION('ref_axis',(-1.,-1.22464679914735E-16,0.));
#1065=DIRECTION('center_axis',(0.,0.,1.));
#1066=DIRECTION('ref_axis',(-1.,-1.22464679914735E-16,0.));
#1067=DIRECTION('center_axis',(0.,0.,1.));
#1068=DIRECTION('ref_axis',(-1.,-1.22464679914735E-16,0.));
#1069=DIRECTION('center_axis',(0.,0.,1.));
#1070=DIRECTION('ref_axis',(1.,0.,0.));
#1071=DIRECTION('',(0.,0.,1.));
#1072=DIRECTION('',(0.,0.,-1.));
#1073=DIRECTION('center_axis',(0.,0.,1.));
#1074=DIRECTION('ref_axis',(1.,0.,0.));
#1075=DIRECTION('',(0.,0.,-1.));
#1076=DIRECTION('center_axis',(0.,1.,0.));
#1077=DIRECTION('ref_axis',(1.,0.,0.));
#1078=DIRECTION('',(-1.,0.,0.));
#1079=DIRECTION('center_axis',(0.,1.,0.));
#1080=DIRECTION('ref_axis',(1.,0.,0.));
#1081=DIRECTION('',(1.,0.,0.));
#1082=DIRECTION('center_axis',(0.,0.,1.));
#1083=DIRECTION('ref_axis',(1.,0.,0.));
#1084=DIRECTION('center_axis',(0.,0.,1.));
#1085=DIRECTION('ref_axis',(1.,0.,0.));
#1086=DIRECTION('center_axis',(0.,0.,-1.));
#1087=DIRECTION('ref_axis',(1.,0.,0.));
#1088=DIRECTION('center_axis',(0.,0.,1.));
#1089=DIRECTION('ref_axis',(1.,0.,0.));
#1090=DIRECTION('',(0.,0.,-1.));
#1091=DIRECTION('center_axis',(0.,0.,-1.));
#1092=DIRECTION('ref_axis',(1.,0.,0.));
#1093=DIRECTION('center_axis',(0.,0.,1.));
#1094=DIRECTION('ref_axis',(1.,0.,0.));
#1095=DIRECTION('',(0.,0.,1.));
#1096=DIRECTION('',(0.,1.,0.));
#1097=CARTESIAN_POINT('',(0.,0.,0.));
#1098=CARTESIAN_POINT('',(0.,0.,0.));
#1099=CARTESIAN_POINT('Origin',(0.,0.,14.5));
#1100=CARTESIAN_POINT('',(5.3,-6.49062803548097E-16,15.));
#1101=CARTESIAN_POINT('Origin',(0.,0.,15.));
#1102=CARTESIAN_POINT('',(4.8,-5.87830463590729E-16,14.5));
#1103=CARTESIAN_POINT('Origin',(5.3,-6.49062803548097E-16,14.5));
#1104=CARTESIAN_POINT('',(-4.8,5.87830463590729E-16,14.5));
#1105=CARTESIAN_POINT('Origin',(0.,0.,14.5));
#1106=CARTESIAN_POINT('Origin',(0.,0.,14.5));
#1107=CARTESIAN_POINT('Origin',(0.,0.,15.));
#1108=CARTESIAN_POINT('',(7.5,-0.75,15.));
#1109=CARTESIAN_POINT('',(5.75130419991841,-0.750000000000538,15.));
#1110=CARTESIAN_POINT('',(4.1625,-0.75,15.));
#1111=CARTESIAN_POINT('',(7.5,0.75,15.));
#1112=CARTESIAN_POINT('',(7.5,0.,15.));
#1113=CARTESIAN_POINT('',(5.75130419991856,0.749999999999446,15.));
#1114=CARTESIAN_POINT('',(4.1625,0.75,15.));
#1115=CARTESIAN_POINT('Origin',(0.,0.,15.));
#1116=CARTESIAN_POINT('Origin',(0.,0.,0.));
#1117=CARTESIAN_POINT('',(-4.8,5.87830463590729E-16,2.5));
#1118=CARTESIAN_POINT('',(-4.8,-5.87830463590729E-16,0.));
#1119=CARTESIAN_POINT('Origin',(0.,0.,2.5));
#1120=CARTESIAN_POINT('Origin',(0.,0.,14.5));
#1121=CARTESIAN_POINT('',(6.12917937640637,1.45710678120543,14.4999999999733));
#1122=CARTESIAN_POINT('Ctrl Pts',(6.12917937641086,1.45710678118655,14.5));
#1123=CARTESIAN_POINT('Ctrl Pts',(6.13445947450198,1.43489655698151,14.562820000597));
#1124=CARTESIAN_POINT('Ctrl Pts',(6.12951177220355,1.40437548537149,14.6223210843028));
#1125=CARTESIAN_POINT('Ctrl Pts',(6.10199527047829,1.32239660246575,14.7409217292928));
#1126=CARTESIAN_POINT('Ctrl Pts',(6.07664960116918,1.26925145576807,14.7961610960054));
#1127=CARTESIAN_POINT('Ctrl Pts',(6.00883723383791,1.14437088152679,14.8935530878195));
#1128=CARTESIAN_POINT('Ctrl Pts',(5.96450876283444,1.07141395195946,14.9322429702991));
#1129=CARTESIAN_POINT('Ctrl Pts',(5.86557397537255,0.917061191175142,14.9860020105324));
#1130=CARTESIAN_POINT('Ctrl Pts',(5.81010526712313,0.834914016502074,14.9995811136739));
#1131=CARTESIAN_POINT('Ctrl Pts',(5.75305200807491,0.75252256005105,14.9999968187482));
#1132=CARTESIAN_POINT('Ctrl Pts',(5.75217821743019,0.751261200189743,15.));
#1133=CARTESIAN_POINT('Ctrl Pts',(5.75130419991848,0.750000000000002,15.));
#1134=CARTESIAN_POINT('',(-6.3,-7.71527483462833E-16,14.5));
#1135=CARTESIAN_POINT('Origin',(0.,0.,14.5));
#1136=CARTESIAN_POINT('',(6.12917937640637,-1.45710678120542,14.4999999999733));
#1137=CARTESIAN_POINT('Origin',(0.,0.,14.5));
#1138=CARTESIAN_POINT('Ctrl Pts',(5.75130419991848,-0.750000000000002,15.));
#1139=CARTESIAN_POINT('Ctrl Pts',(5.75217821743018,-0.75126120018973,15.));
#1140=CARTESIAN_POINT('Ctrl Pts',(5.75305200807492,-0.752522560051065,14.9999968187482));
#1141=CARTESIAN_POINT('Ctrl Pts',(5.8101052671229,-0.834914016501698,14.9995811136739));
#1142=CARTESIAN_POINT('Ctrl Pts',(5.86557397537252,-0.917061191175087,14.9860020105324));
#1143=CARTESIAN_POINT('Ctrl Pts',(5.96450876283443,-1.07141395195946,14.9322429702991));
#1144=CARTESIAN_POINT('Ctrl Pts',(6.00883723383791,-1.14437088152679,14.8935530878195));
#1145=CARTESIAN_POINT('Ctrl Pts',(6.07664960116919,-1.26925145576808,14.7961610960054));
#1146=CARTESIAN_POINT('Ctrl Pts',(6.1019952704783,-1.32239660246575,14.7409217292928));
#1147=CARTESIAN_POINT('Ctrl Pts',(6.12951177220355,-1.40437548537148,14.6223210843029));
#1148=CARTESIAN_POINT('Ctrl Pts',(6.13445947449862,-1.43489655697867,14.5628200005963));
#1149=CARTESIAN_POINT('Ctrl Pts',(6.12917937641086,-1.45710678118655,14.5));
#1150=CARTESIAN_POINT('Origin',(0.,0.,0.));
#1151=CARTESIAN_POINT('',(6.11882341631134,1.5,14.25));
#1152=CARTESIAN_POINT('Ctrl Pts',(6.12917937640835,1.45710678119709,14.4999999999702));
#1153=CARTESIAN_POINT('Ctrl Pts',(6.12232185131904,1.48595230020295,14.4184125515757));
#1154=CARTESIAN_POINT('Ctrl Pts',(6.11882341631134,1.5,14.3318870695009));
#1155=CARTESIAN_POINT('Ctrl Pts',(6.11882341631134,1.5,14.25));
#1156=CARTESIAN_POINT('',(6.11882341631134,1.5,13.95));
#1157=CARTESIAN_POINT('',(6.11882341631134,1.5,0.));
#1158=CARTESIAN_POINT('',(6.25519783859791,0.75,13.2));
#1159=CARTESIAN_POINT('Ctrl Pts',(6.11882341631134,1.5,13.95));
#1160=CARTESIAN_POINT('Ctrl Pts',(6.11882341631134,1.5,13.855704583577));
#1161=CARTESIAN_POINT('Ctrl Pts',(6.1235447204225,1.48112528933343,13.7553524969328));
#1162=CARTESIAN_POINT('Ctrl Pts',(6.14147554945457,1.40492352860166,13.5711767764379));
#1163=CARTESIAN_POINT('Ctrl Pts',(6.15454705165319,1.34761463665887,13.4873322191546));
#1164=CARTESIAN_POINT('Ctrl Pts',(6.18206655213926,1.21518959929534,13.3541553229435));
#1165=CARTESIAN_POINT('Ctrl Pts',(6.19839004895538,1.13082773773087,13.2961445262664));
#1166=CARTESIAN_POINT('Ctrl Pts',(6.2293280293388,0.945665307391142,13.2190609875639));
#1167=CARTESIAN_POINT('Ctrl Pts',(6.24382643925278,0.844840470140658,13.2));
#1168=CARTESIAN_POINT('Ctrl Pts',(6.25519783859791,0.75,13.2));
#1169=CARTESIAN_POINT('',(6.25519783859791,-0.75,13.2));
#1170=CARTESIAN_POINT('Origin',(0.,0.,13.2));
#1171=CARTESIAN_POINT('',(6.11882341631134,-1.5,13.95));
#1172=CARTESIAN_POINT('Ctrl Pts',(6.25519783859791,-0.75,13.2));
#1173=CARTESIAN_POINT('Ctrl Pts',(6.24382643925278,-0.844840470140659,13.2));
#1174=CARTESIAN_POINT('Ctrl Pts',(6.2293280293388,-0.945665307391143,13.2190609875639));
#1175=CARTESIAN_POINT('Ctrl Pts',(6.19839004895538,-1.13082773773087,13.2961445262664));
#1176=CARTESIAN_POINT('Ctrl Pts',(6.18206655213926,-1.21518959929534,13.3541553229435));
#1177=CARTESIAN_POINT('Ctrl Pts',(6.15454705165319,-1.34761463665887,13.4873322191546));
#1178=CARTESIAN_POINT('Ctrl Pts',(6.14147554945457,-1.40492352860166,13.5711767764379));
#1179=CARTESIAN_POINT('Ctrl Pts',(6.1235447204225,-1.48112528933343,13.7553524969328));
#1180=CARTESIAN_POINT('Ctrl Pts',(6.11882341631134,-1.5,13.855704583577));
#1181=CARTESIAN_POINT('Ctrl Pts',(6.11882341631134,-1.5,13.95));
#1182=CARTESIAN_POINT('',(6.11882341631134,-1.5,14.25));
#1183=CARTESIAN_POINT('',(6.11882341631134,-1.5,0.));
#1184=CARTESIAN_POINT('Ctrl Pts',(6.11882341631134,-1.5,14.25));
#1185=CARTESIAN_POINT('Ctrl Pts',(6.11882341631134,-1.5,14.3318870695009));
#1186=CARTESIAN_POINT('Ctrl Pts',(6.12232185131904,-1.48595230020295,14.4184125515757));
#1187=CARTESIAN_POINT('Ctrl Pts',(6.12917937640835,-1.45710678119709,14.4999999999702));
#1188=CARTESIAN_POINT('',(-6.3,-7.71527483462833E-16,2.5));
#1189=CARTESIAN_POINT('',(-6.3,-7.71527483462833E-16,0.));
#1190=CARTESIAN_POINT('',(6.11882341631134,-1.5,2.5));
#1191=CARTESIAN_POINT('Origin',(0.,0.,2.5));
#1192=CARTESIAN_POINT('',(6.11882341631134,-1.5,3.55));
#1193=CARTESIAN_POINT('',(6.11882341631134,-1.5,0.));
#1194=CARTESIAN_POINT('',(6.25519783859791,-0.75,4.3));
#1195=CARTESIAN_POINT('Ctrl Pts',(6.11882341631134,-1.5,3.55));
#1196=CARTESIAN_POINT('Ctrl Pts',(6.11882341631134,-1.5,3.64429541642296));
#1197=CARTESIAN_POINT('Ctrl Pts',(6.1235447204225,-1.48112528933342,3.74464750306724));
#1198=CARTESIAN_POINT('Ctrl Pts',(6.14147554945457,-1.40492352860166,3.92882322356209));
#1199=CARTESIAN_POINT('Ctrl Pts',(6.15454705165319,-1.34761463665887,4.01266778084535));
#1200=CARTESIAN_POINT('Ctrl Pts',(6.18206655213926,-1.21518959929534,4.1458446770565));
#1201=CARTESIAN_POINT('Ctrl Pts',(6.19839004895538,-1.13082773773087,4.20385547373356));
#1202=CARTESIAN_POINT('Ctrl Pts',(6.2293280293388,-0.945665307391143,4.28093901243613));
#1203=CARTESIAN_POINT('Ctrl Pts',(6.24382643925278,-0.844840470140658,4.3));
#1204=CARTESIAN_POINT('Ctrl Pts',(6.25519783859791,-0.75,4.3));
#1205=CARTESIAN_POINT('',(6.25519783859791,0.75,4.3));
#1206=CARTESIAN_POINT('Origin',(0.,0.,4.3));
#1207=CARTESIAN_POINT('',(6.11882341631134,1.5,3.55));
#1208=CARTESIAN_POINT('Ctrl Pts',(6.25519783859791,0.75,4.3));
#1209=CARTESIAN_POINT('Ctrl Pts',(6.24382643925278,0.844840470140659,4.3));
#1210=CARTESIAN_POINT('Ctrl Pts',(6.2293280293388,0.945665307391143,4.28093901243613));
#1211=CARTESIAN_POINT('Ctrl Pts',(6.19839004895538,1.13082773773087,4.20385547373356));
#1212=CARTESIAN_POINT('Ctrl Pts',(6.18206655213926,1.21518959929534,4.1458446770565));
#1213=CARTESIAN_POINT('Ctrl Pts',(6.15454705165319,1.34761463665887,4.01266778084535));
#1214=CARTESIAN_POINT('Ctrl Pts',(6.14147554945457,1.40492352860166,3.92882322356209));
#1215=CARTESIAN_POINT('Ctrl Pts',(6.1235447204225,1.48112528933342,3.74464750306724));
#1216=CARTESIAN_POINT('Ctrl Pts',(6.11882341631134,1.5,3.64429541642296));
#1217=CARTESIAN_POINT('Ctrl Pts',(6.11882341631134,1.5,3.55));
#1218=CARTESIAN_POINT('',(6.11882341631134,1.5,2.5));
#1219=CARTESIAN_POINT('',(6.11882341631134,1.5,0.));
#1220=CARTESIAN_POINT('Origin',(0.,0.,2.5));
#1221=CARTESIAN_POINT('Origin',(7.9125,-0.75,3.25));
#1222=CARTESIAN_POINT('',(7.5,-0.75,2.5));
#1223=CARTESIAN_POINT('',(7.5,-1.5,3.25));
#1224=CARTESIAN_POINT('Origin',(7.5,-0.75,3.25));
#1225=CARTESIAN_POINT('',(7.34846922834953,-1.5,3.25));
#1226=CARTESIAN_POINT('',(7.9125,-1.5,3.25));
#1227=CARTESIAN_POINT('',(7.46240577829965,-0.75,2.5));
#1228=CARTESIAN_POINT('Ctrl Pts',(7.46240577829965,-0.75,2.5));
#1229=CARTESIAN_POINT('Ctrl Pts',(7.4528941746421,-0.844639261460035,2.5));
#1230=CARTESIAN_POINT('Ctrl Pts',(7.44076875647072,-0.945350905554136,2.51898830329695));
#1231=CARTESIAN_POINT('Ctrl Pts',(7.41491211618642,-1.13040096058232,2.59590888873521));
#1232=CARTESIAN_POINT('Ctrl Pts',(7.40127956458373,-1.21475650251,2.65383309336301));
#1233=CARTESIAN_POINT('Ctrl Pts',(7.37827785497533,-1.34740720331337,2.78701205956089));
#1234=CARTESIAN_POINT('Ctrl Pts',(7.36735623493628,-1.40483934324907,2.87100396388449));
#1235=CARTESIAN_POINT('Ctrl Pts',(7.35239617241366,-1.48114213041209,3.05536256893629));
#1236=CARTESIAN_POINT('Ctrl Pts',(7.34846922834953,-1.5,3.15574358845789));
#1237=CARTESIAN_POINT('Ctrl Pts',(7.34846922834953,-1.5,3.25));
#1238=CARTESIAN_POINT('',(7.9125,-0.75,2.5));
#1239=CARTESIAN_POINT('Origin',(7.5,-0.75,6.1));
#1240=CARTESIAN_POINT('',(11.1,-0.75,6.1));
#1241=CARTESIAN_POINT('',(10.35,-1.5,6.1));
#1242=CARTESIAN_POINT('Origin',(10.35,-0.75,6.1));
#1243=CARTESIAN_POINT('Origin',(7.5,-1.5,6.1));
#1244=CARTESIAN_POINT('Origin',(7.5,-0.75,6.1));
#1245=CARTESIAN_POINT('Origin',(10.35,-0.75,10.075));
#1246=CARTESIAN_POINT('',(11.1,-0.75,11.4));
#1247=CARTESIAN_POINT('',(10.35,-1.5,11.4));
#1248=CARTESIAN_POINT('Origin',(10.35,-0.75,11.4));
#1249=CARTESIAN_POINT('',(10.35,-1.5,10.075));
#1250=CARTESIAN_POINT('',(11.1,-0.75,10.075));
#1251=CARTESIAN_POINT('Origin',(7.5,-0.75,11.4));
#1252=CARTESIAN_POINT('',(7.5,-1.5,14.25));
#1253=CARTESIAN_POINT('Origin',(7.5,-0.75,14.25));
#1254=CARTESIAN_POINT('Origin',(7.5,-1.5,11.4));
#1255=CARTESIAN_POINT('Origin',(7.5,-0.75,11.4));
#1256=CARTESIAN_POINT('Origin',(4.1625,-0.75,14.25));
#1257=CARTESIAN_POINT('',(4.1625,-1.5,14.25));
#1258=CARTESIAN_POINT('Origin',(7.5,0.,11.4));
#1259=CARTESIAN_POINT('',(11.1,0.75,11.4));
#1260=CARTESIAN_POINT('',(11.1,0.,11.4));
#1261=CARTESIAN_POINT('Origin',(7.5,0.75,11.4));
#1262=CARTESIAN_POINT('Origin',(11.1,0.,11.4));
#1263=CARTESIAN_POINT('',(11.1,0.75,6.1));
#1264=CARTESIAN_POINT('',(11.1,0.,6.1));
#1265=CARTESIAN_POINT('',(11.1,0.75,10.075));
#1266=CARTESIAN_POINT('Origin',(7.5,0.,6.1));
#1267=CARTESIAN_POINT('',(7.5,0.,2.5));
#1268=CARTESIAN_POINT('',(7.5,0.,2.5));
#1269=CARTESIAN_POINT('',(7.5,0.75,2.5));
#1270=CARTESIAN_POINT('',(7.5,0.,2.5));
#1271=CARTESIAN_POINT('Origin',(7.5,0.75,6.1));
#1272=CARTESIAN_POINT('Origin',(7.5,0.,2.5));
#1273=CARTESIAN_POINT('Origin',(0.,0.,2.5));
#1274=CARTESIAN_POINT('Origin',(7.9125,-0.75,13.95));
#1275=CARTESIAN_POINT('',(7.5,-0.75,13.2));
#1276=CARTESIAN_POINT('',(7.5,-1.5,13.95));
#1277=CARTESIAN_POINT('Origin',(7.5,-0.75,13.95));
#1278=CARTESIAN_POINT('',(7.9125,-1.5,13.95));
#1279=CARTESIAN_POINT('',(7.9125,-0.75,13.2));
#1280=CARTESIAN_POINT('Origin',(7.5,-0.75,11.4));
#1281=CARTESIAN_POINT('',(9.3,-0.75,11.4));
#1282=CARTESIAN_POINT('',(10.05,-1.5,11.4));
#1283=CARTESIAN_POINT('Origin',(10.05,-0.75,11.4));
#1284=CARTESIAN_POINT('Origin',(7.5,-1.5,11.4));
#1285=CARTESIAN_POINT('Origin',(7.5,-0.75,11.4));
#1286=CARTESIAN_POINT('Origin',(10.05,-0.75,7.425));
#1287=CARTESIAN_POINT('',(9.3,-0.75,6.1));
#1288=CARTESIAN_POINT('',(10.05,-1.5,6.1));
#1289=CARTESIAN_POINT('Origin',(10.05,-0.75,6.1));
#1290=CARTESIAN_POINT('',(10.05,-1.5,7.425));
#1291=CARTESIAN_POINT('',(9.3,-0.75,7.425));
#1292=CARTESIAN_POINT('Origin',(7.5,-0.75,6.1));
#1293=CARTESIAN_POINT('',(7.5,-0.75,4.3));
#1294=CARTESIAN_POINT('',(7.5,-1.5,3.55));
#1295=CARTESIAN_POINT('Origin',(7.5,-0.75,3.55));
#1296=CARTESIAN_POINT('Origin',(7.5,-1.5,6.1));
#1297=CARTESIAN_POINT('Origin',(7.5,-0.75,6.1));
#1298=CARTESIAN_POINT('Origin',(6.9375,-0.75,3.55));
#1299=CARTESIAN_POINT('',(6.9375,-1.5,3.55));
#1300=CARTESIAN_POINT('',(6.9375,-0.75,4.3));
#1301=CARTESIAN_POINT('Origin',(5.55,0.,4.3));
#1302=CARTESIAN_POINT('',(7.5,0.75,4.3));
#1303=CARTESIAN_POINT('',(7.5,0.,4.3));
#1304=CARTESIAN_POINT('',(6.9375,0.75,4.3));
#1305=CARTESIAN_POINT('Origin',(7.5,0.,6.1));
#1306=CARTESIAN_POINT('',(9.3,0.75,6.1));
#1307=CARTESIAN_POINT('',(9.3,0.,6.1));
#1308=CARTESIAN_POINT('Origin',(7.5,0.75,6.1));
#1309=CARTESIAN_POINT('Origin',(9.3,0.,6.1));
#1310=CARTESIAN_POINT('',(9.3,0.75,11.4));
#1311=CARTESIAN_POINT('',(9.3,0.,11.4));
#1312=CARTESIAN_POINT('',(9.3,0.75,7.425));
#1313=CARTESIAN_POINT('Origin',(7.5,0.,11.4));
#1314=CARTESIAN_POINT('',(7.5,0.75,13.2));
#1315=CARTESIAN_POINT('',(7.5,0.,13.2));
#1316=CARTESIAN_POINT('Origin',(7.5,0.75,11.4));
#1317=CARTESIAN_POINT('Origin',(7.5,0.,13.2));
#1318=CARTESIAN_POINT('',(7.9125,0.75,13.2));
#1319=CARTESIAN_POINT('Origin',(6.9375,0.75,3.55));
#1320=CARTESIAN_POINT('',(7.5,1.5,3.55));
#1321=CARTESIAN_POINT('Origin',(7.5,0.75,3.55));
#1322=CARTESIAN_POINT('',(6.9375,1.5,3.55));
#1323=CARTESIAN_POINT('Origin',(7.5,0.75,6.1));
#1324=CARTESIAN_POINT('',(10.05,1.5,6.1));
#1325=CARTESIAN_POINT('Origin',(10.05,0.75,6.1));
#1326=CARTESIAN_POINT('Origin',(7.5,1.5,6.1));
#1327=CARTESIAN_POINT('Origin',(10.05,0.75,7.425));
#1328=CARTESIAN_POINT('',(10.05,1.5,11.4));
#1329=CARTESIAN_POINT('Origin',(10.05,0.75,11.4));
#1330=CARTESIAN_POINT('',(10.05,1.5,7.425));
#1331=CARTESIAN_POINT('Origin',(7.5,0.75,11.4));
#1332=CARTESIAN_POINT('',(7.5,1.5,13.95));
#1333=CARTESIAN_POINT('Origin',(7.5,0.75,13.95));
#1334=CARTESIAN_POINT('Origin',(7.5,1.5,11.4));
#1335=CARTESIAN_POINT('Origin',(7.9125,0.75,13.95));
#1336=CARTESIAN_POINT('',(7.9125,1.5,13.95));
#1337=CARTESIAN_POINT('Origin',(4.1625,0.75,14.25));
#1338=CARTESIAN_POINT('',(7.5,1.5,14.25));
#1339=CARTESIAN_POINT('Origin',(7.5,0.75,14.25));
#1340=CARTESIAN_POINT('',(4.1625,1.5,14.25));
#1341=CARTESIAN_POINT('Origin',(7.5,0.75,11.4));
#1342=CARTESIAN_POINT('',(10.35,1.5,11.4));
#1343=CARTESIAN_POINT('Origin',(10.35,0.75,11.4));
#1344=CARTESIAN_POINT('Origin',(7.5,1.5,11.4));
#1345=CARTESIAN_POINT('Origin',(10.35,0.75,10.075));
#1346=CARTESIAN_POINT('',(10.35,1.5,6.1));
#1347=CARTESIAN_POINT('Origin',(10.35,0.75,6.1));
#1348=CARTESIAN_POINT('',(10.35,1.5,10.075));
#1349=CARTESIAN_POINT('Origin',(7.5,0.75,6.1));
#1350=CARTESIAN_POINT('',(7.5,1.5,3.25));
#1351=CARTESIAN_POINT('Origin',(7.5,0.75,3.25));
#1352=CARTESIAN_POINT('Origin',(7.5,1.5,6.1));
#1353=CARTESIAN_POINT('Origin',(7.9125,0.75,3.25));
#1354=CARTESIAN_POINT('',(7.46240577829965,0.75,2.5));
#1355=CARTESIAN_POINT('',(7.34846922834953,1.5,3.25));
#1356=CARTESIAN_POINT('Ctrl Pts',(7.34846922834953,1.5,3.25));
#1357=CARTESIAN_POINT('Ctrl Pts',(7.34846922834953,1.5,3.1557435884579));
#1358=CARTESIAN_POINT('Ctrl Pts',(7.35239617241366,1.48114213041209,3.05536256893629));
#1359=CARTESIAN_POINT('Ctrl Pts',(7.36735623493628,1.40483934324907,2.87100396388449));
#1360=CARTESIAN_POINT('Ctrl Pts',(7.37827785497533,1.34740720331337,2.78701205956089));
#1361=CARTESIAN_POINT('Ctrl Pts',(7.40127956458373,1.21475650251,2.65383309336301));
#1362=CARTESIAN_POINT('Ctrl Pts',(7.41491211618642,1.13040096058232,2.59590888873521));
#1363=CARTESIAN_POINT('Ctrl Pts',(7.44076875647072,0.945350905554137,2.51898830329695));
#1364=CARTESIAN_POINT('Ctrl Pts',(7.4528941746421,0.844639261460036,2.5));
#1365=CARTESIAN_POINT('Ctrl Pts',(7.46240577829965,0.750000000000001,2.5));
#1366=CARTESIAN_POINT('',(7.9125,1.5,3.25));
#1367=CARTESIAN_POINT('',(7.9125,0.75,2.5));
#1368=CARTESIAN_POINT('Origin',(7.5,0.,2.5));
#1369=CARTESIAN_POINT('Origin',(0.,0.,2.5));
#1370=CARTESIAN_POINT('Origin',(0.,0.,1.75));
#1371=CARTESIAN_POINT('',(7.34846922834953,-1.5,1.75));
#1372=CARTESIAN_POINT('',(6.58122329054409,-1.5,2.5));
#1373=CARTESIAN_POINT('Ctrl Pts',(6.58122329054409,-1.5,2.5));
#1374=CARTESIAN_POINT('Ctrl Pts',(6.6762511803297,-1.5,2.5));
#1375=CARTESIAN_POINT('Ctrl Pts',(6.78819862230768,-1.5,2.47828820596957));
#1376=CARTESIAN_POINT('Ctrl Pts',(6.96302709206806,-1.5,2.40726631643506));
#1377=CARTESIAN_POINT('Ctrl Pts',(7.05717526206558,-1.5,2.34584677249651));
#1378=CARTESIAN_POINT('Ctrl Pts',(7.19090478971866,-1.5,2.21498645143954));
#1379=CARTESIAN_POINT('Ctrl Pts',(7.25417017926016,-1.5,2.12242801793087));
#1380=CARTESIAN_POINT('Ctrl Pts',(7.32639876010176,-1.5,1.95116196142213));
#1381=CARTESIAN_POINT('Ctrl Pts',(7.34846922834953,-1.5,1.8424452706639));
#1382=CARTESIAN_POINT('Ctrl Pts',(7.34846922834953,-1.5,1.75));
#1383=CARTESIAN_POINT('',(6.58122329054409,1.5,2.5));
#1384=CARTESIAN_POINT('Origin',(0.,0.,2.5));
#1385=CARTESIAN_POINT('',(7.34846922834953,1.5,1.75));
#1386=CARTESIAN_POINT('Ctrl Pts',(7.34846922834953,1.5,1.75));
#1387=CARTESIAN_POINT('Ctrl Pts',(7.34846922834953,1.5,1.8424452706639));
#1388=CARTESIAN_POINT('Ctrl Pts',(7.32639876010176,1.5,1.95116196142213));
#1389=CARTESIAN_POINT('Ctrl Pts',(7.25417017926016,1.5,2.12242801793087));
#1390=CARTESIAN_POINT('Ctrl Pts',(7.19090478971866,1.5,2.21498645143954));
#1391=CARTESIAN_POINT('Ctrl Pts',(7.05717526206558,1.5,2.34584677249651));
#1392=CARTESIAN_POINT('Ctrl Pts',(6.96302709206806,1.5,2.40726631643506));
#1393=CARTESIAN_POINT('Ctrl Pts',(6.78819862230768,1.5,2.47828820596957));
#1394=CARTESIAN_POINT('Ctrl Pts',(6.6762511803297,1.5,2.5));
#1395=CARTESIAN_POINT('Ctrl Pts',(6.58122329054409,1.5,2.5));
#1396=CARTESIAN_POINT('',(-7.5,-9.18485099360515E-16,1.75));
#1397=CARTESIAN_POINT('Origin',(0.,0.,1.75));
#1398=CARTESIAN_POINT('Origin',(0.,0.,1.75));
#1399=CARTESIAN_POINT('Origin',(0.,0.,0.));
#1400=CARTESIAN_POINT('',(7.34846922834953,-1.5,0.));
#1401=CARTESIAN_POINT('',(-7.5,-9.18485099360515E-16,0.));
#1402=CARTESIAN_POINT('',(-7.5,-9.18485099360515E-16,0.));
#1403=CARTESIAN_POINT('Origin',(0.,0.,0.));
#1404=CARTESIAN_POINT('',(7.34846922834953,1.5,0.));
#1405=CARTESIAN_POINT('Origin',(8.325,-1.5,8.75));
#1406=CARTESIAN_POINT('',(4.1625,-1.5,2.5));
#1407=CARTESIAN_POINT('Origin',(8.325,1.5,8.75));
#1408=CARTESIAN_POINT('',(4.1625,1.5,2.5));
#1409=CARTESIAN_POINT('Origin',(0.,0.,2.5));
#1410=CARTESIAN_POINT('Origin',(0.,0.,2.5));
#1411=CARTESIAN_POINT('',(-1.1,-1.34711147906209E-16,2.5));
#1412=CARTESIAN_POINT('Origin',(0.,0.,2.5));
#1413=CARTESIAN_POINT('Origin',(0.,0.,0.));
#1414=CARTESIAN_POINT('',(-1.1,-1.34711147906209E-16,0.));
#1415=CARTESIAN_POINT('',(-1.1,-1.34711147906209E-16,0.));
#1416=CARTESIAN_POINT('Origin',(0.,0.,0.));
#1417=CARTESIAN_POINT('Origin',(0.,0.,0.));
#1418=CARTESIAN_POINT('',(0.,0.,0.));
#1419=UNCERTAINTY_MEASURE_WITH_UNIT(LENGTH_MEASURE(0.01),#1425,
'DISTANCE_ACCURACY_VALUE',
'Maximum model space distance between geometric entities at asserted c
onnectivities');
#1420=UNCERTAINTY_MEASURE_WITH_UNIT(LENGTH_MEASURE(0.01),#1425,
'DISTANCE_ACCURACY_VALUE',
'Maximum model space distance between geometric entities at asserted c
onnectivities');
#1421=UNCERTAINTY_MEASURE_WITH_UNIT(LENGTH_MEASURE(0.01),#1425,
'DISTANCE_ACCURACY_VALUE',
'Maximum model space distance between geometric entities at asserted c
onnectivities');
#1422=(
GEOMETRIC_REPRESENTATION_CONTEXT(3)
GLOBAL_UNCERTAINTY_ASSIGNED_CONTEXT((#1419))
GLOBAL_UNIT_ASSIGNED_CONTEXT((#1425,#1427,#1428))
REPRESENTATION_CONTEXT('','3D')
);
#1423=(
GEOMETRIC_REPRESENTATION_CONTEXT(3)
GLOBAL_UNCERTAINTY_ASSIGNED_CONTEXT((#1420))
GLOBAL_UNIT_ASSIGNED_CONTEXT((#1425,#1427,#1428))
REPRESENTATION_CONTEXT('','3D')
);
#1424=(
GEOMETRIC_REPRESENTATION_CONTEXT(3)
GLOBAL_UNCERTAINTY_ASSIGNED_CONTEXT((#1421))
GLOBAL_UNIT_ASSIGNED_CONTEXT((#1425,#1427,#1428))
REPRESENTATION_CONTEXT('','3D')
);
#1425=(
LENGTH_UNIT()
NAMED_UNIT(*)
SI_UNIT(.MILLI.,.METRE.)
);
#1426=(
LENGTH_UNIT()
NAMED_UNIT(*)
SI_UNIT($,.METRE.)
);
#1427=(
NAMED_UNIT(*)
PLANE_ANGLE_UNIT()
SI_UNIT($,.RADIAN.)
);
#1428=(
NAMED_UNIT(*)
SI_UNIT($,.STERADIAN.)
SOLID_ANGLE_UNIT()
);
#1429=SHAPE_DEFINITION_REPRESENTATION(#1431,#1434);
#1430=SHAPE_DEFINITION_REPRESENTATION(#1432,#1435);
#1431=PRODUCT_DEFINITION_SHAPE('',$,#1437);
#1432=PRODUCT_DEFINITION_SHAPE('',$,#1438);
#1433=PRODUCT_DEFINITION_SHAPE($,$,#14);
#1434=SHAPE_REPRESENTATION('',(#758,#855),#1422);
#1435=SHAPE_REPRESENTATION('',(#759),#1423);
#1436=PRODUCT_DEFINITION_CONTEXT('part definition',#1444,'design');
#1437=PRODUCT_DEFINITION('2026-09-12-16-13-12-020','PRINT_LAYOUT',#1439,
#1436);
#1438=PRODUCT_DEFINITION('2026-09-12-16-13-12-017','Mug',#1440,#1436);
#1439=PRODUCT_DEFINITION_FORMATION('',$,#1446);
#1440=PRODUCT_DEFINITION_FORMATION('',$,#1447);
#1441=PRODUCT_RELATED_PRODUCT_CATEGORY('PRINT_LAYOUT','PRINT_LAYOUT',(#1446));
#1442=PRODUCT_RELATED_PRODUCT_CATEGORY('Mug','Mug',(#1447));
#1443=APPLICATION_PROTOCOL_DEFINITION('international standard',
'automotive_design',2009,#1444);
#1444=APPLICATION_CONTEXT(
'Core Data for Automotive Mechanical Design Process');
#1445=PRODUCT_CONTEXT('part definition',#1444,'mechanical');
#1446=PRODUCT('2026-09-12-16-13-12-020','PRINT_LAYOUT',$,(#1445));
#1447=PRODUCT('2026-09-12-16-13-12-017','Mug',$,(#1445));
#1448=PRESENTATION_STYLE_ASSIGNMENT((#1451));
#1449=PRESENTATION_STYLE_ASSIGNMENT((#1452));
#1450=PRESENTATION_STYLE_ASSIGNMENT((#1453));
#1451=SURFACE_STYLE_USAGE(.BOTH.,#1454);
#1452=SURFACE_STYLE_USAGE(.BOTH.,#1455);
#1453=SURFACE_STYLE_USAGE(.BOTH.,#1456);
#1454=SURFACE_SIDE_STYLE('',(#1457));
#1455=SURFACE_SIDE_STYLE('',(#1458));
#1456=SURFACE_SIDE_STYLE('',(#1459));
#1457=SURFACE_STYLE_FILL_AREA(#1460);
#1458=SURFACE_STYLE_FILL_AREA(#1461);
#1459=SURFACE_STYLE_FILL_AREA(#1462);
#1460=FILL_AREA_STYLE('Plastic - Matte (Black)',(#1463));
#1461=FILL_AREA_STYLE('Steel - Satin',(#1464));
#1462=FILL_AREA_STYLE('Brass - Old',(#1465));
#1463=FILL_AREA_STYLE_COLOUR('Plastic - Matte (Black)',#1466);
#1464=FILL_AREA_STYLE_COLOUR('Steel - Satin',#1467);
#1465=FILL_AREA_STYLE_COLOUR('Brass - Old',#1468);
#1466=COLOUR_RGB('Plastic - Matte (Black)',0.0980392156862745,0.0980392156862745,
0.0980392156862745);
#1467=COLOUR_RGB('Steel - Satin',0.627450980392157,0.627450980392157,0.627450980392157);
#1468=COLOUR_RGB('Brass - Old',0.,0.,0.);
ENDSEC;
END-ISO-10303-21;
