ISO-10303-21;
HEADER;
/* Generated by software containing ST-Developer
 * from STEP Tools, Inc. (www.steptools.com) 
 */

FILE_DESCRIPTION(
/* description */ (''),
/* implementation_level */ '2;1');

FILE_NAME(
/* name */ 'SeatRight.step',
/* time_stamp */ '2026-09-29T20:58:12+02:00',
/* author */ (''),
/* organization */ (''),
/* preprocessor_version */ 'ST-DEVELOPER v20.2',
/* originating_system */ 'Autodesk Translation Framework v15.15.0.0',
/* authorisation */ '');

FILE_SCHEMA (('AUTOMOTIVE_DESIGN { 1 0 10303 214 3 1 1 }'));
ENDSEC;

DATA;
#10=MECHANICAL_DESIGN_GEOMETRIC_PRESENTATION_REPRESENTATION('',(#20,#21),
#1705);
#11=CONTEXT_DEPENDENT_OVER_RIDING_STYLED_ITEM('',(#1730),#1716,#21,(#15));
#12=MAPPED_ITEM('',#13,#1041);
#13=REPRESENTATION_MAP(#1041,#1715);
#14=ITEM_DEFINED_TRANSFORMATION($,$,#946,#1040);
#15=(
REPRESENTATION_RELATIONSHIP($,$,#1716,#1715)
REPRESENTATION_RELATIONSHIP_WITH_TRANSFORMATION(#14)
SHAPE_REPRESENTATION_RELATIONSHIP()
);
#16=CONTEXT_DEPENDENT_SHAPE_REPRESENTATION(#15,#1714);
#17=NEXT_ASSEMBLY_USAGE_OCCURRENCE('SeatRight:1','SeatRight:1',
'SeatRight:1',#1718,#1719,'SeatRight:1');
#18=SHAPE_REPRESENTATION_RELATIONSHIP('SRR','None',#1716,#19);
#19=ADVANCED_BREP_SHAPE_REPRESENTATION('',(#22),#1704);
#20=STYLED_ITEM('',(#1729),#22);
#21=STYLED_ITEM('',(#1732),#12);
#22=MANIFOLD_SOLID_BREP('Body1',#932);
#23=(
BOUNDED_CURVE()
B_SPLINE_CURVE(2,(#1616,#1617,#1618),.UNSPECIFIED.,.F.,.F.)
B_SPLINE_CURVE_WITH_KNOTS((3,3),(0.,0.0613909775141822),.UNSPECIFIED.)
CURVE()
GEOMETRIC_REPRESENTATION_ITEM()
RATIONAL_B_SPLINE_CURVE((1.,1.00010295887293,1.))
REPRESENTATION_ITEM('')
);
#24=(
BOUNDED_CURVE()
B_SPLINE_CURVE(2,(#1646,#1647,#1648),.UNSPECIFIED.,.F.,.F.)
B_SPLINE_CURVE_WITH_KNOTS((3,3),(0.,0.0613909775140954),.UNSPECIFIED.)
CURVE()
GEOMETRIC_REPRESENTATION_ITEM()
RATIONAL_B_SPLINE_CURVE((1.,1.00010295891518,1.))
REPRESENTATION_ITEM('')
);
#25=CONICAL_SURFACE('',#1015,15.789339828223,0.785398163396975);
#26=CONICAL_SURFACE('',#1021,15.7893398282209,0.785398163397104);
#27=B_SPLINE_SURFACE_WITH_KNOTS('',3,3,((#1472,#1473,#1474,#1475,#1476,
#1477),(#1478,#1479,#1480,#1481,#1482,#1483),(#1484,#1485,#1486,#1487,#1488,
#1489),(#1490,#1491,#1492,#1493,#1494,#1495),(#1496,#1497,#1498,#1499,#1500,
#1501),(#1502,#1503,#1504,#1505,#1506,#1507),(#1508,#1509,#1510,#1511,#1512,
#1513)),.UNSPECIFIED.,.F.,.F.,.F.,(4,1,1,1,4),(4,1,1,4),(0.,0.285714285714286,
0.571428571428571,0.785714285714286,1.),(0.,0.428571428571429,0.714285714285714,
1.),.UNSPECIFIED.);
#28=B_SPLINE_CURVE_WITH_KNOTS('',3,(#1366,#1367,#1368,#1369,#1370,#1371,
#1372,#1373,#1374,#1375),.UNSPECIFIED.,.F.,.F.,(4,2,2,2,4),(0.32825363861095,
0.345721193825082,0.364836455415948,0.386221805277251,0.409895794421344),
 .UNSPECIFIED.);
#29=B_SPLINE_CURVE_WITH_KNOTS('',3,(#1385,#1386,#1387,#1388,#1389,#1390,
#1391,#1392,#1393,#1394),.UNSPECIFIED.,.F.,.F.,(4,2,2,2,4),(0.0826193193518948,
0.107263842338223,0.129643472139122,0.149122583897214,0.166279240639637),
 .UNSPECIFIED.);
#30=B_SPLINE_CURVE_WITH_KNOTS('',3,(#1407,#1408,#1409,#1410,#1411,#1412,
#1413,#1414,#1415,#1416),.UNSPECIFIED.,.F.,.F.,(4,2,2,2,4),(0.785222640836975,
0.820828427324685,0.919140138219141,1.0174518491136,1.05305763560131),
 .UNSPECIFIED.);
#31=B_SPLINE_CURVE_WITH_KNOTS('',3,(#1516,#1517,#1518,#1519,#1520,#1521),
 .UNSPECIFIED.,.F.,.F.,(4,1,1,4),(0.,0.428571428571429,0.714285714285714,
1.),.UNSPECIFIED.);
#32=B_SPLINE_CURVE_WITH_KNOTS('',3,(#1525,#1526,#1527,#1528,#1529,#1530),
 .UNSPECIFIED.,.F.,.F.,(4,1,1,4),(-1.,-0.714285714285714,-0.428571428571429,
0.),.UNSPECIFIED.);
#33=B_SPLINE_CURVE_WITH_KNOTS('',3,(#1626,#1627,#1628,#1629,#1630,#1631,
#1632,#1633,#1634,#1635,#1636,#1637,#1638,#1639,#1640),.UNSPECIFIED.,.F.,
 .F.,(4,2,2,3,2,2,4),(-0.113097927442841,-0.110309746281841,-0.0539827236671169,
0.,0.0539827236671159,0.110309746281839,0.113097927442901),
 .UNSPECIFIED.);
#34=B_SPLINE_CURVE_WITH_KNOTS('',3,(#1654,#1655,#1656,#1657,#1658,#1659,
#1660,#1661),.UNSPECIFIED.,.F.,.F.,(4,2,2,4),(0.580498000822286,0.584923691457596,
0.679616377484801,0.769439710038183),.UNSPECIFIED.);
#35=B_SPLINE_CURVE_WITH_KNOTS('',3,(#1676,#1677,#1678,#1679,#1680,#1681,
#1682,#1683),.UNSPECIFIED.,.F.,.F.,(4,2,2,4),(0.769439710037017,0.859263042590264,
0.953955728617323,0.958381419252574),.UNSPECIFIED.);
#36=TOROIDAL_SURFACE('',#959,11.3500000000004,0.5);
#37=TOROIDAL_SURFACE('',#964,10.8500000000005,0.5);
#38=TOROIDAL_SURFACE('',#966,7.,2.);
#39=TOROIDAL_SURFACE('',#991,16.3500000000004,2.);
#40=TOROIDAL_SURFACE('',#1018,14.9357864376269,1.50000000000383);
#41=TOROIDAL_SURFACE('',#1023,17.3500000000004,2.5);
#42=TOROIDAL_SURFACE('',#1039,17.3500000000004,2.49999999999622);
#43=FACE_BOUND('',#127,.T.);
#44=FACE_BOUND('',#147,.T.);
#45=FACE_BOUND('',#149,.T.);
#46=FACE_BOUND('',#167,.T.);
#47=FACE_BOUND('',#170,.T.);
#48=PLANE('',#950);
#49=PLANE('',#954);
#50=PLANE('',#955);
#51=PLANE('',#962);
#52=PLANE('',#977);
#53=PLANE('',#979);
#54=PLANE('',#987);
#55=PLANE('',#996);
#56=PLANE('',#998);
#57=PLANE('',#1002);
#58=PLANE('',#1004);
#59=PLANE('',#1009);
#60=PLANE('',#1010);
#61=PLANE('',#1011);
#62=PLANE('',#1012);
#63=PLANE('',#1013);
#64=PLANE('',#1014);
#65=PLANE('',#1027);
#66=PLANE('',#1028);
#67=PLANE('',#1029);
#68=PLANE('',#1030);
#69=PLANE('',#1032);
#70=PLANE('',#1033);
#71=PLANE('',#1034);
#72=PLANE('',#1035);
#73=FACE_OUTER_BOUND('',#122,.T.);
#74=FACE_OUTER_BOUND('',#123,.T.);
#75=FACE_OUTER_BOUND('',#124,.T.);
#76=FACE_OUTER_BOUND('',#125,.T.);
#77=FACE_OUTER_BOUND('',#126,.T.);
#78=FACE_OUTER_BOUND('',#128,.T.);
#79=FACE_OUTER_BOUND('',#129,.T.);
#80=FACE_OUTER_BOUND('',#130,.T.);
#81=FACE_OUTER_BOUND('',#131,.T.);
#82=FACE_OUTER_BOUND('',#132,.T.);
#83=FACE_OUTER_BOUND('',#133,.T.);
#84=FACE_OUTER_BOUND('',#134,.T.);
#85=FACE_OUTER_BOUND('',#135,.T.);
#86=FACE_OUTER_BOUND('',#136,.T.);
#87=FACE_OUTER_BOUND('',#137,.T.);
#88=FACE_OUTER_BOUND('',#138,.T.);
#89=FACE_OUTER_BOUND('',#139,.T.);
#90=FACE_OUTER_BOUND('',#140,.T.);
#91=FACE_OUTER_BOUND('',#141,.T.);
#92=FACE_OUTER_BOUND('',#142,.T.);
#93=FACE_OUTER_BOUND('',#143,.T.);
#94=FACE_OUTER_BOUND('',#144,.T.);
#95=FACE_OUTER_BOUND('',#145,.T.);
#96=FACE_OUTER_BOUND('',#146,.T.);
#97=FACE_OUTER_BOUND('',#148,.T.);
#98=FACE_OUTER_BOUND('',#150,.T.);
#99=FACE_OUTER_BOUND('',#151,.T.);
#100=FACE_OUTER_BOUND('',#152,.T.);
#101=FACE_OUTER_BOUND('',#153,.T.);
#102=FACE_OUTER_BOUND('',#154,.T.);
#103=FACE_OUTER_BOUND('',#155,.T.);
#104=FACE_OUTER_BOUND('',#156,.T.);
#105=FACE_OUTER_BOUND('',#157,.T.);
#106=FACE_OUTER_BOUND('',#158,.T.);
#107=FACE_OUTER_BOUND('',#159,.T.);
#108=FACE_OUTER_BOUND('',#160,.T.);
#109=FACE_OUTER_BOUND('',#161,.T.);
#110=FACE_OUTER_BOUND('',#162,.T.);
#111=FACE_OUTER_BOUND('',#163,.T.);
#112=FACE_OUTER_BOUND('',#164,.T.);
#113=FACE_OUTER_BOUND('',#165,.T.);
#114=FACE_OUTER_BOUND('',#166,.T.);
#115=FACE_OUTER_BOUND('',#168,.T.);
#116=FACE_OUTER_BOUND('',#169,.T.);
#117=FACE_OUTER_BOUND('',#171,.T.);
#118=FACE_OUTER_BOUND('',#172,.T.);
#119=FACE_OUTER_BOUND('',#173,.T.);
#120=FACE_OUTER_BOUND('',#174,.T.);
#121=FACE_OUTER_BOUND('',#175,.T.);
#122=EDGE_LOOP('',(#601,#602,#603,#604));
#123=EDGE_LOOP('',(#605,#606,#607,#608));
#124=EDGE_LOOP('',(#609,#610,#611,#612));
#125=EDGE_LOOP('',(#613,#614,#615,#616));
#126=EDGE_LOOP('',(#617,#618,#619,#620,#621,#622,#623,#624,#625));
#127=EDGE_LOOP('',(#626));
#128=EDGE_LOOP('',(#627,#628,#629,#630));
#129=EDGE_LOOP('',(#631,#632,#633,#634));
#130=EDGE_LOOP('',(#635,#636,#637,#638));
#131=EDGE_LOOP('',(#639,#640,#641,#642));
#132=EDGE_LOOP('',(#643,#644,#645,#646,#647,#648));
#133=EDGE_LOOP('',(#649,#650,#651,#652));
#134=EDGE_LOOP('',(#653,#654,#655,#656));
#135=EDGE_LOOP('',(#657,#658,#659,#660,#661,#662,#663,#664));
#136=EDGE_LOOP('',(#665,#666,#667,#668,#669,#670,#671,#672,#673,#674,#675,
#676,#677,#678,#679,#680));
#137=EDGE_LOOP('',(#681,#682,#683,#684,#685,#686));
#138=EDGE_LOOP('',(#687,#688,#689,#690,#691,#692,#693));
#139=EDGE_LOOP('',(#694,#695,#696,#697));
#140=EDGE_LOOP('',(#698,#699,#700,#701));
#141=EDGE_LOOP('',(#702,#703,#704,#705));
#142=EDGE_LOOP('',(#706,#707,#708,#709));
#143=EDGE_LOOP('',(#710,#711,#712,#713,#714,#715,#716,#717,#718));
#144=EDGE_LOOP('',(#719,#720,#721,#722));
#145=EDGE_LOOP('',(#723,#724,#725,#726));
#146=EDGE_LOOP('',(#727));
#147=EDGE_LOOP('',(#728));
#148=EDGE_LOOP('',(#729));
#149=EDGE_LOOP('',(#730));
#150=EDGE_LOOP('',(#731,#732,#733,#734));
#151=EDGE_LOOP('',(#735,#736,#737,#738));
#152=EDGE_LOOP('',(#739,#740,#741,#742));
#153=EDGE_LOOP('',(#743,#744,#745,#746));
#154=EDGE_LOOP('',(#747,#748,#749,#750));
#155=EDGE_LOOP('',(#751,#752,#753,#754));
#156=EDGE_LOOP('',(#755,#756,#757,#758,#759,#760,#761,#762,#763,#764,#765,
#766,#767,#768,#769,#770,#771));
#157=EDGE_LOOP('',(#772,#773,#774,#775));
#158=EDGE_LOOP('',(#776,#777,#778,#779));
#159=EDGE_LOOP('',(#780,#781,#782,#783));
#160=EDGE_LOOP('',(#784,#785,#786,#787));
#161=EDGE_LOOP('',(#788,#789,#790,#791));
#162=EDGE_LOOP('',(#792,#793,#794,#795));
#163=EDGE_LOOP('',(#796,#797,#798,#799));
#164=EDGE_LOOP('',(#800,#801,#802,#803));
#165=EDGE_LOOP('',(#804,#805,#806,#807,#808,#809,#810,#811,#812,#813,#814,
#815,#816,#817,#818,#819,#820,#821,#822,#823));
#166=EDGE_LOOP('',(#824,#825,#826,#827));
#167=EDGE_LOOP('',(#828));
#168=EDGE_LOOP('',(#829,#830,#831,#832));
#169=EDGE_LOOP('',(#833,#834,#835,#836,#837,#838));
#170=EDGE_LOOP('',(#839));
#171=EDGE_LOOP('',(#840,#841,#842,#843,#844,#845));
#172=EDGE_LOOP('',(#846,#847,#848,#849));
#173=EDGE_LOOP('',(#850,#851,#852,#853,#854,#855,#856,#857,#858,#859,#860));
#174=EDGE_LOOP('',(#861,#862,#863,#864));
#175=EDGE_LOOP('',(#865,#866,#867,#868));
#176=LINE('',#1322,#255);
#177=LINE('',#1325,#256);
#178=LINE('',#1328,#257);
#179=LINE('',#1330,#258);
#180=LINE('',#1331,#259);
#181=LINE('',#1337,#260);
#182=LINE('',#1340,#261);
#183=LINE('',#1343,#262);
#184=LINE('',#1345,#263);
#185=LINE('',#1346,#264);
#186=LINE('',#1349,#265);
#187=LINE('',#1351,#266);
#188=LINE('',#1353,#267);
#189=LINE('',#1357,#268);
#190=LINE('',#1360,#269);
#191=LINE('',#1381,#270);
#192=LINE('',#1417,#271);
#193=LINE('',#1419,#272);
#194=LINE('',#1422,#273);
#195=LINE('',#1427,#274);
#196=LINE('',#1428,#275);
#197=LINE('',#1433,#276);
#198=LINE('',#1434,#277);
#199=LINE('',#1437,#278);
#200=LINE('',#1439,#279);
#201=LINE('',#1443,#280);
#202=LINE('',#1445,#281);
#203=LINE('',#1447,#282);
#204=LINE('',#1448,#283);
#205=LINE('',#1450,#284);
#206=LINE('',#1452,#285);
#207=LINE('',#1456,#286);
#208=LINE('',#1461,#287);
#209=LINE('',#1462,#288);
#210=LINE('',#1467,#289);
#211=LINE('',#1471,#290);
#212=LINE('',#1533,#291);
#213=LINE('',#1534,#292);
#214=LINE('',#1542,#293);
#215=LINE('',#1543,#294);
#216=LINE('',#1546,#295);
#217=LINE('',#1550,#296);
#218=LINE('',#1552,#297);
#219=LINE('',#1553,#298);
#220=LINE('',#1559,#299);
#221=LINE('',#1568,#300);
#222=LINE('',#1571,#301);
#223=LINE('',#1576,#302);
#224=LINE('',#1578,#303);
#225=LINE('',#1580,#304);
#226=LINE('',#1581,#305);
#227=LINE('',#1585,#306);
#228=LINE('',#1587,#307);
#229=LINE('',#1589,#308);
#230=LINE('',#1590,#309);
#231=LINE('',#1592,#310);
#232=LINE('',#1593,#311);
#233=LINE('',#1595,#312);
#234=LINE('',#1598,#313);
#235=LINE('',#1599,#314);
#236=LINE('',#1600,#315);
#237=LINE('',#1602,#316);
#238=LINE('',#1603,#317);
#239=LINE('',#1605,#318);
#240=LINE('',#1607,#319);
#241=LINE('',#1608,#320);
#242=LINE('',#1611,#321);
#243=LINE('',#1612,#322);
#244=LINE('',#1622,#323);
#245=LINE('',#1650,#324);
#246=LINE('',#1666,#325);
#247=LINE('',#1667,#326);
#248=LINE('',#1669,#327);
#249=LINE('',#1671,#328);
#250=LINE('',#1672,#329);
#251=LINE('',#1675,#330);
#252=LINE('',#1686,#331);
#253=LINE('',#1689,#332);
#254=LINE('',#1694,#333);
#255=VECTOR('',#1050,10.);
#256=VECTOR('',#1053,10.);
#257=VECTOR('',#1056,10.);
#258=VECTOR('',#1057,10.);
#259=VECTOR('',#1058,10.);
#260=VECTOR('',#1063,10.);
#261=VECTOR('',#1066,10.);
#262=VECTOR('',#1069,10.);
#263=VECTOR('',#1070,10.);
#264=VECTOR('',#1071,10.);
#265=VECTOR('',#1074,10.);
#266=VECTOR('',#1075,10.);
#267=VECTOR('',#1076,10.);
#268=VECTOR('',#1079,10.);
#269=VECTOR('',#1082,10.);
#270=VECTOR('',#1095,10.);
#271=VECTOR('',#1112,10.);
#272=VECTOR('',#1113,10.);
#273=VECTOR('',#1116,10.);
#274=VECTOR('',#1121,10.);
#275=VECTOR('',#1122,10.);
#276=VECTOR('',#1127,10.);
#277=VECTOR('',#1128,10.);
#278=VECTOR('',#1131,10.);
#279=VECTOR('',#1132,10.);
#280=VECTOR('',#1135,10.);
#281=VECTOR('',#1136,10.);
#282=VECTOR('',#1137,10.);
#283=VECTOR('',#1138,10.);
#284=VECTOR('',#1141,10.);
#285=VECTOR('',#1142,10.);
#286=VECTOR('',#1145,10.);
#287=VECTOR('',#1150,10.);
#288=VECTOR('',#1151,10.);
#289=VECTOR('',#1156,2.);
#290=VECTOR('',#1163,10.);
#291=VECTOR('',#1170,10.);
#292=VECTOR('',#1171,10.);
#293=VECTOR('',#1182,10.);
#294=VECTOR('',#1183,10.);
#295=VECTOR('',#1186,10.);
#296=VECTOR('',#1189,10.);
#297=VECTOR('',#1190,10.);
#298=VECTOR('',#1191,10.);
#299=VECTOR('',#1198,2.);
#300=VECTOR('',#1211,1.05);
#301=VECTOR('',#1214,1.05);
#302=VECTOR('',#1219,10.);
#303=VECTOR('',#1220,10.);
#304=VECTOR('',#1221,10.);
#305=VECTOR('',#1222,10.);
#306=VECTOR('',#1225,10.);
#307=VECTOR('',#1226,10.);
#308=VECTOR('',#1227,10.);
#309=VECTOR('',#1228,10.);
#310=VECTOR('',#1231,10.);
#311=VECTOR('',#1232,10.);
#312=VECTOR('',#1235,10.);
#313=VECTOR('',#1238,10.);
#314=VECTOR('',#1239,10.);
#315=VECTOR('',#1240,10.);
#316=VECTOR('',#1241,10.);
#317=VECTOR('',#1242,10.);
#318=VECTOR('',#1243,10.);
#319=VECTOR('',#1244,10.);
#320=VECTOR('',#1245,10.);
#321=VECTOR('',#1248,10.);
#322=VECTOR('',#1249,10.);
#323=VECTOR('',#1254,10.);
#324=VECTOR('',#1265,10.);
#325=VECTOR('',#1276,10.);
#326=VECTOR('',#1277,10.);
#327=VECTOR('',#1280,10.);
#328=VECTOR('',#1283,10.);
#329=VECTOR('',#1284,10.);
#330=VECTOR('',#1287,10.);
#331=VECTOR('',#1292,10.);
#332=VECTOR('',#1297,10.);
#333=VECTOR('',#1304,10.);
#334=CIRCLE('',#948,2.);
#335=CIRCLE('',#949,2.);
#336=CIRCLE('',#952,2.);
#337=CIRCLE('',#953,2.);
#338=CIRCLE('',#956,0.5);
#339=CIRCLE('',#957,0.5);
#340=CIRCLE('',#958,1.05);
#341=CIRCLE('',#960,11.8500000000004);
#342=CIRCLE('',#961,11.3500000000004);
#343=CIRCLE('',#963,10.8500000000005);
#344=CIRCLE('',#965,10.3500000000005);
#345=CIRCLE('',#967,7.00000000000001);
#346=CIRCLE('',#968,1.99999999999999);
#347=CIRCLE('',#969,5.);
#348=CIRCLE('',#970,2.);
#349=CIRCLE('',#972,2.);
#350=CIRCLE('',#974,2.);
#351=CIRCLE('',#976,5.);
#352=CIRCLE('',#978,1.5);
#353=CIRCLE('',#980,14.8500000000004);
#354=CIRCLE('',#981,18.3500000000004);
#355=CIRCLE('',#982,6.);
#356=CIRCLE('',#984,2.);
#357=CIRCLE('',#985,2.);
#358=CIRCLE('',#986,2.);
#359=CIRCLE('',#988,2.);
#360=CIRCLE('',#989,1.5);
#361=CIRCLE('',#992,2.);
#362=CIRCLE('',#993,16.3500000000004);
#363=CIRCLE('',#994,18.3500000000004);
#364=CIRCLE('',#997,14.8500000000004);
#365=CIRCLE('',#1000,2.);
#366=CIRCLE('',#1001,2.);
#367=CIRCLE('',#1003,1.05);
#368=CIRCLE('',#1005,1.05);
#369=CIRCLE('',#1008,1.05);
#370=CIRCLE('',#1016,15.5822330470361);
#371=CIRCLE('',#1017,15.9964466094098);
#372=CIRCLE('',#1019,1.50000000000383);
#373=CIRCLE('',#1020,15.9964466094075);
#374=CIRCLE('',#1022,15.5822330470338);
#375=CIRCLE('',#1024,2.5);
#376=CIRCLE('',#1025,14.8500000000005);
#377=CIRCLE('',#1036,2.49999999999622);
#378=CIRCLE('',#1038,14.8500000000004);
#379=VERTEX_POINT('',#1318);
#380=VERTEX_POINT('',#1319);
#381=VERTEX_POINT('',#1321);
#382=VERTEX_POINT('',#1323);
#383=VERTEX_POINT('',#1327);
#384=VERTEX_POINT('',#1329);
#385=VERTEX_POINT('',#1333);
#386=VERTEX_POINT('',#1334);
#387=VERTEX_POINT('',#1336);
#388=VERTEX_POINT('',#1338);
#389=VERTEX_POINT('',#1342);
#390=VERTEX_POINT('',#1344);
#391=VERTEX_POINT('',#1348);
#392=VERTEX_POINT('',#1350);
#393=VERTEX_POINT('',#1352);
#394=VERTEX_POINT('',#1354);
#395=VERTEX_POINT('',#1356);
#396=VERTEX_POINT('',#1358);
#397=VERTEX_POINT('',#1361);
#398=VERTEX_POINT('',#1364);
#399=VERTEX_POINT('',#1365);
#400=VERTEX_POINT('',#1379);
#401=VERTEX_POINT('',#1383);
#402=VERTEX_POINT('',#1396);
#403=VERTEX_POINT('',#1397);
#404=VERTEX_POINT('',#1399);
#405=VERTEX_POINT('',#1401);
#406=VERTEX_POINT('',#1405);
#407=VERTEX_POINT('',#1406);
#408=VERTEX_POINT('',#1418);
#409=VERTEX_POINT('',#1420);
#410=VERTEX_POINT('',#1424);
#411=VERTEX_POINT('',#1425);
#412=VERTEX_POINT('',#1430);
#413=VERTEX_POINT('',#1431);
#414=VERTEX_POINT('',#1436);
#415=VERTEX_POINT('',#1438);
#416=VERTEX_POINT('',#1440);
#417=VERTEX_POINT('',#1442);
#418=VERTEX_POINT('',#1444);
#419=VERTEX_POINT('',#1446);
#420=VERTEX_POINT('',#1451);
#421=VERTEX_POINT('',#1453);
#422=VERTEX_POINT('',#1455);
#423=VERTEX_POINT('',#1457);
#424=VERTEX_POINT('',#1459);
#425=VERTEX_POINT('',#1464);
#426=VERTEX_POINT('',#1466);
#427=VERTEX_POINT('',#1514);
#428=VERTEX_POINT('',#1515);
#429=VERTEX_POINT('',#1522);
#430=VERTEX_POINT('',#1524);
#431=VERTEX_POINT('',#1536);
#432=VERTEX_POINT('',#1537);
#433=VERTEX_POINT('',#1545);
#434=VERTEX_POINT('',#1547);
#435=VERTEX_POINT('',#1549);
#436=VERTEX_POINT('',#1551);
#437=VERTEX_POINT('',#1556);
#438=VERTEX_POINT('',#1558);
#439=VERTEX_POINT('',#1562);
#440=VERTEX_POINT('',#1565);
#441=VERTEX_POINT('',#1570);
#442=VERTEX_POINT('',#1574);
#443=VERTEX_POINT('',#1575);
#444=VERTEX_POINT('',#1577);
#445=VERTEX_POINT('',#1579);
#446=VERTEX_POINT('',#1583);
#447=VERTEX_POINT('',#1584);
#448=VERTEX_POINT('',#1586);
#449=VERTEX_POINT('',#1588);
#450=VERTEX_POINT('',#1597);
#451=VERTEX_POINT('',#1601);
#452=VERTEX_POINT('',#1604);
#453=VERTEX_POINT('',#1606);
#454=VERTEX_POINT('',#1610);
#455=VERTEX_POINT('',#1614);
#456=VERTEX_POINT('',#1615);
#457=VERTEX_POINT('',#1619);
#458=VERTEX_POINT('',#1621);
#459=VERTEX_POINT('',#1625);
#460=VERTEX_POINT('',#1641);
#461=VERTEX_POINT('',#1645);
#462=VERTEX_POINT('',#1649);
#463=VERTEX_POINT('',#1653);
#464=VERTEX_POINT('',#1662);
#465=VERTEX_POINT('',#1674);
#466=VERTEX_POINT('',#1692);
#467=EDGE_CURVE('',#379,#380,#334,.T.);
#468=EDGE_CURVE('',#381,#379,#176,.T.);
#469=EDGE_CURVE('',#382,#381,#335,.F.);
#470=EDGE_CURVE('',#380,#382,#177,.T.);
#471=EDGE_CURVE('',#379,#383,#178,.T.);
#472=EDGE_CURVE('',#383,#384,#179,.T.);
#473=EDGE_CURVE('',#381,#384,#180,.T.);
#474=EDGE_CURVE('',#385,#386,#336,.T.);
#475=EDGE_CURVE('',#387,#385,#181,.T.);
#476=EDGE_CURVE('',#388,#387,#337,.T.);
#477=EDGE_CURVE('',#386,#388,#182,.T.);
#478=EDGE_CURVE('',#385,#389,#183,.T.);
#479=EDGE_CURVE('',#389,#390,#184,.T.);
#480=EDGE_CURVE('',#387,#390,#185,.T.);
#481=EDGE_CURVE('',#390,#391,#186,.T.);
#482=EDGE_CURVE('',#392,#391,#187,.T.);
#483=EDGE_CURVE('',#393,#392,#188,.T.);
#484=EDGE_CURVE('',#393,#394,#338,.T.);
#485=EDGE_CURVE('',#394,#395,#189,.T.);
#486=EDGE_CURVE('',#395,#396,#339,.T.);
#487=EDGE_CURVE('',#388,#396,#190,.T.);
#488=EDGE_CURVE('',#397,#397,#340,.T.);
#489=EDGE_CURVE('',#398,#399,#28,.T.);
#490=EDGE_CURVE('',#398,#396,#341,.T.);
#491=EDGE_CURVE('',#399,#395,#342,.T.);
#492=EDGE_CURVE('',#394,#400,#343,.T.);
#493=EDGE_CURVE('',#399,#400,#191,.T.);
#494=EDGE_CURVE('',#393,#401,#344,.T.);
#495=EDGE_CURVE('',#400,#401,#29,.T.);
#496=EDGE_CURVE('',#402,#403,#345,.T.);
#497=EDGE_CURVE('',#402,#404,#346,.T.);
#498=EDGE_CURVE('',#404,#405,#347,.F.);
#499=EDGE_CURVE('',#405,#403,#348,.T.);
#500=EDGE_CURVE('',#406,#407,#30,.T.);
#501=EDGE_CURVE('',#404,#406,#192,.T.);
#502=EDGE_CURVE('',#408,#402,#193,.T.);
#503=EDGE_CURVE('',#409,#408,#349,.T.);
#504=EDGE_CURVE('',#407,#409,#194,.T.);
#505=EDGE_CURVE('',#410,#411,#350,.T.);
#506=EDGE_CURVE('',#403,#410,#195,.T.);
#507=EDGE_CURVE('',#411,#405,#196,.T.);
#508=EDGE_CURVE('',#412,#413,#351,.T.);
#509=EDGE_CURVE('',#405,#412,#197,.T.);
#510=EDGE_CURVE('',#413,#404,#198,.T.);
#511=EDGE_CURVE('',#408,#414,#199,.T.);
#512=EDGE_CURVE('',#414,#415,#200,.T.);
#513=EDGE_CURVE('',#415,#416,#352,.T.);
#514=EDGE_CURVE('',#417,#416,#201,.T.);
#515=EDGE_CURVE('',#417,#418,#202,.T.);
#516=EDGE_CURVE('',#418,#419,#203,.T.);
#517=EDGE_CURVE('',#409,#419,#204,.T.);
#518=EDGE_CURVE('',#382,#386,#205,.T.);
#519=EDGE_CURVE('',#420,#398,#206,.T.);
#520=EDGE_CURVE('',#421,#420,#353,.T.);
#521=EDGE_CURVE('',#421,#422,#207,.T.);
#522=EDGE_CURVE('',#422,#423,#354,.T.);
#523=EDGE_CURVE('',#424,#423,#355,.T.);
#524=EDGE_CURVE('',#414,#424,#208,.T.);
#525=EDGE_CURVE('',#380,#410,#209,.T.);
#526=EDGE_CURVE('',#407,#425,#356,.T.);
#527=EDGE_CURVE('',#425,#426,#210,.T.);
#528=EDGE_CURVE('',#426,#426,#357,.F.);
#529=EDGE_CURVE('',#425,#406,#358,.T.);
#530=EDGE_CURVE('',#419,#413,#211,.T.);
#531=EDGE_CURVE('',#427,#428,#31,.F.);
#532=EDGE_CURVE('',#428,#429,#359,.T.);
#533=EDGE_CURVE('',#430,#429,#32,.T.);
#534=EDGE_CURVE('',#430,#427,#360,.T.);
#535=EDGE_CURVE('',#427,#415,#212,.T.);
#536=EDGE_CURVE('',#416,#430,#213,.T.);
#537=EDGE_CURVE('',#431,#432,#361,.T.);
#538=EDGE_CURVE('',#429,#431,#362,.T.);
#539=EDGE_CURVE('',#432,#428,#363,.T.);
#540=EDGE_CURVE('',#428,#423,#214,.T.);
#541=EDGE_CURVE('',#424,#427,#215,.T.);
#542=EDGE_CURVE('',#431,#433,#216,.T.);
#543=EDGE_CURVE('',#433,#434,#364,.T.);
#544=EDGE_CURVE('',#435,#434,#217,.T.);
#545=EDGE_CURVE('',#435,#436,#218,.T.);
#546=EDGE_CURVE('',#436,#417,#219,.T.);
#547=EDGE_CURVE('',#437,#437,#365,.T.);
#548=EDGE_CURVE('',#437,#438,#220,.T.);
#549=EDGE_CURVE('',#438,#438,#366,.F.);
#550=EDGE_CURVE('',#439,#439,#367,.T.);
#551=EDGE_CURVE('',#440,#440,#368,.T.);
#552=EDGE_CURVE('',#439,#397,#221,.T.);
#553=EDGE_CURVE('',#440,#441,#222,.T.);
#554=EDGE_CURVE('',#441,#441,#369,.T.);
#555=EDGE_CURVE('',#442,#443,#223,.T.);
#556=EDGE_CURVE('',#443,#444,#224,.T.);
#557=EDGE_CURVE('',#445,#444,#225,.T.);
#558=EDGE_CURVE('',#445,#442,#226,.T.);
#559=EDGE_CURVE('',#446,#447,#227,.T.);
#560=EDGE_CURVE('',#447,#448,#228,.T.);
#561=EDGE_CURVE('',#449,#448,#229,.T.);
#562=EDGE_CURVE('',#446,#449,#230,.T.);
#563=EDGE_CURVE('',#443,#446,#231,.T.);
#564=EDGE_CURVE('',#444,#449,#232,.T.);
#565=EDGE_CURVE('',#448,#445,#233,.T.);
#566=EDGE_CURVE('',#450,#447,#234,.T.);
#567=EDGE_CURVE('',#391,#450,#235,.T.);
#568=EDGE_CURVE('',#384,#389,#236,.T.);
#569=EDGE_CURVE('',#451,#383,#237,.T.);
#570=EDGE_CURVE('',#412,#451,#238,.T.);
#571=EDGE_CURVE('',#452,#418,#239,.T.);
#572=EDGE_CURVE('',#453,#452,#240,.T.);
#573=EDGE_CURVE('',#442,#453,#241,.T.);
#574=EDGE_CURVE('',#454,#392,#242,.T.);
#575=EDGE_CURVE('',#450,#454,#243,.T.);
#576=EDGE_CURVE('',#455,#456,#23,.T.);
#577=EDGE_CURVE('',#457,#455,#370,.T.);
#578=EDGE_CURVE('',#457,#458,#244,.T.);
#579=EDGE_CURVE('',#458,#456,#371,.T.);
#580=EDGE_CURVE('',#456,#459,#33,.T.);
#581=EDGE_CURVE('',#458,#460,#372,.T.);
#582=EDGE_CURVE('',#460,#459,#373,.T.);
#583=EDGE_CURVE('',#459,#461,#24,.T.);
#584=EDGE_CURVE('',#460,#462,#245,.T.);
#585=EDGE_CURVE('',#462,#461,#374,.T.);
#586=EDGE_CURVE('',#461,#463,#34,.T.);
#587=EDGE_CURVE('',#462,#464,#375,.T.);
#588=EDGE_CURVE('',#463,#464,#376,.T.);
#589=EDGE_CURVE('',#463,#420,#246,.T.);
#590=EDGE_CURVE('',#464,#421,#247,.T.);
#591=EDGE_CURVE('',#401,#454,#248,.T.);
#592=EDGE_CURVE('',#453,#435,#249,.T.);
#593=EDGE_CURVE('',#452,#436,#250,.T.);
#594=EDGE_CURVE('',#434,#465,#251,.T.);
#595=EDGE_CURVE('',#465,#455,#35,.T.);
#596=EDGE_CURVE('',#422,#432,#252,.T.);
#597=EDGE_CURVE('',#411,#451,#253,.T.);
#598=EDGE_CURVE('',#466,#457,#377,.T.);
#599=EDGE_CURVE('',#433,#466,#254,.T.);
#600=EDGE_CURVE('',#466,#465,#378,.T.);
#601=ORIENTED_EDGE('',*,*,#467,.F.);
#602=ORIENTED_EDGE('',*,*,#468,.F.);
#603=ORIENTED_EDGE('',*,*,#469,.F.);
#604=ORIENTED_EDGE('',*,*,#470,.F.);
#605=ORIENTED_EDGE('',*,*,#468,.T.);
#606=ORIENTED_EDGE('',*,*,#471,.T.);
#607=ORIENTED_EDGE('',*,*,#472,.T.);
#608=ORIENTED_EDGE('',*,*,#473,.F.);
#609=ORIENTED_EDGE('',*,*,#474,.F.);
#610=ORIENTED_EDGE('',*,*,#475,.F.);
#611=ORIENTED_EDGE('',*,*,#476,.F.);
#612=ORIENTED_EDGE('',*,*,#477,.F.);
#613=ORIENTED_EDGE('',*,*,#475,.T.);
#614=ORIENTED_EDGE('',*,*,#478,.T.);
#615=ORIENTED_EDGE('',*,*,#479,.T.);
#616=ORIENTED_EDGE('',*,*,#480,.F.);
#617=ORIENTED_EDGE('',*,*,#476,.T.);
#618=ORIENTED_EDGE('',*,*,#480,.T.);
#619=ORIENTED_EDGE('',*,*,#481,.T.);
#620=ORIENTED_EDGE('',*,*,#482,.F.);
#621=ORIENTED_EDGE('',*,*,#483,.F.);
#622=ORIENTED_EDGE('',*,*,#484,.T.);
#623=ORIENTED_EDGE('',*,*,#485,.T.);
#624=ORIENTED_EDGE('',*,*,#486,.T.);
#625=ORIENTED_EDGE('',*,*,#487,.F.);
#626=ORIENTED_EDGE('',*,*,#488,.F.);
#627=ORIENTED_EDGE('',*,*,#489,.F.);
#628=ORIENTED_EDGE('',*,*,#490,.T.);
#629=ORIENTED_EDGE('',*,*,#486,.F.);
#630=ORIENTED_EDGE('',*,*,#491,.F.);
#631=ORIENTED_EDGE('',*,*,#491,.T.);
#632=ORIENTED_EDGE('',*,*,#485,.F.);
#633=ORIENTED_EDGE('',*,*,#492,.T.);
#634=ORIENTED_EDGE('',*,*,#493,.F.);
#635=ORIENTED_EDGE('',*,*,#484,.F.);
#636=ORIENTED_EDGE('',*,*,#494,.T.);
#637=ORIENTED_EDGE('',*,*,#495,.F.);
#638=ORIENTED_EDGE('',*,*,#492,.F.);
#639=ORIENTED_EDGE('',*,*,#496,.F.);
#640=ORIENTED_EDGE('',*,*,#497,.T.);
#641=ORIENTED_EDGE('',*,*,#498,.T.);
#642=ORIENTED_EDGE('',*,*,#499,.T.);
#643=ORIENTED_EDGE('',*,*,#500,.F.);
#644=ORIENTED_EDGE('',*,*,#501,.F.);
#645=ORIENTED_EDGE('',*,*,#497,.F.);
#646=ORIENTED_EDGE('',*,*,#502,.F.);
#647=ORIENTED_EDGE('',*,*,#503,.F.);
#648=ORIENTED_EDGE('',*,*,#504,.F.);
#649=ORIENTED_EDGE('',*,*,#505,.F.);
#650=ORIENTED_EDGE('',*,*,#506,.F.);
#651=ORIENTED_EDGE('',*,*,#499,.F.);
#652=ORIENTED_EDGE('',*,*,#507,.F.);
#653=ORIENTED_EDGE('',*,*,#508,.F.);
#654=ORIENTED_EDGE('',*,*,#509,.F.);
#655=ORIENTED_EDGE('',*,*,#498,.F.);
#656=ORIENTED_EDGE('',*,*,#510,.F.);
#657=ORIENTED_EDGE('',*,*,#503,.T.);
#658=ORIENTED_EDGE('',*,*,#511,.T.);
#659=ORIENTED_EDGE('',*,*,#512,.T.);
#660=ORIENTED_EDGE('',*,*,#513,.T.);
#661=ORIENTED_EDGE('',*,*,#514,.F.);
#662=ORIENTED_EDGE('',*,*,#515,.T.);
#663=ORIENTED_EDGE('',*,*,#516,.T.);
#664=ORIENTED_EDGE('',*,*,#517,.F.);
#665=ORIENTED_EDGE('',*,*,#470,.T.);
#666=ORIENTED_EDGE('',*,*,#518,.T.);
#667=ORIENTED_EDGE('',*,*,#477,.T.);
#668=ORIENTED_EDGE('',*,*,#487,.T.);
#669=ORIENTED_EDGE('',*,*,#490,.F.);
#670=ORIENTED_EDGE('',*,*,#519,.F.);
#671=ORIENTED_EDGE('',*,*,#520,.F.);
#672=ORIENTED_EDGE('',*,*,#521,.T.);
#673=ORIENTED_EDGE('',*,*,#522,.T.);
#674=ORIENTED_EDGE('',*,*,#523,.F.);
#675=ORIENTED_EDGE('',*,*,#524,.F.);
#676=ORIENTED_EDGE('',*,*,#511,.F.);
#677=ORIENTED_EDGE('',*,*,#502,.T.);
#678=ORIENTED_EDGE('',*,*,#496,.T.);
#679=ORIENTED_EDGE('',*,*,#506,.T.);
#680=ORIENTED_EDGE('',*,*,#525,.F.);
#681=ORIENTED_EDGE('',*,*,#500,.T.);
#682=ORIENTED_EDGE('',*,*,#526,.T.);
#683=ORIENTED_EDGE('',*,*,#527,.T.);
#684=ORIENTED_EDGE('',*,*,#528,.T.);
#685=ORIENTED_EDGE('',*,*,#527,.F.);
#686=ORIENTED_EDGE('',*,*,#529,.T.);
#687=ORIENTED_EDGE('',*,*,#504,.T.);
#688=ORIENTED_EDGE('',*,*,#517,.T.);
#689=ORIENTED_EDGE('',*,*,#530,.T.);
#690=ORIENTED_EDGE('',*,*,#510,.T.);
#691=ORIENTED_EDGE('',*,*,#501,.T.);
#692=ORIENTED_EDGE('',*,*,#529,.F.);
#693=ORIENTED_EDGE('',*,*,#526,.F.);
#694=ORIENTED_EDGE('',*,*,#531,.T.);
#695=ORIENTED_EDGE('',*,*,#532,.T.);
#696=ORIENTED_EDGE('',*,*,#533,.F.);
#697=ORIENTED_EDGE('',*,*,#534,.T.);
#698=ORIENTED_EDGE('',*,*,#513,.F.);
#699=ORIENTED_EDGE('',*,*,#535,.F.);
#700=ORIENTED_EDGE('',*,*,#534,.F.);
#701=ORIENTED_EDGE('',*,*,#536,.F.);
#702=ORIENTED_EDGE('',*,*,#537,.F.);
#703=ORIENTED_EDGE('',*,*,#538,.F.);
#704=ORIENTED_EDGE('',*,*,#532,.F.);
#705=ORIENTED_EDGE('',*,*,#539,.F.);
#706=ORIENTED_EDGE('',*,*,#523,.T.);
#707=ORIENTED_EDGE('',*,*,#540,.F.);
#708=ORIENTED_EDGE('',*,*,#531,.F.);
#709=ORIENTED_EDGE('',*,*,#541,.F.);
#710=ORIENTED_EDGE('',*,*,#538,.T.);
#711=ORIENTED_EDGE('',*,*,#542,.T.);
#712=ORIENTED_EDGE('',*,*,#543,.T.);
#713=ORIENTED_EDGE('',*,*,#544,.F.);
#714=ORIENTED_EDGE('',*,*,#545,.T.);
#715=ORIENTED_EDGE('',*,*,#546,.T.);
#716=ORIENTED_EDGE('',*,*,#514,.T.);
#717=ORIENTED_EDGE('',*,*,#536,.T.);
#718=ORIENTED_EDGE('',*,*,#533,.T.);
#719=ORIENTED_EDGE('',*,*,#535,.T.);
#720=ORIENTED_EDGE('',*,*,#512,.F.);
#721=ORIENTED_EDGE('',*,*,#524,.T.);
#722=ORIENTED_EDGE('',*,*,#541,.T.);
#723=ORIENTED_EDGE('',*,*,#547,.T.);
#724=ORIENTED_EDGE('',*,*,#548,.T.);
#725=ORIENTED_EDGE('',*,*,#549,.T.);
#726=ORIENTED_EDGE('',*,*,#548,.F.);
#727=ORIENTED_EDGE('',*,*,#549,.F.);
#728=ORIENTED_EDGE('',*,*,#550,.T.);
#729=ORIENTED_EDGE('',*,*,#528,.F.);
#730=ORIENTED_EDGE('',*,*,#551,.T.);
#731=ORIENTED_EDGE('',*,*,#550,.F.);
#732=ORIENTED_EDGE('',*,*,#552,.T.);
#733=ORIENTED_EDGE('',*,*,#488,.T.);
#734=ORIENTED_EDGE('',*,*,#552,.F.);
#735=ORIENTED_EDGE('',*,*,#551,.F.);
#736=ORIENTED_EDGE('',*,*,#553,.T.);
#737=ORIENTED_EDGE('',*,*,#554,.T.);
#738=ORIENTED_EDGE('',*,*,#553,.F.);
#739=ORIENTED_EDGE('',*,*,#555,.T.);
#740=ORIENTED_EDGE('',*,*,#556,.T.);
#741=ORIENTED_EDGE('',*,*,#557,.F.);
#742=ORIENTED_EDGE('',*,*,#558,.T.);
#743=ORIENTED_EDGE('',*,*,#559,.T.);
#744=ORIENTED_EDGE('',*,*,#560,.T.);
#745=ORIENTED_EDGE('',*,*,#561,.F.);
#746=ORIENTED_EDGE('',*,*,#562,.F.);
#747=ORIENTED_EDGE('',*,*,#563,.T.);
#748=ORIENTED_EDGE('',*,*,#562,.T.);
#749=ORIENTED_EDGE('',*,*,#564,.F.);
#750=ORIENTED_EDGE('',*,*,#556,.F.);
#751=ORIENTED_EDGE('',*,*,#564,.T.);
#752=ORIENTED_EDGE('',*,*,#561,.T.);
#753=ORIENTED_EDGE('',*,*,#565,.T.);
#754=ORIENTED_EDGE('',*,*,#557,.T.);
#755=ORIENTED_EDGE('',*,*,#560,.F.);
#756=ORIENTED_EDGE('',*,*,#566,.F.);
#757=ORIENTED_EDGE('',*,*,#567,.F.);
#758=ORIENTED_EDGE('',*,*,#481,.F.);
#759=ORIENTED_EDGE('',*,*,#479,.F.);
#760=ORIENTED_EDGE('',*,*,#568,.F.);
#761=ORIENTED_EDGE('',*,*,#472,.F.);
#762=ORIENTED_EDGE('',*,*,#569,.F.);
#763=ORIENTED_EDGE('',*,*,#570,.F.);
#764=ORIENTED_EDGE('',*,*,#508,.T.);
#765=ORIENTED_EDGE('',*,*,#530,.F.);
#766=ORIENTED_EDGE('',*,*,#516,.F.);
#767=ORIENTED_EDGE('',*,*,#571,.F.);
#768=ORIENTED_EDGE('',*,*,#572,.F.);
#769=ORIENTED_EDGE('',*,*,#573,.F.);
#770=ORIENTED_EDGE('',*,*,#558,.F.);
#771=ORIENTED_EDGE('',*,*,#565,.F.);
#772=ORIENTED_EDGE('',*,*,#574,.T.);
#773=ORIENTED_EDGE('',*,*,#482,.T.);
#774=ORIENTED_EDGE('',*,*,#567,.T.);
#775=ORIENTED_EDGE('',*,*,#575,.T.);
#776=ORIENTED_EDGE('',*,*,#576,.F.);
#777=ORIENTED_EDGE('',*,*,#577,.F.);
#778=ORIENTED_EDGE('',*,*,#578,.T.);
#779=ORIENTED_EDGE('',*,*,#579,.T.);
#780=ORIENTED_EDGE('',*,*,#580,.F.);
#781=ORIENTED_EDGE('',*,*,#579,.F.);
#782=ORIENTED_EDGE('',*,*,#581,.T.);
#783=ORIENTED_EDGE('',*,*,#582,.T.);
#784=ORIENTED_EDGE('',*,*,#583,.F.);
#785=ORIENTED_EDGE('',*,*,#582,.F.);
#786=ORIENTED_EDGE('',*,*,#584,.T.);
#787=ORIENTED_EDGE('',*,*,#585,.T.);
#788=ORIENTED_EDGE('',*,*,#586,.F.);
#789=ORIENTED_EDGE('',*,*,#585,.F.);
#790=ORIENTED_EDGE('',*,*,#587,.T.);
#791=ORIENTED_EDGE('',*,*,#588,.F.);
#792=ORIENTED_EDGE('',*,*,#589,.F.);
#793=ORIENTED_EDGE('',*,*,#588,.T.);
#794=ORIENTED_EDGE('',*,*,#590,.T.);
#795=ORIENTED_EDGE('',*,*,#520,.T.);
#796=ORIENTED_EDGE('',*,*,#591,.F.);
#797=ORIENTED_EDGE('',*,*,#494,.F.);
#798=ORIENTED_EDGE('',*,*,#483,.T.);
#799=ORIENTED_EDGE('',*,*,#574,.F.);
#800=ORIENTED_EDGE('',*,*,#592,.F.);
#801=ORIENTED_EDGE('',*,*,#572,.T.);
#802=ORIENTED_EDGE('',*,*,#593,.T.);
#803=ORIENTED_EDGE('',*,*,#545,.F.);
#804=ORIENTED_EDGE('',*,*,#489,.T.);
#805=ORIENTED_EDGE('',*,*,#493,.T.);
#806=ORIENTED_EDGE('',*,*,#495,.T.);
#807=ORIENTED_EDGE('',*,*,#591,.T.);
#808=ORIENTED_EDGE('',*,*,#575,.F.);
#809=ORIENTED_EDGE('',*,*,#566,.T.);
#810=ORIENTED_EDGE('',*,*,#559,.F.);
#811=ORIENTED_EDGE('',*,*,#563,.F.);
#812=ORIENTED_EDGE('',*,*,#555,.F.);
#813=ORIENTED_EDGE('',*,*,#573,.T.);
#814=ORIENTED_EDGE('',*,*,#592,.T.);
#815=ORIENTED_EDGE('',*,*,#544,.T.);
#816=ORIENTED_EDGE('',*,*,#594,.T.);
#817=ORIENTED_EDGE('',*,*,#595,.T.);
#818=ORIENTED_EDGE('',*,*,#576,.T.);
#819=ORIENTED_EDGE('',*,*,#580,.T.);
#820=ORIENTED_EDGE('',*,*,#583,.T.);
#821=ORIENTED_EDGE('',*,*,#586,.T.);
#822=ORIENTED_EDGE('',*,*,#589,.T.);
#823=ORIENTED_EDGE('',*,*,#519,.T.);
#824=ORIENTED_EDGE('',*,*,#593,.F.);
#825=ORIENTED_EDGE('',*,*,#571,.T.);
#826=ORIENTED_EDGE('',*,*,#515,.F.);
#827=ORIENTED_EDGE('',*,*,#546,.F.);
#828=ORIENTED_EDGE('',*,*,#554,.F.);
#829=ORIENTED_EDGE('',*,*,#539,.T.);
#830=ORIENTED_EDGE('',*,*,#540,.T.);
#831=ORIENTED_EDGE('',*,*,#522,.F.);
#832=ORIENTED_EDGE('',*,*,#596,.T.);
#833=ORIENTED_EDGE('',*,*,#474,.T.);
#834=ORIENTED_EDGE('',*,*,#518,.F.);
#835=ORIENTED_EDGE('',*,*,#469,.T.);
#836=ORIENTED_EDGE('',*,*,#473,.T.);
#837=ORIENTED_EDGE('',*,*,#568,.T.);
#838=ORIENTED_EDGE('',*,*,#478,.F.);
#839=ORIENTED_EDGE('',*,*,#547,.F.);
#840=ORIENTED_EDGE('',*,*,#467,.T.);
#841=ORIENTED_EDGE('',*,*,#525,.T.);
#842=ORIENTED_EDGE('',*,*,#505,.T.);
#843=ORIENTED_EDGE('',*,*,#597,.T.);
#844=ORIENTED_EDGE('',*,*,#569,.T.);
#845=ORIENTED_EDGE('',*,*,#471,.F.);
#846=ORIENTED_EDGE('',*,*,#507,.T.);
#847=ORIENTED_EDGE('',*,*,#509,.T.);
#848=ORIENTED_EDGE('',*,*,#570,.T.);
#849=ORIENTED_EDGE('',*,*,#597,.F.);
#850=ORIENTED_EDGE('',*,*,#537,.T.);
#851=ORIENTED_EDGE('',*,*,#596,.F.);
#852=ORIENTED_EDGE('',*,*,#521,.F.);
#853=ORIENTED_EDGE('',*,*,#590,.F.);
#854=ORIENTED_EDGE('',*,*,#587,.F.);
#855=ORIENTED_EDGE('',*,*,#584,.F.);
#856=ORIENTED_EDGE('',*,*,#581,.F.);
#857=ORIENTED_EDGE('',*,*,#578,.F.);
#858=ORIENTED_EDGE('',*,*,#598,.F.);
#859=ORIENTED_EDGE('',*,*,#599,.F.);
#860=ORIENTED_EDGE('',*,*,#542,.F.);
#861=ORIENTED_EDGE('',*,*,#594,.F.);
#862=ORIENTED_EDGE('',*,*,#543,.F.);
#863=ORIENTED_EDGE('',*,*,#599,.T.);
#864=ORIENTED_EDGE('',*,*,#600,.T.);
#865=ORIENTED_EDGE('',*,*,#595,.F.);
#866=ORIENTED_EDGE('',*,*,#600,.F.);
#867=ORIENTED_EDGE('',*,*,#598,.T.);
#868=ORIENTED_EDGE('',*,*,#577,.T.);
#869=CYLINDRICAL_SURFACE('',#947,2.);
#870=CYLINDRICAL_SURFACE('',#951,2.);
#871=CYLINDRICAL_SURFACE('',#971,2.);
#872=CYLINDRICAL_SURFACE('',#973,2.);
#873=CYLINDRICAL_SURFACE('',#975,5.);
#874=CYLINDRICAL_SURFACE('',#983,2.);
#875=CYLINDRICAL_SURFACE('',#990,1.5);
#876=CYLINDRICAL_SURFACE('',#995,6.);
#877=CYLINDRICAL_SURFACE('',#999,2.);
#878=CYLINDRICAL_SURFACE('',#1006,1.05);
#879=CYLINDRICAL_SURFACE('',#1007,1.05);
#880=CYLINDRICAL_SURFACE('',#1026,14.8500000000004);
#881=CYLINDRICAL_SURFACE('',#1031,18.3500000000004);
#882=CYLINDRICAL_SURFACE('',#1037,14.8500000000004);
#883=ADVANCED_FACE('',(#73),#869,.T.);
#884=ADVANCED_FACE('',(#74),#48,.F.);
#885=ADVANCED_FACE('',(#75),#870,.T.);
#886=ADVANCED_FACE('',(#76),#49,.F.);
#887=ADVANCED_FACE('',(#77,#43),#50,.F.);
#888=ADVANCED_FACE('',(#78),#36,.T.);
#889=ADVANCED_FACE('',(#79),#51,.T.);
#890=ADVANCED_FACE('',(#80),#37,.T.);
#891=ADVANCED_FACE('',(#81),#38,.T.);
#892=ADVANCED_FACE('',(#82),#871,.T.);
#893=ADVANCED_FACE('',(#83),#872,.T.);
#894=ADVANCED_FACE('',(#84),#873,.F.);
#895=ADVANCED_FACE('',(#85),#52,.F.);
#896=ADVANCED_FACE('',(#86),#53,.T.);
#897=ADVANCED_FACE('',(#87),#874,.F.);
#898=ADVANCED_FACE('',(#88),#54,.F.);
#899=ADVANCED_FACE('',(#89),#27,.F.);
#900=ADVANCED_FACE('',(#90),#875,.T.);
#901=ADVANCED_FACE('',(#91),#39,.T.);
#902=ADVANCED_FACE('',(#92),#876,.F.);
#903=ADVANCED_FACE('',(#93),#55,.F.);
#904=ADVANCED_FACE('',(#94),#56,.F.);
#905=ADVANCED_FACE('',(#95),#877,.F.);
#906=ADVANCED_FACE('',(#96,#44),#57,.T.);
#907=ADVANCED_FACE('',(#97,#45),#58,.T.);
#908=ADVANCED_FACE('',(#98),#878,.F.);
#909=ADVANCED_FACE('',(#99),#879,.F.);
#910=ADVANCED_FACE('',(#100),#59,.T.);
#911=ADVANCED_FACE('',(#101),#60,.T.);
#912=ADVANCED_FACE('',(#102),#61,.T.);
#913=ADVANCED_FACE('',(#103),#62,.T.);
#914=ADVANCED_FACE('',(#104),#63,.F.);
#915=ADVANCED_FACE('',(#105),#64,.T.);
#916=ADVANCED_FACE('',(#106),#25,.F.);
#917=ADVANCED_FACE('',(#107),#40,.F.);
#918=ADVANCED_FACE('',(#108),#26,.F.);
#919=ADVANCED_FACE('',(#109),#41,.T.);
#920=ADVANCED_FACE('',(#110),#880,.F.);
#921=ADVANCED_FACE('',(#111),#65,.T.);
#922=ADVANCED_FACE('',(#112),#66,.F.);
#923=ADVANCED_FACE('',(#113),#67,.F.);
#924=ADVANCED_FACE('',(#114,#46),#68,.F.);
#925=ADVANCED_FACE('',(#115),#881,.T.);
#926=ADVANCED_FACE('',(#116,#47),#69,.F.);
#927=ADVANCED_FACE('',(#117),#70,.F.);
#928=ADVANCED_FACE('',(#118),#71,.F.);
#929=ADVANCED_FACE('',(#119),#72,.T.);
#930=ADVANCED_FACE('',(#120),#882,.F.);
#931=ADVANCED_FACE('',(#121),#42,.T.);
#932=CLOSED_SHELL('',(#883,#884,#885,#886,#887,#888,#889,#890,#891,#892,
#893,#894,#895,#896,#897,#898,#899,#900,#901,#902,#903,#904,#905,#906,#907,
#908,#909,#910,#911,#912,#913,#914,#915,#916,#917,#918,#919,#920,#921,#922,
#923,#924,#925,#926,#927,#928,#929,#930,#931));
#933=DERIVED_UNIT_ELEMENT(#935,1.);
#934=DERIVED_UNIT_ELEMENT(#1707,-3.);
#935=(
MASS_UNIT()
NAMED_UNIT(*)
SI_UNIT(.KILO.,.GRAM.)
);
#936=DERIVED_UNIT((#933,#934));
#937=MEASURE_REPRESENTATION_ITEM('density measure',
POSITIVE_RATIO_MEASURE(7850.),#936);
#938=PROPERTY_DEFINITION_REPRESENTATION(#943,#940);
#939=PROPERTY_DEFINITION_REPRESENTATION(#944,#941);
#940=REPRESENTATION('material name',(#942),#1704);
#941=REPRESENTATION('density',(#937),#1704);
#942=DESCRIPTIVE_REPRESENTATION_ITEM('Steel','Steel');
#943=PROPERTY_DEFINITION('material property','material name',#1719);
#944=PROPERTY_DEFINITION('material property','density of part',#1719);
#945=AXIS2_PLACEMENT_3D('',#1315,#1042,#1043);
#946=AXIS2_PLACEMENT_3D('',#1316,#1044,#1045);
#947=AXIS2_PLACEMENT_3D('',#1317,#1046,#1047);
#948=AXIS2_PLACEMENT_3D('',#1320,#1048,#1049);
#949=AXIS2_PLACEMENT_3D('',#1324,#1051,#1052);
#950=AXIS2_PLACEMENT_3D('',#1326,#1054,#1055);
#951=AXIS2_PLACEMENT_3D('',#1332,#1059,#1060);
#952=AXIS2_PLACEMENT_3D('',#1335,#1061,#1062);
#953=AXIS2_PLACEMENT_3D('',#1339,#1064,#1065);
#954=AXIS2_PLACEMENT_3D('',#1341,#1067,#1068);
#955=AXIS2_PLACEMENT_3D('',#1347,#1072,#1073);
#956=AXIS2_PLACEMENT_3D('',#1355,#1077,#1078);
#957=AXIS2_PLACEMENT_3D('',#1359,#1080,#1081);
#958=AXIS2_PLACEMENT_3D('',#1362,#1083,#1084);
#959=AXIS2_PLACEMENT_3D('',#1363,#1085,#1086);
#960=AXIS2_PLACEMENT_3D('',#1376,#1087,#1088);
#961=AXIS2_PLACEMENT_3D('',#1377,#1089,#1090);
#962=AXIS2_PLACEMENT_3D('',#1378,#1091,#1092);
#963=AXIS2_PLACEMENT_3D('',#1380,#1093,#1094);
#964=AXIS2_PLACEMENT_3D('',#1382,#1096,#1097);
#965=AXIS2_PLACEMENT_3D('',#1384,#1098,#1099);
#966=AXIS2_PLACEMENT_3D('',#1395,#1100,#1101);
#967=AXIS2_PLACEMENT_3D('',#1398,#1102,#1103);
#968=AXIS2_PLACEMENT_3D('',#1400,#1104,#1105);
#969=AXIS2_PLACEMENT_3D('',#1402,#1106,#1107);
#970=AXIS2_PLACEMENT_3D('',#1403,#1108,#1109);
#971=AXIS2_PLACEMENT_3D('',#1404,#1110,#1111);
#972=AXIS2_PLACEMENT_3D('',#1421,#1114,#1115);
#973=AXIS2_PLACEMENT_3D('',#1423,#1117,#1118);
#974=AXIS2_PLACEMENT_3D('',#1426,#1119,#1120);
#975=AXIS2_PLACEMENT_3D('',#1429,#1123,#1124);
#976=AXIS2_PLACEMENT_3D('',#1432,#1125,#1126);
#977=AXIS2_PLACEMENT_3D('',#1435,#1129,#1130);
#978=AXIS2_PLACEMENT_3D('',#1441,#1133,#1134);
#979=AXIS2_PLACEMENT_3D('',#1449,#1139,#1140);
#980=AXIS2_PLACEMENT_3D('',#1454,#1143,#1144);
#981=AXIS2_PLACEMENT_3D('',#1458,#1146,#1147);
#982=AXIS2_PLACEMENT_3D('',#1460,#1148,#1149);
#983=AXIS2_PLACEMENT_3D('',#1463,#1152,#1153);
#984=AXIS2_PLACEMENT_3D('',#1465,#1154,#1155);
#985=AXIS2_PLACEMENT_3D('',#1468,#1157,#1158);
#986=AXIS2_PLACEMENT_3D('',#1469,#1159,#1160);
#987=AXIS2_PLACEMENT_3D('',#1470,#1161,#1162);
#988=AXIS2_PLACEMENT_3D('',#1523,#1164,#1165);
#989=AXIS2_PLACEMENT_3D('',#1531,#1166,#1167);
#990=AXIS2_PLACEMENT_3D('',#1532,#1168,#1169);
#991=AXIS2_PLACEMENT_3D('',#1535,#1172,#1173);
#992=AXIS2_PLACEMENT_3D('',#1538,#1174,#1175);
#993=AXIS2_PLACEMENT_3D('',#1539,#1176,#1177);
#994=AXIS2_PLACEMENT_3D('',#1540,#1178,#1179);
#995=AXIS2_PLACEMENT_3D('',#1541,#1180,#1181);
#996=AXIS2_PLACEMENT_3D('',#1544,#1184,#1185);
#997=AXIS2_PLACEMENT_3D('',#1548,#1187,#1188);
#998=AXIS2_PLACEMENT_3D('',#1554,#1192,#1193);
#999=AXIS2_PLACEMENT_3D('',#1555,#1194,#1195);
#1000=AXIS2_PLACEMENT_3D('',#1557,#1196,#1197);
#1001=AXIS2_PLACEMENT_3D('',#1560,#1199,#1200);
#1002=AXIS2_PLACEMENT_3D('',#1561,#1201,#1202);
#1003=AXIS2_PLACEMENT_3D('',#1563,#1203,#1204);
#1004=AXIS2_PLACEMENT_3D('',#1564,#1205,#1206);
#1005=AXIS2_PLACEMENT_3D('',#1566,#1207,#1208);
#1006=AXIS2_PLACEMENT_3D('',#1567,#1209,#1210);
#1007=AXIS2_PLACEMENT_3D('',#1569,#1212,#1213);
#1008=AXIS2_PLACEMENT_3D('',#1572,#1215,#1216);
#1009=AXIS2_PLACEMENT_3D('',#1573,#1217,#1218);
#1010=AXIS2_PLACEMENT_3D('',#1582,#1223,#1224);
#1011=AXIS2_PLACEMENT_3D('',#1591,#1229,#1230);
#1012=AXIS2_PLACEMENT_3D('',#1594,#1233,#1234);
#1013=AXIS2_PLACEMENT_3D('',#1596,#1236,#1237);
#1014=AXIS2_PLACEMENT_3D('',#1609,#1246,#1247);
#1015=AXIS2_PLACEMENT_3D('',#1613,#1250,#1251);
#1016=AXIS2_PLACEMENT_3D('',#1620,#1252,#1253);
#1017=AXIS2_PLACEMENT_3D('',#1623,#1255,#1256);
#1018=AXIS2_PLACEMENT_3D('',#1624,#1257,#1258);
#1019=AXIS2_PLACEMENT_3D('',#1642,#1259,#1260);
#1020=AXIS2_PLACEMENT_3D('',#1643,#1261,#1262);
#1021=AXIS2_PLACEMENT_3D('',#1644,#1263,#1264);
#1022=AXIS2_PLACEMENT_3D('',#1651,#1266,#1267);
#1023=AXIS2_PLACEMENT_3D('',#1652,#1268,#1269);
#1024=AXIS2_PLACEMENT_3D('',#1663,#1270,#1271);
#1025=AXIS2_PLACEMENT_3D('',#1664,#1272,#1273);
#1026=AXIS2_PLACEMENT_3D('',#1665,#1274,#1275);
#1027=AXIS2_PLACEMENT_3D('',#1668,#1278,#1279);
#1028=AXIS2_PLACEMENT_3D('',#1670,#1281,#1282);
#1029=AXIS2_PLACEMENT_3D('',#1673,#1285,#1286);
#1030=AXIS2_PLACEMENT_3D('',#1684,#1288,#1289);
#1031=AXIS2_PLACEMENT_3D('',#1685,#1290,#1291);
#1032=AXIS2_PLACEMENT_3D('',#1687,#1293,#1294);
#1033=AXIS2_PLACEMENT_3D('',#1688,#1295,#1296);
#1034=AXIS2_PLACEMENT_3D('',#1690,#1298,#1299);
#1035=AXIS2_PLACEMENT_3D('',#1691,#1300,#1301);
#1036=AXIS2_PLACEMENT_3D('',#1693,#1302,#1303);
#1037=AXIS2_PLACEMENT_3D('',#1695,#1305,#1306);
#1038=AXIS2_PLACEMENT_3D('',#1696,#1307,#1308);
#1039=AXIS2_PLACEMENT_3D('',#1697,#1309,#1310);
#1040=AXIS2_PLACEMENT_3D('',#1698,#1311,#1312);
#1041=AXIS2_PLACEMENT_3D('',#1699,#1313,#1314);
#1042=DIRECTION('axis',(0.,0.,1.));
#1043=DIRECTION('refdir',(1.,0.,0.));
#1044=DIRECTION('axis',(0.,0.,1.));
#1045=DIRECTION('refdir',(1.,0.,0.));
#1046=DIRECTION('center_axis',(-7.66148777848608E-13,1.,9.34804229523695E-16));
#1047=DIRECTION('ref_axis',(0.707106781186549,5.43251990704587E-13,-0.707106781186546));
#1048=DIRECTION('center_axis',(-3.25423598349234E-13,1.,9.34804229523682E-16));
#1049=DIRECTION('ref_axis',(0.707106781186549,5.43251990704587E-13,-0.707106781186546));
#1050=DIRECTION('',(-7.66148777848608E-13,1.,9.34804229523695E-16));
#1051=DIRECTION('center_axis',(1.70058411798417E-12,1.,9.34804229523682E-16));
#1052=DIRECTION('ref_axis',(0.707106781186549,5.43251990704587E-13,-0.707106781186546));
#1053=DIRECTION('',(7.66148777848608E-13,-1.,-9.34804229523695E-16));
#1054=DIRECTION('center_axis',(-1.,-7.66148777848608E-13,-7.16199117977279E-28));
#1055=DIRECTION('ref_axis',(7.66148777848608E-13,-1.,-9.34804229523695E-16));
#1056=DIRECTION('',(0.,-9.34804229523682E-16,1.));
#1057=DIRECTION('',(7.66148777848608E-13,-1.,-9.34804229523695E-16));
#1058=DIRECTION('',(0.,-9.34804229523682E-16,1.));
#1059=DIRECTION('center_axis',(-2.16620702856811E-12,-1.,-9.34804229523695E-16));
#1060=DIRECTION('ref_axis',(0.707106781186548,-1.53084014721668E-12,-0.707106781186547));
#1061=DIRECTION('center_axis',(1.70058411798417E-12,1.,9.34804229523682E-16));
#1062=DIRECTION('ref_axis',(0.707106781186548,-1.53084014721668E-12,-0.707106781186547));
#1063=DIRECTION('',(2.16620702856811E-12,1.,9.34804229523695E-16));
#1064=DIRECTION('center_axis',(1.22464679914735E-16,-1.,-9.6257454599788E-16));
#1065=DIRECTION('ref_axis',(0.707106781186548,-1.53084014721668E-12,-0.707106781186547));
#1066=DIRECTION('',(-2.16620702856811E-12,-1.,-9.34804229523695E-16));
#1067=DIRECTION('center_axis',(-1.,2.16620702856811E-12,2.02497949232939E-27));
#1068=DIRECTION('ref_axis',(-2.16620702856811E-12,-1.,-9.34804229523695E-16));
#1069=DIRECTION('',(0.,-9.34804229523682E-16,1.));
#1070=DIRECTION('',(-2.16620702856811E-12,-1.,-9.34804229523695E-16));
#1071=DIRECTION('',(0.,-9.34804229523682E-16,1.));
#1072=DIRECTION('center_axis',(-1.22464679914735E-16,1.,9.6257454599788E-16));
#1073=DIRECTION('ref_axis',(1.,1.22464679914734E-16,9.62662528610821E-16));
#1074=DIRECTION('',(-1.,6.96133334773817E-16,7.81875530808768E-31));
#1075=DIRECTION('',(2.5050386359998E-31,-9.6257454599788E-16,1.));
#1076=DIRECTION('',(-1.,6.96133334773817E-16,7.81875530808768E-31));
#1077=DIRECTION('center_axis',(1.22464679914735E-16,-1.,-9.6257454599788E-16));
#1078=DIRECTION('ref_axis',(1.,1.22464679914735E-16,-1.66466443982092E-32));
#1079=DIRECTION('',(1.,-2.19695756670852E-13,-2.05503649689471E-28));
#1080=DIRECTION('center_axis',(1.22464679914735E-16,-1.,-9.6257454599788E-16));
#1081=DIRECTION('ref_axis',(1.,1.22464679914735E-16,-1.66466443982092E-32));
#1082=DIRECTION('',(-1.,6.96133334773817E-16,7.81875530808768E-31));
#1083=DIRECTION('center_axis',(1.22464679914735E-16,-1.,-9.6257454599788E-16));
#1084=DIRECTION('ref_axis',(-1.,-3.25444637568839E-13,-5.84975586972965E-33));
#1085=DIRECTION('center_axis',(-1.31127145149769E-31,9.34804229523695E-16,
-1.));
#1086=DIRECTION('ref_axis',(1.,0.,0.));
#1087=DIRECTION('center_axis',(-1.31127145149769E-31,9.34804229523695E-16,
-1.));
#1088=DIRECTION('ref_axis',(-0.841610868298466,0.540084388185681,5.0487317037566E-16));
#1089=DIRECTION('center_axis',(-1.31127145149769E-31,9.34804229523695E-16,
-1.));
#1090=DIRECTION('ref_axis',(0.281415290719597,0.959586074382702,8.97025120924989E-16));
#1091=DIRECTION('center_axis',(-1.31127145149769E-31,9.34804229523695E-16,
-1.));
#1092=DIRECTION('ref_axis',(1.,0.,-1.31127145149769E-31));
#1093=DIRECTION('center_axis',(1.31127145149769E-31,-9.34804229523695E-16,
1.));
#1094=DIRECTION('ref_axis',(0.327187292917588,0.944959509901488,8.83352146584549E-16));
#1095=DIRECTION('',(1.,-3.51173548990876E-14,-3.29589790345015E-29));
#1096=DIRECTION('center_axis',(1.31127145149769E-31,-9.34804229523695E-16,
1.));
#1097=DIRECTION('ref_axis',(-1.,0.,0.));
#1098=DIRECTION('center_axis',(1.31127145149769E-31,-9.34804229523695E-16,
1.));
#1099=DIRECTION('ref_axis',(-0.785896950706577,0.618357487922726,5.78043195067775E-16));
#1100=DIRECTION('center_axis',(0.,0.,1.));
#1101=DIRECTION('ref_axis',(-1.,0.,0.));
#1102=DIRECTION('center_axis',(1.31127145149769E-31,-9.34804229523695E-16,
1.));
#1103=DIRECTION('ref_axis',(0.707106781186407,-0.707106781186688,0.));
#1104=DIRECTION('center_axis',(1.,-1.66533453693773E-13,0.));
#1105=DIRECTION('ref_axis',(0.,0.,-1.));
#1106=DIRECTION('center_axis',(4.07052227094042E-28,1.77635683940025E-15,
-1.));
#1107=DIRECTION('ref_axis',(-1.66089364483923E-13,-1.,-1.77635683940025E-15));
#1108=DIRECTION('center_axis',(-2.28705943072782E-13,-1.,0.));
#1109=DIRECTION('ref_axis',(-1.,2.28705943072782E-13,0.));
#1110=DIRECTION('center_axis',(1.,-1.66533453693754E-13,-1.55807304015259E-28));
#1111=DIRECTION('ref_axis',(1.17756934401283E-13,0.707106781186549,-0.707106781186546));
#1112=DIRECTION('',(-1.,1.66533453693754E-13,1.55807304015259E-28));
#1113=DIRECTION('',(1.,-1.66533453693754E-13,-1.55807304015259E-28));
#1114=DIRECTION('center_axis',(-1.,-2.74086309204501E-14,-2.56217041098903E-29));
#1115=DIRECTION('ref_axis',(1.17756934401283E-13,0.707106781186549,-0.707106781186546));
#1116=DIRECTION('',(-1.,1.66533453693754E-13,1.55807304015259E-28));
#1117=DIRECTION('center_axis',(2.29446091755893E-13,1.,9.34804229523695E-16));
#1118=DIRECTION('ref_axis',(-0.707106781186545,1.60149430785745E-13,-0.70710678118655));
#1119=DIRECTION('center_axis',(-3.25423598349234E-13,1.,9.34804229523682E-16));
#1120=DIRECTION('ref_axis',(-0.707106781186545,1.60149430785745E-13,-0.70710678118655));
#1121=DIRECTION('',(2.29446091755893E-13,1.,9.34804229523695E-16));
#1122=DIRECTION('',(-2.29446091755893E-13,-1.,-9.34804229523695E-16));
#1123=DIRECTION('center_axis',(0.,9.34804229523682E-16,-1.));
#1124=DIRECTION('ref_axis',(0.707106781186407,-0.707106781186688,0.));
#1125=DIRECTION('center_axis',(0.,9.34804229523682E-16,-1.));
#1126=DIRECTION('ref_axis',(0.707106781186407,-0.707106781186688,0.));
#1127=DIRECTION('',(0.,-9.34804229523682E-16,1.));
#1128=DIRECTION('',(0.,9.34804229523682E-16,-1.));
#1129=DIRECTION('center_axis',(1.,2.74086309204501E-14,2.56217041098903E-29));
#1130=DIRECTION('ref_axis',(-2.74086309204501E-14,1.,9.34804229523695E-16));
#1131=DIRECTION('',(2.74086309204501E-14,-1.,-9.34804229523695E-16));
#1132=DIRECTION('',(0.,9.65627909395482E-16,-1.));
#1133=DIRECTION('center_axis',(-1.,-2.74086309204501E-14,-2.56217041098903E-29));
#1134=DIRECTION('ref_axis',(-1.57009245868377E-14,0.707106781186546,-0.707106781186549));
#1135=DIRECTION('',(-2.74086309204501E-14,1.,9.34804229523695E-16));
#1136=DIRECTION('',(0.,-9.34804229523682E-16,1.));
#1137=DIRECTION('',(-2.74086309204501E-14,1.,9.34804229523695E-16));
#1138=DIRECTION('',(0.,-9.34804229523682E-16,1.));
#1139=DIRECTION('center_axis',(-1.31127145149769E-31,9.34804229523695E-16,
-1.));
#1140=DIRECTION('ref_axis',(1.,0.,-1.31127145149769E-31));
#1141=DIRECTION('',(1.,-1.70058411798417E-12,-1.58984435329757E-27));
#1142=DIRECTION('',(1.,-3.51173548990876E-14,-3.29589790345015E-29));
#1143=DIRECTION('center_axis',(-5.98099945925992E-16,-5.98099945925992E-16,
1.));
#1144=DIRECTION('ref_axis',(-3.73812466203745E-17,1.,5.98099945925992E-16));
#1145=DIRECTION('',(0.5,0.866025403784439,-3.70308961842895E-16));
#1146=DIRECTION('center_axis',(-4.84020937166269E-16,-4.84020937166269E-16,
1.));
#1147=DIRECTION('ref_axis',(-6.05026171457836E-17,1.,4.84020937166269E-16));
#1148=DIRECTION('center_axis',(1.31127145149769E-31,-9.34804229523695E-16,
1.));
#1149=DIRECTION('ref_axis',(0.463226786187371,-0.886239778253335,0.));
#1150=DIRECTION('',(1.,2.20375096617335E-14,2.0469630094808E-29));
#1151=DIRECTION('',(-1.,-3.25423598349234E-13,-3.04076228978534E-28));
#1152=DIRECTION('center_axis',(-3.25400867006367E-13,1.,9.01887103676184E-16));
#1153=DIRECTION('ref_axis',(-1.,-3.25400867006367E-13,3.32034187721519E-32));
#1154=DIRECTION('center_axis',(1.66533453693754E-13,1.,9.34804229523682E-16));
#1155=DIRECTION('ref_axis',(-1.,-3.25400867006367E-13,3.32034187721519E-32));
#1156=DIRECTION('',(3.25400867006367E-13,-1.,-9.01887103676184E-16));
#1157=DIRECTION('center_axis',(-1.22464679914735E-16,1.,9.6257454599788E-16));
#1158=DIRECTION('ref_axis',(-1.,-3.25400867006367E-13,3.32034187721519E-32));
#1159=DIRECTION('center_axis',(1.66533453693754E-13,1.,9.34804229523682E-16));
#1160=DIRECTION('ref_axis',(-1.,-3.25400867006367E-13,3.32034187721519E-32));
#1161=DIRECTION('center_axis',(-1.66533453693754E-13,-1.,-9.34804229523682E-16));
#1162=DIRECTION('ref_axis',(1.,-1.66533453693754E-13,-1.55807304015259E-28));
#1163=DIRECTION('',(1.,-1.66533453693754E-13,-1.55807304015259E-28));
#1164=DIRECTION('center_axis',(-0.570841889117058,-0.821060008543388,-9.11559726083796E-16));
#1165=DIRECTION('ref_axis',(-0.821060008543388,0.570841889117058,0.));
#1166=DIRECTION('center_axis',(1.,2.07241631263363E-14,1.53389620459641E-29));
#1167=DIRECTION('ref_axis',(0.,7.40148683083436E-16,-1.));
#1168=DIRECTION('center_axis',(-1.,-2.20375096617335E-14,-2.04700036287674E-29));
#1169=DIRECTION('ref_axis',(-1.57009245868377E-14,0.707106781186546,-0.707106781186549));
#1170=DIRECTION('',(-1.,-2.20375096617335E-14,-2.04700036287674E-29));
#1171=DIRECTION('',(1.,2.20375096617335E-14,2.04700036287674E-29));
#1172=DIRECTION('center_axis',(-1.30753611190372E-31,9.34804229523695E-16,
-1.));
#1173=DIRECTION('ref_axis',(1.,0.,0.));
#1174=DIRECTION('center_axis',(0.866025403784439,-0.5,-4.8128727299894E-16));
#1175=DIRECTION('ref_axis',(0.5,0.866025403784439,8.09564210332659E-16));
#1176=DIRECTION('center_axis',(-1.30753611190372E-31,9.34804229523695E-16,
-1.));
#1177=DIRECTION('ref_axis',(-0.296538075658829,0.955021031016888,8.92757699078667E-16));
#1178=DIRECTION('center_axis',(1.30753611190372E-31,-9.34804229523695E-16,
1.));
#1179=DIRECTION('ref_axis',(-0.296538075658829,0.955021031016888,8.92413602900309E-16));
#1180=DIRECTION('center_axis',(1.30753611190372E-31,-9.34804229523695E-16,
1.));
#1181=DIRECTION('ref_axis',(0.463226786187371,-0.886239778253335,0.));
#1182=DIRECTION('',(1.30753611190372E-31,-9.34804229523695E-16,1.));
#1183=DIRECTION('',(-8.10030754175051E-31,9.65627909395482E-16,-1.));
#1184=DIRECTION('center_axis',(1.30753611190372E-31,-9.34804229523695E-16,
1.));
#1185=DIRECTION('ref_axis',(1.,0.,-1.30753611190372E-31));
#1186=DIRECTION('',(-0.5,-0.866025403784439,-7.24264892130087E-15));
#1187=DIRECTION('center_axis',(-5.98099945925995E-16,-5.98099945925996E-16,
1.));
#1188=DIRECTION('ref_axis',(-3.36431219583372E-16,1.,5.98099945925996E-16));
#1189=DIRECTION('',(1.,-3.51173548990876E-14,-3.29586055005421E-29));
#1190=DIRECTION('',(9.71445146547404E-15,-1.,-9.34804229523695E-16));
#1191=DIRECTION('',(-1.,-1.22464679914742E-16,6.65029535453295E-15));
#1192=DIRECTION('center_axis',(2.20375096617335E-14,-1.,-9.65627909395482E-16));
#1193=DIRECTION('ref_axis',(-1.,-2.20375096617335E-14,-2.0469630094808E-29));
#1194=DIRECTION('center_axis',(-3.25445961361551E-13,1.,9.01887103676184E-16));
#1195=DIRECTION('ref_axis',(-1.,-3.25445961361551E-13,-7.46659861673262E-33));
#1196=DIRECTION('center_axis',(1.70058411798417E-12,1.,9.34804229523682E-16));
#1197=DIRECTION('ref_axis',(-1.,-3.25445961361551E-13,-7.46659861673262E-33));
#1198=DIRECTION('',(3.25445961361551E-13,-1.,-9.01887103676184E-16));
#1199=DIRECTION('center_axis',(-1.22464679914735E-16,1.,9.6257454599788E-16));
#1200=DIRECTION('ref_axis',(-1.,-3.25445961361551E-13,-7.46659861673262E-33));
#1201=DIRECTION('center_axis',(-1.22464679914735E-16,1.,9.6257454599788E-16));
#1202=DIRECTION('ref_axis',(0.,-9.6257454599788E-16,1.));
#1203=DIRECTION('center_axis',(1.22464679914735E-16,-1.,-9.6257454599788E-16));
#1204=DIRECTION('ref_axis',(-1.,-3.25444637568839E-13,-5.84975586972965E-33));
#1205=DIRECTION('center_axis',(-1.22464679914735E-16,1.,9.6257454599788E-16));
#1206=DIRECTION('ref_axis',(0.,-9.6257454599788E-16,1.));
#1207=DIRECTION('center_axis',(1.22464679914735E-16,-1.,-9.6257454599788E-16));
#1208=DIRECTION('ref_axis',(-1.,-3.25392070190779E-13,3.83635119077245E-32));
#1209=DIRECTION('center_axis',(-3.25444637568839E-13,1.,8.41078048958394E-16));
#1210=DIRECTION('ref_axis',(-1.,-3.25444637568839E-13,-5.84975586972965E-33));
#1211=DIRECTION('',(3.25444637568839E-13,-1.,-8.41078048958394E-16));
#1212=DIRECTION('center_axis',(-3.25392070190779E-13,1.,8.41078048958394E-16));
#1213=DIRECTION('ref_axis',(-1.,-3.25392070190779E-13,3.83635119077245E-32));
#1214=DIRECTION('',(3.25392070190779E-13,-1.,-8.41078048958394E-16));
#1215=DIRECTION('center_axis',(1.22464679914735E-16,-1.,-9.6257454599788E-16));
#1216=DIRECTION('ref_axis',(-1.,-3.25392070190779E-13,3.83635119077245E-32));
#1217=DIRECTION('center_axis',(0.9470658794158,-3.29933898630494E-14,-0.321039281157894));
#1218=DIRECTION('ref_axis',(-0.321039281157894,1.21469496713901E-14,-0.9470658794158));
#1219=DIRECTION('',(-0.321039281157894,1.21885636181698E-14,-0.9470658794158));
#1220=DIRECTION('',(3.51385587293862E-14,1.,8.88178419700125E-16));
#1221=DIRECTION('',(-0.321039281157894,1.21469496713901E-14,-0.9470658794158));
#1222=DIRECTION('',(-3.51543640886484E-14,-1.,-9.34804229523682E-16));
#1223=DIRECTION('center_axis',(-0.947065879415799,3.35636701858503E-14,
-0.321039281157898));
#1224=DIRECTION('ref_axis',(-0.321039281157898,1.04151116433084E-14,0.947065879415799));
#1225=DIRECTION('',(-0.321039281157898,1.03595371277698E-14,0.947065879415799));
#1226=DIRECTION('',(3.5122753370124E-14,1.,9.34804229523682E-16));
#1227=DIRECTION('',(-0.321039281157898,1.04151116433084E-14,0.947065879415799));
#1228=DIRECTION('',(3.51385587293862E-14,1.,8.88178419700125E-16));
#1229=DIRECTION('center_axis',(-2.22044604925034E-15,-8.88178419700047E-16,
1.));
#1230=DIRECTION('ref_axis',(1.,-3.5139097672602E-14,2.22044604925031E-15));
#1231=DIRECTION('',(1.,-3.51173548990876E-14,2.22044604925031E-15));
#1232=DIRECTION('',(1.,-3.5139097672602E-14,2.22044604925031E-15));
#1233=DIRECTION('center_axis',(-3.51385587293862E-14,-1.,-8.88178419700125E-16));
#1234=DIRECTION('ref_axis',(0.,8.88178419700125E-16,-1.));
#1235=DIRECTION('',(-1.,3.51385587293862E-14,3.28476733195965E-29));
#1236=DIRECTION('center_axis',(0.,9.34804229523682E-16,-1.));
#1237=DIRECTION('ref_axis',(-1.,0.,0.));
#1238=DIRECTION('',(-1.,3.51173548990876E-14,3.28278518893513E-29));
#1239=DIRECTION('',(-9.0205620750794E-15,1.,9.34804229523682E-16));
#1240=DIRECTION('',(1.,-1.70058411798417E-12,-1.58984435329757E-27));
#1241=DIRECTION('',(1.,3.25423598349234E-13,3.04076228978534E-28));
#1242=DIRECTION('',(2.29446091755893E-13,1.,9.34804229523695E-16));
#1243=DIRECTION('',(-1.,6.96133334773817E-16,7.81875530808768E-31));
#1244=DIRECTION('',(9.71445146547404E-15,-1.,-9.34804229523682E-16));
#1245=DIRECTION('',(-1.,3.51173548990876E-14,3.28278518893513E-29));
#1246=DIRECTION('center_axis',(-1.,-9.0205620750794E-15,-8.43245958046526E-30));
#1247=DIRECTION('ref_axis',(9.0205620750794E-15,-1.,-9.34804229523695E-16));
#1248=DIRECTION('',(9.0205620750794E-15,-1.,-9.34804229523695E-16));
#1249=DIRECTION('',(0.,9.34804229523695E-16,-1.));
#1250=DIRECTION('center_axis',(1.30753611190372E-31,-9.34804229523695E-16,
1.));
#1251=DIRECTION('ref_axis',(-1.66599440653479E-16,1.,9.6257454599788E-16));
#1252=DIRECTION('center_axis',(-5.69994311482246E-16,-5.69994311482247E-16,
1.));
#1253=DIRECTION('ref_axis',(-1.78123222338202E-16,1.,5.69994311482247E-16));
#1254=DIRECTION('',(0.353553390593106,0.612372435695504,0.707106781186883));
#1255=DIRECTION('center_axis',(-5.55234822699722E-16,-5.55234822699723E-16,
1.));
#1256=DIRECTION('ref_axis',(-3.2967067597796E-16,1.,5.55234822699723E-16));
#1257=DIRECTION('center_axis',(-1.30753611190372E-31,9.34804229523695E-16,
-1.));
#1258=DIRECTION('ref_axis',(1.,0.,0.));
#1259=DIRECTION('center_axis',(0.866025403784439,-0.5,-4.8128727299894E-16));
#1260=DIRECTION('ref_axis',(0.353553390593405,0.612372435696023,-0.707106781186284));
#1261=DIRECTION('center_axis',(-5.55234822699805E-16,-5.55234822699805E-16,
1.));
#1262=DIRECTION('ref_axis',(-4.6847938165296E-16,1.,5.55234822699805E-16));
#1263=DIRECTION('center_axis',(-1.30753611190372E-31,9.34804229523695E-16,
-1.));
#1264=DIRECTION('ref_axis',(-1.66599440653479E-16,1.,9.6257454599788E-16));
#1265=DIRECTION('',(-0.353553390593152,-0.612372435695584,0.70710678118679));
#1266=DIRECTION('center_axis',(-5.69994311482331E-16,-5.69994311482332E-16,
1.));
#1267=DIRECTION('ref_axis',(1.06873933402937E-16,1.,5.69994311482332E-16));
#1268=DIRECTION('center_axis',(-1.30753611190372E-31,9.34804229523695E-16,
-1.));
#1269=DIRECTION('ref_axis',(1.,0.,0.));
#1270=DIRECTION('center_axis',(-0.866025403784439,0.5,4.8128727299894E-16));
#1271=DIRECTION('ref_axis',(-0.5,-0.866025403784439,3.70308961842895E-16));
#1272=DIRECTION('center_axis',(1.15544036894403E-15,8.77644093441526E-15,
-1.));
#1273=DIRECTION('ref_axis',(1.19619989185198E-15,1.,8.97149918888985E-15));
#1274=DIRECTION('center_axis',(1.30753611190372E-31,-9.34804229523695E-16,
1.));
#1275=DIRECTION('ref_axis',(-1.66599440653479E-16,1.,9.6257454599788E-16));
#1276=DIRECTION('',(1.30753611190372E-31,-9.34804229523695E-16,1.));
#1277=DIRECTION('',(6.01961485856666E-16,8.00533317055196E-17,1.));
#1278=DIRECTION('center_axis',(-1.31127145149769E-31,9.34804229523695E-16,
-1.));
#1279=DIRECTION('ref_axis',(1.,0.,-1.31127145149769E-31));
#1280=DIRECTION('',(1.,-3.51173548990876E-14,-3.29589790345015E-29));
#1281=DIRECTION('center_axis',(-1.,-9.71445146547404E-15,-9.38054545952957E-30));
#1282=DIRECTION('ref_axis',(-9.71445146547404E-15,1.,9.34804229523695E-16));
#1283=DIRECTION('',(0.,9.34804229523695E-16,-1.));
#1284=DIRECTION('',(-2.69773391569318E-31,9.6257454599788E-16,-1.));
#1285=DIRECTION('center_axis',(3.51173548990876E-14,1.,9.65627909395482E-16));
#1286=DIRECTION('ref_axis',(1.,-3.51173548990876E-14,-3.29589790345015E-29));
#1287=DIRECTION('',(1.30753611190372E-31,-9.34804229523695E-16,1.));
#1288=DIRECTION('center_axis',(-1.22464679914735E-16,1.,9.6257454599788E-16));
#1289=DIRECTION('ref_axis',(1.,1.22464679914734E-16,9.62662528610821E-16));
#1290=DIRECTION('center_axis',(1.30753611190372E-31,-9.34804229523695E-16,
1.));
#1291=DIRECTION('ref_axis',(-1.66599440653479E-16,1.,9.6257454599788E-16));
#1292=DIRECTION('',(-6.01961485856666E-16,-8.00533317055196E-17,-1.));
#1293=DIRECTION('center_axis',(-1.70058411798417E-12,-1.,-9.34804229523682E-16));
#1294=DIRECTION('ref_axis',(1.,-1.70058411798417E-12,-1.58984435329757E-27));
#1295=DIRECTION('center_axis',(3.25423598349234E-13,-1.,-9.34804229523682E-16));
#1296=DIRECTION('ref_axis',(1.,3.25423598349234E-13,3.04076228978534E-28));
#1297=DIRECTION('',(0.,-9.34804229523682E-16,1.));
#1298=DIRECTION('center_axis',(1.,-2.29446091755893E-13,-2.14487177021087E-28));
#1299=DIRECTION('ref_axis',(2.29446091755893E-13,1.,9.34804229523695E-16));
#1300=DIRECTION('center_axis',(0.866025403784439,-0.5,-4.8128727299894E-16));
#1301=DIRECTION('ref_axis',(-0.5,-0.866025403784439,3.70308961842895E-16));
#1302=DIRECTION('center_axis',(-0.866025403784439,0.5,4.8128727299894E-16));
#1303=DIRECTION('ref_axis',(-0.353553390593403,-0.61237243569602,0.707106781186288));
#1304=DIRECTION('',(1.89206413921717E-14,3.18089376570343E-14,1.));
#1305=DIRECTION('center_axis',(1.30753611190372E-31,-9.34804229523695E-16,
1.));
#1306=DIRECTION('ref_axis',(-1.66599440653479E-16,1.,9.6257454599788E-16));
#1307=DIRECTION('center_axis',(-5.98099945925993E-16,-5.98099945925993E-16,
1.));
#1308=DIRECTION('ref_axis',(-1.86906233101873E-16,1.,5.98099945925993E-16));
#1309=DIRECTION('center_axis',(-1.30753611190372E-31,9.34804229523695E-16,
-1.));
#1310=DIRECTION('ref_axis',(1.,0.,0.));
#1311=DIRECTION('',(7.83115601635156E-31,-1.9180800298097E-46,-1.));
#1312=DIRECTION('',(1.,0.,6.24447916364045E-31));
#1313=DIRECTION('center_axis',(0.,0.,1.));
#1314=DIRECTION('ref_axis',(1.,0.,0.));
#1315=CARTESIAN_POINT('',(0.,0.,0.));
#1316=CARTESIAN_POINT('',(0.,0.,0.));
#1317=CARTESIAN_POINT('Origin',(10.6000000000865,28.8000000000017,67.7999999999995));
#1318=CARTESIAN_POINT('',(12.6000000000792,38.3999999999965,67.7999999999995));
#1319=CARTESIAN_POINT('',(10.6000000000792,38.3999999999959,65.7999999999995));
#1320=CARTESIAN_POINT('Origin',(10.6000000000792,38.4000000000086,67.7999999999995));
#1321=CARTESIAN_POINT('',(12.6000000000971,15.0000000000101,67.7999999999995));
#1322=CARTESIAN_POINT('',(12.6000000000865,28.8000000000032,67.7999999999995));
#1323=CARTESIAN_POINT('',(10.6000000000971,15.0000000000135,65.7999999999995));
#1324=CARTESIAN_POINT('Origin',(10.6000000000971,15.0000000000086,67.7999999999995));
#1325=CARTESIAN_POINT('',(10.6000000000865,28.8000000000017,65.7999999999995));
#1326=CARTESIAN_POINT('Origin',(12.6000000000792,38.3999999999965,65.7999999999995));
#1327=CARTESIAN_POINT('',(12.6000000000792,38.3999999999965,72.8999999999995));
#1328=CARTESIAN_POINT('',(12.6000000000792,38.3999999999965,65.7999999999995));
#1329=CARTESIAN_POINT('',(12.6000000000971,15.0000000000101,72.8999999999995));
#1330=CARTESIAN_POINT('',(12.6000000000792,38.3999999999965,72.8999999999995));
#1331=CARTESIAN_POINT('',(12.6000000000971,15.0000000000101,65.7999999999995));
#1332=CARTESIAN_POINT('Origin',(18.600000000033,17.0999999999733,67.7999999999995));
#1333=CARTESIAN_POINT('',(20.6000000000285,14.9999999999965,67.7999999999995));
#1334=CARTESIAN_POINT('',(18.6000000000285,14.9999999999999,65.7999999999995));
#1335=CARTESIAN_POINT('Origin',(18.6000000000285,14.9999999999971,67.7999999999995));
#1336=CARTESIAN_POINT('',(20.599999999996,-3.48564583273409E-12,67.7999999999995));
#1337=CARTESIAN_POINT('',(20.600000000033,17.099999999969,67.7999999999995));
#1338=CARTESIAN_POINT('',(18.599999999996,-3.31398900621633E-14,65.7999999999995));
#1339=CARTESIAN_POINT('Origin',(18.599999999996,-7.89834864178829E-11,67.7999999999995));
#1340=CARTESIAN_POINT('',(18.600000000033,17.0999999999733,65.7999999999995));
#1341=CARTESIAN_POINT('Origin',(20.6000000000285,14.9999999999965,65.7999999999995));
#1342=CARTESIAN_POINT('',(20.6000000000285,14.9999999999965,72.8999999999995));
#1343=CARTESIAN_POINT('',(20.6000000000285,14.9999999999965,65.7999999999995));
#1344=CARTESIAN_POINT('',(20.599999999996,-3.49041333430466E-12,72.8999999999995));
#1345=CARTESIAN_POINT('',(20.599999999996,-3.49041333430466E-12,72.8999999999995));
#1346=CARTESIAN_POINT('',(20.599999999996,-3.48377622427504E-12,65.7999999999995));
#1347=CARTESIAN_POINT('Origin',(-17.8500000000049,-1.85962356624714E-14,
59.5286796564398));
#1348=CARTESIAN_POINT('',(4.84999999999554,-3.02051667386411E-14,72.8999999999995));
#1349=CARTESIAN_POINT('',(4.84999999999554,-3.02051667386411E-14,72.8999999999995));
#1350=CARTESIAN_POINT('',(4.84999999999554,-2.3568056709023E-14,65.7999999999995));
#1351=CARTESIAN_POINT('',(4.84999999999553,-1.83186799063151E-14,62.6643398282197));
#1352=CARTESIAN_POINT('',(9.09999999999599,-9.60790768249035E-13,65.7999999999995));
#1353=CARTESIAN_POINT('',(4.84999999999554,-2.3568056709023E-14,65.7999999999995));
#1354=CARTESIAN_POINT('',(9.59999999999599,-1.06665549878091E-12,65.2999999999995));
#1355=CARTESIAN_POINT('Origin',(9.59999999999599,-1.79929015898277E-14,
65.7999999999995));
#1356=CARTESIAN_POINT('',(10.099999999996,-1.17650337711633E-12,65.2999999999995));
#1357=CARTESIAN_POINT('',(4.84999999999554,-2.31006545942612E-14,65.2999999999995));
#1358=CARTESIAN_POINT('',(10.599999999996,-1.27609410724258E-12,65.7999999999995));
#1359=CARTESIAN_POINT('Origin',(10.099999999996,-1.79316692498704E-14,65.7999999999995));
#1360=CARTESIAN_POINT('',(4.84999999999554,-2.3568056709023E-14,65.7999999999995));
#1361=CARTESIAN_POINT('',(19.149999999996,1.20168221964054E-11,69.3499999999995));
#1362=CARTESIAN_POINT('Origin',(18.099999999996,1.16751053269581E-11,69.3499999999995));
#1363=CARTESIAN_POINT('Origin',(-1.25000000000446,-1.93216433669027E-14,
65.7999999999995));
#1364=CARTESIAN_POINT('',(-11.2230887893417,6.40000000000054,65.7999999999995));
#1365=CARTESIAN_POINT('',(-10.6234998799854,6.40000000000052,65.2999999999995));
#1366=CARTESIAN_POINT('Ctrl Pts',(-11.2230887893417,6.40000000000054,65.7999999999995));
#1367=CARTESIAN_POINT('Ctrl Pts',(-11.2230887893417,6.40000000000054,65.7417748159524));
#1368=CARTESIAN_POINT('Ctrl Pts',(-11.2077391836408,6.40000000000054,65.6736115020118));
#1369=CARTESIAN_POINT('Ctrl Pts',(-11.1570439011075,6.40000000000054,65.5627060650653));
#1370=CARTESIAN_POINT('Ctrl Pts',(-11.1107508983755,6.40000000000054,65.5018517348245));
#1371=CARTESIAN_POINT('Ctrl Pts',(-11.0103756172282,6.40000000000053,65.4115724279723));
#1372=CARTESIAN_POINT('Ctrl Pts',(-10.9364953838748,6.40000000000053,65.3684558170353));
#1373=CARTESIAN_POINT('Ctrl Pts',(-10.7957411010124,6.40000000000053,65.3160381674809));
#1374=CARTESIAN_POINT('Ctrl Pts',(-10.7024131771324,6.40000000000052,65.2999999999995));
#1375=CARTESIAN_POINT('Ctrl Pts',(-10.6234998799854,6.40000000000052,65.2999999999995));
#1376=CARTESIAN_POINT('Origin',(-1.25000000000446,-1.93216433669027E-14,
65.7999999999995));
#1377=CARTESIAN_POINT('Origin',(-1.25000000000446,-1.88542412521408E-14,
65.2999999999995));
#1378=CARTESIAN_POINT('Origin',(-4.82499999996279,19.1999999999965,65.2999999999995));
#1379=CARTESIAN_POINT('',(-10.0114211176088,6.4000000000005,65.2999999999995));
#1380=CARTESIAN_POINT('Origin',(-1.25000000000446,-1.88542412521408E-14,
65.2999999999995));
#1381=CARTESIAN_POINT('',(4.84999999999548,6.39999999999998,65.2999999999995));
#1382=CARTESIAN_POINT('Origin',(-1.25000000000446,-1.93216433669027E-14,
65.7999999999995));
#1383=CARTESIAN_POINT('',(-9.38403343981789,6.40000000000048,65.7999999999995));
#1384=CARTESIAN_POINT('Origin',(-1.25000000000446,-1.93216433669027E-14,
65.7999999999995));
#1385=CARTESIAN_POINT('Ctrl Pts',(-10.0114211176088,6.4000000000005,65.2999999999995));
#1386=CARTESIAN_POINT('Ctrl Pts',(-9.92927270765437,6.4000000000005,65.2999999999995));
#1387=CARTESIAN_POINT('Ctrl Pts',(-9.83209052505365,6.40000000000049,65.3165306865109));
#1388=CARTESIAN_POINT('Ctrl Pts',(-9.68468151676401,6.40000000000049,65.3698247898029));
#1389=CARTESIAN_POINT('Ctrl Pts',(-9.60662865820439,6.40000000000049,65.4136576148439));
#1390=CARTESIAN_POINT('Ctrl Pts',(-9.50112789805408,6.40000000000048,65.5049701008829));
#1391=CARTESIAN_POINT('Ctrl Pts',(-9.45243528204762,6.40000000000048,65.5657977415127));
#1392=CARTESIAN_POINT('Ctrl Pts',(-9.39992020755445,6.40000000000048,65.6760486956135));
#1393=CARTESIAN_POINT('Ctrl Pts',(-9.38403343981789,6.40000000000048,65.7428111441914));
#1394=CARTESIAN_POINT('Ctrl Pts',(-9.38403343981789,6.40000000000048,65.7999999999995));
#1395=CARTESIAN_POINT('Origin',(-23.2500000000018,31.3999999999887,67.7999999999995));
#1396=CARTESIAN_POINT('',(-23.250000000003,24.3999999999887,65.7999999999995));
#1397=CARTESIAN_POINT('',(-16.2500000000018,31.3999999999871,65.7999999999995));
#1398=CARTESIAN_POINT('Origin',(-23.2500000000018,31.3999999999887,65.7999999999995));
#1399=CARTESIAN_POINT('',(-23.2500000000027,26.3999999999887,67.7999999999995));
#1400=CARTESIAN_POINT('Origin',(-23.250000000003,24.3999999999887,67.7999999999995));
#1401=CARTESIAN_POINT('',(-18.2500000000018,31.3999999999876,67.7999999999995));
#1402=CARTESIAN_POINT('Origin',(-23.2500000000018,31.3999999999887,67.7999999999995));
#1403=CARTESIAN_POINT('Origin',(-16.2500000000018,31.3999999999871,67.7999999999995));
#1404=CARTESIAN_POINT('Origin',(-17.5374999999959,24.3999999999878,67.7999999999995));
#1405=CARTESIAN_POINT('',(-26.4860775340358,26.3999999999905,67.7999999999995));
#1406=CARTESIAN_POINT('',(-29.0139224659887,26.3999999999909,67.7999999999995));
#1407=CARTESIAN_POINT('Ctrl Pts',(-26.4860775340358,26.3999999999893,67.7999999999995));
#1408=CARTESIAN_POINT('Ctrl Pts',(-26.5799365281428,26.3999999999893,67.72346419917));
#1409=CARTESIAN_POINT('Ctrl Pts',(-26.681324834631,26.3956115614058,67.6550719963485));
#1410=CARTESIAN_POINT('Ctrl Pts',(-27.0831363103128,26.3730659151138,67.4346713748916));
#1411=CARTESIAN_POINT('Ctrl Pts',(-27.4222942970307,26.3487175269799,67.3499999999995));
#1412=CARTESIAN_POINT('Ctrl Pts',(-28.0777057029938,26.34871752698,67.3499999999995));
#1413=CARTESIAN_POINT('Ctrl Pts',(-28.4168636897117,26.373065915114,67.4346713748916));
#1414=CARTESIAN_POINT('Ctrl Pts',(-28.8186751653935,26.3956115614061,67.6550719963485));
#1415=CARTESIAN_POINT('Ctrl Pts',(-28.9200634718817,26.3999999999897,67.72346419917));
#1416=CARTESIAN_POINT('Ctrl Pts',(-29.0139224659887,26.3999999999897,67.7999999999995));
#1417=CARTESIAN_POINT('',(-17.5374999999956,26.3999999999878,67.7999999999995));
#1418=CARTESIAN_POINT('',(-30.2500000000044,24.3999999999899,65.7999999999995));
#1419=CARTESIAN_POINT('',(-17.5374999999959,24.3999999999878,65.7999999999995));
#1420=CARTESIAN_POINT('',(-30.2500000000044,26.3999999999899,67.7999999999995));
#1421=CARTESIAN_POINT('Origin',(-30.2499999999996,24.3999999999899,67.7999999999995));
#1422=CARTESIAN_POINT('',(-17.5374999999956,26.3999999999878,67.7999999999995));
#1423=CARTESIAN_POINT('Origin',(-16.2500000000038,22.7999999999933,67.7999999999995));
#1424=CARTESIAN_POINT('',(-16.2500000000002,38.3999999999871,65.7999999999995));
#1425=CARTESIAN_POINT('',(-18.2500000000002,38.3999999999865,67.7999999999995));
#1426=CARTESIAN_POINT('Origin',(-16.2500000000002,38.399999999986,67.7999999999995));
#1427=CARTESIAN_POINT('',(-16.2500000000038,22.7999999999933,65.7999999999995));
#1428=CARTESIAN_POINT('',(-18.2500000000038,22.7999999999938,67.7999999999995));
#1429=CARTESIAN_POINT('Origin',(-23.2500000000018,31.3999999999887,65.7999999999995));
#1430=CARTESIAN_POINT('',(-18.2500000000018,31.3999999999876,72.8999999999995));
#1431=CARTESIAN_POINT('',(-23.2500000000027,26.3999999999887,72.8999999999995));
#1432=CARTESIAN_POINT('Origin',(-23.2500000000018,31.3999999999887,72.8999999999995));
#1433=CARTESIAN_POINT('',(-18.2500000000018,31.3999999999876,65.7999999999995));
#1434=CARTESIAN_POINT('',(-23.2500000000027,26.3999999999887,65.7999999999995));
#1435=CARTESIAN_POINT('Origin',(-30.2500000000037,5.7065463465733E-12,65.7999999999995));
#1436=CARTESIAN_POINT('',(-30.2500000000039,7.9000000000004,65.7999999999995));
#1437=CARTESIAN_POINT('',(-30.2500000000047,38.3999999999826,65.7999999999995));
#1438=CARTESIAN_POINT('',(-30.2500000000039,7.90000000000041,54.7573593128802));
#1439=CARTESIAN_POINT('',(-30.2500000000039,7.9000000000004,65.7999999999995));
#1440=CARTESIAN_POINT('',(-30.2500000000039,6.40000000000041,53.2573593128802));
#1441=CARTESIAN_POINT('Origin',(-30.2500000000038,6.40000000000041,54.7573593128802));
#1442=CARTESIAN_POINT('',(-30.2500000000037,5.71985636245719E-12,53.2573593128802));
#1443=CARTESIAN_POINT('',(-30.2500000000038,5.92500000000029,53.2573593128802));
#1444=CARTESIAN_POINT('',(-30.2500000000037,5.70110772852257E-12,72.8999999999995));
#1445=CARTESIAN_POINT('',(-30.2500000000037,5.70774483855219E-12,65.7999999999995));
#1446=CARTESIAN_POINT('',(-30.2500000000044,26.3999999999899,72.8999999999995));
#1447=CARTESIAN_POINT('',(-30.2500000000047,38.3999999999826,72.8999999999995));
#1448=CARTESIAN_POINT('',(-30.2500000000044,26.3999999999899,65.7999999999995));
#1449=CARTESIAN_POINT('Origin',(-4.82499999998797,19.1999999999965,65.7999999999995));
#1450=CARTESIAN_POINT('',(12.6000000000971,15.0000000000101,65.7999999999995));
#1451=CARTESIAN_POINT('',(-14.650093283262,6.40000000000066,65.7999999999995));
#1452=CARTESIAN_POINT('',(-11.6374999999965,6.40000000000056,65.7999999999995));
#1453=CARTESIAN_POINT('',(6.17499999999576,12.8604772461993,65.7999999999995));
#1454=CARTESIAN_POINT('Origin',(-1.25000000000446,-2.22044604925031E-14,
65.7999999999995));
#1455=CARTESIAN_POINT('',(7.92499999999576,15.8915661594448,65.7999999999995));
#1456=CARTESIAN_POINT('',(6.17499999999576,12.8604772461993,65.7999999999995));
#1457=CARTESIAN_POINT('',(-16.316451156776,10.4749486652983,65.7999999999995));
#1458=CARTESIAN_POINT('Origin',(-1.25000000000446,-1.77635683940025E-14,
65.7999999999995));
#1459=CARTESIAN_POINT('',(-21.2428112080362,7.9000000000006,65.7999999999995));
#1460=CARTESIAN_POINT('Origin',(-21.2428112080363,13.9000000000006,65.7999999999995));
#1461=CARTESIAN_POINT('',(-10.8874999999961,7.90000000000082,65.7999999999995));
#1462=CARTESIAN_POINT('',(12.6000000000792,38.3999999999965,65.7999999999995));
#1463=CARTESIAN_POINT('Origin',(-27.7500000000162,38.3999999999834,69.3499999999995));
#1464=CARTESIAN_POINT('',(-25.7500000000123,26.3999999999914,69.3499999999995));
#1465=CARTESIAN_POINT('Origin',(-27.7500000000123,26.3999999999907,69.3499999999995));
#1466=CARTESIAN_POINT('',(-25.750000000006,6.99999999999316,69.3499999999995));
#1467=CARTESIAN_POINT('',(-25.7500000000162,38.3999999999841,69.3499999999995));
#1468=CARTESIAN_POINT('Origin',(-27.750000000006,6.99999999999251,69.3499999999995));
#1469=CARTESIAN_POINT('Origin',(-27.7500000000123,26.3999999999907,69.3499999999995));
#1470=CARTESIAN_POINT('Origin',(-30.2500000000044,26.3999999999899,65.7999999999995));
#1471=CARTESIAN_POINT('',(-18.250000000003,26.3999999999879,72.8999999999995));
#1472=CARTESIAN_POINT('Ctrl Pts',(-14.6743311396892,9.33326488706415,53.2573593128802));
#1473=CARTESIAN_POINT('Ctrl Pts',(-15.2623823918683,8.48745210537618,53.2573593128802));
#1474=CARTESIAN_POINT('Ctrl Pts',(-16.6478119623802,7.34239659743155,53.2573593128802));
#1475=CARTESIAN_POINT('Ctrl Pts',(-19.1140308796275,6.51113951091879,53.2573593128802));
#1476=CARTESIAN_POINT('Ctrl Pts',(-20.5560463164026,6.40000000000062,53.2573593128802));
#1477=CARTESIAN_POINT('Ctrl Pts',(-21.2428112080362,6.40000000000061,53.2573593128802));
#1478=CARTESIAN_POINT('Ctrl Pts',(-14.8955033681853,9.4870348568851,53.2573593128802));
#1479=CARTESIAN_POINT('Ctrl Pts',(-15.4548368642795,8.68252773532106,53.2573593128802));
#1480=CARTESIAN_POINT('Ctrl Pts',(-16.7658879435127,7.56673771092285,53.2573973700457));
#1481=CARTESIAN_POINT('Ctrl Pts',(-19.1538813412236,6.72204570945988,53.2573502770387));
#1482=CARTESIAN_POINT('Ctrl Pts',(-20.5664738853888,6.60203050891107,53.2573593128802));
#1483=CARTESIAN_POINT('Ctrl Pts',(-21.2428112080362,6.60203050891105,53.2573593128802));
#1484=CARTESIAN_POINT('Ctrl Pts',(-15.3804449100519,9.82419041554101,53.3698117117132));
#1485=CARTESIAN_POINT('Ctrl Pts',(-15.8798602936394,9.10586541709127,53.3698117117132));
#1486=CARTESIAN_POINT('Ctrl Pts',(-17.0363791850012,8.05491342375545,53.3611749091775));
#1487=CARTESIAN_POINT('Ctrl Pts',(-19.2477598467067,7.18456796552799,53.3463207990726));
#1488=CARTESIAN_POINT('Ctrl Pts',(-20.5928909036931,7.0450019758142,53.3416986120049));
#1489=CARTESIAN_POINT('Ctrl Pts',(-21.2428112080362,7.04500197581418,53.3416986120049));
#1490=CARTESIAN_POINT('Ctrl Pts',(-15.9639699064693,10.2298861111491,53.9244394097496));
#1491=CARTESIAN_POINT('Ctrl Pts',(-16.405938186724,9.59418910488506,53.9244394097496));
#1492=CARTESIAN_POINT('Ctrl Pts',(-17.4000275197805,8.61950276022564,53.8752403676484));
#1493=CARTESIAN_POINT('Ctrl Pts',(-19.389916587409,7.73639407139321,53.785689920129));
#1494=CARTESIAN_POINT('Ctrl Pts',(-20.6370503912063,7.57802482768773,53.7576693855323));
#1495=CARTESIAN_POINT('Ctrl Pts',(-21.2428112080362,7.57802482768771,53.7576693855323));
#1496=CARTESIAN_POINT('Ctrl Pts',(-16.2653607078228,10.439428035755,54.6245683325688));
#1497=CARTESIAN_POINT('Ctrl Pts',(-16.6916360785558,9.82630263937378,54.6245683325688));
#1498=CARTESIAN_POINT('Ctrl Pts',(-17.6239361727307,8.88649702686688,54.5225485147136));
#1499=CARTESIAN_POINT('Ctrl Pts',(-19.4914953964612,8.01557514035507,54.3396626148225));
#1500=CARTESIAN_POINT('Ctrl Pts',(-20.6721734879546,7.85333125920681,54.2827660776467));
#1501=CARTESIAN_POINT('Ctrl Pts',(-21.2428112080362,7.8533312592068,54.2827660776467));
#1502=CARTESIAN_POINT('Ctrl Pts',(-16.316451156776,10.4749486652983,55.0553288039698));
#1503=CARTESIAN_POINT('Ctrl Pts',(-16.7506195655368,9.85047046178416,55.0553288039698));
#1504=CARTESIAN_POINT('Ctrl Pts',(-17.688795285858,8.9130469473554,54.9188993768634));
#1505=CARTESIAN_POINT('Ctrl Pts',(-19.5299092149129,8.05836233803486,54.6797337629061));
#1506=CARTESIAN_POINT('Ctrl Pts',(-20.6873945542653,7.90000000000062,54.6058364311974));
#1507=CARTESIAN_POINT('Ctrl Pts',(-21.2428112080362,7.90000000000061,54.6058364311974));
#1508=CARTESIAN_POINT('Ctrl Pts',(-16.316451156776,10.4749486652983,55.2573593128802));
#1509=CARTESIAN_POINT('Ctrl Pts',(-16.7574895959103,9.84058907903229,55.2573593128802));
#1510=CARTESIAN_POINT('Ctrl Pts',(-17.7062721871665,8.90100488626134,55.1042980883904));
#1511=CARTESIAN_POINT('Ctrl Pts',(-19.5436751939508,8.05546081239536,54.8389919659414));
#1512=CARTESIAN_POINT('Ctrl Pts',(-20.6933992947293,7.90000000000062,54.7573593128802));
#1513=CARTESIAN_POINT('Ctrl Pts',(-21.2428112080362,7.90000000000061,54.7573593128802));
#1514=CARTESIAN_POINT('',(-21.2428112080362,7.90000000000061,54.7573593128802));
#1515=CARTESIAN_POINT('',(-16.316451156776,10.4749486652983,55.2573593128802));
#1516=CARTESIAN_POINT('Ctrl Pts',(-16.316451156776,10.4749486652983,55.2573593128802));
#1517=CARTESIAN_POINT('Ctrl Pts',(-16.7574895959103,9.84058907903229,55.2573593128802));
#1518=CARTESIAN_POINT('Ctrl Pts',(-17.7062721871665,8.90100488626134,55.1042980883904));
#1519=CARTESIAN_POINT('Ctrl Pts',(-19.5436751939508,8.05546081239536,54.8389919659414));
#1520=CARTESIAN_POINT('Ctrl Pts',(-20.6933992947293,7.90000000000062,54.7573593128802));
#1521=CARTESIAN_POINT('Ctrl Pts',(-21.2428112080362,7.90000000000061,54.7573593128802));
#1522=CARTESIAN_POINT('',(-14.6743311396892,9.33326488706415,53.2573593128802));
#1523=CARTESIAN_POINT('Origin',(-14.6743311396892,9.33326488706414,55.2573593128802));
#1524=CARTESIAN_POINT('',(-21.2428112080362,6.40000000000061,53.2573593128802));
#1525=CARTESIAN_POINT('Ctrl Pts',(-21.2428112080362,6.40000000000061,53.2573593128802));
#1526=CARTESIAN_POINT('Ctrl Pts',(-20.5560463164026,6.40000000000062,53.2573593128802));
#1527=CARTESIAN_POINT('Ctrl Pts',(-19.1140308796275,6.51113951091879,53.2573593128802));
#1528=CARTESIAN_POINT('Ctrl Pts',(-16.6478119623802,7.34239659743155,53.2573593128802));
#1529=CARTESIAN_POINT('Ctrl Pts',(-15.2623823918683,8.48745210537618,53.2573593128802));
#1530=CARTESIAN_POINT('Ctrl Pts',(-14.6743311396892,9.33326488706415,53.2573593128802));
#1531=CARTESIAN_POINT('Origin',(-21.2428112080362,6.40000000000061,54.7573593128802));
#1532=CARTESIAN_POINT('Origin',(-9.10000000000438,6.40000000000088,54.7573593128802));
#1533=CARTESIAN_POINT('',(-9.10000000000441,7.90000000000088,54.7573593128802));
#1534=CARTESIAN_POINT('',(-9.10000000000438,6.40000000000088,53.2573593128802));
#1535=CARTESIAN_POINT('Origin',(-1.25000000000446,-1.29736876542384E-14,
55.2573593128802));
#1536=CARTESIAN_POINT('',(6.92499999999576,14.159515351876,53.2573593128802));
#1537=CARTESIAN_POINT('',(7.92499999999575,15.8915661594448,55.2573593128802));
#1538=CARTESIAN_POINT('Origin',(6.92499999999576,14.1595153518759,55.2573593128802));
#1539=CARTESIAN_POINT('Origin',(-1.25000000000446,-1.1104079195191E-14,
53.2573593128802));
#1540=CARTESIAN_POINT('Origin',(-1.25000000000446,-1.29736876542384E-14,
55.2573593128802));
#1541=CARTESIAN_POINT('Origin',(-21.2428112080363,13.9000000000006,59.5286796564399));
#1542=CARTESIAN_POINT('',(-16.316451156776,10.4749486652983,59.5286796564399));
#1543=CARTESIAN_POINT('',(-21.2428112080362,7.9000000000006,59.5286796564399));
#1544=CARTESIAN_POINT('Origin',(-1.25000000000446,14.8500000000004,53.2573593128802));
#1545=CARTESIAN_POINT('',(6.17499999999572,12.8604772461992,53.2573593128802));
#1546=CARTESIAN_POINT('',(7.92499999999575,15.8915661594448,53.2573593128802));
#1547=CARTESIAN_POINT('',(-14.6500932832619,6.40000000000067,53.2573593128802));
#1548=CARTESIAN_POINT('Origin',(-1.25000000000446,-1.11022302462516E-14,
53.2573593128802));
#1549=CARTESIAN_POINT('',(-18.4500000000045,6.40000000000081,53.2573593128802));
#1550=CARTESIAN_POINT('',(-9.85000000000464,6.4000000000005,53.2573593128802));
#1551=CARTESIAN_POINT('',(-18.4500000000045,-1.29042861574436E-14,53.2573593128802));
#1552=CARTESIAN_POINT('',(-18.4500000000045,1.97500000000189,53.2573593128802));
#1553=CARTESIAN_POINT('',(-19.6000000000049,-1.30451205393456E-14,53.2573593128802));
#1554=CARTESIAN_POINT('Origin',(-16.9500000000045,7.90000000000069,65.7999999999995));
#1555=CARTESIAN_POINT('Origin',(18.0999999999835,38.3999999999983,69.3499999999995));
#1556=CARTESIAN_POINT('',(20.0999999999911,15.0000000000126,69.3499999999995));
#1557=CARTESIAN_POINT('Origin',(18.0999999999911,15.0000000000119,69.3499999999995));
#1558=CARTESIAN_POINT('',(20.0999999999937,7.00000000000809,69.3499999999995));
#1559=CARTESIAN_POINT('',(20.0999999999835,38.399999999999,69.3499999999995));
#1560=CARTESIAN_POINT('Origin',(18.0999999999937,7.00000000000744,69.3499999999995));
#1561=CARTESIAN_POINT('Origin',(-4.82500000000385,6.99999999999997,69.3499999999995));
#1562=CARTESIAN_POINT('',(19.1499999999937,7.00000000000778,69.3499999999995));
#1563=CARTESIAN_POINT('Origin',(18.0999999999937,7.00000000000744,69.3499999999995));
#1564=CARTESIAN_POINT('Origin',(-4.82500000000385,6.99999999999997,69.3499999999995));
#1565=CARTESIAN_POINT('',(-26.700000000006,6.99999999999286,69.3499999999995));
#1566=CARTESIAN_POINT('Origin',(-27.750000000006,6.99999999999251,69.3499999999995));
#1567=CARTESIAN_POINT('Origin',(18.0999999999835,38.3999999999983,69.3499999999995));
#1568=CARTESIAN_POINT('',(19.1499999999835,38.3999999999987,69.3499999999995));
#1569=CARTESIAN_POINT('Origin',(-27.7500000000162,38.3999999999834,69.3499999999995));
#1570=CARTESIAN_POINT('',(-26.7000000000037,-2.90463045030364E-12,69.3499999999995));
#1571=CARTESIAN_POINT('',(-26.7000000000162,38.3999999999837,69.3499999999995));
#1572=CARTESIAN_POINT('Origin',(-27.7500000000037,-3.24629212400396E-12,
69.3499999999995));
#1573=CARTESIAN_POINT('Origin',(-10.8000000000045,6.40000000000052,72.8999999999995));
#1574=CARTESIAN_POINT('',(-10.8000000000045,6.40000000000052,72.8999999999995));
#1575=CARTESIAN_POINT('',(-12.8000000000045,6.4000000000006,66.9999999999995));
#1576=CARTESIAN_POINT('',(-12.2735892811176,6.40000000000058,68.5529116207158));
#1577=CARTESIAN_POINT('',(-12.8000000000042,16.4000000000006,66.9999999999995));
#1578=CARTESIAN_POINT('',(-12.8000000000045,6.4000000000006,66.9999999999995));
#1579=CARTESIAN_POINT('',(-10.8000000000042,16.4000000000005,72.8999999999995));
#1580=CARTESIAN_POINT('',(-12.8000000000042,16.4000000000006,66.9999999999995));
#1581=CARTESIAN_POINT('',(-10.8000000000043,12.7999999999986,72.8999999999995));
#1582=CARTESIAN_POINT('Origin',(-0.800000000004513,6.40000000000018,66.9999999999995));
#1583=CARTESIAN_POINT('',(-0.800000000004513,6.40000000000018,66.9999999999995));
#1584=CARTESIAN_POINT('',(-2.80000000000451,6.40000000000024,72.8999999999995));
#1585=CARTESIAN_POINT('',(-1.52713218243172,6.4000000000002,69.1450399381598));
#1586=CARTESIAN_POINT('',(-2.80000000000416,16.4000000000002,72.8999999999995));
#1587=CARTESIAN_POINT('',(-2.80000000000429,12.7999999999983,72.8999999999995));
#1588=CARTESIAN_POINT('',(-0.800000000004161,16.4000000000002,66.9999999999995));
#1589=CARTESIAN_POINT('',(-0.800000000004161,16.4000000000002,66.9999999999995));
#1590=CARTESIAN_POINT('',(-0.800000000004513,6.40000000000018,66.9999999999995));
#1591=CARTESIAN_POINT('Origin',(-12.8000000000045,6.4000000000006,66.9999999999995));
#1592=CARTESIAN_POINT('',(-15.6250000000045,6.40000000000069,66.9999999999995));
#1593=CARTESIAN_POINT('',(-0.800000000004161,16.4000000000002,66.9999999999995));
#1594=CARTESIAN_POINT('Origin',(-6.80000000000416,16.4000000000004,69.9499999999995));
#1595=CARTESIAN_POINT('',(-5.81249999999612,16.4000000000004,72.8999999999995));
#1596=CARTESIAN_POINT('Origin',(-4.82499999998797,19.1999999999965,72.8999999999995));
#1597=CARTESIAN_POINT('',(4.84999999999548,6.39999999999997,72.8999999999995));
#1598=CARTESIAN_POINT('',(-11.6374999999965,6.40000000000055,72.8999999999995));
#1599=CARTESIAN_POINT('',(4.84999999999542,12.7999999999983,72.8999999999995));
#1600=CARTESIAN_POINT('',(12.6000000000971,15.0000000000101,72.8999999999995));
#1601=CARTESIAN_POINT('',(-18.2500000000002,38.3999999999865,72.8999999999995));
#1602=CARTESIAN_POINT('',(12.6000000000792,38.3999999999965,72.8999999999995));
#1603=CARTESIAN_POINT('',(-18.2500000000002,38.3999999999865,72.8999999999995));
#1604=CARTESIAN_POINT('',(-18.4500000000045,-1.39852600384112E-14,72.8999999999995));
#1605=CARTESIAN_POINT('',(4.84999999999554,-3.02051667386411E-14,72.8999999999995));
#1606=CARTESIAN_POINT('',(-18.4500000000045,6.40000000000079,72.8999999999995));
#1607=CARTESIAN_POINT('',(-18.4500000000046,9.59999999999988,72.8999999999995));
#1608=CARTESIAN_POINT('',(-11.6374999999965,6.40000000000055,72.8999999999995));
#1609=CARTESIAN_POINT('Origin',(4.84999999999548,6.39999999999998,65.7999999999995));
#1610=CARTESIAN_POINT('',(4.84999999999548,6.39999999999998,65.7999999999995));
#1611=CARTESIAN_POINT('',(4.84999999999542,12.7999999999983,65.7999999999995));
#1612=CARTESIAN_POINT('',(4.84999999999548,6.39999999999998,65.7999999999995));
#1613=CARTESIAN_POINT('Origin',(-1.25000000000446,-1.48198079736971E-14,
57.2322330470303));
#1614=CARTESIAN_POINT('',(-15.4572512025466,6.4000000000007,57.0251262658432));
#1615=CARTESIAN_POINT('',(-15.9103650748479,6.40000000000071,57.4393398282174));
#1616=CARTESIAN_POINT('Ctrl Pts',(-15.4572512025466,6.4000000000007,57.0251262658432));
#1617=CARTESIAN_POINT('Ctrl Pts',(-15.6808364199107,6.40000000000071,57.2289822432684));
#1618=CARTESIAN_POINT('Ctrl Pts',(-15.910365074848,6.40000000000071,57.4393398282174));
#1619=CARTESIAN_POINT('',(6.54111652351358,13.4946096664226,57.0251262658432));
#1620=CARTESIAN_POINT('Origin',(-1.25000000000446,-1.11022302462516E-14,
57.0251262658432));
#1621=CARTESIAN_POINT('',(6.74822330470045,13.8533291340304,57.4393398282174));
#1622=CARTESIAN_POINT('',(6.54111652351358,13.4946096664226,57.0251262658432));
#1623=CARTESIAN_POINT('Origin',(-1.25000000000446,-1.11022302462516E-14,
57.4393398282174));
#1624=CARTESIAN_POINT('Origin',(-1.25000000000446,-1.60049218833831E-14,
58.4999999999995));
#1625=CARTESIAN_POINT('',(-15.9103650748453,6.40000000000071,59.5606601717797));
#1626=CARTESIAN_POINT('Ctrl Pts',(-15.9103650748479,6.40000000000071,57.4393398282174));
#1627=CARTESIAN_POINT('Ctrl Pts',(-15.9173247422916,6.40000000000071,57.4457181988652));
#1628=CARTESIAN_POINT('Ctrl Pts',(-15.9241754540279,6.40000000000071,57.4521125725857));
#1629=CARTESIAN_POINT('Ctrl Pts',(-16.0670274351971,6.40000000000072,57.5878412787236));
#1630=CARTESIAN_POINT('Ctrl Pts',(-16.1975684515902,6.40000000000072,57.7714789073984));
#1631=CARTESIAN_POINT('Ctrl Pts',(-16.3439768433646,6.40000000000073,58.1087729199022));
#1632=CARTESIAN_POINT('Ctrl Pts',(-16.3885295132497,6.40000000000073,58.3200575877758));
#1633=CARTESIAN_POINT('Ctrl Pts',(-16.3885295132497,6.40000000000073,58.4999999999995));
#1634=CARTESIAN_POINT('Ctrl Pts',(-16.3885295132497,6.40000000000073,58.6799424122232));
#1635=CARTESIAN_POINT('Ctrl Pts',(-16.3439768433646,6.40000000000073,58.8912270800968));
#1636=CARTESIAN_POINT('Ctrl Pts',(-16.1975684515902,6.40000000000072,59.2285210926006));
#1637=CARTESIAN_POINT('Ctrl Pts',(-16.0670274351971,6.40000000000072,59.4121587212754));
#1638=CARTESIAN_POINT('Ctrl Pts',(-15.9241754540278,6.40000000000071,59.5478874274135));
#1639=CARTESIAN_POINT('Ctrl Pts',(-15.9173247422913,6.40000000000071,59.5542818011341));
#1640=CARTESIAN_POINT('Ctrl Pts',(-15.9103650748475,6.40000000000071,59.5606601717821));
#1641=CARTESIAN_POINT('',(6.74822330469927,13.8533291340283,59.5606601717797));
#1642=CARTESIAN_POINT('Origin',(6.21789321880899,12.934770480484,58.4999999999995));
#1643=CARTESIAN_POINT('Origin',(-1.25000000000446,-1.77635683940025E-14,
59.5606601717797));
#1644=CARTESIAN_POINT('Origin',(-1.25000000000446,-1.7190035793067E-14,
59.7677669529665));
#1645=CARTESIAN_POINT('',(-15.457251202544,6.40000000000069,59.9748737341527));
#1646=CARTESIAN_POINT('Ctrl Pts',(-15.9103650748454,6.40000000000071,59.5606601717797));
#1647=CARTESIAN_POINT('Ctrl Pts',(-15.6808364199021,6.4000000000007,59.7710177567341));
#1648=CARTESIAN_POINT('Ctrl Pts',(-15.4572512025446,6.40000000000069,59.9748737341532));
#1649=CARTESIAN_POINT('',(6.54111652351242,13.4946096664206,59.9748737341527));
#1650=CARTESIAN_POINT('',(6.54111652351267,13.4946096664211,59.9748737341532));
#1651=CARTESIAN_POINT('Origin',(-1.25000000000447,-1.33226762955019E-14,
59.9748737341527));
#1652=CARTESIAN_POINT('Origin',(-1.25000000000446,-1.90361561125278E-14,
61.7426406871188));
#1653=CARTESIAN_POINT('',(-14.6500932832621,6.40000000000066,61.7426406871187));
#1654=CARTESIAN_POINT('Ctrl Pts',(-15.4572512025441,6.40000000000069,59.9748737341527));
#1655=CARTESIAN_POINT('Ctrl Pts',(-15.4461857329627,6.40000000000069,59.9849627827211));
#1656=CARTESIAN_POINT('Ctrl Pts',(-15.4352834545044,6.40000000000069,59.9950738730534));
#1657=CARTESIAN_POINT('Ctrl Pts',(-15.1949026309906,6.40000000000069,60.2217402447206));
#1658=CARTESIAN_POINT('Ctrl Pts',(-14.9734437843622,6.40000000000068,60.5290239179653));
#1659=CARTESIAN_POINT('Ctrl Pts',(-14.7257291182047,6.40000000000067,61.0919876141322));
#1660=CARTESIAN_POINT('Ctrl Pts',(-14.650093283262,6.40000000000066,61.4432295786075));
#1661=CARTESIAN_POINT('Ctrl Pts',(-14.650093283262,6.40000000000066,61.7426406871188));
#1662=CARTESIAN_POINT('',(6.17499999999576,12.8604772461993,61.7426406871188));
#1663=CARTESIAN_POINT('Origin',(7.42499999999576,15.0255407556604,61.7426406871188));
#1664=CARTESIAN_POINT('Origin',(-1.25000000000448,-7.54951656745106E-14,
61.7426406871187));
#1665=CARTESIAN_POINT('Origin',(-1.25000000000446,-2.09325744357169E-14,
63.7713203435591));
#1666=CARTESIAN_POINT('',(-14.650093283262,6.40000000000066,63.7713203435591));
#1667=CARTESIAN_POINT('',(6.17499999999576,12.8604772461993,65.2999999999995));
#1668=CARTESIAN_POINT('Origin',(-4.82499999998797,19.1999999999965,65.7999999999995));
#1669=CARTESIAN_POINT('',(-11.6374999999965,6.40000000000056,65.7999999999995));
#1670=CARTESIAN_POINT('Origin',(-18.4500000000045,3.37840866393435E-12,
65.7999999999995));
#1671=CARTESIAN_POINT('',(-18.4500000000045,6.4000000000008,65.7999999999995));
#1672=CARTESIAN_POINT('',(-18.4500000000045,-2.16880211366747E-14,62.6643398282197));
#1673=CARTESIAN_POINT('Origin',(-18.4500000000045,6.4000000000008,65.7999999999995));
#1674=CARTESIAN_POINT('',(-14.650093283262,6.40000000000067,55.2573593128802));
#1675=CARTESIAN_POINT('',(-14.650093283262,6.40000000000067,54.2573593128802));
#1676=CARTESIAN_POINT('Ctrl Pts',(-14.6500932832662,6.40000000000067,55.2573593128802));
#1677=CARTESIAN_POINT('Ctrl Pts',(-14.6500932832662,6.40000000000067,55.556770421391));
#1678=CARTESIAN_POINT('Ctrl Pts',(-14.7257291182088,6.40000000000067,55.9080123858658));
#1679=CARTESIAN_POINT('Ctrl Pts',(-14.9734437843659,6.40000000000068,56.4709760820319));
#1680=CARTESIAN_POINT('Ctrl Pts',(-15.194902630994,6.40000000000069,56.7782597552761));
#1681=CARTESIAN_POINT('Ctrl Pts',(-15.4352834545073,6.4000000000007,57.0049261269428));
#1682=CARTESIAN_POINT('Ctrl Pts',(-15.4461857329654,6.4000000000007,57.0150372172749));
#1683=CARTESIAN_POINT('Ctrl Pts',(-15.4572512025466,6.4000000000007,57.0251262658432));
#1684=CARTESIAN_POINT('Origin',(-17.8500000000049,-1.85962356624714E-14,
59.5286796564398));
#1685=CARTESIAN_POINT('Origin',(-1.25000000000446,-1.69665359770485E-14,
59.5286796564399));
#1686=CARTESIAN_POINT('',(7.92499999999576,15.8915661594448,65.7999999999995));
#1687=CARTESIAN_POINT('Origin',(12.6000000000971,15.0000000000101,65.7999999999995));
#1688=CARTESIAN_POINT('Origin',(-18.2500000000002,38.3999999999865,65.7999999999995));
#1689=CARTESIAN_POINT('',(-18.2500000000002,38.3999999999865,65.7999999999995));
#1690=CARTESIAN_POINT('Origin',(-18.250000000003,26.3999999999879,65.7999999999995));
#1691=CARTESIAN_POINT('Origin',(7.04999999999574,14.376021702822,59.5286796564398));
#1692=CARTESIAN_POINT('',(6.17499999999575,12.8604772461993,55.2573593128802));
#1693=CARTESIAN_POINT('Origin',(7.42499999999575,15.0255407556604,55.2573593128802));
#1694=CARTESIAN_POINT('',(6.17499999999575,12.8604772461993,55.2573593128802));
#1695=CARTESIAN_POINT('Origin',(-1.25000000000446,-1.20388834247147E-14,
54.2573593128802));
#1696=CARTESIAN_POINT('Origin',(-1.25000000000446,-1.33226762955019E-14,
55.2573593128802));
#1697=CARTESIAN_POINT('Origin',(-1.25000000000446,-1.29736876542383E-14,
55.2573593128802));
#1698=CARTESIAN_POINT('',(4.82499999998797,19.1999999999965,72.8999999999995));
#1699=CARTESIAN_POINT('Origin',(0.,0.,0.));
#1700=UNCERTAINTY_MEASURE_WITH_UNIT(LENGTH_MEASURE(0.01),#1706,
'DISTANCE_ACCURACY_VALUE',
'Maximum model space distance between geometric entities at asserted c
onnectivities');
#1701=UNCERTAINTY_MEASURE_WITH_UNIT(LENGTH_MEASURE(0.01),#1706,
'DISTANCE_ACCURACY_VALUE',
'Maximum model space distance between geometric entities at asserted c
onnectivities');
#1702=UNCERTAINTY_MEASURE_WITH_UNIT(LENGTH_MEASURE(0.01),#1706,
'DISTANCE_ACCURACY_VALUE',
'Maximum model space distance between geometric entities at asserted c
onnectivities');
#1703=(
GEOMETRIC_REPRESENTATION_CONTEXT(3)
GLOBAL_UNCERTAINTY_ASSIGNED_CONTEXT((#1700))
GLOBAL_UNIT_ASSIGNED_CONTEXT((#1706,#1708,#1709))
REPRESENTATION_CONTEXT('','3D')
);
#1704=(
GEOMETRIC_REPRESENTATION_CONTEXT(3)
GLOBAL_UNCERTAINTY_ASSIGNED_CONTEXT((#1701))
GLOBAL_UNIT_ASSIGNED_CONTEXT((#1706,#1708,#1709))
REPRESENTATION_CONTEXT('','3D')
);
#1705=(
GEOMETRIC_REPRESENTATION_CONTEXT(3)
GLOBAL_UNCERTAINTY_ASSIGNED_CONTEXT((#1702))
GLOBAL_UNIT_ASSIGNED_CONTEXT((#1706,#1708,#1709))
REPRESENTATION_CONTEXT('','3D')
);
#1706=(
LENGTH_UNIT()
NAMED_UNIT(*)
SI_UNIT(.MILLI.,.METRE.)
);
#1707=(
LENGTH_UNIT()
NAMED_UNIT(*)
SI_UNIT($,.METRE.)
);
#1708=(
NAMED_UNIT(*)
PLANE_ANGLE_UNIT()
SI_UNIT($,.RADIAN.)
);
#1709=(
NAMED_UNIT(*)
SI_UNIT($,.STERADIAN.)
SOLID_ANGLE_UNIT()
);
#1710=SHAPE_DEFINITION_REPRESENTATION(#1712,#1715);
#1711=SHAPE_DEFINITION_REPRESENTATION(#1713,#1716);
#1712=PRODUCT_DEFINITION_SHAPE('',$,#1718);
#1713=PRODUCT_DEFINITION_SHAPE('',$,#1719);
#1714=PRODUCT_DEFINITION_SHAPE($,$,#17);
#1715=SHAPE_REPRESENTATION('',(#945,#1040),#1703);
#1716=SHAPE_REPRESENTATION('',(#946),#1704);
#1717=PRODUCT_DEFINITION_CONTEXT('part definition',#1725,'design');
#1718=PRODUCT_DEFINITION('2026-09-29-20-58-11-401','PRINT_LAYOUT',#1720,
#1717);
#1719=PRODUCT_DEFINITION('2026-09-29-20-58-11-352','SeatRight',#1721,#1717);
#1720=PRODUCT_DEFINITION_FORMATION('',$,#1727);
#1721=PRODUCT_DEFINITION_FORMATION('',$,#1728);
#1722=PRODUCT_RELATED_PRODUCT_CATEGORY('PRINT_LAYOUT','PRINT_LAYOUT',(#1727));
#1723=PRODUCT_RELATED_PRODUCT_CATEGORY('SeatRight','SeatRight',(#1728));
#1724=APPLICATION_PROTOCOL_DEFINITION('international standard',
'automotive_design',2009,#1725);
#1725=APPLICATION_CONTEXT(
'Core Data for Automotive Mechanical Design Process');
#1726=PRODUCT_CONTEXT('part definition',#1725,'mechanical');
#1727=PRODUCT('2026-09-29-20-58-11-401','PRINT_LAYOUT',$,(#1726));
#1728=PRODUCT('2026-09-29-20-58-11-352','SeatRight',$,(#1726));
#1729=PRESENTATION_STYLE_ASSIGNMENT((#1733));
#1730=PRESENTATION_STYLE_ASSIGNMENT((#1734));
#1731=PRESENTATION_STYLE_ASSIGNMENT((#1735));
#1732=PRESENTATION_STYLE_ASSIGNMENT((NULL_STYLE(.NULL.)));
#1733=SURFACE_STYLE_USAGE(.BOTH.,#1736);
#1734=SURFACE_STYLE_USAGE(.BOTH.,#1737);
#1735=SURFACE_STYLE_USAGE(.BOTH.,#1738);
#1736=SURFACE_SIDE_STYLE('',(#1739));
#1737=SURFACE_SIDE_STYLE('',(#1740));
#1738=SURFACE_SIDE_STYLE('',(#1741));
#1739=SURFACE_STYLE_FILL_AREA(#1742);
#1740=SURFACE_STYLE_FILL_AREA(#1743);
#1741=SURFACE_STYLE_FILL_AREA(#1744);
#1742=FILL_AREA_STYLE('Plastic - Matte (Black)',(#1745));
#1743=FILL_AREA_STYLE('Steel - Satin',(#1746));
#1744=FILL_AREA_STYLE('Brass - Old',(#1747));
#1745=FILL_AREA_STYLE_COLOUR('Plastic - Matte (Black)',#1748);
#1746=FILL_AREA_STYLE_COLOUR('Steel - Satin',#1749);
#1747=FILL_AREA_STYLE_COLOUR('Brass - Old',#1750);
#1748=COLOUR_RGB('Plastic - Matte (Black)',0.0980392156862745,0.0980392156862745,
0.0980392156862745);
#1749=COLOUR_RGB('Steel - Satin',0.627450980392157,0.627450980392157,0.627450980392157);
#1750=COLOUR_RGB('Brass - Old',0.,0.,0.);
ENDSEC;
END-ISO-10303-21;
