ISO-10303-21;
HEADER;
/* Generated by software containing ST-Developer
 * from STEP Tools, Inc. (www.steptools.com) 
 */

FILE_DESCRIPTION(
/* description */ (''),
/* implementation_level */ '2;1');

FILE_NAME(
/* name */ 'SeatLeft.step',
/* time_stamp */ '2026-10-05T11:40:52+02:00',
/* author */ (''),
/* organization */ (''),
/* preprocessor_version */ 'ST-DEVELOPER v20.2',
/* originating_system */ 'Autodesk Translation Framework v15.15.0.0',
/* authorisation */ '');

FILE_SCHEMA (('AUTOMOTIVE_DESIGN { 1 0 10303 214 3 1 1 }'));
ENDSEC;

DATA;
#10=MECHANICAL_DESIGN_GEOMETRIC_PRESENTATION_REPRESENTATION('',(#20,#21),
#1705);
#11=CONTEXT_DEPENDENT_OVER_RIDING_STYLED_ITEM('',(#1730),#1716,#21,(#15));
#12=MAPPED_ITEM('',#13,#1041);
#13=REPRESENTATION_MAP(#1041,#1715);
#14=ITEM_DEFINED_TRANSFORMATION($,$,#946,#1040);
#15=(
REPRESENTATION_RELATIONSHIP($,$,#1716,#1715)
REPRESENTATION_RELATIONSHIP_WITH_TRANSFORMATION(#14)
SHAPE_REPRESENTATION_RELATIONSHIP()
);
#16=CONTEXT_DEPENDENT_SHAPE_REPRESENTATION(#15,#1714);
#17=NEXT_ASSEMBLY_USAGE_OCCURRENCE('SeatLeft:1','SeatLeft:1',
'SeatLeft:1',#1718,#1719,'SeatLeft:1');
#18=SHAPE_REPRESENTATION_RELATIONSHIP('SRR','None',#1716,#19);
#19=ADVANCED_BREP_SHAPE_REPRESENTATION('',(#22),#1704);
#20=STYLED_ITEM('',(#1729),#22);
#21=STYLED_ITEM('',(#1732),#12);
#22=MANIFOLD_SOLID_BREP('Body1',#932);
#23=(
BOUNDED_CURVE()
B_SPLINE_CURVE(2,(#1616,#1617,#1618),.UNSPECIFIED.,.F.,.F.)
B_SPLINE_CURVE_WITH_KNOTS((3,3),(0.,0.0613909775141138),.UNSPECIFIED.)
CURVE()
GEOMETRIC_REPRESENTATION_ITEM()
RATIONAL_B_SPLINE_CURVE((1.,1.00010295880603,1.))
REPRESENTATION_ITEM('')
);
#24=(
BOUNDED_CURVE()
B_SPLINE_CURVE(2,(#1646,#1647,#1648),.UNSPECIFIED.,.F.,.F.)
B_SPLINE_CURVE_WITH_KNOTS((3,3),(0.,0.0613909775139703),.UNSPECIFIED.)
CURVE()
GEOMETRIC_REPRESENTATION_ITEM()
RATIONAL_B_SPLINE_CURVE((1.,1.0001029589061,1.))
REPRESENTATION_ITEM('')
);
#25=CONICAL_SURFACE('',#1015,15.7893398282187,0.785398163396651);
#26=CONICAL_SURFACE('',#1021,15.7893398282204,0.785398163397115);
#27=B_SPLINE_SURFACE_WITH_KNOTS('',3,3,((#1472,#1473,#1474,#1475,#1476,
#1477),(#1478,#1479,#1480,#1481,#1482,#1483),(#1484,#1485,#1486,#1487,#1488,
#1489),(#1490,#1491,#1492,#1493,#1494,#1495),(#1496,#1497,#1498,#1499,#1500,
#1501),(#1502,#1503,#1504,#1505,#1506,#1507),(#1508,#1509,#1510,#1511,#1512,
#1513)),.UNSPECIFIED.,.F.,.F.,.F.,(4,1,1,1,4),(4,1,1,4),(0.,0.285714285714286,
0.571428571428571,0.785714285714286,1.),(0.,0.285714285714286,0.571428571428571,
1.),.UNSPECIFIED.);
#28=B_SPLINE_CURVE_WITH_KNOTS('',3,(#1366,#1367,#1368,#1369,#1370,#1371,
#1372,#1373,#1374,#1375),.UNSPECIFIED.,.F.,.F.,(4,2,2,2,4),(0.32825363861095,
0.345721193825082,0.364836455415947,0.386221805277251,0.409895794421344),
 .UNSPECIFIED.);
#29=B_SPLINE_CURVE_WITH_KNOTS('',3,(#1384,#1385,#1386,#1387,#1388,#1389,
#1390,#1391,#1392,#1393),.UNSPECIFIED.,.F.,.F.,(4,2,2,2,4),(0.0826193193518946,
0.107263842338223,0.129643472139122,0.149122583897214,0.166279240639637),
 .UNSPECIFIED.);
#30=B_SPLINE_CURVE_WITH_KNOTS('',3,(#1407,#1408,#1409,#1410,#1411,#1412,
#1413,#1414,#1415,#1416),.UNSPECIFIED.,.F.,.F.,(4,2,2,2,4),(0.785222640836976,
0.820828427324686,0.919140138219142,1.0174518491136,1.05305763560132),
 .UNSPECIFIED.);
#31=B_SPLINE_CURVE_WITH_KNOTS('',3,(#1516,#1517,#1518,#1519,#1520,#1521),
 .UNSPECIFIED.,.F.,.F.,(4,1,1,4),(0.,0.285714285714286,0.571428571428571,
1.),.UNSPECIFIED.);
#32=B_SPLINE_CURVE_WITH_KNOTS('',3,(#1525,#1526,#1527,#1528,#1529,#1530),
 .UNSPECIFIED.,.F.,.F.,(4,1,1,4),(-1.,-0.571428571428571,-0.285714285714286,
0.),.UNSPECIFIED.);
#33=B_SPLINE_CURVE_WITH_KNOTS('',3,(#1626,#1627,#1628,#1629,#1630,#1631,
#1632,#1633,#1634,#1635,#1636,#1637,#1638,#1639,#1640),.UNSPECIFIED.,.F.,
 .F.,(4,2,2,3,2,2,4),(-0.11309792744243,-0.110309746281445,-0.0539827236669222,
0.,0.0539827236669213,0.110309746281444,0.113097927442449),
 .UNSPECIFIED.);
#34=B_SPLINE_CURVE_WITH_KNOTS('',3,(#1654,#1655,#1656,#1657,#1658,#1659,
#1660,#1661),.UNSPECIFIED.,.F.,.F.,(4,2,2,4),(0.580498000822284,0.584923691457597,
0.679616377484801,0.769439710038184),.UNSPECIFIED.);
#35=B_SPLINE_CURVE_WITH_KNOTS('',3,(#1675,#1676,#1677,#1678,#1679,#1680,
#1681,#1682),.UNSPECIFIED.,.F.,.F.,(4,2,2,4),(0.769439710038733,0.859263042592178,
0.953955728619453,0.958381419254706),.UNSPECIFIED.);
#36=TOROIDAL_SURFACE('',#959,11.3500000000004,0.5);
#37=TOROIDAL_SURFACE('',#964,10.8500000000005,0.5);
#38=TOROIDAL_SURFACE('',#966,7.,2.);
#39=TOROIDAL_SURFACE('',#991,16.3500000000004,2.);
#40=TOROIDAL_SURFACE('',#1018,14.9357864376261,1.49999999999845);
#41=TOROIDAL_SURFACE('',#1023,17.3500000000004,2.5);
#42=TOROIDAL_SURFACE('',#1039,17.3500000000004,2.50000000000178);
#43=FACE_BOUND('',#127,.T.);
#44=FACE_BOUND('',#147,.T.);
#45=FACE_BOUND('',#149,.T.);
#46=FACE_BOUND('',#167,.T.);
#47=FACE_BOUND('',#170,.T.);
#48=PLANE('',#950);
#49=PLANE('',#954);
#50=PLANE('',#955);
#51=PLANE('',#962);
#52=PLANE('',#977);
#53=PLANE('',#979);
#54=PLANE('',#987);
#55=PLANE('',#996);
#56=PLANE('',#998);
#57=PLANE('',#1002);
#58=PLANE('',#1004);
#59=PLANE('',#1009);
#60=PLANE('',#1010);
#61=PLANE('',#1011);
#62=PLANE('',#1012);
#63=PLANE('',#1013);
#64=PLANE('',#1014);
#65=PLANE('',#1027);
#66=PLANE('',#1028);
#67=PLANE('',#1029);
#68=PLANE('',#1030);
#69=PLANE('',#1032);
#70=PLANE('',#1033);
#71=PLANE('',#1034);
#72=PLANE('',#1035);
#73=FACE_OUTER_BOUND('',#122,.T.);
#74=FACE_OUTER_BOUND('',#123,.T.);
#75=FACE_OUTER_BOUND('',#124,.T.);
#76=FACE_OUTER_BOUND('',#125,.T.);
#77=FACE_OUTER_BOUND('',#126,.T.);
#78=FACE_OUTER_BOUND('',#128,.T.);
#79=FACE_OUTER_BOUND('',#129,.T.);
#80=FACE_OUTER_BOUND('',#130,.T.);
#81=FACE_OUTER_BOUND('',#131,.T.);
#82=FACE_OUTER_BOUND('',#132,.T.);
#83=FACE_OUTER_BOUND('',#133,.T.);
#84=FACE_OUTER_BOUND('',#134,.T.);
#85=FACE_OUTER_BOUND('',#135,.T.);
#86=FACE_OUTER_BOUND('',#136,.T.);
#87=FACE_OUTER_BOUND('',#137,.T.);
#88=FACE_OUTER_BOUND('',#138,.T.);
#89=FACE_OUTER_BOUND('',#139,.T.);
#90=FACE_OUTER_BOUND('',#140,.T.);
#91=FACE_OUTER_BOUND('',#141,.T.);
#92=FACE_OUTER_BOUND('',#142,.T.);
#93=FACE_OUTER_BOUND('',#143,.T.);
#94=FACE_OUTER_BOUND('',#144,.T.);
#95=FACE_OUTER_BOUND('',#145,.T.);
#96=FACE_OUTER_BOUND('',#146,.T.);
#97=FACE_OUTER_BOUND('',#148,.T.);
#98=FACE_OUTER_BOUND('',#150,.T.);
#99=FACE_OUTER_BOUND('',#151,.T.);
#100=FACE_OUTER_BOUND('',#152,.T.);
#101=FACE_OUTER_BOUND('',#153,.T.);
#102=FACE_OUTER_BOUND('',#154,.T.);
#103=FACE_OUTER_BOUND('',#155,.T.);
#104=FACE_OUTER_BOUND('',#156,.T.);
#105=FACE_OUTER_BOUND('',#157,.T.);
#106=FACE_OUTER_BOUND('',#158,.T.);
#107=FACE_OUTER_BOUND('',#159,.T.);
#108=FACE_OUTER_BOUND('',#160,.T.);
#109=FACE_OUTER_BOUND('',#161,.T.);
#110=FACE_OUTER_BOUND('',#162,.T.);
#111=FACE_OUTER_BOUND('',#163,.T.);
#112=FACE_OUTER_BOUND('',#164,.T.);
#113=FACE_OUTER_BOUND('',#165,.T.);
#114=FACE_OUTER_BOUND('',#166,.T.);
#115=FACE_OUTER_BOUND('',#168,.T.);
#116=FACE_OUTER_BOUND('',#169,.T.);
#117=FACE_OUTER_BOUND('',#171,.T.);
#118=FACE_OUTER_BOUND('',#172,.T.);
#119=FACE_OUTER_BOUND('',#173,.T.);
#120=FACE_OUTER_BOUND('',#174,.T.);
#121=FACE_OUTER_BOUND('',#175,.T.);
#122=EDGE_LOOP('',(#601,#602,#603,#604));
#123=EDGE_LOOP('',(#605,#606,#607,#608));
#124=EDGE_LOOP('',(#609,#610,#611,#612));
#125=EDGE_LOOP('',(#613,#614,#615,#616));
#126=EDGE_LOOP('',(#617,#618,#619,#620,#621,#622,#623,#624,#625));
#127=EDGE_LOOP('',(#626));
#128=EDGE_LOOP('',(#627,#628,#629,#630));
#129=EDGE_LOOP('',(#631,#632,#633,#634));
#130=EDGE_LOOP('',(#635,#636,#637,#638));
#131=EDGE_LOOP('',(#639,#640,#641,#642));
#132=EDGE_LOOP('',(#643,#644,#645,#646,#647,#648));
#133=EDGE_LOOP('',(#649,#650,#651,#652));
#134=EDGE_LOOP('',(#653,#654,#655,#656));
#135=EDGE_LOOP('',(#657,#658,#659,#660,#661,#662,#663,#664));
#136=EDGE_LOOP('',(#665,#666,#667,#668,#669,#670,#671,#672,#673,#674,#675,
#676,#677,#678,#679,#680));
#137=EDGE_LOOP('',(#681,#682,#683,#684,#685,#686));
#138=EDGE_LOOP('',(#687,#688,#689,#690,#691,#692,#693));
#139=EDGE_LOOP('',(#694,#695,#696,#697));
#140=EDGE_LOOP('',(#698,#699,#700,#701));
#141=EDGE_LOOP('',(#702,#703,#704,#705));
#142=EDGE_LOOP('',(#706,#707,#708,#709));
#143=EDGE_LOOP('',(#710,#711,#712,#713,#714,#715,#716,#717,#718));
#144=EDGE_LOOP('',(#719,#720,#721,#722));
#145=EDGE_LOOP('',(#723,#724,#725,#726));
#146=EDGE_LOOP('',(#727));
#147=EDGE_LOOP('',(#728));
#148=EDGE_LOOP('',(#729));
#149=EDGE_LOOP('',(#730));
#150=EDGE_LOOP('',(#731,#732,#733,#734));
#151=EDGE_LOOP('',(#735,#736,#737,#738));
#152=EDGE_LOOP('',(#739,#740,#741,#742));
#153=EDGE_LOOP('',(#743,#744,#745,#746));
#154=EDGE_LOOP('',(#747,#748,#749,#750));
#155=EDGE_LOOP('',(#751,#752,#753,#754));
#156=EDGE_LOOP('',(#755,#756,#757,#758,#759,#760,#761,#762,#763,#764,#765,
#766,#767,#768,#769,#770,#771));
#157=EDGE_LOOP('',(#772,#773,#774,#775));
#158=EDGE_LOOP('',(#776,#777,#778,#779));
#159=EDGE_LOOP('',(#780,#781,#782,#783));
#160=EDGE_LOOP('',(#784,#785,#786,#787));
#161=EDGE_LOOP('',(#788,#789,#790,#791));
#162=EDGE_LOOP('',(#792,#793,#794,#795));
#163=EDGE_LOOP('',(#796,#797,#798,#799));
#164=EDGE_LOOP('',(#800,#801,#802,#803));
#165=EDGE_LOOP('',(#804,#805,#806,#807,#808,#809,#810,#811,#812,#813,#814,
#815,#816,#817,#818,#819,#820,#821,#822,#823));
#166=EDGE_LOOP('',(#824,#825,#826,#827));
#167=EDGE_LOOP('',(#828));
#168=EDGE_LOOP('',(#829,#830,#831,#832));
#169=EDGE_LOOP('',(#833,#834,#835,#836,#837,#838));
#170=EDGE_LOOP('',(#839));
#171=EDGE_LOOP('',(#840,#841,#842,#843,#844,#845));
#172=EDGE_LOOP('',(#846,#847,#848,#849));
#173=EDGE_LOOP('',(#850,#851,#852,#853,#854,#855,#856,#857,#858,#859,#860));
#174=EDGE_LOOP('',(#861,#862,#863,#864));
#175=EDGE_LOOP('',(#865,#866,#867,#868));
#176=LINE('',#1322,#255);
#177=LINE('',#1325,#256);
#178=LINE('',#1328,#257);
#179=LINE('',#1330,#258);
#180=LINE('',#1331,#259);
#181=LINE('',#1337,#260);
#182=LINE('',#1340,#261);
#183=LINE('',#1343,#262);
#184=LINE('',#1345,#263);
#185=LINE('',#1346,#264);
#186=LINE('',#1349,#265);
#187=LINE('',#1353,#266);
#188=LINE('',#1357,#267);
#189=LINE('',#1359,#268);
#190=LINE('',#1360,#269);
#191=LINE('',#1380,#270);
#192=LINE('',#1418,#271);
#193=LINE('',#1421,#272);
#194=LINE('',#1422,#273);
#195=LINE('',#1427,#274);
#196=LINE('',#1428,#275);
#197=LINE('',#1433,#276);
#198=LINE('',#1434,#277);
#199=LINE('',#1437,#278);
#200=LINE('',#1439,#279);
#201=LINE('',#1441,#280);
#202=LINE('',#1443,#281);
#203=LINE('',#1447,#282);
#204=LINE('',#1448,#283);
#205=LINE('',#1450,#284);
#206=LINE('',#1452,#285);
#207=LINE('',#1458,#286);
#208=LINE('',#1461,#287);
#209=LINE('',#1462,#288);
#210=LINE('',#1467,#289);
#211=LINE('',#1471,#290);
#212=LINE('',#1533,#291);
#213=LINE('',#1534,#292);
#214=LINE('',#1542,#293);
#215=LINE('',#1543,#294);
#216=LINE('',#1546,#295);
#217=LINE('',#1548,#296);
#218=LINE('',#1550,#297);
#219=LINE('',#1553,#298);
#220=LINE('',#1559,#299);
#221=LINE('',#1568,#300);
#222=LINE('',#1571,#301);
#223=LINE('',#1576,#302);
#224=LINE('',#1578,#303);
#225=LINE('',#1580,#304);
#226=LINE('',#1581,#305);
#227=LINE('',#1585,#306);
#228=LINE('',#1587,#307);
#229=LINE('',#1589,#308);
#230=LINE('',#1590,#309);
#231=LINE('',#1592,#310);
#232=LINE('',#1593,#311);
#233=LINE('',#1595,#312);
#234=LINE('',#1598,#313);
#235=LINE('',#1600,#314);
#236=LINE('',#1601,#315);
#237=LINE('',#1603,#316);
#238=LINE('',#1604,#317);
#239=LINE('',#1605,#318);
#240=LINE('',#1607,#319);
#241=LINE('',#1608,#320);
#242=LINE('',#1611,#321);
#243=LINE('',#1612,#322);
#244=LINE('',#1622,#323);
#245=LINE('',#1651,#324);
#246=LINE('',#1666,#325);
#247=LINE('',#1667,#326);
#248=LINE('',#1669,#327);
#249=LINE('',#1671,#328);
#250=LINE('',#1672,#329);
#251=LINE('',#1683,#330);
#252=LINE('',#1686,#331);
#253=LINE('',#1689,#332);
#254=LINE('',#1693,#333);
#255=VECTOR('',#1050,10.);
#256=VECTOR('',#1053,10.);
#257=VECTOR('',#1056,10.);
#258=VECTOR('',#1057,10.);
#259=VECTOR('',#1058,10.);
#260=VECTOR('',#1063,10.);
#261=VECTOR('',#1066,10.);
#262=VECTOR('',#1069,10.);
#263=VECTOR('',#1070,10.);
#264=VECTOR('',#1071,10.);
#265=VECTOR('',#1074,10.);
#266=VECTOR('',#1077,10.);
#267=VECTOR('',#1080,10.);
#268=VECTOR('',#1081,10.);
#269=VECTOR('',#1082,10.);
#270=VECTOR('',#1093,10.);
#271=VECTOR('',#1112,10.);
#272=VECTOR('',#1115,10.);
#273=VECTOR('',#1116,10.);
#274=VECTOR('',#1121,10.);
#275=VECTOR('',#1122,10.);
#276=VECTOR('',#1127,10.);
#277=VECTOR('',#1128,10.);
#278=VECTOR('',#1131,10.);
#279=VECTOR('',#1132,10.);
#280=VECTOR('',#1133,10.);
#281=VECTOR('',#1134,10.);
#282=VECTOR('',#1137,10.);
#283=VECTOR('',#1138,10.);
#284=VECTOR('',#1141,10.);
#285=VECTOR('',#1142,10.);
#286=VECTOR('',#1147,10.);
#287=VECTOR('',#1150,10.);
#288=VECTOR('',#1151,10.);
#289=VECTOR('',#1156,2.);
#290=VECTOR('',#1163,10.);
#291=VECTOR('',#1170,10.);
#292=VECTOR('',#1171,10.);
#293=VECTOR('',#1182,10.);
#294=VECTOR('',#1183,10.);
#295=VECTOR('',#1186,10.);
#296=VECTOR('',#1187,10.);
#297=VECTOR('',#1188,10.);
#298=VECTOR('',#1191,10.);
#299=VECTOR('',#1198,2.);
#300=VECTOR('',#1211,1.05);
#301=VECTOR('',#1214,1.05);
#302=VECTOR('',#1219,10.);
#303=VECTOR('',#1220,10.);
#304=VECTOR('',#1221,10.);
#305=VECTOR('',#1222,10.);
#306=VECTOR('',#1225,10.);
#307=VECTOR('',#1226,10.);
#308=VECTOR('',#1227,10.);
#309=VECTOR('',#1228,10.);
#310=VECTOR('',#1231,10.);
#311=VECTOR('',#1232,10.);
#312=VECTOR('',#1235,10.);
#313=VECTOR('',#1238,10.);
#314=VECTOR('',#1239,10.);
#315=VECTOR('',#1240,10.);
#316=VECTOR('',#1241,10.);
#317=VECTOR('',#1242,10.);
#318=VECTOR('',#1243,10.);
#319=VECTOR('',#1244,10.);
#320=VECTOR('',#1245,10.);
#321=VECTOR('',#1248,10.);
#322=VECTOR('',#1249,10.);
#323=VECTOR('',#1254,10.);
#324=VECTOR('',#1267,10.);
#325=VECTOR('',#1276,10.);
#326=VECTOR('',#1277,10.);
#327=VECTOR('',#1280,10.);
#328=VECTOR('',#1283,10.);
#329=VECTOR('',#1284,10.);
#330=VECTOR('',#1287,10.);
#331=VECTOR('',#1292,10.);
#332=VECTOR('',#1297,10.);
#333=VECTOR('',#1302,10.);
#334=CIRCLE('',#948,2.);
#335=CIRCLE('',#949,2.);
#336=CIRCLE('',#952,2.);
#337=CIRCLE('',#953,2.);
#338=CIRCLE('',#956,0.5);
#339=CIRCLE('',#957,0.5);
#340=CIRCLE('',#958,1.05);
#341=CIRCLE('',#960,11.3500000000004);
#342=CIRCLE('',#961,11.8500000000004);
#343=CIRCLE('',#963,10.8500000000005);
#344=CIRCLE('',#965,10.3500000000005);
#345=CIRCLE('',#967,7.);
#346=CIRCLE('',#968,2.);
#347=CIRCLE('',#969,5.);
#348=CIRCLE('',#970,1.99999999999999);
#349=CIRCLE('',#972,2.);
#350=CIRCLE('',#974,2.);
#351=CIRCLE('',#976,5.);
#352=CIRCLE('',#978,1.5);
#353=CIRCLE('',#980,6.);
#354=CIRCLE('',#981,18.3500000000004);
#355=CIRCLE('',#982,14.8500000000004);
#356=CIRCLE('',#984,2.);
#357=CIRCLE('',#985,2.);
#358=CIRCLE('',#986,2.);
#359=CIRCLE('',#988,1.5);
#360=CIRCLE('',#989,2.);
#361=CIRCLE('',#992,2.);
#362=CIRCLE('',#993,18.3500000000004);
#363=CIRCLE('',#994,16.3500000000004);
#364=CIRCLE('',#997,14.8500000000004);
#365=CIRCLE('',#1000,2.);
#366=CIRCLE('',#1001,2.);
#367=CIRCLE('',#1003,1.05);
#368=CIRCLE('',#1005,1.05);
#369=CIRCLE('',#1008,1.05);
#370=CIRCLE('',#1016,15.9964466094052);
#371=CIRCLE('',#1017,15.5822330470321);
#372=CIRCLE('',#1019,15.9964466094066);
#373=CIRCLE('',#1020,1.49999999999845);
#374=CIRCLE('',#1022,15.5822330470338);
#375=CIRCLE('',#1024,14.8500000000005);
#376=CIRCLE('',#1025,2.5);
#377=CIRCLE('',#1036,2.50000000000178);
#378=CIRCLE('',#1038,14.8500000000004);
#379=VERTEX_POINT('',#1318);
#380=VERTEX_POINT('',#1319);
#381=VERTEX_POINT('',#1321);
#382=VERTEX_POINT('',#1323);
#383=VERTEX_POINT('',#1327);
#384=VERTEX_POINT('',#1329);
#385=VERTEX_POINT('',#1333);
#386=VERTEX_POINT('',#1334);
#387=VERTEX_POINT('',#1336);
#388=VERTEX_POINT('',#1338);
#389=VERTEX_POINT('',#1342);
#390=VERTEX_POINT('',#1344);
#391=VERTEX_POINT('',#1348);
#392=VERTEX_POINT('',#1350);
#393=VERTEX_POINT('',#1352);
#394=VERTEX_POINT('',#1354);
#395=VERTEX_POINT('',#1356);
#396=VERTEX_POINT('',#1358);
#397=VERTEX_POINT('',#1361);
#398=VERTEX_POINT('',#1364);
#399=VERTEX_POINT('',#1365);
#400=VERTEX_POINT('',#1379);
#401=VERTEX_POINT('',#1383);
#402=VERTEX_POINT('',#1396);
#403=VERTEX_POINT('',#1397);
#404=VERTEX_POINT('',#1399);
#405=VERTEX_POINT('',#1401);
#406=VERTEX_POINT('',#1405);
#407=VERTEX_POINT('',#1406);
#408=VERTEX_POINT('',#1417);
#409=VERTEX_POINT('',#1419);
#410=VERTEX_POINT('',#1424);
#411=VERTEX_POINT('',#1425);
#412=VERTEX_POINT('',#1430);
#413=VERTEX_POINT('',#1431);
#414=VERTEX_POINT('',#1436);
#415=VERTEX_POINT('',#1438);
#416=VERTEX_POINT('',#1440);
#417=VERTEX_POINT('',#1442);
#418=VERTEX_POINT('',#1444);
#419=VERTEX_POINT('',#1446);
#420=VERTEX_POINT('',#1451);
#421=VERTEX_POINT('',#1453);
#422=VERTEX_POINT('',#1455);
#423=VERTEX_POINT('',#1457);
#424=VERTEX_POINT('',#1459);
#425=VERTEX_POINT('',#1464);
#426=VERTEX_POINT('',#1466);
#427=VERTEX_POINT('',#1514);
#428=VERTEX_POINT('',#1515);
#429=VERTEX_POINT('',#1522);
#430=VERTEX_POINT('',#1524);
#431=VERTEX_POINT('',#1536);
#432=VERTEX_POINT('',#1537);
#433=VERTEX_POINT('',#1545);
#434=VERTEX_POINT('',#1547);
#435=VERTEX_POINT('',#1549);
#436=VERTEX_POINT('',#1551);
#437=VERTEX_POINT('',#1556);
#438=VERTEX_POINT('',#1558);
#439=VERTEX_POINT('',#1562);
#440=VERTEX_POINT('',#1565);
#441=VERTEX_POINT('',#1570);
#442=VERTEX_POINT('',#1574);
#443=VERTEX_POINT('',#1575);
#444=VERTEX_POINT('',#1577);
#445=VERTEX_POINT('',#1579);
#446=VERTEX_POINT('',#1583);
#447=VERTEX_POINT('',#1584);
#448=VERTEX_POINT('',#1586);
#449=VERTEX_POINT('',#1588);
#450=VERTEX_POINT('',#1597);
#451=VERTEX_POINT('',#1599);
#452=VERTEX_POINT('',#1602);
#453=VERTEX_POINT('',#1606);
#454=VERTEX_POINT('',#1610);
#455=VERTEX_POINT('',#1614);
#456=VERTEX_POINT('',#1615);
#457=VERTEX_POINT('',#1619);
#458=VERTEX_POINT('',#1621);
#459=VERTEX_POINT('',#1625);
#460=VERTEX_POINT('',#1641);
#461=VERTEX_POINT('',#1645);
#462=VERTEX_POINT('',#1649);
#463=VERTEX_POINT('',#1653);
#464=VERTEX_POINT('',#1662);
#465=VERTEX_POINT('',#1674);
#466=VERTEX_POINT('',#1692);
#467=EDGE_CURVE('',#379,#380,#334,.T.);
#468=EDGE_CURVE('',#380,#381,#176,.T.);
#469=EDGE_CURVE('',#381,#382,#335,.F.);
#470=EDGE_CURVE('',#382,#379,#177,.T.);
#471=EDGE_CURVE('',#382,#383,#178,.T.);
#472=EDGE_CURVE('',#384,#383,#179,.T.);
#473=EDGE_CURVE('',#379,#384,#180,.T.);
#474=EDGE_CURVE('',#385,#386,#336,.T.);
#475=EDGE_CURVE('',#386,#387,#181,.T.);
#476=EDGE_CURVE('',#387,#388,#337,.T.);
#477=EDGE_CURVE('',#388,#385,#182,.T.);
#478=EDGE_CURVE('',#388,#389,#183,.T.);
#479=EDGE_CURVE('',#390,#389,#184,.T.);
#480=EDGE_CURVE('',#385,#390,#185,.T.);
#481=EDGE_CURVE('',#387,#391,#186,.T.);
#482=EDGE_CURVE('',#392,#391,#338,.T.);
#483=EDGE_CURVE('',#393,#392,#187,.T.);
#484=EDGE_CURVE('',#394,#393,#339,.T.);
#485=EDGE_CURVE('',#394,#395,#188,.T.);
#486=EDGE_CURVE('',#395,#396,#189,.T.);
#487=EDGE_CURVE('',#389,#396,#190,.T.);
#488=EDGE_CURVE('',#397,#397,#340,.T.);
#489=EDGE_CURVE('',#398,#399,#28,.T.);
#490=EDGE_CURVE('',#399,#392,#341,.T.);
#491=EDGE_CURVE('',#398,#391,#342,.T.);
#492=EDGE_CURVE('',#399,#400,#191,.T.);
#493=EDGE_CURVE('',#393,#400,#343,.T.);
#494=EDGE_CURVE('',#400,#401,#29,.T.);
#495=EDGE_CURVE('',#394,#401,#344,.T.);
#496=EDGE_CURVE('',#402,#403,#345,.T.);
#497=EDGE_CURVE('',#404,#403,#346,.T.);
#498=EDGE_CURVE('',#405,#404,#347,.F.);
#499=EDGE_CURVE('',#402,#405,#348,.T.);
#500=EDGE_CURVE('',#406,#407,#30,.T.);
#501=EDGE_CURVE('',#407,#408,#192,.T.);
#502=EDGE_CURVE('',#408,#409,#349,.T.);
#503=EDGE_CURVE('',#409,#402,#193,.T.);
#504=EDGE_CURVE('',#405,#406,#194,.T.);
#505=EDGE_CURVE('',#410,#411,#350,.T.);
#506=EDGE_CURVE('',#411,#404,#195,.T.);
#507=EDGE_CURVE('',#403,#410,#196,.T.);
#508=EDGE_CURVE('',#412,#413,#351,.T.);
#509=EDGE_CURVE('',#413,#405,#197,.T.);
#510=EDGE_CURVE('',#404,#412,#198,.T.);
#511=EDGE_CURVE('',#408,#414,#199,.T.);
#512=EDGE_CURVE('',#415,#414,#200,.T.);
#513=EDGE_CURVE('',#416,#415,#201,.T.);
#514=EDGE_CURVE('',#416,#417,#202,.T.);
#515=EDGE_CURVE('',#418,#417,#352,.T.);
#516=EDGE_CURVE('',#419,#418,#203,.T.);
#517=EDGE_CURVE('',#409,#419,#204,.T.);
#518=EDGE_CURVE('',#380,#410,#205,.T.);
#519=EDGE_CURVE('',#419,#420,#206,.T.);
#520=EDGE_CURVE('',#420,#421,#353,.T.);
#521=EDGE_CURVE('',#422,#421,#354,.T.);
#522=EDGE_CURVE('',#423,#422,#207,.T.);
#523=EDGE_CURVE('',#423,#424,#355,.T.);
#524=EDGE_CURVE('',#424,#398,#208,.T.);
#525=EDGE_CURVE('',#381,#386,#209,.T.);
#526=EDGE_CURVE('',#425,#406,#356,.T.);
#527=EDGE_CURVE('',#425,#426,#210,.T.);
#528=EDGE_CURVE('',#426,#426,#357,.F.);
#529=EDGE_CURVE('',#407,#425,#358,.T.);
#530=EDGE_CURVE('',#414,#413,#211,.T.);
#531=EDGE_CURVE('',#427,#428,#31,.F.);
#532=EDGE_CURVE('',#429,#427,#359,.T.);
#533=EDGE_CURVE('',#429,#430,#32,.T.);
#534=EDGE_CURVE('',#428,#430,#360,.T.);
#535=EDGE_CURVE('',#417,#429,#212,.T.);
#536=EDGE_CURVE('',#427,#418,#213,.T.);
#537=EDGE_CURVE('',#431,#432,#361,.T.);
#538=EDGE_CURVE('',#432,#428,#362,.T.);
#539=EDGE_CURVE('',#430,#431,#363,.T.);
#540=EDGE_CURVE('',#420,#427,#214,.T.);
#541=EDGE_CURVE('',#428,#421,#215,.T.);
#542=EDGE_CURVE('',#433,#416,#216,.T.);
#543=EDGE_CURVE('',#434,#433,#217,.T.);
#544=EDGE_CURVE('',#434,#435,#218,.T.);
#545=EDGE_CURVE('',#436,#435,#364,.T.);
#546=EDGE_CURVE('',#431,#436,#219,.T.);
#547=EDGE_CURVE('',#437,#437,#365,.T.);
#548=EDGE_CURVE('',#437,#438,#220,.T.);
#549=EDGE_CURVE('',#438,#438,#366,.F.);
#550=EDGE_CURVE('',#439,#439,#367,.T.);
#551=EDGE_CURVE('',#440,#440,#368,.T.);
#552=EDGE_CURVE('',#439,#397,#221,.T.);
#553=EDGE_CURVE('',#440,#441,#222,.T.);
#554=EDGE_CURVE('',#441,#441,#369,.T.);
#555=EDGE_CURVE('',#442,#443,#223,.T.);
#556=EDGE_CURVE('',#444,#442,#224,.T.);
#557=EDGE_CURVE('',#444,#445,#225,.T.);
#558=EDGE_CURVE('',#443,#445,#226,.T.);
#559=EDGE_CURVE('',#446,#447,#227,.T.);
#560=EDGE_CURVE('',#446,#448,#228,.T.);
#561=EDGE_CURVE('',#448,#449,#229,.T.);
#562=EDGE_CURVE('',#447,#449,#230,.T.);
#563=EDGE_CURVE('',#443,#446,#231,.T.);
#564=EDGE_CURVE('',#445,#448,#232,.T.);
#565=EDGE_CURVE('',#449,#444,#233,.T.);
#566=EDGE_CURVE('',#442,#450,#234,.T.);
#567=EDGE_CURVE('',#450,#451,#235,.T.);
#568=EDGE_CURVE('',#451,#415,#236,.T.);
#569=EDGE_CURVE('',#412,#452,#237,.T.);
#570=EDGE_CURVE('',#452,#384,#238,.T.);
#571=EDGE_CURVE('',#383,#390,#239,.T.);
#572=EDGE_CURVE('',#396,#453,#240,.T.);
#573=EDGE_CURVE('',#453,#447,#241,.T.);
#574=EDGE_CURVE('',#454,#395,#242,.T.);
#575=EDGE_CURVE('',#453,#454,#243,.T.);
#576=EDGE_CURVE('',#455,#456,#23,.T.);
#577=EDGE_CURVE('',#457,#456,#370,.T.);
#578=EDGE_CURVE('',#458,#457,#244,.T.);
#579=EDGE_CURVE('',#458,#455,#371,.T.);
#580=EDGE_CURVE('',#456,#459,#33,.T.);
#581=EDGE_CURVE('',#460,#459,#372,.T.);
#582=EDGE_CURVE('',#457,#460,#373,.T.);
#583=EDGE_CURVE('',#459,#461,#24,.T.);
#584=EDGE_CURVE('',#462,#461,#374,.T.);
#585=EDGE_CURVE('',#460,#462,#245,.T.);
#586=EDGE_CURVE('',#461,#463,#34,.T.);
#587=EDGE_CURVE('',#463,#464,#375,.T.);
#588=EDGE_CURVE('',#462,#464,#376,.T.);
#589=EDGE_CURVE('',#463,#424,#246,.T.);
#590=EDGE_CURVE('',#464,#423,#247,.T.);
#591=EDGE_CURVE('',#401,#454,#248,.T.);
#592=EDGE_CURVE('',#450,#434,#249,.T.);
#593=EDGE_CURVE('',#451,#433,#250,.T.);
#594=EDGE_CURVE('',#465,#455,#35,.T.);
#595=EDGE_CURVE('',#435,#465,#251,.T.);
#596=EDGE_CURVE('',#422,#432,#252,.T.);
#597=EDGE_CURVE('',#411,#452,#253,.T.);
#598=EDGE_CURVE('',#436,#466,#254,.T.);
#599=EDGE_CURVE('',#466,#458,#377,.T.);
#600=EDGE_CURVE('',#466,#465,#378,.T.);
#601=ORIENTED_EDGE('',*,*,#467,.T.);
#602=ORIENTED_EDGE('',*,*,#468,.T.);
#603=ORIENTED_EDGE('',*,*,#469,.T.);
#604=ORIENTED_EDGE('',*,*,#470,.T.);
#605=ORIENTED_EDGE('',*,*,#470,.F.);
#606=ORIENTED_EDGE('',*,*,#471,.T.);
#607=ORIENTED_EDGE('',*,*,#472,.F.);
#608=ORIENTED_EDGE('',*,*,#473,.F.);
#609=ORIENTED_EDGE('',*,*,#474,.T.);
#610=ORIENTED_EDGE('',*,*,#475,.T.);
#611=ORIENTED_EDGE('',*,*,#476,.T.);
#612=ORIENTED_EDGE('',*,*,#477,.T.);
#613=ORIENTED_EDGE('',*,*,#477,.F.);
#614=ORIENTED_EDGE('',*,*,#478,.T.);
#615=ORIENTED_EDGE('',*,*,#479,.F.);
#616=ORIENTED_EDGE('',*,*,#480,.F.);
#617=ORIENTED_EDGE('',*,*,#476,.F.);
#618=ORIENTED_EDGE('',*,*,#481,.T.);
#619=ORIENTED_EDGE('',*,*,#482,.F.);
#620=ORIENTED_EDGE('',*,*,#483,.F.);
#621=ORIENTED_EDGE('',*,*,#484,.F.);
#622=ORIENTED_EDGE('',*,*,#485,.T.);
#623=ORIENTED_EDGE('',*,*,#486,.T.);
#624=ORIENTED_EDGE('',*,*,#487,.F.);
#625=ORIENTED_EDGE('',*,*,#478,.F.);
#626=ORIENTED_EDGE('',*,*,#488,.T.);
#627=ORIENTED_EDGE('',*,*,#489,.T.);
#628=ORIENTED_EDGE('',*,*,#490,.T.);
#629=ORIENTED_EDGE('',*,*,#482,.T.);
#630=ORIENTED_EDGE('',*,*,#491,.F.);
#631=ORIENTED_EDGE('',*,*,#490,.F.);
#632=ORIENTED_EDGE('',*,*,#492,.T.);
#633=ORIENTED_EDGE('',*,*,#493,.F.);
#634=ORIENTED_EDGE('',*,*,#483,.T.);
#635=ORIENTED_EDGE('',*,*,#484,.T.);
#636=ORIENTED_EDGE('',*,*,#493,.T.);
#637=ORIENTED_EDGE('',*,*,#494,.T.);
#638=ORIENTED_EDGE('',*,*,#495,.F.);
#639=ORIENTED_EDGE('',*,*,#496,.T.);
#640=ORIENTED_EDGE('',*,*,#497,.F.);
#641=ORIENTED_EDGE('',*,*,#498,.F.);
#642=ORIENTED_EDGE('',*,*,#499,.F.);
#643=ORIENTED_EDGE('',*,*,#500,.T.);
#644=ORIENTED_EDGE('',*,*,#501,.T.);
#645=ORIENTED_EDGE('',*,*,#502,.T.);
#646=ORIENTED_EDGE('',*,*,#503,.T.);
#647=ORIENTED_EDGE('',*,*,#499,.T.);
#648=ORIENTED_EDGE('',*,*,#504,.T.);
#649=ORIENTED_EDGE('',*,*,#505,.T.);
#650=ORIENTED_EDGE('',*,*,#506,.T.);
#651=ORIENTED_EDGE('',*,*,#497,.T.);
#652=ORIENTED_EDGE('',*,*,#507,.T.);
#653=ORIENTED_EDGE('',*,*,#508,.T.);
#654=ORIENTED_EDGE('',*,*,#509,.T.);
#655=ORIENTED_EDGE('',*,*,#498,.T.);
#656=ORIENTED_EDGE('',*,*,#510,.T.);
#657=ORIENTED_EDGE('',*,*,#502,.F.);
#658=ORIENTED_EDGE('',*,*,#511,.T.);
#659=ORIENTED_EDGE('',*,*,#512,.F.);
#660=ORIENTED_EDGE('',*,*,#513,.F.);
#661=ORIENTED_EDGE('',*,*,#514,.T.);
#662=ORIENTED_EDGE('',*,*,#515,.F.);
#663=ORIENTED_EDGE('',*,*,#516,.F.);
#664=ORIENTED_EDGE('',*,*,#517,.F.);
#665=ORIENTED_EDGE('',*,*,#468,.F.);
#666=ORIENTED_EDGE('',*,*,#518,.T.);
#667=ORIENTED_EDGE('',*,*,#507,.F.);
#668=ORIENTED_EDGE('',*,*,#496,.F.);
#669=ORIENTED_EDGE('',*,*,#503,.F.);
#670=ORIENTED_EDGE('',*,*,#517,.T.);
#671=ORIENTED_EDGE('',*,*,#519,.T.);
#672=ORIENTED_EDGE('',*,*,#520,.T.);
#673=ORIENTED_EDGE('',*,*,#521,.F.);
#674=ORIENTED_EDGE('',*,*,#522,.F.);
#675=ORIENTED_EDGE('',*,*,#523,.T.);
#676=ORIENTED_EDGE('',*,*,#524,.T.);
#677=ORIENTED_EDGE('',*,*,#491,.T.);
#678=ORIENTED_EDGE('',*,*,#481,.F.);
#679=ORIENTED_EDGE('',*,*,#475,.F.);
#680=ORIENTED_EDGE('',*,*,#525,.F.);
#681=ORIENTED_EDGE('',*,*,#500,.F.);
#682=ORIENTED_EDGE('',*,*,#526,.F.);
#683=ORIENTED_EDGE('',*,*,#527,.T.);
#684=ORIENTED_EDGE('',*,*,#528,.F.);
#685=ORIENTED_EDGE('',*,*,#527,.F.);
#686=ORIENTED_EDGE('',*,*,#529,.F.);
#687=ORIENTED_EDGE('',*,*,#501,.F.);
#688=ORIENTED_EDGE('',*,*,#529,.T.);
#689=ORIENTED_EDGE('',*,*,#526,.T.);
#690=ORIENTED_EDGE('',*,*,#504,.F.);
#691=ORIENTED_EDGE('',*,*,#509,.F.);
#692=ORIENTED_EDGE('',*,*,#530,.F.);
#693=ORIENTED_EDGE('',*,*,#511,.F.);
#694=ORIENTED_EDGE('',*,*,#531,.F.);
#695=ORIENTED_EDGE('',*,*,#532,.F.);
#696=ORIENTED_EDGE('',*,*,#533,.T.);
#697=ORIENTED_EDGE('',*,*,#534,.F.);
#698=ORIENTED_EDGE('',*,*,#515,.T.);
#699=ORIENTED_EDGE('',*,*,#535,.T.);
#700=ORIENTED_EDGE('',*,*,#532,.T.);
#701=ORIENTED_EDGE('',*,*,#536,.T.);
#702=ORIENTED_EDGE('',*,*,#537,.T.);
#703=ORIENTED_EDGE('',*,*,#538,.T.);
#704=ORIENTED_EDGE('',*,*,#534,.T.);
#705=ORIENTED_EDGE('',*,*,#539,.T.);
#706=ORIENTED_EDGE('',*,*,#520,.F.);
#707=ORIENTED_EDGE('',*,*,#540,.T.);
#708=ORIENTED_EDGE('',*,*,#531,.T.);
#709=ORIENTED_EDGE('',*,*,#541,.T.);
#710=ORIENTED_EDGE('',*,*,#539,.F.);
#711=ORIENTED_EDGE('',*,*,#533,.F.);
#712=ORIENTED_EDGE('',*,*,#535,.F.);
#713=ORIENTED_EDGE('',*,*,#514,.F.);
#714=ORIENTED_EDGE('',*,*,#542,.F.);
#715=ORIENTED_EDGE('',*,*,#543,.F.);
#716=ORIENTED_EDGE('',*,*,#544,.T.);
#717=ORIENTED_EDGE('',*,*,#545,.F.);
#718=ORIENTED_EDGE('',*,*,#546,.F.);
#719=ORIENTED_EDGE('',*,*,#536,.F.);
#720=ORIENTED_EDGE('',*,*,#540,.F.);
#721=ORIENTED_EDGE('',*,*,#519,.F.);
#722=ORIENTED_EDGE('',*,*,#516,.T.);
#723=ORIENTED_EDGE('',*,*,#547,.F.);
#724=ORIENTED_EDGE('',*,*,#548,.T.);
#725=ORIENTED_EDGE('',*,*,#549,.F.);
#726=ORIENTED_EDGE('',*,*,#548,.F.);
#727=ORIENTED_EDGE('',*,*,#549,.T.);
#728=ORIENTED_EDGE('',*,*,#550,.F.);
#729=ORIENTED_EDGE('',*,*,#528,.T.);
#730=ORIENTED_EDGE('',*,*,#551,.F.);
#731=ORIENTED_EDGE('',*,*,#550,.T.);
#732=ORIENTED_EDGE('',*,*,#552,.T.);
#733=ORIENTED_EDGE('',*,*,#488,.F.);
#734=ORIENTED_EDGE('',*,*,#552,.F.);
#735=ORIENTED_EDGE('',*,*,#551,.T.);
#736=ORIENTED_EDGE('',*,*,#553,.T.);
#737=ORIENTED_EDGE('',*,*,#554,.F.);
#738=ORIENTED_EDGE('',*,*,#553,.F.);
#739=ORIENTED_EDGE('',*,*,#555,.F.);
#740=ORIENTED_EDGE('',*,*,#556,.F.);
#741=ORIENTED_EDGE('',*,*,#557,.T.);
#742=ORIENTED_EDGE('',*,*,#558,.F.);
#743=ORIENTED_EDGE('',*,*,#559,.F.);
#744=ORIENTED_EDGE('',*,*,#560,.T.);
#745=ORIENTED_EDGE('',*,*,#561,.T.);
#746=ORIENTED_EDGE('',*,*,#562,.F.);
#747=ORIENTED_EDGE('',*,*,#563,.F.);
#748=ORIENTED_EDGE('',*,*,#558,.T.);
#749=ORIENTED_EDGE('',*,*,#564,.T.);
#750=ORIENTED_EDGE('',*,*,#560,.F.);
#751=ORIENTED_EDGE('',*,*,#564,.F.);
#752=ORIENTED_EDGE('',*,*,#557,.F.);
#753=ORIENTED_EDGE('',*,*,#565,.F.);
#754=ORIENTED_EDGE('',*,*,#561,.F.);
#755=ORIENTED_EDGE('',*,*,#562,.T.);
#756=ORIENTED_EDGE('',*,*,#565,.T.);
#757=ORIENTED_EDGE('',*,*,#556,.T.);
#758=ORIENTED_EDGE('',*,*,#566,.T.);
#759=ORIENTED_EDGE('',*,*,#567,.T.);
#760=ORIENTED_EDGE('',*,*,#568,.T.);
#761=ORIENTED_EDGE('',*,*,#512,.T.);
#762=ORIENTED_EDGE('',*,*,#530,.T.);
#763=ORIENTED_EDGE('',*,*,#508,.F.);
#764=ORIENTED_EDGE('',*,*,#569,.T.);
#765=ORIENTED_EDGE('',*,*,#570,.T.);
#766=ORIENTED_EDGE('',*,*,#472,.T.);
#767=ORIENTED_EDGE('',*,*,#571,.T.);
#768=ORIENTED_EDGE('',*,*,#479,.T.);
#769=ORIENTED_EDGE('',*,*,#487,.T.);
#770=ORIENTED_EDGE('',*,*,#572,.T.);
#771=ORIENTED_EDGE('',*,*,#573,.T.);
#772=ORIENTED_EDGE('',*,*,#574,.F.);
#773=ORIENTED_EDGE('',*,*,#575,.F.);
#774=ORIENTED_EDGE('',*,*,#572,.F.);
#775=ORIENTED_EDGE('',*,*,#486,.F.);
#776=ORIENTED_EDGE('',*,*,#576,.T.);
#777=ORIENTED_EDGE('',*,*,#577,.F.);
#778=ORIENTED_EDGE('',*,*,#578,.F.);
#779=ORIENTED_EDGE('',*,*,#579,.T.);
#780=ORIENTED_EDGE('',*,*,#580,.T.);
#781=ORIENTED_EDGE('',*,*,#581,.F.);
#782=ORIENTED_EDGE('',*,*,#582,.F.);
#783=ORIENTED_EDGE('',*,*,#577,.T.);
#784=ORIENTED_EDGE('',*,*,#583,.T.);
#785=ORIENTED_EDGE('',*,*,#584,.F.);
#786=ORIENTED_EDGE('',*,*,#585,.F.);
#787=ORIENTED_EDGE('',*,*,#581,.T.);
#788=ORIENTED_EDGE('',*,*,#586,.T.);
#789=ORIENTED_EDGE('',*,*,#587,.T.);
#790=ORIENTED_EDGE('',*,*,#588,.F.);
#791=ORIENTED_EDGE('',*,*,#584,.T.);
#792=ORIENTED_EDGE('',*,*,#589,.T.);
#793=ORIENTED_EDGE('',*,*,#523,.F.);
#794=ORIENTED_EDGE('',*,*,#590,.F.);
#795=ORIENTED_EDGE('',*,*,#587,.F.);
#796=ORIENTED_EDGE('',*,*,#591,.T.);
#797=ORIENTED_EDGE('',*,*,#574,.T.);
#798=ORIENTED_EDGE('',*,*,#485,.F.);
#799=ORIENTED_EDGE('',*,*,#495,.T.);
#800=ORIENTED_EDGE('',*,*,#592,.T.);
#801=ORIENTED_EDGE('',*,*,#543,.T.);
#802=ORIENTED_EDGE('',*,*,#593,.F.);
#803=ORIENTED_EDGE('',*,*,#567,.F.);
#804=ORIENTED_EDGE('',*,*,#489,.F.);
#805=ORIENTED_EDGE('',*,*,#524,.F.);
#806=ORIENTED_EDGE('',*,*,#589,.F.);
#807=ORIENTED_EDGE('',*,*,#586,.F.);
#808=ORIENTED_EDGE('',*,*,#583,.F.);
#809=ORIENTED_EDGE('',*,*,#580,.F.);
#810=ORIENTED_EDGE('',*,*,#576,.F.);
#811=ORIENTED_EDGE('',*,*,#594,.F.);
#812=ORIENTED_EDGE('',*,*,#595,.F.);
#813=ORIENTED_EDGE('',*,*,#544,.F.);
#814=ORIENTED_EDGE('',*,*,#592,.F.);
#815=ORIENTED_EDGE('',*,*,#566,.F.);
#816=ORIENTED_EDGE('',*,*,#555,.T.);
#817=ORIENTED_EDGE('',*,*,#563,.T.);
#818=ORIENTED_EDGE('',*,*,#559,.T.);
#819=ORIENTED_EDGE('',*,*,#573,.F.);
#820=ORIENTED_EDGE('',*,*,#575,.T.);
#821=ORIENTED_EDGE('',*,*,#591,.F.);
#822=ORIENTED_EDGE('',*,*,#494,.F.);
#823=ORIENTED_EDGE('',*,*,#492,.F.);
#824=ORIENTED_EDGE('',*,*,#593,.T.);
#825=ORIENTED_EDGE('',*,*,#542,.T.);
#826=ORIENTED_EDGE('',*,*,#513,.T.);
#827=ORIENTED_EDGE('',*,*,#568,.F.);
#828=ORIENTED_EDGE('',*,*,#554,.T.);
#829=ORIENTED_EDGE('',*,*,#538,.F.);
#830=ORIENTED_EDGE('',*,*,#596,.F.);
#831=ORIENTED_EDGE('',*,*,#521,.T.);
#832=ORIENTED_EDGE('',*,*,#541,.F.);
#833=ORIENTED_EDGE('',*,*,#474,.F.);
#834=ORIENTED_EDGE('',*,*,#480,.T.);
#835=ORIENTED_EDGE('',*,*,#571,.F.);
#836=ORIENTED_EDGE('',*,*,#471,.F.);
#837=ORIENTED_EDGE('',*,*,#469,.F.);
#838=ORIENTED_EDGE('',*,*,#525,.T.);
#839=ORIENTED_EDGE('',*,*,#547,.T.);
#840=ORIENTED_EDGE('',*,*,#467,.F.);
#841=ORIENTED_EDGE('',*,*,#473,.T.);
#842=ORIENTED_EDGE('',*,*,#570,.F.);
#843=ORIENTED_EDGE('',*,*,#597,.F.);
#844=ORIENTED_EDGE('',*,*,#505,.F.);
#845=ORIENTED_EDGE('',*,*,#518,.F.);
#846=ORIENTED_EDGE('',*,*,#506,.F.);
#847=ORIENTED_EDGE('',*,*,#597,.T.);
#848=ORIENTED_EDGE('',*,*,#569,.F.);
#849=ORIENTED_EDGE('',*,*,#510,.F.);
#850=ORIENTED_EDGE('',*,*,#537,.F.);
#851=ORIENTED_EDGE('',*,*,#546,.T.);
#852=ORIENTED_EDGE('',*,*,#598,.T.);
#853=ORIENTED_EDGE('',*,*,#599,.T.);
#854=ORIENTED_EDGE('',*,*,#578,.T.);
#855=ORIENTED_EDGE('',*,*,#582,.T.);
#856=ORIENTED_EDGE('',*,*,#585,.T.);
#857=ORIENTED_EDGE('',*,*,#588,.T.);
#858=ORIENTED_EDGE('',*,*,#590,.T.);
#859=ORIENTED_EDGE('',*,*,#522,.T.);
#860=ORIENTED_EDGE('',*,*,#596,.T.);
#861=ORIENTED_EDGE('',*,*,#595,.T.);
#862=ORIENTED_EDGE('',*,*,#600,.F.);
#863=ORIENTED_EDGE('',*,*,#598,.F.);
#864=ORIENTED_EDGE('',*,*,#545,.T.);
#865=ORIENTED_EDGE('',*,*,#594,.T.);
#866=ORIENTED_EDGE('',*,*,#579,.F.);
#867=ORIENTED_EDGE('',*,*,#599,.F.);
#868=ORIENTED_EDGE('',*,*,#600,.T.);
#869=CYLINDRICAL_SURFACE('',#947,2.);
#870=CYLINDRICAL_SURFACE('',#951,2.);
#871=CYLINDRICAL_SURFACE('',#971,2.);
#872=CYLINDRICAL_SURFACE('',#973,2.);
#873=CYLINDRICAL_SURFACE('',#975,5.);
#874=CYLINDRICAL_SURFACE('',#983,2.);
#875=CYLINDRICAL_SURFACE('',#990,1.5);
#876=CYLINDRICAL_SURFACE('',#995,6.);
#877=CYLINDRICAL_SURFACE('',#999,2.);
#878=CYLINDRICAL_SURFACE('',#1006,1.05);
#879=CYLINDRICAL_SURFACE('',#1007,1.05);
#880=CYLINDRICAL_SURFACE('',#1026,14.8500000000004);
#881=CYLINDRICAL_SURFACE('',#1031,18.3500000000004);
#882=CYLINDRICAL_SURFACE('',#1037,14.8500000000004);
#883=ADVANCED_FACE('',(#73),#869,.T.);
#884=ADVANCED_FACE('',(#74),#48,.T.);
#885=ADVANCED_FACE('',(#75),#870,.T.);
#886=ADVANCED_FACE('',(#76),#49,.T.);
#887=ADVANCED_FACE('',(#77,#43),#50,.T.);
#888=ADVANCED_FACE('',(#78),#36,.T.);
#889=ADVANCED_FACE('',(#79),#51,.F.);
#890=ADVANCED_FACE('',(#80),#37,.T.);
#891=ADVANCED_FACE('',(#81),#38,.T.);
#892=ADVANCED_FACE('',(#82),#871,.T.);
#893=ADVANCED_FACE('',(#83),#872,.T.);
#894=ADVANCED_FACE('',(#84),#873,.F.);
#895=ADVANCED_FACE('',(#85),#52,.T.);
#896=ADVANCED_FACE('',(#86),#53,.F.);
#897=ADVANCED_FACE('',(#87),#874,.F.);
#898=ADVANCED_FACE('',(#88),#54,.T.);
#899=ADVANCED_FACE('',(#89),#27,.T.);
#900=ADVANCED_FACE('',(#90),#875,.T.);
#901=ADVANCED_FACE('',(#91),#39,.T.);
#902=ADVANCED_FACE('',(#92),#876,.F.);
#903=ADVANCED_FACE('',(#93),#55,.T.);
#904=ADVANCED_FACE('',(#94),#56,.T.);
#905=ADVANCED_FACE('',(#95),#877,.F.);
#906=ADVANCED_FACE('',(#96,#44),#57,.F.);
#907=ADVANCED_FACE('',(#97,#45),#58,.F.);
#908=ADVANCED_FACE('',(#98),#878,.F.);
#909=ADVANCED_FACE('',(#99),#879,.F.);
#910=ADVANCED_FACE('',(#100),#59,.F.);
#911=ADVANCED_FACE('',(#101),#60,.F.);
#912=ADVANCED_FACE('',(#102),#61,.F.);
#913=ADVANCED_FACE('',(#103),#62,.F.);
#914=ADVANCED_FACE('',(#104),#63,.T.);
#915=ADVANCED_FACE('',(#105),#64,.F.);
#916=ADVANCED_FACE('',(#106),#25,.F.);
#917=ADVANCED_FACE('',(#107),#40,.F.);
#918=ADVANCED_FACE('',(#108),#26,.F.);
#919=ADVANCED_FACE('',(#109),#41,.T.);
#920=ADVANCED_FACE('',(#110),#880,.F.);
#921=ADVANCED_FACE('',(#111),#65,.F.);
#922=ADVANCED_FACE('',(#112),#66,.T.);
#923=ADVANCED_FACE('',(#113),#67,.T.);
#924=ADVANCED_FACE('',(#114,#46),#68,.T.);
#925=ADVANCED_FACE('',(#115),#881,.T.);
#926=ADVANCED_FACE('',(#116,#47),#69,.T.);
#927=ADVANCED_FACE('',(#117),#70,.T.);
#928=ADVANCED_FACE('',(#118),#71,.T.);
#929=ADVANCED_FACE('',(#119),#72,.F.);
#930=ADVANCED_FACE('',(#120),#882,.F.);
#931=ADVANCED_FACE('',(#121),#42,.T.);
#932=CLOSED_SHELL('',(#883,#884,#885,#886,#887,#888,#889,#890,#891,#892,
#893,#894,#895,#896,#897,#898,#899,#900,#901,#902,#903,#904,#905,#906,#907,
#908,#909,#910,#911,#912,#913,#914,#915,#916,#917,#918,#919,#920,#921,#922,
#923,#924,#925,#926,#927,#928,#929,#930,#931));
#933=DERIVED_UNIT_ELEMENT(#935,1.);
#934=DERIVED_UNIT_ELEMENT(#1707,-3.);
#935=(
MASS_UNIT()
NAMED_UNIT(*)
SI_UNIT(.KILO.,.GRAM.)
);
#936=DERIVED_UNIT((#933,#934));
#937=MEASURE_REPRESENTATION_ITEM('density measure',
POSITIVE_RATIO_MEASURE(7850.),#936);
#938=PROPERTY_DEFINITION_REPRESENTATION(#943,#940);
#939=PROPERTY_DEFINITION_REPRESENTATION(#944,#941);
#940=REPRESENTATION('material name',(#942),#1704);
#941=REPRESENTATION('density',(#937),#1704);
#942=DESCRIPTIVE_REPRESENTATION_ITEM('Steel','Steel');
#943=PROPERTY_DEFINITION('material property','material name',#1719);
#944=PROPERTY_DEFINITION('material property','density of part',#1719);
#945=AXIS2_PLACEMENT_3D('',#1315,#1042,#1043);
#946=AXIS2_PLACEMENT_3D('',#1316,#1044,#1045);
#947=AXIS2_PLACEMENT_3D('',#1317,#1046,#1047);
#948=AXIS2_PLACEMENT_3D('',#1320,#1048,#1049);
#949=AXIS2_PLACEMENT_3D('',#1324,#1051,#1052);
#950=AXIS2_PLACEMENT_3D('',#1326,#1054,#1055);
#951=AXIS2_PLACEMENT_3D('',#1332,#1059,#1060);
#952=AXIS2_PLACEMENT_3D('',#1335,#1061,#1062);
#953=AXIS2_PLACEMENT_3D('',#1339,#1064,#1065);
#954=AXIS2_PLACEMENT_3D('',#1341,#1067,#1068);
#955=AXIS2_PLACEMENT_3D('',#1347,#1072,#1073);
#956=AXIS2_PLACEMENT_3D('',#1351,#1075,#1076);
#957=AXIS2_PLACEMENT_3D('',#1355,#1078,#1079);
#958=AXIS2_PLACEMENT_3D('',#1362,#1083,#1084);
#959=AXIS2_PLACEMENT_3D('',#1363,#1085,#1086);
#960=AXIS2_PLACEMENT_3D('',#1376,#1087,#1088);
#961=AXIS2_PLACEMENT_3D('',#1377,#1089,#1090);
#962=AXIS2_PLACEMENT_3D('',#1378,#1091,#1092);
#963=AXIS2_PLACEMENT_3D('',#1381,#1094,#1095);
#964=AXIS2_PLACEMENT_3D('',#1382,#1096,#1097);
#965=AXIS2_PLACEMENT_3D('',#1394,#1098,#1099);
#966=AXIS2_PLACEMENT_3D('',#1395,#1100,#1101);
#967=AXIS2_PLACEMENT_3D('',#1398,#1102,#1103);
#968=AXIS2_PLACEMENT_3D('',#1400,#1104,#1105);
#969=AXIS2_PLACEMENT_3D('',#1402,#1106,#1107);
#970=AXIS2_PLACEMENT_3D('',#1403,#1108,#1109);
#971=AXIS2_PLACEMENT_3D('',#1404,#1110,#1111);
#972=AXIS2_PLACEMENT_3D('',#1420,#1113,#1114);
#973=AXIS2_PLACEMENT_3D('',#1423,#1117,#1118);
#974=AXIS2_PLACEMENT_3D('',#1426,#1119,#1120);
#975=AXIS2_PLACEMENT_3D('',#1429,#1123,#1124);
#976=AXIS2_PLACEMENT_3D('',#1432,#1125,#1126);
#977=AXIS2_PLACEMENT_3D('',#1435,#1129,#1130);
#978=AXIS2_PLACEMENT_3D('',#1445,#1135,#1136);
#979=AXIS2_PLACEMENT_3D('',#1449,#1139,#1140);
#980=AXIS2_PLACEMENT_3D('',#1454,#1143,#1144);
#981=AXIS2_PLACEMENT_3D('',#1456,#1145,#1146);
#982=AXIS2_PLACEMENT_3D('',#1460,#1148,#1149);
#983=AXIS2_PLACEMENT_3D('',#1463,#1152,#1153);
#984=AXIS2_PLACEMENT_3D('',#1465,#1154,#1155);
#985=AXIS2_PLACEMENT_3D('',#1468,#1157,#1158);
#986=AXIS2_PLACEMENT_3D('',#1469,#1159,#1160);
#987=AXIS2_PLACEMENT_3D('',#1470,#1161,#1162);
#988=AXIS2_PLACEMENT_3D('',#1523,#1164,#1165);
#989=AXIS2_PLACEMENT_3D('',#1531,#1166,#1167);
#990=AXIS2_PLACEMENT_3D('',#1532,#1168,#1169);
#991=AXIS2_PLACEMENT_3D('',#1535,#1172,#1173);
#992=AXIS2_PLACEMENT_3D('',#1538,#1174,#1175);
#993=AXIS2_PLACEMENT_3D('',#1539,#1176,#1177);
#994=AXIS2_PLACEMENT_3D('',#1540,#1178,#1179);
#995=AXIS2_PLACEMENT_3D('',#1541,#1180,#1181);
#996=AXIS2_PLACEMENT_3D('',#1544,#1184,#1185);
#997=AXIS2_PLACEMENT_3D('',#1552,#1189,#1190);
#998=AXIS2_PLACEMENT_3D('',#1554,#1192,#1193);
#999=AXIS2_PLACEMENT_3D('',#1555,#1194,#1195);
#1000=AXIS2_PLACEMENT_3D('',#1557,#1196,#1197);
#1001=AXIS2_PLACEMENT_3D('',#1560,#1199,#1200);
#1002=AXIS2_PLACEMENT_3D('',#1561,#1201,#1202);
#1003=AXIS2_PLACEMENT_3D('',#1563,#1203,#1204);
#1004=AXIS2_PLACEMENT_3D('',#1564,#1205,#1206);
#1005=AXIS2_PLACEMENT_3D('',#1566,#1207,#1208);
#1006=AXIS2_PLACEMENT_3D('',#1567,#1209,#1210);
#1007=AXIS2_PLACEMENT_3D('',#1569,#1212,#1213);
#1008=AXIS2_PLACEMENT_3D('',#1572,#1215,#1216);
#1009=AXIS2_PLACEMENT_3D('',#1573,#1217,#1218);
#1010=AXIS2_PLACEMENT_3D('',#1582,#1223,#1224);
#1011=AXIS2_PLACEMENT_3D('',#1591,#1229,#1230);
#1012=AXIS2_PLACEMENT_3D('',#1594,#1233,#1234);
#1013=AXIS2_PLACEMENT_3D('',#1596,#1236,#1237);
#1014=AXIS2_PLACEMENT_3D('',#1609,#1246,#1247);
#1015=AXIS2_PLACEMENT_3D('',#1613,#1250,#1251);
#1016=AXIS2_PLACEMENT_3D('',#1620,#1252,#1253);
#1017=AXIS2_PLACEMENT_3D('',#1623,#1255,#1256);
#1018=AXIS2_PLACEMENT_3D('',#1624,#1257,#1258);
#1019=AXIS2_PLACEMENT_3D('',#1642,#1259,#1260);
#1020=AXIS2_PLACEMENT_3D('',#1643,#1261,#1262);
#1021=AXIS2_PLACEMENT_3D('',#1644,#1263,#1264);
#1022=AXIS2_PLACEMENT_3D('',#1650,#1265,#1266);
#1023=AXIS2_PLACEMENT_3D('',#1652,#1268,#1269);
#1024=AXIS2_PLACEMENT_3D('',#1663,#1270,#1271);
#1025=AXIS2_PLACEMENT_3D('',#1664,#1272,#1273);
#1026=AXIS2_PLACEMENT_3D('',#1665,#1274,#1275);
#1027=AXIS2_PLACEMENT_3D('',#1668,#1278,#1279);
#1028=AXIS2_PLACEMENT_3D('',#1670,#1281,#1282);
#1029=AXIS2_PLACEMENT_3D('',#1673,#1285,#1286);
#1030=AXIS2_PLACEMENT_3D('',#1684,#1288,#1289);
#1031=AXIS2_PLACEMENT_3D('',#1685,#1290,#1291);
#1032=AXIS2_PLACEMENT_3D('',#1687,#1293,#1294);
#1033=AXIS2_PLACEMENT_3D('',#1688,#1295,#1296);
#1034=AXIS2_PLACEMENT_3D('',#1690,#1298,#1299);
#1035=AXIS2_PLACEMENT_3D('',#1691,#1300,#1301);
#1036=AXIS2_PLACEMENT_3D('',#1694,#1303,#1304);
#1037=AXIS2_PLACEMENT_3D('',#1695,#1305,#1306);
#1038=AXIS2_PLACEMENT_3D('',#1696,#1307,#1308);
#1039=AXIS2_PLACEMENT_3D('',#1697,#1309,#1310);
#1040=AXIS2_PLACEMENT_3D('',#1698,#1311,#1312);
#1041=AXIS2_PLACEMENT_3D('',#1699,#1313,#1314);
#1042=DIRECTION('axis',(0.,0.,1.));
#1043=DIRECTION('refdir',(1.,0.,0.));
#1044=DIRECTION('axis',(0.,0.,1.));
#1045=DIRECTION('refdir',(1.,0.,0.));
#1046=DIRECTION('center_axis',(7.66053886991803E-13,-1.,9.34804229523698E-16));
#1047=DIRECTION('ref_axis',(0.707106781186549,5.43251990704587E-13,0.707106781186546));
#1048=DIRECTION('center_axis',(3.25423598349234E-13,-1.,9.34804229523682E-16));
#1049=DIRECTION('ref_axis',(0.707106781186549,5.43251990704587E-13,0.707106781186546));
#1050=DIRECTION('',(7.66053886991803E-13,-1.,9.34804229523698E-16));
#1051=DIRECTION('center_axis',(-1.70058411798417E-12,-1.,9.34804229523682E-16));
#1052=DIRECTION('ref_axis',(0.707106781186549,5.43251990704587E-13,0.707106781186546));
#1053=DIRECTION('',(-7.66053886991803E-13,1.,-9.34804229523698E-16));
#1054=DIRECTION('center_axis',(1.,7.66053886991803E-13,-7.16110413602994E-28));
#1055=DIRECTION('ref_axis',(7.66053886991803E-13,-1.,9.34804229523698E-16));
#1056=DIRECTION('',(0.,-9.34804229523682E-16,-1.));
#1057=DIRECTION('',(7.66053886991803E-13,-1.,9.34804229523698E-16));
#1058=DIRECTION('',(0.,-9.34804229523682E-16,-1.));
#1059=DIRECTION('center_axis',(2.16620702856811E-12,1.,-9.34804229523698E-16));
#1060=DIRECTION('ref_axis',(0.707106781186548,-1.53084014721668E-12,0.707106781186547));
#1061=DIRECTION('center_axis',(-1.70058411798417E-12,-1.,9.34804229523682E-16));
#1062=DIRECTION('ref_axis',(0.707106781186548,-1.53084014721668E-12,0.707106781186547));
#1063=DIRECTION('',(-2.16620702856811E-12,-1.,9.34804229523698E-16));
#1064=DIRECTION('center_axis',(-1.22464679914735E-16,1.,-9.62574545997879E-16));
#1065=DIRECTION('ref_axis',(0.707106781186548,-1.53084014721668E-12,0.707106781186547));
#1066=DIRECTION('',(2.16620702856811E-12,1.,-9.34804229523698E-16));
#1067=DIRECTION('center_axis',(1.,-2.16620702856811E-12,2.02497949232939E-27));
#1068=DIRECTION('ref_axis',(-2.16620702856811E-12,-1.,9.34804229523698E-16));
#1069=DIRECTION('',(0.,-9.34804229523682E-16,-1.));
#1070=DIRECTION('',(-2.16620702856811E-12,-1.,9.34804229523698E-16));
#1071=DIRECTION('',(0.,-9.34804229523682E-16,-1.));
#1072=DIRECTION('center_axis',(1.22464679914735E-16,-1.,9.62574545997879E-16));
#1073=DIRECTION('ref_axis',(1.,1.22464679914734E-16,-9.6266252861082E-16));
#1074=DIRECTION('',(-1.,6.96133334773825E-16,-7.81678558702329E-31));
#1075=DIRECTION('center_axis',(-1.22464679914735E-16,1.,-9.62574545997879E-16));
#1076=DIRECTION('ref_axis',(1.,1.22464679914735E-16,1.64496722917607E-32));
#1077=DIRECTION('',(1.,-2.19695756670852E-13,2.05503452717365E-28));
#1078=DIRECTION('center_axis',(-1.22464679914735E-16,1.,-9.62574545997879E-16));
#1079=DIRECTION('ref_axis',(1.,1.22464679914735E-16,1.64496722917607E-32));
#1080=DIRECTION('',(-1.,6.96133334773825E-16,-7.81678558702329E-31));
#1081=DIRECTION('',(2.72182082565333E-31,-9.62574545997879E-16,-1.));
#1082=DIRECTION('',(-1.,6.96133334773825E-16,-7.81678558702329E-31));
#1083=DIRECTION('center_axis',(-1.22464679914735E-16,1.,-9.62574545997879E-16));
#1084=DIRECTION('ref_axis',(-1.,-3.25392070190779E-13,-7.01079904376204E-33));
#1085=DIRECTION('center_axis',(-1.30930173043321E-31,9.34804229523698E-16,
1.));
#1086=DIRECTION('ref_axis',(1.,0.,0.));
#1087=DIRECTION('center_axis',(1.30930173043321E-31,-9.34804229523698E-16,
-1.));
#1088=DIRECTION('ref_axis',(0.281415290719598,0.959586074382702,-8.97025120924991E-16));
#1089=DIRECTION('center_axis',(1.30930173043321E-31,-9.34804229523698E-16,
-1.));
#1090=DIRECTION('ref_axis',(-0.841610868298466,0.540084388185681,-5.0487317037566E-16));
#1091=DIRECTION('center_axis',(1.30930173043321E-31,-9.34804229523698E-16,
-1.));
#1092=DIRECTION('ref_axis',(1.,0.,1.30930173043321E-31));
#1093=DIRECTION('',(1.,-3.51173548990876E-14,3.29587820623951E-29));
#1094=DIRECTION('center_axis',(-1.30930173043321E-31,9.34804229523698E-16,
1.));
#1095=DIRECTION('ref_axis',(0.327187292917588,0.944959509901488,-8.83352146584552E-16));
#1096=DIRECTION('center_axis',(1.30930173043321E-31,-9.34804229523698E-16,
-1.));
#1097=DIRECTION('ref_axis',(-1.,0.,0.));
#1098=DIRECTION('center_axis',(-1.30930173043321E-31,9.34804229523698E-16,
1.));
#1099=DIRECTION('ref_axis',(-0.785896950706577,0.618357487922726,-5.78043195067774E-16));
#1100=DIRECTION('center_axis',(0.,0.,-1.));
#1101=DIRECTION('ref_axis',(-1.,0.,0.));
#1102=DIRECTION('center_axis',(-1.30930173043321E-31,9.34804229523698E-16,
1.));
#1103=DIRECTION('ref_axis',(0.707106781186398,-0.707106781186697,0.));
#1104=DIRECTION('center_axis',(2.42028619368284E-13,1.,0.));
#1105=DIRECTION('ref_axis',(-1.,2.42028619368284E-13,0.));
#1106=DIRECTION('center_axis',(-4.30718054250673E-28,-1.77635683940025E-15,
-1.));
#1107=DIRECTION('ref_axis',(-1.78523862359725E-13,-1.,1.77635683940025E-15));
#1108=DIRECTION('center_axis',(-1.,1.77635683940025E-13,0.));
#1109=DIRECTION('ref_axis',(0.,0.,1.));
#1110=DIRECTION('center_axis',(-1.,1.78745906964629E-13,-1.67223360013628E-28));
#1111=DIRECTION('ref_axis',(1.27177489153386E-13,0.707106781186549,0.707106781186546));
#1112=DIRECTION('',(-1.,1.78745906964629E-13,-1.67223360013628E-28));
#1113=DIRECTION('center_axis',(1.,2.74086309204507E-14,-2.56217041098909E-29));
#1114=DIRECTION('ref_axis',(1.27177489153386E-13,0.707106781186549,0.707106781186546));
#1115=DIRECTION('',(1.,-1.78745906964629E-13,1.67223360013628E-28));
#1116=DIRECTION('',(-1.,1.78745906964629E-13,-1.67223360013628E-28));
#1117=DIRECTION('center_axis',(-2.42398693709854E-13,-1.,9.34804229523698E-16));
#1118=DIRECTION('ref_axis',(-0.707106781186545,1.72710170455215E-13,0.70710678118655));
#1119=DIRECTION('center_axis',(3.25423598349234E-13,-1.,9.34804229523682E-16));
#1120=DIRECTION('ref_axis',(-0.707106781186545,1.72710170455215E-13,0.70710678118655));
#1121=DIRECTION('',(-2.42398693709854E-13,-1.,9.34804229523698E-16));
#1122=DIRECTION('',(2.42398693709854E-13,1.,-9.34804229523698E-16));
#1123=DIRECTION('center_axis',(0.,-9.34804229523682E-16,-1.));
#1124=DIRECTION('ref_axis',(0.707106781186398,-0.707106781186697,0.));
#1125=DIRECTION('center_axis',(0.,-9.34804229523682E-16,-1.));
#1126=DIRECTION('ref_axis',(0.707106781186398,-0.707106781186697,0.));
#1127=DIRECTION('',(0.,9.34804229523682E-16,1.));
#1128=DIRECTION('',(0.,-9.34804229523682E-16,-1.));
#1129=DIRECTION('center_axis',(-1.,-2.74086309204507E-14,2.56217041098909E-29));
#1130=DIRECTION('ref_axis',(-2.74086309204507E-14,1.,-9.34804229523698E-16));
#1131=DIRECTION('',(0.,-9.34804229523682E-16,-1.));
#1132=DIRECTION('',(-2.74086309204507E-14,1.,-9.34804229523698E-16));
#1133=DIRECTION('',(0.,-9.34804229523682E-16,-1.));
#1134=DIRECTION('',(-2.74086309204507E-14,1.,-9.34804229523698E-16));
#1135=DIRECTION('center_axis',(1.,2.74086309204507E-14,-2.56217041098909E-29));
#1136=DIRECTION('ref_axis',(-2.09345661157836E-14,0.707106781186546,0.707106781186549));
#1137=DIRECTION('',(0.,9.65627909395568E-16,1.));
#1138=DIRECTION('',(2.74086309204507E-14,-1.,9.34804229523698E-16));
#1139=DIRECTION('center_axis',(1.30930173043321E-31,-9.34804229523698E-16,
-1.));
#1140=DIRECTION('ref_axis',(1.,0.,1.30930173043321E-31));
#1141=DIRECTION('',(-1.,-3.25423598349234E-13,3.04076425950641E-28));
#1142=DIRECTION('',(1.,2.99676741233421E-14,-2.78829783464448E-29));
#1143=DIRECTION('center_axis',(-1.30930173043321E-31,9.34804229523698E-16,
1.));
#1144=DIRECTION('ref_axis',(0.463226786187374,-0.886239778253333,1.670312484827E-15));
#1145=DIRECTION('center_axis',(4.84020937166269E-16,4.84020937166269E-16,
1.));
#1146=DIRECTION('ref_axis',(-1.81507851437351E-16,1.,-4.84020937166269E-16));
#1147=DIRECTION('',(0.5,0.866025403784439,3.70308961842895E-16));
#1148=DIRECTION('center_axis',(5.98099945925992E-16,5.98099945925992E-16,
1.));
#1149=DIRECTION('ref_axis',(-4.85956206064869E-16,1.,-5.98099945925992E-16));
#1150=DIRECTION('',(1.,-3.51173548990876E-14,3.29587820623951E-29));
#1151=DIRECTION('',(1.,-1.70058411798417E-12,1.58984415632547E-27));
#1152=DIRECTION('center_axis',(3.25400867006367E-13,-1.,9.01887103676184E-16));
#1153=DIRECTION('ref_axis',(-1.,-3.25400867006367E-13,4.16062121778525E-34));
#1154=DIRECTION('center_axis',(-1.78745906964629E-13,-1.,9.34804229523682E-16));
#1155=DIRECTION('ref_axis',(-1.,-3.25400867006367E-13,4.16062121778525E-34));
#1156=DIRECTION('',(3.25400867006367E-13,-1.,9.01887103676184E-16));
#1157=DIRECTION('center_axis',(1.22464679914735E-16,-1.,9.62574545997879E-16));
#1158=DIRECTION('ref_axis',(-1.,-3.25400867006367E-13,4.16062121778525E-34));
#1159=DIRECTION('center_axis',(-1.78745906964629E-13,-1.,9.34804229523682E-16));
#1160=DIRECTION('ref_axis',(-1.,-3.25400867006367E-13,4.16062121778525E-34));
#1161=DIRECTION('center_axis',(1.78745906964629E-13,1.,-9.34804229523682E-16));
#1162=DIRECTION('ref_axis',(1.,-1.78745906964629E-13,1.67223360013628E-28));
#1163=DIRECTION('',(1.,-1.78745906964629E-13,1.67223360013628E-28));
#1164=DIRECTION('center_axis',(-1.,-2.96059473233375E-14,2.19128029228058E-29));
#1165=DIRECTION('ref_axis',(0.,7.40148683083436E-16,1.));
#1166=DIRECTION('center_axis',(0.570841889117056,0.821060008543389,-9.11559726083797E-16));
#1167=DIRECTION('ref_axis',(-0.821060008543389,0.570841889117056,0.));
#1168=DIRECTION('center_axis',(1.,2.99676741233421E-14,-2.78831549082977E-29));
#1169=DIRECTION('ref_axis',(-2.09345661157836E-14,0.707106781186546,0.707106781186549));
#1170=DIRECTION('',(1.,2.99676741233421E-14,-2.78831549082977E-29));
#1171=DIRECTION('',(-1.,-2.99676741233421E-14,2.78831549082977E-29));
#1172=DIRECTION('center_axis',(-1.30753611190372E-31,9.34804229523698E-16,
1.));
#1173=DIRECTION('ref_axis',(1.,0.,0.));
#1174=DIRECTION('center_axis',(-0.866025403784439,0.5,-4.8128727299894E-16));
#1175=DIRECTION('ref_axis',(0.5,0.866025403784439,-8.09564210332662E-16));
#1176=DIRECTION('center_axis',(-1.30753611190372E-31,9.34804229523698E-16,
1.));
#1177=DIRECTION('ref_axis',(-0.296538075658829,0.955021031016888,-8.92413602900309E-16));
#1178=DIRECTION('center_axis',(1.30753611190372E-31,-9.34804229523698E-16,
-1.));
#1179=DIRECTION('ref_axis',(-0.296538075658829,0.955021031016888,-8.92757699078669E-16));
#1180=DIRECTION('center_axis',(-1.30753611190372E-31,9.34804229523698E-16,
1.));
#1181=DIRECTION('ref_axis',(0.463226786187374,-0.886239778253333,1.670312484827E-15));
#1182=DIRECTION('',(-1.05446760487281E-30,9.65627909395568E-16,1.));
#1183=DIRECTION('',(1.30753611190372E-31,-9.34804229523698E-16,-1.));
#1184=DIRECTION('center_axis',(-1.30753611190372E-31,9.34804229523698E-16,
1.));
#1185=DIRECTION('ref_axis',(1.,0.,1.30753611190372E-31));
#1186=DIRECTION('',(-1.,-1.22464679914742E-16,-6.65029535453293E-15));
#1187=DIRECTION('',(9.71445146547492E-15,-1.,9.34804229523698E-16));
#1188=DIRECTION('',(1.,-3.51173548990876E-14,3.29586055005422E-29));
#1189=DIRECTION('center_axis',(5.98099945925996E-16,5.98099945925996E-16,
1.));
#1190=DIRECTION('ref_axis',(1.12143739861124E-16,1.,-5.98099945925996E-16));
#1191=DIRECTION('',(-0.5,-0.866025403784439,7.24264892130086E-15));
#1192=DIRECTION('center_axis',(-2.99676741233421E-14,1.,-9.65627909395568E-16));
#1193=DIRECTION('ref_axis',(-1.,-2.99676741233421E-14,2.78829783464448E-29));
#1194=DIRECTION('center_axis',(3.25400867006367E-13,-1.,9.01887103676184E-16));
#1195=DIRECTION('ref_axis',(-1.,-3.25400867006367E-13,4.16062121778525E-34));
#1196=DIRECTION('center_axis',(-1.70058411798417E-12,-1.,9.34804229523682E-16));
#1197=DIRECTION('ref_axis',(-1.,-3.25400867006367E-13,4.16062121778525E-34));
#1198=DIRECTION('',(3.25400867006367E-13,-1.,9.01887103676184E-16));
#1199=DIRECTION('center_axis',(1.22464679914735E-16,-1.,9.62574545997879E-16));
#1200=DIRECTION('ref_axis',(-1.,-3.25400867006367E-13,4.16062121778525E-34));
#1201=DIRECTION('center_axis',(1.22464679914735E-16,-1.,9.62574545997879E-16));
#1202=DIRECTION('ref_axis',(0.,-9.62574545997879E-16,-1.));
#1203=DIRECTION('center_axis',(-1.22464679914735E-16,1.,-9.62574545997879E-16));
#1204=DIRECTION('ref_axis',(-1.,-3.25392070190779E-13,-7.01079904376204E-33));
#1205=DIRECTION('center_axis',(1.22464679914735E-16,-1.,9.62574545997879E-16));
#1206=DIRECTION('ref_axis',(0.,-9.62574545997879E-16,-1.));
#1207=DIRECTION('center_axis',(-1.22464679914735E-16,1.,-9.62574545997879E-16));
#1208=DIRECTION('ref_axis',(-1.,-3.25392070190779E-13,-7.01079904376204E-33));
#1209=DIRECTION('center_axis',(3.25392070190779E-13,-1.,8.41078048958394E-16));
#1210=DIRECTION('ref_axis',(-1.,-3.25392070190779E-13,-7.01079904376204E-33));
#1211=DIRECTION('',(3.25392070190779E-13,-1.,8.41078048958394E-16));
#1212=DIRECTION('center_axis',(3.25392070190779E-13,-1.,8.41078048958394E-16));
#1213=DIRECTION('ref_axis',(-1.,-3.25392070190779E-13,-7.01079904376204E-33));
#1214=DIRECTION('',(3.25392070190779E-13,-1.,8.41078048958394E-16));
#1215=DIRECTION('center_axis',(-1.22464679914735E-16,1.,-9.62574545997879E-16));
#1216=DIRECTION('ref_axis',(-1.,-3.25392070190779E-13,-7.01079904376204E-33));
#1217=DIRECTION('center_axis',(-0.947065879415799,3.29933898630494E-14,
-0.321039281157896));
#1218=DIRECTION('ref_axis',(-0.321039281157896,1.21955439025493E-14,0.947065879415799));
#1219=DIRECTION('',(-0.321039281157896,1.218856361817E-14,0.947065879415799));
#1220=DIRECTION('',(-3.51543640886484E-14,-1.,9.34804229523682E-16));
#1221=DIRECTION('',(-0.321039281157896,1.21955439025493E-14,0.947065879415799));
#1222=DIRECTION('',(3.51385587293862E-14,1.,-8.88178419700125E-16));
#1223=DIRECTION('center_axis',(0.947065879415799,-3.35636701858503E-14,
-0.321039281157898));
#1224=DIRECTION('ref_axis',(-0.321039281157898,1.03665174121492E-14,-0.947065879415799));
#1225=DIRECTION('',(-0.321039281157898,1.03595371277697E-14,-0.947065879415799));
#1226=DIRECTION('',(3.51385587293862E-14,1.,-8.88178419700125E-16));
#1227=DIRECTION('',(-0.321039281157898,1.03665174121492E-14,-0.947065879415799));
#1228=DIRECTION('',(3.5122753370124E-14,1.,-9.34804229523682E-16));
#1229=DIRECTION('center_axis',(1.48029736616691E-15,8.88178419700073E-16,
1.));
#1230=DIRECTION('ref_axis',(1.,-3.5139097672602E-14,-1.48029736616688E-15));
#1231=DIRECTION('',(1.,-3.51173548990876E-14,-1.48029736616688E-15));
#1232=DIRECTION('',(1.,-3.5139097672602E-14,-1.48029736616688E-15));
#1233=DIRECTION('center_axis',(3.51385587293862E-14,1.,-8.88178419700125E-16));
#1234=DIRECTION('ref_axis',(0.,8.88178419700125E-16,1.));
#1235=DIRECTION('',(-1.,3.51385587293862E-14,-3.28476733195965E-29));
#1236=DIRECTION('center_axis',(0.,-9.34804229523682E-16,-1.));
#1237=DIRECTION('ref_axis',(-1.,0.,0.));
#1238=DIRECTION('',(-1.,3.51173548990876E-14,-3.28278518893513E-29));
#1239=DIRECTION('',(9.71445146547492E-15,-1.,9.34804229523682E-16));
#1240=DIRECTION('',(-1.,6.96133334773825E-16,-7.81678558702329E-31));
#1241=DIRECTION('',(2.42398693709854E-13,1.,-9.34804229523698E-16));
#1242=DIRECTION('',(1.,3.25423598349234E-13,-3.04076425950641E-28));
#1243=DIRECTION('',(1.,-1.70058411798417E-12,1.58984415632547E-27));
#1244=DIRECTION('',(-9.80118763926896E-15,1.,-9.34804229523682E-16));
#1245=DIRECTION('',(-1.,3.51173548990876E-14,-3.28278518893513E-29));
#1246=DIRECTION('center_axis',(1.,9.80118763926896E-15,-9.16219165954401E-30));
#1247=DIRECTION('ref_axis',(9.80118763926896E-15,-1.,9.34804229523698E-16));
#1248=DIRECTION('',(9.80118763926896E-15,-1.,9.34804229523698E-16));
#1249=DIRECTION('',(0.,9.34804229523697E-16,1.));
#1250=DIRECTION('center_axis',(1.30753611190372E-31,-9.34804229523698E-16,
-1.));
#1251=DIRECTION('ref_axis',(-1.66599440653479E-16,1.,-9.62574545997879E-16));
#1252=DIRECTION('center_axis',(5.55234822699882E-16,5.55234822699882E-16,
1.));
#1253=DIRECTION('ref_axis',(-1.90861970303085E-16,1.,-5.55234822699882E-16));
#1254=DIRECTION('',(0.353553390592992,0.612372435695306,-0.707106781187112));
#1255=DIRECTION('center_axis',(5.69994311482393E-16,5.69994311482393E-16,
1.));
#1256=DIRECTION('ref_axis',(-3.20621800208846E-16,1.,-5.69994311482393E-16));
#1257=DIRECTION('center_axis',(-1.30753611190372E-31,9.34804229523698E-16,
1.));
#1258=DIRECTION('ref_axis',(1.,0.,0.));
#1259=DIRECTION('center_axis',(5.55234822699835E-16,5.55234822699835E-16,
1.));
#1260=DIRECTION('ref_axis',(-6.07288087327944E-16,1.,-5.55234822699835E-16));
#1261=DIRECTION('center_axis',(-0.866025403784439,0.5,-4.8128727299894E-16));
#1262=DIRECTION('ref_axis',(0.353553390593417,0.612372435696044,0.70710678118626));
#1263=DIRECTION('center_axis',(-1.30753611190372E-31,9.34804229523698E-16,
1.));
#1264=DIRECTION('ref_axis',(-1.66599440653479E-16,1.,-9.62574545997879E-16));
#1265=DIRECTION('center_axis',(5.69994311482331E-16,5.69994311482331E-16,
1.));
#1266=DIRECTION('ref_axis',(-6.05618955949977E-16,1.,-5.69994311482331E-16));
#1267=DIRECTION('',(-0.353553390593156,-0.612372435695591,-0.707106781186783));
#1268=DIRECTION('center_axis',(-1.30753611190372E-31,9.34804229523698E-16,
1.));
#1269=DIRECTION('ref_axis',(1.,0.,0.));
#1270=DIRECTION('center_axis',(-1.15544036894403E-15,-8.77644093441526E-15,
-1.));
#1271=DIRECTION('ref_axis',(2.61668726342621E-16,1.,-8.97149918888986E-15));
#1272=DIRECTION('center_axis',(0.866025403784439,-0.5,4.8128727299894E-16));
#1273=DIRECTION('ref_axis',(-0.5,-0.866025403784439,-3.70308961842895E-16));
#1274=DIRECTION('center_axis',(-1.30753611190372E-31,9.34804229523698E-16,
1.));
#1275=DIRECTION('ref_axis',(-1.66599440653479E-16,1.,-9.6257454599788E-16));
#1276=DIRECTION('',(1.30753611190372E-31,-9.34804229523698E-16,-1.));
#1277=DIRECTION('',(6.01961485856665E-16,8.00533317055196E-17,-1.));
#1278=DIRECTION('center_axis',(1.30930173043321E-31,-9.34804229523698E-16,
-1.));
#1279=DIRECTION('ref_axis',(1.,0.,1.30930173043321E-31));
#1280=DIRECTION('',(1.,-3.51173548990876E-14,3.29587820623951E-29));
#1281=DIRECTION('center_axis',(1.,9.71445146547492E-15,-9.38054545953126E-30));
#1282=DIRECTION('ref_axis',(-9.71445146547492E-15,1.,-9.34804229523698E-16));
#1283=DIRECTION('',(0.,9.34804229523697E-16,1.));
#1284=DIRECTION('',(-2.69773391569312E-31,9.62574545997879E-16,1.));
#1285=DIRECTION('center_axis',(-3.51173548990876E-14,-1.,9.65627909395568E-16));
#1286=DIRECTION('ref_axis',(1.,-3.51173548990876E-14,3.29587820623951E-29));
#1287=DIRECTION('',(1.30753611190372E-31,-9.34804229523698E-16,-1.));
#1288=DIRECTION('center_axis',(1.22464679914735E-16,-1.,9.62574545997879E-16));
#1289=DIRECTION('ref_axis',(1.,1.22464679914734E-16,-9.6266252861082E-16));
#1290=DIRECTION('center_axis',(-1.30753611190372E-31,9.34804229523698E-16,
1.));
#1291=DIRECTION('ref_axis',(-1.66599440653479E-16,1.,-9.6257454599788E-16));
#1292=DIRECTION('',(-4.24929702467478E-16,2.26574711679082E-16,1.));
#1293=DIRECTION('center_axis',(1.70058411798417E-12,1.,-9.34804229523682E-16));
#1294=DIRECTION('ref_axis',(1.,-1.70058411798417E-12,1.58984415632547E-27));
#1295=DIRECTION('center_axis',(-3.25423598349234E-13,1.,-9.34804229523682E-16));
#1296=DIRECTION('ref_axis',(1.,3.25423598349234E-13,-3.04076425950641E-28));
#1297=DIRECTION('',(0.,-9.34804229523682E-16,-1.));
#1298=DIRECTION('center_axis',(-1.,2.42398693709854E-13,-2.26595324110987E-28));
#1299=DIRECTION('ref_axis',(2.42398693709854E-13,1.,-9.34804229523698E-16));
#1300=DIRECTION('center_axis',(-0.866025403784439,0.5,-4.8128727299894E-16));
#1301=DIRECTION('ref_axis',(-0.5,-0.866025403784439,-3.70308961842895E-16));
#1302=DIRECTION('',(1.94757529044843E-14,3.27704190002261E-14,-1.));
#1303=DIRECTION('center_axis',(0.866025403784439,-0.5,4.8128727299894E-16));
#1304=DIRECTION('ref_axis',(-0.353553390593416,-0.612372435696041,-0.707106781186263));
#1305=DIRECTION('center_axis',(-1.30753611190372E-31,9.34804229523698E-16,
1.));
#1306=DIRECTION('ref_axis',(-1.66599440653479E-16,1.,-9.62574545997879E-16));
#1307=DIRECTION('center_axis',(5.98099945925993E-16,5.98099945925993E-16,
1.));
#1308=DIRECTION('ref_axis',(-1.86906233101873E-16,1.,-5.98099945925993E-16));
#1309=DIRECTION('center_axis',(-1.30753611190372E-31,9.34804229523698E-16,
1.));
#1310=DIRECTION('ref_axis',(1.,0.,0.));
#1311=DIRECTION('',(1.25621225442573E-31,-4.42729966670018E-45,1.));
#1312=DIRECTION('',(1.,0.,-1.25621225458414E-31));
#1313=DIRECTION('center_axis',(0.,0.,1.));
#1314=DIRECTION('ref_axis',(1.,0.,0.));
#1315=CARTESIAN_POINT('',(0.,0.,0.));
#1316=CARTESIAN_POINT('',(0.,0.,0.));
#1317=CARTESIAN_POINT('Origin',(10.6000000000851,28.8000000000017,-67.7999999999993));
#1318=CARTESIAN_POINT('',(12.6000000000777,38.3999999999965,-67.7999999999993));
#1319=CARTESIAN_POINT('',(10.6000000000777,38.3999999999959,-65.7999999999993));
#1320=CARTESIAN_POINT('Origin',(10.6000000000777,38.4000000000086,-67.7999999999993));
#1321=CARTESIAN_POINT('',(10.6000000000956,15.0000000000135,-65.7999999999993));
#1322=CARTESIAN_POINT('',(10.6000000000851,28.8000000000017,-65.7999999999993));
#1323=CARTESIAN_POINT('',(12.6000000000956,15.0000000000101,-67.7999999999993));
#1324=CARTESIAN_POINT('Origin',(10.6000000000956,15.0000000000086,-67.7999999999993));
#1325=CARTESIAN_POINT('',(12.6000000000851,28.8000000000032,-67.7999999999993));
#1326=CARTESIAN_POINT('Origin',(12.6000000000777,38.3999999999965,-65.7999999999993));
#1327=CARTESIAN_POINT('',(12.6000000000956,15.0000000000101,-72.8999999999993));
#1328=CARTESIAN_POINT('',(12.6000000000956,15.0000000000101,-65.7999999999993));
#1329=CARTESIAN_POINT('',(12.6000000000777,38.3999999999965,-72.8999999999993));
#1330=CARTESIAN_POINT('',(12.6000000000777,38.3999999999965,-72.8999999999993));
#1331=CARTESIAN_POINT('',(12.6000000000777,38.3999999999965,-65.7999999999993));
#1332=CARTESIAN_POINT('Origin',(18.6000000000316,17.0999999999733,-67.7999999999993));
#1333=CARTESIAN_POINT('',(20.600000000027,14.9999999999965,-67.7999999999993));
#1334=CARTESIAN_POINT('',(18.600000000027,14.9999999999999,-65.7999999999993));
#1335=CARTESIAN_POINT('Origin',(18.600000000027,14.9999999999971,-67.7999999999993));
#1336=CARTESIAN_POINT('',(18.5999999999945,-3.53603361114137E-14,-65.7999999999993));
#1337=CARTESIAN_POINT('',(18.6000000000316,17.0999999999733,-65.7999999999993));
#1338=CARTESIAN_POINT('',(20.5999999999945,-3.48786627878334E-12,-67.7999999999993));
#1339=CARTESIAN_POINT('Origin',(18.5999999999945,-7.89834864178829E-11,
-67.7999999999993));
#1340=CARTESIAN_POINT('',(20.6000000000316,17.099999999969,-67.7999999999993));
#1341=CARTESIAN_POINT('Origin',(20.600000000027,14.9999999999965,-65.7999999999993));
#1342=CARTESIAN_POINT('',(20.5999999999945,-3.49263378035391E-12,-72.8999999999993));
#1343=CARTESIAN_POINT('',(20.5999999999945,-3.48599667032429E-12,-65.7999999999993));
#1344=CARTESIAN_POINT('',(20.600000000027,14.9999999999965,-72.8999999999993));
#1345=CARTESIAN_POINT('',(20.5999999999945,-3.49263378035391E-12,-72.8999999999993));
#1346=CARTESIAN_POINT('',(20.600000000027,14.9999999999965,-65.7999999999993));
#1347=CARTESIAN_POINT('Origin',(-17.8500000000055,-1.85962356624714E-14,
-59.5286796564402));
#1348=CARTESIAN_POINT('',(10.5999999999945,-1.29274745261196E-12,-65.7999999999993));
#1349=CARTESIAN_POINT('',(4.84999999999408,-2.57885027582733E-14,-65.7999999999993));
#1350=CARTESIAN_POINT('',(10.0999999999945,-1.17872382316558E-12,-65.2999999999993));
#1351=CARTESIAN_POINT('Origin',(10.0999999999945,-2.01521152991207E-14,
-65.7999999999993));
#1352=CARTESIAN_POINT('',(9.59999999999453,-1.06887594483016E-12,-65.2999999999993));
#1353=CARTESIAN_POINT('',(4.84999999999408,-2.53211006435115E-14,-65.2999999999993));
#1354=CARTESIAN_POINT('',(9.09999999999453,-9.64121437322911E-13,-65.7999999999993));
#1355=CARTESIAN_POINT('Origin',(9.59999999999453,-2.02133476390781E-14,
-65.7999999999993));
#1356=CARTESIAN_POINT('',(4.84999999999408,-2.57885027582733E-14,-65.7999999999993));
#1357=CARTESIAN_POINT('',(4.84999999999408,-2.57885027582733E-14,-65.7999999999993));
#1358=CARTESIAN_POINT('',(4.84999999999408,-3.24256127878915E-14,-72.8999999999993));
#1359=CARTESIAN_POINT('',(4.84999999999408,-1.83186799063151E-14,-62.6643398282197));
#1360=CARTESIAN_POINT('',(4.84999999999408,-3.24256127878915E-14,-72.8999999999993));
#1361=CARTESIAN_POINT('',(19.1499999999945,1.201232610856E-11,-69.3499999999993));
#1362=CARTESIAN_POINT('Origin',(18.0999999999945,1.16706644348596E-11,-69.3499999999993));
#1363=CARTESIAN_POINT('Origin',(-1.25000000000592,-2.1542089416153E-14,
-65.7999999999993));
#1364=CARTESIAN_POINT('',(-11.2230887893431,6.40000000000054,-65.7999999999993));
#1365=CARTESIAN_POINT('',(-10.6234998799869,6.40000000000052,-65.2999999999993));
#1366=CARTESIAN_POINT('Ctrl Pts',(-11.2230887893431,6.40000000000054,-65.7999999999993));
#1367=CARTESIAN_POINT('Ctrl Pts',(-11.2230887893431,6.40000000000054,-65.7417748159522));
#1368=CARTESIAN_POINT('Ctrl Pts',(-11.2077391836423,6.40000000000054,-65.6736115020115));
#1369=CARTESIAN_POINT('Ctrl Pts',(-11.1570439011089,6.40000000000054,-65.5627060650651));
#1370=CARTESIAN_POINT('Ctrl Pts',(-11.110750898377,6.40000000000054,-65.5018517348243));
#1371=CARTESIAN_POINT('Ctrl Pts',(-11.0103756172297,6.40000000000053,-65.4115724279721));
#1372=CARTESIAN_POINT('Ctrl Pts',(-10.9364953838763,6.40000000000053,-65.3684558170351));
#1373=CARTESIAN_POINT('Ctrl Pts',(-10.7957411010139,6.40000000000053,-65.3160381674807));
#1374=CARTESIAN_POINT('Ctrl Pts',(-10.7024131771339,6.40000000000052,-65.2999999999993));
#1375=CARTESIAN_POINT('Ctrl Pts',(-10.6234998799869,6.40000000000052,-65.2999999999993));
#1376=CARTESIAN_POINT('Origin',(-1.25000000000592,-2.10746873013911E-14,
-65.2999999999993));
#1377=CARTESIAN_POINT('Origin',(-1.25000000000592,-2.1542089416153E-14,
-65.7999999999993));
#1378=CARTESIAN_POINT('Origin',(-4.82499999996423,19.1999999999965,-65.2999999999993));
#1379=CARTESIAN_POINT('',(-10.0114211176103,6.4000000000005,-65.2999999999993));
#1380=CARTESIAN_POINT('',(4.84999999999401,6.39999999999997,-65.2999999999993));
#1381=CARTESIAN_POINT('Origin',(-1.25000000000592,-2.10746873013911E-14,
-65.2999999999993));
#1382=CARTESIAN_POINT('Origin',(-1.25000000000592,-2.1542089416153E-14,
-65.7999999999993));
#1383=CARTESIAN_POINT('',(-9.38403343981936,6.40000000000047,-65.7999999999993));
#1384=CARTESIAN_POINT('Ctrl Pts',(-10.0114211176103,6.4000000000005,-65.2999999999993));
#1385=CARTESIAN_POINT('Ctrl Pts',(-9.92927270765583,6.40000000000049,-65.2999999999993));
#1386=CARTESIAN_POINT('Ctrl Pts',(-9.83209052505511,6.40000000000049,-65.3165306865107));
#1387=CARTESIAN_POINT('Ctrl Pts',(-9.68468151676547,6.40000000000049,-65.3698247898026));
#1388=CARTESIAN_POINT('Ctrl Pts',(-9.60662865820585,6.40000000000048,-65.4136576148437));
#1389=CARTESIAN_POINT('Ctrl Pts',(-9.50112789805554,6.40000000000048,-65.5049701008827));
#1390=CARTESIAN_POINT('Ctrl Pts',(-9.45243528204908,6.40000000000048,-65.5657977415125));
#1391=CARTESIAN_POINT('Ctrl Pts',(-9.39992020755591,6.40000000000048,-65.6760486956133));
#1392=CARTESIAN_POINT('Ctrl Pts',(-9.38403343981935,6.40000000000047,-65.7428111441912));
#1393=CARTESIAN_POINT('Ctrl Pts',(-9.38403343981935,6.40000000000047,-65.7999999999993));
#1394=CARTESIAN_POINT('Origin',(-1.25000000000592,-2.1542089416153E-14,
-65.7999999999993));
#1395=CARTESIAN_POINT('Origin',(-23.2500000000032,31.3999999999888,-67.7999999999993));
#1396=CARTESIAN_POINT('',(-23.2500000000045,24.3999999999888,-65.7999999999993));
#1397=CARTESIAN_POINT('',(-16.2500000000032,31.3999999999871,-65.7999999999993));
#1398=CARTESIAN_POINT('Origin',(-23.2500000000032,31.3999999999888,-65.7999999999993));
#1399=CARTESIAN_POINT('',(-18.2500000000032,31.3999999999876,-67.7999999999993));
#1400=CARTESIAN_POINT('Origin',(-16.2500000000032,31.3999999999871,-67.7999999999993));
#1401=CARTESIAN_POINT('',(-23.2500000000041,26.3999999999888,-67.7999999999993));
#1402=CARTESIAN_POINT('Origin',(-23.2500000000032,31.3999999999888,-67.7999999999993));
#1403=CARTESIAN_POINT('Origin',(-23.2500000000045,24.3999999999888,-67.7999999999993));
#1404=CARTESIAN_POINT('Origin',(-17.5374999999973,24.3999999999878,-67.7999999999993));
#1405=CARTESIAN_POINT('',(-26.4860775340373,26.3999999999906,-67.7999999999993));
#1406=CARTESIAN_POINT('',(-29.0139224659902,26.3999999999911,-67.7999999999993));
#1407=CARTESIAN_POINT('Ctrl Pts',(-26.4860775340373,26.3999999999894,-67.7999999999993));
#1408=CARTESIAN_POINT('Ctrl Pts',(-26.5799365281443,26.3999999999894,-67.7234641991698));
#1409=CARTESIAN_POINT('Ctrl Pts',(-26.6813248346325,26.3956115614058,-67.6550719963482));
#1410=CARTESIAN_POINT('Ctrl Pts',(-27.0831363103143,26.3730659151138,-67.4346713748914));
#1411=CARTESIAN_POINT('Ctrl Pts',(-27.4222942970322,26.34871752698,-67.3499999999993));
#1412=CARTESIAN_POINT('Ctrl Pts',(-28.0777057029952,26.3487175269801,-67.3499999999993));
#1413=CARTESIAN_POINT('Ctrl Pts',(-28.4168636897132,26.3730659151141,-67.4346713748914));
#1414=CARTESIAN_POINT('Ctrl Pts',(-28.818675165395,26.3956115614062,-67.6550719963482));
#1415=CARTESIAN_POINT('Ctrl Pts',(-28.9200634718832,26.3999999999898,-67.7234641991697));
#1416=CARTESIAN_POINT('Ctrl Pts',(-29.0139224659902,26.3999999999898,-67.7999999999993));
#1417=CARTESIAN_POINT('',(-30.2500000000058,26.39999999999,-67.7999999999993));
#1418=CARTESIAN_POINT('',(-17.537499999997,26.3999999999878,-67.7999999999993));
#1419=CARTESIAN_POINT('',(-30.2500000000058,24.39999999999,-65.7999999999993));
#1420=CARTESIAN_POINT('Origin',(-30.2500000000008,24.39999999999,-67.7999999999993));
#1421=CARTESIAN_POINT('',(-17.5374999999973,24.3999999999878,-65.7999999999993));
#1422=CARTESIAN_POINT('',(-17.537499999997,26.3999999999878,-67.7999999999993));
#1423=CARTESIAN_POINT('Origin',(-16.2500000000053,22.7999999999933,-67.7999999999993));
#1424=CARTESIAN_POINT('',(-16.2500000000015,38.3999999999871,-65.7999999999993));
#1425=CARTESIAN_POINT('',(-18.2500000000015,38.3999999999865,-67.7999999999993));
#1426=CARTESIAN_POINT('Origin',(-16.2500000000015,38.399999999986,-67.7999999999993));
#1427=CARTESIAN_POINT('',(-18.2500000000053,22.7999999999938,-67.7999999999993));
#1428=CARTESIAN_POINT('',(-16.2500000000053,22.7999999999933,-65.7999999999993));
#1429=CARTESIAN_POINT('Origin',(-23.2500000000032,31.3999999999888,-65.7999999999993));
#1430=CARTESIAN_POINT('',(-18.2500000000032,31.3999999999876,-72.8999999999993));
#1431=CARTESIAN_POINT('',(-23.2500000000041,26.3999999999888,-72.8999999999993));
#1432=CARTESIAN_POINT('Origin',(-23.2500000000032,31.3999999999888,-72.8999999999993));
#1433=CARTESIAN_POINT('',(-23.2500000000041,26.3999999999888,-65.7999999999993));
#1434=CARTESIAN_POINT('',(-18.2500000000032,31.3999999999876,-65.7999999999993));
#1435=CARTESIAN_POINT('Origin',(-30.2500000000051,6.67466082404644E-12,
-65.7999999999993));
#1436=CARTESIAN_POINT('',(-30.2500000000058,26.39999999999,-72.8999999999993));
#1437=CARTESIAN_POINT('',(-30.2500000000058,26.39999999999,-65.7999999999993));
#1438=CARTESIAN_POINT('',(-30.2500000000051,6.67078053216669E-12,-72.8999999999993));
#1439=CARTESIAN_POINT('',(-30.2500000000062,38.3999999999826,-72.8999999999993));
#1440=CARTESIAN_POINT('',(-30.2500000000051,6.68952916610131E-12,-53.2573593128811));
#1441=CARTESIAN_POINT('',(-30.2500000000051,6.67741764219631E-12,-65.7999999999993));
#1442=CARTESIAN_POINT('',(-30.2500000000053,6.4000000000003,-53.2573593128811));
#1443=CARTESIAN_POINT('',(-30.2500000000053,5.92500000000023,-53.2573593128811));
#1444=CARTESIAN_POINT('',(-30.2500000000053,7.9000000000003,-54.7573593128811));
#1445=CARTESIAN_POINT('Origin',(-30.2500000000053,6.4000000000003,-54.7573593128811));
#1446=CARTESIAN_POINT('',(-30.2500000000053,7.90000000000029,-65.7999999999993));
#1447=CARTESIAN_POINT('',(-30.2500000000053,7.90000000000029,-65.7999999999993));
#1448=CARTESIAN_POINT('',(-30.2500000000062,38.3999999999826,-65.7999999999993));
#1449=CARTESIAN_POINT('Origin',(-4.82499999998941,19.1999999999965,-65.7999999999993));
#1450=CARTESIAN_POINT('',(12.6000000000777,38.3999999999965,-65.7999999999993));
#1451=CARTESIAN_POINT('',(-21.2428112080376,7.90000000000056,-65.7999999999993));
#1452=CARTESIAN_POINT('',(-10.8874999999975,7.90000000000087,-65.7999999999993));
#1453=CARTESIAN_POINT('',(-16.3164511567775,10.4749486652982,-65.7999999999993));
#1454=CARTESIAN_POINT('Origin',(-21.2428112080378,13.9000000000006,-65.7999999999993));
#1455=CARTESIAN_POINT('',(7.92499999999429,15.8915661594448,-65.7999999999993));
#1456=CARTESIAN_POINT('Origin',(-1.25000000000593,-2.66453525910038E-14,
-65.7999999999993));
#1457=CARTESIAN_POINT('',(6.17499999999429,12.8604772461993,-65.7999999999993));
#1458=CARTESIAN_POINT('',(6.17499999999429,12.8604772461993,-65.7999999999993));
#1459=CARTESIAN_POINT('',(-14.6500932832635,6.40000000000066,-65.7999999999993));
#1460=CARTESIAN_POINT('Origin',(-1.25000000000592,-2.66453525910038E-14,
-65.7999999999993));
#1461=CARTESIAN_POINT('',(-11.6374999999979,6.40000000000055,-65.7999999999993));
#1462=CARTESIAN_POINT('',(12.6000000000956,15.0000000000101,-65.7999999999993));
#1463=CARTESIAN_POINT('Origin',(-27.7500000000176,38.3999999999834,-69.3499999999993));
#1464=CARTESIAN_POINT('',(-25.7500000000137,26.3999999999915,-69.3499999999993));
#1465=CARTESIAN_POINT('Origin',(-27.7500000000137,26.3999999999908,-69.3499999999993));
#1466=CARTESIAN_POINT('',(-25.7500000000074,6.99999999999316,-69.3499999999993));
#1467=CARTESIAN_POINT('',(-25.7500000000176,38.3999999999841,-69.3499999999993));
#1468=CARTESIAN_POINT('Origin',(-27.7500000000074,6.99999999999251,-69.3499999999993));
#1469=CARTESIAN_POINT('Origin',(-27.7500000000137,26.3999999999908,-69.3499999999993));
#1470=CARTESIAN_POINT('Origin',(-30.2500000000058,26.39999999999,-65.7999999999993));
#1471=CARTESIAN_POINT('',(-18.2500000000045,26.3999999999879,-72.8999999999993));
#1472=CARTESIAN_POINT('Ctrl Pts',(-14.6743311396907,9.33326488706412,-53.2573593128811));
#1473=CARTESIAN_POINT('Ctrl Pts',(-15.0663653078101,8.76938969927214,-53.2573593128811));
#1474=CARTESIAN_POINT('Ctrl Pts',(-16.0605764989027,7.78813259716341,-53.2573593128811));
#1475=CARTESIAN_POINT('Ctrl Pts',(-18.3593229538702,6.62883004155792,-53.2573593128811));
#1476=CARTESIAN_POINT('Ctrl Pts',(-20.2126638705872,6.4000000000006,-53.2573593128811));
#1477=CARTESIAN_POINT('Ctrl Pts',(-21.2428112080376,6.40000000000057,-53.2573593128811));
#1478=CARTESIAN_POINT('Ctrl Pts',(-14.8955033681867,9.48703485688507,-53.2573593128811));
#1479=CARTESIAN_POINT('Ctrl Pts',(-15.2683923655829,8.95069677584239,-53.2573593128811));
#1480=CARTESIAN_POINT('Ctrl Pts',(-16.2088922801611,8.00449168973158,-53.2573867492956));
#1481=CARTESIAN_POINT('Ctrl Pts',(-18.4170686469486,6.84828805395415,-53.2573516250819));
#1482=CARTESIAN_POINT('Ctrl Pts',(-20.2283052240665,6.60203050891104,-53.2573593128811));
#1483=CARTESIAN_POINT('Ctrl Pts',(-21.2428112080376,6.60203050891101,-53.2573593128811));
#1484=CARTESIAN_POINT('Ctrl Pts',(-15.3804449100534,9.82419041554099,-53.3698117117141));
#1485=CARTESIAN_POINT('Ctrl Pts',(-15.7133884991117,9.34530708324115,-53.3698117117141));
#1486=CARTESIAN_POINT('Ctrl Pts',(-16.5432522361581,8.47418539155197,-53.3651985048764));
#1487=CARTESIAN_POINT('Ctrl Pts',(-18.5517893583937,7.32910703546611,-53.3503494902545));
#1488=CARTESIAN_POINT('Ctrl Pts',(-20.267930751523,7.04500197581417,-53.3416986120058));
#1489=CARTESIAN_POINT('Ctrl Pts',(-21.2428112080376,7.04500197581414,-53.3416986120058));
#1490=CARTESIAN_POINT('Ctrl Pts',(-15.9639699064708,10.229886111149,-53.9244394097505));
#1491=CARTESIAN_POINT('Ctrl Pts',(-16.2586154266406,9.80608810697303,-53.9244394097505));
#1492=CARTESIAN_POINT('Ctrl Pts',(-16.9765088927497,9.01428786802124,-53.8984880801912));
#1493=CARTESIAN_POINT('Ctrl Pts',(-18.7511219968237,7.89743572194983,-53.8102364172052));
#1494=CARTESIAN_POINT('Ctrl Pts',(-20.3341699827928,7.57802482768769,-53.7576693855332));
#1495=CARTESIAN_POINT('Ctrl Pts',(-21.2428112080376,7.57802482768767,-53.7576693855332));
#1496=CARTESIAN_POINT('Ctrl Pts',(-16.2653607078243,10.439428035755,-54.6245683325697));
#1497=CARTESIAN_POINT('Ctrl Pts',(-16.549544288313,10.0306777715008,-54.6245683325697));
#1498=CARTESIAN_POINT('Ctrl Pts',(-17.2292239630973,9.26754265544661,-54.5705659559832));
#1499=CARTESIAN_POINT('Ctrl Pts',(-18.8890397811918,8.17884888343463,-54.3894952890877));
#1500=CARTESIAN_POINT('Ctrl Pts',(-20.3868546279152,7.85333125920678,-54.2827660776476));
#1501=CARTESIAN_POINT('Ctrl Pts',(-21.2428112080376,7.85333125920676,-54.2827660776476));
#1502=CARTESIAN_POINT('Ctrl Pts',(-16.3164511567775,10.4749486652982,-55.0553288039707));
#1503=CARTESIAN_POINT('Ctrl Pts',(-16.605896762618,10.0586298629555,-55.0553288039707));
#1504=CARTESIAN_POINT('Ctrl Pts',(-17.2936670388024,9.2910055998593,-54.9827484932017));
#1505=CARTESIAN_POINT('Ctrl Pts',(-18.9386561991534,8.2172093810232,-54.7444077506156));
#1506=CARTESIAN_POINT('Ctrl Pts',(-20.4096862273813,7.9000000000006,-54.6058364311983));
#1507=CARTESIAN_POINT('Ctrl Pts',(-21.2428112080376,7.90000000000057,-54.6058364311983));
#1508=CARTESIAN_POINT('Ctrl Pts',(-16.3164511567775,10.4749486652982,-55.2573593128811));
#1509=CARTESIAN_POINT('Ctrl Pts',(-16.610476782867,10.0520422744542,-55.2573593128811));
#1510=CARTESIAN_POINT('Ctrl Pts',(-17.3077233583266,9.27842291051184,-55.1757266598199));
#1511=CARTESIAN_POINT('Ctrl Pts',(-18.9557288704096,8.21122984531958,-54.9104205373709));
#1512=CARTESIAN_POINT('Ctrl Pts',(-20.4186933380773,7.9000000000006,-54.7573593128811));
#1513=CARTESIAN_POINT('Ctrl Pts',(-21.2428112080376,7.90000000000057,-54.7573593128811));
#1514=CARTESIAN_POINT('',(-21.2428112080376,7.90000000000057,-54.7573593128811));
#1515=CARTESIAN_POINT('',(-16.3164511567775,10.4749486652982,-55.2573593128811));
#1516=CARTESIAN_POINT('Ctrl Pts',(-16.3164511567775,10.4749486652982,-55.2573593128811));
#1517=CARTESIAN_POINT('Ctrl Pts',(-16.610476782867,10.0520422744542,-55.2573593128811));
#1518=CARTESIAN_POINT('Ctrl Pts',(-17.3077233583266,9.27842291051184,-55.1757266598199));
#1519=CARTESIAN_POINT('Ctrl Pts',(-18.9557288704096,8.21122984531958,-54.9104205373709));
#1520=CARTESIAN_POINT('Ctrl Pts',(-20.4186933380773,7.9000000000006,-54.7573593128811));
#1521=CARTESIAN_POINT('Ctrl Pts',(-21.2428112080376,7.90000000000057,-54.7573593128811));
#1522=CARTESIAN_POINT('',(-21.2428112080376,6.40000000000057,-53.2573593128811));
#1523=CARTESIAN_POINT('Origin',(-21.2428112080376,6.40000000000057,-54.7573593128811));
#1524=CARTESIAN_POINT('',(-14.6743311396907,9.33326488706412,-53.2573593128811));
#1525=CARTESIAN_POINT('Ctrl Pts',(-21.2428112080376,6.40000000000057,-53.2573593128811));
#1526=CARTESIAN_POINT('Ctrl Pts',(-20.2126638705872,6.4000000000006,-53.2573593128811));
#1527=CARTESIAN_POINT('Ctrl Pts',(-18.3593229538702,6.62883004155792,-53.2573593128811));
#1528=CARTESIAN_POINT('Ctrl Pts',(-16.0605764989027,7.78813259716341,-53.2573593128811));
#1529=CARTESIAN_POINT('Ctrl Pts',(-15.0663653078101,8.76938969927214,-53.2573593128811));
#1530=CARTESIAN_POINT('Ctrl Pts',(-14.6743311396907,9.33326488706412,-53.2573593128811));
#1531=CARTESIAN_POINT('Origin',(-14.6743311396907,9.33326488706412,-55.2573593128811));
#1532=CARTESIAN_POINT('Origin',(-9.10000000000581,6.40000000000094,-54.7573593128811));
#1533=CARTESIAN_POINT('',(-9.10000000000581,6.40000000000094,-53.2573593128811));
#1534=CARTESIAN_POINT('',(-9.10000000000585,7.90000000000093,-54.7573593128811));
#1535=CARTESIAN_POINT('Origin',(-1.25000000000593,-1.29736876542397E-14,
-55.2573593128811));
#1536=CARTESIAN_POINT('',(6.92499999999429,14.1595153518759,-53.2573593128811));
#1537=CARTESIAN_POINT('',(7.92499999999429,15.8915661594448,-55.2573593128811));
#1538=CARTESIAN_POINT('Origin',(6.92499999999429,14.1595153518759,-55.2573593128811));
#1539=CARTESIAN_POINT('Origin',(-1.25000000000593,-1.29736876542397E-14,
-55.2573593128811));
#1540=CARTESIAN_POINT('Origin',(-1.25000000000593,-1.11040791951923E-14,
-53.2573593128811));
#1541=CARTESIAN_POINT('Origin',(-21.2428112080378,13.9000000000006,-59.5286796564402));
#1542=CARTESIAN_POINT('',(-21.2428112080376,7.90000000000057,-59.5286796564402));
#1543=CARTESIAN_POINT('',(-16.3164511567775,10.4749486652982,-59.5286796564402));
#1544=CARTESIAN_POINT('Origin',(-1.25000000000593,14.8500000000004,-53.2573593128811));
#1545=CARTESIAN_POINT('',(-18.4500000000059,-1.29042861574436E-14,-53.2573593128811));
#1546=CARTESIAN_POINT('',(-19.6000000000064,-1.30451205393456E-14,-53.2573593128811));
#1547=CARTESIAN_POINT('',(-18.450000000006,6.40000000000081,-53.2573593128811));
#1548=CARTESIAN_POINT('',(-18.4500000000059,1.97500000000218,-53.2573593128811));
#1549=CARTESIAN_POINT('',(-14.6500932832634,6.40000000000067,-53.2573593128811));
#1550=CARTESIAN_POINT('',(-9.85000000000611,6.4000000000005,-53.2573593128811));
#1551=CARTESIAN_POINT('',(6.17499999999425,12.8604772461992,-53.2573593128811));
#1552=CARTESIAN_POINT('Origin',(-1.25000000000593,-1.11022302462516E-14,
-53.2573593128811));
#1553=CARTESIAN_POINT('',(7.92499999999429,15.8915661594448,-53.2573593128811));
#1554=CARTESIAN_POINT('Origin',(-16.950000000006,7.90000000000069,-65.7999999999993));
#1555=CARTESIAN_POINT('Origin',(18.099999999982,38.3999999999983,-69.3499999999993));
#1556=CARTESIAN_POINT('',(20.0999999999896,15.0000000000126,-69.3499999999993));
#1557=CARTESIAN_POINT('Origin',(18.0999999999896,15.0000000000119,-69.3499999999993));
#1558=CARTESIAN_POINT('',(20.0999999999922,7.00000000000809,-69.3499999999993));
#1559=CARTESIAN_POINT('',(20.099999999982,38.399999999999,-69.3499999999993));
#1560=CARTESIAN_POINT('Origin',(18.0999999999922,7.00000000000744,-69.3499999999993));
#1561=CARTESIAN_POINT('Origin',(-4.8250000000053,6.99999999999997,-69.3499999999993));
#1562=CARTESIAN_POINT('',(19.1499999999923,7.00000000000778,-69.3499999999993));
#1563=CARTESIAN_POINT('Origin',(18.0999999999922,7.00000000000744,-69.3499999999993));
#1564=CARTESIAN_POINT('Origin',(-4.8250000000053,6.99999999999997,-69.3499999999993));
#1565=CARTESIAN_POINT('',(-26.7000000000074,6.99999999999286,-69.3499999999993));
#1566=CARTESIAN_POINT('Origin',(-27.7500000000074,6.99999999999251,-69.3499999999993));
#1567=CARTESIAN_POINT('Origin',(18.099999999982,38.3999999999983,-69.3499999999993));
#1568=CARTESIAN_POINT('',(19.149999999982,38.3999999999987,-69.3499999999993));
#1569=CARTESIAN_POINT('Origin',(-27.7500000000176,38.3999999999834,-69.3499999999993));
#1570=CARTESIAN_POINT('',(-26.7000000000051,-2.90463045030364E-12,-69.3499999999993));
#1571=CARTESIAN_POINT('',(-26.7000000000176,38.3999999999837,-69.3499999999993));
#1572=CARTESIAN_POINT('Origin',(-27.7500000000051,-3.24629212400396E-12,
-69.3499999999993));
#1573=CARTESIAN_POINT('Origin',(-10.800000000006,6.40000000000052,-72.8999999999993));
#1574=CARTESIAN_POINT('',(-10.800000000006,6.40000000000052,-72.8999999999993));
#1575=CARTESIAN_POINT('',(-12.800000000006,6.40000000000059,-66.9999999999993));
#1576=CARTESIAN_POINT('',(-12.2735892811191,6.40000000000057,-68.5529116207156));
#1577=CARTESIAN_POINT('',(-10.8000000000056,16.4000000000005,-72.8999999999993));
#1578=CARTESIAN_POINT('',(-10.8000000000058,12.7999999999986,-72.8999999999993));
#1579=CARTESIAN_POINT('',(-12.8000000000056,16.4000000000006,-66.9999999999993));
#1580=CARTESIAN_POINT('',(-12.8000000000056,16.4000000000006,-66.9999999999993));
#1581=CARTESIAN_POINT('',(-12.800000000006,6.40000000000059,-66.9999999999993));
#1582=CARTESIAN_POINT('Origin',(-0.800000000005983,6.40000000000017,-66.9999999999993));
#1583=CARTESIAN_POINT('',(-0.800000000005983,6.40000000000017,-66.9999999999993));
#1584=CARTESIAN_POINT('',(-2.80000000000598,6.40000000000024,-72.8999999999993));
#1585=CARTESIAN_POINT('',(-1.52713218243319,6.4000000000002,-69.1450399381595));
#1586=CARTESIAN_POINT('',(-0.800000000005632,16.4000000000002,-66.9999999999993));
#1587=CARTESIAN_POINT('',(-0.800000000005983,6.40000000000017,-66.9999999999993));
#1588=CARTESIAN_POINT('',(-2.80000000000563,16.4000000000002,-72.8999999999993));
#1589=CARTESIAN_POINT('',(-0.800000000005632,16.4000000000002,-66.9999999999993));
#1590=CARTESIAN_POINT('',(-2.80000000000576,12.7999999999983,-72.8999999999993));
#1591=CARTESIAN_POINT('Origin',(-12.800000000006,6.40000000000059,-66.9999999999993));
#1592=CARTESIAN_POINT('',(-15.625000000006,6.40000000000069,-66.9999999999993));
#1593=CARTESIAN_POINT('',(-0.800000000005632,16.4000000000002,-66.9999999999993));
#1594=CARTESIAN_POINT('Origin',(-6.80000000000563,16.4000000000004,-69.9499999999993));
#1595=CARTESIAN_POINT('',(-5.81249999999757,16.4000000000003,-72.8999999999993));
#1596=CARTESIAN_POINT('Origin',(-4.82499999998941,19.1999999999965,-72.8999999999993));
#1597=CARTESIAN_POINT('',(-18.450000000006,6.40000000000079,-72.8999999999993));
#1598=CARTESIAN_POINT('',(-11.6374999999979,6.40000000000055,-72.8999999999993));
#1599=CARTESIAN_POINT('',(-18.4500000000059,-1.62057060876613E-14,-72.8999999999993));
#1600=CARTESIAN_POINT('',(-18.450000000006,9.60000000000016,-72.8999999999993));
#1601=CARTESIAN_POINT('',(4.84999999999408,-3.24256127878915E-14,-72.8999999999993));
#1602=CARTESIAN_POINT('',(-18.2500000000015,38.3999999999865,-72.8999999999993));
#1603=CARTESIAN_POINT('',(-18.2500000000015,38.3999999999865,-72.8999999999993));
#1604=CARTESIAN_POINT('',(12.6000000000777,38.3999999999965,-72.8999999999993));
#1605=CARTESIAN_POINT('',(12.6000000000956,15.0000000000101,-72.8999999999993));
#1606=CARTESIAN_POINT('',(4.84999999999401,6.39999999999997,-72.8999999999993));
#1607=CARTESIAN_POINT('',(4.84999999999395,12.7999999999983,-72.8999999999993));
#1608=CARTESIAN_POINT('',(-11.6374999999979,6.40000000000055,-72.8999999999993));
#1609=CARTESIAN_POINT('Origin',(4.84999999999401,6.39999999999997,-65.7999999999993));
#1610=CARTESIAN_POINT('',(4.84999999999401,6.39999999999997,-65.7999999999993));
#1611=CARTESIAN_POINT('',(4.84999999999395,12.7999999999983,-65.7999999999993));
#1612=CARTESIAN_POINT('',(4.84999999999401,6.39999999999997,-65.7999999999993));
#1613=CARTESIAN_POINT('Origin',(-1.25000000000593,-1.48198079737019E-14,
-57.2322330470349));
#1614=CARTESIAN_POINT('',(-15.4572512025437,6.40000000000069,-57.025126265848));
#1615=CARTESIAN_POINT('',(-15.9103650748444,6.40000000000071,-57.4393398282218));
#1616=CARTESIAN_POINT('Ctrl Pts',(-15.4572512025437,6.40000000000069,-57.025126265848));
#1617=CARTESIAN_POINT('Ctrl Pts',(-15.6808364199111,6.4000000000007,-57.2289822432764));
#1618=CARTESIAN_POINT('Ctrl Pts',(-15.9103650748444,6.40000000000071,-57.4393398282218));
#1619=CARTESIAN_POINT('',(6.74822330469669,13.8533291340264,-57.4393398282218));
#1620=CARTESIAN_POINT('Origin',(-1.25000000000593,-8.88178419700125E-15,
-57.4393398282218));
#1621=CARTESIAN_POINT('',(6.54111652351012,13.4946096664192,-57.025126265848));
#1622=CARTESIAN_POINT('',(6.54111652351012,13.4946096664192,-57.025126265848));
#1623=CARTESIAN_POINT('Origin',(-1.25000000000592,-1.55431223447522E-14,
-57.025126265848));
#1624=CARTESIAN_POINT('Origin',(-1.25000000000593,-1.60049218833842E-14,
-58.5000000000001));
#1625=CARTESIAN_POINT('',(-15.9103650748459,6.40000000000071,-59.5606601717803));
#1626=CARTESIAN_POINT('Ctrl Pts',(-15.9103650748444,6.40000000000071,-57.4393398282218));
#1627=CARTESIAN_POINT('Ctrl Pts',(-15.917324742288,6.40000000000071,-57.4457181988697));
#1628=CARTESIAN_POINT('Ctrl Pts',(-15.9241754540243,6.40000000000071,-57.45211257259));
#1629=CARTESIAN_POINT('Ctrl Pts',(-16.0670274351929,6.40000000000072,-57.5878412787275));
#1630=CARTESIAN_POINT('Ctrl Pts',(-16.1975684515856,6.40000000000072,-57.7714789074016));
#1631=CARTESIAN_POINT('Ctrl Pts',(-16.3439768433595,6.40000000000073,-58.1087729199043));
#1632=CARTESIAN_POINT('Ctrl Pts',(-16.3885295132444,6.40000000000073,-58.320057587777));
#1633=CARTESIAN_POINT('Ctrl Pts',(-16.3885295132444,6.40000000000073,-58.5000000000001));
#1634=CARTESIAN_POINT('Ctrl Pts',(-16.3885295132444,6.40000000000073,-58.6799424122232));
#1635=CARTESIAN_POINT('Ctrl Pts',(-16.3439768433595,6.40000000000072,-58.891227080096));
#1636=CARTESIAN_POINT('Ctrl Pts',(-16.1975684515856,6.40000000000072,-59.2285210925986));
#1637=CARTESIAN_POINT('Ctrl Pts',(-16.0670274351929,6.40000000000071,-59.4121587212727));
#1638=CARTESIAN_POINT('Ctrl Pts',(-15.9241754540243,6.40000000000071,-59.5478874274102));
#1639=CARTESIAN_POINT('Ctrl Pts',(-15.9173247422879,6.40000000000071,-59.5542818011307));
#1640=CARTESIAN_POINT('Ctrl Pts',(-15.9103650748443,6.40000000000071,-59.5606601717785));
#1641=CARTESIAN_POINT('',(6.74822330469737,13.8533291340276,-59.5606601717803));
#1642=CARTESIAN_POINT('Origin',(-1.25000000000592,-1.77635683940025E-14,
-59.5606601717803));
#1643=CARTESIAN_POINT('Origin',(6.21789321880711,12.9347704804833,-58.5000000000001));
#1644=CARTESIAN_POINT('Origin',(-1.25000000000593,-1.71900357930676E-14,
-59.7677669529666));
#1645=CARTESIAN_POINT('',(-15.4572512025455,6.40000000000069,-59.9748737341525));
#1646=CARTESIAN_POINT('Ctrl Pts',(-15.9103650748459,6.40000000000071,-59.5606601717803));
#1647=CARTESIAN_POINT('Ctrl Pts',(-15.6808364199039,6.4000000000007,-59.7710177567335));
#1648=CARTESIAN_POINT('Ctrl Pts',(-15.457251202546,6.40000000000069,-59.974873734153));
#1649=CARTESIAN_POINT('',(6.54111652351096,13.4946096664206,-59.9748737341525));
#1650=CARTESIAN_POINT('Origin',(-1.25000000000592,-2.66453525910038E-14,
-59.9748737341525));
#1651=CARTESIAN_POINT('',(6.54111652351119,13.494609666421,-59.974873734153));
#1652=CARTESIAN_POINT('Origin',(-1.25000000000593,-1.90361561125281E-14,
-61.7426406871186));
#1653=CARTESIAN_POINT('',(-14.6500932832635,6.40000000000066,-61.7426406871185));
#1654=CARTESIAN_POINT('Ctrl Pts',(-15.4572512025455,6.40000000000069,-59.9748737341525));
#1655=CARTESIAN_POINT('Ctrl Pts',(-15.4461857329642,6.40000000000069,-59.9849627827209));
#1656=CARTESIAN_POINT('Ctrl Pts',(-15.4352834545059,6.40000000000069,-59.9950738730532));
#1657=CARTESIAN_POINT('Ctrl Pts',(-15.1949026309921,6.40000000000068,-60.2217402447204));
#1658=CARTESIAN_POINT('Ctrl Pts',(-14.9734437843637,6.40000000000068,-60.5290239179651));
#1659=CARTESIAN_POINT('Ctrl Pts',(-14.7257291182062,6.40000000000067,-61.091987614132));
#1660=CARTESIAN_POINT('Ctrl Pts',(-14.6500932832635,6.40000000000066,-61.4432295786073));
#1661=CARTESIAN_POINT('Ctrl Pts',(-14.6500932832635,6.40000000000066,-61.7426406871186));
#1662=CARTESIAN_POINT('',(6.17499999999429,12.8604772461993,-61.7426406871186));
#1663=CARTESIAN_POINT('Origin',(-1.25000000000593,-6.88338275267597E-14,
-61.7426406871185));
#1664=CARTESIAN_POINT('Origin',(7.42499999999429,15.0255407556604,-61.7426406871186));
#1665=CARTESIAN_POINT('Origin',(-1.25000000000593,-2.09325744357172E-14,
-63.7713203435589));
#1666=CARTESIAN_POINT('',(-14.6500932832635,6.40000000000066,-63.7713203435589));
#1667=CARTESIAN_POINT('',(6.17499999999429,12.8604772461993,-65.2999999999993));
#1668=CARTESIAN_POINT('Origin',(-4.82499999998941,19.1999999999965,-65.7999999999993));
#1669=CARTESIAN_POINT('',(-11.6374999999979,6.40000000000055,-65.7999999999993));
#1670=CARTESIAN_POINT('Origin',(-18.4500000000059,3.95239396766556E-12,
-65.7999999999993));
#1671=CARTESIAN_POINT('',(-18.450000000006,6.40000000000079,-65.7999999999993));
#1672=CARTESIAN_POINT('',(-18.4500000000059,-2.16880211366744E-14,-62.6643398282197));
#1673=CARTESIAN_POINT('Origin',(-18.450000000006,6.40000000000079,-65.7999999999993));
#1674=CARTESIAN_POINT('',(-14.6500932832635,6.40000000000067,-55.2573593128811));
#1675=CARTESIAN_POINT('Ctrl Pts',(-14.6500932832615,6.40000000000067,-55.2573593128811));
#1676=CARTESIAN_POINT('Ctrl Pts',(-14.6500932832615,6.40000000000067,-55.5567704213926));
#1677=CARTESIAN_POINT('Ctrl Pts',(-14.7257291182043,6.40000000000067,-55.9080123858681));
#1678=CARTESIAN_POINT('Ctrl Pts',(-14.9734437843619,6.40000000000068,-56.4709760820355));
#1679=CARTESIAN_POINT('Ctrl Pts',(-15.1949026309905,6.40000000000069,-56.7782597552804));
#1680=CARTESIAN_POINT('Ctrl Pts',(-15.4352834545043,6.40000000000069,-57.0049261269476));
#1681=CARTESIAN_POINT('Ctrl Pts',(-15.4461857329625,6.4000000000007,-57.0150372172797));
#1682=CARTESIAN_POINT('Ctrl Pts',(-15.4572512025437,6.4000000000007,-57.025126265848));
#1683=CARTESIAN_POINT('',(-14.6500932832634,6.40000000000067,-54.2573593128811));
#1684=CARTESIAN_POINT('Origin',(-17.8500000000055,-1.85962356624714E-14,
-59.5286796564402));
#1685=CARTESIAN_POINT('Origin',(-1.25000000000593,-1.69665359770493E-14,
-59.5286796564402));
#1686=CARTESIAN_POINT('',(7.92499999999429,15.8915661594448,-65.7999999999993));
#1687=CARTESIAN_POINT('Origin',(12.6000000000956,15.0000000000101,-65.7999999999993));
#1688=CARTESIAN_POINT('Origin',(-18.2500000000015,38.3999999999865,-65.7999999999993));
#1689=CARTESIAN_POINT('',(-18.2500000000015,38.3999999999865,-65.7999999999993));
#1690=CARTESIAN_POINT('Origin',(-18.2500000000045,26.3999999999879,-65.7999999999993));
#1691=CARTESIAN_POINT('Origin',(7.04999999999384,14.3760217028213,-59.5286796564402));
#1692=CARTESIAN_POINT('',(6.17499999999429,12.8604772461993,-55.2573593128811));
#1693=CARTESIAN_POINT('',(6.17499999999429,12.8604772461993,-55.2573593128811));
#1694=CARTESIAN_POINT('Origin',(7.42499999999429,15.0255407556604,-55.2573593128811));
#1695=CARTESIAN_POINT('Origin',(-1.25000000000593,-1.2038883424716E-14,
-54.2573593128811));
#1696=CARTESIAN_POINT('Origin',(-1.25000000000593,-1.33226762955019E-14,
-55.2573593128811));
#1697=CARTESIAN_POINT('Origin',(-1.25000000000593,-1.29736876542397E-14,
-55.2573593128811));
#1698=CARTESIAN_POINT('',(4.82499999998942,-19.1999999999965,72.8999999999993));
#1699=CARTESIAN_POINT('Origin',(0.,0.,0.));
#1700=UNCERTAINTY_MEASURE_WITH_UNIT(LENGTH_MEASURE(0.01),#1706,
'DISTANCE_ACCURACY_VALUE',
'Maximum model space distance between geometric entities at asserted c
onnectivities');
#1701=UNCERTAINTY_MEASURE_WITH_UNIT(LENGTH_MEASURE(0.01),#1706,
'DISTANCE_ACCURACY_VALUE',
'Maximum model space distance between geometric entities at asserted c
onnectivities');
#1702=UNCERTAINTY_MEASURE_WITH_UNIT(LENGTH_MEASURE(0.01),#1706,
'DISTANCE_ACCURACY_VALUE',
'Maximum model space distance between geometric entities at asserted c
onnectivities');
#1703=(
GEOMETRIC_REPRESENTATION_CONTEXT(3)
GLOBAL_UNCERTAINTY_ASSIGNED_CONTEXT((#1700))
GLOBAL_UNIT_ASSIGNED_CONTEXT((#1706,#1708,#1709))
REPRESENTATION_CONTEXT('','3D')
);
#1704=(
GEOMETRIC_REPRESENTATION_CONTEXT(3)
GLOBAL_UNCERTAINTY_ASSIGNED_CONTEXT((#1701))
GLOBAL_UNIT_ASSIGNED_CONTEXT((#1706,#1708,#1709))
REPRESENTATION_CONTEXT('','3D')
);
#1705=(
GEOMETRIC_REPRESENTATION_CONTEXT(3)
GLOBAL_UNCERTAINTY_ASSIGNED_CONTEXT((#1702))
GLOBAL_UNIT_ASSIGNED_CONTEXT((#1706,#1708,#1709))
REPRESENTATION_CONTEXT('','3D')
);
#1706=(
LENGTH_UNIT()
NAMED_UNIT(*)
SI_UNIT(.MILLI.,.METRE.)
);
#1707=(
LENGTH_UNIT()
NAMED_UNIT(*)
SI_UNIT($,.METRE.)
);
#1708=(
NAMED_UNIT(*)
PLANE_ANGLE_UNIT()
SI_UNIT($,.RADIAN.)
);
#1709=(
NAMED_UNIT(*)
SI_UNIT($,.STERADIAN.)
SOLID_ANGLE_UNIT()
);
#1710=SHAPE_DEFINITION_REPRESENTATION(#1712,#1715);
#1711=SHAPE_DEFINITION_REPRESENTATION(#1713,#1716);
#1712=PRODUCT_DEFINITION_SHAPE('',$,#1718);
#1713=PRODUCT_DEFINITION_SHAPE('',$,#1719);
#1714=PRODUCT_DEFINITION_SHAPE($,$,#17);
#1715=SHAPE_REPRESENTATION('',(#945,#1040),#1703);
#1716=SHAPE_REPRESENTATION('',(#946),#1704);
#1717=PRODUCT_DEFINITION_CONTEXT('part definition',#1725,'design');
#1718=PRODUCT_DEFINITION('2026-10-05-11-40-51-393','PRINT_LAYOUT',#1720,
#1717);
#1719=PRODUCT_DEFINITION('2026-10-05-11-40-51-336','SeatLeft',#1721,#1717);
#1720=PRODUCT_DEFINITION_FORMATION('',$,#1727);
#1721=PRODUCT_DEFINITION_FORMATION('',$,#1728);
#1722=PRODUCT_RELATED_PRODUCT_CATEGORY('PRINT_LAYOUT','PRINT_LAYOUT',(#1727));
#1723=PRODUCT_RELATED_PRODUCT_CATEGORY('SeatLeft','SeatLeft',(#1728));
#1724=APPLICATION_PROTOCOL_DEFINITION('international standard',
'automotive_design',2009,#1725);
#1725=APPLICATION_CONTEXT(
'Core Data for Automotive Mechanical Design Process');
#1726=PRODUCT_CONTEXT('part definition',#1725,'mechanical');
#1727=PRODUCT('2026-10-05-11-40-51-393','PRINT_LAYOUT',$,(#1726));
#1728=PRODUCT('2026-10-05-11-40-51-336','SeatLeft',$,(#1726));
#1729=PRESENTATION_STYLE_ASSIGNMENT((#1733));
#1730=PRESENTATION_STYLE_ASSIGNMENT((#1734));
#1731=PRESENTATION_STYLE_ASSIGNMENT((#1735));
#1732=PRESENTATION_STYLE_ASSIGNMENT((NULL_STYLE(.NULL.)));
#1733=SURFACE_STYLE_USAGE(.BOTH.,#1736);
#1734=SURFACE_STYLE_USAGE(.BOTH.,#1737);
#1735=SURFACE_STYLE_USAGE(.BOTH.,#1738);
#1736=SURFACE_SIDE_STYLE('',(#1739));
#1737=SURFACE_SIDE_STYLE('',(#1740));
#1738=SURFACE_SIDE_STYLE('',(#1741));
#1739=SURFACE_STYLE_FILL_AREA(#1742);
#1740=SURFACE_STYLE_FILL_AREA(#1743);
#1741=SURFACE_STYLE_FILL_AREA(#1744);
#1742=FILL_AREA_STYLE('Plastic - Matte (Black)',(#1745));
#1743=FILL_AREA_STYLE('Steel - Satin',(#1746));
#1744=FILL_AREA_STYLE('Brass - Old',(#1747));
#1745=FILL_AREA_STYLE_COLOUR('Plastic - Matte (Black)',#1748);
#1746=FILL_AREA_STYLE_COLOUR('Steel - Satin',#1749);
#1747=FILL_AREA_STYLE_COLOUR('Brass - Old',#1750);
#1748=COLOUR_RGB('Plastic - Matte (Black)',0.0980392156862745,0.0980392156862745,
0.0980392156862745);
#1749=COLOUR_RGB('Steel - Satin',0.627450980392157,0.627450980392157,0.627450980392157);
#1750=COLOUR_RGB('Brass - Old',0.,0.,0.);
ENDSEC;
END-ISO-10303-21;
