ISO-10303-21;
HEADER;
/* Generated by software containing ST-Developer
 * from STEP Tools, Inc. (www.steptools.com) 
 */

FILE_DESCRIPTION(
/* description */ (''),
/* implementation_level */ '2;1');

FILE_NAME(
/* name */ 'UpperArm.step',
/* time_stamp */ '2026-09-19T23:33:06+02:00',
/* author */ (''),
/* organization */ (''),
/* preprocessor_version */ 'ST-DEVELOPER v20.2',
/* originating_system */ 'Autodesk Translation Framework v15.15.0.0',
/* authorisation */ '');

FILE_SCHEMA (('AUTOMOTIVE_DESIGN { 1 0 10303 214 3 1 1 }'));
ENDSEC;

DATA;
#10=MECHANICAL_DESIGN_GEOMETRIC_PRESENTATION_REPRESENTATION('',(#17),#706);
#11=ITEM_DEFINED_TRANSFORMATION($,$,#404,#437);
#12=(
REPRESENTATION_RELATIONSHIP($,$,#717,#716)
REPRESENTATION_RELATIONSHIP_WITH_TRANSFORMATION(#11)
SHAPE_REPRESENTATION_RELATIONSHIP()
);
#13=CONTEXT_DEPENDENT_SHAPE_REPRESENTATION(#12,#715);
#14=NEXT_ASSEMBLY_USAGE_OCCURRENCE('UpperArm:1','UpperArm:1',
'UpperArm:1',#719,#720,'UpperArm:1');
#15=SHAPE_REPRESENTATION_RELATIONSHIP('SRR','None',#717,#16);
#16=ADVANCED_BREP_SHAPE_REPRESENTATION('',(#18),#705);
#17=STYLED_ITEM('',(#730),#18);
#18=MANIFOLD_SOLID_BREP('Body1',#390);
#19=(
BOUNDED_SURFACE()
B_SPLINE_SURFACE(2,2,((#657,#658,#659),(#660,#661,#662),(#663,#664,#665),
(#666,#667,#668),(#669,#670,#671),(#672,#673,#674),(#675,#676,#677),(#678,
#679,#680),(#681,#682,#683)),.UNSPECIFIED.,.T.,.F.,.F.)
B_SPLINE_SURFACE_WITH_KNOTS((3,2,2,2,3),(3,3),(-3.14159265358979,-1.5707963267949,
0.,1.5707963267949,3.14159265358979),(1.5707963267949,1.74532925199433),
 .UNSPECIFIED.)
GEOMETRIC_REPRESENTATION_ITEM()
RATIONAL_B_SPLINE_SURFACE(((1.,0.996194698091746,1.),(0.707106781186547,
0.704416026402758,0.707106781186547),(1.,0.996194698091746,1.),(0.707106781186548,
0.704416026402759,0.707106781186548),(1.,0.996194698091746,1.),(0.707106781186548,
0.704416026402759,0.707106781186548),(1.,0.996194698091746,1.),(0.707106781186547,
0.704416026402758,0.707106781186547),(1.,0.996194698091746,1.)))
REPRESENTATION_ITEM('')
SURFACE()
);
#20=ELLIPSE('',#412,0.812341289508596,0.8);
#21=FACE_BOUND('',#65,.T.);
#22=FACE_BOUND('',#67,.T.);
#23=FACE_BOUND('',#81,.T.);
#24=FACE_BOUND('',#84,.T.);
#25=PLANE('',#407);
#26=PLANE('',#410);
#27=PLANE('',#418);
#28=PLANE('',#419);
#29=PLANE('',#420);
#30=PLANE('',#421);
#31=PLANE('',#422);
#32=PLANE('',#423);
#33=PLANE('',#424);
#34=PLANE('',#425);
#35=PLANE('',#426);
#36=PLANE('',#427);
#37=PLANE('',#432);
#38=PLANE('',#433);
#39=PLANE('',#434);
#40=PLANE('',#436);
#41=FACE_OUTER_BOUND('',#63,.T.);
#42=FACE_OUTER_BOUND('',#64,.T.);
#43=FACE_OUTER_BOUND('',#66,.T.);
#44=FACE_OUTER_BOUND('',#68,.T.);
#45=FACE_OUTER_BOUND('',#69,.T.);
#46=FACE_OUTER_BOUND('',#70,.T.);
#47=FACE_OUTER_BOUND('',#71,.T.);
#48=FACE_OUTER_BOUND('',#72,.T.);
#49=FACE_OUTER_BOUND('',#73,.T.);
#50=FACE_OUTER_BOUND('',#74,.T.);
#51=FACE_OUTER_BOUND('',#75,.T.);
#52=FACE_OUTER_BOUND('',#76,.T.);
#53=FACE_OUTER_BOUND('',#77,.T.);
#54=FACE_OUTER_BOUND('',#78,.T.);
#55=FACE_OUTER_BOUND('',#79,.T.);
#56=FACE_OUTER_BOUND('',#80,.T.);
#57=FACE_OUTER_BOUND('',#82,.T.);
#58=FACE_OUTER_BOUND('',#83,.T.);
#59=FACE_OUTER_BOUND('',#85,.T.);
#60=FACE_OUTER_BOUND('',#86,.T.);
#61=FACE_OUTER_BOUND('',#87,.T.);
#62=FACE_OUTER_BOUND('',#88,.T.);
#63=EDGE_LOOP('',(#261,#262,#263,#264));
#64=EDGE_LOOP('',(#265,#266,#267,#268,#269,#270));
#65=EDGE_LOOP('',(#271));
#66=EDGE_LOOP('',(#272,#273,#274,#275));
#67=EDGE_LOOP('',(#276));
#68=EDGE_LOOP('',(#277,#278,#279,#280));
#69=EDGE_LOOP('',(#281,#282,#283,#284));
#70=EDGE_LOOP('',(#285,#286,#287,#288));
#71=EDGE_LOOP('',(#289));
#72=EDGE_LOOP('',(#290,#291,#292,#293));
#73=EDGE_LOOP('',(#294,#295,#296,#297));
#74=EDGE_LOOP('',(#298,#299,#300,#301));
#75=EDGE_LOOP('',(#302,#303,#304,#305));
#76=EDGE_LOOP('',(#306,#307,#308,#309));
#77=EDGE_LOOP('',(#310,#311,#312,#313));
#78=EDGE_LOOP('',(#314,#315,#316,#317));
#79=EDGE_LOOP('',(#318,#319,#320,#321));
#80=EDGE_LOOP('',(#322,#323,#324,#325,#326,#327,#328,#329));
#81=EDGE_LOOP('',(#330));
#82=EDGE_LOOP('',(#331,#332,#333,#334));
#83=EDGE_LOOP('',(#335));
#84=EDGE_LOOP('',(#336,#337,#338,#339,#340,#341,#342,#343));
#85=EDGE_LOOP('',(#344,#345,#346,#347));
#86=EDGE_LOOP('',(#348,#349,#350,#351));
#87=EDGE_LOOP('',(#352,#353,#354,#355,#356,#357,#358));
#88=EDGE_LOOP('',(#359,#360,#361,#362));
#89=B_SPLINE_CURVE_WITH_KNOTS('',3,(#555,#556,#557,#558,#559,#560,#561,
#562,#563,#564),.UNSPECIFIED.,.F.,.F.,(4,2,2,2,4),(0.152366438946236,0.192682972538326,
0.232999506130415,0.270830248655365,0.308660991180315),.UNSPECIFIED.);
#90=B_SPLINE_CURVE_WITH_KNOTS('',3,(#586,#587,#588,#589,#590,#591,#592,
#593,#594,#595,#596,#597),.UNSPECIFIED.,.F.,.F.,(4,2,2,2,2,4),(0.306572235393664,
0.347605077084277,0.38863791877489,0.417785736046286,0.446933553317682,
0.462664465430753),.UNSPECIFIED.);
#91=LINE('',#553,#129);
#92=LINE('',#565,#130);
#93=LINE('',#568,#131);
#94=LINE('',#572,#132);
#95=LINE('',#574,#133);
#96=LINE('',#575,#134);
#97=LINE('',#581,#135);
#98=LINE('',#598,#136);
#99=LINE('',#602,#137);
#100=LINE('',#605,#138);
#101=LINE('',#611,#139);
#102=LINE('',#613,#140);
#103=LINE('',#615,#141);
#104=LINE('',#616,#142);
#105=LINE('',#619,#143);
#106=LINE('',#621,#144);
#107=LINE('',#622,#145);
#108=LINE('',#625,#146);
#109=LINE('',#627,#147);
#110=LINE('',#628,#148);
#111=LINE('',#631,#149);
#112=LINE('',#633,#150);
#113=LINE('',#634,#151);
#114=LINE('',#637,#152);
#115=LINE('',#639,#153);
#116=LINE('',#640,#154);
#117=LINE('',#643,#155);
#118=LINE('',#645,#156);
#119=LINE('',#646,#157);
#120=LINE('',#649,#158);
#121=LINE('',#651,#159);
#122=LINE('',#652,#160);
#123=LINE('',#654,#161);
#124=LINE('',#655,#162);
#125=LINE('',#693,#163);
#126=LINE('',#694,#164);
#127=LINE('',#696,#165);
#128=LINE('',#697,#166);
#129=VECTOR('',#446,10.);
#130=VECTOR('',#447,10.);
#131=VECTOR('',#450,10.);
#132=VECTOR('',#453,10.);
#133=VECTOR('',#454,10.);
#134=VECTOR('',#455,10.);
#135=VECTOR('',#462,10.);
#136=VECTOR('',#467,10.);
#137=VECTOR('',#472,0.8);
#138=VECTOR('',#475,1.05);
#139=VECTOR('',#482,10.);
#140=VECTOR('',#483,10.);
#141=VECTOR('',#484,10.);
#142=VECTOR('',#485,10.);
#143=VECTOR('',#488,10.);
#144=VECTOR('',#489,10.);
#145=VECTOR('',#490,10.);
#146=VECTOR('',#493,10.);
#147=VECTOR('',#494,10.);
#148=VECTOR('',#495,10.);
#149=VECTOR('',#498,10.);
#150=VECTOR('',#499,10.);
#151=VECTOR('',#500,10.);
#152=VECTOR('',#503,10.);
#153=VECTOR('',#504,10.);
#154=VECTOR('',#505,10.);
#155=VECTOR('',#508,10.);
#156=VECTOR('',#509,10.);
#157=VECTOR('',#510,10.);
#158=VECTOR('',#513,10.);
#159=VECTOR('',#514,10.);
#160=VECTOR('',#515,10.);
#161=VECTOR('',#518,10.);
#162=VECTOR('',#519,10.);
#163=VECTOR('',#534,10.);
#164=VECTOR('',#535,10.);
#165=VECTOR('',#538,10.);
#166=VECTOR('',#539,10.);
#167=CIRCLE('',#406,1.);
#168=CIRCLE('',#408,1.);
#169=CIRCLE('',#409,1.05);
#170=CIRCLE('',#411,5.4);
#171=CIRCLE('',#415,0.8);
#172=CIRCLE('',#417,1.05);
#173=CIRCLE('',#428,5.4);
#174=CIRCLE('',#429,5.4);
#175=CIRCLE('',#430,5.4);
#176=CIRCLE('',#431,5.4);
#177=VERTEX_POINT('',#549);
#178=VERTEX_POINT('',#550);
#179=VERTEX_POINT('',#552);
#180=VERTEX_POINT('',#554);
#181=VERTEX_POINT('',#567);
#182=VERTEX_POINT('',#569);
#183=VERTEX_POINT('',#571);
#184=VERTEX_POINT('',#573);
#185=VERTEX_POINT('',#576);
#186=VERTEX_POINT('',#579);
#187=VERTEX_POINT('',#582);
#188=VERTEX_POINT('',#585);
#189=VERTEX_POINT('',#600);
#190=VERTEX_POINT('',#604);
#191=VERTEX_POINT('',#609);
#192=VERTEX_POINT('',#610);
#193=VERTEX_POINT('',#612);
#194=VERTEX_POINT('',#614);
#195=VERTEX_POINT('',#618);
#196=VERTEX_POINT('',#620);
#197=VERTEX_POINT('',#624);
#198=VERTEX_POINT('',#626);
#199=VERTEX_POINT('',#630);
#200=VERTEX_POINT('',#632);
#201=VERTEX_POINT('',#636);
#202=VERTEX_POINT('',#638);
#203=VERTEX_POINT('',#642);
#204=VERTEX_POINT('',#644);
#205=VERTEX_POINT('',#648);
#206=VERTEX_POINT('',#650);
#207=VERTEX_POINT('',#684);
#208=VERTEX_POINT('',#685);
#209=VERTEX_POINT('',#688);
#210=EDGE_CURVE('',#177,#178,#167,.T.);
#211=EDGE_CURVE('',#178,#179,#91,.T.);
#212=EDGE_CURVE('',#179,#180,#89,.F.);
#213=EDGE_CURVE('',#180,#177,#92,.T.);
#214=EDGE_CURVE('',#181,#177,#93,.T.);
#215=EDGE_CURVE('',#182,#181,#168,.T.);
#216=EDGE_CURVE('',#183,#182,#94,.T.);
#217=EDGE_CURVE('',#184,#183,#95,.T.);
#218=EDGE_CURVE('',#184,#178,#96,.T.);
#219=EDGE_CURVE('',#185,#185,#169,.T.);
#220=EDGE_CURVE('',#180,#186,#170,.T.);
#221=EDGE_CURVE('',#181,#186,#97,.T.);
#222=EDGE_CURVE('',#187,#187,#20,.T.);
#223=EDGE_CURVE('',#186,#188,#90,.F.);
#224=EDGE_CURVE('',#188,#182,#98,.T.);
#225=EDGE_CURVE('',#189,#189,#171,.T.);
#226=EDGE_CURVE('',#189,#187,#99,.T.);
#227=EDGE_CURVE('',#185,#190,#100,.T.);
#228=EDGE_CURVE('',#190,#190,#172,.T.);
#229=EDGE_CURVE('',#191,#192,#101,.T.);
#230=EDGE_CURVE('',#191,#193,#102,.T.);
#231=EDGE_CURVE('',#193,#194,#103,.T.);
#232=EDGE_CURVE('',#192,#194,#104,.T.);
#233=EDGE_CURVE('',#195,#191,#105,.T.);
#234=EDGE_CURVE('',#195,#196,#106,.T.);
#235=EDGE_CURVE('',#196,#193,#107,.T.);
#236=EDGE_CURVE('',#197,#195,#108,.T.);
#237=EDGE_CURVE('',#197,#198,#109,.T.);
#238=EDGE_CURVE('',#198,#196,#110,.T.);
#239=EDGE_CURVE('',#199,#197,#111,.T.);
#240=EDGE_CURVE('',#199,#200,#112,.T.);
#241=EDGE_CURVE('',#200,#198,#113,.T.);
#242=EDGE_CURVE('',#201,#199,#114,.T.);
#243=EDGE_CURVE('',#201,#202,#115,.T.);
#244=EDGE_CURVE('',#202,#200,#116,.T.);
#245=EDGE_CURVE('',#203,#201,#117,.T.);
#246=EDGE_CURVE('',#203,#204,#118,.T.);
#247=EDGE_CURVE('',#204,#202,#119,.T.);
#248=EDGE_CURVE('',#205,#203,#120,.T.);
#249=EDGE_CURVE('',#205,#206,#121,.T.);
#250=EDGE_CURVE('',#206,#204,#122,.T.);
#251=EDGE_CURVE('',#192,#205,#123,.T.);
#252=EDGE_CURVE('',#194,#206,#124,.T.);
#253=EDGE_CURVE('',#207,#208,#173,.T.);
#254=EDGE_CURVE('',#207,#207,#174,.T.);
#255=EDGE_CURVE('',#209,#207,#175,.T.);
#256=EDGE_CURVE('',#208,#209,#176,.T.);
#257=EDGE_CURVE('',#209,#184,#125,.T.);
#258=EDGE_CURVE('',#209,#179,#126,.T.);
#259=EDGE_CURVE('',#208,#188,#127,.T.);
#260=EDGE_CURVE('',#183,#208,#128,.T.);
#261=ORIENTED_EDGE('',*,*,#210,.T.);
#262=ORIENTED_EDGE('',*,*,#211,.T.);
#263=ORIENTED_EDGE('',*,*,#212,.T.);
#264=ORIENTED_EDGE('',*,*,#213,.T.);
#265=ORIENTED_EDGE('',*,*,#210,.F.);
#266=ORIENTED_EDGE('',*,*,#214,.F.);
#267=ORIENTED_EDGE('',*,*,#215,.F.);
#268=ORIENTED_EDGE('',*,*,#216,.F.);
#269=ORIENTED_EDGE('',*,*,#217,.F.);
#270=ORIENTED_EDGE('',*,*,#218,.T.);
#271=ORIENTED_EDGE('',*,*,#219,.T.);
#272=ORIENTED_EDGE('',*,*,#213,.F.);
#273=ORIENTED_EDGE('',*,*,#220,.T.);
#274=ORIENTED_EDGE('',*,*,#221,.F.);
#275=ORIENTED_EDGE('',*,*,#214,.T.);
#276=ORIENTED_EDGE('',*,*,#222,.T.);
#277=ORIENTED_EDGE('',*,*,#215,.T.);
#278=ORIENTED_EDGE('',*,*,#221,.T.);
#279=ORIENTED_EDGE('',*,*,#223,.T.);
#280=ORIENTED_EDGE('',*,*,#224,.T.);
#281=ORIENTED_EDGE('',*,*,#225,.F.);
#282=ORIENTED_EDGE('',*,*,#226,.T.);
#283=ORIENTED_EDGE('',*,*,#222,.F.);
#284=ORIENTED_EDGE('',*,*,#226,.F.);
#285=ORIENTED_EDGE('',*,*,#219,.F.);
#286=ORIENTED_EDGE('',*,*,#227,.T.);
#287=ORIENTED_EDGE('',*,*,#228,.T.);
#288=ORIENTED_EDGE('',*,*,#227,.F.);
#289=ORIENTED_EDGE('',*,*,#228,.F.);
#290=ORIENTED_EDGE('',*,*,#229,.F.);
#291=ORIENTED_EDGE('',*,*,#230,.T.);
#292=ORIENTED_EDGE('',*,*,#231,.T.);
#293=ORIENTED_EDGE('',*,*,#232,.F.);
#294=ORIENTED_EDGE('',*,*,#233,.F.);
#295=ORIENTED_EDGE('',*,*,#234,.T.);
#296=ORIENTED_EDGE('',*,*,#235,.T.);
#297=ORIENTED_EDGE('',*,*,#230,.F.);
#298=ORIENTED_EDGE('',*,*,#236,.F.);
#299=ORIENTED_EDGE('',*,*,#237,.T.);
#300=ORIENTED_EDGE('',*,*,#238,.T.);
#301=ORIENTED_EDGE('',*,*,#234,.F.);
#302=ORIENTED_EDGE('',*,*,#239,.F.);
#303=ORIENTED_EDGE('',*,*,#240,.T.);
#304=ORIENTED_EDGE('',*,*,#241,.T.);
#305=ORIENTED_EDGE('',*,*,#237,.F.);
#306=ORIENTED_EDGE('',*,*,#242,.F.);
#307=ORIENTED_EDGE('',*,*,#243,.T.);
#308=ORIENTED_EDGE('',*,*,#244,.T.);
#309=ORIENTED_EDGE('',*,*,#240,.F.);
#310=ORIENTED_EDGE('',*,*,#245,.F.);
#311=ORIENTED_EDGE('',*,*,#246,.T.);
#312=ORIENTED_EDGE('',*,*,#247,.T.);
#313=ORIENTED_EDGE('',*,*,#243,.F.);
#314=ORIENTED_EDGE('',*,*,#248,.F.);
#315=ORIENTED_EDGE('',*,*,#249,.T.);
#316=ORIENTED_EDGE('',*,*,#250,.T.);
#317=ORIENTED_EDGE('',*,*,#246,.F.);
#318=ORIENTED_EDGE('',*,*,#251,.F.);
#319=ORIENTED_EDGE('',*,*,#232,.T.);
#320=ORIENTED_EDGE('',*,*,#252,.T.);
#321=ORIENTED_EDGE('',*,*,#249,.F.);
#322=ORIENTED_EDGE('',*,*,#252,.F.);
#323=ORIENTED_EDGE('',*,*,#231,.F.);
#324=ORIENTED_EDGE('',*,*,#235,.F.);
#325=ORIENTED_EDGE('',*,*,#238,.F.);
#326=ORIENTED_EDGE('',*,*,#241,.F.);
#327=ORIENTED_EDGE('',*,*,#244,.F.);
#328=ORIENTED_EDGE('',*,*,#247,.F.);
#329=ORIENTED_EDGE('',*,*,#250,.F.);
#330=ORIENTED_EDGE('',*,*,#225,.T.);
#331=ORIENTED_EDGE('',*,*,#253,.F.);
#332=ORIENTED_EDGE('',*,*,#254,.F.);
#333=ORIENTED_EDGE('',*,*,#255,.F.);
#334=ORIENTED_EDGE('',*,*,#256,.F.);
#335=ORIENTED_EDGE('',*,*,#254,.T.);
#336=ORIENTED_EDGE('',*,*,#229,.T.);
#337=ORIENTED_EDGE('',*,*,#251,.T.);
#338=ORIENTED_EDGE('',*,*,#248,.T.);
#339=ORIENTED_EDGE('',*,*,#245,.T.);
#340=ORIENTED_EDGE('',*,*,#242,.T.);
#341=ORIENTED_EDGE('',*,*,#239,.T.);
#342=ORIENTED_EDGE('',*,*,#236,.T.);
#343=ORIENTED_EDGE('',*,*,#233,.T.);
#344=ORIENTED_EDGE('',*,*,#211,.F.);
#345=ORIENTED_EDGE('',*,*,#218,.F.);
#346=ORIENTED_EDGE('',*,*,#257,.F.);
#347=ORIENTED_EDGE('',*,*,#258,.T.);
#348=ORIENTED_EDGE('',*,*,#224,.F.);
#349=ORIENTED_EDGE('',*,*,#259,.F.);
#350=ORIENTED_EDGE('',*,*,#260,.F.);
#351=ORIENTED_EDGE('',*,*,#216,.T.);
#352=ORIENTED_EDGE('',*,*,#255,.T.);
#353=ORIENTED_EDGE('',*,*,#253,.T.);
#354=ORIENTED_EDGE('',*,*,#259,.T.);
#355=ORIENTED_EDGE('',*,*,#223,.F.);
#356=ORIENTED_EDGE('',*,*,#220,.F.);
#357=ORIENTED_EDGE('',*,*,#212,.F.);
#358=ORIENTED_EDGE('',*,*,#258,.F.);
#359=ORIENTED_EDGE('',*,*,#256,.T.);
#360=ORIENTED_EDGE('',*,*,#257,.T.);
#361=ORIENTED_EDGE('',*,*,#217,.T.);
#362=ORIENTED_EDGE('',*,*,#260,.T.);
#363=CYLINDRICAL_SURFACE('',#405,1.);
#364=CYLINDRICAL_SURFACE('',#413,1.);
#365=CYLINDRICAL_SURFACE('',#414,0.8);
#366=CYLINDRICAL_SURFACE('',#416,1.05);
#367=CYLINDRICAL_SURFACE('',#435,5.4);
#368=ADVANCED_FACE('',(#41),#363,.T.);
#369=ADVANCED_FACE('',(#42,#21),#25,.T.);
#370=ADVANCED_FACE('',(#43,#22),#26,.T.);
#371=ADVANCED_FACE('',(#44),#364,.T.);
#372=ADVANCED_FACE('',(#45),#365,.F.);
#373=ADVANCED_FACE('',(#46),#366,.F.);
#374=ADVANCED_FACE('',(#47),#27,.T.);
#375=ADVANCED_FACE('',(#48),#28,.F.);
#376=ADVANCED_FACE('',(#49),#29,.F.);
#377=ADVANCED_FACE('',(#50),#30,.F.);
#378=ADVANCED_FACE('',(#51),#31,.F.);
#379=ADVANCED_FACE('',(#52),#32,.F.);
#380=ADVANCED_FACE('',(#53),#33,.F.);
#381=ADVANCED_FACE('',(#54),#34,.F.);
#382=ADVANCED_FACE('',(#55),#35,.F.);
#383=ADVANCED_FACE('',(#56,#23),#36,.F.);
#384=ADVANCED_FACE('',(#57),#19,.F.);
#385=ADVANCED_FACE('',(#58,#24),#37,.F.);
#386=ADVANCED_FACE('',(#59),#38,.T.);
#387=ADVANCED_FACE('',(#60),#39,.T.);
#388=ADVANCED_FACE('',(#61),#367,.T.);
#389=ADVANCED_FACE('',(#62),#40,.F.);
#390=CLOSED_SHELL('',(#368,#369,#370,#371,#372,#373,#374,#375,#376,#377,
#378,#379,#380,#381,#382,#383,#384,#385,#386,#387,#388,#389));
#391=DERIVED_UNIT_ELEMENT(#393,1.);
#392=DERIVED_UNIT_ELEMENT(#708,-3.);
#393=(
MASS_UNIT()
NAMED_UNIT(*)
SI_UNIT(.KILO.,.GRAM.)
);
#394=DERIVED_UNIT((#391,#392));
#395=MEASURE_REPRESENTATION_ITEM('density measure',
POSITIVE_RATIO_MEASURE(7850.),#394);
#396=PROPERTY_DEFINITION_REPRESENTATION(#401,#398);
#397=PROPERTY_DEFINITION_REPRESENTATION(#402,#399);
#398=REPRESENTATION('material name',(#400),#705);
#399=REPRESENTATION('density',(#395),#705);
#400=DESCRIPTIVE_REPRESENTATION_ITEM('Steel','Steel');
#401=PROPERTY_DEFINITION('material property','material name',#720);
#402=PROPERTY_DEFINITION('material property','density of part',#720);
#403=AXIS2_PLACEMENT_3D('',#546,#438,#439);
#404=AXIS2_PLACEMENT_3D('',#547,#440,#441);
#405=AXIS2_PLACEMENT_3D('',#548,#442,#443);
#406=AXIS2_PLACEMENT_3D('',#551,#444,#445);
#407=AXIS2_PLACEMENT_3D('',#566,#448,#449);
#408=AXIS2_PLACEMENT_3D('',#570,#451,#452);
#409=AXIS2_PLACEMENT_3D('',#577,#456,#457);
#410=AXIS2_PLACEMENT_3D('',#578,#458,#459);
#411=AXIS2_PLACEMENT_3D('',#580,#460,#461);
#412=AXIS2_PLACEMENT_3D('',#583,#463,#464);
#413=AXIS2_PLACEMENT_3D('',#584,#465,#466);
#414=AXIS2_PLACEMENT_3D('',#599,#468,#469);
#415=AXIS2_PLACEMENT_3D('',#601,#470,#471);
#416=AXIS2_PLACEMENT_3D('',#603,#473,#474);
#417=AXIS2_PLACEMENT_3D('',#606,#476,#477);
#418=AXIS2_PLACEMENT_3D('',#607,#478,#479);
#419=AXIS2_PLACEMENT_3D('',#608,#480,#481);
#420=AXIS2_PLACEMENT_3D('',#617,#486,#487);
#421=AXIS2_PLACEMENT_3D('',#623,#491,#492);
#422=AXIS2_PLACEMENT_3D('',#629,#496,#497);
#423=AXIS2_PLACEMENT_3D('',#635,#501,#502);
#424=AXIS2_PLACEMENT_3D('',#641,#506,#507);
#425=AXIS2_PLACEMENT_3D('',#647,#511,#512);
#426=AXIS2_PLACEMENT_3D('',#653,#516,#517);
#427=AXIS2_PLACEMENT_3D('',#656,#520,#521);
#428=AXIS2_PLACEMENT_3D('',#686,#522,#523);
#429=AXIS2_PLACEMENT_3D('',#687,#524,#525);
#430=AXIS2_PLACEMENT_3D('',#689,#526,#527);
#431=AXIS2_PLACEMENT_3D('',#690,#528,#529);
#432=AXIS2_PLACEMENT_3D('',#691,#530,#531);
#433=AXIS2_PLACEMENT_3D('',#692,#532,#533);
#434=AXIS2_PLACEMENT_3D('',#695,#536,#537);
#435=AXIS2_PLACEMENT_3D('',#698,#540,#541);
#436=AXIS2_PLACEMENT_3D('',#699,#542,#543);
#437=AXIS2_PLACEMENT_3D('',#700,#544,#545);
#438=DIRECTION('axis',(0.,0.,1.));
#439=DIRECTION('refdir',(1.,0.,0.));
#440=DIRECTION('axis',(0.,0.,1.));
#441=DIRECTION('refdir',(1.,0.,0.));
#442=DIRECTION('center_axis',(-1.,-1.48159636486767E-16,0.));
#443=DIRECTION('ref_axis',(0.,0.707106781186548,0.707106781186547));
#444=DIRECTION('center_axis',(-1.,0.,0.));
#445=DIRECTION('ref_axis',(0.,0.707106781186548,0.707106781186547));
#446=DIRECTION('',(-1.,-1.48159636486767E-16,0.));
#447=DIRECTION('',(1.,1.48159636486767E-16,0.));
#448=DIRECTION('center_axis',(1.,0.,0.));
#449=DIRECTION('ref_axis',(0.,1.,0.));
#450=DIRECTION('',(0.,1.,0.));
#451=DIRECTION('center_axis',(-1.,0.,0.));
#452=DIRECTION('ref_axis',(0.,-0.707106781186548,0.707106781186547));
#453=DIRECTION('',(0.,0.,1.));
#454=DIRECTION('',(0.,-1.,0.));
#455=DIRECTION('',(0.,0.,1.));
#456=DIRECTION('center_axis',(-1.,0.,0.));
#457=DIRECTION('ref_axis',(0.,1.,0.));
#458=DIRECTION('center_axis',(0.,0.,1.));
#459=DIRECTION('ref_axis',(1.,0.,0.));
#460=DIRECTION('center_axis',(0.,0.,1.));
#461=DIRECTION('ref_axis',(1.,0.,0.));
#462=DIRECTION('',(-1.,-2.96319272973533E-17,0.));
#463=DIRECTION('center_axis',(0.,0.,-1.));
#464=DIRECTION('ref_axis',(1.,-1.81745201637992E-12,0.));
#465=DIRECTION('center_axis',(1.,2.96319272973533E-17,0.));
#466=DIRECTION('ref_axis',(0.,-0.707106781186548,0.707106781186547));
#467=DIRECTION('',(1.,2.96319272973533E-17,0.));
#468=DIRECTION('center_axis',(0.173648177666931,-3.15596313308248E-13,0.984807753012208));
#469=DIRECTION('ref_axis',(-1.81745201637992E-12,-1.,9.31484556791809E-19));
#470=DIRECTION('center_axis',(0.173648177666931,-3.15580894749701E-13,0.984807753012208));
#471=DIRECTION('ref_axis',(-1.81745201637992E-12,-1.,9.31484556791809E-19));
#472=DIRECTION('',(0.173648177666931,-3.15596313308248E-13,0.984807753012208));
#473=DIRECTION('center_axis',(-1.,0.,0.));
#474=DIRECTION('ref_axis',(0.,1.,0.));
#475=DIRECTION('',(-1.,0.,0.));
#476=DIRECTION('center_axis',(-1.,0.,0.));
#477=DIRECTION('ref_axis',(0.,1.,0.));
#478=DIRECTION('center_axis',(1.,0.,0.));
#479=DIRECTION('ref_axis',(0.,1.,0.));
#480=DIRECTION('center_axis',(0.696364240321303,0.707106781185283,-0.122787803968973));
#481=DIRECTION('ref_axis',(-0.696364240318735,0.707106781187812,0.122787803968973));
#482=DIRECTION('',(-0.696364240318659,0.707106781187812,0.122787803969406));
#483=DIRECTION('',(0.173648177666931,-3.15580894749701E-13,0.984807753012208));
#484=DIRECTION('',(-0.696364240318735,0.707106781187812,0.122787803968973));
#485=DIRECTION('',(0.173648177666931,-3.15580894749701E-13,0.984807753012208));
#486=DIRECTION('center_axis',(0.984807753012208,-1.8204133466907E-12,-0.173648177666931));
#487=DIRECTION('ref_axis',(1.84756006643814E-12,1.,-5.30883260080929E-15));
#488=DIRECTION('',(1.95563062964003E-12,1.,6.07589787721907E-13));
#489=DIRECTION('',(0.173648177666931,-3.15580894749701E-13,0.984807753012208));
#490=DIRECTION('',(1.84756006643814E-12,1.,-5.30883260080929E-15));
#491=DIRECTION('center_axis',(0.696364240318713,-0.707106781187834,-0.12278780396897));
#492=DIRECTION('ref_axis',(0.696364240321325,0.707106781185261,-0.122787803968977));
#493=DIRECTION('',(0.696364240321401,0.707106781185261,-0.122787803968543));
#494=DIRECTION('',(0.173648177666931,-3.15580894749701E-13,0.984807753012208));
#495=DIRECTION('',(0.696364240321325,0.707106781185261,-0.122787803968977));
#496=DIRECTION('center_axis',(-1.84686983013444E-12,-1.,5.20374217760136E-15));
#497=DIRECTION('ref_axis',(0.984807753012208,-1.81971534786692E-12,-0.173648177666931));
#498=DIRECTION('',(0.984807753012208,-1.81971534786692E-12,-0.17364817766693));
#499=DIRECTION('',(0.173648177666931,-3.15580894749701E-13,0.984807753012208));
#500=DIRECTION('',(0.984807753012208,-1.81971534786692E-12,-0.173648177666931));
#501=DIRECTION('center_axis',(-0.696364240321325,-0.707106781185261,0.122787803968977));
#502=DIRECTION('ref_axis',(0.696364240318713,-0.707106781187834,-0.12278780396897));
#503=DIRECTION('',(0.696364240318637,-0.707106781187834,-0.122787803969403));
#504=DIRECTION('',(0.173648177666931,-3.15580894749701E-13,0.984807753012208));
#505=DIRECTION('',(0.696364240318713,-0.707106781187834,-0.12278780396897));
#506=DIRECTION('center_axis',(-0.984807753012208,1.81999454739643E-12,0.173648177666931));
#507=DIRECTION('ref_axis',(-1.84714762964619E-12,-1.,5.23610886655163E-15));
#508=DIRECTION('',(-1.95521819284808E-12,-1.,-6.07662511456165E-13));
#509=DIRECTION('',(0.173648177666931,-3.15580894749701E-13,0.984807753012208));
#510=DIRECTION('',(-1.84714762964619E-12,-1.,5.23610886655163E-15));
#511=DIRECTION('center_axis',(-0.696364240318733,0.707106781187814,0.122787803968973));
#512=DIRECTION('ref_axis',(-0.696364240321305,-0.707106781185281,0.122787803968973));
#513=DIRECTION('',(-0.696364240321381,-0.707106781185281,0.12278780396854));
#514=DIRECTION('',(0.173648177666931,-3.15580894749701E-13,0.984807753012208));
#515=DIRECTION('',(-0.696364240321305,-0.707106781185281,0.122787803968973));
#516=DIRECTION('center_axis',(1.82129874903353E-12,1.,-6.9487065362623E-16));
#517=DIRECTION('ref_axis',(-0.984807753012208,1.79374979162237E-12,0.173648177666931));
#518=DIRECTION('',(-0.984807753012208,1.79374979162237E-12,0.17364817766693));
#519=DIRECTION('',(-0.984807753012208,1.79374979162237E-12,0.173648177666931));
#520=DIRECTION('center_axis',(0.173648177666931,-3.15580894749701E-13,0.984807753012208));
#521=DIRECTION('ref_axis',(0.984807753012208,0.,-0.173648177666931));
#522=DIRECTION('center_axis',(0.,0.,1.));
#523=DIRECTION('ref_axis',(1.,0.,0.));
#524=DIRECTION('center_axis',(-0.17364817766693,9.37950828626199E-13,-0.984807753012208));
#525=DIRECTION('ref_axis',(0.984807753012208,8.2057090826595E-14,-0.17364817766693));
#526=DIRECTION('center_axis',(0.,0.,1.));
#527=DIRECTION('ref_axis',(1.,0.,0.));
#528=DIRECTION('center_axis',(0.,0.,1.));
#529=DIRECTION('ref_axis',(1.,-5.40145705940635E-12,0.));
#530=DIRECTION('center_axis',(0.17364817766693,-9.37950828626199E-13,0.984807753012208));
#531=DIRECTION('ref_axis',(0.984807753012208,8.2057090826595E-14,-0.17364817766693));
#532=DIRECTION('center_axis',(-1.48159636486767E-16,1.,0.));
#533=DIRECTION('ref_axis',(-1.,-1.48159636486767E-16,0.));
#534=DIRECTION('',(1.,1.48159636486767E-16,0.));
#535=DIRECTION('',(0.,0.,1.));
#536=DIRECTION('center_axis',(2.96319272973533E-17,-1.,0.));
#537=DIRECTION('ref_axis',(1.,2.96319272973533E-17,0.));
#538=DIRECTION('',(0.,0.,1.));
#539=DIRECTION('',(-1.,-2.96319272973533E-17,0.));
#540=DIRECTION('center_axis',(0.,0.,1.));
#541=DIRECTION('ref_axis',(-1.,3.23108914886517E-15,0.));
#542=DIRECTION('center_axis',(0.,0.,1.));
#543=DIRECTION('ref_axis',(1.,0.,0.));
#544=DIRECTION('',(-6.28561048370201E-18,6.09473918398925E-19,-1.));
#545=DIRECTION('',(1.,-2.77555756156289E-17,-4.47138340363524E-29));
#546=CARTESIAN_POINT('',(0.,0.,0.));
#547=CARTESIAN_POINT('',(0.,0.,0.));
#548=CARTESIAN_POINT('Origin',(16.29,1.49999999999999,4.));
#549=CARTESIAN_POINT('',(23.52,1.49999999999999,5.));
#550=CARTESIAN_POINT('',(23.52,2.49999999999999,4.));
#551=CARTESIAN_POINT('Origin',(23.52,1.49999999999999,4.));
#552=CARTESIAN_POINT('',(4.78643917750974,2.49999999999998,4.));
#553=CARTESIAN_POINT('',(16.29,2.49999999999999,4.));
#554=CARTESIAN_POINT('',(5.18748493973718,1.49999999999998,5.));
#555=CARTESIAN_POINT('Ctrl Pts',(5.18748493973718,1.49999999999998,5.));
#556=CARTESIAN_POINT('Ctrl Pts',(5.1501548160408,1.62909963631565,5.));
#557=CARTESIAN_POINT('Ctrl Pts',(5.10506827929837,1.76520377222714,4.97362527582458));
#558=CARTESIAN_POINT('Ctrl Pts',(5.01204156346327,2.01422587118409,4.86824590071622));
#559=CARTESIAN_POINT('Ctrl Pts',(4.96431528221735,2.12724946268853,4.78930217975066));
#560=CARTESIAN_POINT('Ctrl Pts',(4.8862880062929,2.30057747726417,4.61118799395745));
#561=CARTESIAN_POINT('Ctrl Pts',(4.85004035307413,2.37491573807935,4.50170672130838));
#562=CARTESIAN_POINT('Ctrl Pts',(4.7999069303637,2.4746736699914,4.2592262728197));
#563=CARTESIAN_POINT('Ctrl Pts',(4.78643917750974,2.49999999999998,4.12610247508317));
#564=CARTESIAN_POINT('Ctrl Pts',(4.78643917750974,2.49999999999998,4.));
#565=CARTESIAN_POINT('',(16.29,1.49999999999999,5.));
#566=CARTESIAN_POINT('Origin',(23.52,-2.50000000000002,0.));
#567=CARTESIAN_POINT('',(23.52,-1.50000000000002,5.));
#568=CARTESIAN_POINT('',(23.52,2.49999999999999,5.));
#569=CARTESIAN_POINT('',(23.52,-2.50000000000002,4.));
#570=CARTESIAN_POINT('Origin',(23.52,-1.50000000000002,4.));
#571=CARTESIAN_POINT('',(23.52,-2.50000000000002,0.));
#572=CARTESIAN_POINT('',(23.52,-2.50000000000002,0.));
#573=CARTESIAN_POINT('',(23.52,2.49999999999999,0.));
#574=CARTESIAN_POINT('',(23.52,2.49999999999999,0.));
#575=CARTESIAN_POINT('',(23.52,2.49999999999999,0.));
#576=CARTESIAN_POINT('',(23.52,-1.05000000000001,2.5));
#577=CARTESIAN_POINT('Origin',(23.52,-5.55111512312578E-15,2.5));
#578=CARTESIAN_POINT('Origin',(9.06,0.,5.));
#579=CARTESIAN_POINT('',(5.18748493973717,-1.50000000000002,5.));
#580=CARTESIAN_POINT('Origin',(0.,0.,5.));
#581=CARTESIAN_POINT('',(6.92321958875486,-1.50000000000002,5.));
#582=CARTESIAN_POINT('',(0.881634903543781,0.799999999998392,5.));
#583=CARTESIAN_POINT('Origin',(0.881634903542327,-1.60772924571504E-12,
5.));
#584=CARTESIAN_POINT('Origin',(6.92321958875486,-1.50000000000002,4.));
#585=CARTESIAN_POINT('',(4.78643917750972,-2.50000000000002,4.));
#586=CARTESIAN_POINT('Ctrl Pts',(4.78643917750972,-2.50000000000002,4.));
#587=CARTESIAN_POINT('Ctrl Pts',(4.78643917750972,-2.50000000000002,4.13677613896871));
#588=CARTESIAN_POINT('Ctrl Pts',(4.80227400488678,-2.47028680203942,4.2800600116473));
#589=CARTESIAN_POINT('Ctrl Pts',(4.85985495416347,-2.35498665950492,4.53748313130155));
#590=CARTESIAN_POINT('Ctrl Pts',(4.9010694813615,-2.26948343446327,4.65177847967642));
#591=CARTESIAN_POINT('Ctrl Pts',(4.97338668662758,-2.10499268818011,4.80157450214312));
#592=CARTESIAN_POINT('Ctrl Pts',(5.00793911909376,-2.02230797023733,4.8585146458588));
#593=CARTESIAN_POINT('Ctrl Pts',(5.07654142874514,-1.84334230885659,4.9444411479156));
#594=CARTESIAN_POINT('Ctrl Pts',(5.11049382634069,-1.74702185255759,4.97342300367299));
#595=CARTESIAN_POINT('Ctrl Pts',(5.1558510244858,-1.60620340061124,4.995599138561));
#596=CARTESIAN_POINT('Ctrl Pts',(5.17195642604781,-1.55370262060005,5.));
#597=CARTESIAN_POINT('Ctrl Pts',(5.18748493973717,-1.50000000000002,5.));
#598=CARTESIAN_POINT('',(6.92321958875486,-2.50000000000002,4.));
#599=CARTESIAN_POINT('Origin',(-0.162829923878046,2.90529943311732E-13,
-0.923454386979295));
#600=CARTESIAN_POINT('',(0.705410964458062,0.799999999998713,4.00058437808175));
#601=CARTESIAN_POINT('Origin',(0.705410964456608,-1.28745162322951E-12,
4.00058437808175));
#602=CARTESIAN_POINT('',(-0.162829923876593,0.800000000000291,-0.923454386979295));
#603=CARTESIAN_POINT('Origin',(23.52,-5.55111512312578E-15,2.5));
#604=CARTESIAN_POINT('',(13.52,-1.05000000000001,2.5));
#605=CARTESIAN_POINT('',(23.52,-1.05000000000001,2.5));
#606=CARTESIAN_POINT('Origin',(13.52,-5.55111512312578E-15,2.5));
#607=CARTESIAN_POINT('Origin',(13.52,-5.55111512312578E-15,2.5));
#608=CARTESIAN_POINT('Origin',(2.2007086833532,0.994112549691397,-1.34021001337995));
#609=CARTESIAN_POINT('',(2.2007086833532,0.994112549691397,-1.34021001337995));
#610=CARTESIAN_POINT('',(0.816179822433223,2.3999999999985,-1.09608021962975));
#611=CARTESIAN_POINT('',(1.87477441565919,1.32507487883473,-1.2827390080471));
#612=CARTESIAN_POINT('',(3.06894957168785,0.994112549689819,3.58382875168109));
#613=CARTESIAN_POINT('',(2.2007086833532,0.994112549691397,-1.34021001337995));
#614=CARTESIAN_POINT('',(1.68442071076788,2.39999999999693,3.82795854543129));
#615=CARTESIAN_POINT('',(1.68442071076788,2.39999999999693,3.82795854543129));
#616=CARTESIAN_POINT('',(0.816179822433223,2.3999999999985,-1.09608021962975));
#617=CARTESIAN_POINT('Origin',(2.20070868334952,-0.994112549699551,-1.34021001337994));
#618=CARTESIAN_POINT('',(2.20070868334952,-0.994112549699551,-1.34021001337994));
#619=CARTESIAN_POINT('',(2.20070868335039,-0.497056274851664,-1.34021001338025));
#620=CARTESIAN_POINT('',(3.06894957168418,-0.994112549701129,3.5838287516811));
#621=CARTESIAN_POINT('',(2.20070868334952,-0.994112549699551,-1.34021001337994));
#622=CARTESIAN_POINT('',(3.06894957168785,0.994112549689819,3.58382875168109));
#623=CARTESIAN_POINT('Origin',(0.816179822424357,-2.40000000000163,-1.09608021962973));
#624=CARTESIAN_POINT('',(0.816179822424357,-2.40000000000163,-1.09608021962973));
#625=CARTESIAN_POINT('',(1.18250998519153,-2.02801860399255,-1.16067411117407));
#626=CARTESIAN_POINT('',(1.68442071075901,-2.40000000000321,3.82795854543131));
#627=CARTESIAN_POINT('',(0.816179822424357,-2.40000000000163,-1.09608021962973));
#628=CARTESIAN_POINT('',(3.06894957168418,-0.994112549701129,3.5838287516811));
#629=CARTESIAN_POINT('Origin',(-1.14183967018932,-2.39999999999801,-0.750828554328837));
#630=CARTESIAN_POINT('',(-1.14183967018932,-2.39999999999801,-0.750828554328837));
#631=CARTESIAN_POINT('',(-0.611938901964172,-2.39999999999899,-0.84426435686659));
#632=CARTESIAN_POINT('',(-0.273598781854661,-2.39999999999959,4.1732102107322));
#633=CARTESIAN_POINT('',(-1.14183967018932,-2.39999999999801,-0.750828554328837));
#634=CARTESIAN_POINT('',(1.68442071075901,-2.40000000000321,3.82795854543131));
#635=CARTESIAN_POINT('Origin',(-2.52636853110929,-0.994112549690816,-0.506698760578636));
#636=CARTESIAN_POINT('',(-2.52636853110929,-0.994112549690816,-0.506698760578636));
#637=CARTESIAN_POINT('',(-2.16003836834357,-1.3660939457011,-0.571292652122541));
#638=CARTESIAN_POINT('',(-1.65812764277464,-0.994112549692394,4.4173400044824));
#639=CARTESIAN_POINT('',(-2.52636853110929,-0.994112549690816,-0.506698760578636));
#640=CARTESIAN_POINT('',(-0.273598781854661,-2.39999999999959,4.1732102107322));
#641=CARTESIAN_POINT('Origin',(-2.52636853110562,0.994112549700132,-0.506698760578647));
#642=CARTESIAN_POINT('',(-2.52636853110562,0.994112549700132,-0.506698760578647));
#643=CARTESIAN_POINT('',(-2.52636853110648,0.497056274852546,-0.506698760578341));
#644=CARTESIAN_POINT('',(-1.65812764277096,0.994112549698554,4.41734000448239));
#645=CARTESIAN_POINT('',(-2.52636853110562,0.994112549700132,-0.506698760578647));
#646=CARTESIAN_POINT('',(-1.65812764277464,-0.994112549692394,4.4173400044824));
#647=CARTESIAN_POINT('Origin',(-1.14183967018067,2.40000000000207,-0.750828554328824));
#648=CARTESIAN_POINT('',(-1.14183967018067,2.40000000000207,-0.750828554328824));
#649=CARTESIAN_POINT('',(-1.46777393787556,2.06903767086016,-0.693357548995558));
#650=CARTESIAN_POINT('',(-0.273598781846014,2.40000000000049,4.17321021073222));
#651=CARTESIAN_POINT('',(-1.14183967018067,2.40000000000207,-0.750828554328824));
#652=CARTESIAN_POINT('',(-1.65812764277096,0.994112549698554,4.41734000448239));
#653=CARTESIAN_POINT('Origin',(0.816179822433223,2.3999999999985,-1.09608021962975));
#654=CARTESIAN_POINT('',(0.367070844352018,2.39999999999932,-1.01689018951411));
#655=CARTESIAN_POINT('',(-0.273598781846014,2.40000000000049,4.17321021073222));
#656=CARTESIAN_POINT('Origin',(0.705410964456608,-1.35724764760425E-12,
4.00058437808174));
#657=CARTESIAN_POINT('Ctrl Pts',(-5.4,2.91671179936809E-11,0.));
#658=CARTESIAN_POINT('Ctrl Pts',(-5.4,2.91671179936809E-11,5.43938800384918E-15));
#659=CARTESIAN_POINT('Ctrl Pts',(-5.4,2.91671179936809E-11,1.07961394816815E-14));
#660=CARTESIAN_POINT('Ctrl Pts',(-5.40000000002917,-5.39999999997083,0.));
#661=CARTESIAN_POINT('Ctrl Pts',(-5.40000000002917,-5.39999999997083,5.36189350735695E-15));
#662=CARTESIAN_POINT('Ctrl Pts',(-5.40000000002917,-5.39999999997083,1.06423278042279E-14));
#663=CARTESIAN_POINT('Ctrl Pts',(-2.91677793029521E-11,-5.4,0.));
#664=CARTESIAN_POINT('Ctrl Pts',(-2.91677793029521E-11,-5.4,-0.472438783039984));
#665=CARTESIAN_POINT('Ctrl Pts',(-0.0820381337632436,-5.39999999999956,
-0.937700159401413));
#666=CARTESIAN_POINT('Ctrl Pts',(5.39999999997083,-5.40000000002917,0.));
#667=CARTESIAN_POINT('Ctrl Pts',(5.39999999997083,-5.40000000002917,-0.944877566079974));
#668=CARTESIAN_POINT('Ctrl Pts',(5.23592373250268,-5.40000000002828,-1.87540031880284));
#669=CARTESIAN_POINT('Ctrl Pts',(5.4,-2.91679569386361E-11,0.));
#670=CARTESIAN_POINT('Ctrl Pts',(5.4,-2.91679569386361E-11,-0.944877566079974));
#671=CARTESIAN_POINT('Ctrl Pts',(5.23592373253185,-2.82817060254392E-11,
-1.87540031880284));
#672=CARTESIAN_POINT('Ctrl Pts',(5.40000000002917,5.39999999997083,0.));
#673=CARTESIAN_POINT('Ctrl Pts',(5.40000000002917,5.39999999997083,-0.944877566079974));
#674=CARTESIAN_POINT('Ctrl Pts',(5.23592373256102,5.39999999997172,-1.87540031880284));
#675=CARTESIAN_POINT('Ctrl Pts',(2.91677793029521E-11,5.4,0.));
#676=CARTESIAN_POINT('Ctrl Pts',(2.91677793029521E-11,5.4,-0.472438783039984));
#677=CARTESIAN_POINT('Ctrl Pts',(-0.0820381337049081,5.40000000000044,-0.937700159401413));
#678=CARTESIAN_POINT('Ctrl Pts',(-5.39999999997083,5.40000000002917,0.));
#679=CARTESIAN_POINT('Ctrl Pts',(-5.39999999997083,5.40000000002917,5.36189350735695E-15));
#680=CARTESIAN_POINT('Ctrl Pts',(-5.39999999997083,5.40000000002917,1.06423278042279E-14));
#681=CARTESIAN_POINT('Ctrl Pts',(-5.4,2.9168440612224E-11,0.));
#682=CARTESIAN_POINT('Ctrl Pts',(-5.4,2.9168440612224E-11,5.43938800384918E-15));
#683=CARTESIAN_POINT('Ctrl Pts',(-5.4,2.9168440612224E-11,1.07961394816815E-14));
#684=CARTESIAN_POINT('',(-5.4,-6.61309271539571E-16,0.));
#685=CARTESIAN_POINT('',(4.78643917750972,-2.50000000000002,0.));
#686=CARTESIAN_POINT('Origin',(0.,0.,0.));
#687=CARTESIAN_POINT('Origin',(-0.0820381337340775,4.42978986825437E-13,
-0.937700159401413));
#688=CARTESIAN_POINT('',(4.78643917750974,2.49999999999998,0.));
#689=CARTESIAN_POINT('Origin',(0.,0.,0.));
#690=CARTESIAN_POINT('Origin',(0.,-8.88178418184705E-17,0.));
#691=CARTESIAN_POINT('Origin',(-0.0820381337340775,4.42978986825437E-13,
-0.937700159401413));
#692=CARTESIAN_POINT('Origin',(23.52,2.49999999999999,0.));
#693=CARTESIAN_POINT('',(4.78643917750974,2.49999999999998,0.));
#694=CARTESIAN_POINT('',(4.78643917750974,2.49999999999998,0.));
#695=CARTESIAN_POINT('Origin',(4.78643917750972,-2.50000000000002,0.));
#696=CARTESIAN_POINT('',(4.78643917750972,-2.50000000000002,0.));
#697=CARTESIAN_POINT('',(23.52,-2.50000000000002,0.));
#698=CARTESIAN_POINT('Origin',(0.,0.,0.));
#699=CARTESIAN_POINT('Origin',(9.06,0.,0.));
#700=CARTESIAN_POINT('',(0.,0.,5.));
#701=UNCERTAINTY_MEASURE_WITH_UNIT(LENGTH_MEASURE(0.01),#707,
'DISTANCE_ACCURACY_VALUE',
'Maximum model space distance between geometric entities at asserted c
onnectivities');
#702=UNCERTAINTY_MEASURE_WITH_UNIT(LENGTH_MEASURE(0.01),#707,
'DISTANCE_ACCURACY_VALUE',
'Maximum model space distance between geometric entities at asserted c
onnectivities');
#703=UNCERTAINTY_MEASURE_WITH_UNIT(LENGTH_MEASURE(0.01),#707,
'DISTANCE_ACCURACY_VALUE',
'Maximum model space distance between geometric entities at asserted c
onnectivities');
#704=(
GEOMETRIC_REPRESENTATION_CONTEXT(3)
GLOBAL_UNCERTAINTY_ASSIGNED_CONTEXT((#701))
GLOBAL_UNIT_ASSIGNED_CONTEXT((#707,#709,#710))
REPRESENTATION_CONTEXT('','3D')
);
#705=(
GEOMETRIC_REPRESENTATION_CONTEXT(3)
GLOBAL_UNCERTAINTY_ASSIGNED_CONTEXT((#702))
GLOBAL_UNIT_ASSIGNED_CONTEXT((#707,#709,#710))
REPRESENTATION_CONTEXT('','3D')
);
#706=(
GEOMETRIC_REPRESENTATION_CONTEXT(3)
GLOBAL_UNCERTAINTY_ASSIGNED_CONTEXT((#703))
GLOBAL_UNIT_ASSIGNED_CONTEXT((#707,#709,#710))
REPRESENTATION_CONTEXT('','3D')
);
#707=(
LENGTH_UNIT()
NAMED_UNIT(*)
SI_UNIT(.MILLI.,.METRE.)
);
#708=(
LENGTH_UNIT()
NAMED_UNIT(*)
SI_UNIT($,.METRE.)
);
#709=(
NAMED_UNIT(*)
PLANE_ANGLE_UNIT()
SI_UNIT($,.RADIAN.)
);
#710=(
NAMED_UNIT(*)
SI_UNIT($,.STERADIAN.)
SOLID_ANGLE_UNIT()
);
#711=SHAPE_DEFINITION_REPRESENTATION(#713,#716);
#712=SHAPE_DEFINITION_REPRESENTATION(#714,#717);
#713=PRODUCT_DEFINITION_SHAPE('',$,#719);
#714=PRODUCT_DEFINITION_SHAPE('',$,#720);
#715=PRODUCT_DEFINITION_SHAPE($,$,#14);
#716=SHAPE_REPRESENTATION('',(#403,#437),#704);
#717=SHAPE_REPRESENTATION('',(#404),#705);
#718=PRODUCT_DEFINITION_CONTEXT('part definition',#726,'design');
#719=PRODUCT_DEFINITION('2026-09-19-23-33-05-545','PRINT_LAYOUT',#721,#718);
#720=PRODUCT_DEFINITION('2026-09-19-23-33-05-496','UpperArm',#722,#718);
#721=PRODUCT_DEFINITION_FORMATION('',$,#728);
#722=PRODUCT_DEFINITION_FORMATION('',$,#729);
#723=PRODUCT_RELATED_PRODUCT_CATEGORY('PRINT_LAYOUT','PRINT_LAYOUT',(#728));
#724=PRODUCT_RELATED_PRODUCT_CATEGORY('UpperArm','UpperArm',(#729));
#725=APPLICATION_PROTOCOL_DEFINITION('international standard',
'automotive_design',2009,#726);
#726=APPLICATION_CONTEXT(
'Core Data for Automotive Mechanical Design Process');
#727=PRODUCT_CONTEXT('part definition',#726,'mechanical');
#728=PRODUCT('2026-09-19-23-33-05-545','PRINT_LAYOUT',$,(#727));
#729=PRODUCT('2026-09-19-23-33-05-496','UpperArm',$,(#727));
#730=PRESENTATION_STYLE_ASSIGNMENT((#733));
#731=PRESENTATION_STYLE_ASSIGNMENT((#734));
#732=PRESENTATION_STYLE_ASSIGNMENT((#735));
#733=SURFACE_STYLE_USAGE(.BOTH.,#736);
#734=SURFACE_STYLE_USAGE(.BOTH.,#737);
#735=SURFACE_STYLE_USAGE(.BOTH.,#738);
#736=SURFACE_SIDE_STYLE('',(#739));
#737=SURFACE_SIDE_STYLE('',(#740));
#738=SURFACE_SIDE_STYLE('',(#741));
#739=SURFACE_STYLE_FILL_AREA(#742);
#740=SURFACE_STYLE_FILL_AREA(#743);
#741=SURFACE_STYLE_FILL_AREA(#744);
#742=FILL_AREA_STYLE('Plastic - Matte (Black)',(#745));
#743=FILL_AREA_STYLE('Steel - Satin',(#746));
#744=FILL_AREA_STYLE('Brass - Old',(#747));
#745=FILL_AREA_STYLE_COLOUR('Plastic - Matte (Black)',#748);
#746=FILL_AREA_STYLE_COLOUR('Steel - Satin',#749);
#747=FILL_AREA_STYLE_COLOUR('Brass - Old',#750);
#748=COLOUR_RGB('Plastic - Matte (Black)',0.0980392156862745,0.0980392156862745,
0.0980392156862745);
#749=COLOUR_RGB('Steel - Satin',0.627450980392157,0.627450980392157,0.627450980392157);
#750=COLOUR_RGB('Brass - Old',0.,0.,0.);
ENDSEC;
END-ISO-10303-21;
