ISO-10303-21;
HEADER;
/* Generated by software containing ST-Developer
 * from STEP Tools, Inc. (www.steptools.com) 
 */

FILE_DESCRIPTION(
/* description */ (''),
/* implementation_level */ '2;1');

FILE_NAME(
/* name */ 'Bell.step',
/* time_stamp */ '2026-09-10T23:11:16+02:00',
/* author */ (''),
/* organization */ (''),
/* preprocessor_version */ 'ST-DEVELOPER v20.2',
/* originating_system */ 'Autodesk Translation Framework v15.15.0.0',
/* authorisation */ '');

FILE_SCHEMA (('AUTOMOTIVE_DESIGN { 1 0 10303 214 3 1 1 }'));
ENDSEC;

DATA;
#10=MECHANICAL_DESIGN_GEOMETRIC_PRESENTATION_REPRESENTATION('',(#17),#165);
#11=ITEM_DEFINED_TRANSFORMATION($,$,#95,#107);
#12=(
REPRESENTATION_RELATIONSHIP($,$,#176,#175)
REPRESENTATION_RELATIONSHIP_WITH_TRANSFORMATION(#11)
SHAPE_REPRESENTATION_RELATIONSHIP()
);
#13=CONTEXT_DEPENDENT_SHAPE_REPRESENTATION(#12,#174);
#14=NEXT_ASSEMBLY_USAGE_OCCURRENCE('Bell:1','Bell:1','Bell:1',#178,#179,
'Bell:1');
#15=SHAPE_REPRESENTATION_RELATIONSHIP('SRR','None',#176,#16);
#16=ADVANCED_BREP_SHAPE_REPRESENTATION('',(#18),#164);
#17=STYLED_ITEM('',(#191),#18);
#18=MANIFOLD_SOLID_BREP('Body1',#81);
#19=FACE_BOUND('',#35,.T.);
#20=PLANE('',#106);
#21=LINE('',#152,#23);
#22=LINE('',#156,#24);
#23=VECTOR('',#126,1.1);
#24=VECTOR('',#131,4.7);
#25=CYLINDRICAL_SURFACE('',#102,1.1);
#26=CYLINDRICAL_SURFACE('',#104,4.7);
#27=FACE_OUTER_BOUND('',#31,.T.);
#28=FACE_OUTER_BOUND('',#32,.T.);
#29=FACE_OUTER_BOUND('',#33,.T.);
#30=FACE_OUTER_BOUND('',#34,.T.);
#31=EDGE_LOOP('',(#58,#59,#60,#61,#62,#63));
#32=EDGE_LOOP('',(#64,#65,#66,#67,#68));
#33=EDGE_LOOP('',(#69,#70,#71,#72,#73));
#34=EDGE_LOOP('',(#74));
#35=EDGE_LOOP('',(#75));
#36=CIRCLE('',#97,1.10000000000136);
#37=CIRCLE('',#98,1.10000000000136);
#38=CIRCLE('',#99,4.70000000000129);
#39=CIRCLE('',#100,4.7);
#40=CIRCLE('',#101,4.7);
#41=CIRCLE('',#103,1.1);
#42=CIRCLE('',#105,4.7);
#43=VERTEX_POINT('',#141);
#44=VERTEX_POINT('',#142);
#45=VERTEX_POINT('',#145);
#46=VERTEX_POINT('',#147);
#47=VERTEX_POINT('',#151);
#48=VERTEX_POINT('',#155);
#49=EDGE_CURVE('',#43,#44,#36,.T.);
#50=EDGE_CURVE('',#44,#43,#37,.T.);
#51=EDGE_CURVE('',#44,#45,#38,.T.);
#52=EDGE_CURVE('',#45,#46,#39,.T.);
#53=EDGE_CURVE('',#46,#45,#40,.T.);
#54=EDGE_CURVE('',#43,#47,#21,.T.);
#55=EDGE_CURVE('',#47,#47,#41,.T.);
#56=EDGE_CURVE('',#46,#48,#22,.T.);
#57=EDGE_CURVE('',#48,#48,#42,.T.);
#58=ORIENTED_EDGE('',*,*,#49,.F.);
#59=ORIENTED_EDGE('',*,*,#50,.F.);
#60=ORIENTED_EDGE('',*,*,#51,.T.);
#61=ORIENTED_EDGE('',*,*,#52,.T.);
#62=ORIENTED_EDGE('',*,*,#53,.T.);
#63=ORIENTED_EDGE('',*,*,#51,.F.);
#64=ORIENTED_EDGE('',*,*,#49,.T.);
#65=ORIENTED_EDGE('',*,*,#50,.T.);
#66=ORIENTED_EDGE('',*,*,#54,.T.);
#67=ORIENTED_EDGE('',*,*,#55,.T.);
#68=ORIENTED_EDGE('',*,*,#54,.F.);
#69=ORIENTED_EDGE('',*,*,#53,.F.);
#70=ORIENTED_EDGE('',*,*,#56,.T.);
#71=ORIENTED_EDGE('',*,*,#57,.T.);
#72=ORIENTED_EDGE('',*,*,#56,.F.);
#73=ORIENTED_EDGE('',*,*,#52,.F.);
#74=ORIENTED_EDGE('',*,*,#57,.F.);
#75=ORIENTED_EDGE('',*,*,#55,.F.);
#76=SPHERICAL_SURFACE('',#96,4.70000000000129);
#77=ADVANCED_FACE('',(#27),#76,.T.);
#78=ADVANCED_FACE('',(#28),#25,.F.);
#79=ADVANCED_FACE('',(#29),#26,.T.);
#80=ADVANCED_FACE('',(#30,#19),#20,.F.);
#81=CLOSED_SHELL('',(#77,#78,#79,#80));
#82=DERIVED_UNIT_ELEMENT(#84,1.);
#83=DERIVED_UNIT_ELEMENT(#167,-3.);
#84=(
MASS_UNIT()
NAMED_UNIT(*)
SI_UNIT(.KILO.,.GRAM.)
);
#85=DERIVED_UNIT((#82,#83));
#86=MEASURE_REPRESENTATION_ITEM('density measure',
POSITIVE_RATIO_MEASURE(7850.),#85);
#87=PROPERTY_DEFINITION_REPRESENTATION(#92,#89);
#88=PROPERTY_DEFINITION_REPRESENTATION(#93,#90);
#89=REPRESENTATION('material name',(#91),#164);
#90=REPRESENTATION('density',(#86),#164);
#91=DESCRIPTIVE_REPRESENTATION_ITEM('Steel','Steel');
#92=PROPERTY_DEFINITION('material property','material name',#179);
#93=PROPERTY_DEFINITION('material property','density of part',#179);
#94=AXIS2_PLACEMENT_3D('',#138,#108,#109);
#95=AXIS2_PLACEMENT_3D('',#139,#110,#111);
#96=AXIS2_PLACEMENT_3D('',#140,#112,#113);
#97=AXIS2_PLACEMENT_3D('',#143,#114,#115);
#98=AXIS2_PLACEMENT_3D('',#144,#116,#117);
#99=AXIS2_PLACEMENT_3D('',#146,#118,#119);
#100=AXIS2_PLACEMENT_3D('',#148,#120,#121);
#101=AXIS2_PLACEMENT_3D('',#149,#122,#123);
#102=AXIS2_PLACEMENT_3D('',#150,#124,#125);
#103=AXIS2_PLACEMENT_3D('',#153,#127,#128);
#104=AXIS2_PLACEMENT_3D('',#154,#129,#130);
#105=AXIS2_PLACEMENT_3D('',#157,#132,#133);
#106=AXIS2_PLACEMENT_3D('',#158,#134,#135);
#107=AXIS2_PLACEMENT_3D('',#159,#136,#137);
#108=DIRECTION('axis',(0.,0.,1.));
#109=DIRECTION('refdir',(1.,0.,0.));
#110=DIRECTION('axis',(0.,0.,1.));
#111=DIRECTION('refdir',(1.,0.,0.));
#112=DIRECTION('center_axis',(0.,0.,1.));
#113=DIRECTION('ref_axis',(1.,0.,0.));
#114=DIRECTION('center_axis',(0.,2.22044604925031E-15,1.));
#115=DIRECTION('ref_axis',(1.,0.,0.));
#116=DIRECTION('center_axis',(0.,2.22044604925031E-15,1.));
#117=DIRECTION('ref_axis',(1.,0.,0.));
#118=DIRECTION('center_axis',(0.,-1.,0.));
#119=DIRECTION('ref_axis',(-1.,0.,0.));
#120=DIRECTION('center_axis',(1.31395141572493E-27,1.98068972494383E-15,
1.));
#121=DIRECTION('ref_axis',(-1.,0.,1.31395141572493E-27));
#122=DIRECTION('center_axis',(1.31395141572493E-27,1.98068972494383E-15,
1.));
#123=DIRECTION('ref_axis',(-1.,0.,1.31395141572493E-27));
#124=DIRECTION('center_axis',(0.,2.22044604925031E-15,1.));
#125=DIRECTION('ref_axis',(-1.,-2.91755822995327E-42,0.));
#126=DIRECTION('',(0.,-2.22044604925031E-15,-1.));
#127=DIRECTION('center_axis',(-1.31395141572493E-27,-1.98068972494383E-15,
-1.));
#128=DIRECTION('ref_axis',(-1.,0.,1.31395141572493E-27));
#129=DIRECTION('center_axis',(0.,2.22044604925031E-15,1.));
#130=DIRECTION('ref_axis',(-1.,-2.91755822995327E-42,0.));
#131=DIRECTION('',(0.,-2.22044604925031E-15,-1.));
#132=DIRECTION('center_axis',(1.31395141572493E-27,1.98068972494383E-15,
1.));
#133=DIRECTION('ref_axis',(-1.,0.,1.31395141572493E-27));
#134=DIRECTION('center_axis',(1.31395141572493E-27,1.98068972494383E-15,
1.));
#135=DIRECTION('ref_axis',(-1.,0.,1.31395141572493E-27));
#136=DIRECTION('',(-1.2783902277042E-15,-8.34322274914772E-16,1.));
#137=DIRECTION('',(0.999999999999999,-6.66133814775094E-16,1.66533453693773E-16));
#138=CARTESIAN_POINT('',(0.,0.,0.));
#139=CARTESIAN_POINT('',(0.,0.,0.));
#140=CARTESIAN_POINT('Origin',(25.0955549577588,-33.2383600798266,-34.6999999999997));
#141=CARTESIAN_POINT('',(26.1955549577588,-33.2383600798266,-30.1305361364814));
#142=CARTESIAN_POINT('',(23.9955549577561,-33.2383600798266,-30.1305361364814));
#143=CARTESIAN_POINT('Origin',(25.0955549577575,-33.2383600798266,-30.1305361364814));
#144=CARTESIAN_POINT('Origin',(25.0955549577575,-33.2383600798266,-30.1305361364814));
#145=CARTESIAN_POINT('',(20.3955549577575,-33.2383600798266,-34.6999999999997));
#146=CARTESIAN_POINT('Origin',(25.0955549577588,-33.2383600798266,-34.6999999999997));
#147=CARTESIAN_POINT('',(29.7955549577575,-33.2383600798266,-34.6999999999997));
#148=CARTESIAN_POINT('Origin',(25.0955549577575,-33.2383600798266,-34.6999999999997));
#149=CARTESIAN_POINT('Origin',(25.0955549577575,-33.2383600798266,-34.6999999999997));
#150=CARTESIAN_POINT('Origin',(25.0955549577574,-33.2383600798266,-36.6999999999997));
#151=CARTESIAN_POINT('',(26.1955549577574,-33.2383600798266,-36.6999999999997));
#152=CARTESIAN_POINT('',(26.1955549577574,-33.2383600798266,-36.6999999999997));
#153=CARTESIAN_POINT('Origin',(25.0955549577574,-33.2383600798266,-36.6999999999997));
#154=CARTESIAN_POINT('Origin',(25.0955549577575,-33.2383600798266,-36.6999999999997));
#155=CARTESIAN_POINT('',(29.7955549577575,-33.2383600798266,-36.6999999999997));
#156=CARTESIAN_POINT('',(29.7955549577575,-33.2383600798266,-36.6999999999997));
#157=CARTESIAN_POINT('Origin',(25.0955549577575,-33.2383600798266,-36.6999999999997));
#158=CARTESIAN_POINT('Origin',(25.0955549577575,-33.2383600798266,-36.6999999999997));
#159=CARTESIAN_POINT('',(-26.7185129727349,41.6090393421328,43.3999999999999));
#160=UNCERTAINTY_MEASURE_WITH_UNIT(LENGTH_MEASURE(0.01),#166,
'DISTANCE_ACCURACY_VALUE',
'Maximum model space distance between geometric entities at asserted c
onnectivities');
#161=UNCERTAINTY_MEASURE_WITH_UNIT(LENGTH_MEASURE(0.01),#166,
'DISTANCE_ACCURACY_VALUE',
'Maximum model space distance between geometric entities at asserted c
onnectivities');
#162=UNCERTAINTY_MEASURE_WITH_UNIT(LENGTH_MEASURE(0.01),#166,
'DISTANCE_ACCURACY_VALUE',
'Maximum model space distance between geometric entities at asserted c
onnectivities');
#163=(
GEOMETRIC_REPRESENTATION_CONTEXT(3)
GLOBAL_UNCERTAINTY_ASSIGNED_CONTEXT((#160))
GLOBAL_UNIT_ASSIGNED_CONTEXT((#166,#168,#169))
REPRESENTATION_CONTEXT('','3D')
);
#164=(
GEOMETRIC_REPRESENTATION_CONTEXT(3)
GLOBAL_UNCERTAINTY_ASSIGNED_CONTEXT((#161))
GLOBAL_UNIT_ASSIGNED_CONTEXT((#166,#168,#169))
REPRESENTATION_CONTEXT('','3D')
);
#165=(
GEOMETRIC_REPRESENTATION_CONTEXT(3)
GLOBAL_UNCERTAINTY_ASSIGNED_CONTEXT((#162))
GLOBAL_UNIT_ASSIGNED_CONTEXT((#166,#168,#169))
REPRESENTATION_CONTEXT('','3D')
);
#166=(
LENGTH_UNIT()
NAMED_UNIT(*)
SI_UNIT(.MILLI.,.METRE.)
);
#167=(
LENGTH_UNIT()
NAMED_UNIT(*)
SI_UNIT($,.METRE.)
);
#168=(
NAMED_UNIT(*)
PLANE_ANGLE_UNIT()
SI_UNIT($,.RADIAN.)
);
#169=(
NAMED_UNIT(*)
SI_UNIT($,.STERADIAN.)
SOLID_ANGLE_UNIT()
);
#170=SHAPE_DEFINITION_REPRESENTATION(#172,#175);
#171=SHAPE_DEFINITION_REPRESENTATION(#173,#176);
#172=PRODUCT_DEFINITION_SHAPE('',$,#178);
#173=PRODUCT_DEFINITION_SHAPE('',$,#179);
#174=PRODUCT_DEFINITION_SHAPE($,$,#14);
#175=SHAPE_REPRESENTATION('',(#94,#107),#163);
#176=SHAPE_REPRESENTATION('',(#95),#164);
#177=PRODUCT_DEFINITION_CONTEXT('part definition',#185,'design');
#178=PRODUCT_DEFINITION('2026-09-10-23-11-15-986','PRINT_LAYOUT',#180,#177);
#179=PRODUCT_DEFINITION('2026-09-10-23-11-15-980','Bell',#181,#177);
#180=PRODUCT_DEFINITION_FORMATION('',$,#187);
#181=PRODUCT_DEFINITION_FORMATION('',$,#188);
#182=PRODUCT_RELATED_PRODUCT_CATEGORY('PRINT_LAYOUT','PRINT_LAYOUT',(#187));
#183=PRODUCT_RELATED_PRODUCT_CATEGORY('Bell','Bell',(#188));
#184=APPLICATION_PROTOCOL_DEFINITION('international standard',
'automotive_design',2009,#185);
#185=APPLICATION_CONTEXT(
'Core Data for Automotive Mechanical Design Process');
#186=PRODUCT_CONTEXT('part definition',#185,'mechanical');
#187=PRODUCT('2026-09-10-23-11-15-986','PRINT_LAYOUT',$,(#186));
#188=PRODUCT('2026-09-10-23-11-15-980','Bell',$,(#186));
#189=PRESENTATION_STYLE_ASSIGNMENT((#192));
#190=PRESENTATION_STYLE_ASSIGNMENT((#193));
#191=PRESENTATION_STYLE_ASSIGNMENT((#194));
#192=SURFACE_STYLE_USAGE(.BOTH.,#195);
#193=SURFACE_STYLE_USAGE(.BOTH.,#196);
#194=SURFACE_STYLE_USAGE(.BOTH.,#197);
#195=SURFACE_SIDE_STYLE('',(#198));
#196=SURFACE_SIDE_STYLE('',(#199));
#197=SURFACE_SIDE_STYLE('',(#200));
#198=SURFACE_STYLE_FILL_AREA(#201);
#199=SURFACE_STYLE_FILL_AREA(#202);
#200=SURFACE_STYLE_FILL_AREA(#203);
#201=FILL_AREA_STYLE('Plastic - Matte (Black)',(#204));
#202=FILL_AREA_STYLE('Steel - Satin',(#205));
#203=FILL_AREA_STYLE('Brass - Old',(#206));
#204=FILL_AREA_STYLE_COLOUR('Plastic - Matte (Black)',#207);
#205=FILL_AREA_STYLE_COLOUR('Steel - Satin',#208);
#206=FILL_AREA_STYLE_COLOUR('Brass - Old',#209);
#207=COLOUR_RGB('Plastic - Matte (Black)',0.0980392156862745,0.0980392156862745,
0.0980392156862745);
#208=COLOUR_RGB('Steel - Satin',0.627450980392157,0.627450980392157,0.627450980392157);
#209=COLOUR_RGB('Brass - Old',0.,0.,0.);
ENDSEC;
END-ISO-10303-21;
