ISO-10303-21;
HEADER;
/* Generated by software containing ST-Developer
 * from STEP Tools, Inc. (www.steptools.com) 
 */

FILE_DESCRIPTION(
/* description */ (''),
/* implementation_level */ '2;1');

FILE_NAME(
/* name */ 'BottomCover.step',
/* time_stamp */ '2026-09-28T17:32:18-07:00',
/* author */ (''),
/* organization */ (''),
/* preprocessor_version */ 'ST-DEVELOPER v20.2',
/* originating_system */ 'Autodesk Translation Framework v15.15.0.0',
/* authorisation */ '');

FILE_SCHEMA (('AUTOMOTIVE_DESIGN { 1 0 10303 214 3 1 1 }'));
ENDSEC;

DATA;
#10=MECHANICAL_DESIGN_GEOMETRIC_PRESENTATION_REPRESENTATION('',(#17),#1531);
#11=ITEM_DEFINED_TRANSFORMATION($,$,#923,#1006);
#12=(
REPRESENTATION_RELATIONSHIP($,$,#1542,#1541)
REPRESENTATION_RELATIONSHIP_WITH_TRANSFORMATION(#11)
SHAPE_REPRESENTATION_RELATIONSHIP()
);
#13=CONTEXT_DEPENDENT_SHAPE_REPRESENTATION(#12,#1540);
#14=NEXT_ASSEMBLY_USAGE_OCCURRENCE('BottomCover:1','BottomCover:1',
'BottomCover:1',#1544,#1545,'BottomCover:1');
#15=SHAPE_REPRESENTATION_RELATIONSHIP('SRR','None',#1542,#16);
#16=ADVANCED_BREP_SHAPE_REPRESENTATION('',(#18),#1530);
#17=STYLED_ITEM('',(#1556),#18);
#18=MANIFOLD_SOLID_BREP('BottomCover',#909);
#19=CYLINDRICAL_SURFACE('',#929,2.15);
#20=CYLINDRICAL_SURFACE('',#934,2.15);
#21=CYLINDRICAL_SURFACE('',#955,2.99999999999998);
#22=CYLINDRICAL_SURFACE('',#960,2.99999999999998);
#23=CYLINDRICAL_SURFACE('',#969,1.15);
#24=CYLINDRICAL_SURFACE('',#971,1.15);
#25=CYLINDRICAL_SURFACE('',#973,1.15);
#26=CYLINDRICAL_SURFACE('',#975,1.15);
#27=CYLINDRICAL_SURFACE('',#977,1.15);
#28=CYLINDRICAL_SURFACE('',#979,1.15);
#29=CYLINDRICAL_SURFACE('',#981,1.);
#30=CYLINDRICAL_SURFACE('',#984,1.);
#31=CYLINDRICAL_SURFACE('',#989,1.);
#32=CYLINDRICAL_SURFACE('',#992,0.999999999999999);
#33=CYLINDRICAL_SURFACE('',#995,3.00000000000001);
#34=CYLINDRICAL_SURFACE('',#997,3.00000000008884);
#35=CYLINDRICAL_SURFACE('',#1000,3.);
#36=CYLINDRICAL_SURFACE('',#1002,2.99999999999998);
#37=FACE_BOUND('',#98,.T.);
#38=FACE_BOUND('',#103,.T.);
#39=FACE_BOUND('',#106,.T.);
#40=FACE_BOUND('',#110,.T.);
#41=FACE_BOUND('',#114,.T.);
#42=FACE_BOUND('',#116,.T.);
#43=FACE_BOUND('',#126,.T.);
#44=FACE_BOUND('',#127,.T.);
#45=FACE_BOUND('',#151,.T.);
#46=FACE_BOUND('',#152,.T.);
#47=FACE_BOUND('',#153,.T.);
#48=FACE_BOUND('',#154,.T.);
#49=FACE_BOUND('',#155,.T.);
#50=FACE_BOUND('',#156,.T.);
#51=FACE_OUTER_BOUND('',#97,.T.);
#52=FACE_OUTER_BOUND('',#99,.T.);
#53=FACE_OUTER_BOUND('',#100,.T.);
#54=FACE_OUTER_BOUND('',#101,.T.);
#55=FACE_OUTER_BOUND('',#102,.T.);
#56=FACE_OUTER_BOUND('',#104,.T.);
#57=FACE_OUTER_BOUND('',#105,.T.);
#58=FACE_OUTER_BOUND('',#107,.T.);
#59=FACE_OUTER_BOUND('',#108,.T.);
#60=FACE_OUTER_BOUND('',#109,.T.);
#61=FACE_OUTER_BOUND('',#111,.T.);
#62=FACE_OUTER_BOUND('',#112,.T.);
#63=FACE_OUTER_BOUND('',#113,.T.);
#64=FACE_OUTER_BOUND('',#115,.T.);
#65=FACE_OUTER_BOUND('',#117,.T.);
#66=FACE_OUTER_BOUND('',#118,.T.);
#67=FACE_OUTER_BOUND('',#119,.T.);
#68=FACE_OUTER_BOUND('',#120,.T.);
#69=FACE_OUTER_BOUND('',#121,.T.);
#70=FACE_OUTER_BOUND('',#122,.T.);
#71=FACE_OUTER_BOUND('',#123,.T.);
#72=FACE_OUTER_BOUND('',#124,.T.);
#73=FACE_OUTER_BOUND('',#125,.T.);
#74=FACE_OUTER_BOUND('',#128,.T.);
#75=FACE_OUTER_BOUND('',#129,.T.);
#76=FACE_OUTER_BOUND('',#130,.T.);
#77=FACE_OUTER_BOUND('',#131,.T.);
#78=FACE_OUTER_BOUND('',#132,.T.);
#79=FACE_OUTER_BOUND('',#133,.T.);
#80=FACE_OUTER_BOUND('',#134,.T.);
#81=FACE_OUTER_BOUND('',#135,.T.);
#82=FACE_OUTER_BOUND('',#136,.T.);
#83=FACE_OUTER_BOUND('',#137,.T.);
#84=FACE_OUTER_BOUND('',#138,.T.);
#85=FACE_OUTER_BOUND('',#139,.T.);
#86=FACE_OUTER_BOUND('',#140,.T.);
#87=FACE_OUTER_BOUND('',#141,.T.);
#88=FACE_OUTER_BOUND('',#142,.T.);
#89=FACE_OUTER_BOUND('',#143,.T.);
#90=FACE_OUTER_BOUND('',#144,.T.);
#91=FACE_OUTER_BOUND('',#145,.T.);
#92=FACE_OUTER_BOUND('',#146,.T.);
#93=FACE_OUTER_BOUND('',#147,.T.);
#94=FACE_OUTER_BOUND('',#148,.T.);
#95=FACE_OUTER_BOUND('',#149,.T.);
#96=FACE_OUTER_BOUND('',#150,.T.);
#97=EDGE_LOOP('',(#583,#584,#585,#586,#587));
#98=EDGE_LOOP('',(#588));
#99=EDGE_LOOP('',(#589,#590,#591,#592));
#100=EDGE_LOOP('',(#593,#594,#595,#596));
#101=EDGE_LOOP('',(#597,#598,#599,#600));
#102=EDGE_LOOP('',(#601));
#103=EDGE_LOOP('',(#602));
#104=EDGE_LOOP('',(#603,#604,#605,#606));
#105=EDGE_LOOP('',(#607));
#106=EDGE_LOOP('',(#608));
#107=EDGE_LOOP('',(#609,#610,#611,#612));
#108=EDGE_LOOP('',(#613,#614,#615,#616));
#109=EDGE_LOOP('',(#617,#618,#619,#620,#621));
#110=EDGE_LOOP('',(#622));
#111=EDGE_LOOP('',(#623,#624,#625,#626));
#112=EDGE_LOOP('',(#627,#628,#629,#630));
#113=EDGE_LOOP('',(#631,#632,#633,#634,#635));
#114=EDGE_LOOP('',(#636));
#115=EDGE_LOOP('',(#637,#638,#639,#640,#641));
#116=EDGE_LOOP('',(#642));
#117=EDGE_LOOP('',(#643,#644,#645,#646));
#118=EDGE_LOOP('',(#647,#648,#649,#650));
#119=EDGE_LOOP('',(#651,#652,#653,#654,#655,#656));
#120=EDGE_LOOP('',(#657,#658,#659,#660));
#121=EDGE_LOOP('',(#661,#662,#663,#664,#665,#666));
#122=EDGE_LOOP('',(#667,#668,#669,#670,#671,#672,#673,#674));
#123=EDGE_LOOP('',(#675,#676,#677,#678,#679,#680,#681,#682));
#124=EDGE_LOOP('',(#683,#684,#685,#686));
#125=EDGE_LOOP('',(#687,#688,#689,#690,#691,#692,#693,#694,#695,#696,#697,
#698,#699,#700,#701,#702,#703,#704,#705,#706,#707,#708,#709,#710,#711,#712));
#126=EDGE_LOOP('',(#713));
#127=EDGE_LOOP('',(#714));
#128=EDGE_LOOP('',(#715,#716,#717,#718));
#129=EDGE_LOOP('',(#719,#720,#721,#722));
#130=EDGE_LOOP('',(#723,#724,#725,#726));
#131=EDGE_LOOP('',(#727,#728,#729,#730));
#132=EDGE_LOOP('',(#731,#732,#733,#734));
#133=EDGE_LOOP('',(#735,#736,#737,#738));
#134=EDGE_LOOP('',(#739,#740,#741,#742));
#135=EDGE_LOOP('',(#743,#744,#745,#746));
#136=EDGE_LOOP('',(#747,#748,#749,#750));
#137=EDGE_LOOP('',(#751,#752,#753,#754));
#138=EDGE_LOOP('',(#755,#756,#757,#758));
#139=EDGE_LOOP('',(#759,#760,#761,#762));
#140=EDGE_LOOP('',(#763,#764,#765,#766));
#141=EDGE_LOOP('',(#767,#768,#769,#770));
#142=EDGE_LOOP('',(#771,#772,#773,#774));
#143=EDGE_LOOP('',(#775,#776,#777,#778));
#144=EDGE_LOOP('',(#779,#780,#781,#782));
#145=EDGE_LOOP('',(#783,#784,#785,#786));
#146=EDGE_LOOP('',(#787,#788,#789,#790,#791,#792,#793,#794));
#147=EDGE_LOOP('',(#795,#796,#797,#798));
#148=EDGE_LOOP('',(#799,#800,#801,#802));
#149=EDGE_LOOP('',(#803,#804,#805,#806));
#150=EDGE_LOOP('',(#807,#808,#809,#810,#811,#812,#813,#814,#815,#816,#817,
#818,#819,#820,#821,#822,#823,#824,#825,#826,#827,#828));
#151=EDGE_LOOP('',(#829));
#152=EDGE_LOOP('',(#830));
#153=EDGE_LOOP('',(#831));
#154=EDGE_LOOP('',(#832));
#155=EDGE_LOOP('',(#833));
#156=EDGE_LOOP('',(#834));
#157=CIRCLE('',#925,2.99999999999998);
#158=CIRCLE('',#926,1.15);
#159=CIRCLE('',#930,2.15);
#160=CIRCLE('',#931,2.15);
#161=CIRCLE('',#933,1.15);
#162=CIRCLE('',#935,2.15);
#163=CIRCLE('',#936,2.15);
#164=CIRCLE('',#938,1.15);
#165=CIRCLE('',#942,3.);
#166=CIRCLE('',#943,1.15);
#167=CIRCLE('',#947,3.00000000008884);
#168=CIRCLE('',#948,1.15);
#169=CIRCLE('',#950,2.99999999999998);
#170=CIRCLE('',#951,1.15);
#171=CIRCLE('',#956,2.99999999999998);
#172=CIRCLE('',#961,2.99999999999998);
#173=CIRCLE('',#963,3.00000000000001);
#174=CIRCLE('',#964,0.999999999999999);
#175=CIRCLE('',#965,1.);
#176=CIRCLE('',#966,1.);
#177=CIRCLE('',#967,1.);
#178=CIRCLE('',#968,2.99999999999998);
#179=CIRCLE('',#970,1.15);
#180=CIRCLE('',#972,1.15);
#181=CIRCLE('',#974,1.15);
#182=CIRCLE('',#976,1.15);
#183=CIRCLE('',#978,1.15);
#184=CIRCLE('',#980,1.15);
#185=CIRCLE('',#982,1.);
#186=CIRCLE('',#985,1.);
#187=CIRCLE('',#990,1.);
#188=CIRCLE('',#993,0.999999999999999);
#189=CIRCLE('',#996,3.00000000000001);
#190=CIRCLE('',#998,3.00000000008884);
#191=CIRCLE('',#1001,3.);
#192=CIRCLE('',#1003,2.99999999999998);
#193=LINE('',#1272,#283);
#194=LINE('',#1274,#284);
#195=LINE('',#1276,#285);
#196=LINE('',#1278,#286);
#197=LINE('',#1284,#287);
#198=LINE('',#1286,#288);
#199=LINE('',#1287,#289);
#200=LINE('',#1290,#290);
#201=LINE('',#1291,#291);
#202=LINE('',#1296,#292);
#203=LINE('',#1305,#293);
#204=LINE('',#1313,#294);
#205=LINE('',#1315,#295);
#206=LINE('',#1317,#296);
#207=LINE('',#1318,#297);
#208=LINE('',#1322,#298);
#209=LINE('',#1323,#299);
#210=LINE('',#1324,#300);
#211=LINE('',#1327,#301);
#212=LINE('',#1330,#302);
#213=LINE('',#1336,#303);
#214=LINE('',#1338,#304);
#215=LINE('',#1340,#305);
#216=LINE('',#1341,#306);
#217=LINE('',#1345,#307);
#218=LINE('',#1346,#308);
#219=LINE('',#1347,#309);
#220=LINE('',#1350,#310);
#221=LINE('',#1353,#311);
#222=LINE('',#1359,#312);
#223=LINE('',#1361,#313);
#224=LINE('',#1363,#314);
#225=LINE('',#1365,#315);
#226=LINE('',#1371,#316);
#227=LINE('',#1373,#317);
#228=LINE('',#1374,#318);
#229=LINE('',#1377,#319);
#230=LINE('',#1378,#320);
#231=LINE('',#1381,#321);
#232=LINE('',#1383,#322);
#233=LINE('',#1385,#323);
#234=LINE('',#1386,#324);
#235=LINE('',#1389,#325);
#236=LINE('',#1393,#326);
#237=LINE('',#1395,#327);
#238=LINE('',#1397,#328);
#239=LINE('',#1398,#329);
#240=LINE('',#1400,#330);
#241=LINE('',#1402,#331);
#242=LINE('',#1403,#332);
#243=LINE('',#1405,#333);
#244=LINE('',#1407,#334);
#245=LINE('',#1409,#335);
#246=LINE('',#1410,#336);
#247=LINE('',#1413,#337);
#248=LINE('',#1419,#338);
#249=LINE('',#1423,#339);
#250=LINE('',#1427,#340);
#251=LINE('',#1429,#341);
#252=LINE('',#1431,#342);
#253=LINE('',#1435,#343);
#254=LINE('',#1439,#344);
#255=LINE('',#1441,#345);
#256=LINE('',#1445,#346);
#257=LINE('',#1449,#347);
#258=LINE('',#1453,#348);
#259=LINE('',#1457,#349);
#260=LINE('',#1461,#350);
#261=LINE('',#1465,#351);
#262=LINE('',#1470,#352);
#263=LINE('',#1471,#353);
#264=LINE('',#1474,#354);
#265=LINE('',#1475,#355);
#266=LINE('',#1479,#356);
#267=LINE('',#1482,#357);
#268=LINE('',#1483,#358);
#269=LINE('',#1486,#359);
#270=LINE('',#1487,#360);
#271=LINE('',#1490,#361);
#272=LINE('',#1491,#362);
#273=LINE('',#1495,#363);
#274=LINE('',#1498,#364);
#275=LINE('',#1499,#365);
#276=LINE('',#1503,#366);
#277=LINE('',#1506,#367);
#278=LINE('',#1507,#368);
#279=LINE('',#1514,#369);
#280=LINE('',#1515,#370);
#281=LINE('',#1521,#371);
#282=LINE('',#1523,#372);
#283=VECTOR('',#1013,10.);
#284=VECTOR('',#1014,10.);
#285=VECTOR('',#1015,10.);
#286=VECTOR('',#1016,10.);
#287=VECTOR('',#1023,10.);
#288=VECTOR('',#1024,10.);
#289=VECTOR('',#1025,10.);
#290=VECTOR('',#1028,10.);
#291=VECTOR('',#1029,10.);
#292=VECTOR('',#1034,2.15);
#293=VECTOR('',#1045,2.15);
#294=VECTOR('',#1054,10.);
#295=VECTOR('',#1055,10.);
#296=VECTOR('',#1056,10.);
#297=VECTOR('',#1057,10.);
#298=VECTOR('',#1060,10.);
#299=VECTOR('',#1061,10.);
#300=VECTOR('',#1062,10.);
#301=VECTOR('',#1065,10.);
#302=VECTOR('',#1068,10.);
#303=VECTOR('',#1073,10.);
#304=VECTOR('',#1074,10.);
#305=VECTOR('',#1075,10.);
#306=VECTOR('',#1076,10.);
#307=VECTOR('',#1079,10.);
#308=VECTOR('',#1080,10.);
#309=VECTOR('',#1081,10.);
#310=VECTOR('',#1084,10.);
#311=VECTOR('',#1087,10.);
#312=VECTOR('',#1092,10.);
#313=VECTOR('',#1093,10.);
#314=VECTOR('',#1094,10.);
#315=VECTOR('',#1095,10.);
#316=VECTOR('',#1102,10.);
#317=VECTOR('',#1103,10.);
#318=VECTOR('',#1104,10.);
#319=VECTOR('',#1107,10.);
#320=VECTOR('',#1108,10.);
#321=VECTOR('',#1111,10.);
#322=VECTOR('',#1112,10.);
#323=VECTOR('',#1113,10.);
#324=VECTOR('',#1114,10.);
#325=VECTOR('',#1117,10.);
#326=VECTOR('',#1122,10.);
#327=VECTOR('',#1123,10.);
#328=VECTOR('',#1124,10.);
#329=VECTOR('',#1125,10.);
#330=VECTOR('',#1128,10.);
#331=VECTOR('',#1129,10.);
#332=VECTOR('',#1130,10.);
#333=VECTOR('',#1133,10.);
#334=VECTOR('',#1134,10.);
#335=VECTOR('',#1135,10.);
#336=VECTOR('',#1136,10.);
#337=VECTOR('',#1139,10.);
#338=VECTOR('',#1146,10.);
#339=VECTOR('',#1149,10.);
#340=VECTOR('',#1152,10.);
#341=VECTOR('',#1153,10.);
#342=VECTOR('',#1154,10.);
#343=VECTOR('',#1157,10.);
#344=VECTOR('',#1160,10.);
#345=VECTOR('',#1163,10.);
#346=VECTOR('',#1168,1.15);
#347=VECTOR('',#1173,1.15);
#348=VECTOR('',#1178,1.15);
#349=VECTOR('',#1183,1.15);
#350=VECTOR('',#1188,1.15);
#351=VECTOR('',#1193,1.15);
#352=VECTOR('',#1198,10.);
#353=VECTOR('',#1199,10.);
#354=VECTOR('',#1202,10.);
#355=VECTOR('',#1203,10.);
#356=VECTOR('',#1208,10.);
#357=VECTOR('',#1211,10.);
#358=VECTOR('',#1212,10.);
#359=VECTOR('',#1215,10.);
#360=VECTOR('',#1216,10.);
#361=VECTOR('',#1219,10.);
#362=VECTOR('',#1220,10.);
#363=VECTOR('',#1225,10.);
#364=VECTOR('',#1228,10.);
#365=VECTOR('',#1229,10.);
#366=VECTOR('',#1234,10.);
#367=VECTOR('',#1237,10.);
#368=VECTOR('',#1238,10.);
#369=VECTOR('',#1249,10.);
#370=VECTOR('',#1250,10.);
#371=VECTOR('',#1259,10.);
#372=VECTOR('',#1262,10.);
#373=VERTEX_POINT('',#1270);
#374=VERTEX_POINT('',#1271);
#375=VERTEX_POINT('',#1273);
#376=VERTEX_POINT('',#1275);
#377=VERTEX_POINT('',#1277);
#378=VERTEX_POINT('',#1280);
#379=VERTEX_POINT('',#1283);
#380=VERTEX_POINT('',#1285);
#381=VERTEX_POINT('',#1289);
#382=VERTEX_POINT('',#1293);
#383=VERTEX_POINT('',#1295);
#384=VERTEX_POINT('',#1299);
#385=VERTEX_POINT('',#1302);
#386=VERTEX_POINT('',#1304);
#387=VERTEX_POINT('',#1308);
#388=VERTEX_POINT('',#1311);
#389=VERTEX_POINT('',#1312);
#390=VERTEX_POINT('',#1314);
#391=VERTEX_POINT('',#1316);
#392=VERTEX_POINT('',#1320);
#393=VERTEX_POINT('',#1321);
#394=VERTEX_POINT('',#1326);
#395=VERTEX_POINT('',#1328);
#396=VERTEX_POINT('',#1331);
#397=VERTEX_POINT('',#1334);
#398=VERTEX_POINT('',#1335);
#399=VERTEX_POINT('',#1337);
#400=VERTEX_POINT('',#1339);
#401=VERTEX_POINT('',#1343);
#402=VERTEX_POINT('',#1344);
#403=VERTEX_POINT('',#1349);
#404=VERTEX_POINT('',#1351);
#405=VERTEX_POINT('',#1354);
#406=VERTEX_POINT('',#1357);
#407=VERTEX_POINT('',#1358);
#408=VERTEX_POINT('',#1360);
#409=VERTEX_POINT('',#1362);
#410=VERTEX_POINT('',#1364);
#411=VERTEX_POINT('',#1367);
#412=VERTEX_POINT('',#1370);
#413=VERTEX_POINT('',#1372);
#414=VERTEX_POINT('',#1376);
#415=VERTEX_POINT('',#1380);
#416=VERTEX_POINT('',#1382);
#417=VERTEX_POINT('',#1384);
#418=VERTEX_POINT('',#1388);
#419=VERTEX_POINT('',#1392);
#420=VERTEX_POINT('',#1394);
#421=VERTEX_POINT('',#1396);
#422=VERTEX_POINT('',#1401);
#423=VERTEX_POINT('',#1406);
#424=VERTEX_POINT('',#1408);
#425=VERTEX_POINT('',#1412);
#426=VERTEX_POINT('',#1416);
#427=VERTEX_POINT('',#1418);
#428=VERTEX_POINT('',#1420);
#429=VERTEX_POINT('',#1422);
#430=VERTEX_POINT('',#1424);
#431=VERTEX_POINT('',#1426);
#432=VERTEX_POINT('',#1428);
#433=VERTEX_POINT('',#1430);
#434=VERTEX_POINT('',#1432);
#435=VERTEX_POINT('',#1434);
#436=VERTEX_POINT('',#1436);
#437=VERTEX_POINT('',#1438);
#438=VERTEX_POINT('',#1443);
#439=VERTEX_POINT('',#1447);
#440=VERTEX_POINT('',#1451);
#441=VERTEX_POINT('',#1455);
#442=VERTEX_POINT('',#1459);
#443=VERTEX_POINT('',#1463);
#444=VERTEX_POINT('',#1467);
#445=VERTEX_POINT('',#1468);
#446=VERTEX_POINT('',#1473);
#447=VERTEX_POINT('',#1477);
#448=VERTEX_POINT('',#1481);
#449=VERTEX_POINT('',#1485);
#450=VERTEX_POINT('',#1489);
#451=VERTEX_POINT('',#1493);
#452=VERTEX_POINT('',#1497);
#453=VERTEX_POINT('',#1501);
#454=VERTEX_POINT('',#1505);
#455=VERTEX_POINT('',#1513);
#456=VERTEX_POINT('',#1519);
#457=EDGE_CURVE('',#373,#374,#193,.T.);
#458=EDGE_CURVE('',#375,#373,#194,.T.);
#459=EDGE_CURVE('',#376,#375,#195,.T.);
#460=EDGE_CURVE('',#377,#376,#196,.T.);
#461=EDGE_CURVE('',#374,#377,#157,.T.);
#462=EDGE_CURVE('',#378,#378,#158,.T.);
#463=EDGE_CURVE('',#379,#373,#197,.T.);
#464=EDGE_CURVE('',#380,#379,#198,.T.);
#465=EDGE_CURVE('',#380,#375,#199,.T.);
#466=EDGE_CURVE('',#376,#381,#200,.T.);
#467=EDGE_CURVE('',#381,#380,#201,.T.);
#468=EDGE_CURVE('',#382,#382,#159,.T.);
#469=EDGE_CURVE('',#382,#383,#202,.T.);
#470=EDGE_CURVE('',#383,#383,#160,.T.);
#471=EDGE_CURVE('',#384,#384,#161,.T.);
#472=EDGE_CURVE('',#385,#385,#162,.T.);
#473=EDGE_CURVE('',#385,#386,#203,.T.);
#474=EDGE_CURVE('',#386,#386,#163,.T.);
#475=EDGE_CURVE('',#387,#387,#164,.T.);
#476=EDGE_CURVE('',#388,#389,#204,.T.);
#477=EDGE_CURVE('',#388,#390,#205,.T.);
#478=EDGE_CURVE('',#391,#390,#206,.T.);
#479=EDGE_CURVE('',#389,#391,#207,.T.);
#480=EDGE_CURVE('',#392,#393,#208,.T.);
#481=EDGE_CURVE('',#391,#392,#209,.T.);
#482=EDGE_CURVE('',#390,#393,#210,.T.);
#483=EDGE_CURVE('',#394,#388,#211,.T.);
#484=EDGE_CURVE('',#395,#394,#165,.T.);
#485=EDGE_CURVE('',#393,#395,#212,.T.);
#486=EDGE_CURVE('',#396,#396,#166,.T.);
#487=EDGE_CURVE('',#397,#398,#213,.T.);
#488=EDGE_CURVE('',#397,#399,#214,.T.);
#489=EDGE_CURVE('',#400,#399,#215,.T.);
#490=EDGE_CURVE('',#398,#400,#216,.T.);
#491=EDGE_CURVE('',#401,#402,#217,.T.);
#492=EDGE_CURVE('',#400,#401,#218,.T.);
#493=EDGE_CURVE('',#399,#402,#219,.T.);
#494=EDGE_CURVE('',#403,#397,#220,.T.);
#495=EDGE_CURVE('',#404,#403,#167,.T.);
#496=EDGE_CURVE('',#402,#404,#221,.T.);
#497=EDGE_CURVE('',#405,#405,#168,.T.);
#498=EDGE_CURVE('',#406,#407,#222,.T.);
#499=EDGE_CURVE('',#408,#406,#223,.T.);
#500=EDGE_CURVE('',#409,#408,#224,.T.);
#501=EDGE_CURVE('',#410,#409,#225,.T.);
#502=EDGE_CURVE('',#407,#410,#169,.T.);
#503=EDGE_CURVE('',#411,#411,#170,.T.);
#504=EDGE_CURVE('',#412,#406,#226,.T.);
#505=EDGE_CURVE('',#413,#412,#227,.T.);
#506=EDGE_CURVE('',#413,#408,#228,.T.);
#507=EDGE_CURVE('',#409,#414,#229,.T.);
#508=EDGE_CURVE('',#414,#413,#230,.T.);
#509=EDGE_CURVE('',#415,#374,#231,.T.);
#510=EDGE_CURVE('',#415,#416,#232,.T.);
#511=EDGE_CURVE('',#416,#417,#233,.T.);
#512=EDGE_CURVE('',#379,#417,#234,.T.);
#513=EDGE_CURVE('',#418,#377,#235,.T.);
#514=EDGE_CURVE('',#418,#415,#171,.T.);
#515=EDGE_CURVE('',#419,#389,#236,.T.);
#516=EDGE_CURVE('',#420,#419,#237,.T.);
#517=EDGE_CURVE('',#421,#420,#238,.T.);
#518=EDGE_CURVE('',#421,#394,#239,.T.);
#519=EDGE_CURVE('',#401,#381,#240,.T.);
#520=EDGE_CURVE('',#422,#404,#241,.T.);
#521=EDGE_CURVE('',#422,#418,#242,.T.);
#522=EDGE_CURVE('',#412,#398,#243,.T.);
#523=EDGE_CURVE('',#423,#407,#244,.T.);
#524=EDGE_CURVE('',#423,#424,#245,.T.);
#525=EDGE_CURVE('',#424,#403,#246,.T.);
#526=EDGE_CURVE('',#425,#410,#247,.T.);
#527=EDGE_CURVE('',#425,#423,#172,.T.);
#528=EDGE_CURVE('',#417,#426,#173,.T.);
#529=EDGE_CURVE('',#426,#427,#248,.T.);
#530=EDGE_CURVE('',#427,#428,#174,.T.);
#531=EDGE_CURVE('',#428,#429,#249,.T.);
#532=EDGE_CURVE('',#429,#430,#175,.T.);
#533=EDGE_CURVE('',#430,#431,#250,.T.);
#534=EDGE_CURVE('',#431,#432,#251,.T.);
#535=EDGE_CURVE('',#432,#433,#252,.T.);
#536=EDGE_CURVE('',#433,#434,#176,.T.);
#537=EDGE_CURVE('',#434,#435,#253,.T.);
#538=EDGE_CURVE('',#435,#436,#177,.T.);
#539=EDGE_CURVE('',#436,#437,#254,.T.);
#540=EDGE_CURVE('',#437,#419,#178,.T.);
#541=EDGE_CURVE('',#392,#414,#255,.T.);
#542=EDGE_CURVE('',#438,#438,#179,.T.);
#543=EDGE_CURVE('',#438,#384,#256,.T.);
#544=EDGE_CURVE('',#439,#439,#180,.T.);
#545=EDGE_CURVE('',#439,#396,#257,.T.);
#546=EDGE_CURVE('',#440,#440,#181,.T.);
#547=EDGE_CURVE('',#440,#405,#258,.T.);
#548=EDGE_CURVE('',#441,#441,#182,.T.);
#549=EDGE_CURVE('',#441,#378,#259,.T.);
#550=EDGE_CURVE('',#442,#442,#183,.T.);
#551=EDGE_CURVE('',#442,#411,#260,.T.);
#552=EDGE_CURVE('',#443,#443,#184,.T.);
#553=EDGE_CURVE('',#443,#387,#261,.T.);
#554=EDGE_CURVE('',#444,#445,#185,.T.);
#555=EDGE_CURVE('',#444,#436,#262,.T.);
#556=EDGE_CURVE('',#445,#435,#263,.T.);
#557=EDGE_CURVE('',#445,#446,#264,.T.);
#558=EDGE_CURVE('',#446,#434,#265,.T.);
#559=EDGE_CURVE('',#446,#447,#186,.T.);
#560=EDGE_CURVE('',#447,#433,#266,.T.);
#561=EDGE_CURVE('',#448,#447,#267,.T.);
#562=EDGE_CURVE('',#448,#432,#268,.T.);
#563=EDGE_CURVE('',#448,#449,#269,.T.);
#564=EDGE_CURVE('',#449,#431,#270,.T.);
#565=EDGE_CURVE('',#449,#450,#271,.T.);
#566=EDGE_CURVE('',#450,#430,#272,.T.);
#567=EDGE_CURVE('',#450,#451,#187,.T.);
#568=EDGE_CURVE('',#451,#429,#273,.T.);
#569=EDGE_CURVE('',#451,#452,#274,.T.);
#570=EDGE_CURVE('',#452,#428,#275,.T.);
#571=EDGE_CURVE('',#452,#453,#188,.T.);
#572=EDGE_CURVE('',#453,#427,#276,.T.);
#573=EDGE_CURVE('',#453,#454,#277,.T.);
#574=EDGE_CURVE('',#454,#426,#278,.T.);
#575=EDGE_CURVE('',#416,#454,#189,.T.);
#576=EDGE_CURVE('',#424,#422,#190,.T.);
#577=EDGE_CURVE('',#455,#395,#279,.T.);
#578=EDGE_CURVE('',#425,#455,#280,.T.);
#579=EDGE_CURVE('',#421,#455,#191,.T.);
#580=EDGE_CURVE('',#456,#420,#192,.T.);
#581=EDGE_CURVE('',#456,#437,#281,.T.);
#582=EDGE_CURVE('',#444,#456,#282,.T.);
#583=ORIENTED_EDGE('',*,*,#457,.F.);
#584=ORIENTED_EDGE('',*,*,#458,.F.);
#585=ORIENTED_EDGE('',*,*,#459,.F.);
#586=ORIENTED_EDGE('',*,*,#460,.F.);
#587=ORIENTED_EDGE('',*,*,#461,.F.);
#588=ORIENTED_EDGE('',*,*,#462,.F.);
#589=ORIENTED_EDGE('',*,*,#463,.F.);
#590=ORIENTED_EDGE('',*,*,#464,.F.);
#591=ORIENTED_EDGE('',*,*,#465,.T.);
#592=ORIENTED_EDGE('',*,*,#458,.T.);
#593=ORIENTED_EDGE('',*,*,#466,.F.);
#594=ORIENTED_EDGE('',*,*,#459,.T.);
#595=ORIENTED_EDGE('',*,*,#465,.F.);
#596=ORIENTED_EDGE('',*,*,#467,.F.);
#597=ORIENTED_EDGE('',*,*,#468,.F.);
#598=ORIENTED_EDGE('',*,*,#469,.T.);
#599=ORIENTED_EDGE('',*,*,#470,.T.);
#600=ORIENTED_EDGE('',*,*,#469,.F.);
#601=ORIENTED_EDGE('',*,*,#470,.F.);
#602=ORIENTED_EDGE('',*,*,#471,.F.);
#603=ORIENTED_EDGE('',*,*,#472,.F.);
#604=ORIENTED_EDGE('',*,*,#473,.T.);
#605=ORIENTED_EDGE('',*,*,#474,.T.);
#606=ORIENTED_EDGE('',*,*,#473,.F.);
#607=ORIENTED_EDGE('',*,*,#474,.F.);
#608=ORIENTED_EDGE('',*,*,#475,.F.);
#609=ORIENTED_EDGE('',*,*,#476,.F.);
#610=ORIENTED_EDGE('',*,*,#477,.T.);
#611=ORIENTED_EDGE('',*,*,#478,.F.);
#612=ORIENTED_EDGE('',*,*,#479,.F.);
#613=ORIENTED_EDGE('',*,*,#480,.F.);
#614=ORIENTED_EDGE('',*,*,#481,.F.);
#615=ORIENTED_EDGE('',*,*,#478,.T.);
#616=ORIENTED_EDGE('',*,*,#482,.T.);
#617=ORIENTED_EDGE('',*,*,#483,.F.);
#618=ORIENTED_EDGE('',*,*,#484,.F.);
#619=ORIENTED_EDGE('',*,*,#485,.F.);
#620=ORIENTED_EDGE('',*,*,#482,.F.);
#621=ORIENTED_EDGE('',*,*,#477,.F.);
#622=ORIENTED_EDGE('',*,*,#486,.F.);
#623=ORIENTED_EDGE('',*,*,#487,.F.);
#624=ORIENTED_EDGE('',*,*,#488,.T.);
#625=ORIENTED_EDGE('',*,*,#489,.F.);
#626=ORIENTED_EDGE('',*,*,#490,.F.);
#627=ORIENTED_EDGE('',*,*,#491,.F.);
#628=ORIENTED_EDGE('',*,*,#492,.F.);
#629=ORIENTED_EDGE('',*,*,#489,.T.);
#630=ORIENTED_EDGE('',*,*,#493,.T.);
#631=ORIENTED_EDGE('',*,*,#494,.F.);
#632=ORIENTED_EDGE('',*,*,#495,.F.);
#633=ORIENTED_EDGE('',*,*,#496,.F.);
#634=ORIENTED_EDGE('',*,*,#493,.F.);
#635=ORIENTED_EDGE('',*,*,#488,.F.);
#636=ORIENTED_EDGE('',*,*,#497,.F.);
#637=ORIENTED_EDGE('',*,*,#498,.F.);
#638=ORIENTED_EDGE('',*,*,#499,.F.);
#639=ORIENTED_EDGE('',*,*,#500,.F.);
#640=ORIENTED_EDGE('',*,*,#501,.F.);
#641=ORIENTED_EDGE('',*,*,#502,.F.);
#642=ORIENTED_EDGE('',*,*,#503,.F.);
#643=ORIENTED_EDGE('',*,*,#504,.F.);
#644=ORIENTED_EDGE('',*,*,#505,.F.);
#645=ORIENTED_EDGE('',*,*,#506,.T.);
#646=ORIENTED_EDGE('',*,*,#499,.T.);
#647=ORIENTED_EDGE('',*,*,#507,.F.);
#648=ORIENTED_EDGE('',*,*,#500,.T.);
#649=ORIENTED_EDGE('',*,*,#506,.F.);
#650=ORIENTED_EDGE('',*,*,#508,.F.);
#651=ORIENTED_EDGE('',*,*,#463,.T.);
#652=ORIENTED_EDGE('',*,*,#457,.T.);
#653=ORIENTED_EDGE('',*,*,#509,.F.);
#654=ORIENTED_EDGE('',*,*,#510,.T.);
#655=ORIENTED_EDGE('',*,*,#511,.T.);
#656=ORIENTED_EDGE('',*,*,#512,.F.);
#657=ORIENTED_EDGE('',*,*,#461,.T.);
#658=ORIENTED_EDGE('',*,*,#513,.F.);
#659=ORIENTED_EDGE('',*,*,#514,.T.);
#660=ORIENTED_EDGE('',*,*,#509,.T.);
#661=ORIENTED_EDGE('',*,*,#483,.T.);
#662=ORIENTED_EDGE('',*,*,#476,.T.);
#663=ORIENTED_EDGE('',*,*,#515,.F.);
#664=ORIENTED_EDGE('',*,*,#516,.F.);
#665=ORIENTED_EDGE('',*,*,#517,.F.);
#666=ORIENTED_EDGE('',*,*,#518,.T.);
#667=ORIENTED_EDGE('',*,*,#460,.T.);
#668=ORIENTED_EDGE('',*,*,#466,.T.);
#669=ORIENTED_EDGE('',*,*,#519,.F.);
#670=ORIENTED_EDGE('',*,*,#491,.T.);
#671=ORIENTED_EDGE('',*,*,#496,.T.);
#672=ORIENTED_EDGE('',*,*,#520,.F.);
#673=ORIENTED_EDGE('',*,*,#521,.T.);
#674=ORIENTED_EDGE('',*,*,#513,.T.);
#675=ORIENTED_EDGE('',*,*,#494,.T.);
#676=ORIENTED_EDGE('',*,*,#487,.T.);
#677=ORIENTED_EDGE('',*,*,#522,.F.);
#678=ORIENTED_EDGE('',*,*,#504,.T.);
#679=ORIENTED_EDGE('',*,*,#498,.T.);
#680=ORIENTED_EDGE('',*,*,#523,.F.);
#681=ORIENTED_EDGE('',*,*,#524,.T.);
#682=ORIENTED_EDGE('',*,*,#525,.T.);
#683=ORIENTED_EDGE('',*,*,#502,.T.);
#684=ORIENTED_EDGE('',*,*,#526,.F.);
#685=ORIENTED_EDGE('',*,*,#527,.T.);
#686=ORIENTED_EDGE('',*,*,#523,.T.);
#687=ORIENTED_EDGE('',*,*,#464,.T.);
#688=ORIENTED_EDGE('',*,*,#512,.T.);
#689=ORIENTED_EDGE('',*,*,#528,.T.);
#690=ORIENTED_EDGE('',*,*,#529,.T.);
#691=ORIENTED_EDGE('',*,*,#530,.T.);
#692=ORIENTED_EDGE('',*,*,#531,.T.);
#693=ORIENTED_EDGE('',*,*,#532,.T.);
#694=ORIENTED_EDGE('',*,*,#533,.T.);
#695=ORIENTED_EDGE('',*,*,#534,.T.);
#696=ORIENTED_EDGE('',*,*,#535,.T.);
#697=ORIENTED_EDGE('',*,*,#536,.T.);
#698=ORIENTED_EDGE('',*,*,#537,.T.);
#699=ORIENTED_EDGE('',*,*,#538,.T.);
#700=ORIENTED_EDGE('',*,*,#539,.T.);
#701=ORIENTED_EDGE('',*,*,#540,.T.);
#702=ORIENTED_EDGE('',*,*,#515,.T.);
#703=ORIENTED_EDGE('',*,*,#479,.T.);
#704=ORIENTED_EDGE('',*,*,#481,.T.);
#705=ORIENTED_EDGE('',*,*,#541,.T.);
#706=ORIENTED_EDGE('',*,*,#508,.T.);
#707=ORIENTED_EDGE('',*,*,#505,.T.);
#708=ORIENTED_EDGE('',*,*,#522,.T.);
#709=ORIENTED_EDGE('',*,*,#490,.T.);
#710=ORIENTED_EDGE('',*,*,#492,.T.);
#711=ORIENTED_EDGE('',*,*,#519,.T.);
#712=ORIENTED_EDGE('',*,*,#467,.T.);
#713=ORIENTED_EDGE('',*,*,#472,.T.);
#714=ORIENTED_EDGE('',*,*,#468,.T.);
#715=ORIENTED_EDGE('',*,*,#542,.F.);
#716=ORIENTED_EDGE('',*,*,#543,.T.);
#717=ORIENTED_EDGE('',*,*,#471,.T.);
#718=ORIENTED_EDGE('',*,*,#543,.F.);
#719=ORIENTED_EDGE('',*,*,#544,.F.);
#720=ORIENTED_EDGE('',*,*,#545,.T.);
#721=ORIENTED_EDGE('',*,*,#486,.T.);
#722=ORIENTED_EDGE('',*,*,#545,.F.);
#723=ORIENTED_EDGE('',*,*,#546,.F.);
#724=ORIENTED_EDGE('',*,*,#547,.T.);
#725=ORIENTED_EDGE('',*,*,#497,.T.);
#726=ORIENTED_EDGE('',*,*,#547,.F.);
#727=ORIENTED_EDGE('',*,*,#548,.F.);
#728=ORIENTED_EDGE('',*,*,#549,.T.);
#729=ORIENTED_EDGE('',*,*,#462,.T.);
#730=ORIENTED_EDGE('',*,*,#549,.F.);
#731=ORIENTED_EDGE('',*,*,#550,.F.);
#732=ORIENTED_EDGE('',*,*,#551,.T.);
#733=ORIENTED_EDGE('',*,*,#503,.T.);
#734=ORIENTED_EDGE('',*,*,#551,.F.);
#735=ORIENTED_EDGE('',*,*,#552,.F.);
#736=ORIENTED_EDGE('',*,*,#553,.T.);
#737=ORIENTED_EDGE('',*,*,#475,.T.);
#738=ORIENTED_EDGE('',*,*,#553,.F.);
#739=ORIENTED_EDGE('',*,*,#554,.F.);
#740=ORIENTED_EDGE('',*,*,#555,.T.);
#741=ORIENTED_EDGE('',*,*,#538,.F.);
#742=ORIENTED_EDGE('',*,*,#556,.F.);
#743=ORIENTED_EDGE('',*,*,#557,.F.);
#744=ORIENTED_EDGE('',*,*,#556,.T.);
#745=ORIENTED_EDGE('',*,*,#537,.F.);
#746=ORIENTED_EDGE('',*,*,#558,.F.);
#747=ORIENTED_EDGE('',*,*,#559,.F.);
#748=ORIENTED_EDGE('',*,*,#558,.T.);
#749=ORIENTED_EDGE('',*,*,#536,.F.);
#750=ORIENTED_EDGE('',*,*,#560,.F.);
#751=ORIENTED_EDGE('',*,*,#561,.T.);
#752=ORIENTED_EDGE('',*,*,#560,.T.);
#753=ORIENTED_EDGE('',*,*,#535,.F.);
#754=ORIENTED_EDGE('',*,*,#562,.F.);
#755=ORIENTED_EDGE('',*,*,#563,.F.);
#756=ORIENTED_EDGE('',*,*,#562,.T.);
#757=ORIENTED_EDGE('',*,*,#534,.F.);
#758=ORIENTED_EDGE('',*,*,#564,.F.);
#759=ORIENTED_EDGE('',*,*,#565,.F.);
#760=ORIENTED_EDGE('',*,*,#564,.T.);
#761=ORIENTED_EDGE('',*,*,#533,.F.);
#762=ORIENTED_EDGE('',*,*,#566,.F.);
#763=ORIENTED_EDGE('',*,*,#567,.F.);
#764=ORIENTED_EDGE('',*,*,#566,.T.);
#765=ORIENTED_EDGE('',*,*,#532,.F.);
#766=ORIENTED_EDGE('',*,*,#568,.F.);
#767=ORIENTED_EDGE('',*,*,#569,.F.);
#768=ORIENTED_EDGE('',*,*,#568,.T.);
#769=ORIENTED_EDGE('',*,*,#531,.F.);
#770=ORIENTED_EDGE('',*,*,#570,.F.);
#771=ORIENTED_EDGE('',*,*,#571,.F.);
#772=ORIENTED_EDGE('',*,*,#570,.T.);
#773=ORIENTED_EDGE('',*,*,#530,.F.);
#774=ORIENTED_EDGE('',*,*,#572,.F.);
#775=ORIENTED_EDGE('',*,*,#573,.F.);
#776=ORIENTED_EDGE('',*,*,#572,.T.);
#777=ORIENTED_EDGE('',*,*,#529,.F.);
#778=ORIENTED_EDGE('',*,*,#574,.F.);
#779=ORIENTED_EDGE('',*,*,#575,.T.);
#780=ORIENTED_EDGE('',*,*,#574,.T.);
#781=ORIENTED_EDGE('',*,*,#528,.F.);
#782=ORIENTED_EDGE('',*,*,#511,.F.);
#783=ORIENTED_EDGE('',*,*,#495,.T.);
#784=ORIENTED_EDGE('',*,*,#525,.F.);
#785=ORIENTED_EDGE('',*,*,#576,.T.);
#786=ORIENTED_EDGE('',*,*,#520,.T.);
#787=ORIENTED_EDGE('',*,*,#485,.T.);
#788=ORIENTED_EDGE('',*,*,#577,.F.);
#789=ORIENTED_EDGE('',*,*,#578,.F.);
#790=ORIENTED_EDGE('',*,*,#526,.T.);
#791=ORIENTED_EDGE('',*,*,#501,.T.);
#792=ORIENTED_EDGE('',*,*,#507,.T.);
#793=ORIENTED_EDGE('',*,*,#541,.F.);
#794=ORIENTED_EDGE('',*,*,#480,.T.);
#795=ORIENTED_EDGE('',*,*,#484,.T.);
#796=ORIENTED_EDGE('',*,*,#518,.F.);
#797=ORIENTED_EDGE('',*,*,#579,.T.);
#798=ORIENTED_EDGE('',*,*,#577,.T.);
#799=ORIENTED_EDGE('',*,*,#580,.T.);
#800=ORIENTED_EDGE('',*,*,#516,.T.);
#801=ORIENTED_EDGE('',*,*,#540,.F.);
#802=ORIENTED_EDGE('',*,*,#581,.F.);
#803=ORIENTED_EDGE('',*,*,#582,.T.);
#804=ORIENTED_EDGE('',*,*,#581,.T.);
#805=ORIENTED_EDGE('',*,*,#539,.F.);
#806=ORIENTED_EDGE('',*,*,#555,.F.);
#807=ORIENTED_EDGE('',*,*,#582,.F.);
#808=ORIENTED_EDGE('',*,*,#554,.T.);
#809=ORIENTED_EDGE('',*,*,#557,.T.);
#810=ORIENTED_EDGE('',*,*,#559,.T.);
#811=ORIENTED_EDGE('',*,*,#561,.F.);
#812=ORIENTED_EDGE('',*,*,#563,.T.);
#813=ORIENTED_EDGE('',*,*,#565,.T.);
#814=ORIENTED_EDGE('',*,*,#567,.T.);
#815=ORIENTED_EDGE('',*,*,#569,.T.);
#816=ORIENTED_EDGE('',*,*,#571,.T.);
#817=ORIENTED_EDGE('',*,*,#573,.T.);
#818=ORIENTED_EDGE('',*,*,#575,.F.);
#819=ORIENTED_EDGE('',*,*,#510,.F.);
#820=ORIENTED_EDGE('',*,*,#514,.F.);
#821=ORIENTED_EDGE('',*,*,#521,.F.);
#822=ORIENTED_EDGE('',*,*,#576,.F.);
#823=ORIENTED_EDGE('',*,*,#524,.F.);
#824=ORIENTED_EDGE('',*,*,#527,.F.);
#825=ORIENTED_EDGE('',*,*,#578,.T.);
#826=ORIENTED_EDGE('',*,*,#579,.F.);
#827=ORIENTED_EDGE('',*,*,#517,.T.);
#828=ORIENTED_EDGE('',*,*,#580,.F.);
#829=ORIENTED_EDGE('',*,*,#552,.T.);
#830=ORIENTED_EDGE('',*,*,#550,.T.);
#831=ORIENTED_EDGE('',*,*,#548,.T.);
#832=ORIENTED_EDGE('',*,*,#546,.T.);
#833=ORIENTED_EDGE('',*,*,#544,.T.);
#834=ORIENTED_EDGE('',*,*,#542,.T.);
#835=PLANE('',#924);
#836=PLANE('',#927);
#837=PLANE('',#928);
#838=PLANE('',#932);
#839=PLANE('',#937);
#840=PLANE('',#939);
#841=PLANE('',#940);
#842=PLANE('',#941);
#843=PLANE('',#944);
#844=PLANE('',#945);
#845=PLANE('',#946);
#846=PLANE('',#949);
#847=PLANE('',#952);
#848=PLANE('',#953);
#849=PLANE('',#954);
#850=PLANE('',#957);
#851=PLANE('',#958);
#852=PLANE('',#959);
#853=PLANE('',#962);
#854=PLANE('',#983);
#855=PLANE('',#986);
#856=PLANE('',#987);
#857=PLANE('',#988);
#858=PLANE('',#991);
#859=PLANE('',#994);
#860=PLANE('',#999);
#861=PLANE('',#1004);
#862=PLANE('',#1005);
#863=ADVANCED_FACE('',(#51,#37),#835,.F.);
#864=ADVANCED_FACE('',(#52),#836,.F.);
#865=ADVANCED_FACE('',(#53),#837,.F.);
#866=ADVANCED_FACE('',(#54),#19,.F.);
#867=ADVANCED_FACE('',(#55,#38),#838,.T.);
#868=ADVANCED_FACE('',(#56),#20,.F.);
#869=ADVANCED_FACE('',(#57,#39),#839,.T.);
#870=ADVANCED_FACE('',(#58),#840,.F.);
#871=ADVANCED_FACE('',(#59),#841,.F.);
#872=ADVANCED_FACE('',(#60,#40),#842,.F.);
#873=ADVANCED_FACE('',(#61),#843,.F.);
#874=ADVANCED_FACE('',(#62),#844,.F.);
#875=ADVANCED_FACE('',(#63,#41),#845,.F.);
#876=ADVANCED_FACE('',(#64,#42),#846,.F.);
#877=ADVANCED_FACE('',(#65),#847,.F.);
#878=ADVANCED_FACE('',(#66),#848,.F.);
#879=ADVANCED_FACE('',(#67),#849,.T.);
#880=ADVANCED_FACE('',(#68),#21,.T.);
#881=ADVANCED_FACE('',(#69),#850,.T.);
#882=ADVANCED_FACE('',(#70),#851,.T.);
#883=ADVANCED_FACE('',(#71),#852,.T.);
#884=ADVANCED_FACE('',(#72),#22,.T.);
#885=ADVANCED_FACE('',(#73,#43,#44),#853,.T.);
#886=ADVANCED_FACE('',(#74),#23,.F.);
#887=ADVANCED_FACE('',(#75),#24,.F.);
#888=ADVANCED_FACE('',(#76),#25,.F.);
#889=ADVANCED_FACE('',(#77),#26,.F.);
#890=ADVANCED_FACE('',(#78),#27,.F.);
#891=ADVANCED_FACE('',(#79),#28,.F.);
#892=ADVANCED_FACE('',(#80),#29,.F.);
#893=ADVANCED_FACE('',(#81),#854,.T.);
#894=ADVANCED_FACE('',(#82),#30,.F.);
#895=ADVANCED_FACE('',(#83),#855,.T.);
#896=ADVANCED_FACE('',(#84),#856,.T.);
#897=ADVANCED_FACE('',(#85),#857,.T.);
#898=ADVANCED_FACE('',(#86),#31,.F.);
#899=ADVANCED_FACE('',(#87),#858,.T.);
#900=ADVANCED_FACE('',(#88),#32,.F.);
#901=ADVANCED_FACE('',(#89),#859,.T.);
#902=ADVANCED_FACE('',(#90),#33,.T.);
#903=ADVANCED_FACE('',(#91),#34,.T.);
#904=ADVANCED_FACE('',(#92),#860,.T.);
#905=ADVANCED_FACE('',(#93),#35,.T.);
#906=ADVANCED_FACE('',(#94),#36,.T.);
#907=ADVANCED_FACE('',(#95),#861,.T.);
#908=ADVANCED_FACE('',(#96,#45,#46,#47,#48,#49,#50),#862,.F.);
#909=CLOSED_SHELL('',(#863,#864,#865,#866,#867,#868,#869,#870,#871,#872,
#873,#874,#875,#876,#877,#878,#879,#880,#881,#882,#883,#884,#885,#886,#887,
#888,#889,#890,#891,#892,#893,#894,#895,#896,#897,#898,#899,#900,#901,#902,
#903,#904,#905,#906,#907,#908));
#910=DERIVED_UNIT_ELEMENT(#912,1.);
#911=DERIVED_UNIT_ELEMENT(#1533,-3.);
#912=(
MASS_UNIT()
NAMED_UNIT(*)
SI_UNIT(.KILO.,.GRAM.)
);
#913=DERIVED_UNIT((#910,#911));
#914=MEASURE_REPRESENTATION_ITEM('density measure',
POSITIVE_RATIO_MEASURE(7850.),#913);
#915=PROPERTY_DEFINITION_REPRESENTATION(#920,#917);
#916=PROPERTY_DEFINITION_REPRESENTATION(#921,#918);
#917=REPRESENTATION('material name',(#919),#1530);
#918=REPRESENTATION('density',(#914),#1530);
#919=DESCRIPTIVE_REPRESENTATION_ITEM('Steel','Steel');
#920=PROPERTY_DEFINITION('material property','material name',#1545);
#921=PROPERTY_DEFINITION('material property','density of part',#1545);
#922=AXIS2_PLACEMENT_3D('',#1267,#1007,#1008);
#923=AXIS2_PLACEMENT_3D('',#1268,#1009,#1010);
#924=AXIS2_PLACEMENT_3D('',#1269,#1011,#1012);
#925=AXIS2_PLACEMENT_3D('',#1279,#1017,#1018);
#926=AXIS2_PLACEMENT_3D('',#1281,#1019,#1020);
#927=AXIS2_PLACEMENT_3D('',#1282,#1021,#1022);
#928=AXIS2_PLACEMENT_3D('',#1288,#1026,#1027);
#929=AXIS2_PLACEMENT_3D('',#1292,#1030,#1031);
#930=AXIS2_PLACEMENT_3D('',#1294,#1032,#1033);
#931=AXIS2_PLACEMENT_3D('',#1297,#1035,#1036);
#932=AXIS2_PLACEMENT_3D('',#1298,#1037,#1038);
#933=AXIS2_PLACEMENT_3D('',#1300,#1039,#1040);
#934=AXIS2_PLACEMENT_3D('',#1301,#1041,#1042);
#935=AXIS2_PLACEMENT_3D('',#1303,#1043,#1044);
#936=AXIS2_PLACEMENT_3D('',#1306,#1046,#1047);
#937=AXIS2_PLACEMENT_3D('',#1307,#1048,#1049);
#938=AXIS2_PLACEMENT_3D('',#1309,#1050,#1051);
#939=AXIS2_PLACEMENT_3D('',#1310,#1052,#1053);
#940=AXIS2_PLACEMENT_3D('',#1319,#1058,#1059);
#941=AXIS2_PLACEMENT_3D('',#1325,#1063,#1064);
#942=AXIS2_PLACEMENT_3D('',#1329,#1066,#1067);
#943=AXIS2_PLACEMENT_3D('',#1332,#1069,#1070);
#944=AXIS2_PLACEMENT_3D('',#1333,#1071,#1072);
#945=AXIS2_PLACEMENT_3D('',#1342,#1077,#1078);
#946=AXIS2_PLACEMENT_3D('',#1348,#1082,#1083);
#947=AXIS2_PLACEMENT_3D('',#1352,#1085,#1086);
#948=AXIS2_PLACEMENT_3D('',#1355,#1088,#1089);
#949=AXIS2_PLACEMENT_3D('',#1356,#1090,#1091);
#950=AXIS2_PLACEMENT_3D('',#1366,#1096,#1097);
#951=AXIS2_PLACEMENT_3D('',#1368,#1098,#1099);
#952=AXIS2_PLACEMENT_3D('',#1369,#1100,#1101);
#953=AXIS2_PLACEMENT_3D('',#1375,#1105,#1106);
#954=AXIS2_PLACEMENT_3D('',#1379,#1109,#1110);
#955=AXIS2_PLACEMENT_3D('',#1387,#1115,#1116);
#956=AXIS2_PLACEMENT_3D('',#1390,#1118,#1119);
#957=AXIS2_PLACEMENT_3D('',#1391,#1120,#1121);
#958=AXIS2_PLACEMENT_3D('',#1399,#1126,#1127);
#959=AXIS2_PLACEMENT_3D('',#1404,#1131,#1132);
#960=AXIS2_PLACEMENT_3D('',#1411,#1137,#1138);
#961=AXIS2_PLACEMENT_3D('',#1414,#1140,#1141);
#962=AXIS2_PLACEMENT_3D('',#1415,#1142,#1143);
#963=AXIS2_PLACEMENT_3D('',#1417,#1144,#1145);
#964=AXIS2_PLACEMENT_3D('',#1421,#1147,#1148);
#965=AXIS2_PLACEMENT_3D('',#1425,#1150,#1151);
#966=AXIS2_PLACEMENT_3D('',#1433,#1155,#1156);
#967=AXIS2_PLACEMENT_3D('',#1437,#1158,#1159);
#968=AXIS2_PLACEMENT_3D('',#1440,#1161,#1162);
#969=AXIS2_PLACEMENT_3D('',#1442,#1164,#1165);
#970=AXIS2_PLACEMENT_3D('',#1444,#1166,#1167);
#971=AXIS2_PLACEMENT_3D('',#1446,#1169,#1170);
#972=AXIS2_PLACEMENT_3D('',#1448,#1171,#1172);
#973=AXIS2_PLACEMENT_3D('',#1450,#1174,#1175);
#974=AXIS2_PLACEMENT_3D('',#1452,#1176,#1177);
#975=AXIS2_PLACEMENT_3D('',#1454,#1179,#1180);
#976=AXIS2_PLACEMENT_3D('',#1456,#1181,#1182);
#977=AXIS2_PLACEMENT_3D('',#1458,#1184,#1185);
#978=AXIS2_PLACEMENT_3D('',#1460,#1186,#1187);
#979=AXIS2_PLACEMENT_3D('',#1462,#1189,#1190);
#980=AXIS2_PLACEMENT_3D('',#1464,#1191,#1192);
#981=AXIS2_PLACEMENT_3D('',#1466,#1194,#1195);
#982=AXIS2_PLACEMENT_3D('',#1469,#1196,#1197);
#983=AXIS2_PLACEMENT_3D('',#1472,#1200,#1201);
#984=AXIS2_PLACEMENT_3D('',#1476,#1204,#1205);
#985=AXIS2_PLACEMENT_3D('',#1478,#1206,#1207);
#986=AXIS2_PLACEMENT_3D('',#1480,#1209,#1210);
#987=AXIS2_PLACEMENT_3D('',#1484,#1213,#1214);
#988=AXIS2_PLACEMENT_3D('',#1488,#1217,#1218);
#989=AXIS2_PLACEMENT_3D('',#1492,#1221,#1222);
#990=AXIS2_PLACEMENT_3D('',#1494,#1223,#1224);
#991=AXIS2_PLACEMENT_3D('',#1496,#1226,#1227);
#992=AXIS2_PLACEMENT_3D('',#1500,#1230,#1231);
#993=AXIS2_PLACEMENT_3D('',#1502,#1232,#1233);
#994=AXIS2_PLACEMENT_3D('',#1504,#1235,#1236);
#995=AXIS2_PLACEMENT_3D('',#1508,#1239,#1240);
#996=AXIS2_PLACEMENT_3D('',#1509,#1241,#1242);
#997=AXIS2_PLACEMENT_3D('',#1510,#1243,#1244);
#998=AXIS2_PLACEMENT_3D('',#1511,#1245,#1246);
#999=AXIS2_PLACEMENT_3D('',#1512,#1247,#1248);
#1000=AXIS2_PLACEMENT_3D('',#1516,#1251,#1252);
#1001=AXIS2_PLACEMENT_3D('',#1517,#1253,#1254);
#1002=AXIS2_PLACEMENT_3D('',#1518,#1255,#1256);
#1003=AXIS2_PLACEMENT_3D('',#1520,#1257,#1258);
#1004=AXIS2_PLACEMENT_3D('',#1522,#1260,#1261);
#1005=AXIS2_PLACEMENT_3D('',#1524,#1263,#1264);
#1006=AXIS2_PLACEMENT_3D('',#1525,#1265,#1266);
#1007=DIRECTION('axis',(0.,0.,1.));
#1008=DIRECTION('refdir',(1.,0.,0.));
#1009=DIRECTION('axis',(0.,0.,1.));
#1010=DIRECTION('refdir',(1.,0.,0.));
#1011=DIRECTION('center_axis',(-1.38536525246704E-12,0.,1.));
#1012=DIRECTION('ref_axis',(1.,0.,1.38536525246704E-12));
#1013=DIRECTION('',(-1.43832269728933E-12,-1.,-1.9926022866593E-24));
#1014=DIRECTION('',(-1.,1.43871127534794E-12,-1.38555833474279E-12));
#1015=DIRECTION('',(1.43871127534795E-12,1.,-1.71069076724717E-15));
#1016=DIRECTION('',(1.,-1.43855267205871E-12,1.38536525246704E-12));
#1017=DIRECTION('center_axis',(-1.38536525246704E-12,0.,1.));
#1018=DIRECTION('ref_axis',(-1.43427038324945E-12,-1.,1.97372981956857E-15));
#1019=DIRECTION('center_axis',(1.38536525246704E-12,0.,-1.));
#1020=DIRECTION('ref_axis',(1.,-1.43871127534794E-12,1.3855583347322E-12));
#1021=DIRECTION('center_axis',(1.43871127534794E-12,1.,1.99314060919958E-24));
#1022=DIRECTION('ref_axis',(-1.,1.43871127534794E-12,-1.38555833474279E-12));
#1023=DIRECTION('',(-1.3855583347322E-12,2.77789631950978E-28,1.));
#1024=DIRECTION('',(-1.,1.43871127534794E-12,-1.38555833474279E-12));
#1025=DIRECTION('',(-1.38536525246704E-12,0.,1.));
#1026=DIRECTION('center_axis',(1.,-1.43871127534794E-12,1.38536525246704E-12));
#1027=DIRECTION('ref_axis',(1.43871127534795E-12,1.,-1.71069076724717E-15));
#1028=DIRECTION('',(1.38536525246704E-12,-1.97372982155556E-15,-1.));
#1029=DIRECTION('',(1.43871127534795E-12,1.,-1.7106907672472E-15));
#1030=DIRECTION('center_axis',(-1.3863306637928E-12,1.93082265152201E-15,
1.));
#1031=DIRECTION('ref_axis',(1.,-1.43871127534794E-12,1.3863306637928E-12));
#1032=DIRECTION('center_axis',(-1.38555833474279E-12,1.71069076924062E-15,
1.));
#1033=DIRECTION('ref_axis',(1.,-1.43871127534794E-12,1.3863306637928E-12));
#1034=DIRECTION('',(-1.3863306637928E-12,1.93082265152201E-15,1.));
#1035=DIRECTION('center_axis',(-1.38555833474279E-12,1.71069076924059E-15,
1.));
#1036=DIRECTION('ref_axis',(1.,-1.43871127534794E-12,1.38555833474279E-12));
#1037=DIRECTION('center_axis',(1.38555833474279E-12,-1.71069076924059E-15,
-1.));
#1038=DIRECTION('ref_axis',(1.,-1.43871127534794E-12,1.38555833474279E-12));
#1039=DIRECTION('center_axis',(1.38555833474279E-12,-1.71069076924059E-15,
-1.));
#1040=DIRECTION('ref_axis',(1.,-1.43871127534794E-12,1.3855583347322E-12));
#1041=DIRECTION('center_axis',(-1.3863306637928E-12,1.93082265152201E-15,
1.));
#1042=DIRECTION('ref_axis',(1.,-1.43871127534794E-12,1.3863306637928E-12));
#1043=DIRECTION('center_axis',(-1.38555833474279E-12,1.71069076924062E-15,
1.));
#1044=DIRECTION('ref_axis',(1.,-1.43871127534794E-12,1.3863306637928E-12));
#1045=DIRECTION('',(-1.3863306637928E-12,1.93082265152201E-15,1.));
#1046=DIRECTION('center_axis',(-1.38555833474279E-12,1.71069076924059E-15,
1.));
#1047=DIRECTION('ref_axis',(1.,-1.43871127534794E-12,1.38555833474279E-12));
#1048=DIRECTION('center_axis',(1.38555833474279E-12,-1.71069076924059E-15,
-1.));
#1049=DIRECTION('ref_axis',(1.,-1.43871127534794E-12,1.38555833474279E-12));
#1050=DIRECTION('center_axis',(1.38555833474279E-12,-1.71069076924059E-15,
-1.));
#1051=DIRECTION('ref_axis',(1.,-1.43871127534794E-12,1.3855583347322E-12));
#1052=DIRECTION('center_axis',(-1.43871127534794E-12,-1.,-1.99314060919958E-24));
#1053=DIRECTION('ref_axis',(1.,-1.43871127534794E-12,1.38555833474279E-12));
#1054=DIRECTION('',(1.38555833473219E-12,-2.77789631946937E-28,-1.));
#1055=DIRECTION('',(1.,-1.43871127534794E-12,1.38555833474279E-12));
#1056=DIRECTION('',(-1.38536525246704E-12,0.,1.));
#1057=DIRECTION('',(1.,-1.43871127534794E-12,1.38555833474279E-12));
#1058=DIRECTION('center_axis',(1.,-1.43871127534794E-12,1.38536525246704E-12));
#1059=DIRECTION('ref_axis',(1.43871127534795E-12,1.,-1.71069076724717E-15));
#1060=DIRECTION('',(-1.38536525246704E-12,1.97372982155583E-15,1.));
#1061=DIRECTION('',(1.43871127534795E-12,1.,-1.7106907672472E-15));
#1062=DIRECTION('',(1.43871127534795E-12,1.,-1.71069076724717E-15));
#1063=DIRECTION('center_axis',(-1.38536525246704E-12,0.,1.));
#1064=DIRECTION('ref_axis',(1.,0.,1.38536525246704E-12));
#1065=DIRECTION('',(4.74519011785837E-15,-1.,6.57382150563096E-27));
#1066=DIRECTION('center_axis',(-1.38536525246704E-12,0.,1.));
#1067=DIRECTION('ref_axis',(-1.,-3.09835929859113E-15,-1.38555833473219E-12));
#1068=DIRECTION('',(-1.,-3.9442435057092E-15,-1.38536525246704E-12));
#1069=DIRECTION('center_axis',(1.38536525246704E-12,0.,-1.));
#1070=DIRECTION('ref_axis',(1.,-1.43871127534794E-12,1.3855583347322E-12));
#1071=DIRECTION('center_axis',(1.43871127534794E-12,1.,1.9945295573593E-24));
#1072=DIRECTION('ref_axis',(-1.,1.43871127534794E-12,-1.38555833474279E-12));
#1073=DIRECTION('',(1.3855583347322E-12,1.11115852777195E-27,-1.));
#1074=DIRECTION('',(-1.,1.43871127534794E-12,-1.38555833474279E-12));
#1075=DIRECTION('',(-1.3863306637928E-12,0.,1.));
#1076=DIRECTION('',(-1.,1.43871127534794E-12,-1.38555833474279E-12));
#1077=DIRECTION('center_axis',(-1.,1.43871127534794E-12,-1.3863306637928E-12));
#1078=DIRECTION('ref_axis',(-1.43871127534795E-12,-1.,1.71069076724717E-15));
#1079=DIRECTION('',(-1.3863306637928E-12,1.97372982155694E-15,1.));
#1080=DIRECTION('',(-1.43871127534795E-12,-1.,1.7106907672472E-15));
#1081=DIRECTION('',(-1.43871127534795E-12,-1.,1.71069076724717E-15));
#1082=DIRECTION('center_axis',(-1.3863306637928E-12,0.,1.));
#1083=DIRECTION('ref_axis',(1.,0.,1.3863306637928E-12));
#1084=DIRECTION('',(7.1785932578869E-13,1.,9.95190395630488E-25));
#1085=DIRECTION('center_axis',(-1.3863306637928E-12,0.,1.));
#1086=DIRECTION('ref_axis',(1.,-1.4357506806157E-12,1.3855583347322E-12));
#1087=DIRECTION('',(1.,-1.43855267205871E-12,1.3863306637928E-12));
#1088=DIRECTION('center_axis',(1.3863306637928E-12,0.,-1.));
#1089=DIRECTION('ref_axis',(1.,-1.43871127534794E-12,1.3855583347322E-12));
#1090=DIRECTION('center_axis',(-1.3863306637928E-12,0.,1.));
#1091=DIRECTION('ref_axis',(1.,0.,1.3863306637928E-12));
#1092=DIRECTION('',(7.1785932578869E-13,1.,9.95190395630488E-25));
#1093=DIRECTION('',(1.,-1.43871127534794E-12,1.38555833474279E-12));
#1094=DIRECTION('',(-1.43871127534795E-12,-1.,1.71069076724717E-15));
#1095=DIRECTION('',(-1.,-3.9442435057092E-15,-1.3863306637928E-12));
#1096=DIRECTION('center_axis',(-1.3863306637928E-12,0.,1.));
#1097=DIRECTION('ref_axis',(-6.0589540309323E-15,1.,-1.97372982156423E-15));
#1098=DIRECTION('center_axis',(1.3863306637928E-12,0.,-1.));
#1099=DIRECTION('ref_axis',(1.,-1.43871127534794E-12,1.3855583347322E-12));
#1100=DIRECTION('center_axis',(-1.43871127534794E-12,-1.,-1.9945295573593E-24));
#1101=DIRECTION('ref_axis',(1.,-1.43871127534794E-12,1.38555833474279E-12));
#1102=DIRECTION('',(-1.3855583347322E-12,-1.11115852777195E-27,1.));
#1103=DIRECTION('',(1.,-1.43871127534794E-12,1.38555833474279E-12));
#1104=DIRECTION('',(-1.3863306637928E-12,0.,1.));
#1105=DIRECTION('center_axis',(-1.,1.43871127534794E-12,-1.3863306637928E-12));
#1106=DIRECTION('ref_axis',(-1.43871127534795E-12,-1.,1.71069076724717E-15));
#1107=DIRECTION('',(1.3863306637928E-12,-1.97372982155583E-15,-1.));
#1108=DIRECTION('',(-1.43871127534795E-12,-1.,1.7106907672472E-15));
#1109=DIRECTION('center_axis',(-1.,1.43832269728933E-12,-1.3855583347322E-12));
#1110=DIRECTION('ref_axis',(1.43832269728933E-12,1.,-1.71069076724768E-15));
#1111=DIRECTION('',(1.38555833473219E-12,-1.97372982155583E-15,-1.));
#1112=DIRECTION('',(1.43832269728933E-12,1.,-1.71069076724768E-15));
#1113=DIRECTION('',(1.38555833473219E-12,-1.97372982155583E-15,-1.));
#1114=DIRECTION('',(1.43832269728933E-12,1.,-1.71069076724768E-15));
#1115=DIRECTION('center_axis',(1.38555833473219E-12,-1.97372982155583E-15,
-1.));
#1116=DIRECTION('ref_axis',(-1.43427038324945E-12,-1.,1.97372981956857E-15));
#1117=DIRECTION('',(1.38555833473219E-12,-1.97372982155583E-15,-1.));
#1118=DIRECTION('center_axis',(1.38555833474279E-12,-1.71069076924059E-15,
-1.));
#1119=DIRECTION('ref_axis',(-1.43427038324945E-12,-1.,1.71069076725332E-15));
#1120=DIRECTION('center_axis',(-1.,-4.74519011785837E-15,-1.38555833473219E-12));
#1121=DIRECTION('ref_axis',(-4.745190117856E-15,1.,-1.71069076924713E-15));
#1122=DIRECTION('',(-4.745190117856E-15,1.,-1.71069076924713E-15));
#1123=DIRECTION('',(1.38555833473219E-12,-1.97372982155583E-15,-1.));
#1124=DIRECTION('',(4.745190117856E-15,-1.,1.71069076924713E-15));
#1125=DIRECTION('',(1.38555833473219E-12,-1.97372982155583E-15,-1.));
#1126=DIRECTION('center_axis',(-1.43855267205872E-12,-1.,1.97372981956263E-15));
#1127=DIRECTION('ref_axis',(-1.,1.43855267205871E-12,-1.38555833474279E-12));
#1128=DIRECTION('',(-1.,1.43855267205871E-12,-1.38555833474279E-12));
#1129=DIRECTION('',(1.38555833473219E-12,-1.97372982155583E-15,-1.));
#1130=DIRECTION('',(-1.,1.43855267205871E-12,-1.38555833474279E-12));
#1131=DIRECTION('center_axis',(1.,-7.1785932578869E-13,1.3855583347322E-12));
#1132=DIRECTION('ref_axis',(-7.17859325788693E-13,-1.,1.71069076824595E-15));
#1133=DIRECTION('',(-7.17859325788693E-13,-1.,1.71069076824595E-15));
#1134=DIRECTION('',(1.38555833473219E-12,-1.97372982155583E-15,-1.));
#1135=DIRECTION('',(-7.17859325788693E-13,-1.,1.71069076824595E-15));
#1136=DIRECTION('',(1.38555833473219E-12,-1.97372982155583E-15,-1.));
#1137=DIRECTION('center_axis',(1.38555833473219E-12,-1.97372982155583E-15,
-1.));
#1138=DIRECTION('ref_axis',(-6.0589540309323E-15,1.,-1.97372982156423E-15));
#1139=DIRECTION('',(1.38555833473219E-12,-1.97372982155583E-15,-1.));
#1140=DIRECTION('center_axis',(1.38555833474279E-12,-1.71069076924059E-15,
-1.));
#1141=DIRECTION('ref_axis',(-6.05895403093266E-15,1.,-1.71069076924898E-15));
#1142=DIRECTION('center_axis',(1.38555833474279E-12,-1.71069076924062E-15,
-1.));
#1143=DIRECTION('ref_axis',(1.,-1.43871127534794E-12,1.38555833474279E-12));
#1144=DIRECTION('center_axis',(1.38555833474279E-12,-1.71069076924059E-15,
-1.));
#1145=DIRECTION('ref_axis',(-1.,1.43871127534794E-12,-1.38555833474279E-12));
#1146=DIRECTION('',(1.,1.27202921590198E-14,1.38555833474279E-12));
#1147=DIRECTION('center_axis',(-1.38555833474279E-12,1.71069076924059E-15,
1.));
#1148=DIRECTION('ref_axis',(1.,1.37764566260071E-16,1.38555833474279E-12));
#1149=DIRECTION('',(4.30312753112509E-15,1.,-1.71069076923483E-15));
#1150=DIRECTION('center_axis',(-1.38555833474279E-12,1.71069076924054E-15,
1.));
#1151=DIRECTION('ref_axis',(-7.92837004148616E-13,1.,-1.71069077033906E-15));
#1152=DIRECTION('',(-1.,-7.93940734639966E-13,-1.38555833474279E-12));
#1153=DIRECTION('',(-7.9364784118677E-13,1.,-1.71069077034023E-15));
#1154=DIRECTION('',(1.,-7.17520786604245E-13,1.38555833474279E-12));
#1155=DIRECTION('center_axis',(-1.38555833474279E-12,1.71069076924062E-15,
1.));
#1156=DIRECTION('ref_axis',(1.,4.57865666475741E-15,1.38555833474279E-12));
#1157=DIRECTION('',(2.0826814859497E-15,1.,-1.7106907692377E-15));
#1158=DIRECTION('center_axis',(-1.38555833474279E-12,1.7106907692406E-15,
1.));
#1159=DIRECTION('ref_axis',(2.77764024304588E-12,1.,-1.71069076539202E-15));
#1160=DIRECTION('',(-1.,2.7776402430386E-12,-1.3855583347428E-12));
#1161=DIRECTION('center_axis',(1.38555833474279E-12,-1.71069076924059E-15,
-1.));
#1162=DIRECTION('ref_axis',(-2.77615994567973E-12,-1.,1.71069076539406E-15));
#1163=DIRECTION('',(1.,3.9442435057092E-15,1.38555833474279E-12));
#1164=DIRECTION('center_axis',(1.38555833473219E-12,-1.48029736616687E-15,
-1.));
#1165=DIRECTION('ref_axis',(1.,-1.43871127534794E-12,1.3855583347322E-12));
#1166=DIRECTION('center_axis',(1.38555833474279E-12,-1.71069076924062E-15,
-1.));
#1167=DIRECTION('ref_axis',(1.,-1.43871127534794E-12,1.3855583347322E-12));
#1168=DIRECTION('',(1.38555833473219E-12,-1.48029736616687E-15,-1.));
#1169=DIRECTION('center_axis',(1.38555833473219E-12,-1.97372982155583E-15,
-1.));
#1170=DIRECTION('ref_axis',(1.,-1.43871127534794E-12,1.3855583347322E-12));
#1171=DIRECTION('center_axis',(1.38555833474279E-12,-1.71069076924062E-15,
-1.));
#1172=DIRECTION('ref_axis',(1.,-1.43871127534794E-12,1.3855583347322E-12));
#1173=DIRECTION('',(1.38555833473219E-12,-1.97372982155583E-15,-1.));
#1174=DIRECTION('center_axis',(1.38555833473219E-12,-1.97372982155583E-15,
-1.));
#1175=DIRECTION('ref_axis',(1.,-1.43871127534794E-12,1.3855583347322E-12));
#1176=DIRECTION('center_axis',(1.38555833474279E-12,-1.71069076924062E-15,
-1.));
#1177=DIRECTION('ref_axis',(1.,-1.43871127534794E-12,1.3855583347322E-12));
#1178=DIRECTION('',(1.38555833473219E-12,-1.97372982155583E-15,-1.));
#1179=DIRECTION('center_axis',(1.38555833473219E-12,-1.97372982155583E-15,
-1.));
#1180=DIRECTION('ref_axis',(1.,-1.43871127534794E-12,1.3855583347322E-12));
#1181=DIRECTION('center_axis',(1.38555833474279E-12,-1.71069076924062E-15,
-1.));
#1182=DIRECTION('ref_axis',(1.,-1.43871127534794E-12,1.3855583347322E-12));
#1183=DIRECTION('',(1.38555833473219E-12,-1.97372982155583E-15,-1.));
#1184=DIRECTION('center_axis',(1.38555833473219E-12,-1.97372982155583E-15,
-1.));
#1185=DIRECTION('ref_axis',(1.,-1.43871127534794E-12,1.3855583347322E-12));
#1186=DIRECTION('center_axis',(1.38555833474279E-12,-1.71069076924062E-15,
-1.));
#1187=DIRECTION('ref_axis',(1.,-1.43871127534794E-12,1.3855583347322E-12));
#1188=DIRECTION('',(1.38555833473219E-12,-1.97372982155583E-15,-1.));
#1189=DIRECTION('center_axis',(1.38555833473219E-12,-1.48029736616687E-15,
-1.));
#1190=DIRECTION('ref_axis',(1.,-1.43871127534794E-12,1.3855583347322E-12));
#1191=DIRECTION('center_axis',(1.38555833474279E-12,-1.71069076924062E-15,
-1.));
#1192=DIRECTION('ref_axis',(1.,-1.43871127534794E-12,1.3855583347322E-12));
#1193=DIRECTION('',(1.38555833473219E-12,-1.48029736616687E-15,-1.));
#1194=DIRECTION('center_axis',(1.38555833473219E-12,-1.97372982155583E-15,
-1.));
#1195=DIRECTION('ref_axis',(2.77764024304589E-12,1.,-1.97372981770725E-15));
#1196=DIRECTION('center_axis',(1.38555833474279E-12,-1.7106907692406E-15,
-1.));
#1197=DIRECTION('ref_axis',(2.77764024304588E-12,1.,-1.71069076539202E-15));
#1198=DIRECTION('',(1.38555833473219E-12,-1.97372982155583E-15,-1.));
#1199=DIRECTION('',(1.38555833473219E-12,-1.97372982155583E-15,-1.));
#1200=DIRECTION('center_axis',(-1.,2.08268148594733E-15,-1.38555833473219E-12));
#1201=DIRECTION('ref_axis',(2.0826814859497E-15,1.,-1.7106907692377E-15));
#1202=DIRECTION('',(-2.0826814859497E-15,-1.,1.7106907692377E-15));
#1203=DIRECTION('',(1.38555833473219E-12,-1.97372982155583E-15,-1.));
#1204=DIRECTION('center_axis',(1.38555833473219E-12,-1.97372982155583E-15,
-1.));
#1205=DIRECTION('ref_axis',(1.,4.57865666475741E-15,1.38555833473219E-12));
#1206=DIRECTION('center_axis',(1.38555833474279E-12,-1.71069076924062E-15,
-1.));
#1207=DIRECTION('ref_axis',(1.,4.57865666475741E-15,1.38555833474279E-12));
#1208=DIRECTION('',(1.38555833473219E-12,-1.97372982155583E-15,-1.));
#1209=DIRECTION('center_axis',(7.17520786604248E-13,1.,-1.97372982056167E-15));
#1210=DIRECTION('ref_axis',(1.,-7.17520786604245E-13,1.38555833474279E-12));
#1211=DIRECTION('',(1.,-7.17520786604245E-13,1.38555833474279E-12));
#1212=DIRECTION('',(1.38555833473219E-12,-1.97372982155583E-15,-1.));
#1213=DIRECTION('center_axis',(-1.,-7.93647841186773E-13,-1.38555833473219E-12));
#1214=DIRECTION('ref_axis',(-7.9364784118677E-13,1.,-1.71069077034023E-15));
#1215=DIRECTION('',(7.9364784118677E-13,-1.,1.71069077034023E-15));
#1216=DIRECTION('',(1.38555833473219E-12,-1.97372982155583E-15,-1.));
#1217=DIRECTION('center_axis',(7.93940734639963E-13,-1.,1.97372982265588E-15));
#1218=DIRECTION('ref_axis',(-1.,-7.93940734639966E-13,-1.38555833474279E-12));
#1219=DIRECTION('',(1.,7.93940734639966E-13,1.38555833474279E-12));
#1220=DIRECTION('',(1.38555833473219E-12,-1.97372982155583E-15,-1.));
#1221=DIRECTION('center_axis',(1.38555833473219E-12,-1.97372982155583E-15,
-1.));
#1222=DIRECTION('ref_axis',(-7.92837004148615E-13,1.,-1.97372982265436E-15));
#1223=DIRECTION('center_axis',(1.38555833474279E-12,-1.71069076924054E-15,
-1.));
#1224=DIRECTION('ref_axis',(-7.92837004148616E-13,1.,-1.71069077033906E-15));
#1225=DIRECTION('',(1.38555833473219E-12,-1.97372982155583E-15,-1.));
#1226=DIRECTION('center_axis',(-1.,4.30312753112272E-15,-1.38555833473219E-12));
#1227=DIRECTION('ref_axis',(4.30312753112509E-15,1.,-1.71069076923483E-15));
#1228=DIRECTION('',(-4.30312753112509E-15,-1.,1.71069076923483E-15));
#1229=DIRECTION('',(1.38555833473219E-12,-1.97372982155583E-15,-1.));
#1230=DIRECTION('center_axis',(1.38555833473219E-12,-1.97372982155583E-15,
-1.));
#1231=DIRECTION('ref_axis',(1.,1.37764566260071E-16,1.38555833473219E-12));
#1232=DIRECTION('center_axis',(1.38555833474279E-12,-1.71069076924059E-15,
-1.));
#1233=DIRECTION('ref_axis',(1.,1.37764566260071E-16,1.38555833474279E-12));
#1234=DIRECTION('',(1.38555833473219E-12,-1.97372982155583E-15,-1.));
#1235=DIRECTION('center_axis',(-1.27202921590171E-14,1.,-1.97372982157346E-15));
#1236=DIRECTION('ref_axis',(1.,1.27202921590198E-14,1.38555833474279E-12));
#1237=DIRECTION('',(-1.,-1.27202921590198E-14,-1.38555833474279E-12));
#1238=DIRECTION('',(1.38555833473219E-12,-1.97372982155583E-15,-1.));
#1239=DIRECTION('center_axis',(1.38555833473219E-12,-1.97372982155583E-15,
-1.));
#1240=DIRECTION('ref_axis',(-1.,1.43871127534794E-12,-1.3855583347322E-12));
#1241=DIRECTION('center_axis',(1.38555833474279E-12,-1.71069076924059E-15,
-1.));
#1242=DIRECTION('ref_axis',(-1.,1.43871127534794E-12,-1.38555833474279E-12));
#1243=DIRECTION('center_axis',(1.38555833473219E-12,-1.97372982155583E-15,
-1.));
#1244=DIRECTION('ref_axis',(1.,-1.4357506806157E-12,1.3855583347322E-12));
#1245=DIRECTION('center_axis',(1.38555833474279E-12,-1.71069076924059E-15,
-1.));
#1246=DIRECTION('ref_axis',(1.,-1.4357506806157E-12,1.38555833474279E-12));
#1247=DIRECTION('center_axis',(-3.94424350570646E-15,1.,-1.9737298215613E-15));
#1248=DIRECTION('ref_axis',(1.,3.9442435057092E-15,1.38555833474279E-12));
#1249=DIRECTION('',(1.38555833473219E-12,-1.97372982155583E-15,-1.));
#1250=DIRECTION('',(-1.,-3.9442435057092E-15,-1.38555833474279E-12));
#1251=DIRECTION('center_axis',(1.38555833473219E-12,-1.97372982155583E-15,
-1.));
#1252=DIRECTION('ref_axis',(-1.,-3.09835929859113E-15,-1.38555833473219E-12));
#1253=DIRECTION('center_axis',(1.38555833474279E-12,-1.71069076924059E-15,
-1.));
#1254=DIRECTION('ref_axis',(-1.,-3.09835929859113E-15,-1.38555833474279E-12));
#1255=DIRECTION('center_axis',(1.38555833473219E-12,-1.97372982155583E-15,
-1.));
#1256=DIRECTION('ref_axis',(-2.77615994567973E-12,-1.,1.9737298177093E-15));
#1257=DIRECTION('center_axis',(1.38555833474279E-12,-1.71069076924059E-15,
-1.));
#1258=DIRECTION('ref_axis',(-2.77615994567973E-12,-1.,1.71069076539406E-15));
#1259=DIRECTION('',(1.38555833473219E-12,-1.97372982155583E-15,-1.));
#1260=DIRECTION('center_axis',(-2.7776402430386E-12,-1.,1.97372981770725E-15));
#1261=DIRECTION('ref_axis',(-1.,2.7776402430386E-12,-1.3855583347428E-12));
#1262=DIRECTION('',(-1.,2.7776402430386E-12,-1.3855583347428E-12));
#1263=DIRECTION('center_axis',(1.38555833474279E-12,-1.71069076924062E-15,
-1.));
#1264=DIRECTION('ref_axis',(1.,-1.43871127534794E-12,1.38555833474279E-12));
#1265=DIRECTION('',(6.61646597513824E-29,1.17639811331902E-71,-1.));
#1266=DIRECTION('',(1.,0.,6.61646597513824E-29));
#1267=CARTESIAN_POINT('',(0.,0.,0.));
#1268=CARTESIAN_POINT('',(0.,0.,0.));
#1269=CARTESIAN_POINT('Origin',(11.2249999998396,-62.6750000000606,-76.9000000001539));
#1270=CARTESIAN_POINT('',(9.29999999991445,-59.4500000000579,-76.9000000001565));
#1271=CARTESIAN_POINT('',(9.29999999991136,-61.6000000000535,-76.9000000001565));
#1272=CARTESIAN_POINT('',(9.29999999991058,-62.1375000000557,-76.9000000001565));
#1273=CARTESIAN_POINT('',(14.4499999998443,-59.4500000000653,-76.9000000001494));
#1274=CARTESIAN_POINT('',(14.4499999998443,-59.4500000000653,-76.9000000001494));
#1275=CARTESIAN_POINT('',(14.4499999998369,-64.6000000000609,-76.9000000001494));
#1276=CARTESIAN_POINT('',(14.449999999835,-65.9000000000653,-76.9000000001494));
#1277=CARTESIAN_POINT('',(12.299999999907,-64.6000000000578,-76.9000000001524));
#1278=CARTESIAN_POINT('',(39.7624999998687,-64.6000000000973,-76.9000000001143));
#1279=CARTESIAN_POINT('Origin',(12.2999999999113,-61.6000000000578,-76.9000000001524));
#1280=CARTESIAN_POINT('',(11.1499999998412,-61.6000000000605,-76.900000000154));
#1281=CARTESIAN_POINT('Origin',(12.2999999998412,-61.6000000000622,-76.9000000001524));
#1282=CARTESIAN_POINT('Origin',(14.4499999998475,-59.4500000000653,-79.2000000001494));
#1283=CARTESIAN_POINT('',(9.29999999991763,-59.4500000000579,-79.2000000001565));
#1284=CARTESIAN_POINT('',(9.29999999991452,-59.4500000000579,-76.9500000001565));
#1285=CARTESIAN_POINT('',(14.4499999998475,-59.4500000000653,-79.2000000001494));
#1286=CARTESIAN_POINT('',(16.7999999998758,-59.4500000000687,-79.2000000001462));
#1287=CARTESIAN_POINT('',(14.4499999998475,-59.4500000000653,-79.2000000001494));
#1288=CARTESIAN_POINT('Origin',(14.4499999998382,-65.9000000000653,-79.2000000001494));
#1289=CARTESIAN_POINT('',(14.4499999998401,-64.6000000000609,-79.2000000001494));
#1290=CARTESIAN_POINT('',(14.4499999998369,-64.6000000000609,-76.9500000001494));
#1291=CARTESIAN_POINT('',(14.4499999998856,-32.9500000000453,-79.2000000001495));
#1292=CARTESIAN_POINT('Origin',(-29.3500000000028,15.1500000000238,-79.2000000002102));
#1293=CARTESIAN_POINT('',(-31.5000000000028,15.1500000000269,-79.2000000002132));
#1294=CARTESIAN_POINT('Origin',(-29.3500000000028,15.1500000000238,-79.2000000002103));
#1295=CARTESIAN_POINT('',(-31.500000000006,15.1500000000269,-76.9000000002132));
#1296=CARTESIAN_POINT('',(-31.5000000000028,15.1500000000269,-79.2000000002132));
#1297=CARTESIAN_POINT('Origin',(-29.350000000006,15.1500000000238,-76.9000000002102));
#1298=CARTESIAN_POINT('Origin',(-29.350000000006,15.1500000000238,-76.9000000002102));
#1299=CARTESIAN_POINT('',(-30.500000000006,15.1500000000255,-76.9000000002118));
#1300=CARTESIAN_POINT('Origin',(-29.350000000006,15.1500000000238,-76.9000000002102));
#1301=CARTESIAN_POINT('Origin',(-29.3500000000028,-15.1500000000238,-79.2000000002102));
#1302=CARTESIAN_POINT('',(-31.5000000000028,-15.1500000000207,-79.2000000002132));
#1303=CARTESIAN_POINT('Origin',(-29.3500000000028,-15.1500000000238,-79.2000000002102));
#1304=CARTESIAN_POINT('',(-31.500000000006,-15.1500000000207,-76.9000000002132));
#1305=CARTESIAN_POINT('',(-31.5000000000028,-15.1500000000207,-79.2000000002132));
#1306=CARTESIAN_POINT('Origin',(-29.350000000006,-15.1500000000238,-76.9000000002102));
#1307=CARTESIAN_POINT('Origin',(-29.350000000006,-15.1500000000238,-76.9000000002102));
#1308=CARTESIAN_POINT('',(-30.500000000006,-15.1500000000222,-76.9000000002118));
#1309=CARTESIAN_POINT('Origin',(-29.350000000006,-15.1500000000238,-76.9000000002102));
#1310=CARTESIAN_POINT('Origin',(7.99999999992968,59.450000000032,-79.2000000001586));
#1311=CARTESIAN_POINT('',(9.29999999999974,59.4500000000301,-76.9000000001567));
#1312=CARTESIAN_POINT('',(9.30000000000293,59.4500000000301,-79.2000000001567));
#1313=CARTESIAN_POINT('',(9.29999999999981,59.4500000000301,-76.9500000001567));
#1314=CARTESIAN_POINT('',(14.4499999999265,59.4500000000227,-76.9000000001496));
#1315=CARTESIAN_POINT('',(14.4499999999265,59.4500000000227,-76.9000000001496));
#1316=CARTESIAN_POINT('',(14.4499999999297,59.4500000000227,-79.2000000001496));
#1317=CARTESIAN_POINT('',(14.4499999999297,59.4500000000227,-79.2000000001496));
#1318=CARTESIAN_POINT('',(13.5750000000024,59.4500000000239,-79.2000000001508));
#1319=CARTESIAN_POINT('Origin',(14.4499999999297,59.4500000000227,-79.2000000001496));
#1320=CARTESIAN_POINT('',(14.4499999999371,64.6000000000214,-79.2000000001496));
#1321=CARTESIAN_POINT('',(14.4499999999339,64.6000000000214,-76.9000000001496));
#1322=CARTESIAN_POINT('',(14.449999999934,64.6000000000214,-76.9500000001496));
#1323=CARTESIAN_POINT('',(14.4499999998869,29.7249999999987,-79.2000000001496));
#1324=CARTESIAN_POINT('',(14.4499999999358,65.9000000000227,-76.9000000001496));
#1325=CARTESIAN_POINT('Origin',(11.2249999999311,62.6750000000273,-76.9000000001541));
#1326=CARTESIAN_POINT('',(9.29999999999973,61.6000000000214,-76.9000000001568));
#1327=CARTESIAN_POINT('',(9.29999999999978,52.1375000000203,-76.9000000001568));
#1328=CARTESIAN_POINT('',(12.2999999999997,64.6000000000214,-76.9000000001526));
#1329=CARTESIAN_POINT('Origin',(12.2999999999997,61.6000000000214,-76.9000000001526));
#1330=CARTESIAN_POINT('',(11.7624999999654,64.6000000000214,-76.9000000001533));
#1331=CARTESIAN_POINT('',(11.1499999999296,61.6000000000274,-76.9000000001542));
#1332=CARTESIAN_POINT('Origin',(12.2999999999296,61.6000000000258,-76.9000000001526));
#1333=CARTESIAN_POINT('Origin',(72.5999999999067,-59.450000000149,-79.2000000000688));
#1334=CARTESIAN_POINT('',(71.2999999999952,-59.4500000001471,-76.9000000000706));
#1335=CARTESIAN_POINT('',(71.2999999999983,-59.4500000001471,-79.2000000000706));
#1336=CARTESIAN_POINT('',(71.2999999999952,-59.4500000001471,-76.9500000000707));
#1337=CARTESIAN_POINT('',(66.1499999999035,-59.4500000001397,-76.9000000000778));
#1338=CARTESIAN_POINT('',(66.1499999999035,-59.4500000001397,-76.9000000000778));
#1339=CARTESIAN_POINT('',(66.1499999999067,-59.4500000001397,-79.2000000000778));
#1340=CARTESIAN_POINT('',(66.1499999999067,-59.4500000001397,-79.2000000000778));
#1341=CARTESIAN_POINT('',(45.8749999999054,-59.4500000001105,-79.2000000001059));
#1342=CARTESIAN_POINT('Origin',(66.1499999999067,-59.4500000001397,-79.2000000000778));
#1343=CARTESIAN_POINT('',(66.1499999998993,-64.6000000001353,-79.2000000000778));
#1344=CARTESIAN_POINT('',(66.1499999998961,-64.6000000001353,-76.9000000000778));
#1345=CARTESIAN_POINT('',(66.1499999998962,-64.6000000001353,-76.9500000000778));
#1346=CARTESIAN_POINT('',(66.1499999999494,-29.7250000001197,-79.2000000000778));
#1347=CARTESIAN_POINT('',(66.1499999998942,-65.9000000001397,-76.9000000000778));
#1348=CARTESIAN_POINT('Origin',(69.3749999998988,-62.6750000001443,-76.9000000000733));
#1349=CARTESIAN_POINT('',(71.2999999999936,-61.6000000001427,-76.9000000000706));
#1350=CARTESIAN_POINT('',(71.3000000000374,-0.537500000064182,-76.9000000000706));
#1351=CARTESIAN_POINT('',(68.2999999999004,-64.6000000001384,-76.9000000000748));
#1352=CARTESIAN_POINT('Origin',(68.2999999999048,-61.6000000001384,-76.9000000000748));
#1353=CARTESIAN_POINT('',(68.8374999998983,-64.6000000001391,-76.900000000074));
#1354=CARTESIAN_POINT('',(67.1499999999004,-61.6000000001411,-76.9000000000764));
#1355=CARTESIAN_POINT('Origin',(68.2999999999004,-61.6000000001428,-76.9000000000748));
#1356=CARTESIAN_POINT('Origin',(69.3749999999903,62.6750000000245,-76.9000000000735));
#1357=CARTESIAN_POINT('',(71.3000000000805,59.4500000000217,-76.9000000000708));
#1358=CARTESIAN_POINT('',(71.3000000000821,61.6000000000173,-76.9000000000709));
#1359=CARTESIAN_POINT('',(71.3000000000824,62.1375000000202,-76.9000000000709));
#1360=CARTESIAN_POINT('',(66.1499999999857,59.4500000000291,-76.900000000078));
#1361=CARTESIAN_POINT('',(66.1499999999857,59.4500000000291,-76.900000000078));
#1362=CARTESIAN_POINT('',(66.1499999999931,64.6000000000216,-76.900000000078));
#1363=CARTESIAN_POINT('',(66.149999999995,65.9000000000291,-76.900000000078));
#1364=CARTESIAN_POINT('',(68.3000000000821,64.6000000000217,-76.900000000075));
#1365=CARTESIAN_POINT('',(40.837499999995,64.6000000000215,-76.9000000001131));
#1366=CARTESIAN_POINT('Origin',(68.3000000000821,61.6000000000217,-76.900000000075));
#1367=CARTESIAN_POINT('',(67.1499999999888,61.6000000000277,-76.9000000000766));
#1368=CARTESIAN_POINT('Origin',(68.2999999999888,61.600000000026,-76.900000000075));
#1369=CARTESIAN_POINT('Origin',(66.1499999999889,59.4500000000291,-79.200000000078));
#1370=CARTESIAN_POINT('',(71.3000000000837,59.4500000000217,-79.2000000000708));
#1371=CARTESIAN_POINT('',(71.3000000000806,59.4500000000217,-76.9500000000708));
#1372=CARTESIAN_POINT('',(66.1499999999889,59.4500000000291,-79.200000000078));
#1373=CARTESIAN_POINT('',(42.650000000032,59.4500000000629,-79.2000000001105));
#1374=CARTESIAN_POINT('',(66.1499999999889,59.4500000000291,-79.200000000078));
#1375=CARTESIAN_POINT('Origin',(66.1499999999982,65.9000000000291,-79.200000000078));
#1376=CARTESIAN_POINT('',(66.1499999999963,64.6000000000216,-79.200000000078));
#1377=CARTESIAN_POINT('',(66.1499999999932,64.6000000000216,-76.950000000078));
#1378=CARTESIAN_POINT('',(66.1499999999508,32.9499999999647,-79.2000000000779));
#1379=CARTESIAN_POINT('Origin',(9.29999999990831,-61.6000000000535,-74.7000000001565));
#1380=CARTESIAN_POINT('',(9.29999999990831,-61.6000000000535,-74.7000000001565));
#1381=CARTESIAN_POINT('',(9.29999999990831,-61.6000000000535,-74.7000000001565));
#1382=CARTESIAN_POINT('',(9.29999999993707,-41.5999999999964,-74.7000000001566));
#1383=CARTESIAN_POINT('',(9.29999999990831,-61.6000000000535,-74.7000000001565));
#1384=CARTESIAN_POINT('',(9.29999999994331,-41.5999999999964,-79.2000000001566));
#1385=CARTESIAN_POINT('',(9.29999999993707,-41.5999999999964,-74.7000000001566));
#1386=CARTESIAN_POINT('',(9.29999999991454,-61.6000000000535,-79.2000000001565));
#1387=CARTESIAN_POINT('Origin',(12.2999999999083,-61.6000000000578,-74.7000000001524));
#1388=CARTESIAN_POINT('',(12.299999999904,-64.6000000000578,-74.7000000001524));
#1389=CARTESIAN_POINT('',(12.299999999904,-64.6000000000578,-74.7000000001524));
#1390=CARTESIAN_POINT('Origin',(12.2999999999083,-61.6000000000578,-74.7000000001524));
#1391=CARTESIAN_POINT('Origin',(9.29999999999678,41.6000000000132,-74.7000000001567));
#1392=CARTESIAN_POINT('',(9.30000000000302,41.6000000000132,-79.2000000001567));
#1393=CARTESIAN_POINT('',(9.30000000000292,61.6000000000214,-79.2000000001567));
#1394=CARTESIAN_POINT('',(9.29999999999678,41.6000000000132,-74.7000000001567));
#1395=CARTESIAN_POINT('',(9.29999999999678,41.6000000000132,-74.7000000001567));
#1396=CARTESIAN_POINT('',(9.29999999999669,61.6000000000214,-74.7000000001567));
#1397=CARTESIAN_POINT('',(9.29999999999669,61.6000000000214,-74.7000000001567));
#1398=CARTESIAN_POINT('',(9.29999999999669,61.6000000000214,-74.7000000001567));
#1399=CARTESIAN_POINT('Origin',(68.2999999998974,-64.6000000001384,-74.7000000000748));
#1400=CARTESIAN_POINT('',(68.2999999999036,-64.6000000001384,-79.2000000000748));
#1401=CARTESIAN_POINT('',(68.2999999998974,-64.6000000001384,-74.7000000000748));
#1402=CARTESIAN_POINT('',(68.2999999998974,-64.6000000001384,-74.7000000000748));
#1403=CARTESIAN_POINT('',(68.2999999998974,-64.6000000001384,-74.7000000000748));
#1404=CARTESIAN_POINT('Origin',(71.300000000079,61.6000000000173,-74.7000000000708));
#1405=CARTESIAN_POINT('',(71.3000000000852,61.6000000000173,-79.2000000000708));
#1406=CARTESIAN_POINT('',(71.300000000079,61.6000000000173,-74.7000000000708));
#1407=CARTESIAN_POINT('',(71.300000000079,61.6000000000173,-74.7000000000708));
#1408=CARTESIAN_POINT('',(71.2999999999906,-61.6000000001427,-74.7000000000706));
#1409=CARTESIAN_POINT('',(71.300000000079,61.6000000000173,-74.7000000000708));
#1410=CARTESIAN_POINT('',(71.2999999999906,-61.6000000001427,-74.7000000000706));
#1411=CARTESIAN_POINT('Origin',(68.300000000079,61.6000000000217,-74.700000000075));
#1412=CARTESIAN_POINT('',(68.300000000079,64.6000000000217,-74.700000000075));
#1413=CARTESIAN_POINT('',(68.300000000079,64.6000000000217,-74.700000000075));
#1414=CARTESIAN_POINT('Origin',(68.300000000079,61.6000000000217,-74.700000000075));
#1415=CARTESIAN_POINT('Origin',(19.1499999999896,-3.20933562691124E-11,
-79.200000000143));
#1416=CARTESIAN_POINT('',(12.2999999999433,-38.6000000000008,-79.2000000001524));
#1417=CARTESIAN_POINT('Origin',(12.2999999999433,-41.6000000000008,-79.2000000001524));
#1418=CARTESIAN_POINT('',(18.3000000000245,-38.6000000000007,-79.2000000001441));
#1419=CARTESIAN_POINT('',(18.3000000000245,-38.6000000000007,-79.2000000001441));
#1420=CARTESIAN_POINT('',(19.3000000000245,-37.6000000000007,-79.2000000001427));
#1421=CARTESIAN_POINT('Origin',(18.3000000000245,-37.6000000000007,-79.2000000001441));
#1422=CARTESIAN_POINT('',(19.3000000000245,-36.6000000000015,-79.2000000001427));
#1423=CARTESIAN_POINT('',(19.3000000000245,-36.6000000000015,-79.2000000001427));
#1424=CARTESIAN_POINT('',(18.3000000000238,-35.6000000000015,-79.2000000001441));
#1425=CARTESIAN_POINT('Origin',(18.3000000000245,-36.6000000000015,-79.2000000001441));
#1426=CARTESIAN_POINT('',(-32.9999999999986,-35.6000000000422,-79.2000000002152));
#1427=CARTESIAN_POINT('',(-32.9999999999986,-35.6000000000422,-79.2000000002152));
#1428=CARTESIAN_POINT('',(-33.0000000000551,35.6000000000313,-79.2000000002153));
#1429=CARTESIAN_POINT('',(-33.0000000000551,35.6000000000313,-79.2000000002153));
#1430=CARTESIAN_POINT('',(18.3000000000238,35.5999999999945,-79.2000000001442));
#1431=CARTESIAN_POINT('',(-33.0000000000551,35.6000000000313,-79.2000000002153));
#1432=CARTESIAN_POINT('',(19.3000000000245,36.5999999999945,-79.2000000001429));
#1433=CARTESIAN_POINT('Origin',(18.3000000000245,36.5999999999945,-79.2000000001442));
#1434=CARTESIAN_POINT('',(19.3000000000245,37.5999999999965,-79.2000000001429));
#1435=CARTESIAN_POINT('',(19.3000000000245,37.5999999999965,-79.2000000001429));
#1436=CARTESIAN_POINT('',(18.3000000000273,38.5999999999965,-79.2000000001442));
#1437=CARTESIAN_POINT('Origin',(18.3000000000245,37.5999999999965,-79.2000000001442));
#1438=CARTESIAN_POINT('',(12.2999999999947,38.6000000000132,-79.2000000001526));
#1439=CARTESIAN_POINT('',(18.3000000000273,38.5999999999965,-79.2000000001442));
#1440=CARTESIAN_POINT('Origin',(12.300000000003,41.6000000000132,-79.2000000001526));
#1441=CARTESIAN_POINT('',(68.3000000000852,64.6000000000216,-79.200000000075));
#1442=CARTESIAN_POINT('Origin',(-29.350000000009,15.1500000000238,-74.7000000002102));
#1443=CARTESIAN_POINT('',(-30.500000000009,15.1500000000255,-74.7000000002118));
#1444=CARTESIAN_POINT('Origin',(-29.350000000009,15.1500000000238,-74.7000000002102));
#1445=CARTESIAN_POINT('',(-30.500000000009,15.1500000000255,-74.7000000002118));
#1446=CARTESIAN_POINT('Origin',(12.2999999999265,61.6000000000258,-74.7000000001526));
#1447=CARTESIAN_POINT('',(11.1499999999265,61.6000000000274,-74.7000000001542));
#1448=CARTESIAN_POINT('Origin',(12.2999999999265,61.6000000000258,-74.7000000001526));
#1449=CARTESIAN_POINT('',(11.1499999999265,61.6000000000274,-74.7000000001542));
#1450=CARTESIAN_POINT('Origin',(68.2999999998974,-61.6000000001428,-74.7000000000748));
#1451=CARTESIAN_POINT('',(67.1499999998973,-61.6000000001411,-74.7000000000764));
#1452=CARTESIAN_POINT('Origin',(68.2999999998974,-61.6000000001428,-74.7000000000748));
#1453=CARTESIAN_POINT('',(67.1499999998973,-61.6000000001411,-74.7000000000764));
#1454=CARTESIAN_POINT('Origin',(12.2999999998381,-61.6000000000622,-74.7000000001524));
#1455=CARTESIAN_POINT('',(11.1499999998381,-61.6000000000605,-74.700000000154));
#1456=CARTESIAN_POINT('Origin',(12.2999999998381,-61.6000000000622,-74.7000000001524));
#1457=CARTESIAN_POINT('',(11.1499999998381,-61.6000000000605,-74.700000000154));
#1458=CARTESIAN_POINT('Origin',(68.2999999999857,61.600000000026,-74.700000000075));
#1459=CARTESIAN_POINT('',(67.1499999999857,61.6000000000277,-74.7000000000766));
#1460=CARTESIAN_POINT('Origin',(68.2999999999857,61.600000000026,-74.700000000075));
#1461=CARTESIAN_POINT('',(67.1499999999857,61.6000000000277,-74.7000000000766));
#1462=CARTESIAN_POINT('Origin',(-29.350000000009,-15.1500000000238,-74.7000000002102));
#1463=CARTESIAN_POINT('',(-30.500000000009,-15.1500000000222,-74.7000000002118));
#1464=CARTESIAN_POINT('Origin',(-29.350000000009,-15.1500000000238,-74.7000000002102));
#1465=CARTESIAN_POINT('',(-30.500000000009,-15.1500000000222,-74.7000000002118));
#1466=CARTESIAN_POINT('Origin',(18.3000000000183,37.5999999999965,-74.7000000001442));
#1467=CARTESIAN_POINT('',(18.3000000000211,38.5999999999965,-74.7000000001442));
#1468=CARTESIAN_POINT('',(19.3000000000183,37.5999999999965,-74.7000000001429));
#1469=CARTESIAN_POINT('Origin',(18.3000000000183,37.5999999999965,-74.7000000001442));
#1470=CARTESIAN_POINT('',(18.3000000000211,38.5999999999965,-74.7000000001442));
#1471=CARTESIAN_POINT('',(19.3000000000183,37.5999999999965,-74.7000000001429));
#1472=CARTESIAN_POINT('Origin',(19.3000000000183,36.5999999999945,-74.7000000001429));
#1473=CARTESIAN_POINT('',(19.3000000000183,36.5999999999945,-74.7000000001429));
#1474=CARTESIAN_POINT('',(19.3000000000183,37.5999999999965,-74.7000000001429));
#1475=CARTESIAN_POINT('',(19.3000000000183,36.5999999999945,-74.7000000001429));
#1476=CARTESIAN_POINT('Origin',(18.3000000000183,36.5999999999945,-74.7000000001442));
#1477=CARTESIAN_POINT('',(18.3000000000176,35.5999999999945,-74.7000000001442));
#1478=CARTESIAN_POINT('Origin',(18.3000000000183,36.5999999999945,-74.7000000001442));
#1479=CARTESIAN_POINT('',(18.3000000000176,35.5999999999945,-74.7000000001442));
#1480=CARTESIAN_POINT('Origin',(-33.0000000000613,35.6000000000313,-74.7000000002153));
#1481=CARTESIAN_POINT('',(-33.0000000000613,35.6000000000313,-74.7000000002153));
#1482=CARTESIAN_POINT('',(-33.0000000000613,35.6000000000313,-74.7000000002153));
#1483=CARTESIAN_POINT('',(-33.0000000000613,35.6000000000313,-74.7000000002153));
#1484=CARTESIAN_POINT('Origin',(-33.0000000000048,-35.6000000000422,-74.7000000002152));
#1485=CARTESIAN_POINT('',(-33.0000000000048,-35.6000000000422,-74.7000000002152));
#1486=CARTESIAN_POINT('',(-33.0000000000613,35.6000000000313,-74.7000000002153));
#1487=CARTESIAN_POINT('',(-33.0000000000048,-35.6000000000422,-74.7000000002152));
#1488=CARTESIAN_POINT('Origin',(18.3000000000175,-35.6000000000015,-74.7000000001441));
#1489=CARTESIAN_POINT('',(18.3000000000175,-35.6000000000015,-74.7000000001441));
#1490=CARTESIAN_POINT('',(-33.0000000000048,-35.6000000000422,-74.7000000002152));
#1491=CARTESIAN_POINT('',(18.3000000000175,-35.6000000000015,-74.7000000001441));
#1492=CARTESIAN_POINT('Origin',(18.3000000000183,-36.6000000000015,-74.7000000001441));
#1493=CARTESIAN_POINT('',(19.3000000000183,-36.6000000000015,-74.7000000001427));
#1494=CARTESIAN_POINT('Origin',(18.3000000000183,-36.6000000000015,-74.7000000001441));
#1495=CARTESIAN_POINT('',(19.3000000000183,-36.6000000000015,-74.7000000001427));
#1496=CARTESIAN_POINT('Origin',(19.3000000000183,-37.6000000000007,-74.7000000001427));
#1497=CARTESIAN_POINT('',(19.3000000000183,-37.6000000000007,-74.7000000001427));
#1498=CARTESIAN_POINT('',(19.3000000000183,-36.6000000000015,-74.7000000001427));
#1499=CARTESIAN_POINT('',(19.3000000000183,-37.6000000000007,-74.7000000001427));
#1500=CARTESIAN_POINT('Origin',(18.3000000000183,-37.6000000000007,-74.7000000001441));
#1501=CARTESIAN_POINT('',(18.3000000000183,-38.6000000000007,-74.7000000001441));
#1502=CARTESIAN_POINT('Origin',(18.3000000000183,-37.6000000000007,-74.7000000001441));
#1503=CARTESIAN_POINT('',(18.3000000000183,-38.6000000000007,-74.7000000001441));
#1504=CARTESIAN_POINT('Origin',(12.2999999999371,-38.6000000000008,-74.7000000001524));
#1505=CARTESIAN_POINT('',(12.2999999999371,-38.6000000000008,-74.7000000001524));
#1506=CARTESIAN_POINT('',(18.3000000000183,-38.6000000000007,-74.7000000001441));
#1507=CARTESIAN_POINT('',(12.2999999999371,-38.6000000000008,-74.7000000001524));
#1508=CARTESIAN_POINT('Origin',(12.2999999999371,-41.6000000000008,-74.7000000001524));
#1509=CARTESIAN_POINT('Origin',(12.2999999999371,-41.6000000000008,-74.7000000001524));
#1510=CARTESIAN_POINT('Origin',(68.2999999999017,-61.6000000001384,-74.7000000000748));
#1511=CARTESIAN_POINT('Origin',(68.2999999999017,-61.6000000001384,-74.7000000000748));
#1512=CARTESIAN_POINT('Origin',(12.2999999999967,64.6000000000214,-74.7000000001526));
#1513=CARTESIAN_POINT('',(12.2999999999967,64.6000000000214,-74.7000000001526));
#1514=CARTESIAN_POINT('',(12.2999999999967,64.6000000000214,-74.7000000001526));
#1515=CARTESIAN_POINT('',(68.300000000079,64.6000000000217,-74.700000000075));
#1516=CARTESIAN_POINT('Origin',(12.2999999999967,61.6000000000214,-74.7000000001526));
#1517=CARTESIAN_POINT('Origin',(12.2999999999967,61.6000000000214,-74.7000000001526));
#1518=CARTESIAN_POINT('Origin',(12.2999999999968,41.6000000000132,-74.7000000001526));
#1519=CARTESIAN_POINT('',(12.2999999999884,38.6000000000132,-74.7000000001526));
#1520=CARTESIAN_POINT('Origin',(12.2999999999968,41.6000000000132,-74.7000000001526));
#1521=CARTESIAN_POINT('',(12.2999999999884,38.6000000000132,-74.7000000001526));
#1522=CARTESIAN_POINT('Origin',(18.3000000000211,38.5999999999965,-74.7000000001442));
#1523=CARTESIAN_POINT('',(18.3000000000211,38.5999999999965,-74.7000000001442));
#1524=CARTESIAN_POINT('Origin',(19.1499999999833,-3.20844744849154E-11,
-74.700000000143));
#1525=CARTESIAN_POINT('',(-19.1499999999854,-6.93312074417918E-11,-74.700000000143));
#1526=UNCERTAINTY_MEASURE_WITH_UNIT(LENGTH_MEASURE(0.01),#1532,
'DISTANCE_ACCURACY_VALUE',
'Maximum model space distance between geometric entities at asserted c
onnectivities');
#1527=UNCERTAINTY_MEASURE_WITH_UNIT(LENGTH_MEASURE(0.01),#1532,
'DISTANCE_ACCURACY_VALUE',
'Maximum model space distance between geometric entities at asserted c
onnectivities');
#1528=UNCERTAINTY_MEASURE_WITH_UNIT(LENGTH_MEASURE(0.01),#1532,
'DISTANCE_ACCURACY_VALUE',
'Maximum model space distance between geometric entities at asserted c
onnectivities');
#1529=(
GEOMETRIC_REPRESENTATION_CONTEXT(3)
GLOBAL_UNCERTAINTY_ASSIGNED_CONTEXT((#1526))
GLOBAL_UNIT_ASSIGNED_CONTEXT((#1532,#1534,#1535))
REPRESENTATION_CONTEXT('','3D')
);
#1530=(
GEOMETRIC_REPRESENTATION_CONTEXT(3)
GLOBAL_UNCERTAINTY_ASSIGNED_CONTEXT((#1527))
GLOBAL_UNIT_ASSIGNED_CONTEXT((#1532,#1534,#1535))
REPRESENTATION_CONTEXT('','3D')
);
#1531=(
GEOMETRIC_REPRESENTATION_CONTEXT(3)
GLOBAL_UNCERTAINTY_ASSIGNED_CONTEXT((#1528))
GLOBAL_UNIT_ASSIGNED_CONTEXT((#1532,#1534,#1535))
REPRESENTATION_CONTEXT('','3D')
);
#1532=(
LENGTH_UNIT()
NAMED_UNIT(*)
SI_UNIT(.MILLI.,.METRE.)
);
#1533=(
LENGTH_UNIT()
NAMED_UNIT(*)
SI_UNIT($,.METRE.)
);
#1534=(
NAMED_UNIT(*)
PLANE_ANGLE_UNIT()
SI_UNIT($,.RADIAN.)
);
#1535=(
NAMED_UNIT(*)
SI_UNIT($,.STERADIAN.)
SOLID_ANGLE_UNIT()
);
#1536=SHAPE_DEFINITION_REPRESENTATION(#1538,#1541);
#1537=SHAPE_DEFINITION_REPRESENTATION(#1539,#1542);
#1538=PRODUCT_DEFINITION_SHAPE('',$,#1544);
#1539=PRODUCT_DEFINITION_SHAPE('',$,#1545);
#1540=PRODUCT_DEFINITION_SHAPE($,$,#14);
#1541=SHAPE_REPRESENTATION('',(#922,#1006),#1529);
#1542=SHAPE_REPRESENTATION('',(#923),#1530);
#1543=PRODUCT_DEFINITION_CONTEXT('part definition',#1551,'design');
#1544=PRODUCT_DEFINITION('2026-09-28-17-32-17-094','PRINT_LAYOUT',#1546,
#1543);
#1545=PRODUCT_DEFINITION('2026-09-28-17-32-17-103','BottomCover',#1547,
#1543);
#1546=PRODUCT_DEFINITION_FORMATION('',$,#1553);
#1547=PRODUCT_DEFINITION_FORMATION('',$,#1554);
#1548=PRODUCT_RELATED_PRODUCT_CATEGORY('PRINT_LAYOUT','PRINT_LAYOUT',(#1553));
#1549=PRODUCT_RELATED_PRODUCT_CATEGORY('BottomCover','BottomCover',(#1554));
#1550=APPLICATION_PROTOCOL_DEFINITION('international standard',
'automotive_design',2009,#1551);
#1551=APPLICATION_CONTEXT(
'Core Data for Automotive Mechanical Design Process');
#1552=PRODUCT_CONTEXT('part definition',#1551,'mechanical');
#1553=PRODUCT('2026-09-28-17-32-17-094','PRINT_LAYOUT',$,(#1552));
#1554=PRODUCT('2026-09-28-17-32-17-103','BottomCover',$,(#1552));
#1555=PRESENTATION_STYLE_ASSIGNMENT((#1558));
#1556=PRESENTATION_STYLE_ASSIGNMENT((#1559));
#1557=PRESENTATION_STYLE_ASSIGNMENT((#1560));
#1558=SURFACE_STYLE_USAGE(.BOTH.,#1561);
#1559=SURFACE_STYLE_USAGE(.BOTH.,#1562);
#1560=SURFACE_STYLE_USAGE(.BOTH.,#1563);
#1561=SURFACE_SIDE_STYLE('',(#1564));
#1562=SURFACE_SIDE_STYLE('',(#1565));
#1563=SURFACE_SIDE_STYLE('',(#1566));
#1564=SURFACE_STYLE_FILL_AREA(#1567);
#1565=SURFACE_STYLE_FILL_AREA(#1568);
#1566=SURFACE_STYLE_FILL_AREA(#1569);
#1567=FILL_AREA_STYLE('Plastic - Matte (Black)',(#1570));
#1568=FILL_AREA_STYLE('Steel - Satin',(#1571));
#1569=FILL_AREA_STYLE('Brass - Old',(#1572));
#1570=FILL_AREA_STYLE_COLOUR('Plastic - Matte (Black)',#1573);
#1571=FILL_AREA_STYLE_COLOUR('Steel - Satin',#1574);
#1572=FILL_AREA_STYLE_COLOUR('Brass - Old',#1575);
#1573=COLOUR_RGB('Plastic - Matte (Black)',0.0980392156862745,0.0980392156862745,
0.0980392156862745);
#1574=COLOUR_RGB('Steel - Satin',0.627450980392157,0.627450980392157,0.627450980392157);
#1575=COLOUR_RGB('Brass - Old',0.,0.,0.);
ENDSEC;
END-ISO-10303-21;
