ISO-10303-21;
HEADER;
/* Generated by software containing ST-Developer
 * from STEP Tools, Inc. (www.steptools.com) 
 */

FILE_DESCRIPTION(
/* description */ (''),
/* implementation_level */ '2;1');

FILE_NAME(
/* name */ 'LampButton.step',
/* time_stamp */ '2026-09-10T23:11:46+02:00',
/* author */ (''),
/* organization */ (''),
/* preprocessor_version */ 'ST-DEVELOPER v20.2',
/* originating_system */ 'Autodesk Translation Framework v15.15.0.0',
/* authorisation */ '');

FILE_SCHEMA (('AUTOMOTIVE_DESIGN { 1 0 10303 214 3 1 1 }'));
ENDSEC;

DATA;
#10=MECHANICAL_DESIGN_GEOMETRIC_PRESENTATION_REPRESENTATION('',(#20,#21),
#400);
#11=CONTEXT_DEPENDENT_OVER_RIDING_STYLED_ITEM('',(#426),#411,#21,(#15));
#12=MAPPED_ITEM('',#13,#260);
#13=REPRESENTATION_MAP(#260,#410);
#14=ITEM_DEFINED_TRANSFORMATION($,$,#235,#259);
#15=(
REPRESENTATION_RELATIONSHIP($,$,#411,#410)
REPRESENTATION_RELATIONSHIP_WITH_TRANSFORMATION(#14)
SHAPE_REPRESENTATION_RELATIONSHIP()
);
#16=CONTEXT_DEPENDENT_SHAPE_REPRESENTATION(#15,#409);
#17=NEXT_ASSEMBLY_USAGE_OCCURRENCE('LampButton:1','LampButton:1',
'LampButton:1',#413,#414,'LampButton:1');
#18=SHAPE_REPRESENTATION_RELATIONSHIP('SRR','None',#411,#19);
#19=ADVANCED_BREP_SHAPE_REPRESENTATION('',(#22),#399);
#20=STYLED_ITEM('',(#426),#22);
#21=STYLED_ITEM('',(#427),#12);
#22=MANIFOLD_SOLID_BREP('Body1',#221);
#23=FACE_BOUND('',#86,.T.);
#24=PLANE('',#244);
#25=PLANE('',#245);
#26=PLANE('',#251);
#27=PLANE('',#254);
#28=PLANE('',#257);
#29=PLANE('',#258);
#30=LINE('',#341,#47);
#31=LINE('',#348,#48);
#32=LINE('',#351,#49);
#33=LINE('',#354,#50);
#34=LINE('',#356,#51);
#35=LINE('',#357,#52);
#36=LINE('',#360,#53);
#37=LINE('',#364,#54);
#38=LINE('',#368,#55);
#39=LINE('',#373,#56);
#40=LINE('',#376,#57);
#41=LINE('',#377,#58);
#42=LINE('',#381,#59);
#43=LINE('',#384,#60);
#44=LINE('',#385,#61);
#45=LINE('',#389,#62);
#46=LINE('',#391,#63);
#47=VECTOR('',#273,1.2);
#48=VECTOR('',#280,10.);
#49=VECTOR('',#283,10.);
#50=VECTOR('',#286,10.);
#51=VECTOR('',#287,10.);
#52=VECTOR('',#288,10.);
#53=VECTOR('',#291,10.);
#54=VECTOR('',#294,10.);
#55=VECTOR('',#297,10.);
#56=VECTOR('',#304,10.);
#57=VECTOR('',#307,10.);
#58=VECTOR('',#308,10.);
#59=VECTOR('',#313,10.);
#60=VECTOR('',#316,10.);
#61=VECTOR('',#317,10.);
#62=VECTOR('',#322,10.);
#63=VECTOR('',#325,10.);
#64=CYLINDRICAL_SURFACE('',#239,1.2);
#65=CYLINDRICAL_SURFACE('',#241,1.);
#66=CYLINDRICAL_SURFACE('',#249,1.);
#67=CYLINDRICAL_SURFACE('',#252,1.);
#68=CYLINDRICAL_SURFACE('',#255,1.);
#69=FACE_OUTER_BOUND('',#81,.T.);
#70=FACE_OUTER_BOUND('',#82,.T.);
#71=FACE_OUTER_BOUND('',#83,.T.);
#72=FACE_OUTER_BOUND('',#84,.T.);
#73=FACE_OUTER_BOUND('',#85,.T.);
#74=FACE_OUTER_BOUND('',#87,.T.);
#75=FACE_OUTER_BOUND('',#88,.T.);
#76=FACE_OUTER_BOUND('',#89,.T.);
#77=FACE_OUTER_BOUND('',#90,.T.);
#78=FACE_OUTER_BOUND('',#91,.T.);
#79=FACE_OUTER_BOUND('',#92,.T.);
#80=FACE_OUTER_BOUND('',#93,.T.);
#81=EDGE_LOOP('',(#152,#153,#154));
#82=EDGE_LOOP('',(#155,#156,#157,#158));
#83=EDGE_LOOP('',(#159,#160,#161,#162));
#84=EDGE_LOOP('',(#163,#164,#165,#166));
#85=EDGE_LOOP('',(#167,#168,#169,#170,#171,#172,#173,#174));
#86=EDGE_LOOP('',(#175));
#87=EDGE_LOOP('',(#176,#177,#178,#179));
#88=EDGE_LOOP('',(#180,#181,#182,#183));
#89=EDGE_LOOP('',(#184,#185,#186,#187));
#90=EDGE_LOOP('',(#188,#189,#190,#191));
#91=EDGE_LOOP('',(#192,#193,#194,#195));
#92=EDGE_LOOP('',(#196,#197,#198,#199));
#93=EDGE_LOOP('',(#200,#201,#202,#203,#204,#205,#206,#207));
#94=CIRCLE('',#237,1.2);
#95=CIRCLE('',#238,1.2);
#96=CIRCLE('',#240,1.2);
#97=CIRCLE('',#242,1.);
#98=CIRCLE('',#243,1.);
#99=CIRCLE('',#246,1.);
#100=CIRCLE('',#247,1.);
#101=CIRCLE('',#248,1.);
#102=CIRCLE('',#250,1.);
#103=CIRCLE('',#253,1.);
#104=CIRCLE('',#256,1.);
#105=VERTEX_POINT('',#335);
#106=VERTEX_POINT('',#337);
#107=VERTEX_POINT('',#340);
#108=VERTEX_POINT('',#344);
#109=VERTEX_POINT('',#345);
#110=VERTEX_POINT('',#347);
#111=VERTEX_POINT('',#349);
#112=VERTEX_POINT('',#353);
#113=VERTEX_POINT('',#355);
#114=VERTEX_POINT('',#359);
#115=VERTEX_POINT('',#361);
#116=VERTEX_POINT('',#363);
#117=VERTEX_POINT('',#365);
#118=VERTEX_POINT('',#367);
#119=VERTEX_POINT('',#371);
#120=VERTEX_POINT('',#375);
#121=VERTEX_POINT('',#379);
#122=VERTEX_POINT('',#383);
#123=VERTEX_POINT('',#387);
#124=EDGE_CURVE('',#105,#105,#94,.T.);
#125=EDGE_CURVE('',#106,#105,#95,.T.);
#126=EDGE_CURVE('',#105,#107,#30,.T.);
#127=EDGE_CURVE('',#107,#107,#96,.T.);
#128=EDGE_CURVE('',#108,#109,#97,.T.);
#129=EDGE_CURVE('',#109,#110,#31,.T.);
#130=EDGE_CURVE('',#110,#111,#98,.T.);
#131=EDGE_CURVE('',#111,#108,#32,.T.);
#132=EDGE_CURVE('',#111,#112,#33,.T.);
#133=EDGE_CURVE('',#113,#112,#34,.T.);
#134=EDGE_CURVE('',#108,#113,#35,.T.);
#135=EDGE_CURVE('',#114,#110,#36,.T.);
#136=EDGE_CURVE('',#115,#114,#99,.T.);
#137=EDGE_CURVE('',#116,#115,#37,.T.);
#138=EDGE_CURVE('',#117,#116,#100,.T.);
#139=EDGE_CURVE('',#118,#117,#38,.T.);
#140=EDGE_CURVE('',#112,#118,#101,.T.);
#141=EDGE_CURVE('',#119,#113,#102,.T.);
#142=EDGE_CURVE('',#118,#119,#39,.T.);
#143=EDGE_CURVE('',#120,#117,#40,.T.);
#144=EDGE_CURVE('',#119,#120,#41,.T.);
#145=EDGE_CURVE('',#121,#120,#103,.T.);
#146=EDGE_CURVE('',#116,#121,#42,.T.);
#147=EDGE_CURVE('',#122,#115,#43,.T.);
#148=EDGE_CURVE('',#121,#122,#44,.T.);
#149=EDGE_CURVE('',#123,#122,#104,.T.);
#150=EDGE_CURVE('',#114,#123,#45,.T.);
#151=EDGE_CURVE('',#123,#109,#46,.T.);
#152=ORIENTED_EDGE('',*,*,#124,.T.);
#153=ORIENTED_EDGE('',*,*,#125,.F.);
#154=ORIENTED_EDGE('',*,*,#125,.T.);
#155=ORIENTED_EDGE('',*,*,#124,.F.);
#156=ORIENTED_EDGE('',*,*,#126,.T.);
#157=ORIENTED_EDGE('',*,*,#127,.F.);
#158=ORIENTED_EDGE('',*,*,#126,.F.);
#159=ORIENTED_EDGE('',*,*,#128,.T.);
#160=ORIENTED_EDGE('',*,*,#129,.T.);
#161=ORIENTED_EDGE('',*,*,#130,.T.);
#162=ORIENTED_EDGE('',*,*,#131,.T.);
#163=ORIENTED_EDGE('',*,*,#131,.F.);
#164=ORIENTED_EDGE('',*,*,#132,.T.);
#165=ORIENTED_EDGE('',*,*,#133,.F.);
#166=ORIENTED_EDGE('',*,*,#134,.F.);
#167=ORIENTED_EDGE('',*,*,#130,.F.);
#168=ORIENTED_EDGE('',*,*,#135,.F.);
#169=ORIENTED_EDGE('',*,*,#136,.F.);
#170=ORIENTED_EDGE('',*,*,#137,.F.);
#171=ORIENTED_EDGE('',*,*,#138,.F.);
#172=ORIENTED_EDGE('',*,*,#139,.F.);
#173=ORIENTED_EDGE('',*,*,#140,.F.);
#174=ORIENTED_EDGE('',*,*,#132,.F.);
#175=ORIENTED_EDGE('',*,*,#127,.T.);
#176=ORIENTED_EDGE('',*,*,#141,.T.);
#177=ORIENTED_EDGE('',*,*,#133,.T.);
#178=ORIENTED_EDGE('',*,*,#140,.T.);
#179=ORIENTED_EDGE('',*,*,#142,.T.);
#180=ORIENTED_EDGE('',*,*,#142,.F.);
#181=ORIENTED_EDGE('',*,*,#139,.T.);
#182=ORIENTED_EDGE('',*,*,#143,.F.);
#183=ORIENTED_EDGE('',*,*,#144,.F.);
#184=ORIENTED_EDGE('',*,*,#145,.T.);
#185=ORIENTED_EDGE('',*,*,#143,.T.);
#186=ORIENTED_EDGE('',*,*,#138,.T.);
#187=ORIENTED_EDGE('',*,*,#146,.T.);
#188=ORIENTED_EDGE('',*,*,#146,.F.);
#189=ORIENTED_EDGE('',*,*,#137,.T.);
#190=ORIENTED_EDGE('',*,*,#147,.F.);
#191=ORIENTED_EDGE('',*,*,#148,.F.);
#192=ORIENTED_EDGE('',*,*,#149,.T.);
#193=ORIENTED_EDGE('',*,*,#147,.T.);
#194=ORIENTED_EDGE('',*,*,#136,.T.);
#195=ORIENTED_EDGE('',*,*,#150,.T.);
#196=ORIENTED_EDGE('',*,*,#129,.F.);
#197=ORIENTED_EDGE('',*,*,#151,.F.);
#198=ORIENTED_EDGE('',*,*,#150,.F.);
#199=ORIENTED_EDGE('',*,*,#135,.T.);
#200=ORIENTED_EDGE('',*,*,#128,.F.);
#201=ORIENTED_EDGE('',*,*,#134,.T.);
#202=ORIENTED_EDGE('',*,*,#141,.F.);
#203=ORIENTED_EDGE('',*,*,#144,.T.);
#204=ORIENTED_EDGE('',*,*,#145,.F.);
#205=ORIENTED_EDGE('',*,*,#148,.T.);
#206=ORIENTED_EDGE('',*,*,#149,.F.);
#207=ORIENTED_EDGE('',*,*,#151,.T.);
#208=SPHERICAL_SURFACE('',#236,1.2);
#209=ADVANCED_FACE('',(#69),#208,.T.);
#210=ADVANCED_FACE('',(#70),#64,.T.);
#211=ADVANCED_FACE('',(#71),#65,.T.);
#212=ADVANCED_FACE('',(#72),#24,.T.);
#213=ADVANCED_FACE('',(#73,#23),#25,.F.);
#214=ADVANCED_FACE('',(#74),#66,.T.);
#215=ADVANCED_FACE('',(#75),#26,.T.);
#216=ADVANCED_FACE('',(#76),#67,.T.);
#217=ADVANCED_FACE('',(#77),#27,.T.);
#218=ADVANCED_FACE('',(#78),#68,.T.);
#219=ADVANCED_FACE('',(#79),#28,.T.);
#220=ADVANCED_FACE('',(#80),#29,.T.);
#221=CLOSED_SHELL('',(#209,#210,#211,#212,#213,#214,#215,#216,#217,#218,
#219,#220));
#222=DERIVED_UNIT_ELEMENT(#224,1.);
#223=DERIVED_UNIT_ELEMENT(#402,-3.);
#224=(
MASS_UNIT()
NAMED_UNIT(*)
SI_UNIT(.KILO.,.GRAM.)
);
#225=DERIVED_UNIT((#222,#223));
#226=MEASURE_REPRESENTATION_ITEM('density measure',
POSITIVE_RATIO_MEASURE(7850.),#225);
#227=PROPERTY_DEFINITION_REPRESENTATION(#232,#229);
#228=PROPERTY_DEFINITION_REPRESENTATION(#233,#230);
#229=REPRESENTATION('material name',(#231),#399);
#230=REPRESENTATION('density',(#226),#399);
#231=DESCRIPTIVE_REPRESENTATION_ITEM('Steel','Steel');
#232=PROPERTY_DEFINITION('material property','material name',#414);
#233=PROPERTY_DEFINITION('material property','density of part',#414);
#234=AXIS2_PLACEMENT_3D('',#332,#261,#262);
#235=AXIS2_PLACEMENT_3D('',#333,#263,#264);
#236=AXIS2_PLACEMENT_3D('',#334,#265,#266);
#237=AXIS2_PLACEMENT_3D('',#336,#267,#268);
#238=AXIS2_PLACEMENT_3D('',#338,#269,#270);
#239=AXIS2_PLACEMENT_3D('',#339,#271,#272);
#240=AXIS2_PLACEMENT_3D('',#342,#274,#275);
#241=AXIS2_PLACEMENT_3D('',#343,#276,#277);
#242=AXIS2_PLACEMENT_3D('',#346,#278,#279);
#243=AXIS2_PLACEMENT_3D('',#350,#281,#282);
#244=AXIS2_PLACEMENT_3D('',#352,#284,#285);
#245=AXIS2_PLACEMENT_3D('',#358,#289,#290);
#246=AXIS2_PLACEMENT_3D('',#362,#292,#293);
#247=AXIS2_PLACEMENT_3D('',#366,#295,#296);
#248=AXIS2_PLACEMENT_3D('',#369,#298,#299);
#249=AXIS2_PLACEMENT_3D('',#370,#300,#301);
#250=AXIS2_PLACEMENT_3D('',#372,#302,#303);
#251=AXIS2_PLACEMENT_3D('',#374,#305,#306);
#252=AXIS2_PLACEMENT_3D('',#378,#309,#310);
#253=AXIS2_PLACEMENT_3D('',#380,#311,#312);
#254=AXIS2_PLACEMENT_3D('',#382,#314,#315);
#255=AXIS2_PLACEMENT_3D('',#386,#318,#319);
#256=AXIS2_PLACEMENT_3D('',#388,#320,#321);
#257=AXIS2_PLACEMENT_3D('',#390,#323,#324);
#258=AXIS2_PLACEMENT_3D('',#392,#326,#327);
#259=AXIS2_PLACEMENT_3D('',#393,#328,#329);
#260=AXIS2_PLACEMENT_3D('',#394,#330,#331);
#261=DIRECTION('axis',(0.,0.,1.));
#262=DIRECTION('refdir',(1.,0.,0.));
#263=DIRECTION('axis',(0.,0.,1.));
#264=DIRECTION('refdir',(1.,0.,0.));
#265=DIRECTION('center_axis',(0.,0.,1.));
#266=DIRECTION('ref_axis',(1.,0.,0.));
#267=DIRECTION('center_axis',(0.,2.53765262771464E-15,1.));
#268=DIRECTION('ref_axis',(1.,0.,0.));
#269=DIRECTION('center_axis',(0.,-1.,0.));
#270=DIRECTION('ref_axis',(-1.,0.,0.));
#271=DIRECTION('center_axis',(0.,2.53765262771464E-15,1.));
#272=DIRECTION('ref_axis',(1.,-1.29533810380789E-30,0.));
#273=DIRECTION('',(0.,-2.53765262771464E-15,-1.));
#274=DIRECTION('center_axis',(5.10447367642451E-16,-1.98068972494487E-15,
-1.));
#275=DIRECTION('ref_axis',(1.,-1.29533810380789E-30,0.));
#276=DIRECTION('center_axis',(0.,0.,-1.));
#277=DIRECTION('ref_axis',(-0.707106781186548,-0.707106781186548,0.));
#278=DIRECTION('center_axis',(0.,0.,1.));
#279=DIRECTION('ref_axis',(-0.707106781186548,-0.707106781186548,0.));
#280=DIRECTION('',(0.,0.,1.));
#281=DIRECTION('center_axis',(5.10447367642451E-16,-1.98068972494487E-15,
-1.));
#282=DIRECTION('ref_axis',(-0.707106781186548,-0.707106781186548,0.));
#283=DIRECTION('',(0.,0.,-1.));
#284=DIRECTION('center_axis',(-1.,1.01103785621456E-30,0.));
#285=DIRECTION('ref_axis',(1.01103785621456E-30,1.,-1.98068972494487E-15));
#286=DIRECTION('',(1.01103785621456E-30,1.,-1.98068972494487E-15));
#287=DIRECTION('',(0.,0.,1.));
#288=DIRECTION('',(1.01103785621456E-30,1.,-1.98068972494487E-15));
#289=DIRECTION('center_axis',(5.10447367642451E-16,-1.98068972494487E-15,
-1.));
#290=DIRECTION('ref_axis',(1.,0.,5.10447367642451E-16));
#291=DIRECTION('',(-1.,0.,-5.10447367642451E-16));
#292=DIRECTION('center_axis',(5.10447367642451E-16,-1.98068972494487E-15,
-1.));
#293=DIRECTION('ref_axis',(0.707106781186548,-0.707106781186548,0.));
#294=DIRECTION('',(-1.01103785621456E-30,-1.,1.98068972494487E-15));
#295=DIRECTION('center_axis',(5.10447367642451E-16,-1.98068972494487E-15,
-1.));
#296=DIRECTION('ref_axis',(0.707106781186548,0.707106781186548,0.));
#297=DIRECTION('',(1.,0.,5.10447367642451E-16));
#298=DIRECTION('center_axis',(5.10447367642451E-16,-1.98068972494487E-15,
-1.));
#299=DIRECTION('ref_axis',(-0.707106781186548,0.707106781186548,0.));
#300=DIRECTION('center_axis',(0.,0.,-1.));
#301=DIRECTION('ref_axis',(-0.707106781186548,0.707106781186548,0.));
#302=DIRECTION('center_axis',(0.,0.,1.));
#303=DIRECTION('ref_axis',(-0.707106781186548,0.707106781186548,0.));
#304=DIRECTION('',(0.,0.,-1.));
#305=DIRECTION('center_axis',(0.,1.,0.));
#306=DIRECTION('ref_axis',(1.,0.,5.10447367642451E-16));
#307=DIRECTION('',(0.,0.,1.));
#308=DIRECTION('',(1.,0.,5.10447367642451E-16));
#309=DIRECTION('center_axis',(0.,0.,-1.));
#310=DIRECTION('ref_axis',(0.707106781186548,0.707106781186548,0.));
#311=DIRECTION('center_axis',(0.,0.,1.));
#312=DIRECTION('ref_axis',(0.707106781186548,0.707106781186548,0.));
#313=DIRECTION('',(0.,0.,-1.));
#314=DIRECTION('center_axis',(1.,-1.01103785621456E-30,0.));
#315=DIRECTION('ref_axis',(-1.01103785621456E-30,-1.,1.98068972494487E-15));
#316=DIRECTION('',(0.,0.,1.));
#317=DIRECTION('',(-1.01103785621456E-30,-1.,1.98068972494487E-15));
#318=DIRECTION('center_axis',(0.,0.,-1.));
#319=DIRECTION('ref_axis',(0.707106781186548,-0.707106781186548,0.));
#320=DIRECTION('center_axis',(0.,0.,1.));
#321=DIRECTION('ref_axis',(0.707106781186548,-0.707106781186548,0.));
#322=DIRECTION('',(0.,0.,-1.));
#323=DIRECTION('center_axis',(0.,-1.,0.));
#324=DIRECTION('ref_axis',(-1.,0.,-5.10447367642451E-16));
#325=DIRECTION('',(-1.,0.,-5.10447367642451E-16));
#326=DIRECTION('center_axis',(0.,0.,-1.));
#327=DIRECTION('ref_axis',(-1.,0.,0.));
#328=DIRECTION('',(-5.53341698952802E-16,3.00718007291496E-15,1.));
#329=DIRECTION('',(1.,7.77156117237606E-16,-2.77555756156289E-15));
#330=DIRECTION('center_axis',(0.,0.,1.));
#331=DIRECTION('ref_axis',(1.,0.,0.));
#332=CARTESIAN_POINT('',(0.,0.,0.));
#333=CARTESIAN_POINT('',(0.,0.,0.));
#334=CARTESIAN_POINT('Origin',(45.5999999999691,42.4999999999921,-29.8999999999999));
#335=CARTESIAN_POINT('',(44.3999999999691,42.4999999999921,-29.8999999999999));
#336=CARTESIAN_POINT('Origin',(45.5999999999691,42.4999999999921,-29.8999999999999));
#337=CARTESIAN_POINT('',(45.5999999999691,42.4999999999921,-28.6999999999999));
#338=CARTESIAN_POINT('Origin',(45.5999999999691,42.4999999999921,-29.8999999999999));
#339=CARTESIAN_POINT('Origin',(45.5999999999691,42.4999999999921,-35.6999999999999));
#340=CARTESIAN_POINT('',(44.3999999999691,42.4999999999921,-35.6999999999999));
#341=CARTESIAN_POINT('',(44.3999999999691,42.4999999999921,-35.6999999999999));
#342=CARTESIAN_POINT('Origin',(45.5999999999691,42.4999999999921,-35.6999999999999));
#343=CARTESIAN_POINT('Origin',(44.3499999999691,41.2499999999921,-35.6999999999999));
#344=CARTESIAN_POINT('',(43.3499999999691,41.2499999999921,-36.1999999999999));
#345=CARTESIAN_POINT('',(44.3499999999691,40.2499999999921,-36.1999999999998));
#346=CARTESIAN_POINT('Origin',(44.3499999999691,41.2499999999921,-36.1999999999999));
#347=CARTESIAN_POINT('',(44.3499999999691,40.2499999999921,-35.6999999999999));
#348=CARTESIAN_POINT('',(44.3499999999691,40.2499999999921,-35.6999999999999));
#349=CARTESIAN_POINT('',(43.3499999999691,41.2499999999921,-35.6999999999999));
#350=CARTESIAN_POINT('Origin',(44.3499999999691,41.2499999999921,-35.6999999999999));
#351=CARTESIAN_POINT('',(43.3499999999691,41.2499999999921,-35.6999999999999));
#352=CARTESIAN_POINT('Origin',(43.3499999999691,40.2499999999921,-35.6999999999999));
#353=CARTESIAN_POINT('',(43.3499999999691,43.7499999999921,-35.6999999999999));
#354=CARTESIAN_POINT('',(43.3499999999691,40.2499999999921,-35.6999999999999));
#355=CARTESIAN_POINT('',(43.3499999999691,43.7499999999921,-36.1999999999999));
#356=CARTESIAN_POINT('',(43.3499999999691,43.7499999999921,-35.6999999999999));
#357=CARTESIAN_POINT('',(43.3499999999691,40.2499999999921,-36.1999999999999));
#358=CARTESIAN_POINT('Origin',(45.5999999999691,42.4999999999921,-35.6999999999999));
#359=CARTESIAN_POINT('',(46.8499999999691,40.2499999999921,-35.6999999999999));
#360=CARTESIAN_POINT('',(47.8499999999691,40.2499999999921,-35.6999999999999));
#361=CARTESIAN_POINT('',(47.8499999999691,41.2499999999921,-35.6999999999999));
#362=CARTESIAN_POINT('Origin',(46.8499999999691,41.2499999999921,-35.6999999999999));
#363=CARTESIAN_POINT('',(47.8499999999691,43.7499999999921,-35.6999999999999));
#364=CARTESIAN_POINT('',(47.8499999999691,44.7499999999921,-35.6999999999999));
#365=CARTESIAN_POINT('',(46.8499999999691,44.7499999999921,-35.6999999999999));
#366=CARTESIAN_POINT('Origin',(46.8499999999691,43.7499999999921,-35.6999999999999));
#367=CARTESIAN_POINT('',(44.3499999999691,44.7499999999921,-35.6999999999999));
#368=CARTESIAN_POINT('',(43.3499999999691,44.7499999999921,-35.6999999999999));
#369=CARTESIAN_POINT('Origin',(44.3499999999691,43.7499999999921,-35.6999999999999));
#370=CARTESIAN_POINT('Origin',(44.3499999999691,43.7499999999921,-35.6999999999999));
#371=CARTESIAN_POINT('',(44.3499999999691,44.7499999999921,-36.1999999999999));
#372=CARTESIAN_POINT('Origin',(44.3499999999691,43.7499999999921,-36.1999999999999));
#373=CARTESIAN_POINT('',(44.3499999999691,44.7499999999921,-35.6999999999999));
#374=CARTESIAN_POINT('Origin',(43.3499999999691,44.7499999999921,-35.6999999999999));
#375=CARTESIAN_POINT('',(46.8499999999691,44.7499999999921,-36.1999999999999));
#376=CARTESIAN_POINT('',(46.8499999999691,44.7499999999921,-35.6999999999999));
#377=CARTESIAN_POINT('',(43.3499999999691,44.7499999999921,-36.1999999999999));
#378=CARTESIAN_POINT('Origin',(46.8499999999691,43.7499999999921,-35.6999999999999));
#379=CARTESIAN_POINT('',(47.8499999999691,43.7499999999921,-36.1999999999999));
#380=CARTESIAN_POINT('Origin',(46.8499999999691,43.7499999999921,-36.1999999999999));
#381=CARTESIAN_POINT('',(47.8499999999691,43.7499999999921,-35.6999999999999));
#382=CARTESIAN_POINT('Origin',(47.8499999999691,44.7499999999921,-35.6999999999999));
#383=CARTESIAN_POINT('',(47.8499999999691,41.2499999999921,-36.1999999999998));
#384=CARTESIAN_POINT('',(47.8499999999691,41.2499999999921,-35.6999999999999));
#385=CARTESIAN_POINT('',(47.8499999999691,44.7499999999921,-36.1999999999999));
#386=CARTESIAN_POINT('Origin',(46.8499999999691,41.2499999999921,-35.6999999999999));
#387=CARTESIAN_POINT('',(46.8499999999691,40.2499999999921,-36.1999999999998));
#388=CARTESIAN_POINT('Origin',(46.8499999999691,41.2499999999921,-36.1999999999999));
#389=CARTESIAN_POINT('',(46.8499999999691,40.2499999999921,-35.6999999999999));
#390=CARTESIAN_POINT('Origin',(47.8499999999691,40.2499999999921,-35.6999999999999));
#391=CARTESIAN_POINT('',(47.8499999999691,40.2499999999921,-36.1999999999998));
#392=CARTESIAN_POINT('Origin',(45.5999999999691,42.4999999999921,-36.1999999999999));
#393=CARTESIAN_POINT('',(-53.0220232579852,-50.3978115210672,42.9000000000001));
#394=CARTESIAN_POINT('Origin',(0.,0.,0.));
#395=UNCERTAINTY_MEASURE_WITH_UNIT(LENGTH_MEASURE(0.01),#401,
'DISTANCE_ACCURACY_VALUE',
'Maximum model space distance between geometric entities at asserted c
onnectivities');
#396=UNCERTAINTY_MEASURE_WITH_UNIT(LENGTH_MEASURE(0.01),#401,
'DISTANCE_ACCURACY_VALUE',
'Maximum model space distance between geometric entities at asserted c
onnectivities');
#397=UNCERTAINTY_MEASURE_WITH_UNIT(LENGTH_MEASURE(0.01),#401,
'DISTANCE_ACCURACY_VALUE',
'Maximum model space distance between geometric entities at asserted c
onnectivities');
#398=(
GEOMETRIC_REPRESENTATION_CONTEXT(3)
GLOBAL_UNCERTAINTY_ASSIGNED_CONTEXT((#395))
GLOBAL_UNIT_ASSIGNED_CONTEXT((#401,#403,#404))
REPRESENTATION_CONTEXT('','3D')
);
#399=(
GEOMETRIC_REPRESENTATION_CONTEXT(3)
GLOBAL_UNCERTAINTY_ASSIGNED_CONTEXT((#396))
GLOBAL_UNIT_ASSIGNED_CONTEXT((#401,#403,#404))
REPRESENTATION_CONTEXT('','3D')
);
#400=(
GEOMETRIC_REPRESENTATION_CONTEXT(3)
GLOBAL_UNCERTAINTY_ASSIGNED_CONTEXT((#397))
GLOBAL_UNIT_ASSIGNED_CONTEXT((#401,#403,#404))
REPRESENTATION_CONTEXT('','3D')
);
#401=(
LENGTH_UNIT()
NAMED_UNIT(*)
SI_UNIT(.MILLI.,.METRE.)
);
#402=(
LENGTH_UNIT()
NAMED_UNIT(*)
SI_UNIT($,.METRE.)
);
#403=(
NAMED_UNIT(*)
PLANE_ANGLE_UNIT()
SI_UNIT($,.RADIAN.)
);
#404=(
NAMED_UNIT(*)
SI_UNIT($,.STERADIAN.)
SOLID_ANGLE_UNIT()
);
#405=SHAPE_DEFINITION_REPRESENTATION(#407,#410);
#406=SHAPE_DEFINITION_REPRESENTATION(#408,#411);
#407=PRODUCT_DEFINITION_SHAPE('',$,#413);
#408=PRODUCT_DEFINITION_SHAPE('',$,#414);
#409=PRODUCT_DEFINITION_SHAPE($,$,#17);
#410=SHAPE_REPRESENTATION('',(#234,#259),#398);
#411=SHAPE_REPRESENTATION('',(#235),#399);
#412=PRODUCT_DEFINITION_CONTEXT('part definition',#420,'design');
#413=PRODUCT_DEFINITION('2026-09-10-23-11-46-037','PRINT_LAYOUT',#415,#412);
#414=PRODUCT_DEFINITION('2026-09-10-23-11-46-036','LampButton',#416,#412);
#415=PRODUCT_DEFINITION_FORMATION('',$,#422);
#416=PRODUCT_DEFINITION_FORMATION('',$,#423);
#417=PRODUCT_RELATED_PRODUCT_CATEGORY('PRINT_LAYOUT','PRINT_LAYOUT',(#422));
#418=PRODUCT_RELATED_PRODUCT_CATEGORY('LampButton','LampButton',(#423));
#419=APPLICATION_PROTOCOL_DEFINITION('international standard',
'automotive_design',2009,#420);
#420=APPLICATION_CONTEXT(
'Core Data for Automotive Mechanical Design Process');
#421=PRODUCT_CONTEXT('part definition',#420,'mechanical');
#422=PRODUCT('2026-09-10-23-11-46-037','PRINT_LAYOUT',$,(#421));
#423=PRODUCT('2026-09-10-23-11-46-036','LampButton',$,(#421));
#424=PRESENTATION_STYLE_ASSIGNMENT((#428));
#425=PRESENTATION_STYLE_ASSIGNMENT((#429));
#426=PRESENTATION_STYLE_ASSIGNMENT((#430));
#427=PRESENTATION_STYLE_ASSIGNMENT((NULL_STYLE(.NULL.)));
#428=SURFACE_STYLE_USAGE(.BOTH.,#431);
#429=SURFACE_STYLE_USAGE(.BOTH.,#432);
#430=SURFACE_STYLE_USAGE(.BOTH.,#433);
#431=SURFACE_SIDE_STYLE('',(#434));
#432=SURFACE_SIDE_STYLE('',(#435));
#433=SURFACE_SIDE_STYLE('',(#436));
#434=SURFACE_STYLE_FILL_AREA(#437);
#435=SURFACE_STYLE_FILL_AREA(#438);
#436=SURFACE_STYLE_FILL_AREA(#439);
#437=FILL_AREA_STYLE('Plastic - Matte (Black)',(#440));
#438=FILL_AREA_STYLE('Steel - Satin',(#441));
#439=FILL_AREA_STYLE('Brass - Old',(#442));
#440=FILL_AREA_STYLE_COLOUR('Plastic - Matte (Black)',#443);
#441=FILL_AREA_STYLE_COLOUR('Steel - Satin',#444);
#442=FILL_AREA_STYLE_COLOUR('Brass - Old',#445);
#443=COLOUR_RGB('Plastic - Matte (Black)',0.0980392156862745,0.0980392156862745,
0.0980392156862745);
#444=COLOUR_RGB('Steel - Satin',0.627450980392157,0.627450980392157,0.627450980392157);
#445=COLOUR_RGB('Brass - Old',0.,0.,0.);
ENDSEC;
END-ISO-10303-21;
