ISO-10303-21;
HEADER;
/* Generated by software containing ST-Developer
 * from STEP Tools, Inc. (www.steptools.com) 
 */

FILE_DESCRIPTION(
/* description */ (''),
/* implementation_level */ '2;1');

FILE_NAME(
/* name */ 'Neck.step',
/* time_stamp */ '2026-09-12T16:20:44+02:00',
/* author */ (''),
/* organization */ (''),
/* preprocessor_version */ 'ST-DEVELOPER v20.2',
/* originating_system */ 'Autodesk Translation Framework v15.15.0.0',
/* authorisation */ '');

FILE_SCHEMA (('AUTOMOTIVE_DESIGN { 1 0 10303 214 3 1 1 }'));
ENDSEC;

DATA;
#10=MECHANICAL_DESIGN_GEOMETRIC_PRESENTATION_REPRESENTATION('',(#17),#1214);
#11=ITEM_DEFINED_TRANSFORMATION($,$,#746,#803);
#12=(
REPRESENTATION_RELATIONSHIP($,$,#1225,#1224)
REPRESENTATION_RELATIONSHIP_WITH_TRANSFORMATION(#11)
SHAPE_REPRESENTATION_RELATIONSHIP()
);
#13=CONTEXT_DEPENDENT_SHAPE_REPRESENTATION(#12,#1223);
#14=NEXT_ASSEMBLY_USAGE_OCCURRENCE('Neck:1','Neck:1','Neck:1',#1227,#1228,
'Neck:1');
#15=SHAPE_REPRESENTATION_RELATIONSHIP('SRR','None',#1225,#16);
#16=ADVANCED_BREP_SHAPE_REPRESENTATION('',(#18),#1213);
#17=STYLED_ITEM('',(#1238),#18);
#18=MANIFOLD_SOLID_BREP('Body1',#732);
#19=FACE_BOUND('',#97,.T.);
#20=FACE_BOUND('',#101,.T.);
#21=FACE_BOUND('',#104,.T.);
#22=FACE_BOUND('',#107,.T.);
#23=FACE_BOUND('',#109,.T.);
#24=FACE_BOUND('',#112,.T.);
#25=FACE_BOUND('',#122,.T.);
#26=FACE_BOUND('',#131,.T.);
#27=FACE_BOUND('',#140,.T.);
#28=PLANE('',#750);
#29=PLANE('',#751);
#30=PLANE('',#757);
#31=PLANE('',#762);
#32=PLANE('',#766);
#33=PLANE('',#768);
#34=PLANE('',#772);
#35=PLANE('',#777);
#36=PLANE('',#778);
#37=PLANE('',#779);
#38=PLANE('',#780);
#39=PLANE('',#781);
#40=PLANE('',#782);
#41=PLANE('',#783);
#42=PLANE('',#786);
#43=PLANE('',#787);
#44=PLANE('',#788);
#45=PLANE('',#789);
#46=PLANE('',#790);
#47=PLANE('',#791);
#48=PLANE('',#792);
#49=PLANE('',#795);
#50=PLANE('',#796);
#51=PLANE('',#797);
#52=PLANE('',#798);
#53=PLANE('',#799);
#54=PLANE('',#800);
#55=PLANE('',#801);
#56=PLANE('',#802);
#57=FACE_OUTER_BOUND('',#95,.T.);
#58=FACE_OUTER_BOUND('',#96,.T.);
#59=FACE_OUTER_BOUND('',#98,.T.);
#60=FACE_OUTER_BOUND('',#99,.T.);
#61=FACE_OUTER_BOUND('',#100,.T.);
#62=FACE_OUTER_BOUND('',#102,.T.);
#63=FACE_OUTER_BOUND('',#103,.T.);
#64=FACE_OUTER_BOUND('',#105,.T.);
#65=FACE_OUTER_BOUND('',#106,.T.);
#66=FACE_OUTER_BOUND('',#108,.T.);
#67=FACE_OUTER_BOUND('',#110,.T.);
#68=FACE_OUTER_BOUND('',#111,.T.);
#69=FACE_OUTER_BOUND('',#113,.T.);
#70=FACE_OUTER_BOUND('',#114,.T.);
#71=FACE_OUTER_BOUND('',#115,.T.);
#72=FACE_OUTER_BOUND('',#116,.T.);
#73=FACE_OUTER_BOUND('',#117,.T.);
#74=FACE_OUTER_BOUND('',#118,.T.);
#75=FACE_OUTER_BOUND('',#119,.T.);
#76=FACE_OUTER_BOUND('',#120,.T.);
#77=FACE_OUTER_BOUND('',#121,.T.);
#78=FACE_OUTER_BOUND('',#123,.T.);
#79=FACE_OUTER_BOUND('',#124,.T.);
#80=FACE_OUTER_BOUND('',#125,.T.);
#81=FACE_OUTER_BOUND('',#126,.T.);
#82=FACE_OUTER_BOUND('',#127,.T.);
#83=FACE_OUTER_BOUND('',#128,.T.);
#84=FACE_OUTER_BOUND('',#129,.T.);
#85=FACE_OUTER_BOUND('',#130,.T.);
#86=FACE_OUTER_BOUND('',#132,.T.);
#87=FACE_OUTER_BOUND('',#133,.T.);
#88=FACE_OUTER_BOUND('',#134,.T.);
#89=FACE_OUTER_BOUND('',#135,.T.);
#90=FACE_OUTER_BOUND('',#136,.T.);
#91=FACE_OUTER_BOUND('',#137,.T.);
#92=FACE_OUTER_BOUND('',#138,.T.);
#93=FACE_OUTER_BOUND('',#139,.T.);
#94=FACE_OUTER_BOUND('',#141,.T.);
#95=EDGE_LOOP('',(#487,#488,#489,#490));
#96=EDGE_LOOP('',(#491,#492,#493,#494));
#97=EDGE_LOOP('',(#495,#496,#497,#498,#499,#500));
#98=EDGE_LOOP('',(#501,#502,#503,#504,#505,#506,#507,#508,#509,#510,#511,
#512));
#99=EDGE_LOOP('',(#513,#514,#515,#516));
#100=EDGE_LOOP('',(#517,#518,#519,#520));
#101=EDGE_LOOP('',(#521));
#102=EDGE_LOOP('',(#522,#523,#524,#525));
#103=EDGE_LOOP('',(#526,#527,#528,#529));
#104=EDGE_LOOP('',(#530,#531,#532,#533,#534,#535));
#105=EDGE_LOOP('',(#536,#537,#538,#539));
#106=EDGE_LOOP('',(#540,#541,#542,#543));
#107=EDGE_LOOP('',(#544));
#108=EDGE_LOOP('',(#545,#546,#547,#548));
#109=EDGE_LOOP('',(#549));
#110=EDGE_LOOP('',(#550,#551,#552,#553));
#111=EDGE_LOOP('',(#554,#555,#556,#557));
#112=EDGE_LOOP('',(#558,#559,#560,#561,#562,#563));
#113=EDGE_LOOP('',(#564,#565,#566,#567));
#114=EDGE_LOOP('',(#568,#569,#570,#571));
#115=EDGE_LOOP('',(#572,#573,#574,#575));
#116=EDGE_LOOP('',(#576,#577,#578,#579));
#117=EDGE_LOOP('',(#580,#581,#582,#583));
#118=EDGE_LOOP('',(#584,#585,#586,#587));
#119=EDGE_LOOP('',(#588,#589,#590,#591));
#120=EDGE_LOOP('',(#592,#593,#594,#595));
#121=EDGE_LOOP('',(#596,#597,#598,#599,#600,#601));
#122=EDGE_LOOP('',(#602));
#123=EDGE_LOOP('',(#603,#604,#605,#606));
#124=EDGE_LOOP('',(#607,#608,#609,#610));
#125=EDGE_LOOP('',(#611,#612,#613,#614));
#126=EDGE_LOOP('',(#615,#616,#617,#618));
#127=EDGE_LOOP('',(#619,#620,#621,#622));
#128=EDGE_LOOP('',(#623,#624,#625,#626));
#129=EDGE_LOOP('',(#627,#628,#629,#630));
#130=EDGE_LOOP('',(#631,#632,#633,#634,#635,#636));
#131=EDGE_LOOP('',(#637));
#132=EDGE_LOOP('',(#638,#639,#640,#641));
#133=EDGE_LOOP('',(#642,#643,#644,#645));
#134=EDGE_LOOP('',(#646,#647,#648,#649));
#135=EDGE_LOOP('',(#650,#651,#652,#653));
#136=EDGE_LOOP('',(#654,#655,#656,#657));
#137=EDGE_LOOP('',(#658,#659,#660,#661));
#138=EDGE_LOOP('',(#662,#663,#664,#665));
#139=EDGE_LOOP('',(#666,#667,#668,#669,#670,#671));
#140=EDGE_LOOP('',(#672));
#141=EDGE_LOOP('',(#673,#674,#675,#676,#677,#678,#679,#680,#681,#682,#683,
#684));
#142=LINE('',#1010,#223);
#143=LINE('',#1013,#224);
#144=LINE('',#1016,#225);
#145=LINE('',#1018,#226);
#146=LINE('',#1019,#227);
#147=LINE('',#1022,#228);
#148=LINE('',#1024,#229);
#149=LINE('',#1026,#230);
#150=LINE('',#1028,#231);
#151=LINE('',#1030,#232);
#152=LINE('',#1031,#233);
#153=LINE('',#1034,#234);
#154=LINE('',#1036,#235);
#155=LINE('',#1038,#236);
#156=LINE('',#1042,#237);
#157=LINE('',#1046,#238);
#158=LINE('',#1048,#239);
#159=LINE('',#1050,#240);
#160=LINE('',#1055,#241);
#161=LINE('',#1059,#242);
#162=LINE('',#1064,#243);
#163=LINE('',#1067,#244);
#164=LINE('',#1071,#245);
#165=LINE('',#1074,#246);
#166=LINE('',#1076,#247);
#167=LINE('',#1078,#248);
#168=LINE('',#1080,#249);
#169=LINE('',#1082,#250);
#170=LINE('',#1083,#251);
#171=LINE('',#1086,#252);
#172=LINE('',#1089,#253);
#173=LINE('',#1091,#254);
#174=LINE('',#1096,#255);
#175=LINE('',#1101,#256);
#176=LINE('',#1104,#257);
#177=LINE('',#1108,#258);
#178=LINE('',#1110,#259);
#179=LINE('',#1112,#260);
#180=LINE('',#1114,#261);
#181=LINE('',#1116,#262);
#182=LINE('',#1117,#263);
#183=LINE('',#1119,#264);
#184=LINE('',#1122,#265);
#185=LINE('',#1126,#266);
#186=LINE('',#1128,#267);
#187=LINE('',#1129,#268);
#188=LINE('',#1132,#269);
#189=LINE('',#1133,#270);
#190=LINE('',#1136,#271);
#191=LINE('',#1137,#272);
#192=LINE('',#1140,#273);
#193=LINE('',#1141,#274);
#194=LINE('',#1144,#275);
#195=LINE('',#1145,#276);
#196=LINE('',#1147,#277);
#197=LINE('',#1151,#278);
#198=LINE('',#1155,#279);
#199=LINE('',#1157,#280);
#200=LINE('',#1158,#281);
#201=LINE('',#1161,#282);
#202=LINE('',#1162,#283);
#203=LINE('',#1165,#284);
#204=LINE('',#1166,#285);
#205=LINE('',#1169,#286);
#206=LINE('',#1170,#287);
#207=LINE('',#1173,#288);
#208=LINE('',#1174,#289);
#209=LINE('',#1176,#290);
#210=LINE('',#1181,#291);
#211=LINE('',#1185,#292);
#212=LINE('',#1186,#293);
#213=LINE('',#1187,#294);
#214=LINE('',#1190,#295);
#215=LINE('',#1191,#296);
#216=LINE('',#1194,#297);
#217=LINE('',#1195,#298);
#218=LINE('',#1198,#299);
#219=LINE('',#1199,#300);
#220=LINE('',#1202,#301);
#221=LINE('',#1203,#302);
#222=LINE('',#1205,#303);
#223=VECTOR('',#812,10.);
#224=VECTOR('',#815,10.);
#225=VECTOR('',#818,10.);
#226=VECTOR('',#819,10.);
#227=VECTOR('',#820,10.);
#228=VECTOR('',#821,10.);
#229=VECTOR('',#822,10.);
#230=VECTOR('',#823,10.);
#231=VECTOR('',#824,10.);
#232=VECTOR('',#825,10.);
#233=VECTOR('',#826,10.);
#234=VECTOR('',#829,10.);
#235=VECTOR('',#830,10.);
#236=VECTOR('',#831,10.);
#237=VECTOR('',#834,10.);
#238=VECTOR('',#837,10.);
#239=VECTOR('',#838,10.);
#240=VECTOR('',#839,10.);
#241=VECTOR('',#846,10.);
#242=VECTOR('',#851,10.);
#243=VECTOR('',#856,10.);
#244=VECTOR('',#859,10.);
#245=VECTOR('',#864,10.);
#246=VECTOR('',#865,10.);
#247=VECTOR('',#866,10.);
#248=VECTOR('',#867,10.);
#249=VECTOR('',#868,10.);
#250=VECTOR('',#869,10.);
#251=VECTOR('',#870,10.);
#252=VECTOR('',#873,10.);
#253=VECTOR('',#876,10.);
#254=VECTOR('',#879,10.);
#255=VECTOR('',#884,10.);
#256=VECTOR('',#891,10.);
#257=VECTOR('',#894,10.);
#258=VECTOR('',#897,10.);
#259=VECTOR('',#898,10.);
#260=VECTOR('',#899,10.);
#261=VECTOR('',#900,10.);
#262=VECTOR('',#901,10.);
#263=VECTOR('',#902,10.);
#264=VECTOR('',#905,10.);
#265=VECTOR('',#908,0.8);
#266=VECTOR('',#913,10.);
#267=VECTOR('',#914,10.);
#268=VECTOR('',#915,10.);
#269=VECTOR('',#918,10.);
#270=VECTOR('',#919,10.);
#271=VECTOR('',#922,10.);
#272=VECTOR('',#923,10.);
#273=VECTOR('',#926,10.);
#274=VECTOR('',#927,10.);
#275=VECTOR('',#930,10.);
#276=VECTOR('',#931,10.);
#277=VECTOR('',#934,10.);
#278=VECTOR('',#939,1.1);
#279=VECTOR('',#944,10.);
#280=VECTOR('',#945,10.);
#281=VECTOR('',#946,10.);
#282=VECTOR('',#949,10.);
#283=VECTOR('',#950,10.);
#284=VECTOR('',#953,10.);
#285=VECTOR('',#954,10.);
#286=VECTOR('',#957,10.);
#287=VECTOR('',#958,10.);
#288=VECTOR('',#961,10.);
#289=VECTOR('',#962,10.);
#290=VECTOR('',#965,10.);
#291=VECTOR('',#972,0.800000000000001);
#292=VECTOR('',#975,10.);
#293=VECTOR('',#976,10.);
#294=VECTOR('',#977,10.);
#295=VECTOR('',#980,10.);
#296=VECTOR('',#981,10.);
#297=VECTOR('',#984,10.);
#298=VECTOR('',#985,10.);
#299=VECTOR('',#988,10.);
#300=VECTOR('',#989,10.);
#301=VECTOR('',#992,10.);
#302=VECTOR('',#993,10.);
#303=VECTOR('',#996,10.);
#304=CIRCLE('',#748,7.8);
#305=CIRCLE('',#749,7.8);
#306=CIRCLE('',#752,3.9);
#307=CIRCLE('',#753,3.9);
#308=CIRCLE('',#754,7.8);
#309=CIRCLE('',#756,7.8);
#310=CIRCLE('',#758,3.9);
#311=CIRCLE('',#759,0.8);
#312=CIRCLE('',#761,3.9);
#313=CIRCLE('',#763,3.9);
#314=CIRCLE('',#765,3.9);
#315=CIRCLE('',#767,0.800000000000001);
#316=CIRCLE('',#769,3.9);
#317=CIRCLE('',#770,1.1);
#318=CIRCLE('',#773,3.9);
#319=CIRCLE('',#776,0.8);
#320=CIRCLE('',#785,1.1);
#321=CIRCLE('',#794,0.800000000000001);
#322=VERTEX_POINT('',#1006);
#323=VERTEX_POINT('',#1007);
#324=VERTEX_POINT('',#1009);
#325=VERTEX_POINT('',#1011);
#326=VERTEX_POINT('',#1015);
#327=VERTEX_POINT('',#1017);
#328=VERTEX_POINT('',#1020);
#329=VERTEX_POINT('',#1021);
#330=VERTEX_POINT('',#1023);
#331=VERTEX_POINT('',#1025);
#332=VERTEX_POINT('',#1027);
#333=VERTEX_POINT('',#1029);
#334=VERTEX_POINT('',#1033);
#335=VERTEX_POINT('',#1035);
#336=VERTEX_POINT('',#1037);
#337=VERTEX_POINT('',#1039);
#338=VERTEX_POINT('',#1041);
#339=VERTEX_POINT('',#1043);
#340=VERTEX_POINT('',#1045);
#341=VERTEX_POINT('',#1047);
#342=VERTEX_POINT('',#1049);
#343=VERTEX_POINT('',#1053);
#344=VERTEX_POINT('',#1057);
#345=VERTEX_POINT('',#1060);
#346=VERTEX_POINT('',#1063);
#347=VERTEX_POINT('',#1065);
#348=VERTEX_POINT('',#1069);
#349=VERTEX_POINT('',#1072);
#350=VERTEX_POINT('',#1073);
#351=VERTEX_POINT('',#1075);
#352=VERTEX_POINT('',#1077);
#353=VERTEX_POINT('',#1079);
#354=VERTEX_POINT('',#1081);
#355=VERTEX_POINT('',#1085);
#356=VERTEX_POINT('',#1087);
#357=VERTEX_POINT('',#1092);
#358=VERTEX_POINT('',#1095);
#359=VERTEX_POINT('',#1098);
#360=VERTEX_POINT('',#1103);
#361=VERTEX_POINT('',#1106);
#362=VERTEX_POINT('',#1107);
#363=VERTEX_POINT('',#1109);
#364=VERTEX_POINT('',#1111);
#365=VERTEX_POINT('',#1113);
#366=VERTEX_POINT('',#1115);
#367=VERTEX_POINT('',#1121);
#368=VERTEX_POINT('',#1125);
#369=VERTEX_POINT('',#1127);
#370=VERTEX_POINT('',#1131);
#371=VERTEX_POINT('',#1135);
#372=VERTEX_POINT('',#1139);
#373=VERTEX_POINT('',#1143);
#374=VERTEX_POINT('',#1150);
#375=VERTEX_POINT('',#1154);
#376=VERTEX_POINT('',#1156);
#377=VERTEX_POINT('',#1160);
#378=VERTEX_POINT('',#1164);
#379=VERTEX_POINT('',#1168);
#380=VERTEX_POINT('',#1172);
#381=VERTEX_POINT('',#1179);
#382=VERTEX_POINT('',#1183);
#383=VERTEX_POINT('',#1184);
#384=VERTEX_POINT('',#1189);
#385=VERTEX_POINT('',#1193);
#386=VERTEX_POINT('',#1197);
#387=VERTEX_POINT('',#1201);
#388=EDGE_CURVE('',#322,#323,#304,.T.);
#389=EDGE_CURVE('',#323,#324,#142,.T.);
#390=EDGE_CURVE('',#324,#325,#305,.T.);
#391=EDGE_CURVE('',#325,#322,#143,.T.);
#392=EDGE_CURVE('',#326,#325,#144,.T.);
#393=EDGE_CURVE('',#327,#326,#145,.T.);
#394=EDGE_CURVE('',#322,#327,#146,.T.);
#395=EDGE_CURVE('',#328,#329,#147,.T.);
#396=EDGE_CURVE('',#329,#330,#148,.T.);
#397=EDGE_CURVE('',#330,#331,#149,.T.);
#398=EDGE_CURVE('',#331,#332,#150,.T.);
#399=EDGE_CURVE('',#332,#333,#151,.T.);
#400=EDGE_CURVE('',#333,#328,#152,.T.);
#401=EDGE_CURVE('',#324,#334,#153,.T.);
#402=EDGE_CURVE('',#335,#334,#154,.T.);
#403=EDGE_CURVE('',#335,#336,#155,.T.);
#404=EDGE_CURVE('',#337,#336,#306,.T.);
#405=EDGE_CURVE('',#337,#338,#156,.T.);
#406=EDGE_CURVE('',#339,#338,#307,.T.);
#407=EDGE_CURVE('',#339,#340,#157,.T.);
#408=EDGE_CURVE('',#341,#340,#158,.T.);
#409=EDGE_CURVE('',#341,#342,#159,.T.);
#410=EDGE_CURVE('',#326,#342,#308,.T.);
#411=EDGE_CURVE('',#343,#327,#309,.T.);
#412=EDGE_CURVE('',#342,#343,#160,.T.);
#413=EDGE_CURVE('',#344,#341,#310,.T.);
#414=EDGE_CURVE('',#343,#344,#161,.T.);
#415=EDGE_CURVE('',#345,#345,#311,.T.);
#416=EDGE_CURVE('',#336,#346,#162,.T.);
#417=EDGE_CURVE('',#346,#347,#312,.T.);
#418=EDGE_CURVE('',#347,#337,#163,.T.);
#419=EDGE_CURVE('',#348,#335,#313,.T.);
#420=EDGE_CURVE('',#346,#348,#164,.T.);
#421=EDGE_CURVE('',#349,#350,#165,.T.);
#422=EDGE_CURVE('',#350,#351,#166,.T.);
#423=EDGE_CURVE('',#351,#352,#167,.T.);
#424=EDGE_CURVE('',#352,#353,#168,.T.);
#425=EDGE_CURVE('',#353,#354,#169,.T.);
#426=EDGE_CURVE('',#354,#349,#170,.T.);
#427=EDGE_CURVE('',#338,#355,#171,.T.);
#428=EDGE_CURVE('',#355,#356,#314,.T.);
#429=EDGE_CURVE('',#356,#339,#172,.T.);
#430=EDGE_CURVE('',#355,#347,#173,.T.);
#431=EDGE_CURVE('',#357,#357,#315,.T.);
#432=EDGE_CURVE('',#358,#323,#174,.T.);
#433=EDGE_CURVE('',#334,#358,#316,.T.);
#434=EDGE_CURVE('',#359,#359,#317,.T.);
#435=EDGE_CURVE('',#358,#348,#175,.T.);
#436=EDGE_CURVE('',#360,#356,#176,.T.);
#437=EDGE_CURVE('',#340,#360,#318,.T.);
#438=EDGE_CURVE('',#361,#362,#177,.T.);
#439=EDGE_CURVE('',#362,#363,#178,.T.);
#440=EDGE_CURVE('',#363,#364,#179,.T.);
#441=EDGE_CURVE('',#364,#365,#180,.T.);
#442=EDGE_CURVE('',#365,#366,#181,.T.);
#443=EDGE_CURVE('',#366,#361,#182,.T.);
#444=EDGE_CURVE('',#360,#344,#183,.T.);
#445=EDGE_CURVE('',#345,#367,#184,.T.);
#446=EDGE_CURVE('',#367,#367,#319,.T.);
#447=EDGE_CURVE('',#368,#361,#185,.T.);
#448=EDGE_CURVE('',#368,#369,#186,.T.);
#449=EDGE_CURVE('',#369,#362,#187,.T.);
#450=EDGE_CURVE('',#369,#370,#188,.T.);
#451=EDGE_CURVE('',#370,#363,#189,.T.);
#452=EDGE_CURVE('',#370,#371,#190,.T.);
#453=EDGE_CURVE('',#371,#364,#191,.T.);
#454=EDGE_CURVE('',#371,#372,#192,.T.);
#455=EDGE_CURVE('',#372,#365,#193,.T.);
#456=EDGE_CURVE('',#372,#373,#194,.T.);
#457=EDGE_CURVE('',#373,#366,#195,.T.);
#458=EDGE_CURVE('',#373,#368,#196,.T.);
#459=EDGE_CURVE('',#359,#374,#197,.T.);
#460=EDGE_CURVE('',#374,#374,#320,.T.);
#461=EDGE_CURVE('',#349,#375,#198,.T.);
#462=EDGE_CURVE('',#375,#376,#199,.T.);
#463=EDGE_CURVE('',#350,#376,#200,.T.);
#464=EDGE_CURVE('',#354,#377,#201,.T.);
#465=EDGE_CURVE('',#377,#375,#202,.T.);
#466=EDGE_CURVE('',#353,#378,#203,.T.);
#467=EDGE_CURVE('',#378,#377,#204,.T.);
#468=EDGE_CURVE('',#352,#379,#205,.T.);
#469=EDGE_CURVE('',#379,#378,#206,.T.);
#470=EDGE_CURVE('',#351,#380,#207,.T.);
#471=EDGE_CURVE('',#380,#379,#208,.T.);
#472=EDGE_CURVE('',#376,#380,#209,.T.);
#473=EDGE_CURVE('',#381,#381,#321,.T.);
#474=EDGE_CURVE('',#381,#357,#210,.T.);
#475=EDGE_CURVE('',#382,#383,#211,.F.);
#476=EDGE_CURVE('',#329,#382,#212,.T.);
#477=EDGE_CURVE('',#328,#383,#213,.T.);
#478=EDGE_CURVE('',#383,#384,#214,.F.);
#479=EDGE_CURVE('',#333,#384,#215,.T.);
#480=EDGE_CURVE('',#384,#385,#216,.F.);
#481=EDGE_CURVE('',#332,#385,#217,.T.);
#482=EDGE_CURVE('',#385,#386,#218,.F.);
#483=EDGE_CURVE('',#331,#386,#219,.T.);
#484=EDGE_CURVE('',#386,#387,#220,.F.);
#485=EDGE_CURVE('',#330,#387,#221,.T.);
#486=EDGE_CURVE('',#387,#382,#222,.F.);
#487=ORIENTED_EDGE('',*,*,#388,.T.);
#488=ORIENTED_EDGE('',*,*,#389,.T.);
#489=ORIENTED_EDGE('',*,*,#390,.T.);
#490=ORIENTED_EDGE('',*,*,#391,.T.);
#491=ORIENTED_EDGE('',*,*,#391,.F.);
#492=ORIENTED_EDGE('',*,*,#392,.F.);
#493=ORIENTED_EDGE('',*,*,#393,.F.);
#494=ORIENTED_EDGE('',*,*,#394,.F.);
#495=ORIENTED_EDGE('',*,*,#395,.T.);
#496=ORIENTED_EDGE('',*,*,#396,.T.);
#497=ORIENTED_EDGE('',*,*,#397,.T.);
#498=ORIENTED_EDGE('',*,*,#398,.T.);
#499=ORIENTED_EDGE('',*,*,#399,.T.);
#500=ORIENTED_EDGE('',*,*,#400,.T.);
#501=ORIENTED_EDGE('',*,*,#390,.F.);
#502=ORIENTED_EDGE('',*,*,#401,.T.);
#503=ORIENTED_EDGE('',*,*,#402,.F.);
#504=ORIENTED_EDGE('',*,*,#403,.T.);
#505=ORIENTED_EDGE('',*,*,#404,.F.);
#506=ORIENTED_EDGE('',*,*,#405,.T.);
#507=ORIENTED_EDGE('',*,*,#406,.F.);
#508=ORIENTED_EDGE('',*,*,#407,.T.);
#509=ORIENTED_EDGE('',*,*,#408,.F.);
#510=ORIENTED_EDGE('',*,*,#409,.T.);
#511=ORIENTED_EDGE('',*,*,#410,.F.);
#512=ORIENTED_EDGE('',*,*,#392,.T.);
#513=ORIENTED_EDGE('',*,*,#411,.T.);
#514=ORIENTED_EDGE('',*,*,#393,.T.);
#515=ORIENTED_EDGE('',*,*,#410,.T.);
#516=ORIENTED_EDGE('',*,*,#412,.T.);
#517=ORIENTED_EDGE('',*,*,#412,.F.);
#518=ORIENTED_EDGE('',*,*,#409,.F.);
#519=ORIENTED_EDGE('',*,*,#413,.F.);
#520=ORIENTED_EDGE('',*,*,#414,.F.);
#521=ORIENTED_EDGE('',*,*,#415,.T.);
#522=ORIENTED_EDGE('',*,*,#404,.T.);
#523=ORIENTED_EDGE('',*,*,#416,.T.);
#524=ORIENTED_EDGE('',*,*,#417,.T.);
#525=ORIENTED_EDGE('',*,*,#418,.T.);
#526=ORIENTED_EDGE('',*,*,#416,.F.);
#527=ORIENTED_EDGE('',*,*,#403,.F.);
#528=ORIENTED_EDGE('',*,*,#419,.F.);
#529=ORIENTED_EDGE('',*,*,#420,.F.);
#530=ORIENTED_EDGE('',*,*,#421,.T.);
#531=ORIENTED_EDGE('',*,*,#422,.T.);
#532=ORIENTED_EDGE('',*,*,#423,.T.);
#533=ORIENTED_EDGE('',*,*,#424,.T.);
#534=ORIENTED_EDGE('',*,*,#425,.T.);
#535=ORIENTED_EDGE('',*,*,#426,.T.);
#536=ORIENTED_EDGE('',*,*,#406,.T.);
#537=ORIENTED_EDGE('',*,*,#427,.T.);
#538=ORIENTED_EDGE('',*,*,#428,.T.);
#539=ORIENTED_EDGE('',*,*,#429,.T.);
#540=ORIENTED_EDGE('',*,*,#418,.F.);
#541=ORIENTED_EDGE('',*,*,#430,.F.);
#542=ORIENTED_EDGE('',*,*,#427,.F.);
#543=ORIENTED_EDGE('',*,*,#405,.F.);
#544=ORIENTED_EDGE('',*,*,#431,.T.);
#545=ORIENTED_EDGE('',*,*,#389,.F.);
#546=ORIENTED_EDGE('',*,*,#432,.F.);
#547=ORIENTED_EDGE('',*,*,#433,.F.);
#548=ORIENTED_EDGE('',*,*,#401,.F.);
#549=ORIENTED_EDGE('',*,*,#434,.T.);
#550=ORIENTED_EDGE('',*,*,#433,.T.);
#551=ORIENTED_EDGE('',*,*,#435,.T.);
#552=ORIENTED_EDGE('',*,*,#419,.T.);
#553=ORIENTED_EDGE('',*,*,#402,.T.);
#554=ORIENTED_EDGE('',*,*,#429,.F.);
#555=ORIENTED_EDGE('',*,*,#436,.F.);
#556=ORIENTED_EDGE('',*,*,#437,.F.);
#557=ORIENTED_EDGE('',*,*,#407,.F.);
#558=ORIENTED_EDGE('',*,*,#438,.T.);
#559=ORIENTED_EDGE('',*,*,#439,.T.);
#560=ORIENTED_EDGE('',*,*,#440,.T.);
#561=ORIENTED_EDGE('',*,*,#441,.T.);
#562=ORIENTED_EDGE('',*,*,#442,.T.);
#563=ORIENTED_EDGE('',*,*,#443,.T.);
#564=ORIENTED_EDGE('',*,*,#413,.T.);
#565=ORIENTED_EDGE('',*,*,#408,.T.);
#566=ORIENTED_EDGE('',*,*,#437,.T.);
#567=ORIENTED_EDGE('',*,*,#444,.T.);
#568=ORIENTED_EDGE('',*,*,#415,.F.);
#569=ORIENTED_EDGE('',*,*,#445,.T.);
#570=ORIENTED_EDGE('',*,*,#446,.F.);
#571=ORIENTED_EDGE('',*,*,#445,.F.);
#572=ORIENTED_EDGE('',*,*,#438,.F.);
#573=ORIENTED_EDGE('',*,*,#447,.F.);
#574=ORIENTED_EDGE('',*,*,#448,.T.);
#575=ORIENTED_EDGE('',*,*,#449,.T.);
#576=ORIENTED_EDGE('',*,*,#439,.F.);
#577=ORIENTED_EDGE('',*,*,#449,.F.);
#578=ORIENTED_EDGE('',*,*,#450,.T.);
#579=ORIENTED_EDGE('',*,*,#451,.T.);
#580=ORIENTED_EDGE('',*,*,#440,.F.);
#581=ORIENTED_EDGE('',*,*,#451,.F.);
#582=ORIENTED_EDGE('',*,*,#452,.T.);
#583=ORIENTED_EDGE('',*,*,#453,.T.);
#584=ORIENTED_EDGE('',*,*,#441,.F.);
#585=ORIENTED_EDGE('',*,*,#453,.F.);
#586=ORIENTED_EDGE('',*,*,#454,.T.);
#587=ORIENTED_EDGE('',*,*,#455,.T.);
#588=ORIENTED_EDGE('',*,*,#442,.F.);
#589=ORIENTED_EDGE('',*,*,#455,.F.);
#590=ORIENTED_EDGE('',*,*,#456,.T.);
#591=ORIENTED_EDGE('',*,*,#457,.T.);
#592=ORIENTED_EDGE('',*,*,#443,.F.);
#593=ORIENTED_EDGE('',*,*,#457,.F.);
#594=ORIENTED_EDGE('',*,*,#458,.T.);
#595=ORIENTED_EDGE('',*,*,#447,.T.);
#596=ORIENTED_EDGE('',*,*,#452,.F.);
#597=ORIENTED_EDGE('',*,*,#450,.F.);
#598=ORIENTED_EDGE('',*,*,#448,.F.);
#599=ORIENTED_EDGE('',*,*,#458,.F.);
#600=ORIENTED_EDGE('',*,*,#456,.F.);
#601=ORIENTED_EDGE('',*,*,#454,.F.);
#602=ORIENTED_EDGE('',*,*,#446,.T.);
#603=ORIENTED_EDGE('',*,*,#434,.F.);
#604=ORIENTED_EDGE('',*,*,#459,.T.);
#605=ORIENTED_EDGE('',*,*,#460,.F.);
#606=ORIENTED_EDGE('',*,*,#459,.F.);
#607=ORIENTED_EDGE('',*,*,#421,.F.);
#608=ORIENTED_EDGE('',*,*,#461,.T.);
#609=ORIENTED_EDGE('',*,*,#462,.T.);
#610=ORIENTED_EDGE('',*,*,#463,.F.);
#611=ORIENTED_EDGE('',*,*,#426,.F.);
#612=ORIENTED_EDGE('',*,*,#464,.T.);
#613=ORIENTED_EDGE('',*,*,#465,.T.);
#614=ORIENTED_EDGE('',*,*,#461,.F.);
#615=ORIENTED_EDGE('',*,*,#425,.F.);
#616=ORIENTED_EDGE('',*,*,#466,.T.);
#617=ORIENTED_EDGE('',*,*,#467,.T.);
#618=ORIENTED_EDGE('',*,*,#464,.F.);
#619=ORIENTED_EDGE('',*,*,#424,.F.);
#620=ORIENTED_EDGE('',*,*,#468,.T.);
#621=ORIENTED_EDGE('',*,*,#469,.T.);
#622=ORIENTED_EDGE('',*,*,#466,.F.);
#623=ORIENTED_EDGE('',*,*,#423,.F.);
#624=ORIENTED_EDGE('',*,*,#470,.T.);
#625=ORIENTED_EDGE('',*,*,#471,.T.);
#626=ORIENTED_EDGE('',*,*,#468,.F.);
#627=ORIENTED_EDGE('',*,*,#422,.F.);
#628=ORIENTED_EDGE('',*,*,#463,.T.);
#629=ORIENTED_EDGE('',*,*,#472,.T.);
#630=ORIENTED_EDGE('',*,*,#470,.F.);
#631=ORIENTED_EDGE('',*,*,#472,.F.);
#632=ORIENTED_EDGE('',*,*,#462,.F.);
#633=ORIENTED_EDGE('',*,*,#465,.F.);
#634=ORIENTED_EDGE('',*,*,#467,.F.);
#635=ORIENTED_EDGE('',*,*,#469,.F.);
#636=ORIENTED_EDGE('',*,*,#471,.F.);
#637=ORIENTED_EDGE('',*,*,#460,.T.);
#638=ORIENTED_EDGE('',*,*,#473,.F.);
#639=ORIENTED_EDGE('',*,*,#474,.T.);
#640=ORIENTED_EDGE('',*,*,#431,.F.);
#641=ORIENTED_EDGE('',*,*,#474,.F.);
#642=ORIENTED_EDGE('',*,*,#475,.F.);
#643=ORIENTED_EDGE('',*,*,#476,.F.);
#644=ORIENTED_EDGE('',*,*,#395,.F.);
#645=ORIENTED_EDGE('',*,*,#477,.T.);
#646=ORIENTED_EDGE('',*,*,#478,.F.);
#647=ORIENTED_EDGE('',*,*,#477,.F.);
#648=ORIENTED_EDGE('',*,*,#400,.F.);
#649=ORIENTED_EDGE('',*,*,#479,.T.);
#650=ORIENTED_EDGE('',*,*,#480,.F.);
#651=ORIENTED_EDGE('',*,*,#479,.F.);
#652=ORIENTED_EDGE('',*,*,#399,.F.);
#653=ORIENTED_EDGE('',*,*,#481,.T.);
#654=ORIENTED_EDGE('',*,*,#482,.F.);
#655=ORIENTED_EDGE('',*,*,#481,.F.);
#656=ORIENTED_EDGE('',*,*,#398,.F.);
#657=ORIENTED_EDGE('',*,*,#483,.T.);
#658=ORIENTED_EDGE('',*,*,#484,.F.);
#659=ORIENTED_EDGE('',*,*,#483,.F.);
#660=ORIENTED_EDGE('',*,*,#397,.F.);
#661=ORIENTED_EDGE('',*,*,#485,.T.);
#662=ORIENTED_EDGE('',*,*,#486,.F.);
#663=ORIENTED_EDGE('',*,*,#485,.F.);
#664=ORIENTED_EDGE('',*,*,#396,.F.);
#665=ORIENTED_EDGE('',*,*,#476,.T.);
#666=ORIENTED_EDGE('',*,*,#482,.T.);
#667=ORIENTED_EDGE('',*,*,#484,.T.);
#668=ORIENTED_EDGE('',*,*,#486,.T.);
#669=ORIENTED_EDGE('',*,*,#475,.T.);
#670=ORIENTED_EDGE('',*,*,#478,.T.);
#671=ORIENTED_EDGE('',*,*,#480,.T.);
#672=ORIENTED_EDGE('',*,*,#473,.T.);
#673=ORIENTED_EDGE('',*,*,#388,.F.);
#674=ORIENTED_EDGE('',*,*,#394,.T.);
#675=ORIENTED_EDGE('',*,*,#411,.F.);
#676=ORIENTED_EDGE('',*,*,#414,.T.);
#677=ORIENTED_EDGE('',*,*,#444,.F.);
#678=ORIENTED_EDGE('',*,*,#436,.T.);
#679=ORIENTED_EDGE('',*,*,#428,.F.);
#680=ORIENTED_EDGE('',*,*,#430,.T.);
#681=ORIENTED_EDGE('',*,*,#417,.F.);
#682=ORIENTED_EDGE('',*,*,#420,.T.);
#683=ORIENTED_EDGE('',*,*,#435,.F.);
#684=ORIENTED_EDGE('',*,*,#432,.T.);
#685=CYLINDRICAL_SURFACE('',#747,7.8);
#686=CYLINDRICAL_SURFACE('',#755,7.8);
#687=CYLINDRICAL_SURFACE('',#760,3.9);
#688=CYLINDRICAL_SURFACE('',#764,3.9);
#689=CYLINDRICAL_SURFACE('',#771,3.9);
#690=CYLINDRICAL_SURFACE('',#774,3.9);
#691=CYLINDRICAL_SURFACE('',#775,0.8);
#692=CYLINDRICAL_SURFACE('',#784,1.1);
#693=CYLINDRICAL_SURFACE('',#793,0.800000000000001);
#694=ADVANCED_FACE('',(#57),#685,.T.);
#695=ADVANCED_FACE('',(#58,#19),#28,.T.);
#696=ADVANCED_FACE('',(#59),#29,.T.);
#697=ADVANCED_FACE('',(#60),#686,.T.);
#698=ADVANCED_FACE('',(#61,#20),#30,.T.);
#699=ADVANCED_FACE('',(#62),#687,.F.);
#700=ADVANCED_FACE('',(#63,#21),#31,.T.);
#701=ADVANCED_FACE('',(#64),#688,.F.);
#702=ADVANCED_FACE('',(#65,#22),#32,.T.);
#703=ADVANCED_FACE('',(#66,#23),#33,.T.);
#704=ADVANCED_FACE('',(#67),#689,.T.);
#705=ADVANCED_FACE('',(#68,#24),#34,.T.);
#706=ADVANCED_FACE('',(#69),#690,.T.);
#707=ADVANCED_FACE('',(#70),#691,.F.);
#708=ADVANCED_FACE('',(#71),#35,.F.);
#709=ADVANCED_FACE('',(#72),#36,.F.);
#710=ADVANCED_FACE('',(#73),#37,.F.);
#711=ADVANCED_FACE('',(#74),#38,.F.);
#712=ADVANCED_FACE('',(#75),#39,.F.);
#713=ADVANCED_FACE('',(#76),#40,.F.);
#714=ADVANCED_FACE('',(#77,#25),#41,.F.);
#715=ADVANCED_FACE('',(#78),#692,.F.);
#716=ADVANCED_FACE('',(#79),#42,.F.);
#717=ADVANCED_FACE('',(#80),#43,.F.);
#718=ADVANCED_FACE('',(#81),#44,.F.);
#719=ADVANCED_FACE('',(#82),#45,.F.);
#720=ADVANCED_FACE('',(#83),#46,.F.);
#721=ADVANCED_FACE('',(#84),#47,.F.);
#722=ADVANCED_FACE('',(#85,#26),#48,.F.);
#723=ADVANCED_FACE('',(#86),#693,.F.);
#724=ADVANCED_FACE('',(#87),#49,.F.);
#725=ADVANCED_FACE('',(#88),#50,.F.);
#726=ADVANCED_FACE('',(#89),#51,.F.);
#727=ADVANCED_FACE('',(#90),#52,.F.);
#728=ADVANCED_FACE('',(#91),#53,.F.);
#729=ADVANCED_FACE('',(#92),#54,.F.);
#730=ADVANCED_FACE('',(#93,#27),#55,.F.);
#731=ADVANCED_FACE('',(#94),#56,.T.);
#732=CLOSED_SHELL('',(#694,#695,#696,#697,#698,#699,#700,#701,#702,#703,
#704,#705,#706,#707,#708,#709,#710,#711,#712,#713,#714,#715,#716,#717,#718,
#719,#720,#721,#722,#723,#724,#725,#726,#727,#728,#729,#730,#731));
#733=DERIVED_UNIT_ELEMENT(#735,1.);
#734=DERIVED_UNIT_ELEMENT(#1216,-3.);
#735=(
MASS_UNIT()
NAMED_UNIT(*)
SI_UNIT(.KILO.,.GRAM.)
);
#736=DERIVED_UNIT((#733,#734));
#737=MEASURE_REPRESENTATION_ITEM('density measure',
POSITIVE_RATIO_MEASURE(7850.),#736);
#738=PROPERTY_DEFINITION_REPRESENTATION(#743,#740);
#739=PROPERTY_DEFINITION_REPRESENTATION(#744,#741);
#740=REPRESENTATION('material name',(#742),#1213);
#741=REPRESENTATION('density',(#737),#1213);
#742=DESCRIPTIVE_REPRESENTATION_ITEM('Steel','Steel');
#743=PROPERTY_DEFINITION('material property','material name',#1228);
#744=PROPERTY_DEFINITION('material property','density of part',#1228);
#745=AXIS2_PLACEMENT_3D('',#1003,#804,#805);
#746=AXIS2_PLACEMENT_3D('',#1004,#806,#807);
#747=AXIS2_PLACEMENT_3D('',#1005,#808,#809);
#748=AXIS2_PLACEMENT_3D('',#1008,#810,#811);
#749=AXIS2_PLACEMENT_3D('',#1012,#813,#814);
#750=AXIS2_PLACEMENT_3D('',#1014,#816,#817);
#751=AXIS2_PLACEMENT_3D('',#1032,#827,#828);
#752=AXIS2_PLACEMENT_3D('',#1040,#832,#833);
#753=AXIS2_PLACEMENT_3D('',#1044,#835,#836);
#754=AXIS2_PLACEMENT_3D('',#1051,#840,#841);
#755=AXIS2_PLACEMENT_3D('',#1052,#842,#843);
#756=AXIS2_PLACEMENT_3D('',#1054,#844,#845);
#757=AXIS2_PLACEMENT_3D('',#1056,#847,#848);
#758=AXIS2_PLACEMENT_3D('',#1058,#849,#850);
#759=AXIS2_PLACEMENT_3D('',#1061,#852,#853);
#760=AXIS2_PLACEMENT_3D('',#1062,#854,#855);
#761=AXIS2_PLACEMENT_3D('',#1066,#857,#858);
#762=AXIS2_PLACEMENT_3D('',#1068,#860,#861);
#763=AXIS2_PLACEMENT_3D('',#1070,#862,#863);
#764=AXIS2_PLACEMENT_3D('',#1084,#871,#872);
#765=AXIS2_PLACEMENT_3D('',#1088,#874,#875);
#766=AXIS2_PLACEMENT_3D('',#1090,#877,#878);
#767=AXIS2_PLACEMENT_3D('',#1093,#880,#881);
#768=AXIS2_PLACEMENT_3D('',#1094,#882,#883);
#769=AXIS2_PLACEMENT_3D('',#1097,#885,#886);
#770=AXIS2_PLACEMENT_3D('',#1099,#887,#888);
#771=AXIS2_PLACEMENT_3D('',#1100,#889,#890);
#772=AXIS2_PLACEMENT_3D('',#1102,#892,#893);
#773=AXIS2_PLACEMENT_3D('',#1105,#895,#896);
#774=AXIS2_PLACEMENT_3D('',#1118,#903,#904);
#775=AXIS2_PLACEMENT_3D('',#1120,#906,#907);
#776=AXIS2_PLACEMENT_3D('',#1123,#909,#910);
#777=AXIS2_PLACEMENT_3D('',#1124,#911,#912);
#778=AXIS2_PLACEMENT_3D('',#1130,#916,#917);
#779=AXIS2_PLACEMENT_3D('',#1134,#920,#921);
#780=AXIS2_PLACEMENT_3D('',#1138,#924,#925);
#781=AXIS2_PLACEMENT_3D('',#1142,#928,#929);
#782=AXIS2_PLACEMENT_3D('',#1146,#932,#933);
#783=AXIS2_PLACEMENT_3D('',#1148,#935,#936);
#784=AXIS2_PLACEMENT_3D('',#1149,#937,#938);
#785=AXIS2_PLACEMENT_3D('',#1152,#940,#941);
#786=AXIS2_PLACEMENT_3D('',#1153,#942,#943);
#787=AXIS2_PLACEMENT_3D('',#1159,#947,#948);
#788=AXIS2_PLACEMENT_3D('',#1163,#951,#952);
#789=AXIS2_PLACEMENT_3D('',#1167,#955,#956);
#790=AXIS2_PLACEMENT_3D('',#1171,#959,#960);
#791=AXIS2_PLACEMENT_3D('',#1175,#963,#964);
#792=AXIS2_PLACEMENT_3D('',#1177,#966,#967);
#793=AXIS2_PLACEMENT_3D('',#1178,#968,#969);
#794=AXIS2_PLACEMENT_3D('',#1180,#970,#971);
#795=AXIS2_PLACEMENT_3D('',#1182,#973,#974);
#796=AXIS2_PLACEMENT_3D('',#1188,#978,#979);
#797=AXIS2_PLACEMENT_3D('',#1192,#982,#983);
#798=AXIS2_PLACEMENT_3D('',#1196,#986,#987);
#799=AXIS2_PLACEMENT_3D('',#1200,#990,#991);
#800=AXIS2_PLACEMENT_3D('',#1204,#994,#995);
#801=AXIS2_PLACEMENT_3D('',#1206,#997,#998);
#802=AXIS2_PLACEMENT_3D('',#1207,#999,#1000);
#803=AXIS2_PLACEMENT_3D('',#1208,#1001,#1002);
#804=DIRECTION('axis',(0.,0.,1.));
#805=DIRECTION('refdir',(1.,0.,0.));
#806=DIRECTION('axis',(0.,0.,1.));
#807=DIRECTION('refdir',(1.,0.,0.));
#808=DIRECTION('center_axis',(1.,0.,0.));
#809=DIRECTION('ref_axis',(0.,-0.707106781186545,-0.70710678118655));
#810=DIRECTION('center_axis',(-1.,0.,0.));
#811=DIRECTION('ref_axis',(0.,-0.707106781186545,-0.70710678118655));
#812=DIRECTION('',(-1.,0.,0.));
#813=DIRECTION('center_axis',(1.,0.,0.));
#814=DIRECTION('ref_axis',(0.,-0.707106781186545,-0.70710678118655));
#815=DIRECTION('',(1.,0.,0.));
#816=DIRECTION('center_axis',(0.,1.0075973668867E-14,-1.));
#817=DIRECTION('ref_axis',(0.,1.,1.0075973668867E-14));
#818=DIRECTION('',(0.,-1.,-1.0075973668867E-14));
#819=DIRECTION('',(-1.,0.,0.));
#820=DIRECTION('',(0.,1.,1.0075973668867E-14));
#821=DIRECTION('',(0.49999999999999,-0.866025403784444,-8.72604916510201E-15));
#822=DIRECTION('',(1.,-1.2145027492949E-14,-1.2237297722662E-28));
#823=DIRECTION('',(0.50000000000001,0.866025403784433,8.72604916510189E-15));
#824=DIRECTION('',(-0.499999999999989,0.866025403784445,8.72604916510201E-15));
#825=DIRECTION('',(-1.,1.11329418685365E-14,1.12175229124402E-28));
#826=DIRECTION('',(-0.50000000000001,-0.866025403784433,-8.72604916510189E-15));
#827=DIRECTION('center_axis',(-1.,0.,0.));
#828=DIRECTION('ref_axis',(0.,0.,1.));
#829=DIRECTION('',(0.,2.21675146347785E-15,1.));
#830=DIRECTION('',(0.,-1.,-1.13869028166683E-15));
#831=DIRECTION('',(0.,-1.9845098751989E-15,-1.));
#832=DIRECTION('center_axis',(-1.,0.,0.));
#833=DIRECTION('ref_axis',(0.,-0.70710678118655,-0.707106781186545));
#834=DIRECTION('',(0.,1.,-5.65059747300261E-15));
#835=DIRECTION('center_axis',(-1.,0.,0.));
#836=DIRECTION('ref_axis',(0.,0.707106781186541,-0.707106781186554));
#837=DIRECTION('',(0.,1.17554647468374E-14,1.));
#838=DIRECTION('',(0.,-1.,1.77351011369608E-13));
#839=DIRECTION('',(0.,-1.71798238419536E-14,-1.));
#840=DIRECTION('center_axis',(1.,0.,0.));
#841=DIRECTION('ref_axis',(0.,0.707106781186545,-0.70710678118655));
#842=DIRECTION('center_axis',(1.,0.,0.));
#843=DIRECTION('ref_axis',(0.,0.707106781186545,-0.70710678118655));
#844=DIRECTION('center_axis',(-1.,0.,0.));
#845=DIRECTION('ref_axis',(0.,0.707106781186545,-0.70710678118655));
#846=DIRECTION('',(1.,0.,0.));
#847=DIRECTION('center_axis',(0.,1.,-1.71798238419536E-14));
#848=DIRECTION('ref_axis',(0.,1.71798238419536E-14,1.));
#849=DIRECTION('center_axis',(0.,-1.,1.71798238419536E-14));
#850=DIRECTION('ref_axis',(0.707106781186547,1.25607396694702E-13,0.707106781186547));
#851=DIRECTION('',(0.,1.71798238419536E-14,1.));
#852=DIRECTION('center_axis',(0.,-1.,1.71798238419536E-14));
#853=DIRECTION('ref_axis',(-1.,0.,0.));
#854=DIRECTION('center_axis',(1.,0.,0.));
#855=DIRECTION('ref_axis',(0.,-0.70710678118655,-0.707106781186545));
#856=DIRECTION('',(1.,0.,0.));
#857=DIRECTION('center_axis',(1.,0.,0.));
#858=DIRECTION('ref_axis',(0.,-0.70710678118655,-0.707106781186545));
#859=DIRECTION('',(-1.,0.,0.));
#860=DIRECTION('center_axis',(0.,1.,-1.9845098751989E-15));
#861=DIRECTION('ref_axis',(0.,1.9845098751989E-15,1.));
#862=DIRECTION('center_axis',(0.,-1.,1.9845098751989E-15));
#863=DIRECTION('ref_axis',(-0.707106781186547,-1.61035123967567E-15,0.707106781186547));
#864=DIRECTION('',(0.,1.9845098751989E-15,1.));
#865=DIRECTION('',(-4.57848258662753E-16,-1.9845098751989E-15,-1.));
#866=DIRECTION('',(0.866025403784439,-9.92254937599453E-16,-0.5));
#867=DIRECTION('',(0.866025403784439,9.92254937599451E-16,0.5));
#868=DIRECTION('',(4.57848258662754E-16,1.9845098751989E-15,1.));
#869=DIRECTION('',(-0.866025403784438,9.92254937599454E-16,0.500000000000001));
#870=DIRECTION('',(-0.866025403784439,-9.92254937599451E-16,-0.499999999999999));
#871=DIRECTION('center_axis',(1.,0.,0.));
#872=DIRECTION('ref_axis',(0.,0.707106781186541,-0.707106781186554));
#873=DIRECTION('',(1.,0.,0.));
#874=DIRECTION('center_axis',(1.,0.,0.));
#875=DIRECTION('ref_axis',(0.,0.707106781186541,-0.707106781186554));
#876=DIRECTION('',(-1.,0.,0.));
#877=DIRECTION('center_axis',(0.,5.65059747300261E-15,1.));
#878=DIRECTION('ref_axis',(0.,-1.,5.65059747300261E-15));
#879=DIRECTION('',(0.,-1.,5.65059747300261E-15));
#880=DIRECTION('center_axis',(0.,-5.65059747300261E-15,-1.));
#881=DIRECTION('ref_axis',(1.,0.,0.));
#882=DIRECTION('center_axis',(0.,-1.,2.21675146347785E-15));
#883=DIRECTION('ref_axis',(0.,-2.21675146347785E-15,-1.));
#884=DIRECTION('',(0.,-2.21675146347785E-15,-1.));
#885=DIRECTION('center_axis',(0.,1.,-2.21675146347785E-15));
#886=DIRECTION('ref_axis',(0.707106781186547,-1.61035123967567E-15,0.707106781186547));
#887=DIRECTION('center_axis',(0.,1.,-2.21675146347785E-15));
#888=DIRECTION('ref_axis',(1.,0.,0.));
#889=DIRECTION('center_axis',(0.,1.,1.13869028166683E-15));
#890=DIRECTION('ref_axis',(-0.707106781186547,-1.61035123967567E-15,0.707106781186547));
#891=DIRECTION('',(0.,1.,1.13869028166683E-15));
#892=DIRECTION('center_axis',(0.,-1.,1.17554647468374E-14));
#893=DIRECTION('ref_axis',(0.,-1.17554647468374E-14,-1.));
#894=DIRECTION('',(0.,-1.17554647468374E-14,-1.));
#895=DIRECTION('center_axis',(0.,1.,-1.17554647468374E-14));
#896=DIRECTION('ref_axis',(0.707106781186547,1.25607396694702E-13,0.707106781186547));
#897=DIRECTION('',(0.866025403784439,5.87773237341872E-15,0.499999999999999));
#898=DIRECTION('',(0.866025403784438,-5.87773237341873E-15,-0.500000000000001));
#899=DIRECTION('',(1.5181284366186E-15,-1.17554647468374E-14,-1.));
#900=DIRECTION('',(-0.866025403784439,-5.87773237341871E-15,-0.5));
#901=DIRECTION('',(-0.866025403784438,5.87773237341873E-15,0.500000000000001));
#902=DIRECTION('',(6.3255351525775E-16,1.17554647468374E-14,1.));
#903=DIRECTION('center_axis',(0.,1.,-1.77351011369608E-13));
#904=DIRECTION('ref_axis',(-0.707106781186547,1.25607396694702E-13,0.707106781186547));
#905=DIRECTION('',(0.,1.,-1.77351011369608E-13));
#906=DIRECTION('center_axis',(0.,-1.,0.));
#907=DIRECTION('ref_axis',(-1.,0.,0.));
#908=DIRECTION('',(0.,-1.,0.));
#909=DIRECTION('center_axis',(0.,1.,0.));
#910=DIRECTION('ref_axis',(-1.,0.,0.));
#911=DIRECTION('center_axis',(-0.5,0.,0.866025403784439));
#912=DIRECTION('ref_axis',(-0.866025403784439,0.,-0.499999999999999));
#913=DIRECTION('',(0.,-1.,0.));
#914=DIRECTION('',(0.866025403784439,0.,0.499999999999999));
#915=DIRECTION('',(0.,-1.,0.));
#916=DIRECTION('center_axis',(0.500000000000001,0.,0.866025403784438));
#917=DIRECTION('ref_axis',(-0.866025403784438,0.,0.500000000000001));
#918=DIRECTION('',(0.866025403784438,0.,-0.500000000000001));
#919=DIRECTION('',(0.,-1.,0.));
#920=DIRECTION('center_axis',(1.,0.,1.5181284366186E-15));
#921=DIRECTION('ref_axis',(-1.5181284366186E-15,0.,1.));
#922=DIRECTION('',(1.5181284366186E-15,0.,-1.));
#923=DIRECTION('',(0.,-1.,0.));
#924=DIRECTION('center_axis',(0.5,0.,-0.866025403784439));
#925=DIRECTION('ref_axis',(0.866025403784439,0.,0.5));
#926=DIRECTION('',(-0.866025403784439,0.,-0.5));
#927=DIRECTION('',(0.,-1.,0.));
#928=DIRECTION('center_axis',(-0.500000000000001,0.,-0.866025403784438));
#929=DIRECTION('ref_axis',(0.866025403784438,0.,-0.500000000000001));
#930=DIRECTION('',(-0.866025403784438,0.,0.500000000000001));
#931=DIRECTION('',(0.,-1.,0.));
#932=DIRECTION('center_axis',(-1.,0.,6.3255351525775E-16));
#933=DIRECTION('ref_axis',(-6.3255351525775E-16,0.,-1.));
#934=DIRECTION('',(6.3255351525775E-16,0.,1.));
#935=DIRECTION('center_axis',(0.,1.,0.));
#936=DIRECTION('ref_axis',(-1.,0.,0.));
#937=DIRECTION('center_axis',(0.,1.,-2.26576127474522E-15));
#938=DIRECTION('ref_axis',(1.,0.,0.));
#939=DIRECTION('',(0.,1.,-2.26576127474522E-15));
#940=DIRECTION('center_axis',(0.,-1.,2.28983498828938E-15));
#941=DIRECTION('ref_axis',(1.,0.,0.));
#942=DIRECTION('center_axis',(-1.,1.04839696201334E-30,4.57848258662753E-16));
#943=DIRECTION('ref_axis',(-4.57848258662753E-16,-1.9845098751989E-15,-1.));
#944=DIRECTION('',(0.,-1.,2.28983498828938E-15));
#945=DIRECTION('',(-4.57848258662753E-16,-1.9845098751989E-15,-1.));
#946=DIRECTION('',(0.,-1.,2.28983498828938E-15));
#947=DIRECTION('center_axis',(-0.499999999999999,1.98305527033305E-15,0.866025403784439));
#948=DIRECTION('ref_axis',(-0.866025403784439,-9.92254937599451E-16,-0.499999999999999));
#949=DIRECTION('',(0.,-1.,2.28983498828938E-15));
#950=DIRECTION('',(-0.866025403784439,-9.92254937599451E-16,-0.499999999999999));
#951=DIRECTION('center_axis',(0.500000000000001,1.98305527033305E-15,0.866025403784438));
#952=DIRECTION('ref_axis',(-0.866025403784438,9.92254937599454E-16,0.500000000000001));
#953=DIRECTION('',(0.,-1.,2.28983498828938E-15));
#954=DIRECTION('',(-0.866025403784438,9.92254937599454E-16,0.500000000000001));
#955=DIRECTION('center_axis',(1.,-1.04839696201334E-30,-4.57848258662754E-16));
#956=DIRECTION('ref_axis',(4.57848258662754E-16,1.9845098751989E-15,1.));
#957=DIRECTION('',(0.,-1.,2.28983498828938E-15));
#958=DIRECTION('',(4.57848258662754E-16,1.9845098751989E-15,1.));
#959=DIRECTION('center_axis',(0.5,-1.98305527033305E-15,-0.866025403784439));
#960=DIRECTION('ref_axis',(0.866025403784439,9.92254937599451E-16,0.5));
#961=DIRECTION('',(0.,-1.,2.28983498828938E-15));
#962=DIRECTION('',(0.866025403784439,9.92254937599451E-16,0.5));
#963=DIRECTION('center_axis',(-0.5,-1.98305527033305E-15,-0.866025403784439));
#964=DIRECTION('ref_axis',(0.866025403784439,-9.92254937599453E-16,-0.5));
#965=DIRECTION('',(0.866025403784439,-9.92254937599453E-16,-0.5));
#966=DIRECTION('center_axis',(0.,-1.,2.28983498828938E-15));
#967=DIRECTION('ref_axis',(0.,-2.28983498828938E-15,-1.));
#968=DIRECTION('center_axis',(0.,-1.01601108742732E-14,1.));
#969=DIRECTION('ref_axis',(1.,0.,0.));
#970=DIRECTION('center_axis',(0.,5.65059747300261E-15,1.));
#971=DIRECTION('ref_axis',(1.,0.,0.));
#972=DIRECTION('',(0.,-1.01601108742732E-14,1.));
#973=DIRECTION('center_axis',(-0.866025403784444,-0.49999999999999,-4.98545745082109E-15));
#974=DIRECTION('ref_axis',(0.49999999999999,-0.866025403784444,-8.78773270659168E-15));
#975=DIRECTION('',(0.49999999999999,-0.866025403784444,4.89356095818045E-15));
#976=DIRECTION('',(0.,-9.97091490164238E-15,1.));
#977=DIRECTION('',(0.,-9.97091490164238E-15,1.));
#978=DIRECTION('center_axis',(-0.866025403784433,0.50000000000001,4.98545745082129E-15));
#979=DIRECTION('ref_axis',(-0.50000000000001,-0.866025403784433,-8.78773270659157E-15));
#980=DIRECTION('',(-0.50000000000001,-0.866025403784433,4.89356095818038E-15));
#981=DIRECTION('',(0.,-9.97091490164238E-15,1.));
#982=DIRECTION('center_axis',(1.11329418685365E-14,1.,9.97091490164238E-15));
#983=DIRECTION('ref_axis',(-1.,1.11329418685365E-14,1.12968184248638E-28));
#984=DIRECTION('',(-1.,1.11329418685365E-14,-6.29077731894375E-29));
#985=DIRECTION('',(0.,-9.97091490164238E-15,1.));
#986=DIRECTION('center_axis',(0.866025403784445,0.499999999999989,4.98545745082109E-15));
#987=DIRECTION('ref_axis',(-0.499999999999989,0.866025403784445,8.78773270659169E-15));
#988=DIRECTION('',(-0.499999999999989,0.866025403784445,-4.89356095818045E-15));
#989=DIRECTION('',(0.,-9.97091490164238E-15,1.));
#990=DIRECTION('center_axis',(0.866025403784433,-0.50000000000001,-4.98545745082129E-15));
#991=DIRECTION('ref_axis',(0.50000000000001,0.866025403784433,8.78773270659156E-15));
#992=DIRECTION('',(0.50000000000001,0.866025403784433,-4.89356095818038E-15));
#993=DIRECTION('',(0.,-9.97091490164238E-15,1.));
#994=DIRECTION('center_axis',(-1.2145027492949E-14,-1.,-9.97091490164238E-15));
#995=DIRECTION('ref_axis',(1.,-1.2145027492949E-14,-1.23238019180333E-28));
#996=DIRECTION('',(1.,-1.2145027492949E-14,6.86266616612046E-29));
#997=DIRECTION('center_axis',(0.,5.65059747300261E-15,1.));
#998=DIRECTION('ref_axis',(1.,0.,0.));
#999=DIRECTION('center_axis',(1.,0.,0.));
#1000=DIRECTION('ref_axis',(0.,0.,-1.));
#1001=DIRECTION('',(-1.,-5.5727352476927E-15,1.97215226305253E-31));
#1002=DIRECTION('',(5.3332469757726E-63,-3.22362407901528E-48,1.));
#1003=CARTESIAN_POINT('',(0.,0.,0.));
#1004=CARTESIAN_POINT('',(0.,0.,0.));
#1005=CARTESIAN_POINT('Origin',(0.,-25.7999999999997,-12.3399999999999));
#1006=CARTESIAN_POINT('',(3.9,-25.7999999999996,-20.1399999999999));
#1007=CARTESIAN_POINT('',(3.9,-33.5999999999997,-12.3399999999999));
#1008=CARTESIAN_POINT('Origin',(3.9,-25.7999999999997,-12.3399999999999));
#1009=CARTESIAN_POINT('',(-3.9,-33.5999999999997,-12.3399999999999));
#1010=CARTESIAN_POINT('',(0.,-33.5999999999997,-12.3399999999999));
#1011=CARTESIAN_POINT('',(-3.9,-25.7999999999996,-20.1399999999999));
#1012=CARTESIAN_POINT('Origin',(-3.9,-25.7999999999997,-12.3399999999999));
#1013=CARTESIAN_POINT('',(0.,-25.7999999999996,-20.1399999999999));
#1014=CARTESIAN_POINT('Origin',(0.,-33.5999999999997,-20.14));
#1015=CARTESIAN_POINT('',(-3.9,-5.69999999999977,-20.1399999999997));
#1016=CARTESIAN_POINT('',(-3.9,-33.5999999999997,-20.14));
#1017=CARTESIAN_POINT('',(3.9,-5.69999999999977,-20.1399999999997));
#1018=CARTESIAN_POINT('',(0.,-5.69999999999977,-20.1399999999997));
#1019=CARTESIAN_POINT('',(3.9,-33.5999999999997,-20.14));
#1020=CARTESIAN_POINT('',(-2.19393102292055,-15.7499999999998,-20.1399999999998));
#1021=CARTESIAN_POINT('',(-1.0969655114603,-17.6499999999998,-20.1399999999998));
#1022=CARTESIAN_POINT('',(1.94494871933249,-22.9187499999999,-20.1399999999999));
#1023=CARTESIAN_POINT('',(1.09696551146025,-17.6499999999998,-20.1399999999998));
#1024=CARTESIAN_POINT('',(-0.548482755730053,-17.6499999999998,-20.1399999999998));
#1025=CARTESIAN_POINT('',(2.19393102292055,-15.7499999999999,-20.1399999999998));
#1026=CARTESIAN_POINT('',(-2.49343147506276,-23.8687499999997,-20.1399999999999));
#1027=CARTESIAN_POINT('',(1.0969655114603,-13.8499999999999,-20.1399999999998));
#1028=CARTESIAN_POINT('',(5.78432800944347,-21.9687499999999,-20.1399999999999));
#1029=CARTESIAN_POINT('',(-1.09696551146026,-13.8499999999999,-20.1399999999998));
#1030=CARTESIAN_POINT('',(0.54848275573026,-13.8499999999999,-20.1399999999998));
#1031=CARTESIAN_POINT('',(-5.23584525371341,-21.0187499999997,-20.1399999999999));
#1032=CARTESIAN_POINT('Origin',(-3.9,-15.7499999999996,-8.11999999999963));
#1033=CARTESIAN_POINT('',(-3.9,-33.5999999999997,-3.33066907387547E-15));
#1034=CARTESIAN_POINT('',(-3.9,-33.5999999999997,3.9));
#1035=CARTESIAN_POINT('',(-3.9,-29.6999999999997,0.));
#1036=CARTESIAN_POINT('',(-3.9,-22.7249999999997,8.88178419700125E-15));
#1037=CARTESIAN_POINT('',(-3.9,-29.6999999999997,-12.3399999999999));
#1038=CARTESIAN_POINT('',(-3.9,-29.6999999999997,-16.2399999999998));
#1039=CARTESIAN_POINT('',(-3.9,-25.7999999999997,-16.2399999999999));
#1040=CARTESIAN_POINT('Origin',(-3.9,-25.7999999999997,-12.3399999999999));
#1041=CARTESIAN_POINT('',(-3.9,-5.69999999999978,-16.24));
#1042=CARTESIAN_POINT('',(-3.9,-1.7999999999998,-16.24));
#1043=CARTESIAN_POINT('',(-3.9,-1.79999999999976,-12.34));
#1044=CARTESIAN_POINT('Origin',(-3.9,-5.69999999999976,-12.34));
#1045=CARTESIAN_POINT('',(-3.9,-1.79999999999961,7.2553074659254E-13));
#1046=CARTESIAN_POINT('',(-3.9,-1.79999999999957,3.90000000000073));
#1047=CARTESIAN_POINT('',(-3.9,2.10000000000037,3.5527136788005E-14));
#1048=CARTESIAN_POINT('',(-3.9,-6.82499999999923,1.61648472385423E-12));
#1049=CARTESIAN_POINT('',(-3.9,2.10000000000015,-12.3399999999998));
#1050=CARTESIAN_POINT('',(-3.9,2.10000000000002,-20.1399999999996));
#1051=CARTESIAN_POINT('Origin',(-3.9,-5.69999999999985,-12.3399999999997));
#1052=CARTESIAN_POINT('Origin',(0.,-5.69999999999985,-12.3399999999997));
#1053=CARTESIAN_POINT('',(3.9,2.10000000000015,-12.3399999999998));
#1054=CARTESIAN_POINT('Origin',(3.9,-5.69999999999985,-12.3399999999997));
#1055=CARTESIAN_POINT('',(0.,2.10000000000016,-12.3399999999998));
#1056=CARTESIAN_POINT('Origin',(0.,2.10000000000002,-20.1399999999996));
#1057=CARTESIAN_POINT('',(3.9,2.10000000000037,3.5527136788005E-14));
#1058=CARTESIAN_POINT('Origin',(0.,2.10000000000359,3.36269473799728E-14));
#1059=CARTESIAN_POINT('',(3.9,2.10000000000002,-20.1399999999996));
#1060=CARTESIAN_POINT('',(0.8,2.10000000000024,-9.79717439317883E-17));
#1061=CARTESIAN_POINT('Origin',(0.,2.10000000000002,0.));
#1062=CARTESIAN_POINT('Origin',(0.,-25.7999999999997,-12.3399999999999));
#1063=CARTESIAN_POINT('',(3.9,-29.6999999999997,-12.3399999999999));
#1064=CARTESIAN_POINT('',(0.,-29.6999999999997,-12.3399999999999));
#1065=CARTESIAN_POINT('',(3.9,-25.7999999999997,-16.2399999999999));
#1066=CARTESIAN_POINT('Origin',(3.9,-25.7999999999997,-12.3399999999999));
#1067=CARTESIAN_POINT('',(0.,-25.7999999999997,-16.2399999999999));
#1068=CARTESIAN_POINT('Origin',(0.,-29.6999999999997,-16.2399999999998));
#1069=CARTESIAN_POINT('',(3.9,-29.6999999999997,0.));
#1070=CARTESIAN_POINT('Origin',(0.,-29.6999999999997,9.39419482375055E-16));
#1071=CARTESIAN_POINT('',(3.9,-29.6999999999997,-16.2399999999998));
#1072=CARTESIAN_POINT('',(-2.1,-29.6999999999997,1.21243556529828));
#1073=CARTESIAN_POINT('',(-2.1,-29.6999999999997,-1.21243556529815));
#1074=CARTESIAN_POINT('',(-2.1,-29.6999999999997,-7.51378221735078));
#1075=CARTESIAN_POINT('',(-2.0524747409531E-15,-29.6999999999997,-2.42487113059636));
#1076=CARTESIAN_POINT('',(1.9410631393648,-29.6999999999997,-3.54554445662269));
#1077=CARTESIAN_POINT('',(2.1,-29.6999999999997,-1.21243556529815));
#1078=CARTESIAN_POINT('',(-2.9910631393648,-29.6999999999997,-4.15176223927179));
#1079=CARTESIAN_POINT('',(2.1,-29.6999999999997,1.21243556529828));
#1080=CARTESIAN_POINT('',(2.09999999999999,-29.6999999999997,-8.726217782649));
#1081=CARTESIAN_POINT('',(9.71445146547012E-16,-29.6999999999997,2.42487113059649));
#1082=CARTESIAN_POINT('',(5.09106313936481,-29.6999999999997,-0.51445554337716));
#1083=CARTESIAN_POINT('',(-4.0410631393648,-29.6999999999997,0.0917622392719608));
#1084=CARTESIAN_POINT('Origin',(0.,-5.69999999999976,-12.34));
#1085=CARTESIAN_POINT('',(3.9,-5.69999999999978,-16.24));
#1086=CARTESIAN_POINT('',(0.,-5.69999999999978,-16.24));
#1087=CARTESIAN_POINT('',(3.9,-1.79999999999976,-12.34));
#1088=CARTESIAN_POINT('Origin',(3.9,-5.69999999999976,-12.34));
#1089=CARTESIAN_POINT('',(0.,-1.79999999999976,-12.34));
#1090=CARTESIAN_POINT('Origin',(0.,-1.7999999999998,-16.24));
#1091=CARTESIAN_POINT('',(3.9,-1.7999999999998,-16.24));
#1092=CARTESIAN_POINT('',(-0.800000000000001,-15.7499999999999,-16.2400000000001));
#1093=CARTESIAN_POINT('Origin',(0.,-15.7499999999999,-16.2400000000001));
#1094=CARTESIAN_POINT('Origin',(0.,-33.5999999999997,3.9));
#1095=CARTESIAN_POINT('',(3.9,-33.5999999999997,-3.33066907387547E-15));
#1096=CARTESIAN_POINT('',(3.9,-33.5999999999997,3.9));
#1097=CARTESIAN_POINT('Origin',(0.,-33.5999999999997,-3.5014726161255E-15));
#1098=CARTESIAN_POINT('',(-1.1,-33.5999999999997,7.60683824004336E-14));
#1099=CARTESIAN_POINT('Origin',(0.,-33.5999999999997,7.62030935483398E-14));
#1100=CARTESIAN_POINT('Origin',(0.,-22.7249999999997,8.88178419700125E-15));
#1101=CARTESIAN_POINT('',(3.9,-22.7249999999997,8.88178419700125E-15));
#1102=CARTESIAN_POINT('Origin',(0.,-1.79999999999957,3.90000000000073));
#1103=CARTESIAN_POINT('',(3.9,-1.79999999999961,7.2553074659254E-13));
#1104=CARTESIAN_POINT('',(3.9,-1.79999999999957,3.90000000000073));
#1105=CARTESIAN_POINT('Origin',(0.,-1.80000000000026,7.25295891722128E-13));
#1106=CARTESIAN_POINT('',(-1.9,-1.7999999999996,1.09696551146029));
#1107=CARTESIAN_POINT('',(8.50014503228635E-16,-1.79999999999959,2.19393102292058));
#1108=CARTESIAN_POINT('',(0.36937476868999,-1.79999999999958,2.4071896450556));
#1109=CARTESIAN_POINT('',(1.9,-1.7999999999996,1.09696551146029));
#1110=CARTESIAN_POINT('',(0.580625231310009,-1.79999999999959,1.85870688932546));
#1111=CARTESIAN_POINT('',(1.9,-1.79999999999963,-1.09696551146029));
#1112=CARTESIAN_POINT('',(1.9,-1.7999999999996,1.40151724427023));
#1113=CARTESIAN_POINT('',(-1.71370053263998E-15,-1.79999999999964,-2.19393102292058));
#1114=CARTESIAN_POINT('',(1.31937476868999,-1.79999999999963,-1.43218964505542));
#1115=CARTESIAN_POINT('',(-1.9,-1.79999999999963,-1.09696551146029));
#1116=CARTESIAN_POINT('',(-2.26937476869,-1.79999999999962,-0.883706889325268));
#1117=CARTESIAN_POINT('',(-1.9,-1.79999999999958,2.49848275573052));
#1118=CARTESIAN_POINT('Origin',(0.,-6.82499999999923,1.61648472385423E-12));
#1119=CARTESIAN_POINT('',(3.9,-6.82499999999923,1.61648472385423E-12));
#1120=CARTESIAN_POINT('Origin',(0.,2.10000000000024,0.));
#1121=CARTESIAN_POINT('',(0.8,0.600000000000242,-9.79717439317883E-17));
#1122=CARTESIAN_POINT('',(0.8,2.10000000000024,9.79717439317883E-17));
#1123=CARTESIAN_POINT('Origin',(0.,0.600000000000242,0.));
#1124=CARTESIAN_POINT('Origin',(8.32667268468867E-16,0.600000000000242,
2.19393102292058));
#1125=CARTESIAN_POINT('',(-1.9,0.600000000000242,1.09696551146029));
#1126=CARTESIAN_POINT('',(-1.9,0.600000000000242,1.09696551146029));
#1127=CARTESIAN_POINT('',(8.50014503228635E-16,0.600000000000242,2.19393102292058));
#1128=CARTESIAN_POINT('',(-1.9,0.600000000000242,1.09696551146029));
#1129=CARTESIAN_POINT('',(8.50014503228635E-16,0.600000000000242,2.19393102292058));
#1130=CARTESIAN_POINT('Origin',(1.9,0.600000000000242,1.09696551146029));
#1131=CARTESIAN_POINT('',(1.9,0.600000000000242,1.09696551146029));
#1132=CARTESIAN_POINT('',(8.50014503228635E-16,0.600000000000242,2.19393102292058));
#1133=CARTESIAN_POINT('',(1.9,0.600000000000242,1.09696551146029));
#1134=CARTESIAN_POINT('Origin',(1.9,0.600000000000242,-1.09696551146029));
#1135=CARTESIAN_POINT('',(1.9,0.600000000000242,-1.09696551146029));
#1136=CARTESIAN_POINT('',(1.9,0.600000000000242,1.09696551146029));
#1137=CARTESIAN_POINT('',(1.9,0.600000000000242,-1.09696551146029));
#1138=CARTESIAN_POINT('Origin',(-1.66533453693773E-15,0.600000000000242,
-2.19393102292058));
#1139=CARTESIAN_POINT('',(-1.71370053263998E-15,0.600000000000242,-2.19393102292058));
#1140=CARTESIAN_POINT('',(1.9,0.600000000000242,-1.09696551146029));
#1141=CARTESIAN_POINT('',(-1.71370053263998E-15,0.600000000000242,-2.19393102292058));
#1142=CARTESIAN_POINT('Origin',(-1.9,0.600000000000242,-1.09696551146029));
#1143=CARTESIAN_POINT('',(-1.9,0.600000000000242,-1.09696551146029));
#1144=CARTESIAN_POINT('',(-1.71370053263998E-15,0.600000000000242,-2.19393102292058));
#1145=CARTESIAN_POINT('',(-1.9,0.600000000000242,-1.09696551146029));
#1146=CARTESIAN_POINT('Origin',(-1.9,0.600000000000242,1.09696551146029));
#1147=CARTESIAN_POINT('',(-1.9,0.600000000000242,-1.09696551146029));
#1148=CARTESIAN_POINT('Origin',(-8.32667268468867E-16,0.600000000000242,
0.));
#1149=CARTESIAN_POINT('Origin',(0.,-33.5999999999997,7.62030935483398E-14));
#1150=CARTESIAN_POINT('',(-1.1,-31.6999999999997,7.17634359784177E-14));
#1151=CARTESIAN_POINT('',(-1.1,-33.5999999999997,7.6337804696246E-14));
#1152=CARTESIAN_POINT('Origin',(0.,-31.6999999999997,7.18981471263239E-14));
#1153=CARTESIAN_POINT('Origin',(-2.1,-29.6999999999997,1.21243556529828));
#1154=CARTESIAN_POINT('',(-2.1,-31.6999999999997,1.21243556529829));
#1155=CARTESIAN_POINT('',(-2.1,-29.6999999999997,1.21243556529828));
#1156=CARTESIAN_POINT('',(-2.1,-31.6999999999997,-1.21243556529814));
#1157=CARTESIAN_POINT('',(-2.1,-31.6999999999997,-0.606217782649034));
#1158=CARTESIAN_POINT('',(-2.1,-29.6999999999997,-1.21243556529815));
#1159=CARTESIAN_POINT('Origin',(1.11022302462516E-15,-29.6999999999997,
2.42487113059649));
#1160=CARTESIAN_POINT('',(1.11022302462516E-15,-31.6999999999997,2.4248711305965));
#1161=CARTESIAN_POINT('',(9.71445146547012E-16,-29.6999999999997,2.42487113059649));
#1162=CARTESIAN_POINT('',(-1.575,-31.6999999999997,1.51554445662284));
#1163=CARTESIAN_POINT('Origin',(2.1,-29.6999999999997,1.21243556529828));
#1164=CARTESIAN_POINT('',(2.1,-31.6999999999997,1.21243556529828));
#1165=CARTESIAN_POINT('',(2.1,-29.6999999999997,1.21243556529828));
#1166=CARTESIAN_POINT('',(0.525000000000001,-31.6999999999997,2.12176223927195));
#1167=CARTESIAN_POINT('Origin',(2.1,-29.6999999999997,-1.21243556529815));
#1168=CARTESIAN_POINT('',(2.1,-31.6999999999997,-1.21243556529814));
#1169=CARTESIAN_POINT('',(2.1,-29.6999999999997,-1.21243556529815));
#1170=CARTESIAN_POINT('',(2.1,-31.6999999999997,0.606217782649178));
#1171=CARTESIAN_POINT('Origin',(-2.22044604925031E-15,-29.6999999999997,
-2.42487113059636));
#1172=CARTESIAN_POINT('',(-1.94289029309402E-15,-31.6999999999997,-2.42487113059636));
#1173=CARTESIAN_POINT('',(-2.0524747409531E-15,-29.6999999999997,-2.42487113059636));
#1174=CARTESIAN_POINT('',(1.575,-31.6999999999997,-1.5155444566227));
#1175=CARTESIAN_POINT('Origin',(-2.1,-29.6999999999997,-1.21243556529815));
#1176=CARTESIAN_POINT('',(-0.525000000000002,-31.6999999999997,-2.1217622392718));
#1177=CARTESIAN_POINT('Origin',(-8.32667268468867E-16,-31.6999999999997,
7.21644966006352E-14));
#1178=CARTESIAN_POINT('Origin',(0.,-15.7499999999999,-20.1399999999998));
#1179=CARTESIAN_POINT('',(-0.800000000000001,-15.7499999999999,-17.7399999999999));
#1180=CARTESIAN_POINT('Origin',(0.,-15.7499999999999,-17.7399999999999));
#1181=CARTESIAN_POINT('',(-0.800000000000001,-15.7499999999999,-20.1399999999998));
#1182=CARTESIAN_POINT('Origin',(-2.19393102292055,-15.7499999999998,-20.1399999999998));
#1183=CARTESIAN_POINT('',(-1.0969655114603,-17.6499999999998,-17.7399999999999));
#1184=CARTESIAN_POINT('',(-2.19393102292055,-15.7499999999998,-17.7399999999999));
#1185=CARTESIAN_POINT('',(-1.91968964505549,-16.2249999999998,-17.7399999999999));
#1186=CARTESIAN_POINT('',(-1.0969655114603,-17.6499999999998,-20.1399999999998));
#1187=CARTESIAN_POINT('',(-2.19393102292055,-15.7499999999998,-20.1399999999998));
#1188=CARTESIAN_POINT('Origin',(-1.09696551146026,-13.8499999999999,-20.1399999999998));
#1189=CARTESIAN_POINT('',(-1.09696551146026,-13.8499999999999,-17.7399999999999));
#1190=CARTESIAN_POINT('',(-1.37120688932533,-14.3249999999999,-17.7399999999999));
#1191=CARTESIAN_POINT('',(-1.09696551146026,-13.8499999999999,-20.1399999999998));
#1192=CARTESIAN_POINT('Origin',(1.0969655114603,-13.8499999999999,-20.1399999999998));
#1193=CARTESIAN_POINT('',(1.0969655114603,-13.8499999999999,-17.7399999999999));
#1194=CARTESIAN_POINT('',(0.54848275573016,-13.8499999999999,-17.7399999999999));
#1195=CARTESIAN_POINT('',(1.0969655114603,-13.8499999999999,-20.1399999999998));
#1196=CARTESIAN_POINT('Origin',(2.19393102292055,-15.7499999999999,-20.1399999999998));
#1197=CARTESIAN_POINT('',(2.19393102292055,-15.7499999999999,-17.7399999999999));
#1198=CARTESIAN_POINT('',(1.91968964505549,-15.2749999999999,-17.7399999999999));
#1199=CARTESIAN_POINT('',(2.19393102292055,-15.7499999999999,-20.1399999999998));
#1200=CARTESIAN_POINT('Origin',(1.09696551146025,-17.6499999999998,-20.1399999999998));
#1201=CARTESIAN_POINT('',(1.09696551146025,-17.6499999999999,-17.7399999999999));
#1202=CARTESIAN_POINT('',(1.37120688932533,-17.1749999999999,-17.7399999999999));
#1203=CARTESIAN_POINT('',(1.09696551146025,-17.6499999999998,-20.1399999999998));
#1204=CARTESIAN_POINT('Origin',(-1.0969655114603,-17.6499999999998,-20.1399999999998));
#1205=CARTESIAN_POINT('',(-0.548482755730161,-17.6499999999998,-17.7399999999999));
#1206=CARTESIAN_POINT('Origin',(1.23162429029983E-57,-15.7499999999999,
-17.7399999999999));
#1207=CARTESIAN_POINT('Origin',(3.9,-15.7499999999996,-8.11999999999963));
#1208=CARTESIAN_POINT('',(-16.24,15.7499999999997,3.9));
#1209=UNCERTAINTY_MEASURE_WITH_UNIT(LENGTH_MEASURE(0.01),#1215,
'DISTANCE_ACCURACY_VALUE',
'Maximum model space distance between geometric entities at asserted c
onnectivities');
#1210=UNCERTAINTY_MEASURE_WITH_UNIT(LENGTH_MEASURE(0.01),#1215,
'DISTANCE_ACCURACY_VALUE',
'Maximum model space distance between geometric entities at asserted c
onnectivities');
#1211=UNCERTAINTY_MEASURE_WITH_UNIT(LENGTH_MEASURE(0.01),#1215,
'DISTANCE_ACCURACY_VALUE',
'Maximum model space distance between geometric entities at asserted c
onnectivities');
#1212=(
GEOMETRIC_REPRESENTATION_CONTEXT(3)
GLOBAL_UNCERTAINTY_ASSIGNED_CONTEXT((#1209))
GLOBAL_UNIT_ASSIGNED_CONTEXT((#1215,#1217,#1218))
REPRESENTATION_CONTEXT('','3D')
);
#1213=(
GEOMETRIC_REPRESENTATION_CONTEXT(3)
GLOBAL_UNCERTAINTY_ASSIGNED_CONTEXT((#1210))
GLOBAL_UNIT_ASSIGNED_CONTEXT((#1215,#1217,#1218))
REPRESENTATION_CONTEXT('','3D')
);
#1214=(
GEOMETRIC_REPRESENTATION_CONTEXT(3)
GLOBAL_UNCERTAINTY_ASSIGNED_CONTEXT((#1211))
GLOBAL_UNIT_ASSIGNED_CONTEXT((#1215,#1217,#1218))
REPRESENTATION_CONTEXT('','3D')
);
#1215=(
LENGTH_UNIT()
NAMED_UNIT(*)
SI_UNIT(.MILLI.,.METRE.)
);
#1216=(
LENGTH_UNIT()
NAMED_UNIT(*)
SI_UNIT($,.METRE.)
);
#1217=(
NAMED_UNIT(*)
PLANE_ANGLE_UNIT()
SI_UNIT($,.RADIAN.)
);
#1218=(
NAMED_UNIT(*)
SI_UNIT($,.STERADIAN.)
SOLID_ANGLE_UNIT()
);
#1219=SHAPE_DEFINITION_REPRESENTATION(#1221,#1224);
#1220=SHAPE_DEFINITION_REPRESENTATION(#1222,#1225);
#1221=PRODUCT_DEFINITION_SHAPE('',$,#1227);
#1222=PRODUCT_DEFINITION_SHAPE('',$,#1228);
#1223=PRODUCT_DEFINITION_SHAPE($,$,#14);
#1224=SHAPE_REPRESENTATION('',(#745,#803),#1212);
#1225=SHAPE_REPRESENTATION('',(#746),#1213);
#1226=PRODUCT_DEFINITION_CONTEXT('part definition',#1234,'design');
#1227=PRODUCT_DEFINITION('2026-09-12-16-20-44-318','PRINT_LAYOUT',#1229,
#1226);
#1228=PRODUCT_DEFINITION('2026-09-12-16-20-44-264','Neck',#1230,#1226);
#1229=PRODUCT_DEFINITION_FORMATION('',$,#1236);
#1230=PRODUCT_DEFINITION_FORMATION('',$,#1237);
#1231=PRODUCT_RELATED_PRODUCT_CATEGORY('PRINT_LAYOUT','PRINT_LAYOUT',(#1236));
#1232=PRODUCT_RELATED_PRODUCT_CATEGORY('Neck','Neck',(#1237));
#1233=APPLICATION_PROTOCOL_DEFINITION('international standard',
'automotive_design',2009,#1234);
#1234=APPLICATION_CONTEXT(
'Core Data for Automotive Mechanical Design Process');
#1235=PRODUCT_CONTEXT('part definition',#1234,'mechanical');
#1236=PRODUCT('2026-09-12-16-20-44-318','PRINT_LAYOUT',$,(#1235));
#1237=PRODUCT('2026-09-12-16-20-44-264','Neck',$,(#1235));
#1238=PRESENTATION_STYLE_ASSIGNMENT((#1241));
#1239=PRESENTATION_STYLE_ASSIGNMENT((#1242));
#1240=PRESENTATION_STYLE_ASSIGNMENT((#1243));
#1241=SURFACE_STYLE_USAGE(.BOTH.,#1244);
#1242=SURFACE_STYLE_USAGE(.BOTH.,#1245);
#1243=SURFACE_STYLE_USAGE(.BOTH.,#1246);
#1244=SURFACE_SIDE_STYLE('',(#1247));
#1245=SURFACE_SIDE_STYLE('',(#1248));
#1246=SURFACE_SIDE_STYLE('',(#1249));
#1247=SURFACE_STYLE_FILL_AREA(#1250);
#1248=SURFACE_STYLE_FILL_AREA(#1251);
#1249=SURFACE_STYLE_FILL_AREA(#1252);
#1250=FILL_AREA_STYLE('Plastic - Matte (Black)',(#1253));
#1251=FILL_AREA_STYLE('Steel - Satin',(#1254));
#1252=FILL_AREA_STYLE('Brass - Old',(#1255));
#1253=FILL_AREA_STYLE_COLOUR('Plastic - Matte (Black)',#1256);
#1254=FILL_AREA_STYLE_COLOUR('Steel - Satin',#1257);
#1255=FILL_AREA_STYLE_COLOUR('Brass - Old',#1258);
#1256=COLOUR_RGB('Plastic - Matte (Black)',0.0980392156862745,0.0980392156862745,
0.0980392156862745);
#1257=COLOUR_RGB('Steel - Satin',0.627450980392157,0.627450980392157,0.627450980392157);
#1258=COLOUR_RGB('Brass - Old',0.,0.,0.);
ENDSEC;
END-ISO-10303-21;
