ISO-10303-21;
HEADER;
/* Generated by software containing ST-Developer
 * from STEP Tools, Inc. (www.steptools.com) 
 */

FILE_DESCRIPTION(
/* description */ (''),
/* implementation_level */ '2;1');

FILE_NAME(
/* name */ 'Bell.step',
/* time_stamp */ '2026-09-12T16:18:06+02:00',
/* author */ (''),
/* organization */ (''),
/* preprocessor_version */ 'ST-DEVELOPER v20.2',
/* originating_system */ 'Autodesk Translation Framework v15.15.0.0',
/* authorisation */ '');

FILE_SCHEMA (('AUTOMOTIVE_DESIGN { 1 0 10303 214 3 1 1 }'));
ENDSEC;

DATA;
#10=MECHANICAL_DESIGN_GEOMETRIC_PRESENTATION_REPRESENTATION('',(#17),#165);
#11=ITEM_DEFINED_TRANSFORMATION($,$,#95,#107);
#12=(
REPRESENTATION_RELATIONSHIP($,$,#176,#175)
REPRESENTATION_RELATIONSHIP_WITH_TRANSFORMATION(#11)
SHAPE_REPRESENTATION_RELATIONSHIP()
);
#13=CONTEXT_DEPENDENT_SHAPE_REPRESENTATION(#12,#174);
#14=NEXT_ASSEMBLY_USAGE_OCCURRENCE('Bell:1','Bell:1','Bell:1',#178,#179,
'Bell:1');
#15=SHAPE_REPRESENTATION_RELATIONSHIP('SRR','None',#176,#16);
#16=ADVANCED_BREP_SHAPE_REPRESENTATION('',(#18),#164);
#17=STYLED_ITEM('',(#191),#18);
#18=MANIFOLD_SOLID_BREP('Body1',#81);
#19=FACE_BOUND('',#37,.T.);
#20=LINE('',#152,#22);
#21=LINE('',#156,#23);
#22=VECTOR('',#126,1.1);
#23=VECTOR('',#131,4.7);
#24=CYLINDRICAL_SURFACE('',#102,1.1);
#25=CYLINDRICAL_SURFACE('',#104,4.7);
#26=SPHERICAL_SURFACE('',#98,4.7);
#27=FACE_OUTER_BOUND('',#32,.T.);
#28=FACE_OUTER_BOUND('',#33,.T.);
#29=FACE_OUTER_BOUND('',#34,.T.);
#30=FACE_OUTER_BOUND('',#35,.T.);
#31=FACE_OUTER_BOUND('',#36,.T.);
#32=EDGE_LOOP('',(#58));
#33=EDGE_LOOP('',(#59,#60,#61,#62));
#34=EDGE_LOOP('',(#63,#64,#65,#66));
#35=EDGE_LOOP('',(#67,#68,#69,#70,#71));
#36=EDGE_LOOP('',(#72));
#37=EDGE_LOOP('',(#73));
#38=CIRCLE('',#97,1.1);
#39=CIRCLE('',#99,4.7);
#40=CIRCLE('',#100,4.7);
#41=CIRCLE('',#101,4.7);
#42=CIRCLE('',#103,1.1);
#43=CIRCLE('',#105,4.7);
#44=VERTEX_POINT('',#141);
#45=VERTEX_POINT('',#144);
#46=VERTEX_POINT('',#145);
#47=VERTEX_POINT('',#147);
#48=VERTEX_POINT('',#151);
#49=VERTEX_POINT('',#155);
#50=EDGE_CURVE('',#44,#44,#38,.T.);
#51=EDGE_CURVE('',#45,#46,#39,.T.);
#52=EDGE_CURVE('',#47,#46,#40,.T.);
#53=EDGE_CURVE('',#46,#45,#41,.T.);
#54=EDGE_CURVE('',#44,#48,#20,.T.);
#55=EDGE_CURVE('',#48,#48,#42,.T.);
#56=EDGE_CURVE('',#45,#49,#21,.T.);
#57=EDGE_CURVE('',#49,#49,#43,.T.);
#58=ORIENTED_EDGE('',*,*,#50,.T.);
#59=ORIENTED_EDGE('',*,*,#51,.T.);
#60=ORIENTED_EDGE('',*,*,#52,.F.);
#61=ORIENTED_EDGE('',*,*,#52,.T.);
#62=ORIENTED_EDGE('',*,*,#53,.T.);
#63=ORIENTED_EDGE('',*,*,#50,.F.);
#64=ORIENTED_EDGE('',*,*,#54,.T.);
#65=ORIENTED_EDGE('',*,*,#55,.T.);
#66=ORIENTED_EDGE('',*,*,#54,.F.);
#67=ORIENTED_EDGE('',*,*,#51,.F.);
#68=ORIENTED_EDGE('',*,*,#56,.T.);
#69=ORIENTED_EDGE('',*,*,#57,.T.);
#70=ORIENTED_EDGE('',*,*,#56,.F.);
#71=ORIENTED_EDGE('',*,*,#53,.F.);
#72=ORIENTED_EDGE('',*,*,#57,.F.);
#73=ORIENTED_EDGE('',*,*,#55,.F.);
#74=PLANE('',#96);
#75=PLANE('',#106);
#76=ADVANCED_FACE('',(#27),#74,.T.);
#77=ADVANCED_FACE('',(#28),#26,.T.);
#78=ADVANCED_FACE('',(#29),#24,.F.);
#79=ADVANCED_FACE('',(#30),#25,.T.);
#80=ADVANCED_FACE('',(#31,#19),#75,.F.);
#81=CLOSED_SHELL('',(#76,#77,#78,#79,#80));
#82=DERIVED_UNIT_ELEMENT(#84,1.);
#83=DERIVED_UNIT_ELEMENT(#167,-3.);
#84=(
MASS_UNIT()
NAMED_UNIT(*)
SI_UNIT(.KILO.,.GRAM.)
);
#85=DERIVED_UNIT((#82,#83));
#86=MEASURE_REPRESENTATION_ITEM('density measure',
POSITIVE_RATIO_MEASURE(7850.),#85);
#87=PROPERTY_DEFINITION_REPRESENTATION(#92,#89);
#88=PROPERTY_DEFINITION_REPRESENTATION(#93,#90);
#89=REPRESENTATION('material name',(#91),#164);
#90=REPRESENTATION('density',(#86),#164);
#91=DESCRIPTIVE_REPRESENTATION_ITEM('Steel','Steel');
#92=PROPERTY_DEFINITION('material property','material name',#179);
#93=PROPERTY_DEFINITION('material property','density of part',#179);
#94=AXIS2_PLACEMENT_3D('',#138,#108,#109);
#95=AXIS2_PLACEMENT_3D('',#139,#110,#111);
#96=AXIS2_PLACEMENT_3D('',#140,#112,#113);
#97=AXIS2_PLACEMENT_3D('',#142,#114,#115);
#98=AXIS2_PLACEMENT_3D('',#143,#116,#117);
#99=AXIS2_PLACEMENT_3D('',#146,#118,#119);
#100=AXIS2_PLACEMENT_3D('',#148,#120,#121);
#101=AXIS2_PLACEMENT_3D('',#149,#122,#123);
#102=AXIS2_PLACEMENT_3D('',#150,#124,#125);
#103=AXIS2_PLACEMENT_3D('',#153,#127,#128);
#104=AXIS2_PLACEMENT_3D('',#154,#129,#130);
#105=AXIS2_PLACEMENT_3D('',#157,#132,#133);
#106=AXIS2_PLACEMENT_3D('',#158,#134,#135);
#107=AXIS2_PLACEMENT_3D('',#159,#136,#137);
#108=DIRECTION('axis',(0.,0.,1.));
#109=DIRECTION('refdir',(1.,0.,0.));
#110=DIRECTION('axis',(0.,0.,1.));
#111=DIRECTION('refdir',(1.,0.,0.));
#112=DIRECTION('center_axis',(0.,-2.22044604925031E-15,-1.));
#113=DIRECTION('ref_axis',(-1.,0.,0.));
#114=DIRECTION('center_axis',(-1.42408131080614E-27,-1.9806897249438E-15,
-1.));
#115=DIRECTION('ref_axis',(-1.,0.,1.42408131080614E-27));
#116=DIRECTION('center_axis',(0.,0.,1.));
#117=DIRECTION('ref_axis',(1.,0.,0.));
#118=DIRECTION('center_axis',(1.42408131080614E-27,1.9806897249438E-15,
1.));
#119=DIRECTION('ref_axis',(-1.,0.,1.42408131080614E-27));
#120=DIRECTION('center_axis',(0.,-1.,0.));
#121=DIRECTION('ref_axis',(-1.,0.,0.));
#122=DIRECTION('center_axis',(1.42408131080614E-27,1.9806897249438E-15,
1.));
#123=DIRECTION('ref_axis',(-1.,0.,1.42408131080614E-27));
#124=DIRECTION('center_axis',(0.,2.22044604925031E-15,1.));
#125=DIRECTION('ref_axis',(-1.,-3.1620957203907E-42,0.));
#126=DIRECTION('',(0.,-2.22044604925031E-15,-1.));
#127=DIRECTION('center_axis',(-1.42408131080614E-27,-1.9806897249438E-15,
-1.));
#128=DIRECTION('ref_axis',(-1.,0.,1.42408131080614E-27));
#129=DIRECTION('center_axis',(0.,2.22044604925031E-15,1.));
#130=DIRECTION('ref_axis',(-1.,-3.1620957203907E-42,0.));
#131=DIRECTION('',(0.,-2.22044604925031E-15,-1.));
#132=DIRECTION('center_axis',(1.42408131080614E-27,1.9806897249438E-15,
1.));
#133=DIRECTION('ref_axis',(-1.,0.,1.42408131080614E-27));
#134=DIRECTION('center_axis',(1.42408131080614E-27,1.9806897249438E-15,
1.));
#135=DIRECTION('ref_axis',(-1.,0.,1.42408131080614E-27));
#136=DIRECTION('',(1.76868732008334E-74,-2.16601726523258E-90,1.));
#137=DIRECTION('',(-1.,1.22464679914735E-16,1.76868732008334E-74));
#138=CARTESIAN_POINT('',(0.,0.,0.));
#139=CARTESIAN_POINT('',(0.,0.,0.));
#140=CARTESIAN_POINT('Origin',(29.7955549577481,-33.9630534061149,-35.7999999999997));
#141=CARTESIAN_POINT('',(26.1955549577481,-33.9630534061149,-35.7999999999997));
#142=CARTESIAN_POINT('Origin',(25.0955549577481,-33.9630534061149,-35.7999999999997));
#143=CARTESIAN_POINT('Origin',(25.0955549577481,-33.9630534061149,-35.7999999999997));
#144=CARTESIAN_POINT('',(29.7955549577481,-33.9630534061149,-35.7999999999997));
#145=CARTESIAN_POINT('',(20.3955549577481,-33.9630534061149,-35.7999999999997));
#146=CARTESIAN_POINT('Origin',(25.0955549577481,-33.9630534061149,-35.7999999999997));
#147=CARTESIAN_POINT('',(25.0955549577481,-33.9630534061149,-31.0999999999997));
#148=CARTESIAN_POINT('Origin',(25.0955549577481,-33.9630534061149,-35.7999999999997));
#149=CARTESIAN_POINT('Origin',(25.0955549577481,-33.9630534061149,-35.7999999999997));
#150=CARTESIAN_POINT('Origin',(25.0955549577481,-33.9630534061149,-37.7999999999997));
#151=CARTESIAN_POINT('',(26.1955549577481,-33.9630534061149,-37.7999999999997));
#152=CARTESIAN_POINT('',(26.1955549577481,-33.9630534061149,-37.7999999999997));
#153=CARTESIAN_POINT('Origin',(25.0955549577481,-33.9630534061149,-37.7999999999997));
#154=CARTESIAN_POINT('Origin',(25.0955549577481,-33.9630534061149,-37.7999999999997));
#155=CARTESIAN_POINT('',(29.7955549577481,-33.9630534061149,-37.7999999999997));
#156=CARTESIAN_POINT('',(29.7955549577481,-33.9630534061149,-37.7999999999997));
#157=CARTESIAN_POINT('Origin',(25.0955549577481,-33.9630534061149,-37.7999999999997));
#158=CARTESIAN_POINT('Origin',(25.0955549577481,-33.9630534061149,-37.7999999999997));
#159=CARTESIAN_POINT('',(25.0955549577481,-33.9630534061149,37.7999999999997));
#160=UNCERTAINTY_MEASURE_WITH_UNIT(LENGTH_MEASURE(0.01),#166,
'DISTANCE_ACCURACY_VALUE',
'Maximum model space distance between geometric entities at asserted c
onnectivities');
#161=UNCERTAINTY_MEASURE_WITH_UNIT(LENGTH_MEASURE(0.01),#166,
'DISTANCE_ACCURACY_VALUE',
'Maximum model space distance between geometric entities at asserted c
onnectivities');
#162=UNCERTAINTY_MEASURE_WITH_UNIT(LENGTH_MEASURE(0.01),#166,
'DISTANCE_ACCURACY_VALUE',
'Maximum model space distance between geometric entities at asserted c
onnectivities');
#163=(
GEOMETRIC_REPRESENTATION_CONTEXT(3)
GLOBAL_UNCERTAINTY_ASSIGNED_CONTEXT((#160))
GLOBAL_UNIT_ASSIGNED_CONTEXT((#166,#168,#169))
REPRESENTATION_CONTEXT('','3D')
);
#164=(
GEOMETRIC_REPRESENTATION_CONTEXT(3)
GLOBAL_UNCERTAINTY_ASSIGNED_CONTEXT((#161))
GLOBAL_UNIT_ASSIGNED_CONTEXT((#166,#168,#169))
REPRESENTATION_CONTEXT('','3D')
);
#165=(
GEOMETRIC_REPRESENTATION_CONTEXT(3)
GLOBAL_UNCERTAINTY_ASSIGNED_CONTEXT((#162))
GLOBAL_UNIT_ASSIGNED_CONTEXT((#166,#168,#169))
REPRESENTATION_CONTEXT('','3D')
);
#166=(
LENGTH_UNIT()
NAMED_UNIT(*)
SI_UNIT(.MILLI.,.METRE.)
);
#167=(
LENGTH_UNIT()
NAMED_UNIT(*)
SI_UNIT($,.METRE.)
);
#168=(
NAMED_UNIT(*)
PLANE_ANGLE_UNIT()
SI_UNIT($,.RADIAN.)
);
#169=(
NAMED_UNIT(*)
SI_UNIT($,.STERADIAN.)
SOLID_ANGLE_UNIT()
);
#170=SHAPE_DEFINITION_REPRESENTATION(#172,#175);
#171=SHAPE_DEFINITION_REPRESENTATION(#173,#176);
#172=PRODUCT_DEFINITION_SHAPE('',$,#178);
#173=PRODUCT_DEFINITION_SHAPE('',$,#179);
#174=PRODUCT_DEFINITION_SHAPE($,$,#14);
#175=SHAPE_REPRESENTATION('',(#94,#107),#163);
#176=SHAPE_REPRESENTATION('',(#95),#164);
#177=PRODUCT_DEFINITION_CONTEXT('part definition',#185,'design');
#178=PRODUCT_DEFINITION('2026-09-12-16-18-06-314','PRINT_LAYOUT',#180,#177);
#179=PRODUCT_DEFINITION('2026-09-12-16-18-06-308','Bell',#181,#177);
#180=PRODUCT_DEFINITION_FORMATION('',$,#187);
#181=PRODUCT_DEFINITION_FORMATION('',$,#188);
#182=PRODUCT_RELATED_PRODUCT_CATEGORY('PRINT_LAYOUT','PRINT_LAYOUT',(#187));
#183=PRODUCT_RELATED_PRODUCT_CATEGORY('Bell','Bell',(#188));
#184=APPLICATION_PROTOCOL_DEFINITION('international standard',
'automotive_design',2009,#185);
#185=APPLICATION_CONTEXT(
'Core Data for Automotive Mechanical Design Process');
#186=PRODUCT_CONTEXT('part definition',#185,'mechanical');
#187=PRODUCT('2026-09-12-16-18-06-314','PRINT_LAYOUT',$,(#186));
#188=PRODUCT('2026-09-12-16-18-06-308','Bell',$,(#186));
#189=PRESENTATION_STYLE_ASSIGNMENT((#192));
#190=PRESENTATION_STYLE_ASSIGNMENT((#193));
#191=PRESENTATION_STYLE_ASSIGNMENT((#194));
#192=SURFACE_STYLE_USAGE(.BOTH.,#195);
#193=SURFACE_STYLE_USAGE(.BOTH.,#196);
#194=SURFACE_STYLE_USAGE(.BOTH.,#197);
#195=SURFACE_SIDE_STYLE('',(#198));
#196=SURFACE_SIDE_STYLE('',(#199));
#197=SURFACE_SIDE_STYLE('',(#200));
#198=SURFACE_STYLE_FILL_AREA(#201);
#199=SURFACE_STYLE_FILL_AREA(#202);
#200=SURFACE_STYLE_FILL_AREA(#203);
#201=FILL_AREA_STYLE('Plastic - Matte (Black)',(#204));
#202=FILL_AREA_STYLE('Steel - Satin',(#205));
#203=FILL_AREA_STYLE('Brass - Old',(#206));
#204=FILL_AREA_STYLE_COLOUR('Plastic - Matte (Black)',#207);
#205=FILL_AREA_STYLE_COLOUR('Steel - Satin',#208);
#206=FILL_AREA_STYLE_COLOUR('Brass - Old',#209);
#207=COLOUR_RGB('Plastic - Matte (Black)',0.0980392156862745,0.0980392156862745,
0.0980392156862745);
#208=COLOUR_RGB('Steel - Satin',0.627450980392157,0.627450980392157,0.627450980392157);
#209=COLOUR_RGB('Brass - Old',0.,0.,0.);
ENDSEC;
END-ISO-10303-21;
