ISO-10303-21;
HEADER;
/* Generated by software containing ST-Developer
 * from STEP Tools, Inc. (www.steptools.com) 
 */

FILE_DESCRIPTION(
/* description */ (''),
/* implementation_level */ '2;1');

FILE_NAME(
/* name */ 'DeskTop.step',
/* time_stamp */ '2026-09-10T23:16:17+02:00',
/* author */ (''),
/* organization */ (''),
/* preprocessor_version */ 'ST-DEVELOPER v20.2',
/* originating_system */ 'Autodesk Translation Framework v15.15.0.0',
/* authorisation */ '');

FILE_SCHEMA (('AUTOMOTIVE_DESIGN { 1 0 10303 214 3 1 1 }'));
ENDSEC;

DATA;
#10=MECHANICAL_DESIGN_GEOMETRIC_PRESENTATION_REPRESENTATION('',(#17),#1559);
#11=ITEM_DEFINED_TRANSFORMATION($,$,#915,#1020);
#12=(
REPRESENTATION_RELATIONSHIP($,$,#1570,#1569)
REPRESENTATION_RELATIONSHIP_WITH_TRANSFORMATION(#11)
SHAPE_REPRESENTATION_RELATIONSHIP()
);
#13=CONTEXT_DEPENDENT_SHAPE_REPRESENTATION(#12,#1568);
#14=NEXT_ASSEMBLY_USAGE_OCCURRENCE('DeskTop:1','DeskTop:1','DeskTop:1',
#1572,#1573,'DeskTop:1');
#15=SHAPE_REPRESENTATION_RELATIONSHIP('SRR','None',#1570,#16);
#16=ADVANCED_BREP_SHAPE_REPRESENTATION('',(#18),#1558);
#17=STYLED_ITEM('',(#1583),#18);
#18=MANIFOLD_SOLID_BREP('Body1',#901);
#19=FACE_BOUND('',#129,.T.);
#20=FACE_BOUND('',#133,.T.);
#21=FACE_BOUND('',#136,.T.);
#22=FACE_BOUND('',#139,.T.);
#23=FACE_BOUND('',#150,.T.);
#24=FACE_BOUND('',#153,.T.);
#25=FACE_BOUND('',#156,.T.);
#26=FACE_BOUND('',#159,.T.);
#27=FACE_BOUND('',#167,.T.);
#28=FACE_BOUND('',#168,.T.);
#29=FACE_BOUND('',#169,.T.);
#30=FACE_BOUND('',#170,.T.);
#31=FACE_BOUND('',#171,.T.);
#32=FACE_BOUND('',#172,.T.);
#33=FACE_BOUND('',#173,.T.);
#34=FACE_BOUND('',#174,.T.);
#35=FACE_BOUND('',#175,.T.);
#36=FACE_BOUND('',#176,.T.);
#37=FACE_BOUND('',#188,.T.);
#38=FACE_BOUND('',#189,.T.);
#39=FACE_BOUND('',#190,.T.);
#40=FACE_BOUND('',#191,.T.);
#41=FACE_BOUND('',#192,.T.);
#42=FACE_BOUND('',#193,.T.);
#43=FACE_BOUND('',#194,.T.);
#44=FACE_BOUND('',#195,.T.);
#45=FACE_BOUND('',#196,.T.);
#46=FACE_BOUND('',#197,.T.);
#47=PLANE('',#919);
#48=PLANE('',#923);
#49=PLANE('',#927);
#50=PLANE('',#931);
#51=PLANE('',#932);
#52=PLANE('',#939);
#53=PLANE('',#944);
#54=PLANE('',#948);
#55=PLANE('',#957);
#56=PLANE('',#958);
#57=PLANE('',#959);
#58=PLANE('',#960);
#59=PLANE('',#967);
#60=PLANE('',#972);
#61=PLANE('',#977);
#62=PLANE('',#982);
#63=PLANE('',#995);
#64=PLANE('',#996);
#65=PLANE('',#1005);
#66=PLANE('',#1010);
#67=PLANE('',#1017);
#68=PLANE('',#1018);
#69=PLANE('',#1019);
#70=FACE_OUTER_BOUND('',#120,.T.);
#71=FACE_OUTER_BOUND('',#121,.T.);
#72=FACE_OUTER_BOUND('',#122,.T.);
#73=FACE_OUTER_BOUND('',#123,.T.);
#74=FACE_OUTER_BOUND('',#124,.T.);
#75=FACE_OUTER_BOUND('',#125,.T.);
#76=FACE_OUTER_BOUND('',#126,.T.);
#77=FACE_OUTER_BOUND('',#127,.T.);
#78=FACE_OUTER_BOUND('',#128,.T.);
#79=FACE_OUTER_BOUND('',#130,.T.);
#80=FACE_OUTER_BOUND('',#131,.T.);
#81=FACE_OUTER_BOUND('',#132,.T.);
#82=FACE_OUTER_BOUND('',#134,.T.);
#83=FACE_OUTER_BOUND('',#135,.T.);
#84=FACE_OUTER_BOUND('',#137,.T.);
#85=FACE_OUTER_BOUND('',#138,.T.);
#86=FACE_OUTER_BOUND('',#140,.T.);
#87=FACE_OUTER_BOUND('',#141,.T.);
#88=FACE_OUTER_BOUND('',#142,.T.);
#89=FACE_OUTER_BOUND('',#143,.T.);
#90=FACE_OUTER_BOUND('',#144,.T.);
#91=FACE_OUTER_BOUND('',#145,.T.);
#92=FACE_OUTER_BOUND('',#146,.T.);
#93=FACE_OUTER_BOUND('',#147,.T.);
#94=FACE_OUTER_BOUND('',#148,.T.);
#95=FACE_OUTER_BOUND('',#149,.T.);
#96=FACE_OUTER_BOUND('',#151,.T.);
#97=FACE_OUTER_BOUND('',#152,.T.);
#98=FACE_OUTER_BOUND('',#154,.T.);
#99=FACE_OUTER_BOUND('',#155,.T.);
#100=FACE_OUTER_BOUND('',#157,.T.);
#101=FACE_OUTER_BOUND('',#158,.T.);
#102=FACE_OUTER_BOUND('',#160,.T.);
#103=FACE_OUTER_BOUND('',#161,.T.);
#104=FACE_OUTER_BOUND('',#162,.T.);
#105=FACE_OUTER_BOUND('',#163,.T.);
#106=FACE_OUTER_BOUND('',#164,.T.);
#107=FACE_OUTER_BOUND('',#165,.T.);
#108=FACE_OUTER_BOUND('',#166,.T.);
#109=FACE_OUTER_BOUND('',#177,.T.);
#110=FACE_OUTER_BOUND('',#178,.T.);
#111=FACE_OUTER_BOUND('',#179,.T.);
#112=FACE_OUTER_BOUND('',#180,.T.);
#113=FACE_OUTER_BOUND('',#181,.T.);
#114=FACE_OUTER_BOUND('',#182,.T.);
#115=FACE_OUTER_BOUND('',#183,.T.);
#116=FACE_OUTER_BOUND('',#184,.T.);
#117=FACE_OUTER_BOUND('',#185,.T.);
#118=FACE_OUTER_BOUND('',#186,.T.);
#119=FACE_OUTER_BOUND('',#187,.T.);
#120=EDGE_LOOP('',(#584,#585,#586,#587));
#121=EDGE_LOOP('',(#588,#589,#590,#591));
#122=EDGE_LOOP('',(#592,#593,#594,#595));
#123=EDGE_LOOP('',(#596,#597,#598,#599));
#124=EDGE_LOOP('',(#600,#601,#602,#603));
#125=EDGE_LOOP('',(#604,#605,#606,#607));
#126=EDGE_LOOP('',(#608,#609,#610,#611));
#127=EDGE_LOOP('',(#612,#613,#614,#615));
#128=EDGE_LOOP('',(#616,#617,#618,#619,#620,#621,#622,#623));
#129=EDGE_LOOP('',(#624));
#130=EDGE_LOOP('',(#625,#626,#627,#628));
#131=EDGE_LOOP('',(#629,#630,#631,#632));
#132=EDGE_LOOP('',(#633));
#133=EDGE_LOOP('',(#634));
#134=EDGE_LOOP('',(#635,#636,#637,#638));
#135=EDGE_LOOP('',(#639));
#136=EDGE_LOOP('',(#640));
#137=EDGE_LOOP('',(#641,#642,#643,#644));
#138=EDGE_LOOP('',(#645));
#139=EDGE_LOOP('',(#646));
#140=EDGE_LOOP('',(#647,#648,#649,#650));
#141=EDGE_LOOP('',(#651,#652,#653,#654));
#142=EDGE_LOOP('',(#655,#656,#657,#658));
#143=EDGE_LOOP('',(#659,#660,#661,#662));
#144=EDGE_LOOP('',(#663,#664,#665,#666));
#145=EDGE_LOOP('',(#667,#668,#669,#670));
#146=EDGE_LOOP('',(#671,#672,#673,#674));
#147=EDGE_LOOP('',(#675,#676,#677,#678));
#148=EDGE_LOOP('',(#679,#680,#681,#682));
#149=EDGE_LOOP('',(#683));
#150=EDGE_LOOP('',(#684));
#151=EDGE_LOOP('',(#685,#686,#687,#688));
#152=EDGE_LOOP('',(#689));
#153=EDGE_LOOP('',(#690));
#154=EDGE_LOOP('',(#691,#692,#693,#694));
#155=EDGE_LOOP('',(#695));
#156=EDGE_LOOP('',(#696));
#157=EDGE_LOOP('',(#697,#698,#699,#700));
#158=EDGE_LOOP('',(#701));
#159=EDGE_LOOP('',(#702));
#160=EDGE_LOOP('',(#703,#704,#705,#706));
#161=EDGE_LOOP('',(#707,#708,#709,#710));
#162=EDGE_LOOP('',(#711,#712,#713,#714));
#163=EDGE_LOOP('',(#715,#716,#717,#718));
#164=EDGE_LOOP('',(#719,#720,#721,#722));
#165=EDGE_LOOP('',(#723,#724,#725,#726));
#166=EDGE_LOOP('',(#727,#728,#729,#730,#731,#732,#733,#734,#735,#736,#737,
#738));
#167=EDGE_LOOP('',(#739));
#168=EDGE_LOOP('',(#740));
#169=EDGE_LOOP('',(#741));
#170=EDGE_LOOP('',(#742));
#171=EDGE_LOOP('',(#743));
#172=EDGE_LOOP('',(#744));
#173=EDGE_LOOP('',(#745));
#174=EDGE_LOOP('',(#746,#747,#748,#749));
#175=EDGE_LOOP('',(#750));
#176=EDGE_LOOP('',(#751));
#177=EDGE_LOOP('',(#752,#753,#754,#755));
#178=EDGE_LOOP('',(#756,#757,#758,#759));
#179=EDGE_LOOP('',(#760,#761,#762,#763));
#180=EDGE_LOOP('',(#764,#765,#766,#767));
#181=EDGE_LOOP('',(#768,#769,#770,#771));
#182=EDGE_LOOP('',(#772,#773,#774,#775));
#183=EDGE_LOOP('',(#776,#777,#778,#779));
#184=EDGE_LOOP('',(#780,#781,#782,#783));
#185=EDGE_LOOP('',(#784,#785,#786,#787));
#186=EDGE_LOOP('',(#788,#789,#790,#791));
#187=EDGE_LOOP('',(#792,#793,#794,#795,#796,#797,#798,#799,#800,#801,#802,
#803));
#188=EDGE_LOOP('',(#804));
#189=EDGE_LOOP('',(#805));
#190=EDGE_LOOP('',(#806,#807,#808,#809));
#191=EDGE_LOOP('',(#810));
#192=EDGE_LOOP('',(#811));
#193=EDGE_LOOP('',(#812));
#194=EDGE_LOOP('',(#813));
#195=EDGE_LOOP('',(#814));
#196=EDGE_LOOP('',(#815));
#197=EDGE_LOOP('',(#816,#817,#818,#819,#820,#821,#822,#823));
#198=LINE('',#1308,#264);
#199=LINE('',#1311,#265);
#200=LINE('',#1314,#266);
#201=LINE('',#1316,#267);
#202=LINE('',#1317,#268);
#203=LINE('',#1323,#269);
#204=LINE('',#1326,#270);
#205=LINE('',#1328,#271);
#206=LINE('',#1329,#272);
#207=LINE('',#1335,#273);
#208=LINE('',#1338,#274);
#209=LINE('',#1340,#275);
#210=LINE('',#1341,#276);
#211=LINE('',#1347,#277);
#212=LINE('',#1349,#278);
#213=LINE('',#1350,#279);
#214=LINE('',#1356,#280);
#215=LINE('',#1362,#281);
#216=LINE('',#1371,#282);
#217=LINE('',#1378,#283);
#218=LINE('',#1385,#284);
#219=LINE('',#1389,#285);
#220=LINE('',#1395,#286);
#221=LINE('',#1400,#287);
#222=LINE('',#1402,#288);
#223=LINE('',#1404,#289);
#224=LINE('',#1405,#290);
#225=LINE('',#1408,#291);
#226=LINE('',#1410,#292);
#227=LINE('',#1411,#293);
#228=LINE('',#1414,#294);
#229=LINE('',#1416,#295);
#230=LINE('',#1417,#296);
#231=LINE('',#1419,#297);
#232=LINE('',#1420,#298);
#233=LINE('',#1425,#299);
#234=LINE('',#1431,#300);
#235=LINE('',#1440,#301);
#236=LINE('',#1449,#302);
#237=LINE('',#1458,#303);
#238=LINE('',#1465,#304);
#239=LINE('',#1469,#305);
#240=LINE('',#1473,#306);
#241=LINE('',#1477,#307);
#242=LINE('',#1484,#308);
#243=LINE('',#1487,#309);
#244=LINE('',#1490,#310);
#245=LINE('',#1492,#311);
#246=LINE('',#1493,#312);
#247=LINE('',#1496,#313);
#248=LINE('',#1500,#314);
#249=LINE('',#1504,#315);
#250=LINE('',#1508,#316);
#251=LINE('',#1518,#317);
#252=LINE('',#1519,#318);
#253=LINE('',#1522,#319);
#254=LINE('',#1523,#320);
#255=LINE('',#1527,#321);
#256=LINE('',#1532,#322);
#257=LINE('',#1533,#323);
#258=LINE('',#1536,#324);
#259=LINE('',#1537,#325);
#260=LINE('',#1541,#326);
#261=LINE('',#1545,#327);
#262=LINE('',#1549,#328);
#263=LINE('',#1551,#329);
#264=VECTOR('',#1029,10.);
#265=VECTOR('',#1032,10.);
#266=VECTOR('',#1035,10.);
#267=VECTOR('',#1036,10.);
#268=VECTOR('',#1037,10.);
#269=VECTOR('',#1044,10.);
#270=VECTOR('',#1047,10.);
#271=VECTOR('',#1048,10.);
#272=VECTOR('',#1049,10.);
#273=VECTOR('',#1056,10.);
#274=VECTOR('',#1059,10.);
#275=VECTOR('',#1060,10.);
#276=VECTOR('',#1061,10.);
#277=VECTOR('',#1068,10.);
#278=VECTOR('',#1071,10.);
#279=VECTOR('',#1072,10.);
#280=VECTOR('',#1079,1.1);
#281=VECTOR('',#1086,6.5);
#282=VECTOR('',#1097,7.8);
#283=VECTOR('',#1106,5.);
#284=VECTOR('',#1115,1.1);
#285=VECTOR('',#1120,1.1);
#286=VECTOR('',#1127,1.1);
#287=VECTOR('',#1132,10.);
#288=VECTOR('',#1133,10.);
#289=VECTOR('',#1134,10.);
#290=VECTOR('',#1135,10.);
#291=VECTOR('',#1138,10.);
#292=VECTOR('',#1139,10.);
#293=VECTOR('',#1140,10.);
#294=VECTOR('',#1143,10.);
#295=VECTOR('',#1144,10.);
#296=VECTOR('',#1145,10.);
#297=VECTOR('',#1148,10.);
#298=VECTOR('',#1149,10.);
#299=VECTOR('',#1154,1.1);
#300=VECTOR('',#1161,2.);
#301=VECTOR('',#1172,2.);
#302=VECTOR('',#1183,2.);
#303=VECTOR('',#1194,2.);
#304=VECTOR('',#1203,1.1);
#305=VECTOR('',#1208,1.1);
#306=VECTOR('',#1213,1.1);
#307=VECTOR('',#1218,1.1);
#308=VECTOR('',#1225,10.);
#309=VECTOR('',#1228,10.);
#310=VECTOR('',#1231,10.);
#311=VECTOR('',#1232,10.);
#312=VECTOR('',#1233,10.);
#313=VECTOR('',#1236,10.);
#314=VECTOR('',#1239,10.);
#315=VECTOR('',#1242,10.);
#316=VECTOR('',#1245,10.);
#317=VECTOR('',#1256,10.);
#318=VECTOR('',#1257,10.);
#319=VECTOR('',#1260,10.);
#320=VECTOR('',#1261,10.);
#321=VECTOR('',#1266,10.);
#322=VECTOR('',#1271,10.);
#323=VECTOR('',#1272,10.);
#324=VECTOR('',#1275,10.);
#325=VECTOR('',#1276,10.);
#326=VECTOR('',#1281,10.);
#327=VECTOR('',#1286,10.);
#328=VECTOR('',#1293,10.);
#329=VECTOR('',#1296,10.);
#330=CIRCLE('',#917,4.3);
#331=CIRCLE('',#918,4.3);
#332=CIRCLE('',#921,4.3);
#333=CIRCLE('',#922,4.3);
#334=CIRCLE('',#925,4.3);
#335=CIRCLE('',#926,4.3);
#336=CIRCLE('',#929,4.3);
#337=CIRCLE('',#930,4.3);
#338=CIRCLE('',#933,1.1);
#339=CIRCLE('',#935,1.1);
#340=CIRCLE('',#937,6.5);
#341=CIRCLE('',#938,6.5);
#342=CIRCLE('',#940,5.);
#343=CIRCLE('',#942,7.8);
#344=CIRCLE('',#943,7.8);
#345=CIRCLE('',#945,1.1);
#346=CIRCLE('',#947,5.);
#347=CIRCLE('',#949,1.1);
#348=CIRCLE('',#951,1.1);
#349=CIRCLE('',#953,1.1);
#350=CIRCLE('',#955,1.1);
#351=CIRCLE('',#956,1.1);
#352=CIRCLE('',#962,1.1);
#353=CIRCLE('',#963,1.1);
#354=CIRCLE('',#965,2.);
#355=CIRCLE('',#966,2.);
#356=CIRCLE('',#968,1.1);
#357=CIRCLE('',#970,2.);
#358=CIRCLE('',#971,2.);
#359=CIRCLE('',#973,1.1);
#360=CIRCLE('',#975,2.);
#361=CIRCLE('',#976,2.);
#362=CIRCLE('',#978,1.1);
#363=CIRCLE('',#980,2.);
#364=CIRCLE('',#981,2.);
#365=CIRCLE('',#983,1.1);
#366=CIRCLE('',#985,1.1);
#367=CIRCLE('',#987,1.1);
#368=CIRCLE('',#989,1.1);
#369=CIRCLE('',#991,1.1);
#370=CIRCLE('',#993,5.);
#371=CIRCLE('',#994,5.);
#372=CIRCLE('',#997,5.);
#373=CIRCLE('',#998,5.);
#374=CIRCLE('',#999,5.);
#375=CIRCLE('',#1000,20.);
#376=CIRCLE('',#1001,94.464499997365);
#377=CIRCLE('',#1002,20.);
#378=CIRCLE('',#1004,5.);
#379=CIRCLE('',#1007,5.);
#380=CIRCLE('',#1009,5.);
#381=CIRCLE('',#1012,20.);
#382=CIRCLE('',#1014,20.);
#383=CIRCLE('',#1016,94.464499997365);
#384=VERTEX_POINT('',#1304);
#385=VERTEX_POINT('',#1305);
#386=VERTEX_POINT('',#1307);
#387=VERTEX_POINT('',#1309);
#388=VERTEX_POINT('',#1313);
#389=VERTEX_POINT('',#1315);
#390=VERTEX_POINT('',#1319);
#391=VERTEX_POINT('',#1321);
#392=VERTEX_POINT('',#1325);
#393=VERTEX_POINT('',#1327);
#394=VERTEX_POINT('',#1331);
#395=VERTEX_POINT('',#1333);
#396=VERTEX_POINT('',#1337);
#397=VERTEX_POINT('',#1339);
#398=VERTEX_POINT('',#1343);
#399=VERTEX_POINT('',#1345);
#400=VERTEX_POINT('',#1352);
#401=VERTEX_POINT('',#1355);
#402=VERTEX_POINT('',#1359);
#403=VERTEX_POINT('',#1361);
#404=VERTEX_POINT('',#1365);
#405=VERTEX_POINT('',#1368);
#406=VERTEX_POINT('',#1370);
#407=VERTEX_POINT('',#1374);
#408=VERTEX_POINT('',#1377);
#409=VERTEX_POINT('',#1381);
#410=VERTEX_POINT('',#1384);
#411=VERTEX_POINT('',#1388);
#412=VERTEX_POINT('',#1392);
#413=VERTEX_POINT('',#1394);
#414=VERTEX_POINT('',#1398);
#415=VERTEX_POINT('',#1399);
#416=VERTEX_POINT('',#1401);
#417=VERTEX_POINT('',#1403);
#418=VERTEX_POINT('',#1407);
#419=VERTEX_POINT('',#1409);
#420=VERTEX_POINT('',#1413);
#421=VERTEX_POINT('',#1415);
#422=VERTEX_POINT('',#1422);
#423=VERTEX_POINT('',#1424);
#424=VERTEX_POINT('',#1428);
#425=VERTEX_POINT('',#1430);
#426=VERTEX_POINT('',#1434);
#427=VERTEX_POINT('',#1437);
#428=VERTEX_POINT('',#1439);
#429=VERTEX_POINT('',#1443);
#430=VERTEX_POINT('',#1446);
#431=VERTEX_POINT('',#1448);
#432=VERTEX_POINT('',#1452);
#433=VERTEX_POINT('',#1455);
#434=VERTEX_POINT('',#1457);
#435=VERTEX_POINT('',#1461);
#436=VERTEX_POINT('',#1464);
#437=VERTEX_POINT('',#1468);
#438=VERTEX_POINT('',#1472);
#439=VERTEX_POINT('',#1476);
#440=VERTEX_POINT('',#1480);
#441=VERTEX_POINT('',#1481);
#442=VERTEX_POINT('',#1483);
#443=VERTEX_POINT('',#1485);
#444=VERTEX_POINT('',#1489);
#445=VERTEX_POINT('',#1491);
#446=VERTEX_POINT('',#1495);
#447=VERTEX_POINT('',#1497);
#448=VERTEX_POINT('',#1499);
#449=VERTEX_POINT('',#1501);
#450=VERTEX_POINT('',#1503);
#451=VERTEX_POINT('',#1505);
#452=VERTEX_POINT('',#1507);
#453=VERTEX_POINT('',#1509);
#454=VERTEX_POINT('',#1511);
#455=VERTEX_POINT('',#1515);
#456=VERTEX_POINT('',#1516);
#457=VERTEX_POINT('',#1521);
#458=VERTEX_POINT('',#1525);
#459=VERTEX_POINT('',#1529);
#460=VERTEX_POINT('',#1530);
#461=VERTEX_POINT('',#1535);
#462=VERTEX_POINT('',#1539);
#463=VERTEX_POINT('',#1543);
#464=EDGE_CURVE('',#384,#385,#330,.T.);
#465=EDGE_CURVE('',#384,#386,#198,.T.);
#466=EDGE_CURVE('',#386,#387,#331,.T.);
#467=EDGE_CURVE('',#387,#385,#199,.T.);
#468=EDGE_CURVE('',#388,#387,#200,.T.);
#469=EDGE_CURVE('',#389,#388,#201,.T.);
#470=EDGE_CURVE('',#389,#385,#202,.T.);
#471=EDGE_CURVE('',#389,#390,#332,.T.);
#472=EDGE_CURVE('',#388,#391,#333,.T.);
#473=EDGE_CURVE('',#391,#390,#203,.T.);
#474=EDGE_CURVE('',#392,#391,#204,.T.);
#475=EDGE_CURVE('',#393,#392,#205,.T.);
#476=EDGE_CURVE('',#393,#390,#206,.T.);
#477=EDGE_CURVE('',#393,#394,#334,.T.);
#478=EDGE_CURVE('',#392,#395,#335,.T.);
#479=EDGE_CURVE('',#395,#394,#207,.T.);
#480=EDGE_CURVE('',#396,#395,#208,.T.);
#481=EDGE_CURVE('',#397,#396,#209,.T.);
#482=EDGE_CURVE('',#397,#394,#210,.T.);
#483=EDGE_CURVE('',#397,#398,#336,.T.);
#484=EDGE_CURVE('',#396,#399,#337,.T.);
#485=EDGE_CURVE('',#399,#398,#211,.T.);
#486=EDGE_CURVE('',#384,#398,#212,.T.);
#487=EDGE_CURVE('',#386,#399,#213,.T.);
#488=EDGE_CURVE('',#400,#400,#338,.T.);
#489=EDGE_CURVE('',#400,#401,#214,.T.);
#490=EDGE_CURVE('',#401,#401,#339,.T.);
#491=EDGE_CURVE('',#402,#402,#340,.T.);
#492=EDGE_CURVE('',#402,#403,#215,.T.);
#493=EDGE_CURVE('',#403,#403,#341,.T.);
#494=EDGE_CURVE('',#404,#404,#342,.T.);
#495=EDGE_CURVE('',#405,#405,#343,.T.);
#496=EDGE_CURVE('',#405,#406,#216,.T.);
#497=EDGE_CURVE('',#406,#406,#344,.T.);
#498=EDGE_CURVE('',#407,#407,#345,.T.);
#499=EDGE_CURVE('',#404,#408,#217,.T.);
#500=EDGE_CURVE('',#408,#408,#346,.T.);
#501=EDGE_CURVE('',#409,#409,#347,.T.);
#502=EDGE_CURVE('',#407,#410,#218,.T.);
#503=EDGE_CURVE('',#410,#410,#348,.T.);
#504=EDGE_CURVE('',#409,#411,#219,.T.);
#505=EDGE_CURVE('',#411,#411,#349,.T.);
#506=EDGE_CURVE('',#412,#412,#350,.T.);
#507=EDGE_CURVE('',#412,#413,#220,.T.);
#508=EDGE_CURVE('',#413,#413,#351,.T.);
#509=EDGE_CURVE('',#414,#415,#221,.T.);
#510=EDGE_CURVE('',#416,#414,#222,.T.);
#511=EDGE_CURVE('',#417,#416,#223,.T.);
#512=EDGE_CURVE('',#417,#415,#224,.T.);
#513=EDGE_CURVE('',#415,#418,#225,.T.);
#514=EDGE_CURVE('',#419,#417,#226,.T.);
#515=EDGE_CURVE('',#419,#418,#227,.T.);
#516=EDGE_CURVE('',#418,#420,#228,.T.);
#517=EDGE_CURVE('',#421,#419,#229,.T.);
#518=EDGE_CURVE('',#421,#420,#230,.T.);
#519=EDGE_CURVE('',#420,#414,#231,.T.);
#520=EDGE_CURVE('',#416,#421,#232,.T.);
#521=EDGE_CURVE('',#422,#422,#352,.T.);
#522=EDGE_CURVE('',#422,#423,#233,.T.);
#523=EDGE_CURVE('',#423,#423,#353,.T.);
#524=EDGE_CURVE('',#424,#424,#354,.T.);
#525=EDGE_CURVE('',#424,#425,#234,.T.);
#526=EDGE_CURVE('',#425,#425,#355,.T.);
#527=EDGE_CURVE('',#426,#426,#356,.T.);
#528=EDGE_CURVE('',#427,#427,#357,.T.);
#529=EDGE_CURVE('',#427,#428,#235,.T.);
#530=EDGE_CURVE('',#428,#428,#358,.T.);
#531=EDGE_CURVE('',#429,#429,#359,.T.);
#532=EDGE_CURVE('',#430,#430,#360,.T.);
#533=EDGE_CURVE('',#430,#431,#236,.T.);
#534=EDGE_CURVE('',#431,#431,#361,.T.);
#535=EDGE_CURVE('',#432,#432,#362,.T.);
#536=EDGE_CURVE('',#433,#433,#363,.T.);
#537=EDGE_CURVE('',#433,#434,#237,.T.);
#538=EDGE_CURVE('',#434,#434,#364,.T.);
#539=EDGE_CURVE('',#435,#435,#365,.T.);
#540=EDGE_CURVE('',#435,#436,#238,.T.);
#541=EDGE_CURVE('',#436,#436,#366,.T.);
#542=EDGE_CURVE('',#426,#437,#239,.T.);
#543=EDGE_CURVE('',#437,#437,#367,.T.);
#544=EDGE_CURVE('',#429,#438,#240,.T.);
#545=EDGE_CURVE('',#438,#438,#368,.T.);
#546=EDGE_CURVE('',#432,#439,#241,.T.);
#547=EDGE_CURVE('',#439,#439,#369,.T.);
#548=EDGE_CURVE('',#440,#441,#370,.T.);
#549=EDGE_CURVE('',#441,#442,#242,.T.);
#550=EDGE_CURVE('',#442,#443,#371,.T.);
#551=EDGE_CURVE('',#443,#440,#243,.T.);
#552=EDGE_CURVE('',#443,#444,#244,.T.);
#553=EDGE_CURVE('',#445,#444,#245,.T.);
#554=EDGE_CURVE('',#440,#445,#246,.T.);
#555=EDGE_CURVE('',#446,#442,#247,.T.);
#556=EDGE_CURVE('',#447,#446,#372,.T.);
#557=EDGE_CURVE('',#448,#447,#248,.T.);
#558=EDGE_CURVE('',#449,#448,#373,.T.);
#559=EDGE_CURVE('',#450,#449,#249,.T.);
#560=EDGE_CURVE('',#451,#450,#374,.T.);
#561=EDGE_CURVE('',#451,#452,#250,.T.);
#562=EDGE_CURVE('',#453,#452,#375,.T.);
#563=EDGE_CURVE('',#453,#454,#376,.T.);
#564=EDGE_CURVE('',#444,#454,#377,.T.);
#565=EDGE_CURVE('',#455,#456,#378,.T.);
#566=EDGE_CURVE('',#456,#447,#251,.T.);
#567=EDGE_CURVE('',#446,#455,#252,.T.);
#568=EDGE_CURVE('',#457,#456,#253,.T.);
#569=EDGE_CURVE('',#448,#457,#254,.T.);
#570=EDGE_CURVE('',#457,#458,#379,.T.);
#571=EDGE_CURVE('',#458,#449,#255,.T.);
#572=EDGE_CURVE('',#459,#460,#380,.T.);
#573=EDGE_CURVE('',#460,#451,#256,.T.);
#574=EDGE_CURVE('',#450,#459,#257,.T.);
#575=EDGE_CURVE('',#461,#460,#258,.T.);
#576=EDGE_CURVE('',#452,#461,#259,.T.);
#577=EDGE_CURVE('',#461,#462,#381,.T.);
#578=EDGE_CURVE('',#462,#453,#260,.T.);
#579=EDGE_CURVE('',#463,#445,#382,.T.);
#580=EDGE_CURVE('',#454,#463,#261,.T.);
#581=EDGE_CURVE('',#463,#462,#383,.T.);
#582=EDGE_CURVE('',#455,#441,#262,.T.);
#583=EDGE_CURVE('',#459,#458,#263,.T.);
#584=ORIENTED_EDGE('',*,*,#464,.F.);
#585=ORIENTED_EDGE('',*,*,#465,.T.);
#586=ORIENTED_EDGE('',*,*,#466,.T.);
#587=ORIENTED_EDGE('',*,*,#467,.T.);
#588=ORIENTED_EDGE('',*,*,#467,.F.);
#589=ORIENTED_EDGE('',*,*,#468,.F.);
#590=ORIENTED_EDGE('',*,*,#469,.F.);
#591=ORIENTED_EDGE('',*,*,#470,.T.);
#592=ORIENTED_EDGE('',*,*,#471,.F.);
#593=ORIENTED_EDGE('',*,*,#469,.T.);
#594=ORIENTED_EDGE('',*,*,#472,.T.);
#595=ORIENTED_EDGE('',*,*,#473,.T.);
#596=ORIENTED_EDGE('',*,*,#473,.F.);
#597=ORIENTED_EDGE('',*,*,#474,.F.);
#598=ORIENTED_EDGE('',*,*,#475,.F.);
#599=ORIENTED_EDGE('',*,*,#476,.T.);
#600=ORIENTED_EDGE('',*,*,#477,.F.);
#601=ORIENTED_EDGE('',*,*,#475,.T.);
#602=ORIENTED_EDGE('',*,*,#478,.T.);
#603=ORIENTED_EDGE('',*,*,#479,.T.);
#604=ORIENTED_EDGE('',*,*,#479,.F.);
#605=ORIENTED_EDGE('',*,*,#480,.F.);
#606=ORIENTED_EDGE('',*,*,#481,.F.);
#607=ORIENTED_EDGE('',*,*,#482,.T.);
#608=ORIENTED_EDGE('',*,*,#483,.F.);
#609=ORIENTED_EDGE('',*,*,#481,.T.);
#610=ORIENTED_EDGE('',*,*,#484,.T.);
#611=ORIENTED_EDGE('',*,*,#485,.T.);
#612=ORIENTED_EDGE('',*,*,#465,.F.);
#613=ORIENTED_EDGE('',*,*,#486,.T.);
#614=ORIENTED_EDGE('',*,*,#485,.F.);
#615=ORIENTED_EDGE('',*,*,#487,.F.);
#616=ORIENTED_EDGE('',*,*,#464,.T.);
#617=ORIENTED_EDGE('',*,*,#470,.F.);
#618=ORIENTED_EDGE('',*,*,#471,.T.);
#619=ORIENTED_EDGE('',*,*,#476,.F.);
#620=ORIENTED_EDGE('',*,*,#477,.T.);
#621=ORIENTED_EDGE('',*,*,#482,.F.);
#622=ORIENTED_EDGE('',*,*,#483,.T.);
#623=ORIENTED_EDGE('',*,*,#486,.F.);
#624=ORIENTED_EDGE('',*,*,#488,.F.);
#625=ORIENTED_EDGE('',*,*,#488,.T.);
#626=ORIENTED_EDGE('',*,*,#489,.T.);
#627=ORIENTED_EDGE('',*,*,#490,.F.);
#628=ORIENTED_EDGE('',*,*,#489,.F.);
#629=ORIENTED_EDGE('',*,*,#491,.F.);
#630=ORIENTED_EDGE('',*,*,#492,.T.);
#631=ORIENTED_EDGE('',*,*,#493,.F.);
#632=ORIENTED_EDGE('',*,*,#492,.F.);
#633=ORIENTED_EDGE('',*,*,#491,.T.);
#634=ORIENTED_EDGE('',*,*,#494,.T.);
#635=ORIENTED_EDGE('',*,*,#495,.F.);
#636=ORIENTED_EDGE('',*,*,#496,.T.);
#637=ORIENTED_EDGE('',*,*,#497,.T.);
#638=ORIENTED_EDGE('',*,*,#496,.F.);
#639=ORIENTED_EDGE('',*,*,#497,.F.);
#640=ORIENTED_EDGE('',*,*,#498,.F.);
#641=ORIENTED_EDGE('',*,*,#494,.F.);
#642=ORIENTED_EDGE('',*,*,#499,.T.);
#643=ORIENTED_EDGE('',*,*,#500,.T.);
#644=ORIENTED_EDGE('',*,*,#499,.F.);
#645=ORIENTED_EDGE('',*,*,#500,.F.);
#646=ORIENTED_EDGE('',*,*,#501,.F.);
#647=ORIENTED_EDGE('',*,*,#498,.T.);
#648=ORIENTED_EDGE('',*,*,#502,.T.);
#649=ORIENTED_EDGE('',*,*,#503,.F.);
#650=ORIENTED_EDGE('',*,*,#502,.F.);
#651=ORIENTED_EDGE('',*,*,#501,.T.);
#652=ORIENTED_EDGE('',*,*,#504,.T.);
#653=ORIENTED_EDGE('',*,*,#505,.F.);
#654=ORIENTED_EDGE('',*,*,#504,.F.);
#655=ORIENTED_EDGE('',*,*,#506,.F.);
#656=ORIENTED_EDGE('',*,*,#507,.T.);
#657=ORIENTED_EDGE('',*,*,#508,.F.);
#658=ORIENTED_EDGE('',*,*,#507,.F.);
#659=ORIENTED_EDGE('',*,*,#509,.F.);
#660=ORIENTED_EDGE('',*,*,#510,.F.);
#661=ORIENTED_EDGE('',*,*,#511,.F.);
#662=ORIENTED_EDGE('',*,*,#512,.T.);
#663=ORIENTED_EDGE('',*,*,#513,.F.);
#664=ORIENTED_EDGE('',*,*,#512,.F.);
#665=ORIENTED_EDGE('',*,*,#514,.F.);
#666=ORIENTED_EDGE('',*,*,#515,.T.);
#667=ORIENTED_EDGE('',*,*,#516,.F.);
#668=ORIENTED_EDGE('',*,*,#515,.F.);
#669=ORIENTED_EDGE('',*,*,#517,.F.);
#670=ORIENTED_EDGE('',*,*,#518,.T.);
#671=ORIENTED_EDGE('',*,*,#519,.F.);
#672=ORIENTED_EDGE('',*,*,#518,.F.);
#673=ORIENTED_EDGE('',*,*,#520,.F.);
#674=ORIENTED_EDGE('',*,*,#510,.T.);
#675=ORIENTED_EDGE('',*,*,#521,.F.);
#676=ORIENTED_EDGE('',*,*,#522,.T.);
#677=ORIENTED_EDGE('',*,*,#523,.F.);
#678=ORIENTED_EDGE('',*,*,#522,.F.);
#679=ORIENTED_EDGE('',*,*,#524,.F.);
#680=ORIENTED_EDGE('',*,*,#525,.T.);
#681=ORIENTED_EDGE('',*,*,#526,.T.);
#682=ORIENTED_EDGE('',*,*,#525,.F.);
#683=ORIENTED_EDGE('',*,*,#526,.F.);
#684=ORIENTED_EDGE('',*,*,#527,.F.);
#685=ORIENTED_EDGE('',*,*,#528,.F.);
#686=ORIENTED_EDGE('',*,*,#529,.T.);
#687=ORIENTED_EDGE('',*,*,#530,.T.);
#688=ORIENTED_EDGE('',*,*,#529,.F.);
#689=ORIENTED_EDGE('',*,*,#530,.F.);
#690=ORIENTED_EDGE('',*,*,#531,.F.);
#691=ORIENTED_EDGE('',*,*,#532,.F.);
#692=ORIENTED_EDGE('',*,*,#533,.T.);
#693=ORIENTED_EDGE('',*,*,#534,.T.);
#694=ORIENTED_EDGE('',*,*,#533,.F.);
#695=ORIENTED_EDGE('',*,*,#534,.F.);
#696=ORIENTED_EDGE('',*,*,#535,.F.);
#697=ORIENTED_EDGE('',*,*,#536,.F.);
#698=ORIENTED_EDGE('',*,*,#537,.T.);
#699=ORIENTED_EDGE('',*,*,#538,.T.);
#700=ORIENTED_EDGE('',*,*,#537,.F.);
#701=ORIENTED_EDGE('',*,*,#538,.F.);
#702=ORIENTED_EDGE('',*,*,#539,.F.);
#703=ORIENTED_EDGE('',*,*,#539,.T.);
#704=ORIENTED_EDGE('',*,*,#540,.T.);
#705=ORIENTED_EDGE('',*,*,#541,.F.);
#706=ORIENTED_EDGE('',*,*,#540,.F.);
#707=ORIENTED_EDGE('',*,*,#527,.T.);
#708=ORIENTED_EDGE('',*,*,#542,.T.);
#709=ORIENTED_EDGE('',*,*,#543,.F.);
#710=ORIENTED_EDGE('',*,*,#542,.F.);
#711=ORIENTED_EDGE('',*,*,#531,.T.);
#712=ORIENTED_EDGE('',*,*,#544,.T.);
#713=ORIENTED_EDGE('',*,*,#545,.F.);
#714=ORIENTED_EDGE('',*,*,#544,.F.);
#715=ORIENTED_EDGE('',*,*,#535,.T.);
#716=ORIENTED_EDGE('',*,*,#546,.T.);
#717=ORIENTED_EDGE('',*,*,#547,.F.);
#718=ORIENTED_EDGE('',*,*,#546,.F.);
#719=ORIENTED_EDGE('',*,*,#548,.T.);
#720=ORIENTED_EDGE('',*,*,#549,.T.);
#721=ORIENTED_EDGE('',*,*,#550,.T.);
#722=ORIENTED_EDGE('',*,*,#551,.T.);
#723=ORIENTED_EDGE('',*,*,#551,.F.);
#724=ORIENTED_EDGE('',*,*,#552,.T.);
#725=ORIENTED_EDGE('',*,*,#553,.F.);
#726=ORIENTED_EDGE('',*,*,#554,.F.);
#727=ORIENTED_EDGE('',*,*,#550,.F.);
#728=ORIENTED_EDGE('',*,*,#555,.F.);
#729=ORIENTED_EDGE('',*,*,#556,.F.);
#730=ORIENTED_EDGE('',*,*,#557,.F.);
#731=ORIENTED_EDGE('',*,*,#558,.F.);
#732=ORIENTED_EDGE('',*,*,#559,.F.);
#733=ORIENTED_EDGE('',*,*,#560,.F.);
#734=ORIENTED_EDGE('',*,*,#561,.T.);
#735=ORIENTED_EDGE('',*,*,#562,.F.);
#736=ORIENTED_EDGE('',*,*,#563,.T.);
#737=ORIENTED_EDGE('',*,*,#564,.F.);
#738=ORIENTED_EDGE('',*,*,#552,.F.);
#739=ORIENTED_EDGE('',*,*,#503,.T.);
#740=ORIENTED_EDGE('',*,*,#505,.T.);
#741=ORIENTED_EDGE('',*,*,#547,.T.);
#742=ORIENTED_EDGE('',*,*,#545,.T.);
#743=ORIENTED_EDGE('',*,*,#543,.T.);
#744=ORIENTED_EDGE('',*,*,#541,.T.);
#745=ORIENTED_EDGE('',*,*,#523,.T.);
#746=ORIENTED_EDGE('',*,*,#509,.T.);
#747=ORIENTED_EDGE('',*,*,#513,.T.);
#748=ORIENTED_EDGE('',*,*,#516,.T.);
#749=ORIENTED_EDGE('',*,*,#519,.T.);
#750=ORIENTED_EDGE('',*,*,#508,.T.);
#751=ORIENTED_EDGE('',*,*,#490,.T.);
#752=ORIENTED_EDGE('',*,*,#565,.T.);
#753=ORIENTED_EDGE('',*,*,#566,.T.);
#754=ORIENTED_EDGE('',*,*,#556,.T.);
#755=ORIENTED_EDGE('',*,*,#567,.T.);
#756=ORIENTED_EDGE('',*,*,#566,.F.);
#757=ORIENTED_EDGE('',*,*,#568,.F.);
#758=ORIENTED_EDGE('',*,*,#569,.F.);
#759=ORIENTED_EDGE('',*,*,#557,.T.);
#760=ORIENTED_EDGE('',*,*,#570,.T.);
#761=ORIENTED_EDGE('',*,*,#571,.T.);
#762=ORIENTED_EDGE('',*,*,#558,.T.);
#763=ORIENTED_EDGE('',*,*,#569,.T.);
#764=ORIENTED_EDGE('',*,*,#572,.T.);
#765=ORIENTED_EDGE('',*,*,#573,.T.);
#766=ORIENTED_EDGE('',*,*,#560,.T.);
#767=ORIENTED_EDGE('',*,*,#574,.T.);
#768=ORIENTED_EDGE('',*,*,#573,.F.);
#769=ORIENTED_EDGE('',*,*,#575,.F.);
#770=ORIENTED_EDGE('',*,*,#576,.F.);
#771=ORIENTED_EDGE('',*,*,#561,.F.);
#772=ORIENTED_EDGE('',*,*,#577,.T.);
#773=ORIENTED_EDGE('',*,*,#578,.T.);
#774=ORIENTED_EDGE('',*,*,#562,.T.);
#775=ORIENTED_EDGE('',*,*,#576,.T.);
#776=ORIENTED_EDGE('',*,*,#579,.T.);
#777=ORIENTED_EDGE('',*,*,#553,.T.);
#778=ORIENTED_EDGE('',*,*,#564,.T.);
#779=ORIENTED_EDGE('',*,*,#580,.T.);
#780=ORIENTED_EDGE('',*,*,#578,.F.);
#781=ORIENTED_EDGE('',*,*,#581,.F.);
#782=ORIENTED_EDGE('',*,*,#580,.F.);
#783=ORIENTED_EDGE('',*,*,#563,.F.);
#784=ORIENTED_EDGE('',*,*,#549,.F.);
#785=ORIENTED_EDGE('',*,*,#582,.F.);
#786=ORIENTED_EDGE('',*,*,#567,.F.);
#787=ORIENTED_EDGE('',*,*,#555,.T.);
#788=ORIENTED_EDGE('',*,*,#571,.F.);
#789=ORIENTED_EDGE('',*,*,#583,.F.);
#790=ORIENTED_EDGE('',*,*,#574,.F.);
#791=ORIENTED_EDGE('',*,*,#559,.T.);
#792=ORIENTED_EDGE('',*,*,#548,.F.);
#793=ORIENTED_EDGE('',*,*,#554,.T.);
#794=ORIENTED_EDGE('',*,*,#579,.F.);
#795=ORIENTED_EDGE('',*,*,#581,.T.);
#796=ORIENTED_EDGE('',*,*,#577,.F.);
#797=ORIENTED_EDGE('',*,*,#575,.T.);
#798=ORIENTED_EDGE('',*,*,#572,.F.);
#799=ORIENTED_EDGE('',*,*,#583,.T.);
#800=ORIENTED_EDGE('',*,*,#570,.F.);
#801=ORIENTED_EDGE('',*,*,#568,.T.);
#802=ORIENTED_EDGE('',*,*,#565,.F.);
#803=ORIENTED_EDGE('',*,*,#582,.T.);
#804=ORIENTED_EDGE('',*,*,#495,.T.);
#805=ORIENTED_EDGE('',*,*,#506,.T.);
#806=ORIENTED_EDGE('',*,*,#511,.T.);
#807=ORIENTED_EDGE('',*,*,#520,.T.);
#808=ORIENTED_EDGE('',*,*,#517,.T.);
#809=ORIENTED_EDGE('',*,*,#514,.T.);
#810=ORIENTED_EDGE('',*,*,#521,.T.);
#811=ORIENTED_EDGE('',*,*,#536,.T.);
#812=ORIENTED_EDGE('',*,*,#532,.T.);
#813=ORIENTED_EDGE('',*,*,#528,.T.);
#814=ORIENTED_EDGE('',*,*,#524,.T.);
#815=ORIENTED_EDGE('',*,*,#493,.T.);
#816=ORIENTED_EDGE('',*,*,#468,.T.);
#817=ORIENTED_EDGE('',*,*,#466,.F.);
#818=ORIENTED_EDGE('',*,*,#487,.T.);
#819=ORIENTED_EDGE('',*,*,#484,.F.);
#820=ORIENTED_EDGE('',*,*,#480,.T.);
#821=ORIENTED_EDGE('',*,*,#478,.F.);
#822=ORIENTED_EDGE('',*,*,#474,.T.);
#823=ORIENTED_EDGE('',*,*,#472,.F.);
#824=CYLINDRICAL_SURFACE('',#916,4.3);
#825=CYLINDRICAL_SURFACE('',#920,4.3);
#826=CYLINDRICAL_SURFACE('',#924,4.3);
#827=CYLINDRICAL_SURFACE('',#928,4.3);
#828=CYLINDRICAL_SURFACE('',#934,1.1);
#829=CYLINDRICAL_SURFACE('',#936,6.5);
#830=CYLINDRICAL_SURFACE('',#941,7.8);
#831=CYLINDRICAL_SURFACE('',#946,5.);
#832=CYLINDRICAL_SURFACE('',#950,1.1);
#833=CYLINDRICAL_SURFACE('',#952,1.1);
#834=CYLINDRICAL_SURFACE('',#954,1.1);
#835=CYLINDRICAL_SURFACE('',#961,1.1);
#836=CYLINDRICAL_SURFACE('',#964,2.);
#837=CYLINDRICAL_SURFACE('',#969,2.);
#838=CYLINDRICAL_SURFACE('',#974,2.);
#839=CYLINDRICAL_SURFACE('',#979,2.);
#840=CYLINDRICAL_SURFACE('',#984,1.1);
#841=CYLINDRICAL_SURFACE('',#986,1.1);
#842=CYLINDRICAL_SURFACE('',#988,1.1);
#843=CYLINDRICAL_SURFACE('',#990,1.1);
#844=CYLINDRICAL_SURFACE('',#992,5.);
#845=CYLINDRICAL_SURFACE('',#1003,5.);
#846=CYLINDRICAL_SURFACE('',#1006,5.);
#847=CYLINDRICAL_SURFACE('',#1008,5.);
#848=CYLINDRICAL_SURFACE('',#1011,20.);
#849=CYLINDRICAL_SURFACE('',#1013,20.);
#850=CYLINDRICAL_SURFACE('',#1015,94.464499997365);
#851=ADVANCED_FACE('',(#70),#824,.F.);
#852=ADVANCED_FACE('',(#71),#47,.F.);
#853=ADVANCED_FACE('',(#72),#825,.F.);
#854=ADVANCED_FACE('',(#73),#48,.F.);
#855=ADVANCED_FACE('',(#74),#826,.F.);
#856=ADVANCED_FACE('',(#75),#49,.F.);
#857=ADVANCED_FACE('',(#76),#827,.F.);
#858=ADVANCED_FACE('',(#77),#50,.F.);
#859=ADVANCED_FACE('',(#78,#19),#51,.T.);
#860=ADVANCED_FACE('',(#79),#828,.F.);
#861=ADVANCED_FACE('',(#80),#829,.T.);
#862=ADVANCED_FACE('',(#81,#20),#52,.T.);
#863=ADVANCED_FACE('',(#82),#830,.F.);
#864=ADVANCED_FACE('',(#83,#21),#53,.T.);
#865=ADVANCED_FACE('',(#84),#831,.F.);
#866=ADVANCED_FACE('',(#85,#22),#54,.T.);
#867=ADVANCED_FACE('',(#86),#832,.F.);
#868=ADVANCED_FACE('',(#87),#833,.F.);
#869=ADVANCED_FACE('',(#88),#834,.F.);
#870=ADVANCED_FACE('',(#89),#55,.F.);
#871=ADVANCED_FACE('',(#90),#56,.F.);
#872=ADVANCED_FACE('',(#91),#57,.F.);
#873=ADVANCED_FACE('',(#92),#58,.F.);
#874=ADVANCED_FACE('',(#93),#835,.F.);
#875=ADVANCED_FACE('',(#94),#836,.F.);
#876=ADVANCED_FACE('',(#95,#23),#59,.T.);
#877=ADVANCED_FACE('',(#96),#837,.F.);
#878=ADVANCED_FACE('',(#97,#24),#60,.T.);
#879=ADVANCED_FACE('',(#98),#838,.F.);
#880=ADVANCED_FACE('',(#99,#25),#61,.T.);
#881=ADVANCED_FACE('',(#100),#839,.F.);
#882=ADVANCED_FACE('',(#101,#26),#62,.T.);
#883=ADVANCED_FACE('',(#102),#840,.F.);
#884=ADVANCED_FACE('',(#103),#841,.F.);
#885=ADVANCED_FACE('',(#104),#842,.F.);
#886=ADVANCED_FACE('',(#105),#843,.F.);
#887=ADVANCED_FACE('',(#106),#844,.T.);
#888=ADVANCED_FACE('',(#107),#63,.T.);
#889=ADVANCED_FACE('',(#108,#27,#28,#29,#30,#31,#32,#33,#34,#35,#36),#64,
 .F.);
#890=ADVANCED_FACE('',(#109),#845,.T.);
#891=ADVANCED_FACE('',(#110),#65,.T.);
#892=ADVANCED_FACE('',(#111),#846,.T.);
#893=ADVANCED_FACE('',(#112),#847,.T.);
#894=ADVANCED_FACE('',(#113),#66,.T.);
#895=ADVANCED_FACE('',(#114),#848,.T.);
#896=ADVANCED_FACE('',(#115),#849,.T.);
#897=ADVANCED_FACE('',(#116),#850,.F.);
#898=ADVANCED_FACE('',(#117),#67,.T.);
#899=ADVANCED_FACE('',(#118),#68,.T.);
#900=ADVANCED_FACE('',(#119,#37,#38,#39,#40,#41,#42,#43,#44,#45,#46),#69,
 .T.);
#901=CLOSED_SHELL('',(#851,#852,#853,#854,#855,#856,#857,#858,#859,#860,
#861,#862,#863,#864,#865,#866,#867,#868,#869,#870,#871,#872,#873,#874,#875,
#876,#877,#878,#879,#880,#881,#882,#883,#884,#885,#886,#887,#888,#889,#890,
#891,#892,#893,#894,#895,#896,#897,#898,#899,#900));
#902=DERIVED_UNIT_ELEMENT(#904,1.);
#903=DERIVED_UNIT_ELEMENT(#1561,-3.);
#904=(
MASS_UNIT()
NAMED_UNIT(*)
SI_UNIT(.KILO.,.GRAM.)
);
#905=DERIVED_UNIT((#902,#903));
#906=MEASURE_REPRESENTATION_ITEM('density measure',
POSITIVE_RATIO_MEASURE(7850.),#905);
#907=PROPERTY_DEFINITION_REPRESENTATION(#912,#909);
#908=PROPERTY_DEFINITION_REPRESENTATION(#913,#910);
#909=REPRESENTATION('material name',(#911),#1558);
#910=REPRESENTATION('density',(#906),#1558);
#911=DESCRIPTIVE_REPRESENTATION_ITEM('Steel','Steel');
#912=PROPERTY_DEFINITION('material property','material name',#1573);
#913=PROPERTY_DEFINITION('material property','density of part',#1573);
#914=AXIS2_PLACEMENT_3D('',#1301,#1021,#1022);
#915=AXIS2_PLACEMENT_3D('',#1302,#1023,#1024);
#916=AXIS2_PLACEMENT_3D('',#1303,#1025,#1026);
#917=AXIS2_PLACEMENT_3D('',#1306,#1027,#1028);
#918=AXIS2_PLACEMENT_3D('',#1310,#1030,#1031);
#919=AXIS2_PLACEMENT_3D('',#1312,#1033,#1034);
#920=AXIS2_PLACEMENT_3D('',#1318,#1038,#1039);
#921=AXIS2_PLACEMENT_3D('',#1320,#1040,#1041);
#922=AXIS2_PLACEMENT_3D('',#1322,#1042,#1043);
#923=AXIS2_PLACEMENT_3D('',#1324,#1045,#1046);
#924=AXIS2_PLACEMENT_3D('',#1330,#1050,#1051);
#925=AXIS2_PLACEMENT_3D('',#1332,#1052,#1053);
#926=AXIS2_PLACEMENT_3D('',#1334,#1054,#1055);
#927=AXIS2_PLACEMENT_3D('',#1336,#1057,#1058);
#928=AXIS2_PLACEMENT_3D('',#1342,#1062,#1063);
#929=AXIS2_PLACEMENT_3D('',#1344,#1064,#1065);
#930=AXIS2_PLACEMENT_3D('',#1346,#1066,#1067);
#931=AXIS2_PLACEMENT_3D('',#1348,#1069,#1070);
#932=AXIS2_PLACEMENT_3D('',#1351,#1073,#1074);
#933=AXIS2_PLACEMENT_3D('',#1353,#1075,#1076);
#934=AXIS2_PLACEMENT_3D('',#1354,#1077,#1078);
#935=AXIS2_PLACEMENT_3D('',#1357,#1080,#1081);
#936=AXIS2_PLACEMENT_3D('',#1358,#1082,#1083);
#937=AXIS2_PLACEMENT_3D('',#1360,#1084,#1085);
#938=AXIS2_PLACEMENT_3D('',#1363,#1087,#1088);
#939=AXIS2_PLACEMENT_3D('',#1364,#1089,#1090);
#940=AXIS2_PLACEMENT_3D('',#1366,#1091,#1092);
#941=AXIS2_PLACEMENT_3D('',#1367,#1093,#1094);
#942=AXIS2_PLACEMENT_3D('',#1369,#1095,#1096);
#943=AXIS2_PLACEMENT_3D('',#1372,#1098,#1099);
#944=AXIS2_PLACEMENT_3D('',#1373,#1100,#1101);
#945=AXIS2_PLACEMENT_3D('',#1375,#1102,#1103);
#946=AXIS2_PLACEMENT_3D('',#1376,#1104,#1105);
#947=AXIS2_PLACEMENT_3D('',#1379,#1107,#1108);
#948=AXIS2_PLACEMENT_3D('',#1380,#1109,#1110);
#949=AXIS2_PLACEMENT_3D('',#1382,#1111,#1112);
#950=AXIS2_PLACEMENT_3D('',#1383,#1113,#1114);
#951=AXIS2_PLACEMENT_3D('',#1386,#1116,#1117);
#952=AXIS2_PLACEMENT_3D('',#1387,#1118,#1119);
#953=AXIS2_PLACEMENT_3D('',#1390,#1121,#1122);
#954=AXIS2_PLACEMENT_3D('',#1391,#1123,#1124);
#955=AXIS2_PLACEMENT_3D('',#1393,#1125,#1126);
#956=AXIS2_PLACEMENT_3D('',#1396,#1128,#1129);
#957=AXIS2_PLACEMENT_3D('',#1397,#1130,#1131);
#958=AXIS2_PLACEMENT_3D('',#1406,#1136,#1137);
#959=AXIS2_PLACEMENT_3D('',#1412,#1141,#1142);
#960=AXIS2_PLACEMENT_3D('',#1418,#1146,#1147);
#961=AXIS2_PLACEMENT_3D('',#1421,#1150,#1151);
#962=AXIS2_PLACEMENT_3D('',#1423,#1152,#1153);
#963=AXIS2_PLACEMENT_3D('',#1426,#1155,#1156);
#964=AXIS2_PLACEMENT_3D('',#1427,#1157,#1158);
#965=AXIS2_PLACEMENT_3D('',#1429,#1159,#1160);
#966=AXIS2_PLACEMENT_3D('',#1432,#1162,#1163);
#967=AXIS2_PLACEMENT_3D('',#1433,#1164,#1165);
#968=AXIS2_PLACEMENT_3D('',#1435,#1166,#1167);
#969=AXIS2_PLACEMENT_3D('',#1436,#1168,#1169);
#970=AXIS2_PLACEMENT_3D('',#1438,#1170,#1171);
#971=AXIS2_PLACEMENT_3D('',#1441,#1173,#1174);
#972=AXIS2_PLACEMENT_3D('',#1442,#1175,#1176);
#973=AXIS2_PLACEMENT_3D('',#1444,#1177,#1178);
#974=AXIS2_PLACEMENT_3D('',#1445,#1179,#1180);
#975=AXIS2_PLACEMENT_3D('',#1447,#1181,#1182);
#976=AXIS2_PLACEMENT_3D('',#1450,#1184,#1185);
#977=AXIS2_PLACEMENT_3D('',#1451,#1186,#1187);
#978=AXIS2_PLACEMENT_3D('',#1453,#1188,#1189);
#979=AXIS2_PLACEMENT_3D('',#1454,#1190,#1191);
#980=AXIS2_PLACEMENT_3D('',#1456,#1192,#1193);
#981=AXIS2_PLACEMENT_3D('',#1459,#1195,#1196);
#982=AXIS2_PLACEMENT_3D('',#1460,#1197,#1198);
#983=AXIS2_PLACEMENT_3D('',#1462,#1199,#1200);
#984=AXIS2_PLACEMENT_3D('',#1463,#1201,#1202);
#985=AXIS2_PLACEMENT_3D('',#1466,#1204,#1205);
#986=AXIS2_PLACEMENT_3D('',#1467,#1206,#1207);
#987=AXIS2_PLACEMENT_3D('',#1470,#1209,#1210);
#988=AXIS2_PLACEMENT_3D('',#1471,#1211,#1212);
#989=AXIS2_PLACEMENT_3D('',#1474,#1214,#1215);
#990=AXIS2_PLACEMENT_3D('',#1475,#1216,#1217);
#991=AXIS2_PLACEMENT_3D('',#1478,#1219,#1220);
#992=AXIS2_PLACEMENT_3D('',#1479,#1221,#1222);
#993=AXIS2_PLACEMENT_3D('',#1482,#1223,#1224);
#994=AXIS2_PLACEMENT_3D('',#1486,#1226,#1227);
#995=AXIS2_PLACEMENT_3D('',#1488,#1229,#1230);
#996=AXIS2_PLACEMENT_3D('',#1494,#1234,#1235);
#997=AXIS2_PLACEMENT_3D('',#1498,#1237,#1238);
#998=AXIS2_PLACEMENT_3D('',#1502,#1240,#1241);
#999=AXIS2_PLACEMENT_3D('',#1506,#1243,#1244);
#1000=AXIS2_PLACEMENT_3D('',#1510,#1246,#1247);
#1001=AXIS2_PLACEMENT_3D('',#1512,#1248,#1249);
#1002=AXIS2_PLACEMENT_3D('',#1513,#1250,#1251);
#1003=AXIS2_PLACEMENT_3D('',#1514,#1252,#1253);
#1004=AXIS2_PLACEMENT_3D('',#1517,#1254,#1255);
#1005=AXIS2_PLACEMENT_3D('',#1520,#1258,#1259);
#1006=AXIS2_PLACEMENT_3D('',#1524,#1262,#1263);
#1007=AXIS2_PLACEMENT_3D('',#1526,#1264,#1265);
#1008=AXIS2_PLACEMENT_3D('',#1528,#1267,#1268);
#1009=AXIS2_PLACEMENT_3D('',#1531,#1269,#1270);
#1010=AXIS2_PLACEMENT_3D('',#1534,#1273,#1274);
#1011=AXIS2_PLACEMENT_3D('',#1538,#1277,#1278);
#1012=AXIS2_PLACEMENT_3D('',#1540,#1279,#1280);
#1013=AXIS2_PLACEMENT_3D('',#1542,#1282,#1283);
#1014=AXIS2_PLACEMENT_3D('',#1544,#1284,#1285);
#1015=AXIS2_PLACEMENT_3D('',#1546,#1287,#1288);
#1016=AXIS2_PLACEMENT_3D('',#1547,#1289,#1290);
#1017=AXIS2_PLACEMENT_3D('',#1548,#1291,#1292);
#1018=AXIS2_PLACEMENT_3D('',#1550,#1294,#1295);
#1019=AXIS2_PLACEMENT_3D('',#1552,#1297,#1298);
#1020=AXIS2_PLACEMENT_3D('',#1553,#1299,#1300);
#1021=DIRECTION('axis',(0.,0.,1.));
#1022=DIRECTION('refdir',(1.,0.,0.));
#1023=DIRECTION('axis',(0.,0.,1.));
#1024=DIRECTION('refdir',(1.,0.,0.));
#1025=DIRECTION('center_axis',(0.,-1.98068972494379E-15,-1.));
#1026=DIRECTION('ref_axis',(0.707106781186547,-0.707106781186548,1.460551124357E-15));
#1027=DIRECTION('center_axis',(1.31393629366525E-27,1.98068972494383E-15,
1.));
#1028=DIRECTION('ref_axis',(0.707106781186547,-0.707106781186548,1.460551124357E-15));
#1029=DIRECTION('',(0.,1.98068972494379E-15,1.));
#1030=DIRECTION('center_axis',(-8.09889136503584E-16,1.71069076724722E-15,
1.));
#1031=DIRECTION('ref_axis',(0.707106781186547,-0.707106781186548,1.460551124357E-15));
#1032=DIRECTION('',(0.,-1.98068972494379E-15,-1.));
#1033=DIRECTION('center_axis',(1.,2.60250011609353E-42,-5.15474523911147E-57));
#1034=DIRECTION('ref_axis',(2.60250011609353E-42,-1.,1.98068972494383E-15));
#1035=DIRECTION('',(2.60250011609353E-42,-1.,1.71069076724722E-15));
#1036=DIRECTION('',(0.,1.98068972494379E-15,1.));
#1037=DIRECTION('',(2.60250011609353E-42,-1.,1.98068972494383E-15));
#1038=DIRECTION('center_axis',(0.,-1.98068972494379E-15,-1.));
#1039=DIRECTION('ref_axis',(0.707106781186547,0.707106781186548,-1.460551124357E-15));
#1040=DIRECTION('center_axis',(1.31393629366525E-27,1.98068972494383E-15,
1.));
#1041=DIRECTION('ref_axis',(0.707106781186547,0.707106781186548,-1.460551124357E-15));
#1042=DIRECTION('center_axis',(-8.09889136503584E-16,1.71069076724722E-15,
1.));
#1043=DIRECTION('ref_axis',(0.707106781186547,0.707106781186548,-1.460551124357E-15));
#1044=DIRECTION('',(0.,-1.98068972494379E-15,-1.));
#1045=DIRECTION('center_axis',(-2.60250011609348E-42,1.,-1.98068972494379E-15));
#1046=DIRECTION('ref_axis',(1.,0.,-1.31393629366525E-27));
#1047=DIRECTION('',(1.,1.60413909101885E-30,8.09889136503584E-16));
#1048=DIRECTION('',(0.,1.98068972494379E-15,1.));
#1049=DIRECTION('',(1.,0.,-1.31393629366525E-27));
#1050=DIRECTION('center_axis',(0.,-1.98068972494379E-15,-1.));
#1051=DIRECTION('ref_axis',(-0.707106781186547,0.707106781186548,-1.460551124357E-15));
#1052=DIRECTION('center_axis',(1.31393629366525E-27,1.98068972494383E-15,
1.));
#1053=DIRECTION('ref_axis',(-0.707106781186547,0.707106781186548,-1.460551124357E-15));
#1054=DIRECTION('center_axis',(-8.09889136503584E-16,1.71069076724722E-15,
1.));
#1055=DIRECTION('ref_axis',(-0.707106781186547,0.707106781186548,-1.460551124357E-15));
#1056=DIRECTION('',(0.,-1.98068972494379E-15,-1.));
#1057=DIRECTION('center_axis',(-1.,-2.60250011609353E-42,5.15474523911147E-57));
#1058=DIRECTION('ref_axis',(-2.60250011609353E-42,1.,-1.98068972494383E-15));
#1059=DIRECTION('',(-2.60250011609353E-42,1.,-1.71069076724722E-15));
#1060=DIRECTION('',(0.,1.98068972494379E-15,1.));
#1061=DIRECTION('',(-2.60250011609353E-42,1.,-1.98068972494383E-15));
#1062=DIRECTION('center_axis',(0.,-1.98068972494379E-15,-1.));
#1063=DIRECTION('ref_axis',(-0.707106781186547,-0.707106781186548,1.460551124357E-15));
#1064=DIRECTION('center_axis',(1.31393629366525E-27,1.98068972494383E-15,
1.));
#1065=DIRECTION('ref_axis',(-0.707106781186547,-0.707106781186548,1.460551124357E-15));
#1066=DIRECTION('center_axis',(-8.09889136503584E-16,1.71069076724722E-15,
1.));
#1067=DIRECTION('ref_axis',(-0.707106781186547,-0.707106781186548,1.460551124357E-15));
#1068=DIRECTION('',(0.,-1.98068972494379E-15,-1.));
#1069=DIRECTION('center_axis',(2.60250011609348E-42,-1.,1.98068972494379E-15));
#1070=DIRECTION('ref_axis',(-1.,0.,1.31393629366525E-27));
#1071=DIRECTION('',(-1.,0.,1.31393629366525E-27));
#1072=DIRECTION('',(-1.,-1.60413909101885E-30,-8.09889136503584E-16));
#1073=DIRECTION('center_axis',(1.31393629366525E-27,1.98068972494383E-15,
1.));
#1074=DIRECTION('ref_axis',(-1.,0.,1.31393629366525E-27));
#1075=DIRECTION('center_axis',(1.31393629366525E-27,1.98068972494383E-15,
1.));
#1076=DIRECTION('ref_axis',(-1.,-2.60250011609354E-42,0.));
#1077=DIRECTION('center_axis',(0.,-1.98068972494384E-15,-1.));
#1078=DIRECTION('ref_axis',(-1.,-2.60250011609354E-42,0.));
#1079=DIRECTION('',(0.,-1.98068972494384E-15,-1.));
#1080=DIRECTION('center_axis',(-8.09889136503584E-16,1.71069076724722E-15,
1.));
#1081=DIRECTION('ref_axis',(-1.,-2.60250011609354E-42,0.));
#1082=DIRECTION('center_axis',(0.,0.,1.));
#1083=DIRECTION('ref_axis',(-1.,0.,0.));
#1084=DIRECTION('center_axis',(1.31393629366525E-27,1.98068972494383E-15,
1.));
#1085=DIRECTION('ref_axis',(-1.,0.,1.31393629366525E-27));
#1086=DIRECTION('',(0.,0.,-1.));
#1087=DIRECTION('center_axis',(8.09889136503584E-16,-1.71069076724722E-15,
-1.));
#1088=DIRECTION('ref_axis',(-1.,0.,0.));
#1089=DIRECTION('center_axis',(1.31393629366525E-27,1.98068972494383E-15,
1.));
#1090=DIRECTION('ref_axis',(-1.,0.,1.31393629366525E-27));
#1091=DIRECTION('center_axis',(-1.31393629366525E-27,-1.98068972494383E-15,
-1.));
#1092=DIRECTION('ref_axis',(-1.,0.,1.31393629366525E-27));
#1093=DIRECTION('center_axis',(0.,0.,-1.));
#1094=DIRECTION('ref_axis',(-1.,0.,0.));
#1095=DIRECTION('center_axis',(8.09889136503584E-16,-1.71069076724722E-15,
-1.));
#1096=DIRECTION('ref_axis',(-1.,0.,0.));
#1097=DIRECTION('',(0.,0.,-1.));
#1098=DIRECTION('center_axis',(-1.31393629366525E-27,-1.98068972494383E-15,
-1.));
#1099=DIRECTION('ref_axis',(-1.,0.,1.31393629366525E-27));
#1100=DIRECTION('center_axis',(1.31393629366525E-27,1.98068972494383E-15,
1.));
#1101=DIRECTION('ref_axis',(-1.,0.,1.31393629366525E-27));
#1102=DIRECTION('center_axis',(1.31393629366525E-27,1.98068972494383E-15,
1.));
#1103=DIRECTION('ref_axis',(-1.,-3.03119444388116E-42,0.));
#1104=DIRECTION('center_axis',(0.,0.,-1.));
#1105=DIRECTION('ref_axis',(-1.,0.,0.));
#1106=DIRECTION('',(0.,0.,-1.));
#1107=DIRECTION('center_axis',(-1.31393629366525E-27,-1.98068972494383E-15,
-1.));
#1108=DIRECTION('ref_axis',(-1.,0.,1.31393629366525E-27));
#1109=DIRECTION('center_axis',(1.31393629366525E-27,1.98068972494383E-15,
1.));
#1110=DIRECTION('ref_axis',(-1.,0.,1.31393629366525E-27));
#1111=DIRECTION('center_axis',(1.31393629366525E-27,1.98068972494383E-15,
1.));
#1112=DIRECTION('ref_axis',(-1.,-3.03119444388116E-42,0.));
#1113=DIRECTION('center_axis',(0.,-2.30695693428606E-15,-1.));
#1114=DIRECTION('ref_axis',(-1.,-3.03119444388116E-42,0.));
#1115=DIRECTION('',(0.,-2.30695693428606E-15,-1.));
#1116=DIRECTION('center_axis',(-8.09889136503584E-16,1.71069076724722E-15,
1.));
#1117=DIRECTION('ref_axis',(-1.,-3.03119444388116E-42,0.));
#1118=DIRECTION('center_axis',(0.,-2.30695693428606E-15,-1.));
#1119=DIRECTION('ref_axis',(-1.,-3.03119444388116E-42,0.));
#1120=DIRECTION('',(0.,-2.30695693428606E-15,-1.));
#1121=DIRECTION('center_axis',(-8.09889136503584E-16,1.71069076724722E-15,
1.));
#1122=DIRECTION('ref_axis',(-1.,-3.03119444388116E-42,0.));
#1123=DIRECTION('center_axis',(0.,-2.30695693428608E-15,-1.));
#1124=DIRECTION('ref_axis',(-1.,-3.03119444388119E-42,0.));
#1125=DIRECTION('center_axis',(8.09889136503584E-16,-1.71069076724722E-15,
-1.));
#1126=DIRECTION('ref_axis',(-1.,-3.03119444388119E-42,0.));
#1127=DIRECTION('',(0.,-2.30695693428608E-15,-1.));
#1128=DIRECTION('center_axis',(-8.09889136503584E-16,1.71069076724722E-15,
1.));
#1129=DIRECTION('ref_axis',(-1.,-3.03119444388119E-42,0.));
#1130=DIRECTION('center_axis',(1.,2.60250011609353E-42,-6.0038556893023E-57));
#1131=DIRECTION('ref_axis',(2.60250011609353E-42,-1.,1.98068972494383E-15));
#1132=DIRECTION('',(-2.60250011609353E-42,1.,-1.71069076724722E-15));
#1133=DIRECTION('',(0.,-2.30695693428608E-15,-1.));
#1134=DIRECTION('',(2.60250011609353E-42,-1.,1.71069076724722E-15));
#1135=DIRECTION('',(0.,-2.30695693428608E-15,-1.));
#1136=DIRECTION('center_axis',(-3.03119444388119E-42,1.,-2.30695693428608E-15));
#1137=DIRECTION('ref_axis',(1.,0.,-1.31393629366525E-27));
#1138=DIRECTION('',(-1.,-1.86837935946294E-30,-8.09889136503584E-16));
#1139=DIRECTION('',(1.,1.86837935946294E-30,8.09889136503584E-16));
#1140=DIRECTION('',(0.,-2.30695693428608E-15,-1.));
#1141=DIRECTION('center_axis',(-1.,-2.60250011609353E-42,6.0038556893023E-57));
#1142=DIRECTION('ref_axis',(-2.60250011609353E-42,1.,-1.98068972494383E-15));
#1143=DIRECTION('',(2.60250011609353E-42,-1.,1.71069076724722E-15));
#1144=DIRECTION('',(-2.60250011609353E-42,1.,-1.71069076724722E-15));
#1145=DIRECTION('',(0.,-2.30695693428608E-15,-1.));
#1146=DIRECTION('center_axis',(3.03119444388119E-42,-1.,2.30695693428608E-15));
#1147=DIRECTION('ref_axis',(-1.,0.,1.31393629366525E-27));
#1148=DIRECTION('',(1.,1.86837935946294E-30,8.09889136503584E-16));
#1149=DIRECTION('',(-1.,-1.86837935946294E-30,-8.09889136503584E-16));
#1150=DIRECTION('center_axis',(0.,-2.30695693428608E-15,-1.));
#1151=DIRECTION('ref_axis',(-1.,-3.03119444388119E-42,0.));
#1152=DIRECTION('center_axis',(8.09889136503584E-16,-1.71069076724722E-15,
-1.));
#1153=DIRECTION('ref_axis',(-1.,-3.03119444388119E-42,0.));
#1154=DIRECTION('',(0.,-2.30695693428608E-15,-1.));
#1155=DIRECTION('center_axis',(-8.09889136503584E-16,1.71069076724722E-15,
1.));
#1156=DIRECTION('ref_axis',(-1.,-3.03119444388119E-42,0.));
#1157=DIRECTION('center_axis',(0.,0.,-1.));
#1158=DIRECTION('ref_axis',(-1.,0.,0.));
#1159=DIRECTION('center_axis',(8.09889136503584E-16,-1.71069076724722E-15,
-1.));
#1160=DIRECTION('ref_axis',(-1.,0.,0.));
#1161=DIRECTION('',(0.,0.,-1.));
#1162=DIRECTION('center_axis',(-1.31393629366525E-27,-1.98068972494383E-15,
-1.));
#1163=DIRECTION('ref_axis',(-1.,0.,1.31393629366525E-27));
#1164=DIRECTION('center_axis',(1.31393629366525E-27,1.98068972494383E-15,
1.));
#1165=DIRECTION('ref_axis',(-1.,0.,1.31393629366525E-27));
#1166=DIRECTION('center_axis',(1.31393629366525E-27,1.98068972494383E-15,
1.));
#1167=DIRECTION('ref_axis',(-1.,-3.03119444388117E-42,0.));
#1168=DIRECTION('center_axis',(0.,0.,-1.));
#1169=DIRECTION('ref_axis',(-1.,0.,0.));
#1170=DIRECTION('center_axis',(8.09889136503584E-16,-1.71069076724722E-15,
-1.));
#1171=DIRECTION('ref_axis',(-1.,0.,0.));
#1172=DIRECTION('',(0.,0.,-1.));
#1173=DIRECTION('center_axis',(-1.31393629366525E-27,-1.98068972494383E-15,
-1.));
#1174=DIRECTION('ref_axis',(-1.,0.,1.31393629366525E-27));
#1175=DIRECTION('center_axis',(1.31393629366525E-27,1.98068972494383E-15,
1.));
#1176=DIRECTION('ref_axis',(-1.,0.,1.31393629366525E-27));
#1177=DIRECTION('center_axis',(1.31393629366525E-27,1.98068972494383E-15,
1.));
#1178=DIRECTION('ref_axis',(-1.,-3.03119444388117E-42,0.));
#1179=DIRECTION('center_axis',(0.,0.,-1.));
#1180=DIRECTION('ref_axis',(-1.,0.,0.));
#1181=DIRECTION('center_axis',(8.09889136503584E-16,-1.71069076724722E-15,
-1.));
#1182=DIRECTION('ref_axis',(-1.,0.,0.));
#1183=DIRECTION('',(0.,0.,-1.));
#1184=DIRECTION('center_axis',(-1.31393629366525E-27,-1.98068972494383E-15,
-1.));
#1185=DIRECTION('ref_axis',(-1.,0.,1.31393629366525E-27));
#1186=DIRECTION('center_axis',(1.31393629366525E-27,1.98068972494383E-15,
1.));
#1187=DIRECTION('ref_axis',(-1.,0.,1.31393629366525E-27));
#1188=DIRECTION('center_axis',(1.31393629366525E-27,1.98068972494383E-15,
1.));
#1189=DIRECTION('ref_axis',(-1.,-3.03119444388117E-42,0.));
#1190=DIRECTION('center_axis',(0.,0.,-1.));
#1191=DIRECTION('ref_axis',(-1.,0.,0.));
#1192=DIRECTION('center_axis',(8.09889136503584E-16,-1.71069076724722E-15,
-1.));
#1193=DIRECTION('ref_axis',(-1.,0.,0.));
#1194=DIRECTION('',(0.,0.,-1.));
#1195=DIRECTION('center_axis',(-1.31393629366525E-27,-1.98068972494383E-15,
-1.));
#1196=DIRECTION('ref_axis',(-1.,0.,1.31393629366525E-27));
#1197=DIRECTION('center_axis',(1.31393629366525E-27,1.98068972494383E-15,
1.));
#1198=DIRECTION('ref_axis',(-1.,0.,1.31393629366525E-27));
#1199=DIRECTION('center_axis',(1.31393629366525E-27,1.98068972494383E-15,
1.));
#1200=DIRECTION('ref_axis',(-1.,-3.03119444388117E-42,0.));
#1201=DIRECTION('center_axis',(0.,-2.30695693428606E-15,-1.));
#1202=DIRECTION('ref_axis',(-1.,-3.03119444388117E-42,0.));
#1203=DIRECTION('',(0.,-2.30695693428606E-15,-1.));
#1204=DIRECTION('center_axis',(-8.09889136503584E-16,1.71069076724722E-15,
1.));
#1205=DIRECTION('ref_axis',(-1.,-3.03119444388117E-42,0.));
#1206=DIRECTION('center_axis',(0.,-2.30695693428606E-15,-1.));
#1207=DIRECTION('ref_axis',(-1.,-3.03119444388117E-42,0.));
#1208=DIRECTION('',(0.,-2.30695693428606E-15,-1.));
#1209=DIRECTION('center_axis',(-8.09889136503584E-16,1.71069076724722E-15,
1.));
#1210=DIRECTION('ref_axis',(-1.,-3.03119444388117E-42,0.));
#1211=DIRECTION('center_axis',(0.,-2.30695693428606E-15,-1.));
#1212=DIRECTION('ref_axis',(-1.,-3.03119444388117E-42,0.));
#1213=DIRECTION('',(0.,-2.30695693428606E-15,-1.));
#1214=DIRECTION('center_axis',(-8.09889136503584E-16,1.71069076724722E-15,
1.));
#1215=DIRECTION('ref_axis',(-1.,-3.03119444388117E-42,0.));
#1216=DIRECTION('center_axis',(0.,-2.30695693428606E-15,-1.));
#1217=DIRECTION('ref_axis',(-1.,-3.03119444388117E-42,0.));
#1218=DIRECTION('',(0.,-2.30695693428606E-15,-1.));
#1219=DIRECTION('center_axis',(-8.09889136503584E-16,1.71069076724722E-15,
1.));
#1220=DIRECTION('ref_axis',(-1.,-3.03119444388117E-42,0.));
#1221=DIRECTION('center_axis',(-9.51619735392991E-16,2.53765262771464E-15,
1.));
#1222=DIRECTION('ref_axis',(-0.707106781189501,0.707106781183594,-2.51214793390453E-15));
#1223=DIRECTION('center_axis',(8.09889136503584E-16,-1.71069076724722E-15,
-1.));
#1224=DIRECTION('ref_axis',(-0.707106781189501,0.707106781183594,-2.51214793390453E-15));
#1225=DIRECTION('',(9.51619735392991E-16,-2.53765262771464E-15,-1.));
#1226=DIRECTION('center_axis',(-8.09889136503584E-16,1.71069076724722E-15,
1.));
#1227=DIRECTION('ref_axis',(-0.707106781189501,0.707106781183594,-2.51214793390453E-15));
#1228=DIRECTION('',(-9.51619735392991E-16,2.53765262771464E-15,1.));
#1229=DIRECTION('center_axis',(-1.,-8.35078672872231E-12,-9.516197353718E-16));
#1230=DIRECTION('ref_axis',(8.35078672872231E-12,-1.,1.71069076725399E-15));
#1231=DIRECTION('',(8.35078672872231E-12,-1.,1.71069076725399E-15));
#1232=DIRECTION('',(9.51619735392991E-16,-2.53765262771464E-15,-1.));
#1233=DIRECTION('',(8.35078672872231E-12,-1.,1.71069076725399E-15));
#1234=DIRECTION('center_axis',(-8.09889136503584E-16,1.71069076724722E-15,
1.));
#1235=DIRECTION('ref_axis',(-1.,0.,-8.09889136503584E-16));
#1236=DIRECTION('',(-1.,0.,-8.09889136503584E-16));
#1237=DIRECTION('center_axis',(-8.09889136503584E-16,1.71069076724722E-15,
1.));
#1238=DIRECTION('ref_axis',(0.707106781186547,0.707106781186547,0.));
#1239=DIRECTION('',(1.38546986831051E-30,1.,-1.71069076724722E-15));
#1240=DIRECTION('center_axis',(-8.09889136503584E-16,1.71069076724722E-15,
1.));
#1241=DIRECTION('ref_axis',(0.707106781186547,-0.707106781186547,2.51214793389404E-15));
#1242=DIRECTION('',(1.,0.,8.09889136503584E-16));
#1243=DIRECTION('center_axis',(-8.09889136503584E-16,1.71069076724722E-15,
1.));
#1244=DIRECTION('ref_axis',(-0.707106781186036,-0.707106781187059,0.));
#1245=DIRECTION('',(-1.44750877949111E-12,1.,-1.71069076724839E-15));
#1246=DIRECTION('center_axis',(-8.09889136503584E-16,1.71069076724722E-15,
1.));
#1247=DIRECTION('ref_axis',(-0.977915300271166,0.209001592088566,-1.36235482682516E-15));
#1248=DIRECTION('center_axis',(-8.09889136503584E-16,1.71069076724722E-15,
1.));
#1249=DIRECTION('ref_axis',(0.894140126710511,-0.447787264006147,1.49017991336099E-15));
#1250=DIRECTION('center_axis',(-8.09889136503584E-16,1.71069076724722E-15,
1.));
#1251=DIRECTION('ref_axis',(-0.977915300268945,-0.209001592098959,-4.54118275608468E-16));
#1252=DIRECTION('center_axis',(-9.51619735392991E-16,2.53765262771464E-15,
1.));
#1253=DIRECTION('ref_axis',(0.707106781186547,0.707106781186547,0.));
#1254=DIRECTION('center_axis',(8.09889136503584E-16,-1.71069076724722E-15,
-1.));
#1255=DIRECTION('ref_axis',(0.707106781186547,0.707106781186547,0.));
#1256=DIRECTION('',(9.51619735392991E-16,-2.53765262771464E-15,-1.));
#1257=DIRECTION('',(-9.51619735392991E-16,2.53765262771464E-15,1.));
#1258=DIRECTION('center_axis',(1.,2.42457226956528E-31,9.51619735392991E-16));
#1259=DIRECTION('ref_axis',(1.38546986831051E-30,1.,-1.71069076724722E-15));
#1260=DIRECTION('',(1.38546986831051E-30,1.,-1.71069076724722E-15));
#1261=DIRECTION('',(-9.51619735392991E-16,2.53765262771464E-15,1.));
#1262=DIRECTION('center_axis',(-9.51619735392991E-16,2.53765262771464E-15,
1.));
#1263=DIRECTION('ref_axis',(0.707106781186547,-0.707106781186547,2.51214793389404E-15));
#1264=DIRECTION('center_axis',(8.09889136503584E-16,-1.71069076724722E-15,
-1.));
#1265=DIRECTION('ref_axis',(0.707106781186547,-0.707106781186547,2.51214793389404E-15));
#1266=DIRECTION('',(9.51619735392991E-16,-2.53765262771464E-15,-1.));
#1267=DIRECTION('center_axis',(-9.51619735392991E-16,2.53765262771464E-15,
1.));
#1268=DIRECTION('ref_axis',(-0.707106781186036,-0.707106781187059,0.));
#1269=DIRECTION('center_axis',(8.09889136503584E-16,-1.71069076724722E-15,
-1.));
#1270=DIRECTION('ref_axis',(-0.707106781186036,-0.707106781187059,0.));
#1271=DIRECTION('',(9.51619735392991E-16,-2.53765262771464E-15,-1.));
#1272=DIRECTION('',(-9.51619735392991E-16,2.53765262771464E-15,1.));
#1273=DIRECTION('center_axis',(-1.,-1.44750877949111E-12,-9.51619735389318E-16));
#1274=DIRECTION('ref_axis',(1.44750877949111E-12,-1.,1.71069076724839E-15));
#1275=DIRECTION('',(1.44750877949111E-12,-1.,1.71069076724839E-15));
#1276=DIRECTION('',(-9.51619735392991E-16,2.53765262771464E-15,1.));
#1277=DIRECTION('center_axis',(-9.51619735392991E-16,2.53765262771464E-15,
1.));
#1278=DIRECTION('ref_axis',(-0.977915300271166,0.209001592088566,-1.36235482682516E-15));
#1279=DIRECTION('center_axis',(8.09889136503584E-16,-1.71069076724722E-15,
-1.));
#1280=DIRECTION('ref_axis',(-0.977915300271166,0.209001592088566,-1.36235482682516E-15));
#1281=DIRECTION('',(9.51619735392991E-16,-2.53765262771464E-15,-1.));
#1282=DIRECTION('center_axis',(-9.51619735392991E-16,2.53765262771464E-15,
1.));
#1283=DIRECTION('ref_axis',(-0.977915300268945,-0.209001592098959,-4.54118275608468E-16));
#1284=DIRECTION('center_axis',(8.09889136503584E-16,-1.71069076724722E-15,
-1.));
#1285=DIRECTION('ref_axis',(-0.977915300268945,-0.209001592098959,-4.54118275608468E-16));
#1286=DIRECTION('',(-9.51619735392991E-16,2.53765262771464E-15,1.));
#1287=DIRECTION('center_axis',(-9.51619735392991E-16,2.53765262771464E-15,
1.));
#1288=DIRECTION('ref_axis',(0.894140126710511,-0.447787264006147,1.98720991794686E-15));
#1289=DIRECTION('center_axis',(8.09889136503584E-16,-1.71069076724722E-15,
-1.));
#1290=DIRECTION('ref_axis',(0.894140126710511,-0.447787264006147,1.49017991336099E-15));
#1291=DIRECTION('center_axis',(2.05521729540586E-30,1.,-2.53765262771464E-15));
#1292=DIRECTION('ref_axis',(-1.,0.,-8.09889136503584E-16));
#1293=DIRECTION('',(-1.,0.,-8.09889136503584E-16));
#1294=DIRECTION('center_axis',(-2.05521729540586E-30,-1.,2.53765262771464E-15));
#1295=DIRECTION('ref_axis',(1.,0.,8.09889136503584E-16));
#1296=DIRECTION('',(1.,0.,8.09889136503584E-16));
#1297=DIRECTION('center_axis',(-8.09889136503584E-16,1.71069076724722E-15,
1.));
#1298=DIRECTION('ref_axis',(-1.,0.,-8.09889136503584E-16));
#1299=DIRECTION('',(2.05425546698941E-15,-2.0049741593372E-15,0.999999999999999));
#1300=DIRECTION('',(1.,-3.64291929955129E-17,-6.66133814775096E-16));
#1301=CARTESIAN_POINT('',(0.,0.,0.));
#1302=CARTESIAN_POINT('',(0.,0.,0.));
#1303=CARTESIAN_POINT('Origin',(52.8263999999644,-16.9237288135601,-36.7999999999998));
#1304=CARTESIAN_POINT('',(52.8263999999644,-21.2237288135601,-37.7999999999997));
#1305=CARTESIAN_POINT('',(57.1263999999644,-16.9237288135601,-37.7999999999998));
#1306=CARTESIAN_POINT('Origin',(52.8263999999644,-16.9237288135601,-37.7999999999998));
#1307=CARTESIAN_POINT('',(52.8263999999644,-21.2237288135601,-36.7999999999997));
#1308=CARTESIAN_POINT('',(52.8263999999644,-21.2237288135601,-36.7999999999997));
#1309=CARTESIAN_POINT('',(57.1263999999644,-16.9237288135601,-36.7999999999997));
#1310=CARTESIAN_POINT('Origin',(52.8263999999644,-16.9237288135601,-36.7999999999997));
#1311=CARTESIAN_POINT('',(57.1263999999644,-16.9237288135601,-36.7999999999998));
#1312=CARTESIAN_POINT('Origin',(57.1263999999644,21.2237288135586,-36.7999999999998));
#1313=CARTESIAN_POINT('',(57.1263999999644,16.9237288135586,-36.7999999999998));
#1314=CARTESIAN_POINT('',(57.1263999999644,10.6118644067455,-36.7999999999998));
#1315=CARTESIAN_POINT('',(57.1263999999644,16.9237288135586,-37.7999999999998));
#1316=CARTESIAN_POINT('',(57.1263999999644,16.9237288135586,-36.7999999999998));
#1317=CARTESIAN_POINT('',(57.1263999999644,21.2237288135586,-37.7999999999998));
#1318=CARTESIAN_POINT('Origin',(52.8263999999644,16.9237288135586,-36.7999999999998));
#1319=CARTESIAN_POINT('',(52.8263999999644,21.2237288135586,-37.7999999999998));
#1320=CARTESIAN_POINT('Origin',(52.8263999999644,16.9237288135586,-37.7999999999998));
#1321=CARTESIAN_POINT('',(52.8263999999644,21.2237288135586,-36.7999999999998));
#1322=CARTESIAN_POINT('Origin',(52.8263999999644,16.9237288135586,-36.7999999999998));
#1323=CARTESIAN_POINT('',(52.8263999999644,21.2237288135586,-36.7999999999998));
#1324=CARTESIAN_POINT('Origin',(27.0735999999644,21.2237288135586,-36.7999999999998));
#1325=CARTESIAN_POINT('',(31.3735999999644,21.2237288135586,-36.7999999999998));
#1326=CARTESIAN_POINT('',(33.5867999998941,21.2237288135586,-36.7999999999998));
#1327=CARTESIAN_POINT('',(31.3735999999644,21.2237288135586,-37.7999999999998));
#1328=CARTESIAN_POINT('',(31.3735999999644,21.2237288135586,-36.7999999999998));
#1329=CARTESIAN_POINT('',(27.0735999999644,21.2237288135586,-37.7999999999998));
#1330=CARTESIAN_POINT('Origin',(31.3735999999644,16.9237288135586,-36.7999999999998));
#1331=CARTESIAN_POINT('',(27.0735999999644,16.9237288135586,-37.7999999999998));
#1332=CARTESIAN_POINT('Origin',(31.3735999999644,16.9237288135586,-37.7999999999998));
#1333=CARTESIAN_POINT('',(27.0735999999644,16.9237288135586,-36.7999999999998));
#1334=CARTESIAN_POINT('Origin',(31.3735999999644,16.9237288135586,-36.7999999999998));
#1335=CARTESIAN_POINT('',(27.0735999999644,16.9237288135586,-36.7999999999998));
#1336=CARTESIAN_POINT('Origin',(27.0735999999644,-21.2237288135601,-36.7999999999997));
#1337=CARTESIAN_POINT('',(27.0735999999644,-16.9237288135601,-36.7999999999997));
#1338=CARTESIAN_POINT('',(27.0735999999644,-10.6118644068138,-36.7999999999997));
#1339=CARTESIAN_POINT('',(27.0735999999644,-16.9237288135601,-37.7999999999998));
#1340=CARTESIAN_POINT('',(27.0735999999644,-16.9237288135601,-36.7999999999998));
#1341=CARTESIAN_POINT('',(27.0735999999644,-21.2237288135601,-37.7999999999997));
#1342=CARTESIAN_POINT('Origin',(31.3735999999644,-16.9237288135601,-36.7999999999998));
#1343=CARTESIAN_POINT('',(31.3735999999644,-21.2237288135601,-37.7999999999997));
#1344=CARTESIAN_POINT('Origin',(31.3735999999644,-16.9237288135601,-37.7999999999998));
#1345=CARTESIAN_POINT('',(31.3735999999644,-21.2237288135601,-36.7999999999997));
#1346=CARTESIAN_POINT('Origin',(31.3735999999644,-16.9237288135601,-36.7999999999997));
#1347=CARTESIAN_POINT('',(31.3735999999644,-21.2237288135601,-36.7999999999997));
#1348=CARTESIAN_POINT('Origin',(57.1263999999644,-21.2237288135601,-36.7999999999997));
#1349=CARTESIAN_POINT('',(57.1263999999644,-21.2237288135601,-37.7999999999997));
#1350=CARTESIAN_POINT('',(48.6131999998941,-21.2237288135601,-36.7999999999997));
#1351=CARTESIAN_POINT('Origin',(42.0999999999644,-7.71955131588626E-13,
-37.7999999999998));
#1352=CARTESIAN_POINT('',(43.1999999999644,-7.6923418910083E-13,-37.7999999999998));
#1353=CARTESIAN_POINT('Origin',(42.0999999999644,-7.69368900248736E-13,
-37.7999999999998));
#1354=CARTESIAN_POINT('Origin',(42.0999999999644,-7.67388210523793E-13,
-36.7999999999998));
#1355=CARTESIAN_POINT('',(43.1999999999644,-7.7418591341319E-13,-40.2999999999998));
#1356=CARTESIAN_POINT('',(43.1999999999644,-7.67522921671699E-13,-36.7999999999998));
#1357=CARTESIAN_POINT('Origin',(42.0999999999644,-7.74320624561096E-13,
-40.2999999999998));
#1358=CARTESIAN_POINT('Origin',(25.0955549577569,-33.9630534061135,-36.7999999999997));
#1359=CARTESIAN_POINT('',(31.5955549577569,-33.9630534061135,-35.7999999999997));
#1360=CARTESIAN_POINT('Origin',(25.0955549577569,-33.9630534061135,-35.7999999999997));
#1361=CARTESIAN_POINT('',(31.5955549577569,-33.9630534061135,-36.7999999999997));
#1362=CARTESIAN_POINT('',(31.5955549577569,-33.9630534061135,-36.7999999999997));
#1363=CARTESIAN_POINT('Origin',(25.0955549577569,-33.9630534061135,-36.7999999999998));
#1364=CARTESIAN_POINT('Origin',(25.0955549577569,-33.9630534061135,-35.7999999999997));
#1365=CARTESIAN_POINT('',(30.0955549577569,-33.9630534061135,-35.7999999999997));
#1366=CARTESIAN_POINT('Origin',(25.0955549577569,-33.9630534061135,-35.7999999999997));
#1367=CARTESIAN_POINT('Origin',(56.4111126055658,-42.3540317884013,-36.7999999999997));
#1368=CARTESIAN_POINT('',(64.2111126055658,-42.3540317884013,-36.7999999999997));
#1369=CARTESIAN_POINT('Origin',(56.4111126055658,-42.3540317884013,-36.7999999999998));
#1370=CARTESIAN_POINT('',(64.2111126055658,-42.3540317884013,-37.7999999999997));
#1371=CARTESIAN_POINT('',(64.2111126055658,-42.3540317884013,-36.7999999999997));
#1372=CARTESIAN_POINT('Origin',(56.4111126055658,-42.3540317884013,-37.7999999999997));
#1373=CARTESIAN_POINT('Origin',(56.4111126055658,-42.3540317884013,-37.7999999999997));
#1374=CARTESIAN_POINT('',(57.5111126055658,-42.3540317884013,-37.7999999999997));
#1375=CARTESIAN_POINT('Origin',(56.4111126055658,-42.3540317884013,-37.7999999999997));
#1376=CARTESIAN_POINT('Origin',(25.0955549577569,-33.9630534061135,-36.7999999999997));
#1377=CARTESIAN_POINT('',(30.0955549577569,-33.9630534061135,-37.7999999999997));
#1378=CARTESIAN_POINT('',(30.0955549577569,-33.9630534061135,-36.7999999999997));
#1379=CARTESIAN_POINT('Origin',(25.0955549577569,-33.9630534061135,-37.7999999999997));
#1380=CARTESIAN_POINT('Origin',(25.0955549577569,-33.9630534061135,-37.7999999999997));
#1381=CARTESIAN_POINT('',(26.1955549577569,-33.9630534061135,-37.7999999999997));
#1382=CARTESIAN_POINT('Origin',(25.0955549577569,-33.9630534061135,-37.7999999999997));
#1383=CARTESIAN_POINT('Origin',(56.4111126055658,-42.3540317884013,-36.7999999999997));
#1384=CARTESIAN_POINT('',(57.5111126055658,-42.3540317884013,-40.2999999999997));
#1385=CARTESIAN_POINT('',(57.5111126055658,-42.3540317884013,-36.7999999999997));
#1386=CARTESIAN_POINT('Origin',(56.4111126055658,-42.3540317884013,-40.2999999999997));
#1387=CARTESIAN_POINT('Origin',(25.0955549577569,-33.9630534061135,-36.7999999999997));
#1388=CARTESIAN_POINT('',(26.1955549577569,-33.9630534061135,-40.2999999999997));
#1389=CARTESIAN_POINT('',(26.1955549577569,-33.9630534061135,-36.7999999999997));
#1390=CARTESIAN_POINT('Origin',(25.0955549577569,-33.9630534061135,-40.2999999999997));
#1391=CARTESIAN_POINT('Origin',(29.7999999999586,48.5500000000136,-36.7999999999999));
#1392=CARTESIAN_POINT('',(30.8999999999586,48.5500000000136,-36.7999999999999));
#1393=CARTESIAN_POINT('Origin',(29.7999999999586,48.5500000000136,-36.7999999999999));
#1394=CARTESIAN_POINT('',(30.8999999999586,48.5500000000136,-40.2999999999999));
#1395=CARTESIAN_POINT('',(30.8999999999586,48.5500000000136,-36.7999999999999));
#1396=CARTESIAN_POINT('Origin',(29.7999999999586,48.5500000000136,-40.2999999999999));
#1397=CARTESIAN_POINT('Origin',(58.0999999999656,58.2999999999974,-36.7999999999999));
#1398=CARTESIAN_POINT('',(58.0999999999656,38.7999999999974,-40.2999999999998));
#1399=CARTESIAN_POINT('',(58.0999999999656,58.2999999999974,-40.2999999999998));
#1400=CARTESIAN_POINT('',(58.0999999999656,29.1499999999649,-40.2999999999998));
#1401=CARTESIAN_POINT('',(58.0999999999656,38.7999999999974,-36.7999999999999));
#1402=CARTESIAN_POINT('',(58.0999999999656,38.7999999999974,-36.7999999999999));
#1403=CARTESIAN_POINT('',(58.0999999999656,58.2999999999974,-36.7999999999999));
#1404=CARTESIAN_POINT('',(58.0999999999656,29.1499999999649,-36.7999999999998));
#1405=CARTESIAN_POINT('',(58.0999999999656,58.2999999999974,-36.7999999999999));
#1406=CARTESIAN_POINT('Origin',(32.0999999999656,58.2999999999974,-36.7999999999999));
#1407=CARTESIAN_POINT('',(32.0999999999656,58.2999999999974,-40.2999999999999));
#1408=CARTESIAN_POINT('',(36.0999999998947,58.2999999999974,-40.2999999999999));
#1409=CARTESIAN_POINT('',(32.0999999999656,58.2999999999974,-36.7999999999999));
#1410=CARTESIAN_POINT('',(36.0999999998947,58.2999999999974,-36.7999999999999));
#1411=CARTESIAN_POINT('',(32.0999999999656,58.2999999999974,-36.7999999999999));
#1412=CARTESIAN_POINT('Origin',(32.0999999999656,38.7999999999974,-36.7999999999999));
#1413=CARTESIAN_POINT('',(32.0999999999656,38.7999999999974,-40.2999999999998));
#1414=CARTESIAN_POINT('',(32.0999999999656,19.3999999999649,-40.2999999999998));
#1415=CARTESIAN_POINT('',(32.0999999999656,38.7999999999974,-36.7999999999999));
#1416=CARTESIAN_POINT('',(32.0999999999656,19.3999999999649,-36.7999999999998));
#1417=CARTESIAN_POINT('',(32.0999999999656,38.7999999999974,-36.7999999999999));
#1418=CARTESIAN_POINT('Origin',(58.0999999999656,38.7999999999974,-36.7999999999999));
#1419=CARTESIAN_POINT('',(49.0999999998947,38.7999999999974,-40.2999999999998));
#1420=CARTESIAN_POINT('',(49.0999999998947,38.7999999999974,-36.7999999999998));
#1421=CARTESIAN_POINT('Origin',(60.3999999999725,48.5499999999812,-36.7999999999999));
#1422=CARTESIAN_POINT('',(61.4999999999725,48.5499999999812,-36.7999999999999));
#1423=CARTESIAN_POINT('Origin',(60.3999999999725,48.5499999999812,-36.7999999999999));
#1424=CARTESIAN_POINT('',(61.4999999999725,48.5499999999812,-40.2999999999999));
#1425=CARTESIAN_POINT('',(61.4999999999725,48.5499999999812,-36.7999999999999));
#1426=CARTESIAN_POINT('Origin',(60.3999999999725,48.5499999999812,-40.2999999999999));
#1427=CARTESIAN_POINT('Origin',(67.8999999998841,-62.3000000001044,-36.7999999999997));
#1428=CARTESIAN_POINT('',(69.8999999998841,-62.3000000001044,-36.7999999999997));
#1429=CARTESIAN_POINT('Origin',(67.8999999998841,-62.3000000001044,-36.7999999999998));
#1430=CARTESIAN_POINT('',(69.8999999998841,-62.3000000001044,-38.7999999999997));
#1431=CARTESIAN_POINT('',(69.8999999998841,-62.3000000001044,-36.7999999999997));
#1432=CARTESIAN_POINT('Origin',(67.8999999998841,-62.3000000001044,-38.7999999999997));
#1433=CARTESIAN_POINT('Origin',(67.8999999998841,-62.3000000001044,-38.7999999999997));
#1434=CARTESIAN_POINT('',(68.9999999998842,-62.3000000001044,-38.7999999999997));
#1435=CARTESIAN_POINT('Origin',(67.8999999998841,-62.3000000001044,-38.7999999999997));
#1436=CARTESIAN_POINT('Origin',(67.8999999999674,62.2999999999962,-36.7999999999999));
#1437=CARTESIAN_POINT('',(69.8999999999674,62.2999999999962,-36.7999999999999));
#1438=CARTESIAN_POINT('Origin',(67.8999999999674,62.2999999999962,-36.7999999999998));
#1439=CARTESIAN_POINT('',(69.8999999999674,62.2999999999962,-38.7999999999999));
#1440=CARTESIAN_POINT('',(69.8999999999674,62.2999999999962,-36.7999999999999));
#1441=CARTESIAN_POINT('Origin',(67.8999999999674,62.2999999999962,-38.7999999999999));
#1442=CARTESIAN_POINT('Origin',(67.8999999999674,62.2999999999962,-38.7999999999999));
#1443=CARTESIAN_POINT('',(68.9999999999674,62.2999999999962,-38.7999999999999));
#1444=CARTESIAN_POINT('Origin',(67.8999999999674,62.2999999999962,-38.7999999999999));
#1445=CARTESIAN_POINT('Origin',(12.2999999999803,-62.3000000003104,-36.7999999999997));
#1446=CARTESIAN_POINT('',(14.2999999999803,-62.3000000003104,-36.7999999999997));
#1447=CARTESIAN_POINT('Origin',(12.2999999999803,-62.3000000003104,-36.7999999999998));
#1448=CARTESIAN_POINT('',(14.2999999999803,-62.3000000003104,-38.7999999999997));
#1449=CARTESIAN_POINT('',(14.2999999999803,-62.3000000003104,-36.7999999999997));
#1450=CARTESIAN_POINT('Origin',(12.2999999999803,-62.3000000003104,-38.7999999999997));
#1451=CARTESIAN_POINT('Origin',(12.2999999999803,-62.3000000003104,-38.7999999999997));
#1452=CARTESIAN_POINT('',(13.3999999998231,-62.3000000000299,-38.7999999999997));
#1453=CARTESIAN_POINT('Origin',(12.2999999998231,-62.3000000000299,-38.7999999999997));
#1454=CARTESIAN_POINT('Origin',(12.2999999999063,62.299999999996,-36.7999999999999));
#1455=CARTESIAN_POINT('',(14.2999999999063,62.299999999996,-36.7999999999999));
#1456=CARTESIAN_POINT('Origin',(12.2999999999063,62.299999999996,-36.7999999999998));
#1457=CARTESIAN_POINT('',(14.2999999999063,62.299999999996,-38.7999999999999));
#1458=CARTESIAN_POINT('',(14.2999999999063,62.299999999996,-36.7999999999999));
#1459=CARTESIAN_POINT('Origin',(12.2999999999063,62.299999999996,-38.7999999999999));
#1460=CARTESIAN_POINT('Origin',(12.2999999999063,62.299999999996,-38.7999999999999));
#1461=CARTESIAN_POINT('',(13.3999999992922,62.3000000001752,-38.7999999999999));
#1462=CARTESIAN_POINT('Origin',(12.2999999992922,62.3000000001752,-38.7999999999999));
#1463=CARTESIAN_POINT('Origin',(12.2999999992922,62.3000000001752,-36.7999999999999));
#1464=CARTESIAN_POINT('',(13.3999999992922,62.3000000001752,-40.2999999999999));
#1465=CARTESIAN_POINT('',(13.3999999992922,62.3000000001752,-36.7999999999999));
#1466=CARTESIAN_POINT('Origin',(12.2999999992922,62.3000000001752,-40.2999999999999));
#1467=CARTESIAN_POINT('Origin',(67.8999999998841,-62.3000000001044,-36.7999999999997));
#1468=CARTESIAN_POINT('',(68.9999999998842,-62.3000000001044,-40.2999999999996));
#1469=CARTESIAN_POINT('',(68.9999999998842,-62.3000000001044,-36.7999999999997));
#1470=CARTESIAN_POINT('Origin',(67.8999999998841,-62.3000000001044,-40.2999999999996));
#1471=CARTESIAN_POINT('Origin',(67.8999999999674,62.2999999999962,-36.7999999999999));
#1472=CARTESIAN_POINT('',(68.9999999999674,62.2999999999962,-40.2999999999999));
#1473=CARTESIAN_POINT('',(68.9999999999674,62.2999999999962,-36.7999999999999));
#1474=CARTESIAN_POINT('Origin',(67.8999999999674,62.2999999999962,-40.2999999999999));
#1475=CARTESIAN_POINT('Origin',(12.2999999998231,-62.3000000000299,-36.7999999999997));
#1476=CARTESIAN_POINT('',(13.3999999998231,-62.3000000000299,-40.2999999999996));
#1477=CARTESIAN_POINT('',(13.3999999998231,-62.3000000000299,-36.7999999999997));
#1478=CARTESIAN_POINT('Origin',(12.2999999998231,-62.3000000000299,-40.2999999999996));
#1479=CARTESIAN_POINT('Origin',(12.2999999992922,62.3000000001752,-40.2999999999999));
#1480=CARTESIAN_POINT('',(7.29999999929219,62.3000000001335,-36.7999999999999));
#1481=CARTESIAN_POINT('',(12.2999999992922,67.3000000001752,-36.7999999999999));
#1482=CARTESIAN_POINT('Origin',(12.2999999992922,62.3000000001752,-36.7999999999999));
#1483=CARTESIAN_POINT('',(12.2999999992922,67.3000000001752,-40.2999999999999));
#1484=CARTESIAN_POINT('',(12.2999999992922,67.3000000001752,-40.2999999999999));
#1485=CARTESIAN_POINT('',(7.29999999929219,62.3000000001335,-40.2999999999999));
#1486=CARTESIAN_POINT('Origin',(12.2999999992922,62.3000000001752,-40.2999999999999));
#1487=CARTESIAN_POINT('',(7.29999999929219,62.3000000001335,-40.2999999999999));
#1488=CARTESIAN_POINT('Origin',(7.29999999925043,67.3000000001752,-40.2999999999999));
#1489=CARTESIAN_POINT('',(7.29999999942171,46.789849326639,-40.2999999999999));
#1490=CARTESIAN_POINT('',(7.29999999925043,67.3000000001752,-40.2999999999999));
#1491=CARTESIAN_POINT('',(7.29999999942171,46.7898493266391,-36.7999999999999));
#1492=CARTESIAN_POINT('',(7.29999999942171,46.789849326639,-40.2999999999999));
#1493=CARTESIAN_POINT('',(7.29999999925043,67.3000000001752,-36.7999999999999));
#1494=CARTESIAN_POINT('Origin',(40.0999999998238,-6.75705007351296E-11,
-40.2999999999998));
#1495=CARTESIAN_POINT('',(67.9000000003972,67.3000000001752,-40.2999999999998));
#1496=CARTESIAN_POINT('',(72.9000000003972,67.3000000001752,-40.2999999999998));
#1497=CARTESIAN_POINT('',(72.9000000003972,62.3000000001752,-40.2999999999998));
#1498=CARTESIAN_POINT('Origin',(67.9000000003972,62.3000000001752,-40.2999999999999));
#1499=CARTESIAN_POINT('',(72.9000000003972,-62.3000000003104,-40.2999999999996));
#1500=CARTESIAN_POINT('',(72.9000000003972,-67.3000000003104,-40.2999999999996));
#1501=CARTESIAN_POINT('',(67.9000000003972,-67.3000000003104,-40.2999999999996));
#1502=CARTESIAN_POINT('Origin',(67.9000000003972,-62.3000000003104,-40.2999999999996));
#1503=CARTESIAN_POINT('',(12.2999999999803,-67.3000000003104,-40.2999999999997));
#1504=CARTESIAN_POINT('',(7.29999999998756,-67.3000000003104,-40.2999999999997));
#1505=CARTESIAN_POINT('',(7.29999999998032,-62.3000000003176,-40.2999999999997));
#1506=CARTESIAN_POINT('Origin',(12.2999999999803,-62.3000000003104,-40.2999999999996));
#1507=CARTESIAN_POINT('',(7.29999999995787,-46.789849326677,-40.2999999999997));
#1508=CARTESIAN_POINT('',(7.29999999998756,-67.3000000003104,-40.2999999999997));
#1509=CARTESIAN_POINT('',(9.04726661979192,-38.614415139244,-40.2999999999997));
#1510=CARTESIAN_POINT('Origin',(27.2999999999579,-46.7898493266481,-40.2999999999996));
#1511=CARTESIAN_POINT('',(9.04726661934943,38.6144151391928,-40.2999999999999));
#1512=CARTESIAN_POINT('Origin',(-77.1644999973376,-5.19557814960478E-10,
-40.2999999999999));
#1513=CARTESIAN_POINT('Origin',(27.2999999994217,46.7898493268061,-40.2999999999999));
#1514=CARTESIAN_POINT('Origin',(67.9000000003972,62.3000000001752,-40.2999999999999));
#1515=CARTESIAN_POINT('',(67.9000000003972,67.3000000001752,-36.7999999999998));
#1516=CARTESIAN_POINT('',(72.9000000003972,62.3000000001752,-36.7999999999998));
#1517=CARTESIAN_POINT('Origin',(67.9000000003972,62.3000000001752,-36.7999999999999));
#1518=CARTESIAN_POINT('',(72.9000000003972,62.3000000001752,-40.2999999999999));
#1519=CARTESIAN_POINT('',(67.9000000003972,67.3000000001752,-40.2999999999999));
#1520=CARTESIAN_POINT('Origin',(72.9000000003972,-67.3000000003104,-40.2999999999996));
#1521=CARTESIAN_POINT('',(72.9000000003972,-62.3000000003103,-36.7999999999996));
#1522=CARTESIAN_POINT('',(72.9000000003972,-67.3000000003103,-36.7999999999996));
#1523=CARTESIAN_POINT('',(72.9000000003972,-62.3000000003104,-40.2999999999996));
#1524=CARTESIAN_POINT('Origin',(67.9000000003972,-62.3000000003104,-40.2999999999996));
#1525=CARTESIAN_POINT('',(67.9000000003972,-67.3000000003103,-36.7999999999996));
#1526=CARTESIAN_POINT('Origin',(67.9000000003972,-62.3000000003103,-36.7999999999996));
#1527=CARTESIAN_POINT('',(67.9000000003972,-67.3000000003104,-40.2999999999996));
#1528=CARTESIAN_POINT('Origin',(12.2999999999803,-62.3000000003104,-40.2999999999997));
#1529=CARTESIAN_POINT('',(12.2999999999803,-67.3000000003103,-36.7999999999997));
#1530=CARTESIAN_POINT('',(7.29999999998032,-62.3000000003176,-36.7999999999997));
#1531=CARTESIAN_POINT('Origin',(12.2999999999803,-62.3000000003103,-36.7999999999996));
#1532=CARTESIAN_POINT('',(7.29999999998032,-62.3000000003176,-40.2999999999997));
#1533=CARTESIAN_POINT('',(12.2999999999803,-67.3000000003104,-40.2999999999997));
#1534=CARTESIAN_POINT('Origin',(7.29999999995137,-42.3000000000483,-40.2999999999997));
#1535=CARTESIAN_POINT('',(7.29999999995787,-46.789849326677,-36.7999999999997));
#1536=CARTESIAN_POINT('',(7.29999999998756,-67.3000000003103,-36.7999999999997));
#1537=CARTESIAN_POINT('',(7.29999999995787,-46.789849326677,-40.2999999999996));
#1538=CARTESIAN_POINT('Origin',(27.2999999999579,-46.7898493266481,-40.2999999999996));
#1539=CARTESIAN_POINT('',(9.04726661979192,-38.614415139244,-36.7999999999997));
#1540=CARTESIAN_POINT('Origin',(27.2999999999579,-46.7898493266481,-36.7999999999996));
#1541=CARTESIAN_POINT('',(9.04726661979193,-38.614415139244,-40.2999999999997));
#1542=CARTESIAN_POINT('Origin',(27.2999999994217,46.7898493268061,-40.2999999999999));
#1543=CARTESIAN_POINT('',(9.04726661934943,38.6144151391928,-36.7999999999998));
#1544=CARTESIAN_POINT('Origin',(27.2999999994217,46.7898493268061,-36.7999999999999));
#1545=CARTESIAN_POINT('',(9.04726661934944,38.6144151391928,-40.2999999999999));
#1546=CARTESIAN_POINT('Origin',(-77.1644999973376,-5.19557814960478E-10,
-40.2999999999999));
#1547=CARTESIAN_POINT('Origin',(-77.1644999973376,-5.19548933176281E-10,
-36.7999999999998));
#1548=CARTESIAN_POINT('Origin',(72.9000000003972,67.3000000001752,-40.2999999999998));
#1549=CARTESIAN_POINT('',(72.9000000003972,67.3000000001752,-36.7999999999998));
#1550=CARTESIAN_POINT('Origin',(7.29999999998756,-67.3000000003104,-40.2999999999997));
#1551=CARTESIAN_POINT('',(7.29999999998756,-67.3000000003103,-36.7999999999997));
#1552=CARTESIAN_POINT('Origin',(40.0999999998238,-6.75616189509326E-11,
-36.7999999999998));
#1553=CARTESIAN_POINT('',(-48.3584850216651,0.112844284109438,45.9));
#1554=UNCERTAINTY_MEASURE_WITH_UNIT(LENGTH_MEASURE(0.01),#1560,
'DISTANCE_ACCURACY_VALUE',
'Maximum model space distance between geometric entities at asserted c
onnectivities');
#1555=UNCERTAINTY_MEASURE_WITH_UNIT(LENGTH_MEASURE(0.01),#1560,
'DISTANCE_ACCURACY_VALUE',
'Maximum model space distance between geometric entities at asserted c
onnectivities');
#1556=UNCERTAINTY_MEASURE_WITH_UNIT(LENGTH_MEASURE(0.01),#1560,
'DISTANCE_ACCURACY_VALUE',
'Maximum model space distance between geometric entities at asserted c
onnectivities');
#1557=(
GEOMETRIC_REPRESENTATION_CONTEXT(3)
GLOBAL_UNCERTAINTY_ASSIGNED_CONTEXT((#1554))
GLOBAL_UNIT_ASSIGNED_CONTEXT((#1560,#1562,#1563))
REPRESENTATION_CONTEXT('','3D')
);
#1558=(
GEOMETRIC_REPRESENTATION_CONTEXT(3)
GLOBAL_UNCERTAINTY_ASSIGNED_CONTEXT((#1555))
GLOBAL_UNIT_ASSIGNED_CONTEXT((#1560,#1562,#1563))
REPRESENTATION_CONTEXT('','3D')
);
#1559=(
GEOMETRIC_REPRESENTATION_CONTEXT(3)
GLOBAL_UNCERTAINTY_ASSIGNED_CONTEXT((#1556))
GLOBAL_UNIT_ASSIGNED_CONTEXT((#1560,#1562,#1563))
REPRESENTATION_CONTEXT('','3D')
);
#1560=(
LENGTH_UNIT()
NAMED_UNIT(*)
SI_UNIT(.MILLI.,.METRE.)
);
#1561=(
LENGTH_UNIT()
NAMED_UNIT(*)
SI_UNIT($,.METRE.)
);
#1562=(
NAMED_UNIT(*)
PLANE_ANGLE_UNIT()
SI_UNIT($,.RADIAN.)
);
#1563=(
NAMED_UNIT(*)
SI_UNIT($,.STERADIAN.)
SOLID_ANGLE_UNIT()
);
#1564=SHAPE_DEFINITION_REPRESENTATION(#1566,#1569);
#1565=SHAPE_DEFINITION_REPRESENTATION(#1567,#1570);
#1566=PRODUCT_DEFINITION_SHAPE('',$,#1572);
#1567=PRODUCT_DEFINITION_SHAPE('',$,#1573);
#1568=PRODUCT_DEFINITION_SHAPE($,$,#14);
#1569=SHAPE_REPRESENTATION('',(#914,#1020),#1557);
#1570=SHAPE_REPRESENTATION('',(#915),#1558);
#1571=PRODUCT_DEFINITION_CONTEXT('part definition',#1579,'design');
#1572=PRODUCT_DEFINITION('2026-09-10-23-16-17-337','PRINT_LAYOUT',#1574,
#1571);
#1573=PRODUCT_DEFINITION('2026-09-10-23-16-17-328','DeskTop',#1575,#1571);
#1574=PRODUCT_DEFINITION_FORMATION('',$,#1581);
#1575=PRODUCT_DEFINITION_FORMATION('',$,#1582);
#1576=PRODUCT_RELATED_PRODUCT_CATEGORY('PRINT_LAYOUT','PRINT_LAYOUT',(#1581));
#1577=PRODUCT_RELATED_PRODUCT_CATEGORY('DeskTop','DeskTop',(#1582));
#1578=APPLICATION_PROTOCOL_DEFINITION('international standard',
'automotive_design',2009,#1579);
#1579=APPLICATION_CONTEXT(
'Core Data for Automotive Mechanical Design Process');
#1580=PRODUCT_CONTEXT('part definition',#1579,'mechanical');
#1581=PRODUCT('2026-09-10-23-16-17-337','PRINT_LAYOUT',$,(#1580));
#1582=PRODUCT('2026-09-10-23-16-17-328','DeskTop',$,(#1580));
#1583=PRESENTATION_STYLE_ASSIGNMENT((#1586));
#1584=PRESENTATION_STYLE_ASSIGNMENT((#1587));
#1585=PRESENTATION_STYLE_ASSIGNMENT((#1588));
#1586=SURFACE_STYLE_USAGE(.BOTH.,#1589);
#1587=SURFACE_STYLE_USAGE(.BOTH.,#1590);
#1588=SURFACE_STYLE_USAGE(.BOTH.,#1591);
#1589=SURFACE_SIDE_STYLE('',(#1592));
#1590=SURFACE_SIDE_STYLE('',(#1593));
#1591=SURFACE_SIDE_STYLE('',(#1594));
#1592=SURFACE_STYLE_FILL_AREA(#1595);
#1593=SURFACE_STYLE_FILL_AREA(#1596);
#1594=SURFACE_STYLE_FILL_AREA(#1597);
#1595=FILL_AREA_STYLE('Plastic - Matte (Black)',(#1598));
#1596=FILL_AREA_STYLE('Steel - Satin',(#1599));
#1597=FILL_AREA_STYLE('Brass - Old',(#1600));
#1598=FILL_AREA_STYLE_COLOUR('Plastic - Matte (Black)',#1601);
#1599=FILL_AREA_STYLE_COLOUR('Steel - Satin',#1602);
#1600=FILL_AREA_STYLE_COLOUR('Brass - Old',#1603);
#1601=COLOUR_RGB('Plastic - Matte (Black)',0.0980392156862745,0.0980392156862745,
0.0980392156862745);
#1602=COLOUR_RGB('Steel - Satin',0.627450980392157,0.627450980392157,0.627450980392157);
#1603=COLOUR_RGB('Brass - Old',0.,0.,0.);
ENDSEC;
END-ISO-10303-21;
