ISO-10303-21;
HEADER;
/* Generated by software containing ST-Developer
 * from STEP Tools, Inc. (www.steptools.com) 
 */

FILE_DESCRIPTION(
/* description */ (''),
/* implementation_level */ '2;1');

FILE_NAME(
/* name */ 'LampDiffuser.step',
/* time_stamp */ '2026-09-12T16:18:46+02:00',
/* author */ (''),
/* organization */ (''),
/* preprocessor_version */ 'ST-DEVELOPER v20.2',
/* originating_system */ 'Autodesk Translation Framework v15.15.0.0',
/* authorisation */ '');

FILE_SCHEMA (('AUTOMOTIVE_DESIGN { 1 0 10303 214 3 1 1 }'));
ENDSEC;

DATA;
#10=MECHANICAL_DESIGN_GEOMETRIC_PRESENTATION_REPRESENTATION('',(#17),#183);
#11=ITEM_DEFINED_TRANSFORMATION($,$,#108,#120);
#12=(
REPRESENTATION_RELATIONSHIP($,$,#194,#193)
REPRESENTATION_RELATIONSHIP_WITH_TRANSFORMATION(#11)
SHAPE_REPRESENTATION_RELATIONSHIP()
);
#13=CONTEXT_DEPENDENT_SHAPE_REPRESENTATION(#12,#192);
#14=NEXT_ASSEMBLY_USAGE_OCCURRENCE('LampDiffuser:1','LampDiffuser:1',
'LampDiffuser:1',#196,#197,'LampDiffuser:1');
#15=SHAPE_REPRESENTATION_RELATIONSHIP('SRR','None',#194,#16);
#16=ADVANCED_BREP_SHAPE_REPRESENTATION('',(#18),#182);
#17=STYLED_ITEM('',(#210),#18);
#18=MANIFOLD_SOLID_BREP('Body1',#94);
#19=FACE_BOUND('',#35,.T.);
#20=FACE_BOUND('',#38,.T.);
#21=PLANE('',#115);
#22=PLANE('',#119);
#23=CYLINDRICAL_SURFACE('',#113,2.94999999999982);
#24=CYLINDRICAL_SURFACE('',#117,3.34999999999999);
#25=FACE_OUTER_BOUND('',#31,.T.);
#26=FACE_OUTER_BOUND('',#32,.T.);
#27=FACE_OUTER_BOUND('',#33,.T.);
#28=FACE_OUTER_BOUND('',#34,.T.);
#29=FACE_OUTER_BOUND('',#36,.T.);
#30=FACE_OUTER_BOUND('',#37,.T.);
#31=EDGE_LOOP('',(#68,#69,#70));
#32=EDGE_LOOP('',(#71,#72,#73));
#33=EDGE_LOOP('',(#74,#75,#76,#77));
#34=EDGE_LOOP('',(#78));
#35=EDGE_LOOP('',(#79));
#36=EDGE_LOOP('',(#80,#81,#82,#83));
#37=EDGE_LOOP('',(#84));
#38=EDGE_LOOP('',(#85));
#39=LINE('',#159,#43);
#40=LINE('',#164,#44);
#41=LINE('',#167,#45);
#42=LINE('',#175,#46);
#43=VECTOR('',#129,1.47499999999999);
#44=VECTOR('',#134,1.47499999999983);
#45=VECTOR('',#137,2.94999999999982);
#46=VECTOR('',#148,3.34999999999999);
#47=CIRCLE('',#110,2.94999999999999);
#48=CIRCLE('',#112,2.94999999999966);
#49=CIRCLE('',#114,2.94999999999997);
#50=CIRCLE('',#116,3.34999999999997);
#51=CIRCLE('',#118,3.35);
#52=VERTEX_POINT('',#156);
#53=VERTEX_POINT('',#158);
#54=VERTEX_POINT('',#161);
#55=VERTEX_POINT('',#163);
#56=VERTEX_POINT('',#166);
#57=VERTEX_POINT('',#170);
#58=VERTEX_POINT('',#173);
#59=EDGE_CURVE('',#52,#52,#47,.T.);
#60=EDGE_CURVE('',#52,#53,#39,.T.);
#61=EDGE_CURVE('',#54,#54,#48,.T.);
#62=EDGE_CURVE('',#54,#55,#40,.T.);
#63=EDGE_CURVE('',#54,#56,#41,.T.);
#64=EDGE_CURVE('',#56,#56,#49,.T.);
#65=EDGE_CURVE('',#57,#57,#50,.T.);
#66=EDGE_CURVE('',#58,#58,#51,.T.);
#67=EDGE_CURVE('',#58,#57,#42,.T.);
#68=ORIENTED_EDGE('',*,*,#59,.T.);
#69=ORIENTED_EDGE('',*,*,#60,.T.);
#70=ORIENTED_EDGE('',*,*,#60,.F.);
#71=ORIENTED_EDGE('',*,*,#61,.F.);
#72=ORIENTED_EDGE('',*,*,#62,.T.);
#73=ORIENTED_EDGE('',*,*,#62,.F.);
#74=ORIENTED_EDGE('',*,*,#61,.T.);
#75=ORIENTED_EDGE('',*,*,#63,.T.);
#76=ORIENTED_EDGE('',*,*,#64,.F.);
#77=ORIENTED_EDGE('',*,*,#63,.F.);
#78=ORIENTED_EDGE('',*,*,#65,.F.);
#79=ORIENTED_EDGE('',*,*,#64,.T.);
#80=ORIENTED_EDGE('',*,*,#66,.F.);
#81=ORIENTED_EDGE('',*,*,#67,.T.);
#82=ORIENTED_EDGE('',*,*,#65,.T.);
#83=ORIENTED_EDGE('',*,*,#67,.F.);
#84=ORIENTED_EDGE('',*,*,#66,.T.);
#85=ORIENTED_EDGE('',*,*,#59,.F.);
#86=CONICAL_SURFACE('',#109,1.47499999999999,0.32523821118542);
#87=CONICAL_SURFACE('',#111,1.47499999999983,0.325238211185414);
#88=ADVANCED_FACE('',(#25),#86,.F.);
#89=ADVANCED_FACE('',(#26),#87,.T.);
#90=ADVANCED_FACE('',(#27),#23,.F.);
#91=ADVANCED_FACE('',(#28,#19),#21,.T.);
#92=ADVANCED_FACE('',(#29),#24,.T.);
#93=ADVANCED_FACE('',(#30,#20),#22,.T.);
#94=CLOSED_SHELL('',(#88,#89,#90,#91,#92,#93));
#95=DERIVED_UNIT_ELEMENT(#97,1.);
#96=DERIVED_UNIT_ELEMENT(#185,-3.);
#97=(
MASS_UNIT()
NAMED_UNIT(*)
SI_UNIT(.KILO.,.GRAM.)
);
#98=DERIVED_UNIT((#95,#96));
#99=MEASURE_REPRESENTATION_ITEM('density measure',
POSITIVE_RATIO_MEASURE(7850.),#98);
#100=PROPERTY_DEFINITION_REPRESENTATION(#105,#102);
#101=PROPERTY_DEFINITION_REPRESENTATION(#106,#103);
#102=REPRESENTATION('material name',(#104),#182);
#103=REPRESENTATION('density',(#99),#182);
#104=DESCRIPTIVE_REPRESENTATION_ITEM('Steel','Steel');
#105=PROPERTY_DEFINITION('material property','material name',#197);
#106=PROPERTY_DEFINITION('material property','density of part',#197);
#107=AXIS2_PLACEMENT_3D('',#153,#121,#122);
#108=AXIS2_PLACEMENT_3D('',#154,#123,#124);
#109=AXIS2_PLACEMENT_3D('',#155,#125,#126);
#110=AXIS2_PLACEMENT_3D('',#157,#127,#128);
#111=AXIS2_PLACEMENT_3D('',#160,#130,#131);
#112=AXIS2_PLACEMENT_3D('',#162,#132,#133);
#113=AXIS2_PLACEMENT_3D('',#165,#135,#136);
#114=AXIS2_PLACEMENT_3D('',#168,#138,#139);
#115=AXIS2_PLACEMENT_3D('',#169,#140,#141);
#116=AXIS2_PLACEMENT_3D('',#171,#142,#143);
#117=AXIS2_PLACEMENT_3D('',#172,#144,#145);
#118=AXIS2_PLACEMENT_3D('',#174,#146,#147);
#119=AXIS2_PLACEMENT_3D('',#176,#149,#150);
#120=AXIS2_PLACEMENT_3D('',#177,#151,#152);
#121=DIRECTION('axis',(0.,0.,1.));
#122=DIRECTION('refdir',(1.,0.,0.));
#123=DIRECTION('axis',(0.,0.,1.));
#124=DIRECTION('refdir',(1.,0.,0.));
#125=DIRECTION('center_axis',(-8.52794342822036E-31,-5.15856555689264E-46,
-1.));
#126=DIRECTION('ref_axis',(1.36502254866709E-30,-1.,0.));
#127=DIRECTION('center_axis',(-8.52794342822036E-31,-5.15856555689264E-46,
-1.));
#128=DIRECTION('ref_axis',(1.,-4.39919552399465E-76,-8.52794342822036E-31));
#129=DIRECTION('',(-3.91316924438707E-17,-0.31953451779825,0.947574636604125));
#130=DIRECTION('center_axis',(-8.52794342822036E-31,-5.15856555689264E-46,
-1.));
#131=DIRECTION('ref_axis',(1.36502254866709E-30,-1.,0.));
#132=DIRECTION('center_axis',(-8.52794342822036E-31,-5.15856555689264E-46,
-1.));
#133=DIRECTION('ref_axis',(1.,-4.39919552399465E-76,-8.52794342822036E-31));
#134=DIRECTION('',(-3.913169244387E-17,-0.319534517798244,0.947574636604127));
#135=DIRECTION('center_axis',(-8.52794342822036E-31,-5.15856555689264E-46,
-1.));
#136=DIRECTION('ref_axis',(1.36502254866709E-30,-1.,0.));
#137=DIRECTION('',(8.52794342822036E-31,5.15856555689264E-46,1.));
#138=DIRECTION('center_axis',(-8.52794342822036E-31,-5.15856555689264E-46,
-1.));
#139=DIRECTION('ref_axis',(1.,-4.39919552399465E-76,-8.52794342822036E-31));
#140=DIRECTION('center_axis',(8.52794342822036E-31,5.15856555689264E-46,
1.));
#141=DIRECTION('ref_axis',(1.,0.,-8.52794342822036E-31));
#142=DIRECTION('center_axis',(-8.52794342822036E-31,-5.15856555689264E-46,
-1.));
#143=DIRECTION('ref_axis',(1.,-4.39919552399465E-76,-8.52794342822036E-31));
#144=DIRECTION('center_axis',(-8.52794342822036E-31,-5.15856555689264E-46,
-1.));
#145=DIRECTION('ref_axis',(1.36502254866709E-30,-1.,0.));
#146=DIRECTION('center_axis',(-8.52794342822036E-31,-5.15856555689264E-46,
-1.));
#147=DIRECTION('ref_axis',(1.,-4.39919552399465E-76,-8.52794342822036E-31));
#148=DIRECTION('',(8.52794342822036E-31,5.15856555689264E-46,1.));
#149=DIRECTION('center_axis',(-8.52794342822036E-31,-5.15856555689264E-46,
-1.));
#150=DIRECTION('ref_axis',(-1.,0.,8.52794342822036E-31));
#151=DIRECTION('',(0.,0.,1.));
#152=DIRECTION('',(-1.,1.22464679914735E-16,0.));
#153=CARTESIAN_POINT('',(0.,0.,0.));
#154=CARTESIAN_POINT('',(0.,0.,0.));
#155=CARTESIAN_POINT('Origin',(50.099999999989,48.5499999999997,-32.4259104693234));
#156=CARTESIAN_POINT('',(50.099999999989,51.4999999999997,-36.7999999999998));
#157=CARTESIAN_POINT('Origin',(50.099999999989,48.5499999999997,-36.7999999999998));
#158=CARTESIAN_POINT('',(50.099999999989,48.5499999999997,-28.0518209386469));
#159=CARTESIAN_POINT('',(50.099999999989,50.0249999999997,-32.4259104693234));
#160=CARTESIAN_POINT('Origin',(50.099999999989,48.5499999999997,-31.1740895306759));
#161=CARTESIAN_POINT('',(50.099999999989,51.4999999999994,-35.548179061352));
#162=CARTESIAN_POINT('Origin',(50.099999999989,48.5499999999997,-35.548179061352));
#163=CARTESIAN_POINT('',(50.099999999989,48.5499999999997,-26.7999999999999));
#164=CARTESIAN_POINT('',(50.099999999989,50.0249999999995,-31.1740895306759));
#165=CARTESIAN_POINT('Origin',(50.099999999989,48.5499999999997,-26.1740895306759));
#166=CARTESIAN_POINT('',(50.099999999989,51.4999999999995,-16.7999999999998));
#167=CARTESIAN_POINT('',(50.099999999989,51.4999999999995,-26.1740895306759));
#168=CARTESIAN_POINT('Origin',(50.099999999989,48.5499999999997,-16.7999999999998));
#169=CARTESIAN_POINT('Origin',(50.099999999989,45.1999999999997,-16.7999999999998));
#170=CARTESIAN_POINT('',(50.099999999989,51.8999999999997,-16.7999999999998));
#171=CARTESIAN_POINT('Origin',(50.099999999989,48.5499999999997,-16.7999999999998));
#172=CARTESIAN_POINT('Origin',(50.099999999989,48.5499999999997,-26.7999999999998));
#173=CARTESIAN_POINT('',(50.099999999989,51.8999999999997,-36.7999999999998));
#174=CARTESIAN_POINT('Origin',(50.099999999989,48.5499999999997,-36.7999999999998));
#175=CARTESIAN_POINT('',(50.099999999989,51.8999999999997,-26.7999999999998));
#176=CARTESIAN_POINT('Origin',(50.099999999989,45.5999999999997,-36.7999999999998));
#177=CARTESIAN_POINT('',(50.099999999989,48.5499999999997,36.7999999999998));
#178=UNCERTAINTY_MEASURE_WITH_UNIT(LENGTH_MEASURE(0.01),#184,
'DISTANCE_ACCURACY_VALUE',
'Maximum model space distance between geometric entities at asserted c
onnectivities');
#179=UNCERTAINTY_MEASURE_WITH_UNIT(LENGTH_MEASURE(0.01),#184,
'DISTANCE_ACCURACY_VALUE',
'Maximum model space distance between geometric entities at asserted c
onnectivities');
#180=UNCERTAINTY_MEASURE_WITH_UNIT(LENGTH_MEASURE(0.01),#184,
'DISTANCE_ACCURACY_VALUE',
'Maximum model space distance between geometric entities at asserted c
onnectivities');
#181=(
GEOMETRIC_REPRESENTATION_CONTEXT(3)
GLOBAL_UNCERTAINTY_ASSIGNED_CONTEXT((#178))
GLOBAL_UNIT_ASSIGNED_CONTEXT((#184,#186,#187))
REPRESENTATION_CONTEXT('','3D')
);
#182=(
GEOMETRIC_REPRESENTATION_CONTEXT(3)
GLOBAL_UNCERTAINTY_ASSIGNED_CONTEXT((#179))
GLOBAL_UNIT_ASSIGNED_CONTEXT((#184,#186,#187))
REPRESENTATION_CONTEXT('','3D')
);
#183=(
GEOMETRIC_REPRESENTATION_CONTEXT(3)
GLOBAL_UNCERTAINTY_ASSIGNED_CONTEXT((#180))
GLOBAL_UNIT_ASSIGNED_CONTEXT((#184,#186,#187))
REPRESENTATION_CONTEXT('','3D')
);
#184=(
LENGTH_UNIT()
NAMED_UNIT(*)
SI_UNIT(.MILLI.,.METRE.)
);
#185=(
LENGTH_UNIT()
NAMED_UNIT(*)
SI_UNIT($,.METRE.)
);
#186=(
NAMED_UNIT(*)
PLANE_ANGLE_UNIT()
SI_UNIT($,.RADIAN.)
);
#187=(
NAMED_UNIT(*)
SI_UNIT($,.STERADIAN.)
SOLID_ANGLE_UNIT()
);
#188=SHAPE_DEFINITION_REPRESENTATION(#190,#193);
#189=SHAPE_DEFINITION_REPRESENTATION(#191,#194);
#190=PRODUCT_DEFINITION_SHAPE('',$,#196);
#191=PRODUCT_DEFINITION_SHAPE('',$,#197);
#192=PRODUCT_DEFINITION_SHAPE($,$,#14);
#193=SHAPE_REPRESENTATION('',(#107,#120),#181);
#194=SHAPE_REPRESENTATION('',(#108),#182);
#195=PRODUCT_DEFINITION_CONTEXT('part definition',#203,'design');
#196=PRODUCT_DEFINITION('2026-09-12-16-18-45-890','PRINT_LAYOUT',#198,#195);
#197=PRODUCT_DEFINITION('2026-09-12-16-18-45-890_1','LampDiffuser',#199,
#195);
#198=PRODUCT_DEFINITION_FORMATION('',$,#205);
#199=PRODUCT_DEFINITION_FORMATION('',$,#206);
#200=PRODUCT_RELATED_PRODUCT_CATEGORY('PRINT_LAYOUT','PRINT_LAYOUT',(#205));
#201=PRODUCT_RELATED_PRODUCT_CATEGORY('LampDiffuser','LampDiffuser',(#206));
#202=APPLICATION_PROTOCOL_DEFINITION('international standard',
'automotive_design',2009,#203);
#203=APPLICATION_CONTEXT(
'Core Data for Automotive Mechanical Design Process');
#204=PRODUCT_CONTEXT('part definition',#203,'mechanical');
#205=PRODUCT('2026-09-12-16-18-45-890','PRINT_LAYOUT',$,(#204));
#206=PRODUCT('2026-09-12-16-18-45-890_1','LampDiffuser',$,(#204));
#207=PRESENTATION_STYLE_ASSIGNMENT((#211));
#208=PRESENTATION_STYLE_ASSIGNMENT((#212));
#209=PRESENTATION_STYLE_ASSIGNMENT((#213));
#210=PRESENTATION_STYLE_ASSIGNMENT((#214));
#211=SURFACE_STYLE_USAGE(.BOTH.,#215);
#212=SURFACE_STYLE_USAGE(.BOTH.,#216);
#213=SURFACE_STYLE_USAGE(.BOTH.,#217);
#214=SURFACE_STYLE_USAGE(.BOTH.,#218);
#215=SURFACE_SIDE_STYLE('',(#219));
#216=SURFACE_SIDE_STYLE('',(#220));
#217=SURFACE_SIDE_STYLE('',(#221));
#218=SURFACE_SIDE_STYLE('',(#222));
#219=SURFACE_STYLE_FILL_AREA(#223);
#220=SURFACE_STYLE_FILL_AREA(#224);
#221=SURFACE_STYLE_FILL_AREA(#225);
#222=SURFACE_STYLE_FILL_AREA(#226);
#223=FILL_AREA_STYLE('Plastic - Matte (Black)',(#227));
#224=FILL_AREA_STYLE('Steel - Satin',(#228));
#225=FILL_AREA_STYLE('Brass - Old',(#229));
#226=FILL_AREA_STYLE('Glass - Noise',(#230));
#227=FILL_AREA_STYLE_COLOUR('Plastic - Matte (Black)',#231);
#228=FILL_AREA_STYLE_COLOUR('Steel - Satin',#232);
#229=FILL_AREA_STYLE_COLOUR('Brass - Old',#233);
#230=FILL_AREA_STYLE_COLOUR('Glass - Noise',#234);
#231=COLOUR_RGB('Plastic - Matte (Black)',0.0980392156862745,0.0980392156862745,
0.0980392156862745);
#232=COLOUR_RGB('Steel - Satin',0.627450980392157,0.627450980392157,0.627450980392157);
#233=COLOUR_RGB('Brass - Old',0.,0.,0.);
#234=COLOUR_RGB('Glass - Noise',0.964705882352941,0.964705882352941,0.952941176470588);
ENDSEC;
END-ISO-10303-21;
