ISO-10303-21;
HEADER;
/* Generated by software containing ST-Developer
 * from STEP Tools, Inc. (www.steptools.com) 
 */

FILE_DESCRIPTION(
/* description */ (''),
/* implementation_level */ '2;1');

FILE_NAME(
/* name */ 'LaptopScreen.step',
/* time_stamp */ '2026-10-05T12:59:51+02:00',
/* author */ (''),
/* organization */ (''),
/* preprocessor_version */ 'ST-DEVELOPER v20.2',
/* originating_system */ 'Autodesk Translation Framework v15.15.0.0',
/* authorisation */ '');

FILE_SCHEMA (('AUTOMOTIVE_DESIGN { 1 0 10303 214 3 1 1 }'));
ENDSEC;

DATA;
#10=MECHANICAL_DESIGN_GEOMETRIC_PRESENTATION_REPRESENTATION('',(#17),#337);
#11=ITEM_DEFINED_TRANSFORMATION($,$,#201,#220);
#12=(
REPRESENTATION_RELATIONSHIP($,$,#348,#347)
REPRESENTATION_RELATIONSHIP_WITH_TRANSFORMATION(#11)
SHAPE_REPRESENTATION_RELATIONSHIP()
);
#13=CONTEXT_DEPENDENT_SHAPE_REPRESENTATION(#12,#346);
#14=NEXT_ASSEMBLY_USAGE_OCCURRENCE('LaptopScreen:1','LaptopScreen:1',
'LaptopScreen:1',#350,#351,'LaptopScreen:1');
#15=SHAPE_REPRESENTATION_RELATIONSHIP('SRR','None',#348,#16);
#16=ADVANCED_BREP_SHAPE_REPRESENTATION('',(#18),#336);
#17=STYLED_ITEM('',(#361),#18);
#18=MANIFOLD_SOLID_BREP('Body1',#187);
#19=PLANE('',#205);
#20=PLANE('',#206);
#21=PLANE('',#212);
#22=PLANE('',#215);
#23=PLANE('',#218);
#24=PLANE('',#219);
#25=FACE_OUTER_BOUND('',#35,.T.);
#26=FACE_OUTER_BOUND('',#36,.T.);
#27=FACE_OUTER_BOUND('',#37,.T.);
#28=FACE_OUTER_BOUND('',#38,.T.);
#29=FACE_OUTER_BOUND('',#39,.T.);
#30=FACE_OUTER_BOUND('',#40,.T.);
#31=FACE_OUTER_BOUND('',#41,.T.);
#32=FACE_OUTER_BOUND('',#42,.T.);
#33=FACE_OUTER_BOUND('',#43,.T.);
#34=FACE_OUTER_BOUND('',#44,.T.);
#35=EDGE_LOOP('',(#125,#126,#127,#128));
#36=EDGE_LOOP('',(#129,#130,#131,#132));
#37=EDGE_LOOP('',(#133,#134,#135,#136,#137,#138,#139,#140));
#38=EDGE_LOOP('',(#141,#142,#143,#144));
#39=EDGE_LOOP('',(#145,#146,#147,#148));
#40=EDGE_LOOP('',(#149,#150,#151,#152));
#41=EDGE_LOOP('',(#153,#154,#155,#156));
#42=EDGE_LOOP('',(#157,#158,#159,#160));
#43=EDGE_LOOP('',(#161,#162,#163,#164));
#44=EDGE_LOOP('',(#165,#166,#167,#168,#169,#170,#171,#172));
#45=LINE('',#286,#61);
#46=LINE('',#289,#62);
#47=LINE('',#292,#63);
#48=LINE('',#294,#64);
#49=LINE('',#295,#65);
#50=LINE('',#298,#66);
#51=LINE('',#302,#67);
#52=LINE('',#306,#68);
#53=LINE('',#311,#69);
#54=LINE('',#314,#70);
#55=LINE('',#315,#71);
#56=LINE('',#319,#72);
#57=LINE('',#322,#73);
#58=LINE('',#323,#74);
#59=LINE('',#327,#75);
#60=LINE('',#329,#76);
#61=VECTOR('',#229,10.);
#62=VECTOR('',#232,10.);
#63=VECTOR('',#235,10.);
#64=VECTOR('',#236,10.);
#65=VECTOR('',#237,10.);
#66=VECTOR('',#240,10.);
#67=VECTOR('',#243,10.);
#68=VECTOR('',#246,10.);
#69=VECTOR('',#253,10.);
#70=VECTOR('',#256,10.);
#71=VECTOR('',#257,10.);
#72=VECTOR('',#262,10.);
#73=VECTOR('',#265,10.);
#74=VECTOR('',#266,10.);
#75=VECTOR('',#271,10.);
#76=VECTOR('',#274,10.);
#77=CIRCLE('',#203,1.5);
#78=CIRCLE('',#204,1.5);
#79=CIRCLE('',#207,1.5);
#80=CIRCLE('',#208,1.5);
#81=CIRCLE('',#209,1.5);
#82=CIRCLE('',#211,1.5);
#83=CIRCLE('',#214,1.5);
#84=CIRCLE('',#217,1.5);
#85=VERTEX_POINT('',#282);
#86=VERTEX_POINT('',#283);
#87=VERTEX_POINT('',#285);
#88=VERTEX_POINT('',#287);
#89=VERTEX_POINT('',#291);
#90=VERTEX_POINT('',#293);
#91=VERTEX_POINT('',#297);
#92=VERTEX_POINT('',#299);
#93=VERTEX_POINT('',#301);
#94=VERTEX_POINT('',#303);
#95=VERTEX_POINT('',#305);
#96=VERTEX_POINT('',#309);
#97=VERTEX_POINT('',#313);
#98=VERTEX_POINT('',#317);
#99=VERTEX_POINT('',#321);
#100=VERTEX_POINT('',#325);
#101=EDGE_CURVE('',#85,#86,#77,.T.);
#102=EDGE_CURVE('',#86,#87,#45,.T.);
#103=EDGE_CURVE('',#87,#88,#78,.T.);
#104=EDGE_CURVE('',#88,#85,#46,.T.);
#105=EDGE_CURVE('',#88,#89,#47,.T.);
#106=EDGE_CURVE('',#90,#89,#48,.T.);
#107=EDGE_CURVE('',#85,#90,#49,.T.);
#108=EDGE_CURVE('',#91,#87,#50,.T.);
#109=EDGE_CURVE('',#92,#91,#79,.T.);
#110=EDGE_CURVE('',#93,#92,#51,.T.);
#111=EDGE_CURVE('',#94,#93,#80,.T.);
#112=EDGE_CURVE('',#95,#94,#52,.T.);
#113=EDGE_CURVE('',#89,#95,#81,.T.);
#114=EDGE_CURVE('',#96,#90,#82,.T.);
#115=EDGE_CURVE('',#95,#96,#53,.T.);
#116=EDGE_CURVE('',#97,#94,#54,.T.);
#117=EDGE_CURVE('',#96,#97,#55,.T.);
#118=EDGE_CURVE('',#98,#97,#83,.T.);
#119=EDGE_CURVE('',#93,#98,#56,.T.);
#120=EDGE_CURVE('',#99,#92,#57,.T.);
#121=EDGE_CURVE('',#98,#99,#58,.T.);
#122=EDGE_CURVE('',#100,#99,#84,.T.);
#123=EDGE_CURVE('',#91,#100,#59,.T.);
#124=EDGE_CURVE('',#100,#86,#60,.T.);
#125=ORIENTED_EDGE('',*,*,#101,.T.);
#126=ORIENTED_EDGE('',*,*,#102,.T.);
#127=ORIENTED_EDGE('',*,*,#103,.T.);
#128=ORIENTED_EDGE('',*,*,#104,.T.);
#129=ORIENTED_EDGE('',*,*,#104,.F.);
#130=ORIENTED_EDGE('',*,*,#105,.T.);
#131=ORIENTED_EDGE('',*,*,#106,.F.);
#132=ORIENTED_EDGE('',*,*,#107,.F.);
#133=ORIENTED_EDGE('',*,*,#103,.F.);
#134=ORIENTED_EDGE('',*,*,#108,.F.);
#135=ORIENTED_EDGE('',*,*,#109,.F.);
#136=ORIENTED_EDGE('',*,*,#110,.F.);
#137=ORIENTED_EDGE('',*,*,#111,.F.);
#138=ORIENTED_EDGE('',*,*,#112,.F.);
#139=ORIENTED_EDGE('',*,*,#113,.F.);
#140=ORIENTED_EDGE('',*,*,#105,.F.);
#141=ORIENTED_EDGE('',*,*,#114,.T.);
#142=ORIENTED_EDGE('',*,*,#106,.T.);
#143=ORIENTED_EDGE('',*,*,#113,.T.);
#144=ORIENTED_EDGE('',*,*,#115,.T.);
#145=ORIENTED_EDGE('',*,*,#115,.F.);
#146=ORIENTED_EDGE('',*,*,#112,.T.);
#147=ORIENTED_EDGE('',*,*,#116,.F.);
#148=ORIENTED_EDGE('',*,*,#117,.F.);
#149=ORIENTED_EDGE('',*,*,#118,.T.);
#150=ORIENTED_EDGE('',*,*,#116,.T.);
#151=ORIENTED_EDGE('',*,*,#111,.T.);
#152=ORIENTED_EDGE('',*,*,#119,.T.);
#153=ORIENTED_EDGE('',*,*,#119,.F.);
#154=ORIENTED_EDGE('',*,*,#110,.T.);
#155=ORIENTED_EDGE('',*,*,#120,.F.);
#156=ORIENTED_EDGE('',*,*,#121,.F.);
#157=ORIENTED_EDGE('',*,*,#122,.T.);
#158=ORIENTED_EDGE('',*,*,#120,.T.);
#159=ORIENTED_EDGE('',*,*,#109,.T.);
#160=ORIENTED_EDGE('',*,*,#123,.T.);
#161=ORIENTED_EDGE('',*,*,#102,.F.);
#162=ORIENTED_EDGE('',*,*,#124,.F.);
#163=ORIENTED_EDGE('',*,*,#123,.F.);
#164=ORIENTED_EDGE('',*,*,#108,.T.);
#165=ORIENTED_EDGE('',*,*,#101,.F.);
#166=ORIENTED_EDGE('',*,*,#107,.T.);
#167=ORIENTED_EDGE('',*,*,#114,.F.);
#168=ORIENTED_EDGE('',*,*,#117,.T.);
#169=ORIENTED_EDGE('',*,*,#118,.F.);
#170=ORIENTED_EDGE('',*,*,#121,.T.);
#171=ORIENTED_EDGE('',*,*,#122,.F.);
#172=ORIENTED_EDGE('',*,*,#124,.T.);
#173=CYLINDRICAL_SURFACE('',#202,1.5);
#174=CYLINDRICAL_SURFACE('',#210,1.5);
#175=CYLINDRICAL_SURFACE('',#213,1.5);
#176=CYLINDRICAL_SURFACE('',#216,1.5);
#177=ADVANCED_FACE('',(#25),#173,.T.);
#178=ADVANCED_FACE('',(#26),#19,.T.);
#179=ADVANCED_FACE('',(#27),#20,.F.);
#180=ADVANCED_FACE('',(#28),#174,.T.);
#181=ADVANCED_FACE('',(#29),#21,.T.);
#182=ADVANCED_FACE('',(#30),#175,.T.);
#183=ADVANCED_FACE('',(#31),#22,.T.);
#184=ADVANCED_FACE('',(#32),#176,.T.);
#185=ADVANCED_FACE('',(#33),#23,.T.);
#186=ADVANCED_FACE('',(#34),#24,.T.);
#187=CLOSED_SHELL('',(#177,#178,#179,#180,#181,#182,#183,#184,#185,#186));
#188=DERIVED_UNIT_ELEMENT(#190,1.);
#189=DERIVED_UNIT_ELEMENT(#339,-3.);
#190=(
MASS_UNIT()
NAMED_UNIT(*)
SI_UNIT(.KILO.,.GRAM.)
);
#191=DERIVED_UNIT((#188,#189));
#192=MEASURE_REPRESENTATION_ITEM('density measure',
POSITIVE_RATIO_MEASURE(7850.),#191);
#193=PROPERTY_DEFINITION_REPRESENTATION(#198,#195);
#194=PROPERTY_DEFINITION_REPRESENTATION(#199,#196);
#195=REPRESENTATION('material name',(#197),#336);
#196=REPRESENTATION('density',(#192),#336);
#197=DESCRIPTIVE_REPRESENTATION_ITEM('Steel','Steel');
#198=PROPERTY_DEFINITION('material property','material name',#351);
#199=PROPERTY_DEFINITION('material property','density of part',#351);
#200=AXIS2_PLACEMENT_3D('',#279,#221,#222);
#201=AXIS2_PLACEMENT_3D('',#280,#223,#224);
#202=AXIS2_PLACEMENT_3D('',#281,#225,#226);
#203=AXIS2_PLACEMENT_3D('',#284,#227,#228);
#204=AXIS2_PLACEMENT_3D('',#288,#230,#231);
#205=AXIS2_PLACEMENT_3D('',#290,#233,#234);
#206=AXIS2_PLACEMENT_3D('',#296,#238,#239);
#207=AXIS2_PLACEMENT_3D('',#300,#241,#242);
#208=AXIS2_PLACEMENT_3D('',#304,#244,#245);
#209=AXIS2_PLACEMENT_3D('',#307,#247,#248);
#210=AXIS2_PLACEMENT_3D('',#308,#249,#250);
#211=AXIS2_PLACEMENT_3D('',#310,#251,#252);
#212=AXIS2_PLACEMENT_3D('',#312,#254,#255);
#213=AXIS2_PLACEMENT_3D('',#316,#258,#259);
#214=AXIS2_PLACEMENT_3D('',#318,#260,#261);
#215=AXIS2_PLACEMENT_3D('',#320,#263,#264);
#216=AXIS2_PLACEMENT_3D('',#324,#267,#268);
#217=AXIS2_PLACEMENT_3D('',#326,#269,#270);
#218=AXIS2_PLACEMENT_3D('',#328,#272,#273);
#219=AXIS2_PLACEMENT_3D('',#330,#275,#276);
#220=AXIS2_PLACEMENT_3D('',#331,#277,#278);
#221=DIRECTION('axis',(0.,0.,1.));
#222=DIRECTION('refdir',(1.,0.,0.));
#223=DIRECTION('axis',(0.,0.,1.));
#224=DIRECTION('refdir',(1.,0.,0.));
#225=DIRECTION('center_axis',(0.819152044289,4.44089209850063E-15,0.573576436351034));
#226=DIRECTION('ref_axis',(0.405579787672634,-0.707106781186548,-0.579227965339572));
#227=DIRECTION('center_axis',(-0.819152044289,-4.44089209850063E-15,-0.573576436351034));
#228=DIRECTION('ref_axis',(0.405579787672634,-0.707106781186548,-0.579227965339572));
#229=DIRECTION('',(-0.819152044289,-4.44089209850063E-15,-0.573576436351034));
#230=DIRECTION('center_axis',(0.819152044289,4.23241812814972E-15,0.573576436351034));
#231=DIRECTION('ref_axis',(0.405579787672634,-0.707106781186548,-0.579227965339572));
#232=DIRECTION('',(0.819152044289,4.44089209850063E-15,0.573576436351034));
#233=DIRECTION('center_axis',(0.573576436351034,3.8192172854343E-16,-0.819152044289));
#234=DIRECTION('ref_axis',(-3.73952983392714E-15,1.,-2.15220663797414E-15));
#235=DIRECTION('',(-3.73952983392714E-15,1.,-2.15220663797414E-15));
#236=DIRECTION('',(-0.819152044289,-4.44089209850063E-15,-0.573576436351034));
#237=DIRECTION('',(-3.73952983392714E-15,1.,-2.15220663797414E-15));
#238=DIRECTION('center_axis',(0.819152044289,4.23241812814972E-15,0.573576436351034));
#239=DIRECTION('ref_axis',(-5.19326891336576E-15,1.,3.7760823847888E-17));
#240=DIRECTION('',(0.573576436351034,8.760670681894E-16,-0.819152044289));
#241=DIRECTION('center_axis',(0.819152044289,4.23241812814972E-15,0.573576436351034));
#242=DIRECTION('ref_axis',(-0.405579787672626,-0.707106781186549,0.579227965339577));
#243=DIRECTION('',(3.98749799545926E-15,-1.,1.68425850914794E-15));
#244=DIRECTION('center_axis',(0.819152044289,4.23241812814972E-15,0.573576436351034));
#245=DIRECTION('ref_axis',(-0.405579787672635,0.707106781186545,0.579227965339575));
#246=DIRECTION('',(-0.573576436351034,-1.13209924389347E-15,0.819152044289));
#247=DIRECTION('center_axis',(0.819152044289,4.23241812814972E-15,0.573576436351034));
#248=DIRECTION('ref_axis',(0.405579787672629,0.707106781186549,-0.579227965339575));
#249=DIRECTION('center_axis',(0.819152044289,4.44089209850063E-15,0.573576436351034));
#250=DIRECTION('ref_axis',(0.405579787672629,0.707106781186549,-0.579227965339575));
#251=DIRECTION('center_axis',(-0.819152044289,-4.44089209850063E-15,-0.573576436351034));
#252=DIRECTION('ref_axis',(0.405579787672629,0.707106781186549,-0.579227965339575));
#253=DIRECTION('',(0.819152044289,4.44089209850063E-15,0.573576436351034));
#254=DIRECTION('center_axis',(-4.28711129086177E-15,1.,-1.61982965410409E-15));
#255=DIRECTION('ref_axis',(-0.573576436351034,-1.13209924389347E-15,0.819152044289));
#256=DIRECTION('',(-0.819152044289,-4.44089209850063E-15,-0.573576436351034));
#257=DIRECTION('',(-0.573576436351034,-1.13209924389347E-15,0.819152044289));
#258=DIRECTION('center_axis',(0.819152044289,4.44089209850063E-15,0.573576436351034));
#259=DIRECTION('ref_axis',(-0.405579787672635,0.707106781186545,0.579227965339575));
#260=DIRECTION('center_axis',(-0.819152044289,-4.44089209850063E-15,-0.573576436351034));
#261=DIRECTION('ref_axis',(-0.405579787672635,0.707106781186545,0.579227965339575));
#262=DIRECTION('',(0.819152044289,4.44089209850063E-15,0.573576436351034));
#263=DIRECTION('center_axis',(-0.573576436351034,-9.07471089312738E-16,
0.819152044289));
#264=DIRECTION('ref_axis',(3.98749799545926E-15,-1.,1.68425850914794E-15));
#265=DIRECTION('',(-0.819152044289,-4.44089209850063E-15,-0.573576436351034));
#266=DIRECTION('',(3.98749799545926E-15,-1.,1.68425850914794E-15));
#267=DIRECTION('center_axis',(0.819152044289,4.44089209850063E-15,0.573576436351034));
#268=DIRECTION('ref_axis',(-0.405579787672626,-0.707106781186549,0.579227965339577));
#269=DIRECTION('center_axis',(-0.819152044289,-4.44089209850063E-15,-0.573576436351034));
#270=DIRECTION('ref_axis',(-0.405579787672626,-0.707106781186549,0.579227965339577));
#271=DIRECTION('',(0.819152044289,4.44089209850063E-15,0.573576436351034));
#272=DIRECTION('center_axis',(4.14025726793023E-15,-1.,1.82955893423584E-15));
#273=DIRECTION('ref_axis',(0.573576436351034,8.760670681894E-16,-0.819152044289));
#274=DIRECTION('',(0.573576436351034,8.760670681894E-16,-0.819152044289));
#275=DIRECTION('center_axis',(0.819152044289,4.44089209850063E-15,0.573576436351034));
#276=DIRECTION('ref_axis',(0.573576436351034,0.,-0.819152044289));
#277=DIRECTION('',(0.819152044289,-3.94430452610506E-31,0.573576436351034));
#278=DIRECTION('',(-0.573576436351034,0.,0.819152044289));
#279=CARTESIAN_POINT('',(0.,0.,0.));
#280=CARTESIAN_POINT('',(0.,0.,0.));
#281=CARTESIAN_POINT('Origin',(31.8012890578198,-15.4000000000028,-36.0797807069925));
#282=CARTESIAN_POINT('',(33.8903817787798,-15.4000000000028,-36.4481441188995));
#283=CARTESIAN_POINT('',(33.0300171242533,-16.9000000000028,-35.219416052466));
#284=CARTESIAN_POINT('Origin',(33.0300171242533,-15.4000000000028,-35.219416052466));
#285=CARTESIAN_POINT('',(31.8012890578198,-16.9000000000028,-36.0797807069925));
#286=CARTESIAN_POINT('',(31.8012890578198,-16.9000000000028,-36.0797807069925));
#287=CARTESIAN_POINT('',(32.6616537123463,-15.4000000000028,-37.308508773426));
#288=CARTESIAN_POINT('Origin',(31.8012890578198,-15.4000000000028,-36.0797807069925));
#289=CARTESIAN_POINT('',(32.6616537123463,-15.4000000000028,-37.308508773426));
#290=CARTESIAN_POINT('Origin',(32.6616537123463,-16.9000000000028,-37.308508773426));
#291=CARTESIAN_POINT('',(32.6616537123462,15.3999999999969,-37.3085087734261));
#292=CARTESIAN_POINT('',(32.6616537123463,-16.9000000000028,-37.308508773426));
#293=CARTESIAN_POINT('',(33.8903817787797,15.3999999999969,-36.4481441188996));
#294=CARTESIAN_POINT('',(32.6616537123462,15.3999999999969,-37.3085087734261));
#295=CARTESIAN_POINT('',(33.8903817787798,-16.9000000000028,-36.4481441188995));
#296=CARTESIAN_POINT('Origin',(25.2001177049884,-2.97130904252473E-12,-26.652330997283));
#297=CARTESIAN_POINT('',(18.5989463521571,-16.9000000000029,-17.2248812875735));
#298=CARTESIAN_POINT('',(17.7385816976305,-16.9000000000029,-15.99615322114));
#299=CARTESIAN_POINT('',(17.7385816976305,-15.4000000000029,-15.99615322114));
#300=CARTESIAN_POINT('Origin',(18.5989463521571,-15.4000000000029,-17.2248812875735));
#301=CARTESIAN_POINT('',(17.7385816976304,15.3999999999969,-15.99615322114));
#302=CARTESIAN_POINT('',(17.7385816976304,16.8999999999969,-15.99615322114));
#303=CARTESIAN_POINT('',(18.5989463521569,16.8999999999969,-17.2248812875735));
#304=CARTESIAN_POINT('Origin',(18.5989463521569,15.3999999999969,-17.2248812875735));
#305=CARTESIAN_POINT('',(31.8012890578196,16.8999999999969,-36.0797807069926));
#306=CARTESIAN_POINT('',(32.6616537123462,16.8999999999969,-37.3085087734261));
#307=CARTESIAN_POINT('Origin',(31.8012890578196,15.3999999999969,-36.0797807069926));
#308=CARTESIAN_POINT('Origin',(31.8012890578196,15.3999999999969,-36.0797807069926));
#309=CARTESIAN_POINT('',(33.0300171242531,16.8999999999969,-35.2194160524661));
#310=CARTESIAN_POINT('Origin',(33.0300171242531,15.3999999999969,-35.2194160524661));
#311=CARTESIAN_POINT('',(31.8012890578196,16.8999999999969,-36.0797807069926));
#312=CARTESIAN_POINT('Origin',(32.6616537123462,16.8999999999969,-37.3085087734261));
#313=CARTESIAN_POINT('',(19.8276744185904,16.8999999999969,-16.364516633047));
#314=CARTESIAN_POINT('',(18.5989463521569,16.8999999999969,-17.2248812875735));
#315=CARTESIAN_POINT('',(33.8903817787797,16.8999999999969,-36.4481441188996));
#316=CARTESIAN_POINT('Origin',(18.5989463521569,15.3999999999969,-17.2248812875735));
#317=CARTESIAN_POINT('',(18.9673097640639,15.3999999999969,-15.1357885666135));
#318=CARTESIAN_POINT('Origin',(19.8276744185904,15.3999999999969,-16.364516633047));
#319=CARTESIAN_POINT('',(17.7385816976304,15.3999999999969,-15.99615322114));
#320=CARTESIAN_POINT('Origin',(17.7385816976304,16.8999999999969,-15.99615322114));
#321=CARTESIAN_POINT('',(18.967309764064,-15.4000000000029,-15.1357885666134));
#322=CARTESIAN_POINT('',(17.7385816976305,-15.4000000000029,-15.99615322114));
#323=CARTESIAN_POINT('',(18.9673097640639,16.8999999999969,-15.1357885666135));
#324=CARTESIAN_POINT('Origin',(18.5989463521571,-15.4000000000029,-17.2248812875735));
#325=CARTESIAN_POINT('',(19.8276744185906,-16.9000000000029,-16.3645166330469));
#326=CARTESIAN_POINT('Origin',(19.8276744185906,-15.4000000000029,-16.3645166330469));
#327=CARTESIAN_POINT('',(18.5989463521571,-16.9000000000029,-17.2248812875735));
#328=CARTESIAN_POINT('Origin',(17.7385816976305,-16.9000000000029,-15.99615322114));
#329=CARTESIAN_POINT('',(18.967309764064,-16.9000000000029,-15.1357885666134));
#330=CARTESIAN_POINT('Origin',(26.4288457714218,-2.96429547574917E-12,-25.7919663427565));
#331=CARTESIAN_POINT('',(36.2865051303453,-2.97095681389692E-12,-5.35557890049484));
#332=UNCERTAINTY_MEASURE_WITH_UNIT(LENGTH_MEASURE(0.01),#338,
'DISTANCE_ACCURACY_VALUE',
'Maximum model space distance between geometric entities at asserted c
onnectivities');
#333=UNCERTAINTY_MEASURE_WITH_UNIT(LENGTH_MEASURE(0.01),#338,
'DISTANCE_ACCURACY_VALUE',
'Maximum model space distance between geometric entities at asserted c
onnectivities');
#334=UNCERTAINTY_MEASURE_WITH_UNIT(LENGTH_MEASURE(0.01),#338,
'DISTANCE_ACCURACY_VALUE',
'Maximum model space distance between geometric entities at asserted c
onnectivities');
#335=(
GEOMETRIC_REPRESENTATION_CONTEXT(3)
GLOBAL_UNCERTAINTY_ASSIGNED_CONTEXT((#332))
GLOBAL_UNIT_ASSIGNED_CONTEXT((#338,#340,#341))
REPRESENTATION_CONTEXT('','3D')
);
#336=(
GEOMETRIC_REPRESENTATION_CONTEXT(3)
GLOBAL_UNCERTAINTY_ASSIGNED_CONTEXT((#333))
GLOBAL_UNIT_ASSIGNED_CONTEXT((#338,#340,#341))
REPRESENTATION_CONTEXT('','3D')
);
#337=(
GEOMETRIC_REPRESENTATION_CONTEXT(3)
GLOBAL_UNCERTAINTY_ASSIGNED_CONTEXT((#334))
GLOBAL_UNIT_ASSIGNED_CONTEXT((#338,#340,#341))
REPRESENTATION_CONTEXT('','3D')
);
#338=(
LENGTH_UNIT()
NAMED_UNIT(*)
SI_UNIT(.MILLI.,.METRE.)
);
#339=(
LENGTH_UNIT()
NAMED_UNIT(*)
SI_UNIT($,.METRE.)
);
#340=(
NAMED_UNIT(*)
PLANE_ANGLE_UNIT()
SI_UNIT($,.RADIAN.)
);
#341=(
NAMED_UNIT(*)
SI_UNIT($,.STERADIAN.)
SOLID_ANGLE_UNIT()
);
#342=SHAPE_DEFINITION_REPRESENTATION(#344,#347);
#343=SHAPE_DEFINITION_REPRESENTATION(#345,#348);
#344=PRODUCT_DEFINITION_SHAPE('',$,#350);
#345=PRODUCT_DEFINITION_SHAPE('',$,#351);
#346=PRODUCT_DEFINITION_SHAPE($,$,#14);
#347=SHAPE_REPRESENTATION('',(#200,#220),#335);
#348=SHAPE_REPRESENTATION('',(#201),#336);
#349=PRODUCT_DEFINITION_CONTEXT('part definition',#357,'design');
#350=PRODUCT_DEFINITION('2026-10-05-12-59-50-728','PRINT_LAYOUT',#352,#349);
#351=PRODUCT_DEFINITION('2026-10-05-12-59-50-725','LaptopScreen',#353,#349);
#352=PRODUCT_DEFINITION_FORMATION('',$,#359);
#353=PRODUCT_DEFINITION_FORMATION('',$,#360);
#354=PRODUCT_RELATED_PRODUCT_CATEGORY('PRINT_LAYOUT','PRINT_LAYOUT',(#359));
#355=PRODUCT_RELATED_PRODUCT_CATEGORY('LaptopScreen','LaptopScreen',(#360));
#356=APPLICATION_PROTOCOL_DEFINITION('international standard',
'automotive_design',2009,#357);
#357=APPLICATION_CONTEXT(
'Core Data for Automotive Mechanical Design Process');
#358=PRODUCT_CONTEXT('part definition',#357,'mechanical');
#359=PRODUCT('2026-10-05-12-59-50-728','PRINT_LAYOUT',$,(#358));
#360=PRODUCT('2026-10-05-12-59-50-725','LaptopScreen',$,(#358));
#361=PRESENTATION_STYLE_ASSIGNMENT((#364));
#362=PRESENTATION_STYLE_ASSIGNMENT((#365));
#363=PRESENTATION_STYLE_ASSIGNMENT((#366));
#364=SURFACE_STYLE_USAGE(.BOTH.,#367);
#365=SURFACE_STYLE_USAGE(.BOTH.,#368);
#366=SURFACE_STYLE_USAGE(.BOTH.,#369);
#367=SURFACE_SIDE_STYLE('',(#370));
#368=SURFACE_SIDE_STYLE('',(#371));
#369=SURFACE_SIDE_STYLE('',(#372));
#370=SURFACE_STYLE_FILL_AREA(#373);
#371=SURFACE_STYLE_FILL_AREA(#374);
#372=SURFACE_STYLE_FILL_AREA(#375);
#373=FILL_AREA_STYLE('Plastic - Matte (Black)',(#376));
#374=FILL_AREA_STYLE('Steel - Satin',(#377));
#375=FILL_AREA_STYLE('Brass - Old',(#378));
#376=FILL_AREA_STYLE_COLOUR('Plastic - Matte (Black)',#379);
#377=FILL_AREA_STYLE_COLOUR('Steel - Satin',#380);
#378=FILL_AREA_STYLE_COLOUR('Brass - Old',#381);
#379=COLOUR_RGB('Plastic - Matte (Black)',0.0980392156862745,0.0980392156862745,
0.0980392156862745);
#380=COLOUR_RGB('Steel - Satin',0.627450980392157,0.627450980392157,0.627450980392157);
#381=COLOUR_RGB('Brass - Old',0.,0.,0.);
ENDSEC;
END-ISO-10303-21;
