ISO-10303-21;
HEADER;
/* Generated by software containing ST-Developer
 * from STEP Tools, Inc. (www.steptools.com) 
 */

FILE_DESCRIPTION(
/* description */ (''),
/* implementation_level */ '2;1');

FILE_NAME(
/* name */ 'Neck.step',
/* time_stamp */ '2026-09-19T09:38:39+02:00',
/* author */ (''),
/* organization */ (''),
/* preprocessor_version */ 'ST-DEVELOPER v20.2',
/* originating_system */ 'Autodesk Translation Framework v15.15.0.0',
/* authorisation */ '');

FILE_SCHEMA (('AUTOMOTIVE_DESIGN { 1 0 10303 214 3 1 1 }'));
ENDSEC;

DATA;
#10=MECHANICAL_DESIGN_GEOMETRIC_PRESENTATION_REPRESENTATION('',(#17),#1282);
#11=ITEM_DEFINED_TRANSFORMATION($,$,#786,#847);
#12=(
REPRESENTATION_RELATIONSHIP($,$,#1293,#1292)
REPRESENTATION_RELATIONSHIP_WITH_TRANSFORMATION(#11)
SHAPE_REPRESENTATION_RELATIONSHIP()
);
#13=CONTEXT_DEPENDENT_SHAPE_REPRESENTATION(#12,#1291);
#14=NEXT_ASSEMBLY_USAGE_OCCURRENCE('Neck:1','Neck:1','Neck:1',#1295,#1296,
'Neck:1');
#15=SHAPE_REPRESENTATION_RELATIONSHIP('SRR','None',#1293,#16);
#16=ADVANCED_BREP_SHAPE_REPRESENTATION('',(#18),#1281);
#17=STYLED_ITEM('',(#1306),#18);
#18=MANIFOLD_SOLID_BREP('Body1',#772);
#19=FACE_BOUND('',#101,.T.);
#20=FACE_BOUND('',#104,.T.);
#21=FACE_BOUND('',#108,.T.);
#22=FACE_BOUND('',#111,.T.);
#23=FACE_BOUND('',#114,.T.);
#24=FACE_BOUND('',#124,.T.);
#25=FACE_BOUND('',#133,.T.);
#26=FACE_BOUND('',#142,.T.);
#27=FACE_BOUND('',#145,.T.);
#28=PLANE('',#790);
#29=PLANE('',#792);
#30=PLANE('',#798);
#31=PLANE('',#801);
#32=PLANE('',#805);
#33=PLANE('',#809);
#34=PLANE('',#813);
#35=PLANE('',#818);
#36=PLANE('',#819);
#37=PLANE('',#820);
#38=PLANE('',#821);
#39=PLANE('',#822);
#40=PLANE('',#823);
#41=PLANE('',#824);
#42=PLANE('',#827);
#43=PLANE('',#828);
#44=PLANE('',#829);
#45=PLANE('',#830);
#46=PLANE('',#831);
#47=PLANE('',#832);
#48=PLANE('',#833);
#49=PLANE('',#836);
#50=PLANE('',#837);
#51=PLANE('',#838);
#52=PLANE('',#839);
#53=PLANE('',#840);
#54=PLANE('',#841);
#55=PLANE('',#842);
#56=PLANE('',#845);
#57=PLANE('',#846);
#58=FACE_OUTER_BOUND('',#98,.T.);
#59=FACE_OUTER_BOUND('',#99,.T.);
#60=FACE_OUTER_BOUND('',#100,.T.);
#61=FACE_OUTER_BOUND('',#102,.T.);
#62=FACE_OUTER_BOUND('',#103,.T.);
#63=FACE_OUTER_BOUND('',#105,.T.);
#64=FACE_OUTER_BOUND('',#106,.T.);
#65=FACE_OUTER_BOUND('',#107,.T.);
#66=FACE_OUTER_BOUND('',#109,.T.);
#67=FACE_OUTER_BOUND('',#110,.T.);
#68=FACE_OUTER_BOUND('',#112,.T.);
#69=FACE_OUTER_BOUND('',#113,.T.);
#70=FACE_OUTER_BOUND('',#115,.T.);
#71=FACE_OUTER_BOUND('',#116,.T.);
#72=FACE_OUTER_BOUND('',#117,.T.);
#73=FACE_OUTER_BOUND('',#118,.T.);
#74=FACE_OUTER_BOUND('',#119,.T.);
#75=FACE_OUTER_BOUND('',#120,.T.);
#76=FACE_OUTER_BOUND('',#121,.T.);
#77=FACE_OUTER_BOUND('',#122,.T.);
#78=FACE_OUTER_BOUND('',#123,.T.);
#79=FACE_OUTER_BOUND('',#125,.T.);
#80=FACE_OUTER_BOUND('',#126,.T.);
#81=FACE_OUTER_BOUND('',#127,.T.);
#82=FACE_OUTER_BOUND('',#128,.T.);
#83=FACE_OUTER_BOUND('',#129,.T.);
#84=FACE_OUTER_BOUND('',#130,.T.);
#85=FACE_OUTER_BOUND('',#131,.T.);
#86=FACE_OUTER_BOUND('',#132,.T.);
#87=FACE_OUTER_BOUND('',#134,.T.);
#88=FACE_OUTER_BOUND('',#135,.T.);
#89=FACE_OUTER_BOUND('',#136,.T.);
#90=FACE_OUTER_BOUND('',#137,.T.);
#91=FACE_OUTER_BOUND('',#138,.T.);
#92=FACE_OUTER_BOUND('',#139,.T.);
#93=FACE_OUTER_BOUND('',#140,.T.);
#94=FACE_OUTER_BOUND('',#141,.T.);
#95=FACE_OUTER_BOUND('',#143,.T.);
#96=FACE_OUTER_BOUND('',#144,.T.);
#97=FACE_OUTER_BOUND('',#146,.T.);
#98=EDGE_LOOP('',(#512,#513,#514,#515));
#99=EDGE_LOOP('',(#516,#517,#518,#519,#520,#521,#522,#523));
#100=EDGE_LOOP('',(#524,#525,#526,#527));
#101=EDGE_LOOP('',(#528));
#102=EDGE_LOOP('',(#529,#530,#531,#532));
#103=EDGE_LOOP('',(#533,#534,#535,#536));
#104=EDGE_LOOP('',(#537));
#105=EDGE_LOOP('',(#538,#539,#540,#541,#542,#543,#544,#545));
#106=EDGE_LOOP('',(#546,#547,#548,#549));
#107=EDGE_LOOP('',(#550,#551,#552,#553));
#108=EDGE_LOOP('',(#554,#555,#556,#557,#558,#559));
#109=EDGE_LOOP('',(#560,#561,#562,#563));
#110=EDGE_LOOP('',(#564,#565,#566,#567,#568,#569));
#111=EDGE_LOOP('',(#570));
#112=EDGE_LOOP('',(#571,#572,#573,#574));
#113=EDGE_LOOP('',(#575,#576,#577,#578));
#114=EDGE_LOOP('',(#579,#580,#581,#582,#583,#584));
#115=EDGE_LOOP('',(#585,#586,#587,#588));
#116=EDGE_LOOP('',(#589,#590,#591,#592));
#117=EDGE_LOOP('',(#593,#594,#595,#596));
#118=EDGE_LOOP('',(#597,#598,#599,#600));
#119=EDGE_LOOP('',(#601,#602,#603,#604));
#120=EDGE_LOOP('',(#605,#606,#607,#608));
#121=EDGE_LOOP('',(#609,#610,#611,#612));
#122=EDGE_LOOP('',(#613,#614,#615,#616));
#123=EDGE_LOOP('',(#617,#618,#619,#620,#621,#622));
#124=EDGE_LOOP('',(#623));
#125=EDGE_LOOP('',(#624,#625,#626,#627));
#126=EDGE_LOOP('',(#628,#629,#630,#631));
#127=EDGE_LOOP('',(#632,#633,#634,#635));
#128=EDGE_LOOP('',(#636,#637,#638,#639));
#129=EDGE_LOOP('',(#640,#641,#642,#643));
#130=EDGE_LOOP('',(#644,#645,#646,#647));
#131=EDGE_LOOP('',(#648,#649,#650,#651));
#132=EDGE_LOOP('',(#652,#653,#654,#655,#656,#657));
#133=EDGE_LOOP('',(#658));
#134=EDGE_LOOP('',(#659,#660,#661,#662));
#135=EDGE_LOOP('',(#663,#664,#665,#666));
#136=EDGE_LOOP('',(#667,#668,#669,#670));
#137=EDGE_LOOP('',(#671,#672,#673,#674));
#138=EDGE_LOOP('',(#675,#676,#677,#678));
#139=EDGE_LOOP('',(#679,#680,#681,#682));
#140=EDGE_LOOP('',(#683,#684,#685,#686));
#141=EDGE_LOOP('',(#687,#688,#689,#690,#691,#692));
#142=EDGE_LOOP('',(#693));
#143=EDGE_LOOP('',(#694,#695,#696,#697));
#144=EDGE_LOOP('',(#698,#699,#700,#701,#702,#703));
#145=EDGE_LOOP('',(#704,#705,#706,#707,#708,#709));
#146=EDGE_LOOP('',(#710,#711,#712,#713,#714,#715,#716,#717,#718,#719,#720,
#721));
#147=LINE('',#1066,#232);
#148=LINE('',#1069,#233);
#149=LINE('',#1072,#234);
#150=LINE('',#1074,#235);
#151=LINE('',#1076,#236);
#152=LINE('',#1080,#237);
#153=LINE('',#1082,#238);
#154=LINE('',#1083,#239);
#155=LINE('',#1086,#240);
#156=LINE('',#1095,#241);
#157=LINE('',#1098,#242);
#158=LINE('',#1101,#243);
#159=LINE('',#1104,#244);
#160=LINE('',#1109,#245);
#161=LINE('',#1111,#246);
#162=LINE('',#1113,#247);
#163=LINE('',#1117,#248);
#164=LINE('',#1118,#249);
#165=LINE('',#1121,#250);
#166=LINE('',#1124,#251);
#167=LINE('',#1128,#252);
#168=LINE('',#1131,#253);
#169=LINE('',#1133,#254);
#170=LINE('',#1135,#255);
#171=LINE('',#1137,#256);
#172=LINE('',#1139,#257);
#173=LINE('',#1140,#258);
#174=LINE('',#1143,#259);
#175=LINE('',#1146,#260);
#176=LINE('',#1148,#261);
#177=LINE('',#1153,#262);
#178=LINE('',#1156,#263);
#179=LINE('',#1160,#264);
#180=LINE('',#1162,#265);
#181=LINE('',#1164,#266);
#182=LINE('',#1166,#267);
#183=LINE('',#1168,#268);
#184=LINE('',#1169,#269);
#185=LINE('',#1171,#270);
#186=LINE('',#1174,#271);
#187=LINE('',#1178,#272);
#188=LINE('',#1180,#273);
#189=LINE('',#1181,#274);
#190=LINE('',#1184,#275);
#191=LINE('',#1185,#276);
#192=LINE('',#1188,#277);
#193=LINE('',#1189,#278);
#194=LINE('',#1192,#279);
#195=LINE('',#1193,#280);
#196=LINE('',#1196,#281);
#197=LINE('',#1197,#282);
#198=LINE('',#1199,#283);
#199=LINE('',#1203,#284);
#200=LINE('',#1207,#285);
#201=LINE('',#1209,#286);
#202=LINE('',#1210,#287);
#203=LINE('',#1213,#288);
#204=LINE('',#1214,#289);
#205=LINE('',#1217,#290);
#206=LINE('',#1218,#291);
#207=LINE('',#1221,#292);
#208=LINE('',#1222,#293);
#209=LINE('',#1225,#294);
#210=LINE('',#1226,#295);
#211=LINE('',#1228,#296);
#212=LINE('',#1233,#297);
#213=LINE('',#1237,#298);
#214=LINE('',#1239,#299);
#215=LINE('',#1241,#300);
#216=LINE('',#1242,#301);
#217=LINE('',#1245,#302);
#218=LINE('',#1247,#303);
#219=LINE('',#1248,#304);
#220=LINE('',#1251,#305);
#221=LINE('',#1253,#306);
#222=LINE('',#1254,#307);
#223=LINE('',#1257,#308);
#224=LINE('',#1259,#309);
#225=LINE('',#1260,#310);
#226=LINE('',#1263,#311);
#227=LINE('',#1265,#312);
#228=LINE('',#1266,#313);
#229=LINE('',#1268,#314);
#230=LINE('',#1269,#315);
#231=LINE('',#1274,#316);
#232=VECTOR('',#856,10.);
#233=VECTOR('',#859,10.);
#234=VECTOR('',#862,10.);
#235=VECTOR('',#863,10.);
#236=VECTOR('',#864,10.);
#237=VECTOR('',#867,10.);
#238=VECTOR('',#868,10.);
#239=VECTOR('',#869,10.);
#240=VECTOR('',#872,10.);
#241=VECTOR('',#881,10.);
#242=VECTOR('',#884,10.);
#243=VECTOR('',#887,10.);
#244=VECTOR('',#890,10.);
#245=VECTOR('',#895,10.);
#246=VECTOR('',#896,10.);
#247=VECTOR('',#897,10.);
#248=VECTOR('',#900,10.);
#249=VECTOR('',#901,10.);
#250=VECTOR('',#904,10.);
#251=VECTOR('',#907,10.);
#252=VECTOR('',#912,10.);
#253=VECTOR('',#913,10.);
#254=VECTOR('',#914,10.);
#255=VECTOR('',#915,10.);
#256=VECTOR('',#916,10.);
#257=VECTOR('',#917,10.);
#258=VECTOR('',#918,10.);
#259=VECTOR('',#921,10.);
#260=VECTOR('',#924,10.);
#261=VECTOR('',#927,10.);
#262=VECTOR('',#934,10.);
#263=VECTOR('',#937,10.);
#264=VECTOR('',#940,10.);
#265=VECTOR('',#941,10.);
#266=VECTOR('',#942,10.);
#267=VECTOR('',#943,10.);
#268=VECTOR('',#944,10.);
#269=VECTOR('',#945,10.);
#270=VECTOR('',#948,10.);
#271=VECTOR('',#951,0.8);
#272=VECTOR('',#956,10.);
#273=VECTOR('',#957,10.);
#274=VECTOR('',#958,10.);
#275=VECTOR('',#961,10.);
#276=VECTOR('',#962,10.);
#277=VECTOR('',#965,10.);
#278=VECTOR('',#966,10.);
#279=VECTOR('',#969,10.);
#280=VECTOR('',#970,10.);
#281=VECTOR('',#973,10.);
#282=VECTOR('',#974,10.);
#283=VECTOR('',#977,10.);
#284=VECTOR('',#982,1.05);
#285=VECTOR('',#987,10.);
#286=VECTOR('',#988,10.);
#287=VECTOR('',#989,10.);
#288=VECTOR('',#992,10.);
#289=VECTOR('',#993,10.);
#290=VECTOR('',#996,10.);
#291=VECTOR('',#997,10.);
#292=VECTOR('',#1000,10.);
#293=VECTOR('',#1001,10.);
#294=VECTOR('',#1004,10.);
#295=VECTOR('',#1005,10.);
#296=VECTOR('',#1008,10.);
#297=VECTOR('',#1015,0.800000000000001);
#298=VECTOR('',#1018,10.);
#299=VECTOR('',#1019,10.);
#300=VECTOR('',#1020,10.);
#301=VECTOR('',#1021,10.);
#302=VECTOR('',#1024,10.);
#303=VECTOR('',#1025,10.);
#304=VECTOR('',#1026,10.);
#305=VECTOR('',#1029,10.);
#306=VECTOR('',#1030,10.);
#307=VECTOR('',#1031,10.);
#308=VECTOR('',#1034,10.);
#309=VECTOR('',#1035,10.);
#310=VECTOR('',#1036,10.);
#311=VECTOR('',#1039,10.);
#312=VECTOR('',#1040,10.);
#313=VECTOR('',#1041,10.);
#314=VECTOR('',#1044,10.);
#315=VECTOR('',#1045,10.);
#316=VECTOR('',#1054,10.);
#317=CIRCLE('',#788,8.6);
#318=CIRCLE('',#789,8.6);
#319=CIRCLE('',#791,4.3);
#320=CIRCLE('',#793,4.3);
#321=CIRCLE('',#794,1.05);
#322=CIRCLE('',#796,8.6);
#323=CIRCLE('',#797,8.6);
#324=CIRCLE('',#799,4.3);
#325=CIRCLE('',#800,0.8);
#326=CIRCLE('',#802,4.3);
#327=CIRCLE('',#804,4.3);
#328=CIRCLE('',#806,4.3);
#329=CIRCLE('',#808,4.3);
#330=CIRCLE('',#810,10.7800742112473);
#331=CIRCLE('',#811,0.800000000000001);
#332=CIRCLE('',#814,4.3);
#333=CIRCLE('',#817,0.8);
#334=CIRCLE('',#826,1.05);
#335=CIRCLE('',#835,0.800000000000001);
#336=CIRCLE('',#844,10.7800742112473);
#337=VERTEX_POINT('',#1062);
#338=VERTEX_POINT('',#1063);
#339=VERTEX_POINT('',#1065);
#340=VERTEX_POINT('',#1067);
#341=VERTEX_POINT('',#1071);
#342=VERTEX_POINT('',#1073);
#343=VERTEX_POINT('',#1075);
#344=VERTEX_POINT('',#1077);
#345=VERTEX_POINT('',#1079);
#346=VERTEX_POINT('',#1081);
#347=VERTEX_POINT('',#1085);
#348=VERTEX_POINT('',#1088);
#349=VERTEX_POINT('',#1091);
#350=VERTEX_POINT('',#1092);
#351=VERTEX_POINT('',#1094);
#352=VERTEX_POINT('',#1096);
#353=VERTEX_POINT('',#1100);
#354=VERTEX_POINT('',#1102);
#355=VERTEX_POINT('',#1105);
#356=VERTEX_POINT('',#1108);
#357=VERTEX_POINT('',#1110);
#358=VERTEX_POINT('',#1112);
#359=VERTEX_POINT('',#1114);
#360=VERTEX_POINT('',#1116);
#361=VERTEX_POINT('',#1120);
#362=VERTEX_POINT('',#1122);
#363=VERTEX_POINT('',#1126);
#364=VERTEX_POINT('',#1129);
#365=VERTEX_POINT('',#1130);
#366=VERTEX_POINT('',#1132);
#367=VERTEX_POINT('',#1134);
#368=VERTEX_POINT('',#1136);
#369=VERTEX_POINT('',#1138);
#370=VERTEX_POINT('',#1142);
#371=VERTEX_POINT('',#1144);
#372=VERTEX_POINT('',#1150);
#373=VERTEX_POINT('',#1155);
#374=VERTEX_POINT('',#1158);
#375=VERTEX_POINT('',#1159);
#376=VERTEX_POINT('',#1161);
#377=VERTEX_POINT('',#1163);
#378=VERTEX_POINT('',#1165);
#379=VERTEX_POINT('',#1167);
#380=VERTEX_POINT('',#1173);
#381=VERTEX_POINT('',#1177);
#382=VERTEX_POINT('',#1179);
#383=VERTEX_POINT('',#1183);
#384=VERTEX_POINT('',#1187);
#385=VERTEX_POINT('',#1191);
#386=VERTEX_POINT('',#1195);
#387=VERTEX_POINT('',#1202);
#388=VERTEX_POINT('',#1206);
#389=VERTEX_POINT('',#1208);
#390=VERTEX_POINT('',#1212);
#391=VERTEX_POINT('',#1216);
#392=VERTEX_POINT('',#1220);
#393=VERTEX_POINT('',#1224);
#394=VERTEX_POINT('',#1231);
#395=VERTEX_POINT('',#1235);
#396=VERTEX_POINT('',#1236);
#397=VERTEX_POINT('',#1238);
#398=VERTEX_POINT('',#1240);
#399=VERTEX_POINT('',#1244);
#400=VERTEX_POINT('',#1246);
#401=VERTEX_POINT('',#1250);
#402=VERTEX_POINT('',#1252);
#403=VERTEX_POINT('',#1256);
#404=VERTEX_POINT('',#1258);
#405=VERTEX_POINT('',#1262);
#406=VERTEX_POINT('',#1264);
#407=EDGE_CURVE('',#337,#338,#317,.T.);
#408=EDGE_CURVE('',#338,#339,#147,.T.);
#409=EDGE_CURVE('',#339,#340,#318,.T.);
#410=EDGE_CURVE('',#340,#337,#148,.T.);
#411=EDGE_CURVE('',#339,#341,#149,.T.);
#412=EDGE_CURVE('',#342,#341,#150,.T.);
#413=EDGE_CURVE('',#342,#343,#151,.T.);
#414=EDGE_CURVE('',#344,#343,#319,.T.);
#415=EDGE_CURVE('',#344,#345,#152,.T.);
#416=EDGE_CURVE('',#345,#346,#153,.T.);
#417=EDGE_CURVE('',#346,#340,#154,.T.);
#418=EDGE_CURVE('',#347,#338,#155,.T.);
#419=EDGE_CURVE('',#341,#347,#320,.T.);
#420=EDGE_CURVE('',#348,#348,#321,.T.);
#421=EDGE_CURVE('',#349,#350,#322,.T.);
#422=EDGE_CURVE('',#350,#351,#156,.T.);
#423=EDGE_CURVE('',#351,#352,#323,.T.);
#424=EDGE_CURVE('',#352,#349,#157,.T.);
#425=EDGE_CURVE('',#353,#352,#158,.T.);
#426=EDGE_CURVE('',#354,#353,#324,.T.);
#427=EDGE_CURVE('',#349,#354,#159,.T.);
#428=EDGE_CURVE('',#355,#355,#325,.T.);
#429=EDGE_CURVE('',#351,#356,#160,.T.);
#430=EDGE_CURVE('',#356,#357,#161,.T.);
#431=EDGE_CURVE('',#357,#358,#162,.T.);
#432=EDGE_CURVE('',#359,#358,#326,.T.);
#433=EDGE_CURVE('',#359,#360,#163,.T.);
#434=EDGE_CURVE('',#353,#360,#164,.T.);
#435=EDGE_CURVE('',#343,#361,#165,.T.);
#436=EDGE_CURVE('',#361,#362,#327,.T.);
#437=EDGE_CURVE('',#362,#344,#166,.T.);
#438=EDGE_CURVE('',#363,#342,#328,.T.);
#439=EDGE_CURVE('',#361,#363,#167,.T.);
#440=EDGE_CURVE('',#364,#365,#168,.T.);
#441=EDGE_CURVE('',#365,#366,#169,.T.);
#442=EDGE_CURVE('',#366,#367,#170,.T.);
#443=EDGE_CURVE('',#367,#368,#171,.T.);
#444=EDGE_CURVE('',#368,#369,#172,.T.);
#445=EDGE_CURVE('',#369,#364,#173,.T.);
#446=EDGE_CURVE('',#358,#370,#174,.T.);
#447=EDGE_CURVE('',#370,#371,#329,.T.);
#448=EDGE_CURVE('',#371,#359,#175,.T.);
#449=EDGE_CURVE('',#370,#362,#176,.T.);
#450=EDGE_CURVE('',#345,#357,#330,.T.);
#451=EDGE_CURVE('',#372,#372,#331,.T.);
#452=EDGE_CURVE('',#347,#363,#177,.T.);
#453=EDGE_CURVE('',#373,#371,#178,.T.);
#454=EDGE_CURVE('',#360,#373,#332,.T.);
#455=EDGE_CURVE('',#374,#375,#179,.T.);
#456=EDGE_CURVE('',#375,#376,#180,.T.);
#457=EDGE_CURVE('',#376,#377,#181,.T.);
#458=EDGE_CURVE('',#377,#378,#182,.T.);
#459=EDGE_CURVE('',#378,#379,#183,.T.);
#460=EDGE_CURVE('',#379,#374,#184,.T.);
#461=EDGE_CURVE('',#373,#354,#185,.T.);
#462=EDGE_CURVE('',#355,#380,#186,.T.);
#463=EDGE_CURVE('',#380,#380,#333,.T.);
#464=EDGE_CURVE('',#381,#374,#187,.T.);
#465=EDGE_CURVE('',#381,#382,#188,.T.);
#466=EDGE_CURVE('',#382,#375,#189,.T.);
#467=EDGE_CURVE('',#382,#383,#190,.T.);
#468=EDGE_CURVE('',#383,#376,#191,.T.);
#469=EDGE_CURVE('',#383,#384,#192,.T.);
#470=EDGE_CURVE('',#384,#377,#193,.T.);
#471=EDGE_CURVE('',#384,#385,#194,.T.);
#472=EDGE_CURVE('',#385,#378,#195,.T.);
#473=EDGE_CURVE('',#385,#386,#196,.T.);
#474=EDGE_CURVE('',#386,#379,#197,.T.);
#475=EDGE_CURVE('',#386,#381,#198,.T.);
#476=EDGE_CURVE('',#348,#387,#199,.T.);
#477=EDGE_CURVE('',#387,#387,#334,.T.);
#478=EDGE_CURVE('',#364,#388,#200,.T.);
#479=EDGE_CURVE('',#388,#389,#201,.T.);
#480=EDGE_CURVE('',#365,#389,#202,.T.);
#481=EDGE_CURVE('',#369,#390,#203,.T.);
#482=EDGE_CURVE('',#390,#388,#204,.T.);
#483=EDGE_CURVE('',#368,#391,#205,.T.);
#484=EDGE_CURVE('',#391,#390,#206,.T.);
#485=EDGE_CURVE('',#367,#392,#207,.T.);
#486=EDGE_CURVE('',#392,#391,#208,.T.);
#487=EDGE_CURVE('',#366,#393,#209,.T.);
#488=EDGE_CURVE('',#393,#392,#210,.T.);
#489=EDGE_CURVE('',#389,#393,#211,.T.);
#490=EDGE_CURVE('',#394,#394,#335,.T.);
#491=EDGE_CURVE('',#394,#372,#212,.T.);
#492=EDGE_CURVE('',#395,#396,#213,.F.);
#493=EDGE_CURVE('',#397,#395,#214,.T.);
#494=EDGE_CURVE('',#398,#397,#215,.T.);
#495=EDGE_CURVE('',#398,#396,#216,.T.);
#496=EDGE_CURVE('',#396,#399,#217,.F.);
#497=EDGE_CURVE('',#400,#398,#218,.T.);
#498=EDGE_CURVE('',#400,#399,#219,.T.);
#499=EDGE_CURVE('',#399,#401,#220,.F.);
#500=EDGE_CURVE('',#402,#400,#221,.T.);
#501=EDGE_CURVE('',#402,#401,#222,.T.);
#502=EDGE_CURVE('',#401,#403,#223,.F.);
#503=EDGE_CURVE('',#404,#402,#224,.T.);
#504=EDGE_CURVE('',#404,#403,#225,.T.);
#505=EDGE_CURVE('',#403,#405,#226,.F.);
#506=EDGE_CURVE('',#406,#404,#227,.T.);
#507=EDGE_CURVE('',#406,#405,#228,.T.);
#508=EDGE_CURVE('',#405,#395,#229,.F.);
#509=EDGE_CURVE('',#397,#406,#230,.T.);
#510=EDGE_CURVE('',#346,#356,#336,.T.);
#511=EDGE_CURVE('',#337,#350,#231,.T.);
#512=ORIENTED_EDGE('',*,*,#407,.T.);
#513=ORIENTED_EDGE('',*,*,#408,.T.);
#514=ORIENTED_EDGE('',*,*,#409,.T.);
#515=ORIENTED_EDGE('',*,*,#410,.T.);
#516=ORIENTED_EDGE('',*,*,#409,.F.);
#517=ORIENTED_EDGE('',*,*,#411,.T.);
#518=ORIENTED_EDGE('',*,*,#412,.F.);
#519=ORIENTED_EDGE('',*,*,#413,.T.);
#520=ORIENTED_EDGE('',*,*,#414,.F.);
#521=ORIENTED_EDGE('',*,*,#415,.T.);
#522=ORIENTED_EDGE('',*,*,#416,.T.);
#523=ORIENTED_EDGE('',*,*,#417,.T.);
#524=ORIENTED_EDGE('',*,*,#408,.F.);
#525=ORIENTED_EDGE('',*,*,#418,.F.);
#526=ORIENTED_EDGE('',*,*,#419,.F.);
#527=ORIENTED_EDGE('',*,*,#411,.F.);
#528=ORIENTED_EDGE('',*,*,#420,.T.);
#529=ORIENTED_EDGE('',*,*,#421,.T.);
#530=ORIENTED_EDGE('',*,*,#422,.T.);
#531=ORIENTED_EDGE('',*,*,#423,.T.);
#532=ORIENTED_EDGE('',*,*,#424,.T.);
#533=ORIENTED_EDGE('',*,*,#424,.F.);
#534=ORIENTED_EDGE('',*,*,#425,.F.);
#535=ORIENTED_EDGE('',*,*,#426,.F.);
#536=ORIENTED_EDGE('',*,*,#427,.F.);
#537=ORIENTED_EDGE('',*,*,#428,.T.);
#538=ORIENTED_EDGE('',*,*,#423,.F.);
#539=ORIENTED_EDGE('',*,*,#429,.T.);
#540=ORIENTED_EDGE('',*,*,#430,.T.);
#541=ORIENTED_EDGE('',*,*,#431,.T.);
#542=ORIENTED_EDGE('',*,*,#432,.F.);
#543=ORIENTED_EDGE('',*,*,#433,.T.);
#544=ORIENTED_EDGE('',*,*,#434,.F.);
#545=ORIENTED_EDGE('',*,*,#425,.T.);
#546=ORIENTED_EDGE('',*,*,#414,.T.);
#547=ORIENTED_EDGE('',*,*,#435,.T.);
#548=ORIENTED_EDGE('',*,*,#436,.T.);
#549=ORIENTED_EDGE('',*,*,#437,.T.);
#550=ORIENTED_EDGE('',*,*,#435,.F.);
#551=ORIENTED_EDGE('',*,*,#413,.F.);
#552=ORIENTED_EDGE('',*,*,#438,.F.);
#553=ORIENTED_EDGE('',*,*,#439,.F.);
#554=ORIENTED_EDGE('',*,*,#440,.T.);
#555=ORIENTED_EDGE('',*,*,#441,.T.);
#556=ORIENTED_EDGE('',*,*,#442,.T.);
#557=ORIENTED_EDGE('',*,*,#443,.T.);
#558=ORIENTED_EDGE('',*,*,#444,.T.);
#559=ORIENTED_EDGE('',*,*,#445,.T.);
#560=ORIENTED_EDGE('',*,*,#432,.T.);
#561=ORIENTED_EDGE('',*,*,#446,.T.);
#562=ORIENTED_EDGE('',*,*,#447,.T.);
#563=ORIENTED_EDGE('',*,*,#448,.T.);
#564=ORIENTED_EDGE('',*,*,#437,.F.);
#565=ORIENTED_EDGE('',*,*,#449,.F.);
#566=ORIENTED_EDGE('',*,*,#446,.F.);
#567=ORIENTED_EDGE('',*,*,#431,.F.);
#568=ORIENTED_EDGE('',*,*,#450,.F.);
#569=ORIENTED_EDGE('',*,*,#415,.F.);
#570=ORIENTED_EDGE('',*,*,#451,.T.);
#571=ORIENTED_EDGE('',*,*,#438,.T.);
#572=ORIENTED_EDGE('',*,*,#412,.T.);
#573=ORIENTED_EDGE('',*,*,#419,.T.);
#574=ORIENTED_EDGE('',*,*,#452,.T.);
#575=ORIENTED_EDGE('',*,*,#448,.F.);
#576=ORIENTED_EDGE('',*,*,#453,.F.);
#577=ORIENTED_EDGE('',*,*,#454,.F.);
#578=ORIENTED_EDGE('',*,*,#433,.F.);
#579=ORIENTED_EDGE('',*,*,#455,.T.);
#580=ORIENTED_EDGE('',*,*,#456,.T.);
#581=ORIENTED_EDGE('',*,*,#457,.T.);
#582=ORIENTED_EDGE('',*,*,#458,.T.);
#583=ORIENTED_EDGE('',*,*,#459,.T.);
#584=ORIENTED_EDGE('',*,*,#460,.T.);
#585=ORIENTED_EDGE('',*,*,#426,.T.);
#586=ORIENTED_EDGE('',*,*,#434,.T.);
#587=ORIENTED_EDGE('',*,*,#454,.T.);
#588=ORIENTED_EDGE('',*,*,#461,.T.);
#589=ORIENTED_EDGE('',*,*,#428,.F.);
#590=ORIENTED_EDGE('',*,*,#462,.T.);
#591=ORIENTED_EDGE('',*,*,#463,.F.);
#592=ORIENTED_EDGE('',*,*,#462,.F.);
#593=ORIENTED_EDGE('',*,*,#455,.F.);
#594=ORIENTED_EDGE('',*,*,#464,.F.);
#595=ORIENTED_EDGE('',*,*,#465,.T.);
#596=ORIENTED_EDGE('',*,*,#466,.T.);
#597=ORIENTED_EDGE('',*,*,#456,.F.);
#598=ORIENTED_EDGE('',*,*,#466,.F.);
#599=ORIENTED_EDGE('',*,*,#467,.T.);
#600=ORIENTED_EDGE('',*,*,#468,.T.);
#601=ORIENTED_EDGE('',*,*,#457,.F.);
#602=ORIENTED_EDGE('',*,*,#468,.F.);
#603=ORIENTED_EDGE('',*,*,#469,.T.);
#604=ORIENTED_EDGE('',*,*,#470,.T.);
#605=ORIENTED_EDGE('',*,*,#458,.F.);
#606=ORIENTED_EDGE('',*,*,#470,.F.);
#607=ORIENTED_EDGE('',*,*,#471,.T.);
#608=ORIENTED_EDGE('',*,*,#472,.T.);
#609=ORIENTED_EDGE('',*,*,#459,.F.);
#610=ORIENTED_EDGE('',*,*,#472,.F.);
#611=ORIENTED_EDGE('',*,*,#473,.T.);
#612=ORIENTED_EDGE('',*,*,#474,.T.);
#613=ORIENTED_EDGE('',*,*,#460,.F.);
#614=ORIENTED_EDGE('',*,*,#474,.F.);
#615=ORIENTED_EDGE('',*,*,#475,.T.);
#616=ORIENTED_EDGE('',*,*,#464,.T.);
#617=ORIENTED_EDGE('',*,*,#469,.F.);
#618=ORIENTED_EDGE('',*,*,#467,.F.);
#619=ORIENTED_EDGE('',*,*,#465,.F.);
#620=ORIENTED_EDGE('',*,*,#475,.F.);
#621=ORIENTED_EDGE('',*,*,#473,.F.);
#622=ORIENTED_EDGE('',*,*,#471,.F.);
#623=ORIENTED_EDGE('',*,*,#463,.T.);
#624=ORIENTED_EDGE('',*,*,#420,.F.);
#625=ORIENTED_EDGE('',*,*,#476,.T.);
#626=ORIENTED_EDGE('',*,*,#477,.F.);
#627=ORIENTED_EDGE('',*,*,#476,.F.);
#628=ORIENTED_EDGE('',*,*,#440,.F.);
#629=ORIENTED_EDGE('',*,*,#478,.T.);
#630=ORIENTED_EDGE('',*,*,#479,.T.);
#631=ORIENTED_EDGE('',*,*,#480,.F.);
#632=ORIENTED_EDGE('',*,*,#445,.F.);
#633=ORIENTED_EDGE('',*,*,#481,.T.);
#634=ORIENTED_EDGE('',*,*,#482,.T.);
#635=ORIENTED_EDGE('',*,*,#478,.F.);
#636=ORIENTED_EDGE('',*,*,#444,.F.);
#637=ORIENTED_EDGE('',*,*,#483,.T.);
#638=ORIENTED_EDGE('',*,*,#484,.T.);
#639=ORIENTED_EDGE('',*,*,#481,.F.);
#640=ORIENTED_EDGE('',*,*,#443,.F.);
#641=ORIENTED_EDGE('',*,*,#485,.T.);
#642=ORIENTED_EDGE('',*,*,#486,.T.);
#643=ORIENTED_EDGE('',*,*,#483,.F.);
#644=ORIENTED_EDGE('',*,*,#442,.F.);
#645=ORIENTED_EDGE('',*,*,#487,.T.);
#646=ORIENTED_EDGE('',*,*,#488,.T.);
#647=ORIENTED_EDGE('',*,*,#485,.F.);
#648=ORIENTED_EDGE('',*,*,#441,.F.);
#649=ORIENTED_EDGE('',*,*,#480,.T.);
#650=ORIENTED_EDGE('',*,*,#489,.T.);
#651=ORIENTED_EDGE('',*,*,#487,.F.);
#652=ORIENTED_EDGE('',*,*,#489,.F.);
#653=ORIENTED_EDGE('',*,*,#479,.F.);
#654=ORIENTED_EDGE('',*,*,#482,.F.);
#655=ORIENTED_EDGE('',*,*,#484,.F.);
#656=ORIENTED_EDGE('',*,*,#486,.F.);
#657=ORIENTED_EDGE('',*,*,#488,.F.);
#658=ORIENTED_EDGE('',*,*,#477,.T.);
#659=ORIENTED_EDGE('',*,*,#490,.F.);
#660=ORIENTED_EDGE('',*,*,#491,.T.);
#661=ORIENTED_EDGE('',*,*,#451,.F.);
#662=ORIENTED_EDGE('',*,*,#491,.F.);
#663=ORIENTED_EDGE('',*,*,#492,.F.);
#664=ORIENTED_EDGE('',*,*,#493,.F.);
#665=ORIENTED_EDGE('',*,*,#494,.F.);
#666=ORIENTED_EDGE('',*,*,#495,.T.);
#667=ORIENTED_EDGE('',*,*,#496,.F.);
#668=ORIENTED_EDGE('',*,*,#495,.F.);
#669=ORIENTED_EDGE('',*,*,#497,.F.);
#670=ORIENTED_EDGE('',*,*,#498,.T.);
#671=ORIENTED_EDGE('',*,*,#499,.F.);
#672=ORIENTED_EDGE('',*,*,#498,.F.);
#673=ORIENTED_EDGE('',*,*,#500,.F.);
#674=ORIENTED_EDGE('',*,*,#501,.T.);
#675=ORIENTED_EDGE('',*,*,#502,.F.);
#676=ORIENTED_EDGE('',*,*,#501,.F.);
#677=ORIENTED_EDGE('',*,*,#503,.F.);
#678=ORIENTED_EDGE('',*,*,#504,.T.);
#679=ORIENTED_EDGE('',*,*,#505,.F.);
#680=ORIENTED_EDGE('',*,*,#504,.F.);
#681=ORIENTED_EDGE('',*,*,#506,.F.);
#682=ORIENTED_EDGE('',*,*,#507,.T.);
#683=ORIENTED_EDGE('',*,*,#508,.F.);
#684=ORIENTED_EDGE('',*,*,#507,.F.);
#685=ORIENTED_EDGE('',*,*,#509,.F.);
#686=ORIENTED_EDGE('',*,*,#493,.T.);
#687=ORIENTED_EDGE('',*,*,#502,.T.);
#688=ORIENTED_EDGE('',*,*,#505,.T.);
#689=ORIENTED_EDGE('',*,*,#508,.T.);
#690=ORIENTED_EDGE('',*,*,#492,.T.);
#691=ORIENTED_EDGE('',*,*,#496,.T.);
#692=ORIENTED_EDGE('',*,*,#499,.T.);
#693=ORIENTED_EDGE('',*,*,#490,.T.);
#694=ORIENTED_EDGE('',*,*,#450,.T.);
#695=ORIENTED_EDGE('',*,*,#430,.F.);
#696=ORIENTED_EDGE('',*,*,#510,.F.);
#697=ORIENTED_EDGE('',*,*,#416,.F.);
#698=ORIENTED_EDGE('',*,*,#410,.F.);
#699=ORIENTED_EDGE('',*,*,#417,.F.);
#700=ORIENTED_EDGE('',*,*,#510,.T.);
#701=ORIENTED_EDGE('',*,*,#429,.F.);
#702=ORIENTED_EDGE('',*,*,#422,.F.);
#703=ORIENTED_EDGE('',*,*,#511,.F.);
#704=ORIENTED_EDGE('',*,*,#494,.T.);
#705=ORIENTED_EDGE('',*,*,#509,.T.);
#706=ORIENTED_EDGE('',*,*,#506,.T.);
#707=ORIENTED_EDGE('',*,*,#503,.T.);
#708=ORIENTED_EDGE('',*,*,#500,.T.);
#709=ORIENTED_EDGE('',*,*,#497,.T.);
#710=ORIENTED_EDGE('',*,*,#407,.F.);
#711=ORIENTED_EDGE('',*,*,#511,.T.);
#712=ORIENTED_EDGE('',*,*,#421,.F.);
#713=ORIENTED_EDGE('',*,*,#427,.T.);
#714=ORIENTED_EDGE('',*,*,#461,.F.);
#715=ORIENTED_EDGE('',*,*,#453,.T.);
#716=ORIENTED_EDGE('',*,*,#447,.F.);
#717=ORIENTED_EDGE('',*,*,#449,.T.);
#718=ORIENTED_EDGE('',*,*,#436,.F.);
#719=ORIENTED_EDGE('',*,*,#439,.T.);
#720=ORIENTED_EDGE('',*,*,#452,.F.);
#721=ORIENTED_EDGE('',*,*,#418,.T.);
#722=CYLINDRICAL_SURFACE('',#787,8.6);
#723=CYLINDRICAL_SURFACE('',#795,8.6);
#724=CYLINDRICAL_SURFACE('',#803,4.3);
#725=CYLINDRICAL_SURFACE('',#807,4.3);
#726=CYLINDRICAL_SURFACE('',#812,4.3);
#727=CYLINDRICAL_SURFACE('',#815,4.3);
#728=CYLINDRICAL_SURFACE('',#816,0.8);
#729=CYLINDRICAL_SURFACE('',#825,1.05);
#730=CYLINDRICAL_SURFACE('',#834,0.800000000000001);
#731=CYLINDRICAL_SURFACE('',#843,10.7800742112473);
#732=ADVANCED_FACE('',(#58),#722,.T.);
#733=ADVANCED_FACE('',(#59),#28,.T.);
#734=ADVANCED_FACE('',(#60,#19),#29,.T.);
#735=ADVANCED_FACE('',(#61),#723,.T.);
#736=ADVANCED_FACE('',(#62,#20),#30,.T.);
#737=ADVANCED_FACE('',(#63),#31,.T.);
#738=ADVANCED_FACE('',(#64),#724,.F.);
#739=ADVANCED_FACE('',(#65,#21),#32,.T.);
#740=ADVANCED_FACE('',(#66),#725,.F.);
#741=ADVANCED_FACE('',(#67,#22),#33,.T.);
#742=ADVANCED_FACE('',(#68),#726,.T.);
#743=ADVANCED_FACE('',(#69,#23),#34,.T.);
#744=ADVANCED_FACE('',(#70),#727,.T.);
#745=ADVANCED_FACE('',(#71),#728,.F.);
#746=ADVANCED_FACE('',(#72),#35,.F.);
#747=ADVANCED_FACE('',(#73),#36,.F.);
#748=ADVANCED_FACE('',(#74),#37,.F.);
#749=ADVANCED_FACE('',(#75),#38,.F.);
#750=ADVANCED_FACE('',(#76),#39,.F.);
#751=ADVANCED_FACE('',(#77),#40,.F.);
#752=ADVANCED_FACE('',(#78,#24),#41,.F.);
#753=ADVANCED_FACE('',(#79),#729,.F.);
#754=ADVANCED_FACE('',(#80),#42,.F.);
#755=ADVANCED_FACE('',(#81),#43,.F.);
#756=ADVANCED_FACE('',(#82),#44,.F.);
#757=ADVANCED_FACE('',(#83),#45,.F.);
#758=ADVANCED_FACE('',(#84),#46,.F.);
#759=ADVANCED_FACE('',(#85),#47,.F.);
#760=ADVANCED_FACE('',(#86,#25),#48,.F.);
#761=ADVANCED_FACE('',(#87),#730,.F.);
#762=ADVANCED_FACE('',(#88),#49,.F.);
#763=ADVANCED_FACE('',(#89),#50,.F.);
#764=ADVANCED_FACE('',(#90),#51,.F.);
#765=ADVANCED_FACE('',(#91),#52,.F.);
#766=ADVANCED_FACE('',(#92),#53,.F.);
#767=ADVANCED_FACE('',(#93),#54,.F.);
#768=ADVANCED_FACE('',(#94,#26),#55,.F.);
#769=ADVANCED_FACE('',(#95),#731,.T.);
#770=ADVANCED_FACE('',(#96,#27),#56,.T.);
#771=ADVANCED_FACE('',(#97),#57,.T.);
#772=CLOSED_SHELL('',(#732,#733,#734,#735,#736,#737,#738,#739,#740,#741,
#742,#743,#744,#745,#746,#747,#748,#749,#750,#751,#752,#753,#754,#755,#756,
#757,#758,#759,#760,#761,#762,#763,#764,#765,#766,#767,#768,#769,#770,#771));
#773=DERIVED_UNIT_ELEMENT(#775,1.);
#774=DERIVED_UNIT_ELEMENT(#1284,-3.);
#775=(
MASS_UNIT()
NAMED_UNIT(*)
SI_UNIT(.KILO.,.GRAM.)
);
#776=DERIVED_UNIT((#773,#774));
#777=MEASURE_REPRESENTATION_ITEM('density measure',
POSITIVE_RATIO_MEASURE(7850.),#776);
#778=PROPERTY_DEFINITION_REPRESENTATION(#783,#780);
#779=PROPERTY_DEFINITION_REPRESENTATION(#784,#781);
#780=REPRESENTATION('material name',(#782),#1281);
#781=REPRESENTATION('density',(#777),#1281);
#782=DESCRIPTIVE_REPRESENTATION_ITEM('Steel','Steel');
#783=PROPERTY_DEFINITION('material property','material name',#1296);
#784=PROPERTY_DEFINITION('material property','density of part',#1296);
#785=AXIS2_PLACEMENT_3D('',#1059,#848,#849);
#786=AXIS2_PLACEMENT_3D('',#1060,#850,#851);
#787=AXIS2_PLACEMENT_3D('',#1061,#852,#853);
#788=AXIS2_PLACEMENT_3D('',#1064,#854,#855);
#789=AXIS2_PLACEMENT_3D('',#1068,#857,#858);
#790=AXIS2_PLACEMENT_3D('',#1070,#860,#861);
#791=AXIS2_PLACEMENT_3D('',#1078,#865,#866);
#792=AXIS2_PLACEMENT_3D('',#1084,#870,#871);
#793=AXIS2_PLACEMENT_3D('',#1087,#873,#874);
#794=AXIS2_PLACEMENT_3D('',#1089,#875,#876);
#795=AXIS2_PLACEMENT_3D('',#1090,#877,#878);
#796=AXIS2_PLACEMENT_3D('',#1093,#879,#880);
#797=AXIS2_PLACEMENT_3D('',#1097,#882,#883);
#798=AXIS2_PLACEMENT_3D('',#1099,#885,#886);
#799=AXIS2_PLACEMENT_3D('',#1103,#888,#889);
#800=AXIS2_PLACEMENT_3D('',#1106,#891,#892);
#801=AXIS2_PLACEMENT_3D('',#1107,#893,#894);
#802=AXIS2_PLACEMENT_3D('',#1115,#898,#899);
#803=AXIS2_PLACEMENT_3D('',#1119,#902,#903);
#804=AXIS2_PLACEMENT_3D('',#1123,#905,#906);
#805=AXIS2_PLACEMENT_3D('',#1125,#908,#909);
#806=AXIS2_PLACEMENT_3D('',#1127,#910,#911);
#807=AXIS2_PLACEMENT_3D('',#1141,#919,#920);
#808=AXIS2_PLACEMENT_3D('',#1145,#922,#923);
#809=AXIS2_PLACEMENT_3D('',#1147,#925,#926);
#810=AXIS2_PLACEMENT_3D('',#1149,#928,#929);
#811=AXIS2_PLACEMENT_3D('',#1151,#930,#931);
#812=AXIS2_PLACEMENT_3D('',#1152,#932,#933);
#813=AXIS2_PLACEMENT_3D('',#1154,#935,#936);
#814=AXIS2_PLACEMENT_3D('',#1157,#938,#939);
#815=AXIS2_PLACEMENT_3D('',#1170,#946,#947);
#816=AXIS2_PLACEMENT_3D('',#1172,#949,#950);
#817=AXIS2_PLACEMENT_3D('',#1175,#952,#953);
#818=AXIS2_PLACEMENT_3D('',#1176,#954,#955);
#819=AXIS2_PLACEMENT_3D('',#1182,#959,#960);
#820=AXIS2_PLACEMENT_3D('',#1186,#963,#964);
#821=AXIS2_PLACEMENT_3D('',#1190,#967,#968);
#822=AXIS2_PLACEMENT_3D('',#1194,#971,#972);
#823=AXIS2_PLACEMENT_3D('',#1198,#975,#976);
#824=AXIS2_PLACEMENT_3D('',#1200,#978,#979);
#825=AXIS2_PLACEMENT_3D('',#1201,#980,#981);
#826=AXIS2_PLACEMENT_3D('',#1204,#983,#984);
#827=AXIS2_PLACEMENT_3D('',#1205,#985,#986);
#828=AXIS2_PLACEMENT_3D('',#1211,#990,#991);
#829=AXIS2_PLACEMENT_3D('',#1215,#994,#995);
#830=AXIS2_PLACEMENT_3D('',#1219,#998,#999);
#831=AXIS2_PLACEMENT_3D('',#1223,#1002,#1003);
#832=AXIS2_PLACEMENT_3D('',#1227,#1006,#1007);
#833=AXIS2_PLACEMENT_3D('',#1229,#1009,#1010);
#834=AXIS2_PLACEMENT_3D('',#1230,#1011,#1012);
#835=AXIS2_PLACEMENT_3D('',#1232,#1013,#1014);
#836=AXIS2_PLACEMENT_3D('',#1234,#1016,#1017);
#837=AXIS2_PLACEMENT_3D('',#1243,#1022,#1023);
#838=AXIS2_PLACEMENT_3D('',#1249,#1027,#1028);
#839=AXIS2_PLACEMENT_3D('',#1255,#1032,#1033);
#840=AXIS2_PLACEMENT_3D('',#1261,#1037,#1038);
#841=AXIS2_PLACEMENT_3D('',#1267,#1042,#1043);
#842=AXIS2_PLACEMENT_3D('',#1270,#1046,#1047);
#843=AXIS2_PLACEMENT_3D('',#1271,#1048,#1049);
#844=AXIS2_PLACEMENT_3D('',#1272,#1050,#1051);
#845=AXIS2_PLACEMENT_3D('',#1273,#1052,#1053);
#846=AXIS2_PLACEMENT_3D('',#1275,#1055,#1056);
#847=AXIS2_PLACEMENT_3D('',#1276,#1057,#1058);
#848=DIRECTION('axis',(0.,0.,1.));
#849=DIRECTION('refdir',(1.,0.,0.));
#850=DIRECTION('axis',(0.,0.,1.));
#851=DIRECTION('refdir',(1.,0.,0.));
#852=DIRECTION('center_axis',(1.,0.,0.));
#853=DIRECTION('ref_axis',(0.,-0.707106781186545,-0.70710678118655));
#854=DIRECTION('center_axis',(-1.,0.,0.));
#855=DIRECTION('ref_axis',(0.,-0.707106781186545,-0.70710678118655));
#856=DIRECTION('',(-1.,0.,0.));
#857=DIRECTION('center_axis',(1.,0.,0.));
#858=DIRECTION('ref_axis',(0.,-0.707106781186545,-0.70710678118655));
#859=DIRECTION('',(1.,0.,0.));
#860=DIRECTION('center_axis',(-1.,0.,0.));
#861=DIRECTION('ref_axis',(0.,0.,1.));
#862=DIRECTION('',(0.,2.26576127474522E-15,1.));
#863=DIRECTION('',(0.,-1.,-1.16186130484028E-15));
#864=DIRECTION('',(0.,-2.09673847898992E-15,-1.));
#865=DIRECTION('center_axis',(-1.,0.,0.));
#866=DIRECTION('ref_axis',(0.,-0.70710678118655,-0.707106781186545));
#867=DIRECTION('',(0.,1.,-5.66757208375084E-15));
#868=DIRECTION('',(0.,9.85821713197849E-15,-1.));
#869=DIRECTION('',(0.,-1.,-9.78906322787781E-15));
#870=DIRECTION('center_axis',(0.,-1.,2.26576127474522E-15));
#871=DIRECTION('ref_axis',(0.,-2.26576127474522E-15,-1.));
#872=DIRECTION('',(0.,-2.26576127474522E-15,-1.));
#873=DIRECTION('center_axis',(0.,1.,-2.26576127474522E-15));
#874=DIRECTION('ref_axis',(0.707106781186548,-1.460551124357E-15,0.707106781186548));
#875=DIRECTION('center_axis',(0.,1.,-2.26576127474522E-15));
#876=DIRECTION('ref_axis',(1.,0.,0.));
#877=DIRECTION('center_axis',(1.,0.,0.));
#878=DIRECTION('ref_axis',(0.,0.707106781186544,-0.707106781186551));
#879=DIRECTION('center_axis',(-1.,0.,0.));
#880=DIRECTION('ref_axis',(0.,0.707106781186544,-0.707106781186551));
#881=DIRECTION('',(-1.,0.,0.));
#882=DIRECTION('center_axis',(1.,0.,0.));
#883=DIRECTION('ref_axis',(0.,0.707106781186544,-0.707106781186551));
#884=DIRECTION('',(1.,0.,0.));
#885=DIRECTION('center_axis',(0.,1.,-2.04027445557589E-14));
#886=DIRECTION('ref_axis',(0.,2.04027445557589E-14,1.));
#887=DIRECTION('',(0.,-2.04027445557589E-14,-1.));
#888=DIRECTION('center_axis',(0.,-1.,2.04027445557589E-14));
#889=DIRECTION('ref_axis',(0.707106781186548,1.25607396694702E-13,0.707106781186548));
#890=DIRECTION('',(0.,2.04027445557589E-14,1.));
#891=DIRECTION('center_axis',(0.,-1.,2.04027445557589E-14));
#892=DIRECTION('ref_axis',(-1.,0.,0.));
#893=DIRECTION('center_axis',(-1.,0.,0.));
#894=DIRECTION('ref_axis',(0.,0.,1.));
#895=DIRECTION('',(0.,-1.,-9.78906322787781E-15));
#896=DIRECTION('',(0.,-9.85821713197849E-15,1.));
#897=DIRECTION('',(0.,1.,-5.66757208375084E-15));
#898=DIRECTION('center_axis',(-1.,0.,0.));
#899=DIRECTION('ref_axis',(0.,0.707106781186539,-0.707106781186556));
#900=DIRECTION('',(0.,1.66166524459944E-14,1.));
#901=DIRECTION('',(0.,-1.,1.77377492538949E-13));
#902=DIRECTION('center_axis',(1.,0.,0.));
#903=DIRECTION('ref_axis',(0.,-0.70710678118655,-0.707106781186545));
#904=DIRECTION('',(1.,0.,0.));
#905=DIRECTION('center_axis',(1.,0.,0.));
#906=DIRECTION('ref_axis',(0.,-0.70710678118655,-0.707106781186545));
#907=DIRECTION('',(-1.,0.,0.));
#908=DIRECTION('center_axis',(0.,1.,-2.09673847898992E-15));
#909=DIRECTION('ref_axis',(0.,2.09673847898992E-15,1.));
#910=DIRECTION('center_axis',(0.,-1.,2.09673847898992E-15));
#911=DIRECTION('ref_axis',(-0.707106781186548,-1.460551124357E-15,0.707106781186548));
#912=DIRECTION('',(0.,2.09673847898992E-15,1.));
#913=DIRECTION('',(-4.57848258662753E-16,-2.09673847898992E-15,-1.));
#914=DIRECTION('',(0.866025403784439,-1.04836923949496E-15,-0.5));
#915=DIRECTION('',(0.866025403784439,1.04836923949496E-15,0.5));
#916=DIRECTION('',(4.57848258662754E-16,2.09673847898992E-15,1.));
#917=DIRECTION('',(-0.866025403784438,1.04836923949496E-15,0.500000000000001));
#918=DIRECTION('',(-0.866025403784439,-1.04836923949496E-15,-0.499999999999999));
#919=DIRECTION('center_axis',(1.,0.,0.));
#920=DIRECTION('ref_axis',(0.,0.707106781186539,-0.707106781186556));
#921=DIRECTION('',(1.,0.,0.));
#922=DIRECTION('center_axis',(1.,0.,0.));
#923=DIRECTION('ref_axis',(0.,0.707106781186539,-0.707106781186556));
#924=DIRECTION('',(-1.,0.,0.));
#925=DIRECTION('center_axis',(0.,5.66757208375084E-15,1.));
#926=DIRECTION('ref_axis',(0.,-1.,5.66757208375084E-15));
#927=DIRECTION('',(0.,-1.,5.66757208375084E-15));
#928=DIRECTION('center_axis',(0.,-5.66757208375084E-15,-1.));
#929=DIRECTION('ref_axis',(-0.797768162952647,-0.602964309208396,-5.94415308300979E-15));
#930=DIRECTION('center_axis',(0.,-5.66757208375084E-15,-1.));
#931=DIRECTION('ref_axis',(1.,0.,0.));
#932=DIRECTION('center_axis',(0.,1.,1.16186130484028E-15));
#933=DIRECTION('ref_axis',(-0.707106781186548,-1.460551124357E-15,0.707106781186548));
#934=DIRECTION('',(0.,1.,1.16186130484028E-15));
#935=DIRECTION('center_axis',(0.,-1.,1.66166524459944E-14));
#936=DIRECTION('ref_axis',(0.,-1.66166524459944E-14,-1.));
#937=DIRECTION('',(0.,-1.66166524459944E-14,-1.));
#938=DIRECTION('center_axis',(0.,1.,-1.66166524459944E-14));
#939=DIRECTION('ref_axis',(0.707106781186548,1.25607396694702E-13,0.707106781186548));
#940=DIRECTION('',(0.866025403784439,8.30832622299719E-15,0.5));
#941=DIRECTION('',(0.866025403784438,-8.30832622299722E-15,-0.500000000000001));
#942=DIRECTION('',(1.57619892326521E-15,-1.66166524459944E-14,-1.));
#943=DIRECTION('',(-0.866025403784439,-8.30832622299719E-15,-0.5));
#944=DIRECTION('',(-0.866025403784438,8.30832622299721E-15,0.5));
#945=DIRECTION('',(3.94049730816303E-16,1.66166524459944E-14,1.));
#946=DIRECTION('center_axis',(0.,1.,-1.77377492538949E-13));
#947=DIRECTION('ref_axis',(-0.707106781186548,1.25607396694702E-13,0.707106781186548));
#948=DIRECTION('',(0.,1.,-1.77377492538949E-13));
#949=DIRECTION('center_axis',(0.,-1.,0.));
#950=DIRECTION('ref_axis',(-1.,0.,0.));
#951=DIRECTION('',(0.,-1.,0.));
#952=DIRECTION('center_axis',(0.,1.,0.));
#953=DIRECTION('ref_axis',(-1.,0.,0.));
#954=DIRECTION('center_axis',(-0.5,0.,0.866025403784439));
#955=DIRECTION('ref_axis',(-0.866025403784439,0.,-0.5));
#956=DIRECTION('',(0.,-1.,0.));
#957=DIRECTION('',(0.866025403784439,0.,0.5));
#958=DIRECTION('',(0.,-1.,0.));
#959=DIRECTION('center_axis',(0.500000000000001,0.,0.866025403784438));
#960=DIRECTION('ref_axis',(-0.866025403784438,0.,0.500000000000001));
#961=DIRECTION('',(0.866025403784438,0.,-0.500000000000001));
#962=DIRECTION('',(0.,-1.,0.));
#963=DIRECTION('center_axis',(1.,0.,1.57619892326521E-15));
#964=DIRECTION('ref_axis',(-1.57619892326521E-15,0.,1.));
#965=DIRECTION('',(1.57619892326521E-15,0.,-1.));
#966=DIRECTION('',(0.,-1.,0.));
#967=DIRECTION('center_axis',(0.5,0.,-0.866025403784439));
#968=DIRECTION('ref_axis',(0.866025403784439,0.,0.5));
#969=DIRECTION('',(-0.866025403784439,0.,-0.5));
#970=DIRECTION('',(0.,-1.,0.));
#971=DIRECTION('center_axis',(-0.5,0.,-0.866025403784438));
#972=DIRECTION('ref_axis',(0.866025403784438,0.,-0.5));
#973=DIRECTION('',(-0.866025403784438,0.,0.5));
#974=DIRECTION('',(0.,-1.,0.));
#975=DIRECTION('center_axis',(-1.,0.,3.94049730816303E-16));
#976=DIRECTION('ref_axis',(-3.94049730816303E-16,0.,-1.));
#977=DIRECTION('',(3.94049730816303E-16,0.,1.));
#978=DIRECTION('center_axis',(0.,1.,0.));
#979=DIRECTION('ref_axis',(-1.,0.,0.));
#980=DIRECTION('center_axis',(0.,1.,-2.25045207694288E-15));
#981=DIRECTION('ref_axis',(1.,0.,0.));
#982=DIRECTION('',(0.,1.,-2.25045207694288E-15));
#983=DIRECTION('center_axis',(0.,-1.,2.22044604925031E-15));
#984=DIRECTION('ref_axis',(1.,0.,0.));
#985=DIRECTION('center_axis',(-1.,1.01662735710384E-30,4.57848258662753E-16));
#986=DIRECTION('ref_axis',(-4.57848258662753E-16,-2.09673847898992E-15,
-1.));
#987=DIRECTION('',(0.,-1.,2.22044604925031E-15));
#988=DIRECTION('',(-4.57848258662753E-16,-2.09673847898992E-15,-1.));
#989=DIRECTION('',(0.,-1.,2.22044604925031E-15));
#990=DIRECTION('center_axis',(-0.499999999999999,1.92296268638356E-15,0.866025403784439));
#991=DIRECTION('ref_axis',(-0.866025403784439,-1.04836923949496E-15,-0.499999999999999));
#992=DIRECTION('',(0.,-1.,2.22044604925031E-15));
#993=DIRECTION('',(-0.866025403784439,-1.04836923949496E-15,-0.499999999999999));
#994=DIRECTION('center_axis',(0.500000000000001,1.92296268638356E-15,0.866025403784438));
#995=DIRECTION('ref_axis',(-0.866025403784438,1.04836923949496E-15,0.500000000000001));
#996=DIRECTION('',(0.,-1.,2.22044604925031E-15));
#997=DIRECTION('',(-0.866025403784438,1.04836923949496E-15,0.500000000000001));
#998=DIRECTION('center_axis',(1.,-1.01662735710385E-30,-4.57848258662754E-16));
#999=DIRECTION('ref_axis',(4.57848258662754E-16,2.09673847898992E-15,1.));
#1000=DIRECTION('',(0.,-1.,2.22044604925031E-15));
#1001=DIRECTION('',(4.57848258662754E-16,2.09673847898992E-15,1.));
#1002=DIRECTION('center_axis',(0.5,-1.92296268638356E-15,-0.866025403784439));
#1003=DIRECTION('ref_axis',(0.866025403784439,1.04836923949496E-15,0.5));
#1004=DIRECTION('',(0.,-1.,2.22044604925031E-15));
#1005=DIRECTION('',(0.866025403784439,1.04836923949496E-15,0.5));
#1006=DIRECTION('center_axis',(-0.5,-1.92296268638356E-15,-0.866025403784439));
#1007=DIRECTION('ref_axis',(0.866025403784439,-1.04836923949496E-15,-0.5));
#1008=DIRECTION('',(0.866025403784439,-1.04836923949496E-15,-0.5));
#1009=DIRECTION('center_axis',(0.,-1.,2.22044604925031E-15));
#1010=DIRECTION('ref_axis',(0.,-2.22044604925031E-15,-1.));
#1011=DIRECTION('center_axis',(0.,-9.82358035204191E-15,1.));
#1012=DIRECTION('ref_axis',(1.,0.,0.));
#1013=DIRECTION('center_axis',(0.,5.66757208375084E-15,1.));
#1014=DIRECTION('ref_axis',(1.,0.,0.));
#1015=DIRECTION('',(0.,-9.82358035204191E-15,1.));
#1016=DIRECTION('center_axis',(-0.866025403784443,-0.499999999999992,-4.98976640280975E-15));
#1017=DIRECTION('ref_axis',(0.499999999999992,-0.866025403784443,-8.53651659843182E-15));
#1018=DIRECTION('',(0.499999999999992,-0.866025403784443,4.90826140230776E-15));
#1019=DIRECTION('',(0.,-9.97953280561965E-15,1.));
#1020=DIRECTION('',(0.499999999999992,-0.866025403784443,-8.47757743459433E-15));
#1021=DIRECTION('',(0.,-9.97953280561965E-15,1.));
#1022=DIRECTION('center_axis',(-0.866025403784435,0.500000000000007,4.9897664028099E-15));
#1023=DIRECTION('ref_axis',(-0.500000000000007,-0.866025403784435,-8.53651659843174E-15));
#1024=DIRECTION('',(-0.500000000000007,-0.866025403784435,4.90826140230771E-15));
#1025=DIRECTION('',(-0.500000000000007,-0.866025403784435,-8.47757743459425E-15));
#1026=DIRECTION('',(0.,-9.97953280561965E-15,1.));
#1027=DIRECTION('center_axis',(9.45719353959133E-15,1.,9.97953280561965E-15));
#1028=DIRECTION('ref_axis',(-1.,9.45719353959133E-15,9.32206945344966E-29));
#1029=DIRECTION('',(-1.,9.45719353959133E-15,-5.35993260956166E-29));
#1030=DIRECTION('',(-1.,9.45719353959133E-15,9.25770655173372E-29));
#1031=DIRECTION('',(0.,-9.97953280561965E-15,1.));
#1032=DIRECTION('center_axis',(0.866025403784443,0.499999999999992,4.98976640280975E-15));
#1033=DIRECTION('ref_axis',(-0.499999999999992,0.866025403784443,8.53651659843182E-15));
#1034=DIRECTION('',(-0.499999999999992,0.866025403784443,-4.90826140230776E-15));
#1035=DIRECTION('',(-0.499999999999992,0.866025403784443,8.47757743459433E-15));
#1036=DIRECTION('',(0.,-9.97953280561965E-15,1.));
#1037=DIRECTION('center_axis',(0.866025403784434,-0.500000000000007,-4.9897664028099E-15));
#1038=DIRECTION('ref_axis',(0.500000000000007,0.866025403784434,8.53651659843174E-15));
#1039=DIRECTION('',(0.500000000000007,0.866025403784434,-4.90826140230771E-15));
#1040=DIRECTION('',(0.500000000000007,0.866025403784434,8.47757743459424E-15));
#1041=DIRECTION('',(0.,-9.97953280561965E-15,1.));
#1042=DIRECTION('center_axis',(-8.40639425741453E-15,-1.,-9.97953280561965E-15));
#1043=DIRECTION('ref_axis',(1.,-8.40639425741453E-15,-8.28628395862192E-29));
#1044=DIRECTION('',(1.,-8.40639425741453E-15,4.76438454183259E-29));
#1045=DIRECTION('',(1.,-8.40639425741453E-15,-8.22907249042998E-29));
#1046=DIRECTION('center_axis',(0.,5.66757208375084E-15,1.));
#1047=DIRECTION('ref_axis',(1.,0.,0.));
#1048=DIRECTION('center_axis',(0.,-9.85821713197849E-15,1.));
#1049=DIRECTION('ref_axis',(-0.797768162952647,-0.602964309208396,-5.94415308300979E-15));
#1050=DIRECTION('center_axis',(0.,9.85712031209259E-15,-1.));
#1051=DIRECTION('ref_axis',(-0.797768162952647,-0.602964309208396,-5.94349173976496E-15));
#1052=DIRECTION('center_axis',(0.,9.78906322787781E-15,-1.));
#1053=DIRECTION('ref_axis',(0.,1.,9.78906322787781E-15));
#1054=DIRECTION('',(0.,1.,9.78906322787781E-15));
#1055=DIRECTION('center_axis',(1.,0.,0.));
#1056=DIRECTION('ref_axis',(0.,0.,-1.));
#1057=DIRECTION('',(-1.,5.7233697655457E-15,-1.97215226305253E-31));
#1058=DIRECTION('',(1.26471431430116E-60,7.07300707546474E-46,-1.));
#1059=CARTESIAN_POINT('',(0.,0.,0.));
#1060=CARTESIAN_POINT('',(0.,0.,0.));
#1061=CARTESIAN_POINT('Origin',(0.,-26.4999999999997,-12.5799999999999));
#1062=CARTESIAN_POINT('',(4.3,-26.4999999999996,-21.1799999999999));
#1063=CARTESIAN_POINT('',(4.3,-35.0999999999997,-12.5799999999998));
#1064=CARTESIAN_POINT('Origin',(4.3,-26.4999999999997,-12.5799999999999));
#1065=CARTESIAN_POINT('',(-4.3,-35.0999999999997,-12.5799999999998));
#1066=CARTESIAN_POINT('',(0.,-35.0999999999997,-12.5799999999998));
#1067=CARTESIAN_POINT('',(-4.3,-26.4999999999996,-21.1799999999999));
#1068=CARTESIAN_POINT('Origin',(-4.3,-26.4999999999997,-12.5799999999999));
#1069=CARTESIAN_POINT('',(0.,-26.4999999999996,-21.1799999999999));
#1070=CARTESIAN_POINT('Origin',(-4.3,-16.4999999999996,-8.43999999999957));
#1071=CARTESIAN_POINT('',(-4.3,-35.0999999999996,2.22044604925031E-15));
#1072=CARTESIAN_POINT('',(-4.3,-35.0999999999996,4.3));
#1073=CARTESIAN_POINT('',(-4.3,-30.7999999999996,6.66133814775094E-15));
#1074=CARTESIAN_POINT('',(-4.3,-23.6499999999996,1.55431223447522E-14));
#1075=CARTESIAN_POINT('',(-4.3,-30.7999999999997,-12.5799999999999));
#1076=CARTESIAN_POINT('',(-4.3,-30.7999999999997,-16.8799999999998));
#1077=CARTESIAN_POINT('',(-4.3,-26.4999999999997,-16.8799999999999));
#1078=CARTESIAN_POINT('Origin',(-4.3,-26.4999999999997,-12.5799999999999));
#1079=CARTESIAN_POINT('',(-4.3,-22.9999999999999,-16.8799999999999));
#1080=CARTESIAN_POINT('',(-4.3,-2.19999999999987,-16.88));
#1081=CARTESIAN_POINT('',(-4.3,-22.9999999999998,-21.1799999999998));
#1082=CARTESIAN_POINT('',(-4.3,-22.9999999999998,-21.1799999999998));
#1083=CARTESIAN_POINT('',(-4.3,-35.0999999999997,-21.1799999999999));
#1084=CARTESIAN_POINT('Origin',(0.,-35.0999999999996,4.3));
#1085=CARTESIAN_POINT('',(4.3,-35.0999999999996,2.22044604925031E-15));
#1086=CARTESIAN_POINT('',(4.3,-35.0999999999996,4.3));
#1087=CARTESIAN_POINT('Origin',(0.,-35.0999999999996,2.23981040433097E-15));
#1088=CARTESIAN_POINT('',(-1.05,-35.0999999999996,7.87765484790907E-14));
#1089=CARTESIAN_POINT('Origin',(0.,-35.0999999999996,7.89051363930011E-14));
#1090=CARTESIAN_POINT('Origin',(0.,-6.49999999999986,-12.5799999999997));
#1091=CARTESIAN_POINT('',(4.3,2.10000000000014,-12.5799999999998));
#1092=CARTESIAN_POINT('',(4.3,-6.49999999999978,-21.1799999999997));
#1093=CARTESIAN_POINT('Origin',(4.3,-6.49999999999986,-12.5799999999997));
#1094=CARTESIAN_POINT('',(-4.3,-6.49999999999978,-21.1799999999997));
#1095=CARTESIAN_POINT('',(0.,-6.49999999999978,-21.1799999999997));
#1096=CARTESIAN_POINT('',(-4.3,2.10000000000014,-12.5799999999998));
#1097=CARTESIAN_POINT('Origin',(-4.3,-6.49999999999986,-12.5799999999997));
#1098=CARTESIAN_POINT('',(0.,2.10000000000014,-12.5799999999998));
#1099=CARTESIAN_POINT('Origin',(0.,2.09999999999996,-21.1799999999996));
#1100=CARTESIAN_POINT('',(-4.3,2.1000000000004,3.5527136788005E-14));
#1101=CARTESIAN_POINT('',(-4.3,2.09999999999996,-21.1799999999996));
#1102=CARTESIAN_POINT('',(4.3,2.1000000000004,3.5527136788005E-14));
#1103=CARTESIAN_POINT('Origin',(0.,2.10000000000372,3.57078707682412E-14));
#1104=CARTESIAN_POINT('',(4.3,2.09999999999996,-21.1799999999996));
#1105=CARTESIAN_POINT('',(0.8,2.10000000000024,-9.79717439317883E-17));
#1106=CARTESIAN_POINT('Origin',(0.,2.09999999999996,0.));
#1107=CARTESIAN_POINT('Origin',(-4.3,-16.4999999999996,-8.43999999999957));
#1108=CARTESIAN_POINT('',(-4.3,-9.99999999999983,-21.1799999999997));
#1109=CARTESIAN_POINT('',(-4.3,-35.0999999999997,-21.1799999999999));
#1110=CARTESIAN_POINT('',(-4.3,-9.99999999999987,-16.88));
#1111=CARTESIAN_POINT('',(-4.3,-9.99999999999983,-21.1799999999997));
#1112=CARTESIAN_POINT('',(-4.3,-6.49999999999982,-16.88));
#1113=CARTESIAN_POINT('',(-4.3,-2.19999999999987,-16.88));
#1114=CARTESIAN_POINT('',(-4.3,-2.1999999999998,-12.58));
#1115=CARTESIAN_POINT('Origin',(-4.3,-6.4999999999998,-12.58));
#1116=CARTESIAN_POINT('',(-4.3,-2.19999999999959,7.98250354705488E-13));
#1117=CARTESIAN_POINT('',(-4.3,-2.19999999999952,4.3000000000008));
#1118=CARTESIAN_POINT('',(-4.3,-7.19999999999919,1.68531855138099E-12));
#1119=CARTESIAN_POINT('Origin',(0.,-26.4999999999997,-12.5799999999999));
#1120=CARTESIAN_POINT('',(4.3,-30.7999999999997,-12.5799999999999));
#1121=CARTESIAN_POINT('',(0.,-30.7999999999997,-12.5799999999999));
#1122=CARTESIAN_POINT('',(4.3,-26.4999999999997,-16.8799999999999));
#1123=CARTESIAN_POINT('Origin',(4.3,-26.4999999999997,-12.5799999999999));
#1124=CARTESIAN_POINT('',(0.,-26.4999999999997,-16.8799999999999));
#1125=CARTESIAN_POINT('Origin',(0.,-30.7999999999997,-16.8799999999998));
#1126=CARTESIAN_POINT('',(4.3,-30.7999999999996,6.66133814775094E-15));
#1127=CARTESIAN_POINT('Origin',(0.,-30.7999999999997,7.2358140151441E-15));
#1128=CARTESIAN_POINT('',(4.3,-30.7999999999997,-16.8799999999998));
#1129=CARTESIAN_POINT('',(-2.1,-30.7999999999996,1.21243556529829));
#1130=CARTESIAN_POINT('',(-2.1,-30.7999999999996,-1.21243556529814));
#1131=CARTESIAN_POINT('',(-2.1,-30.7999999999997,-7.83378221735078));
#1132=CARTESIAN_POINT('',(-2.0524747409531E-15,-30.7999999999996,-2.42487113059636));
#1133=CARTESIAN_POINT('',(2.07962720397031,-30.7999999999997,-3.62554445662269));
#1134=CARTESIAN_POINT('',(2.1,-30.7999999999996,-1.21243556529815));
#1135=CARTESIAN_POINT('',(-3.12962720397031,-30.7999999999997,-4.23176223927179));
#1136=CARTESIAN_POINT('',(2.1,-30.7999999999996,1.21243556529828));
#1137=CARTESIAN_POINT('',(2.09999999999999,-30.7999999999997,-9.04621778264899));
#1138=CARTESIAN_POINT('',(9.71445146547012E-16,-30.7999999999996,2.4248711305965));
#1139=CARTESIAN_POINT('',(5.22962720397032,-30.7999999999996,-0.594455543377158));
#1140=CARTESIAN_POINT('',(-4.17962720397031,-30.7999999999996,0.0117622392719618));
#1141=CARTESIAN_POINT('Origin',(0.,-6.4999999999998,-12.58));
#1142=CARTESIAN_POINT('',(4.3,-6.49999999999982,-16.88));
#1143=CARTESIAN_POINT('',(0.,-6.49999999999982,-16.88));
#1144=CARTESIAN_POINT('',(4.3,-2.1999999999998,-12.58));
#1145=CARTESIAN_POINT('Origin',(4.3,-6.4999999999998,-12.58));
#1146=CARTESIAN_POINT('',(0.,-2.1999999999998,-12.58));
#1147=CARTESIAN_POINT('Origin',(0.,-2.19999999999987,-16.88));
#1148=CARTESIAN_POINT('',(4.3,-2.19999999999987,-16.88));
#1149=CARTESIAN_POINT('Origin',(4.3,-16.4999999999999,-16.8799999999999));
#1150=CARTESIAN_POINT('',(-0.800000000000001,-16.4999999999999,-16.8800000000001));
#1151=CARTESIAN_POINT('Origin',(0.,-16.4999999999999,-16.8800000000001));
#1152=CARTESIAN_POINT('Origin',(0.,-23.6499999999996,1.55431223447522E-14));
#1153=CARTESIAN_POINT('',(4.3,-23.6499999999996,1.55431223447522E-14));
#1154=CARTESIAN_POINT('Origin',(0.,-2.19999999999952,4.3000000000008));
#1155=CARTESIAN_POINT('',(4.3,-2.19999999999959,7.98250354705488E-13));
#1156=CARTESIAN_POINT('',(4.3,-2.19999999999952,4.3000000000008));
#1157=CARTESIAN_POINT('Origin',(0.,-2.20000000000028,7.98431088686433E-13));
#1158=CARTESIAN_POINT('',(-1.83,-2.19999999999957,1.05655099261702));
#1159=CARTESIAN_POINT('',(3.72965547335014E-16,-2.19999999999955,2.11310198523404));
#1160=CARTESIAN_POINT('',(0.473477309068453,-2.19999999999955,2.38646423707989));
#1161=CARTESIAN_POINT('',(1.83,-2.19999999999957,1.05655099261702));
#1162=CARTESIAN_POINT('',(0.441522690931546,-2.19999999999956,1.85818874077138));
#1163=CARTESIAN_POINT('',(1.83,-2.19999999999961,-1.05655099261702));
#1164=CARTESIAN_POINT('',(1.83,-2.19999999999956,1.62172450369191));
#1165=CARTESIAN_POINT('',(-1.03422936061583E-15,-2.19999999999962,-2.11310198523404));
#1166=CARTESIAN_POINT('',(1.38847730906845,-2.19999999999961,-1.31146423707968));
#1167=CARTESIAN_POINT('',(-1.83,-2.19999999999961,-1.05655099261702));
#1168=CARTESIAN_POINT('',(-2.30347730906846,-2.1999999999996,-0.783188740771165));
#1169=CARTESIAN_POINT('',(-1.83,-2.19999999999954,2.67827549630893));
#1170=CARTESIAN_POINT('Origin',(0.,-7.19999999999919,1.68531855138099E-12));
#1171=CARTESIAN_POINT('',(4.3,-7.19999999999919,1.68531855138099E-12));
#1172=CARTESIAN_POINT('Origin',(0.,2.10000000000024,0.));
#1173=CARTESIAN_POINT('',(0.8,0.600000000000242,-9.79717439317883E-17));
#1174=CARTESIAN_POINT('',(0.8,2.10000000000024,9.79717439317883E-17));
#1175=CARTESIAN_POINT('Origin',(0.,0.600000000000242,0.));
#1176=CARTESIAN_POINT('Origin',(2.77555756156289E-16,0.600000000000242,
2.11310198523404));
#1177=CARTESIAN_POINT('',(-1.83,0.600000000000242,1.05655099261702));
#1178=CARTESIAN_POINT('',(-1.83,0.600000000000242,1.05655099261702));
#1179=CARTESIAN_POINT('',(3.72965547335014E-16,0.600000000000242,2.11310198523404));
#1180=CARTESIAN_POINT('',(-1.83,0.600000000000242,1.05655099261702));
#1181=CARTESIAN_POINT('',(3.72965547335014E-16,0.600000000000242,2.11310198523404));
#1182=CARTESIAN_POINT('Origin',(1.83,0.600000000000242,1.05655099261702));
#1183=CARTESIAN_POINT('',(1.83,0.600000000000242,1.05655099261702));
#1184=CARTESIAN_POINT('',(3.72965547335014E-16,0.600000000000242,2.11310198523404));
#1185=CARTESIAN_POINT('',(1.83,0.600000000000242,1.05655099261702));
#1186=CARTESIAN_POINT('Origin',(1.83,0.600000000000242,-1.05655099261702));
#1187=CARTESIAN_POINT('',(1.83,0.600000000000242,-1.05655099261702));
#1188=CARTESIAN_POINT('',(1.83,0.600000000000242,1.05655099261702));
#1189=CARTESIAN_POINT('',(1.83,0.600000000000242,-1.05655099261702));
#1190=CARTESIAN_POINT('Origin',(-8.32667268468867E-16,0.600000000000242,
-2.11310198523404));
#1191=CARTESIAN_POINT('',(-1.03422936061583E-15,0.600000000000242,-2.11310198523404));
#1192=CARTESIAN_POINT('',(1.83,0.600000000000242,-1.05655099261702));
#1193=CARTESIAN_POINT('',(-1.03422936061583E-15,0.600000000000242,-2.11310198523404));
#1194=CARTESIAN_POINT('Origin',(-1.83,0.600000000000242,-1.05655099261702));
#1195=CARTESIAN_POINT('',(-1.83,0.600000000000242,-1.05655099261702));
#1196=CARTESIAN_POINT('',(-1.03422936061583E-15,0.600000000000242,-2.11310198523404));
#1197=CARTESIAN_POINT('',(-1.83,0.600000000000242,-1.05655099261702));
#1198=CARTESIAN_POINT('Origin',(-1.83,0.600000000000242,1.05655099261702));
#1199=CARTESIAN_POINT('',(-1.83,0.600000000000242,-1.05655099261702));
#1200=CARTESIAN_POINT('Origin',(-8.32667268468867E-16,0.600000000000242,
0.));
#1201=CARTESIAN_POINT('Origin',(0.,-35.0999999999996,7.89051363930011E-14));
#1202=CARTESIAN_POINT('',(-1.05,-32.7999999999996,7.3600508702122E-14));
#1203=CARTESIAN_POINT('',(-1.05,-35.0999999999996,7.90337243069116E-14));
#1204=CARTESIAN_POINT('Origin',(0.,-32.7999999999996,7.37290966160325E-14));
#1205=CARTESIAN_POINT('Origin',(-2.1,-30.7999999999996,1.21243556529829));
#1206=CARTESIAN_POINT('',(-2.1,-32.7999999999996,1.21243556529829));
#1207=CARTESIAN_POINT('',(-2.1,-30.7999999999996,1.21243556529829));
#1208=CARTESIAN_POINT('',(-2.1,-32.7999999999996,-1.21243556529814));
#1209=CARTESIAN_POINT('',(-2.1,-32.7999999999996,-0.606217782649032));
#1210=CARTESIAN_POINT('',(-2.1,-30.7999999999996,-1.21243556529814));
#1211=CARTESIAN_POINT('Origin',(1.11022302462516E-15,-30.7999999999996,
2.4248711305965));
#1212=CARTESIAN_POINT('',(1.11022302462516E-15,-32.7999999999996,2.4248711305965));
#1213=CARTESIAN_POINT('',(9.71445146547012E-16,-30.7999999999996,2.4248711305965));
#1214=CARTESIAN_POINT('',(-1.575,-32.7999999999996,1.51554445662284));
#1215=CARTESIAN_POINT('Origin',(2.1,-30.7999999999996,1.21243556529828));
#1216=CARTESIAN_POINT('',(2.1,-32.7999999999996,1.21243556529829));
#1217=CARTESIAN_POINT('',(2.1,-30.7999999999996,1.21243556529828));
#1218=CARTESIAN_POINT('',(0.525000000000001,-32.7999999999996,2.12176223927195));
#1219=CARTESIAN_POINT('Origin',(2.1,-30.7999999999996,-1.21243556529814));
#1220=CARTESIAN_POINT('',(2.1,-32.7999999999996,-1.21243556529814));
#1221=CARTESIAN_POINT('',(2.1,-30.7999999999996,-1.21243556529815));
#1222=CARTESIAN_POINT('',(2.1,-32.7999999999996,0.60621778264918));
#1223=CARTESIAN_POINT('Origin',(-2.22044604925031E-15,-30.7999999999996,
-2.42487113059636));
#1224=CARTESIAN_POINT('',(-1.94289029309402E-15,-32.7999999999996,-2.42487113059635));
#1225=CARTESIAN_POINT('',(-2.0524747409531E-15,-30.7999999999996,-2.42487113059636));
#1226=CARTESIAN_POINT('',(1.575,-32.7999999999996,-1.51554445662269));
#1227=CARTESIAN_POINT('Origin',(-2.1,-30.7999999999996,-1.21243556529814));
#1228=CARTESIAN_POINT('',(-0.525000000000002,-32.7999999999996,-2.1217622392718));
#1229=CARTESIAN_POINT('Origin',(-8.32667268468867E-16,-32.7999999999996,
7.39686090156511E-14));
#1230=CARTESIAN_POINT('Origin',(0.,-16.4999999999998,-21.1799999999998));
#1231=CARTESIAN_POINT('',(-0.800000000000001,-16.4999999999999,-18.3799999999999));
#1232=CARTESIAN_POINT('Origin',(0.,-16.4999999999999,-18.3799999999999));
#1233=CARTESIAN_POINT('',(-0.800000000000001,-16.4999999999998,-21.1799999999998));
#1234=CARTESIAN_POINT('Origin',(-2.11310198523402,-16.4999999999998,-21.1799999999998));
#1235=CARTESIAN_POINT('',(-1.05655099261703,-18.3299999999998,-18.3799999999999));
#1236=CARTESIAN_POINT('',(-2.11310198523402,-16.4999999999998,-18.3799999999999));
#1237=CARTESIAN_POINT('',(-1.84896423707978,-16.9574999999998,-18.3799999999999));
#1238=CARTESIAN_POINT('',(-1.05655099261703,-18.3299999999998,-21.1799999999998));
#1239=CARTESIAN_POINT('',(-1.05655099261703,-18.3299999999998,-21.1799999999998));
#1240=CARTESIAN_POINT('',(-2.11310198523402,-16.4999999999998,-21.1799999999998));
#1241=CARTESIAN_POINT('',(2.17805389051779,-23.9324999999998,-21.1799999999998));
#1242=CARTESIAN_POINT('',(-2.11310198523402,-16.4999999999998,-21.1799999999998));
#1243=CARTESIAN_POINT('Origin',(-1.056550992617,-14.6699999999998,-21.1799999999998));
#1244=CARTESIAN_POINT('',(-1.056550992617,-14.6699999999999,-18.3799999999999));
#1245=CARTESIAN_POINT('',(-1.32068874077125,-15.1274999999998,-18.3799999999999));
#1246=CARTESIAN_POINT('',(-1.056550992617,-14.6699999999998,-21.1799999999998));
#1247=CARTESIAN_POINT('',(-5.3477068683689,-22.1024999999997,-21.1799999999998));
#1248=CARTESIAN_POINT('',(-1.056550992617,-14.6699999999998,-21.1799999999998));
#1249=CARTESIAN_POINT('Origin',(1.05655099261703,-14.6699999999998,-21.1799999999998));
#1250=CARTESIAN_POINT('',(1.05655099261703,-14.6699999999999,-18.3799999999999));
#1251=CARTESIAN_POINT('',(0.528275496308522,-14.6699999999999,-18.3799999999999));
#1252=CARTESIAN_POINT('',(1.05655099261703,-14.6699999999998,-21.1799999999998));
#1253=CARTESIAN_POINT('',(0.52827549630861,-14.6699999999998,-21.1799999999997));
#1254=CARTESIAN_POINT('',(1.05655099261703,-14.6699999999998,-21.1799999999998));
#1255=CARTESIAN_POINT('Origin',(2.11310198523402,-16.4999999999999,-21.1799999999998));
#1256=CARTESIAN_POINT('',(2.11310198523402,-16.4999999999999,-18.3799999999999));
#1257=CARTESIAN_POINT('',(1.84896423707977,-16.0424999999999,-18.3799999999999));
#1258=CARTESIAN_POINT('',(2.11310198523402,-16.4999999999999,-21.1799999999998));
#1259=CARTESIAN_POINT('',(5.87598236467734,-23.0174999999999,-21.1799999999998));
#1260=CARTESIAN_POINT('',(2.11310198523402,-16.4999999999999,-21.1799999999998));
#1261=CARTESIAN_POINT('Origin',(1.05655099261699,-18.3299999999998,-21.1799999999998));
#1262=CARTESIAN_POINT('',(1.05655099261699,-18.3299999999999,-18.3799999999999));
#1263=CARTESIAN_POINT('',(1.32068874077126,-17.8724999999999,-18.3799999999999));
#1264=CARTESIAN_POINT('',(1.05655099261699,-18.3299999999998,-21.1799999999998));
#1265=CARTESIAN_POINT('',(-2.7063293868264,-24.8474999999997,-21.1799999999998));
#1266=CARTESIAN_POINT('',(1.05655099261699,-18.3299999999998,-21.1799999999998));
#1267=CARTESIAN_POINT('Origin',(-1.05655099261703,-18.3299999999998,-21.1799999999998));
#1268=CARTESIAN_POINT('',(-0.528275496308521,-18.3299999999998,-18.3799999999999));
#1269=CARTESIAN_POINT('',(-0.528275496308443,-18.3299999999998,-21.1799999999998));
#1270=CARTESIAN_POINT('Origin',(-9.05215217476228E-58,-16.4999999999999,
-18.3799999999999));
#1271=CARTESIAN_POINT('Origin',(4.3,-16.4999999999998,-21.1799999999998));
#1272=CARTESIAN_POINT('Origin',(4.3,-16.4999999999998,-21.1799999999998));
#1273=CARTESIAN_POINT('Origin',(0.,-35.0999999999997,-21.1799999999999));
#1274=CARTESIAN_POINT('',(4.3,-35.0999999999997,-21.1799999999999));
#1275=CARTESIAN_POINT('Origin',(4.3,-16.4999999999996,-8.43999999999957));
#1276=CARTESIAN_POINT('',(-16.88,-16.4999999999997,4.3));
#1277=UNCERTAINTY_MEASURE_WITH_UNIT(LENGTH_MEASURE(0.01),#1283,
'DISTANCE_ACCURACY_VALUE',
'Maximum model space distance between geometric entities at asserted c
onnectivities');
#1278=UNCERTAINTY_MEASURE_WITH_UNIT(LENGTH_MEASURE(0.01),#1283,
'DISTANCE_ACCURACY_VALUE',
'Maximum model space distance between geometric entities at asserted c
onnectivities');
#1279=UNCERTAINTY_MEASURE_WITH_UNIT(LENGTH_MEASURE(0.01),#1283,
'DISTANCE_ACCURACY_VALUE',
'Maximum model space distance between geometric entities at asserted c
onnectivities');
#1280=(
GEOMETRIC_REPRESENTATION_CONTEXT(3)
GLOBAL_UNCERTAINTY_ASSIGNED_CONTEXT((#1277))
GLOBAL_UNIT_ASSIGNED_CONTEXT((#1283,#1285,#1286))
REPRESENTATION_CONTEXT('','3D')
);
#1281=(
GEOMETRIC_REPRESENTATION_CONTEXT(3)
GLOBAL_UNCERTAINTY_ASSIGNED_CONTEXT((#1278))
GLOBAL_UNIT_ASSIGNED_CONTEXT((#1283,#1285,#1286))
REPRESENTATION_CONTEXT('','3D')
);
#1282=(
GEOMETRIC_REPRESENTATION_CONTEXT(3)
GLOBAL_UNCERTAINTY_ASSIGNED_CONTEXT((#1279))
GLOBAL_UNIT_ASSIGNED_CONTEXT((#1283,#1285,#1286))
REPRESENTATION_CONTEXT('','3D')
);
#1283=(
LENGTH_UNIT()
NAMED_UNIT(*)
SI_UNIT(.MILLI.,.METRE.)
);
#1284=(
LENGTH_UNIT()
NAMED_UNIT(*)
SI_UNIT($,.METRE.)
);
#1285=(
NAMED_UNIT(*)
PLANE_ANGLE_UNIT()
SI_UNIT($,.RADIAN.)
);
#1286=(
NAMED_UNIT(*)
SI_UNIT($,.STERADIAN.)
SOLID_ANGLE_UNIT()
);
#1287=SHAPE_DEFINITION_REPRESENTATION(#1289,#1292);
#1288=SHAPE_DEFINITION_REPRESENTATION(#1290,#1293);
#1289=PRODUCT_DEFINITION_SHAPE('',$,#1295);
#1290=PRODUCT_DEFINITION_SHAPE('',$,#1296);
#1291=PRODUCT_DEFINITION_SHAPE($,$,#14);
#1292=SHAPE_REPRESENTATION('',(#785,#847),#1280);
#1293=SHAPE_REPRESENTATION('',(#786),#1281);
#1294=PRODUCT_DEFINITION_CONTEXT('part definition',#1302,'design');
#1295=PRODUCT_DEFINITION('2026-09-19-09-38-38-937','PRINT_LAYOUT',#1297,
#1294);
#1296=PRODUCT_DEFINITION('2026-09-19-09-38-38-880','Neck',#1298,#1294);
#1297=PRODUCT_DEFINITION_FORMATION('',$,#1304);
#1298=PRODUCT_DEFINITION_FORMATION('',$,#1305);
#1299=PRODUCT_RELATED_PRODUCT_CATEGORY('PRINT_LAYOUT','PRINT_LAYOUT',(#1304));
#1300=PRODUCT_RELATED_PRODUCT_CATEGORY('Neck','Neck',(#1305));
#1301=APPLICATION_PROTOCOL_DEFINITION('international standard',
'automotive_design',2009,#1302);
#1302=APPLICATION_CONTEXT(
'Core Data for Automotive Mechanical Design Process');
#1303=PRODUCT_CONTEXT('part definition',#1302,'mechanical');
#1304=PRODUCT('2026-09-19-09-38-38-937','PRINT_LAYOUT',$,(#1303));
#1305=PRODUCT('2026-09-19-09-38-38-880','Neck',$,(#1303));
#1306=PRESENTATION_STYLE_ASSIGNMENT((#1309));
#1307=PRESENTATION_STYLE_ASSIGNMENT((#1310));
#1308=PRESENTATION_STYLE_ASSIGNMENT((#1311));
#1309=SURFACE_STYLE_USAGE(.BOTH.,#1312);
#1310=SURFACE_STYLE_USAGE(.BOTH.,#1313);
#1311=SURFACE_STYLE_USAGE(.BOTH.,#1314);
#1312=SURFACE_SIDE_STYLE('',(#1315));
#1313=SURFACE_SIDE_STYLE('',(#1316));
#1314=SURFACE_SIDE_STYLE('',(#1317));
#1315=SURFACE_STYLE_FILL_AREA(#1318);
#1316=SURFACE_STYLE_FILL_AREA(#1319);
#1317=SURFACE_STYLE_FILL_AREA(#1320);
#1318=FILL_AREA_STYLE('Plastic - Matte (Black)',(#1321));
#1319=FILL_AREA_STYLE('Steel - Satin',(#1322));
#1320=FILL_AREA_STYLE('Brass - Old',(#1323));
#1321=FILL_AREA_STYLE_COLOUR('Plastic - Matte (Black)',#1324);
#1322=FILL_AREA_STYLE_COLOUR('Steel - Satin',#1325);
#1323=FILL_AREA_STYLE_COLOUR('Brass - Old',#1326);
#1324=COLOUR_RGB('Plastic - Matte (Black)',0.0980392156862745,0.0980392156862745,
0.0980392156862745);
#1325=COLOUR_RGB('Steel - Satin',0.627450980392157,0.627450980392157,0.627450980392157);
#1326=COLOUR_RGB('Brass - Old',0.,0.,0.);
ENDSEC;
END-ISO-10303-21;
