ISO-10303-21;
HEADER;
/* Generated by software containing ST-Developer
 * from STEP Tools, Inc. (www.steptools.com) 
 */

FILE_DESCRIPTION(
/* description */ (''),
/* implementation_level */ '2;1');

FILE_NAME(
/* name */ 'UpperArm.step',
/* time_stamp */ '2026-10-05T11:37:12+02:00',
/* author */ (''),
/* organization */ (''),
/* preprocessor_version */ 'ST-DEVELOPER v20.2',
/* originating_system */ 'Autodesk Translation Framework v15.15.0.0',
/* authorisation */ '');

FILE_SCHEMA (('AUTOMOTIVE_DESIGN { 1 0 10303 214 3 1 1 }'));
ENDSEC;

DATA;
#10=MECHANICAL_DESIGN_GEOMETRIC_PRESENTATION_REPRESENTATION('',(#17),#704);
#11=ITEM_DEFINED_TRANSFORMATION($,$,#404,#437);
#12=(
REPRESENTATION_RELATIONSHIP($,$,#715,#714)
REPRESENTATION_RELATIONSHIP_WITH_TRANSFORMATION(#11)
SHAPE_REPRESENTATION_RELATIONSHIP()
);
#13=CONTEXT_DEPENDENT_SHAPE_REPRESENTATION(#12,#713);
#14=NEXT_ASSEMBLY_USAGE_OCCURRENCE('UpperArm:1','UpperArm:1',
'UpperArm:1',#717,#718,'UpperArm:1');
#15=SHAPE_REPRESENTATION_RELATIONSHIP('SRR','None',#715,#16);
#16=ADVANCED_BREP_SHAPE_REPRESENTATION('',(#18),#703);
#17=STYLED_ITEM('',(#728),#18);
#18=MANIFOLD_SOLID_BREP('Body1',#390);
#19=(
BOUNDED_SURFACE()
B_SPLINE_SURFACE(2,2,((#655,#656,#657),(#658,#659,#660),(#661,#662,#663),
(#664,#665,#666),(#667,#668,#669),(#670,#671,#672),(#673,#674,#675),(#676,
#677,#678),(#679,#680,#681)),.UNSPECIFIED.,.T.,.F.,.F.)
B_SPLINE_SURFACE_WITH_KNOTS((3,2,2,2,3),(3,3),(-3.14159265358979,-1.5707963267949,
0.,1.5707963267949,3.14159265358979),(1.5707963267949,1.74532925199433),
 .UNSPECIFIED.)
GEOMETRIC_REPRESENTATION_ITEM()
RATIONAL_B_SPLINE_SURFACE(((1.,0.996194698091746,1.),(0.707106781186547,
0.704416026402758,0.707106781186547),(1.,0.996194698091746,1.),(0.707106781186547,
0.704416026402758,0.707106781186547),(1.,0.996194698091746,1.),(0.707106781186547,
0.704416026402758,0.707106781186547),(1.,0.996194698091746,1.),(0.707106781186547,
0.704416026402758,0.707106781186547),(1.,0.996194698091746,1.)))
REPRESENTATION_ITEM('')
SURFACE()
);
#20=ELLIPSE('',#412,0.812341289508596,0.8);
#21=FACE_BOUND('',#65,.T.);
#22=FACE_BOUND('',#67,.T.);
#23=FACE_BOUND('',#81,.T.);
#24=FACE_BOUND('',#84,.T.);
#25=PLANE('',#407);
#26=PLANE('',#410);
#27=PLANE('',#418);
#28=PLANE('',#419);
#29=PLANE('',#420);
#30=PLANE('',#421);
#31=PLANE('',#422);
#32=PLANE('',#423);
#33=PLANE('',#424);
#34=PLANE('',#425);
#35=PLANE('',#426);
#36=PLANE('',#427);
#37=PLANE('',#432);
#38=PLANE('',#433);
#39=PLANE('',#434);
#40=PLANE('',#436);
#41=FACE_OUTER_BOUND('',#63,.T.);
#42=FACE_OUTER_BOUND('',#64,.T.);
#43=FACE_OUTER_BOUND('',#66,.T.);
#44=FACE_OUTER_BOUND('',#68,.T.);
#45=FACE_OUTER_BOUND('',#69,.T.);
#46=FACE_OUTER_BOUND('',#70,.T.);
#47=FACE_OUTER_BOUND('',#71,.T.);
#48=FACE_OUTER_BOUND('',#72,.T.);
#49=FACE_OUTER_BOUND('',#73,.T.);
#50=FACE_OUTER_BOUND('',#74,.T.);
#51=FACE_OUTER_BOUND('',#75,.T.);
#52=FACE_OUTER_BOUND('',#76,.T.);
#53=FACE_OUTER_BOUND('',#77,.T.);
#54=FACE_OUTER_BOUND('',#78,.T.);
#55=FACE_OUTER_BOUND('',#79,.T.);
#56=FACE_OUTER_BOUND('',#80,.T.);
#57=FACE_OUTER_BOUND('',#82,.T.);
#58=FACE_OUTER_BOUND('',#83,.T.);
#59=FACE_OUTER_BOUND('',#85,.T.);
#60=FACE_OUTER_BOUND('',#86,.T.);
#61=FACE_OUTER_BOUND('',#87,.T.);
#62=FACE_OUTER_BOUND('',#88,.T.);
#63=EDGE_LOOP('',(#261,#262,#263,#264));
#64=EDGE_LOOP('',(#265,#266,#267,#268,#269,#270));
#65=EDGE_LOOP('',(#271));
#66=EDGE_LOOP('',(#272,#273,#274,#275));
#67=EDGE_LOOP('',(#276));
#68=EDGE_LOOP('',(#277,#278,#279,#280));
#69=EDGE_LOOP('',(#281,#282,#283,#284));
#70=EDGE_LOOP('',(#285,#286,#287,#288));
#71=EDGE_LOOP('',(#289));
#72=EDGE_LOOP('',(#290,#291,#292,#293));
#73=EDGE_LOOP('',(#294,#295,#296,#297));
#74=EDGE_LOOP('',(#298,#299,#300,#301));
#75=EDGE_LOOP('',(#302,#303,#304,#305));
#76=EDGE_LOOP('',(#306,#307,#308,#309));
#77=EDGE_LOOP('',(#310,#311,#312,#313));
#78=EDGE_LOOP('',(#314,#315,#316,#317));
#79=EDGE_LOOP('',(#318,#319,#320,#321));
#80=EDGE_LOOP('',(#322,#323,#324,#325,#326,#327,#328,#329));
#81=EDGE_LOOP('',(#330));
#82=EDGE_LOOP('',(#331,#332,#333,#334));
#83=EDGE_LOOP('',(#335));
#84=EDGE_LOOP('',(#336,#337,#338,#339,#340,#341,#342,#343));
#85=EDGE_LOOP('',(#344,#345,#346,#347));
#86=EDGE_LOOP('',(#348,#349,#350,#351));
#87=EDGE_LOOP('',(#352,#353,#354,#355,#356,#357,#358));
#88=EDGE_LOOP('',(#359,#360,#361,#362));
#89=B_SPLINE_CURVE_WITH_KNOTS('',3,(#555,#556,#557,#558,#559,#560,#561,
#562,#563,#564),.UNSPECIFIED.,.F.,.F.,(4,2,2,2,4),(0.152812572557806,0.19389188834347,
0.234971204129133,0.272873289181603,0.310775374234072),.UNSPECIFIED.);
#90=B_SPLINE_CURVE_WITH_KNOTS('',3,(#586,#587,#588,#589,#590,#591,#592,
#593,#594,#595),.UNSPECIFIED.,.F.,.F.,(4,2,2,2,4),(0.310775374234073,0.348677459286543,
0.386579544339012,0.427658860124676,0.468738175910339),.UNSPECIFIED.);
#91=LINE('',#553,#129);
#92=LINE('',#565,#130);
#93=LINE('',#568,#131);
#94=LINE('',#572,#132);
#95=LINE('',#574,#133);
#96=LINE('',#575,#134);
#97=LINE('',#581,#135);
#98=LINE('',#596,#136);
#99=LINE('',#600,#137);
#100=LINE('',#603,#138);
#101=LINE('',#609,#139);
#102=LINE('',#611,#140);
#103=LINE('',#613,#141);
#104=LINE('',#614,#142);
#105=LINE('',#617,#143);
#106=LINE('',#619,#144);
#107=LINE('',#620,#145);
#108=LINE('',#623,#146);
#109=LINE('',#625,#147);
#110=LINE('',#626,#148);
#111=LINE('',#629,#149);
#112=LINE('',#631,#150);
#113=LINE('',#632,#151);
#114=LINE('',#635,#152);
#115=LINE('',#637,#153);
#116=LINE('',#638,#154);
#117=LINE('',#641,#155);
#118=LINE('',#643,#156);
#119=LINE('',#644,#157);
#120=LINE('',#647,#158);
#121=LINE('',#649,#159);
#122=LINE('',#650,#160);
#123=LINE('',#652,#161);
#124=LINE('',#653,#162);
#125=LINE('',#691,#163);
#126=LINE('',#692,#164);
#127=LINE('',#694,#165);
#128=LINE('',#695,#166);
#129=VECTOR('',#446,10.);
#130=VECTOR('',#447,10.);
#131=VECTOR('',#450,10.);
#132=VECTOR('',#453,10.);
#133=VECTOR('',#454,10.);
#134=VECTOR('',#455,10.);
#135=VECTOR('',#462,10.);
#136=VECTOR('',#467,10.);
#137=VECTOR('',#472,0.8);
#138=VECTOR('',#475,1.05);
#139=VECTOR('',#482,10.);
#140=VECTOR('',#483,10.);
#141=VECTOR('',#484,10.);
#142=VECTOR('',#485,10.);
#143=VECTOR('',#488,10.);
#144=VECTOR('',#489,10.);
#145=VECTOR('',#490,10.);
#146=VECTOR('',#493,10.);
#147=VECTOR('',#494,10.);
#148=VECTOR('',#495,10.);
#149=VECTOR('',#498,10.);
#150=VECTOR('',#499,10.);
#151=VECTOR('',#500,10.);
#152=VECTOR('',#503,10.);
#153=VECTOR('',#504,10.);
#154=VECTOR('',#505,10.);
#155=VECTOR('',#508,10.);
#156=VECTOR('',#509,10.);
#157=VECTOR('',#510,10.);
#158=VECTOR('',#513,10.);
#159=VECTOR('',#514,10.);
#160=VECTOR('',#515,10.);
#161=VECTOR('',#518,10.);
#162=VECTOR('',#519,10.);
#163=VECTOR('',#534,10.);
#164=VECTOR('',#535,10.);
#165=VECTOR('',#538,10.);
#166=VECTOR('',#539,10.);
#167=CIRCLE('',#406,1.);
#168=CIRCLE('',#408,1.);
#169=CIRCLE('',#409,1.05);
#170=CIRCLE('',#411,4.83);
#171=CIRCLE('',#415,0.8);
#172=CIRCLE('',#417,1.05);
#173=CIRCLE('',#428,4.83);
#174=CIRCLE('',#429,4.83);
#175=CIRCLE('',#430,4.83);
#176=CIRCLE('',#431,4.83);
#177=VERTEX_POINT('',#549);
#178=VERTEX_POINT('',#550);
#179=VERTEX_POINT('',#552);
#180=VERTEX_POINT('',#554);
#181=VERTEX_POINT('',#567);
#182=VERTEX_POINT('',#569);
#183=VERTEX_POINT('',#571);
#184=VERTEX_POINT('',#573);
#185=VERTEX_POINT('',#576);
#186=VERTEX_POINT('',#579);
#187=VERTEX_POINT('',#582);
#188=VERTEX_POINT('',#585);
#189=VERTEX_POINT('',#598);
#190=VERTEX_POINT('',#602);
#191=VERTEX_POINT('',#607);
#192=VERTEX_POINT('',#608);
#193=VERTEX_POINT('',#610);
#194=VERTEX_POINT('',#612);
#195=VERTEX_POINT('',#616);
#196=VERTEX_POINT('',#618);
#197=VERTEX_POINT('',#622);
#198=VERTEX_POINT('',#624);
#199=VERTEX_POINT('',#628);
#200=VERTEX_POINT('',#630);
#201=VERTEX_POINT('',#634);
#202=VERTEX_POINT('',#636);
#203=VERTEX_POINT('',#640);
#204=VERTEX_POINT('',#642);
#205=VERTEX_POINT('',#646);
#206=VERTEX_POINT('',#648);
#207=VERTEX_POINT('',#682);
#208=VERTEX_POINT('',#683);
#209=VERTEX_POINT('',#686);
#210=EDGE_CURVE('',#177,#178,#167,.T.);
#211=EDGE_CURVE('',#178,#179,#91,.T.);
#212=EDGE_CURVE('',#179,#180,#89,.F.);
#213=EDGE_CURVE('',#180,#177,#92,.T.);
#214=EDGE_CURVE('',#181,#177,#93,.T.);
#215=EDGE_CURVE('',#182,#181,#168,.T.);
#216=EDGE_CURVE('',#183,#182,#94,.T.);
#217=EDGE_CURVE('',#184,#183,#95,.T.);
#218=EDGE_CURVE('',#184,#178,#96,.T.);
#219=EDGE_CURVE('',#185,#185,#169,.T.);
#220=EDGE_CURVE('',#180,#186,#170,.T.);
#221=EDGE_CURVE('',#181,#186,#97,.T.);
#222=EDGE_CURVE('',#187,#187,#20,.T.);
#223=EDGE_CURVE('',#186,#188,#90,.F.);
#224=EDGE_CURVE('',#188,#182,#98,.T.);
#225=EDGE_CURVE('',#189,#189,#171,.T.);
#226=EDGE_CURVE('',#189,#187,#99,.T.);
#227=EDGE_CURVE('',#185,#190,#100,.T.);
#228=EDGE_CURVE('',#190,#190,#172,.T.);
#229=EDGE_CURVE('',#191,#192,#101,.T.);
#230=EDGE_CURVE('',#191,#193,#102,.T.);
#231=EDGE_CURVE('',#193,#194,#103,.T.);
#232=EDGE_CURVE('',#192,#194,#104,.T.);
#233=EDGE_CURVE('',#195,#191,#105,.T.);
#234=EDGE_CURVE('',#195,#196,#106,.T.);
#235=EDGE_CURVE('',#196,#193,#107,.T.);
#236=EDGE_CURVE('',#197,#195,#108,.T.);
#237=EDGE_CURVE('',#197,#198,#109,.T.);
#238=EDGE_CURVE('',#198,#196,#110,.T.);
#239=EDGE_CURVE('',#199,#197,#111,.T.);
#240=EDGE_CURVE('',#199,#200,#112,.T.);
#241=EDGE_CURVE('',#200,#198,#113,.T.);
#242=EDGE_CURVE('',#201,#199,#114,.T.);
#243=EDGE_CURVE('',#201,#202,#115,.T.);
#244=EDGE_CURVE('',#202,#200,#116,.T.);
#245=EDGE_CURVE('',#203,#201,#117,.T.);
#246=EDGE_CURVE('',#203,#204,#118,.T.);
#247=EDGE_CURVE('',#204,#202,#119,.T.);
#248=EDGE_CURVE('',#205,#203,#120,.T.);
#249=EDGE_CURVE('',#205,#206,#121,.T.);
#250=EDGE_CURVE('',#206,#204,#122,.T.);
#251=EDGE_CURVE('',#192,#205,#123,.T.);
#252=EDGE_CURVE('',#194,#206,#124,.T.);
#253=EDGE_CURVE('',#207,#208,#173,.T.);
#254=EDGE_CURVE('',#207,#207,#174,.T.);
#255=EDGE_CURVE('',#209,#207,#175,.T.);
#256=EDGE_CURVE('',#208,#209,#176,.T.);
#257=EDGE_CURVE('',#209,#184,#125,.T.);
#258=EDGE_CURVE('',#209,#179,#126,.T.);
#259=EDGE_CURVE('',#208,#188,#127,.T.);
#260=EDGE_CURVE('',#183,#208,#128,.T.);
#261=ORIENTED_EDGE('',*,*,#210,.T.);
#262=ORIENTED_EDGE('',*,*,#211,.T.);
#263=ORIENTED_EDGE('',*,*,#212,.T.);
#264=ORIENTED_EDGE('',*,*,#213,.T.);
#265=ORIENTED_EDGE('',*,*,#210,.F.);
#266=ORIENTED_EDGE('',*,*,#214,.F.);
#267=ORIENTED_EDGE('',*,*,#215,.F.);
#268=ORIENTED_EDGE('',*,*,#216,.F.);
#269=ORIENTED_EDGE('',*,*,#217,.F.);
#270=ORIENTED_EDGE('',*,*,#218,.T.);
#271=ORIENTED_EDGE('',*,*,#219,.T.);
#272=ORIENTED_EDGE('',*,*,#213,.F.);
#273=ORIENTED_EDGE('',*,*,#220,.T.);
#274=ORIENTED_EDGE('',*,*,#221,.F.);
#275=ORIENTED_EDGE('',*,*,#214,.T.);
#276=ORIENTED_EDGE('',*,*,#222,.T.);
#277=ORIENTED_EDGE('',*,*,#215,.T.);
#278=ORIENTED_EDGE('',*,*,#221,.T.);
#279=ORIENTED_EDGE('',*,*,#223,.T.);
#280=ORIENTED_EDGE('',*,*,#224,.T.);
#281=ORIENTED_EDGE('',*,*,#225,.F.);
#282=ORIENTED_EDGE('',*,*,#226,.T.);
#283=ORIENTED_EDGE('',*,*,#222,.F.);
#284=ORIENTED_EDGE('',*,*,#226,.F.);
#285=ORIENTED_EDGE('',*,*,#219,.F.);
#286=ORIENTED_EDGE('',*,*,#227,.T.);
#287=ORIENTED_EDGE('',*,*,#228,.T.);
#288=ORIENTED_EDGE('',*,*,#227,.F.);
#289=ORIENTED_EDGE('',*,*,#228,.F.);
#290=ORIENTED_EDGE('',*,*,#229,.F.);
#291=ORIENTED_EDGE('',*,*,#230,.T.);
#292=ORIENTED_EDGE('',*,*,#231,.T.);
#293=ORIENTED_EDGE('',*,*,#232,.F.);
#294=ORIENTED_EDGE('',*,*,#233,.F.);
#295=ORIENTED_EDGE('',*,*,#234,.T.);
#296=ORIENTED_EDGE('',*,*,#235,.T.);
#297=ORIENTED_EDGE('',*,*,#230,.F.);
#298=ORIENTED_EDGE('',*,*,#236,.F.);
#299=ORIENTED_EDGE('',*,*,#237,.T.);
#300=ORIENTED_EDGE('',*,*,#238,.T.);
#301=ORIENTED_EDGE('',*,*,#234,.F.);
#302=ORIENTED_EDGE('',*,*,#239,.F.);
#303=ORIENTED_EDGE('',*,*,#240,.T.);
#304=ORIENTED_EDGE('',*,*,#241,.T.);
#305=ORIENTED_EDGE('',*,*,#237,.F.);
#306=ORIENTED_EDGE('',*,*,#242,.F.);
#307=ORIENTED_EDGE('',*,*,#243,.T.);
#308=ORIENTED_EDGE('',*,*,#244,.T.);
#309=ORIENTED_EDGE('',*,*,#240,.F.);
#310=ORIENTED_EDGE('',*,*,#245,.F.);
#311=ORIENTED_EDGE('',*,*,#246,.T.);
#312=ORIENTED_EDGE('',*,*,#247,.T.);
#313=ORIENTED_EDGE('',*,*,#243,.F.);
#314=ORIENTED_EDGE('',*,*,#248,.F.);
#315=ORIENTED_EDGE('',*,*,#249,.T.);
#316=ORIENTED_EDGE('',*,*,#250,.T.);
#317=ORIENTED_EDGE('',*,*,#246,.F.);
#318=ORIENTED_EDGE('',*,*,#251,.F.);
#319=ORIENTED_EDGE('',*,*,#232,.T.);
#320=ORIENTED_EDGE('',*,*,#252,.T.);
#321=ORIENTED_EDGE('',*,*,#249,.F.);
#322=ORIENTED_EDGE('',*,*,#252,.F.);
#323=ORIENTED_EDGE('',*,*,#231,.F.);
#324=ORIENTED_EDGE('',*,*,#235,.F.);
#325=ORIENTED_EDGE('',*,*,#238,.F.);
#326=ORIENTED_EDGE('',*,*,#241,.F.);
#327=ORIENTED_EDGE('',*,*,#244,.F.);
#328=ORIENTED_EDGE('',*,*,#247,.F.);
#329=ORIENTED_EDGE('',*,*,#250,.F.);
#330=ORIENTED_EDGE('',*,*,#225,.T.);
#331=ORIENTED_EDGE('',*,*,#253,.F.);
#332=ORIENTED_EDGE('',*,*,#254,.F.);
#333=ORIENTED_EDGE('',*,*,#255,.F.);
#334=ORIENTED_EDGE('',*,*,#256,.F.);
#335=ORIENTED_EDGE('',*,*,#254,.T.);
#336=ORIENTED_EDGE('',*,*,#229,.T.);
#337=ORIENTED_EDGE('',*,*,#251,.T.);
#338=ORIENTED_EDGE('',*,*,#248,.T.);
#339=ORIENTED_EDGE('',*,*,#245,.T.);
#340=ORIENTED_EDGE('',*,*,#242,.T.);
#341=ORIENTED_EDGE('',*,*,#239,.T.);
#342=ORIENTED_EDGE('',*,*,#236,.T.);
#343=ORIENTED_EDGE('',*,*,#233,.T.);
#344=ORIENTED_EDGE('',*,*,#211,.F.);
#345=ORIENTED_EDGE('',*,*,#218,.F.);
#346=ORIENTED_EDGE('',*,*,#257,.F.);
#347=ORIENTED_EDGE('',*,*,#258,.T.);
#348=ORIENTED_EDGE('',*,*,#224,.F.);
#349=ORIENTED_EDGE('',*,*,#259,.F.);
#350=ORIENTED_EDGE('',*,*,#260,.F.);
#351=ORIENTED_EDGE('',*,*,#216,.T.);
#352=ORIENTED_EDGE('',*,*,#255,.T.);
#353=ORIENTED_EDGE('',*,*,#253,.T.);
#354=ORIENTED_EDGE('',*,*,#259,.T.);
#355=ORIENTED_EDGE('',*,*,#223,.F.);
#356=ORIENTED_EDGE('',*,*,#220,.F.);
#357=ORIENTED_EDGE('',*,*,#212,.F.);
#358=ORIENTED_EDGE('',*,*,#258,.F.);
#359=ORIENTED_EDGE('',*,*,#256,.T.);
#360=ORIENTED_EDGE('',*,*,#257,.T.);
#361=ORIENTED_EDGE('',*,*,#217,.T.);
#362=ORIENTED_EDGE('',*,*,#260,.T.);
#363=CYLINDRICAL_SURFACE('',#405,1.);
#364=CYLINDRICAL_SURFACE('',#413,1.);
#365=CYLINDRICAL_SURFACE('',#414,0.8);
#366=CYLINDRICAL_SURFACE('',#416,1.05);
#367=CYLINDRICAL_SURFACE('',#435,4.83);
#368=ADVANCED_FACE('',(#41),#363,.T.);
#369=ADVANCED_FACE('',(#42,#21),#25,.T.);
#370=ADVANCED_FACE('',(#43,#22),#26,.T.);
#371=ADVANCED_FACE('',(#44),#364,.T.);
#372=ADVANCED_FACE('',(#45),#365,.F.);
#373=ADVANCED_FACE('',(#46),#366,.F.);
#374=ADVANCED_FACE('',(#47),#27,.T.);
#375=ADVANCED_FACE('',(#48),#28,.F.);
#376=ADVANCED_FACE('',(#49),#29,.F.);
#377=ADVANCED_FACE('',(#50),#30,.F.);
#378=ADVANCED_FACE('',(#51),#31,.F.);
#379=ADVANCED_FACE('',(#52),#32,.F.);
#380=ADVANCED_FACE('',(#53),#33,.F.);
#381=ADVANCED_FACE('',(#54),#34,.F.);
#382=ADVANCED_FACE('',(#55),#35,.F.);
#383=ADVANCED_FACE('',(#56,#23),#36,.F.);
#384=ADVANCED_FACE('',(#57),#19,.F.);
#385=ADVANCED_FACE('',(#58,#24),#37,.F.);
#386=ADVANCED_FACE('',(#59),#38,.T.);
#387=ADVANCED_FACE('',(#60),#39,.T.);
#388=ADVANCED_FACE('',(#61),#367,.T.);
#389=ADVANCED_FACE('',(#62),#40,.F.);
#390=CLOSED_SHELL('',(#368,#369,#370,#371,#372,#373,#374,#375,#376,#377,
#378,#379,#380,#381,#382,#383,#384,#385,#386,#387,#388,#389));
#391=DERIVED_UNIT_ELEMENT(#393,1.);
#392=DERIVED_UNIT_ELEMENT(#706,-3.);
#393=(
MASS_UNIT()
NAMED_UNIT(*)
SI_UNIT(.KILO.,.GRAM.)
);
#394=DERIVED_UNIT((#391,#392));
#395=MEASURE_REPRESENTATION_ITEM('density measure',
POSITIVE_RATIO_MEASURE(7850.),#394);
#396=PROPERTY_DEFINITION_REPRESENTATION(#401,#398);
#397=PROPERTY_DEFINITION_REPRESENTATION(#402,#399);
#398=REPRESENTATION('material name',(#400),#703);
#399=REPRESENTATION('density',(#395),#703);
#400=DESCRIPTIVE_REPRESENTATION_ITEM('Steel','Steel');
#401=PROPERTY_DEFINITION('material property','material name',#718);
#402=PROPERTY_DEFINITION('material property','density of part',#718);
#403=AXIS2_PLACEMENT_3D('',#546,#438,#439);
#404=AXIS2_PLACEMENT_3D('',#547,#440,#441);
#405=AXIS2_PLACEMENT_3D('',#548,#442,#443);
#406=AXIS2_PLACEMENT_3D('',#551,#444,#445);
#407=AXIS2_PLACEMENT_3D('',#566,#448,#449);
#408=AXIS2_PLACEMENT_3D('',#570,#451,#452);
#409=AXIS2_PLACEMENT_3D('',#577,#456,#457);
#410=AXIS2_PLACEMENT_3D('',#578,#458,#459);
#411=AXIS2_PLACEMENT_3D('',#580,#460,#461);
#412=AXIS2_PLACEMENT_3D('',#583,#463,#464);
#413=AXIS2_PLACEMENT_3D('',#584,#465,#466);
#414=AXIS2_PLACEMENT_3D('',#597,#468,#469);
#415=AXIS2_PLACEMENT_3D('',#599,#470,#471);
#416=AXIS2_PLACEMENT_3D('',#601,#473,#474);
#417=AXIS2_PLACEMENT_3D('',#604,#476,#477);
#418=AXIS2_PLACEMENT_3D('',#605,#478,#479);
#419=AXIS2_PLACEMENT_3D('',#606,#480,#481);
#420=AXIS2_PLACEMENT_3D('',#615,#486,#487);
#421=AXIS2_PLACEMENT_3D('',#621,#491,#492);
#422=AXIS2_PLACEMENT_3D('',#627,#496,#497);
#423=AXIS2_PLACEMENT_3D('',#633,#501,#502);
#424=AXIS2_PLACEMENT_3D('',#639,#506,#507);
#425=AXIS2_PLACEMENT_3D('',#645,#511,#512);
#426=AXIS2_PLACEMENT_3D('',#651,#516,#517);
#427=AXIS2_PLACEMENT_3D('',#654,#520,#521);
#428=AXIS2_PLACEMENT_3D('',#684,#522,#523);
#429=AXIS2_PLACEMENT_3D('',#685,#524,#525);
#430=AXIS2_PLACEMENT_3D('',#687,#526,#527);
#431=AXIS2_PLACEMENT_3D('',#688,#528,#529);
#432=AXIS2_PLACEMENT_3D('',#689,#530,#531);
#433=AXIS2_PLACEMENT_3D('',#690,#532,#533);
#434=AXIS2_PLACEMENT_3D('',#693,#536,#537);
#435=AXIS2_PLACEMENT_3D('',#696,#540,#541);
#436=AXIS2_PLACEMENT_3D('',#697,#542,#543);
#437=AXIS2_PLACEMENT_3D('',#698,#544,#545);
#438=DIRECTION('axis',(0.,0.,1.));
#439=DIRECTION('refdir',(1.,0.,0.));
#440=DIRECTION('axis',(0.,0.,1.));
#441=DIRECTION('refdir',(1.,0.,0.));
#442=DIRECTION('center_axis',(-1.,-1.53056759139468E-16,0.));
#443=DIRECTION('ref_axis',(0.,0.707106781186548,0.707106781186547));
#444=DIRECTION('center_axis',(-1.,0.,0.));
#445=DIRECTION('ref_axis',(0.,0.707106781186548,0.707106781186547));
#446=DIRECTION('',(-1.,-1.53056759139468E-16,0.));
#447=DIRECTION('',(1.,1.53056759139468E-16,0.));
#448=DIRECTION('center_axis',(1.,0.,0.));
#449=DIRECTION('ref_axis',(0.,1.,0.));
#450=DIRECTION('',(0.,1.,0.));
#451=DIRECTION('center_axis',(-1.,0.,0.));
#452=DIRECTION('ref_axis',(0.,-0.707106781186548,0.707106781186547));
#453=DIRECTION('',(0.,0.,1.));
#454=DIRECTION('',(0.,-1.,0.));
#455=DIRECTION('',(0.,0.,1.));
#456=DIRECTION('center_axis',(-1.,0.,0.));
#457=DIRECTION('ref_axis',(0.,1.,0.));
#458=DIRECTION('center_axis',(0.,0.,1.));
#459=DIRECTION('ref_axis',(1.,0.,0.));
#460=DIRECTION('center_axis',(0.,0.,1.));
#461=DIRECTION('ref_axis',(1.,0.,0.));
#462=DIRECTION('',(-1.,-7.65283795697339E-17,0.));
#463=DIRECTION('center_axis',(0.,0.,-1.));
#464=DIRECTION('ref_axis',(1.,-1.81745298284177E-12,0.));
#465=DIRECTION('center_axis',(1.,7.65283795697339E-17,0.));
#466=DIRECTION('ref_axis',(0.,-0.707106781186548,0.707106781186547));
#467=DIRECTION('',(1.,7.65283795697339E-17,0.));
#468=DIRECTION('center_axis',(0.173648177666931,-3.15601878940233E-13,0.984807753012208));
#469=DIRECTION('ref_axis',(-1.81745298284177E-12,-1.,-4.54959297211122E-18));
#470=DIRECTION('center_axis',(0.173648177666931,-3.15580894749701E-13,0.984807753012208));
#471=DIRECTION('ref_axis',(-1.81745298284177E-12,-1.,-4.54959297211122E-18));
#472=DIRECTION('',(0.173648177666931,-3.15601878940233E-13,0.984807753012208));
#473=DIRECTION('center_axis',(-1.,0.,0.));
#474=DIRECTION('ref_axis',(0.,1.,0.));
#475=DIRECTION('',(-1.,0.,0.));
#476=DIRECTION('center_axis',(-1.,0.,0.));
#477=DIRECTION('ref_axis',(0.,1.,0.));
#478=DIRECTION('center_axis',(1.,0.,0.));
#479=DIRECTION('ref_axis',(0.,1.,0.));
#480=DIRECTION('center_axis',(0.696364240321303,0.707106781185283,-0.122787803968973));
#481=DIRECTION('ref_axis',(-0.696364240318735,0.707106781187812,0.122787803968973));
#482=DIRECTION('',(-0.696364240318718,0.707106781187812,0.122787803969074));
#483=DIRECTION('',(0.173648177666931,-3.15580894749701E-13,0.984807753012208));
#484=DIRECTION('',(-0.696364240318735,0.707106781187812,0.122787803968973));
#485=DIRECTION('',(0.173648177666931,-3.15580894749701E-13,0.984807753012208));
#486=DIRECTION('center_axis',(0.984807753012208,-6.42217312651825E-12,-0.173648177666931));
#487=DIRECTION('ref_axis',(6.37940877511207E-12,1.,-8.04396032428841E-13));
#488=DIRECTION('',(6.40449019055679E-12,1.,-6.62152257006895E-13));
#489=DIRECTION('',(0.173648177666931,-3.15580894749701E-13,0.984807753012208));
#490=DIRECTION('',(6.37940877511207E-12,1.,-8.04396032428841E-13));
#491=DIRECTION('center_axis',(0.696364240316035,-0.707106781190553,-0.122787803968497));
#492=DIRECTION('ref_axis',(0.696364240324003,0.707106781182542,-0.122787803969449));
#493=DIRECTION('',(0.69636424032402,0.707106781182542,-0.122787803969348));
#494=DIRECTION('',(0.173648177666931,-3.15580894749701E-13,0.984807753012208));
#495=DIRECTION('',(0.696364240324003,0.707106781182542,-0.122787803969449));
#496=DIRECTION('center_axis',(-5.63404475406275E-12,-1.,6.72984861928694E-13));
#497=DIRECTION('ref_axis',(0.984807753012208,-5.66531354949011E-12,-0.173648177666931));
#498=DIRECTION('',(0.984807753012208,-5.66531354949011E-12,-0.17364817766693));
#499=DIRECTION('',(0.173648177666931,-3.15580894749701E-13,0.984807753012208));
#500=DIRECTION('',(0.984807753012208,-5.66531354949011E-12,-0.173648177666931));
#501=DIRECTION('center_axis',(-0.696364240324002,-0.707106781182542,0.122787803969449));
#502=DIRECTION('ref_axis',(0.696364240316035,-0.707106781190553,-0.122787803968497));
#503=DIRECTION('',(0.696364240316018,-0.707106781190553,-0.122787803968598));
#504=DIRECTION('',(0.173648177666931,-3.15580894749701E-13,0.984807753012208));
#505=DIRECTION('',(0.696364240316035,-0.707106781190553,-0.122787803968497));
#506=DIRECTION('center_axis',(-0.984807753012208,5.66494738617272E-12,0.173648177666931));
#507=DIRECTION('ref_axis',(-5.63368699523937E-12,-1.,6.72905162535346E-13));
#508=DIRECTION('',(-5.6587684106841E-12,-1.,5.306613871134E-13));
#509=DIRECTION('',(0.173648177666931,-3.15580894749701E-13,0.984807753012208));
#510=DIRECTION('',(-5.63368699523937E-12,-1.,6.72905162535346E-13));
#511=DIRECTION('center_axis',(-0.696364240317807,0.707106781188754,0.12278780396881));
#512=DIRECTION('ref_axis',(-0.69636424032223,-0.707106781184341,0.122787803969137));
#513=DIRECTION('',(-0.696364240322248,-0.707106781184341,0.122787803969036));
#514=DIRECTION('',(0.173648177666931,-3.15580894749701E-13,0.984807753012208));
#515=DIRECTION('',(-0.69636424032223,-0.707106781184341,0.122787803969137));
#516=DIRECTION('center_axis',(9.17784591069273E-12,1.,-1.29785262010843E-12));
#517=DIRECTION('ref_axis',(-0.984807753012208,9.26378355116367E-12,0.173648177666931));
#518=DIRECTION('',(-0.984807753012208,9.26378355116367E-12,0.17364817766693));
#519=DIRECTION('',(-0.984807753012208,9.26378355116367E-12,0.173648177666931));
#520=DIRECTION('center_axis',(0.173648177666931,-3.15580894749701E-13,0.984807753012208));
#521=DIRECTION('ref_axis',(0.984807753012208,0.,-0.173648177666931));
#522=DIRECTION('center_axis',(0.,0.,1.));
#523=DIRECTION('ref_axis',(1.,0.,0.));
#524=DIRECTION('center_axis',(-0.17364817766693,4.60035374100997E-13,-0.984807753012208));
#525=DIRECTION('ref_axis',(0.984807753012208,4.02558338198756E-14,-0.17364817766693));
#526=DIRECTION('center_axis',(0.,0.,1.));
#527=DIRECTION('ref_axis',(1.,0.,0.));
#528=DIRECTION('center_axis',(0.,0.,1.));
#529=DIRECTION('ref_axis',(1.,-2.64921418136057E-12,0.));
#530=DIRECTION('center_axis',(0.17364817766693,-4.60035374100997E-13,0.984807753012208));
#531=DIRECTION('ref_axis',(0.984807753012208,4.02558338198756E-14,-0.17364817766693));
#532=DIRECTION('center_axis',(-1.53056759139468E-16,1.,0.));
#533=DIRECTION('ref_axis',(-1.,-1.53056759139468E-16,0.));
#534=DIRECTION('',(1.,1.53056759139468E-16,0.));
#535=DIRECTION('',(0.,0.,1.));
#536=DIRECTION('center_axis',(7.65283795697339E-17,-1.,0.));
#537=DIRECTION('ref_axis',(1.,7.65283795697339E-17,0.));
#538=DIRECTION('',(0.,0.,1.));
#539=DIRECTION('',(-1.,-7.65283795697339E-17,0.));
#540=DIRECTION('center_axis',(0.,0.,1.));
#541=DIRECTION('ref_axis',(-1.,4.56335677841536E-15,0.));
#542=DIRECTION('center_axis',(0.,0.,1.));
#543=DIRECTION('ref_axis',(1.,0.,0.));
#544=DIRECTION('',(-5.08068420226533E-18,5.04056528343216E-19,-1.));
#545=DIRECTION('',(1.,-2.77555756156289E-17,-4.47147970013246E-29));
#546=CARTESIAN_POINT('',(0.,0.,0.));
#547=CARTESIAN_POINT('',(0.,0.,0.));
#548=CARTESIAN_POINT('Origin',(12.7725,1.49999999999998,4.));
#549=CARTESIAN_POINT('',(18.64,1.49999999999998,5.));
#550=CARTESIAN_POINT('',(18.64,2.49999999999998,4.));
#551=CARTESIAN_POINT('Origin',(18.64,1.49999999999998,4.));
#552=CARTESIAN_POINT('',(4.13266257998445,2.49999999999998,4.));
#553=CARTESIAN_POINT('',(12.7725,2.49999999999998,4.));
#554=CARTESIAN_POINT('',(4.5911763198553,1.49999999999998,5.));
#555=CARTESIAN_POINT('Ctrl Pts',(4.5911763198553,1.49999999999998,5.));
#556=CARTESIAN_POINT('Ctrl Pts',(4.54865114823453,1.63016037396202,5.));
#557=CARTESIAN_POINT('Ctrl Pts',(4.49726002116308,1.7669096490124,4.9732309363839));
#558=CARTESIAN_POINT('Ctrl Pts',(4.3909517172186,2.01664583408733,4.86688884365877));
#559=CARTESIAN_POINT('Ctrl Pts',(4.33626085384906,2.12976542021532,4.78740133151158));
#560=CARTESIAN_POINT('Ctrl Pts',(4.24721941344723,2.30188520594626,4.60919303294707));
#561=CARTESIAN_POINT('Ctrl Pts',(4.20586684280086,2.37547210114555,4.50056560207645));
#562=CARTESIAN_POINT('Ctrl Pts',(4.14832545655358,2.47458676709605,4.25922527970689));
#563=CARTESIAN_POINT('Ctrl Pts',(4.13266257998401,2.49999999999998,4.12634028350823));
#564=CARTESIAN_POINT('Ctrl Pts',(4.13266257998401,2.49999999999998,4.));
#565=CARTESIAN_POINT('',(12.7725,1.49999999999998,5.));
#566=CARTESIAN_POINT('Origin',(18.64,-2.50000000000002,0.));
#567=CARTESIAN_POINT('',(18.64,-1.50000000000002,5.));
#568=CARTESIAN_POINT('',(18.64,2.49999999999998,5.));
#569=CARTESIAN_POINT('',(18.64,-2.50000000000002,4.));
#570=CARTESIAN_POINT('Origin',(18.64,-1.50000000000002,4.));
#571=CARTESIAN_POINT('',(18.64,-2.50000000000002,0.));
#572=CARTESIAN_POINT('',(18.64,-2.50000000000002,0.));
#573=CARTESIAN_POINT('',(18.64,2.49999999999998,0.));
#574=CARTESIAN_POINT('',(18.64,2.49999999999998,0.));
#575=CARTESIAN_POINT('',(18.64,2.49999999999998,0.));
#576=CARTESIAN_POINT('',(18.64,-1.05000000000001,2.5));
#577=CARTESIAN_POINT('Origin',(18.64,-5.55111512312578E-15,2.5));
#578=CARTESIAN_POINT('Origin',(6.905,0.,5.));
#579=CARTESIAN_POINT('',(4.59117631985529,-1.50000000000002,5.));
#580=CARTESIAN_POINT('Origin',(0.,0.,5.));
#581=CARTESIAN_POINT('',(5.51883128999222,-1.50000000000002,5.));
#582=CARTESIAN_POINT('',(0.881634903543781,0.799999999998377,5.));
#583=CARTESIAN_POINT('Origin',(0.881634903542327,-1.62319983056346E-12,
5.));
#584=CARTESIAN_POINT('Origin',(5.51883128999222,-1.50000000000002,4.));
#585=CARTESIAN_POINT('',(4.13266257998443,-2.50000000000002,4.));
#586=CARTESIAN_POINT('Ctrl Pts',(4.13266257998399,-2.50000000000002,4.));
#587=CARTESIAN_POINT('Ctrl Pts',(4.13266257998399,-2.50000000000002,4.12634028350823));
#588=CARTESIAN_POINT('Ctrl Pts',(4.14832545655355,-2.47458676709609,4.25922527970689));
#589=CARTESIAN_POINT('Ctrl Pts',(4.20586684280083,-2.37547210114559,4.50056560207645));
#590=CARTESIAN_POINT('Ctrl Pts',(4.24721941344721,-2.3018852059463,4.60919303294707));
#591=CARTESIAN_POINT('Ctrl Pts',(4.33626085384904,-2.12976542021536,4.78740133151158));
#592=CARTESIAN_POINT('Ctrl Pts',(4.39095171721858,-2.01664583408737,4.86688884365877));
#593=CARTESIAN_POINT('Ctrl Pts',(4.49726002116307,-1.76690964901244,4.9732309363839));
#594=CARTESIAN_POINT('Ctrl Pts',(4.54865114823452,-1.63016037396206,5.));
#595=CARTESIAN_POINT('Ctrl Pts',(4.59117631985529,-1.50000000000002,5.));
#596=CARTESIAN_POINT('',(5.51883128999222,-2.50000000000002,4.));
#597=CARTESIAN_POINT('Origin',(-0.145642320801987,2.43854730858033E-13,
-0.825978646131232));
#598=CARTESIAN_POINT('',(0.722598567534121,0.799999999998666,4.09806011892981));
#599=CARTESIAN_POINT('Origin',(0.722598567532667,-1.33415466384313E-12,
4.09806011892981));
#600=CARTESIAN_POINT('',(-0.145642320800533,0.800000000000244,-0.825978646131232));
#601=CARTESIAN_POINT('Origin',(18.64,-5.55111512312578E-15,2.5));
#602=CARTESIAN_POINT('',(8.64000000000001,-1.05000000000001,2.5));
#603=CARTESIAN_POINT('',(18.64,-1.05000000000001,2.5));
#604=CARTESIAN_POINT('Origin',(8.64000000000001,-5.55111512312578E-15,2.5));
#605=CARTESIAN_POINT('Origin',(8.64000000000001,-5.55111512312578E-15,2.5));
#606=CARTESIAN_POINT('Origin',(1.65655586721357,0.758010819138379,-1.14375481126204));
#607=CARTESIAN_POINT('',(1.65655586721357,0.758010819138379,-1.14375481126204));
#608=CARTESIAN_POINT('',(0.600852610766345,1.82999999999322,-0.957605843528262));
#609=CARTESIAN_POINT('',(1.41069599506262,1.00766347611621,-1.10040308232806));
#610=CARTESIAN_POINT('',(2.52479675554822,0.758010819136801,3.780283953799));
#611=CARTESIAN_POINT('',(1.65655586721357,0.758010819138379,-1.14375481126204));
#612=CARTESIAN_POINT('',(1.469093499101,1.82999999999164,3.96643292153278));
#613=CARTESIAN_POINT('',(1.469093499101,1.82999999999164,3.96643292153278));
#614=CARTESIAN_POINT('',(0.600852610766345,1.82999999999322,-0.957605843528262));
#615=CARTESIAN_POINT('Origin',(1.6565558672039,-0.758010819152473,-1.14375481126082));
#616=CARTESIAN_POINT('',(1.6565558672039,-0.758010819152473,-1.14375481126082));
#617=CARTESIAN_POINT('',(1.6565558672063,-0.37900540958178,-1.14375481126118));
#618=CARTESIAN_POINT('',(2.52479675553855,-0.75801081915405,3.78028395380022));
#619=CARTESIAN_POINT('',(1.6565558672039,-0.758010819152473,-1.14375481126082));
#620=CARTESIAN_POINT('',(2.52479675554822,0.758010819136801,3.780283953799));
#621=CARTESIAN_POINT('Origin',(0.600852610745726,-1.83000000000233,-0.957605843525799));
#622=CARTESIAN_POINT('',(0.600852610745726,-1.83000000000233,-0.957605843525799));
#623=CARTESIAN_POINT('',(0.882844366823291,-1.543658066552,-1.00732859845977));
#624=CARTESIAN_POINT('',(1.46909349908038,-1.83000000000391,3.96643292153524));
#625=CARTESIAN_POINT('',(0.600852610745726,-1.83000000000233,-0.957605843525799));
#626=CARTESIAN_POINT('',(2.52479675553855,-0.758010819154051,3.78028395380022));
#627=CARTESIAN_POINT('Origin',(-0.892137252370319,-1.82999999999375,-0.694351448734202));
#628=CARTESIAN_POINT('',(-0.892137252370319,-1.82999999999375,-0.694351448734202));
#629=CARTESIAN_POINT('',(-0.482757902665867,-1.8299999999961,-0.766536073432251));
#630=CARTESIAN_POINT('',(-0.0238963640356646,-1.82999999999532,4.22968731632684));
#631=CARTESIAN_POINT('',(-0.892137252370319,-1.82999999999375,-0.694351448734202));
#632=CARTESIAN_POINT('',(1.46909349908038,-1.83000000000391,3.96643292153524));
#633=CARTESIAN_POINT('Origin',(-1.94784050881641,-0.758010819131739,-0.508202481000624));
#634=CARTESIAN_POINT('',(-1.94784050881641,-0.758010819131739,-0.508202481000624));
#635=CARTESIAN_POINT('',(-1.66584875274249,-1.04435275258488,-0.557925235934062));
#636=CARTESIAN_POINT('',(-1.07959962048176,-0.758010819133317,4.41583628406042));
#637=CARTESIAN_POINT('',(-1.94784050881641,-0.758010819131739,-0.508202481000624));
#638=CARTESIAN_POINT('',(-0.0238963640356646,-1.82999999999532,4.22968731632684));
#639=CARTESIAN_POINT('Origin',(-1.94784050880787,0.758010819151948,-0.508202481001644));
#640=CARTESIAN_POINT('',(-1.94784050880787,0.758010819151948,-0.508202481001644));
#641=CARTESIAN_POINT('',(-1.94784050881,0.379005409581463,-0.508202481001336));
#642=CARTESIAN_POINT('',(-1.07959962047322,0.75801081915037,4.4158362840594));
#643=CARTESIAN_POINT('',(-1.94784050880787,0.758010819151948,-0.508202481001644));
#644=CARTESIAN_POINT('',(-1.07959962048176,-0.758010819133317,4.41583628406042));
#645=CARTESIAN_POINT('Origin',(-0.8921372523497,1.83000000000727,-0.694351448736664));
#646=CARTESIAN_POINT('',(-0.8921372523497,1.83000000000727,-0.694351448736664));
#647=CARTESIAN_POINT('',(-1.13799712450353,1.58034734302898,-0.650999719802259));
#648=CARTESIAN_POINT('',(-0.0238963640150454,1.83000000000569,4.22968731632437));
#649=CARTESIAN_POINT('',(-0.8921372523497,1.83000000000727,-0.694351448736664));
#650=CARTESIAN_POINT('',(-1.07959962047322,0.75801081915037,4.4158362840594));
#651=CARTESIAN_POINT('Origin',(0.600852610766345,1.82999999999322,-0.957605843528262));
#652=CARTESIAN_POINT('',(0.26373702891611,1.82999999999639,-0.898163270830563));
#653=CARTESIAN_POINT('',(-0.0238963640150454,1.83000000000569,4.22968731632437));
#654=CARTESIAN_POINT('Origin',(0.722598567533233,8.87900863943969E-13,4.09806011892971));
#655=CARTESIAN_POINT('Ctrl Pts',(-4.83,1.27950064101611E-11,0.));
#656=CARTESIAN_POINT('Ctrl Pts',(-4.83,1.27950064101611E-11,1.32342252772223E-13));
#657=CARTESIAN_POINT('Ctrl Pts',(-4.82999999999998,1.2795006410161E-11,
2.6267392935341E-13));
#658=CARTESIAN_POINT('Ctrl Pts',(-4.8300000000128,-4.82999999998721,1.470609290655E-27));
#659=CARTESIAN_POINT('Ctrl Pts',(-4.8300000000128,-4.82999999998721,1.32292094825177E-13));
#660=CARTESIAN_POINT('Ctrl Pts',(-4.83000000001277,-4.82999999998721,2.62574375471237E-13));
#661=CARTESIAN_POINT('Ctrl Pts',(-1.27953203588049E-11,-4.83,0.));
#662=CARTESIAN_POINT('Ctrl Pts',(-1.27953203588049E-11,-4.83,-0.422570244830081));
#663=CARTESIAN_POINT('Ctrl Pts',(-0.0733785529638076,-4.82999999999981,
-0.838720698131011));
#664=CARTESIAN_POINT('Ctrl Pts',(4.82999999998721,-4.8300000000128,0.));
#665=CARTESIAN_POINT('Ctrl Pts',(4.82999999998721,-4.8300000000128,-0.845140489660293));
#666=CARTESIAN_POINT('Ctrl Pts',(4.68324289408516,-4.83000000001241,-1.67744139626228));
#667=CARTESIAN_POINT('Ctrl Pts',(4.83,-1.2795811077378E-11,0.));
#668=CARTESIAN_POINT('Ctrl Pts',(4.83,-1.2795811077378E-11,-0.845140489660293));
#669=CARTESIAN_POINT('Ctrl Pts',(4.68324289409795,-1.24070200712069E-11,
-1.67744139626228));
#670=CARTESIAN_POINT('Ctrl Pts',(4.8300000000128,4.8299999999872,0.));
#671=CARTESIAN_POINT('Ctrl Pts',(4.8300000000128,4.8299999999872,-0.845140489660293));
#672=CARTESIAN_POINT('Ctrl Pts',(4.68324289411075,4.82999999998759,-1.67744139626228));
#673=CARTESIAN_POINT('Ctrl Pts',(1.27964305818296E-11,4.83,0.));
#674=CARTESIAN_POINT('Ctrl Pts',(1.27964305818296E-11,4.83,-0.422570244830081));
#675=CARTESIAN_POINT('Ctrl Pts',(-0.0733785529382158,4.83000000000019,-0.838720698131011));
#676=CARTESIAN_POINT('Ctrl Pts',(-4.8299999999872,4.8300000000128,1.470609290655E-27));
#677=CARTESIAN_POINT('Ctrl Pts',(-4.8299999999872,4.8300000000128,1.32292094825177E-13));
#678=CARTESIAN_POINT('Ctrl Pts',(-4.82999999998718,4.8300000000128,2.62574375471237E-13));
#679=CARTESIAN_POINT('Ctrl Pts',(-4.83,1.27961894189691E-11,0.));
#680=CARTESIAN_POINT('Ctrl Pts',(-4.83,1.27961894189691E-11,1.32342252772223E-13));
#681=CARTESIAN_POINT('Ctrl Pts',(-4.82999999999998,1.2796189418969E-11,
2.6267392935341E-13));
#682=CARTESIAN_POINT('',(-4.83,-5.91504403988172E-16,0.));
#683=CARTESIAN_POINT('',(4.13266257998443,-2.50000000000002,0.));
#684=CARTESIAN_POINT('Origin',(0.,0.,0.));
#685=CARTESIAN_POINT('Origin',(-0.0733785529510134,1.94566585065559E-13,
-0.838720698131011));
#686=CARTESIAN_POINT('',(4.13266257998445,2.49999999999998,0.));
#687=CARTESIAN_POINT('Origin',(0.,0.,0.));
#688=CARTESIAN_POINT('Origin',(0.,-1.06581406471969E-16,0.));
#689=CARTESIAN_POINT('Origin',(-0.0733785529510134,1.94566585065559E-13,
-0.838720698131011));
#690=CARTESIAN_POINT('Origin',(18.64,2.49999999999998,0.));
#691=CARTESIAN_POINT('',(4.13266257998445,2.49999999999998,0.));
#692=CARTESIAN_POINT('',(4.13266257998445,2.49999999999998,0.));
#693=CARTESIAN_POINT('Origin',(4.13266257998443,-2.50000000000002,0.));
#694=CARTESIAN_POINT('',(4.13266257998443,-2.50000000000002,0.));
#695=CARTESIAN_POINT('',(18.64,-2.50000000000002,0.));
#696=CARTESIAN_POINT('Origin',(0.,0.,0.));
#697=CARTESIAN_POINT('Origin',(6.905,0.,0.));
#698=CARTESIAN_POINT('',(5.55111512312578E-16,-1.77635683940025E-14,5.00000000000001));
#699=UNCERTAINTY_MEASURE_WITH_UNIT(LENGTH_MEASURE(0.01),#705,
'DISTANCE_ACCURACY_VALUE',
'Maximum model space distance between geometric entities at asserted c
onnectivities');
#700=UNCERTAINTY_MEASURE_WITH_UNIT(LENGTH_MEASURE(0.01),#705,
'DISTANCE_ACCURACY_VALUE',
'Maximum model space distance between geometric entities at asserted c
onnectivities');
#701=UNCERTAINTY_MEASURE_WITH_UNIT(LENGTH_MEASURE(0.01),#705,
'DISTANCE_ACCURACY_VALUE',
'Maximum model space distance between geometric entities at asserted c
onnectivities');
#702=(
GEOMETRIC_REPRESENTATION_CONTEXT(3)
GLOBAL_UNCERTAINTY_ASSIGNED_CONTEXT((#699))
GLOBAL_UNIT_ASSIGNED_CONTEXT((#705,#707,#708))
REPRESENTATION_CONTEXT('','3D')
);
#703=(
GEOMETRIC_REPRESENTATION_CONTEXT(3)
GLOBAL_UNCERTAINTY_ASSIGNED_CONTEXT((#700))
GLOBAL_UNIT_ASSIGNED_CONTEXT((#705,#707,#708))
REPRESENTATION_CONTEXT('','3D')
);
#704=(
GEOMETRIC_REPRESENTATION_CONTEXT(3)
GLOBAL_UNCERTAINTY_ASSIGNED_CONTEXT((#701))
GLOBAL_UNIT_ASSIGNED_CONTEXT((#705,#707,#708))
REPRESENTATION_CONTEXT('','3D')
);
#705=(
LENGTH_UNIT()
NAMED_UNIT(*)
SI_UNIT(.MILLI.,.METRE.)
);
#706=(
LENGTH_UNIT()
NAMED_UNIT(*)
SI_UNIT($,.METRE.)
);
#707=(
NAMED_UNIT(*)
PLANE_ANGLE_UNIT()
SI_UNIT($,.RADIAN.)
);
#708=(
NAMED_UNIT(*)
SI_UNIT($,.STERADIAN.)
SOLID_ANGLE_UNIT()
);
#709=SHAPE_DEFINITION_REPRESENTATION(#711,#714);
#710=SHAPE_DEFINITION_REPRESENTATION(#712,#715);
#711=PRODUCT_DEFINITION_SHAPE('',$,#717);
#712=PRODUCT_DEFINITION_SHAPE('',$,#718);
#713=PRODUCT_DEFINITION_SHAPE($,$,#14);
#714=SHAPE_REPRESENTATION('',(#403,#437),#702);
#715=SHAPE_REPRESENTATION('',(#404),#703);
#716=PRODUCT_DEFINITION_CONTEXT('part definition',#724,'design');
#717=PRODUCT_DEFINITION('2026-10-05-11-37-12-122','PRINT_LAYOUT',#719,#716);
#718=PRODUCT_DEFINITION('2026-10-05-11-37-12-070','UpperArm',#720,#716);
#719=PRODUCT_DEFINITION_FORMATION('',$,#726);
#720=PRODUCT_DEFINITION_FORMATION('',$,#727);
#721=PRODUCT_RELATED_PRODUCT_CATEGORY('PRINT_LAYOUT','PRINT_LAYOUT',(#726));
#722=PRODUCT_RELATED_PRODUCT_CATEGORY('UpperArm','UpperArm',(#727));
#723=APPLICATION_PROTOCOL_DEFINITION('international standard',
'automotive_design',2009,#724);
#724=APPLICATION_CONTEXT(
'Core Data for Automotive Mechanical Design Process');
#725=PRODUCT_CONTEXT('part definition',#724,'mechanical');
#726=PRODUCT('2026-10-05-11-37-12-122','PRINT_LAYOUT',$,(#725));
#727=PRODUCT('2026-10-05-11-37-12-070','UpperArm',$,(#725));
#728=PRESENTATION_STYLE_ASSIGNMENT((#731));
#729=PRESENTATION_STYLE_ASSIGNMENT((#732));
#730=PRESENTATION_STYLE_ASSIGNMENT((#733));
#731=SURFACE_STYLE_USAGE(.BOTH.,#734);
#732=SURFACE_STYLE_USAGE(.BOTH.,#735);
#733=SURFACE_STYLE_USAGE(.BOTH.,#736);
#734=SURFACE_SIDE_STYLE('',(#737));
#735=SURFACE_SIDE_STYLE('',(#738));
#736=SURFACE_SIDE_STYLE('',(#739));
#737=SURFACE_STYLE_FILL_AREA(#740);
#738=SURFACE_STYLE_FILL_AREA(#741);
#739=SURFACE_STYLE_FILL_AREA(#742);
#740=FILL_AREA_STYLE('Plastic - Matte (Black)',(#743));
#741=FILL_AREA_STYLE('Steel - Satin',(#744));
#742=FILL_AREA_STYLE('Brass - Old',(#745));
#743=FILL_AREA_STYLE_COLOUR('Plastic - Matte (Black)',#746);
#744=FILL_AREA_STYLE_COLOUR('Steel - Satin',#747);
#745=FILL_AREA_STYLE_COLOUR('Brass - Old',#748);
#746=COLOUR_RGB('Plastic - Matte (Black)',0.0980392156862745,0.0980392156862745,
0.0980392156862745);
#747=COLOUR_RGB('Steel - Satin',0.627450980392157,0.627450980392157,0.627450980392157);
#748=COLOUR_RGB('Brass - Old',0.,0.,0.);
ENDSEC;
END-ISO-10303-21;
