ISO-10303-21;
HEADER;
/* Generated by software containing ST-Developer
 * from STEP Tools, Inc. (www.steptools.com) 
 */

FILE_DESCRIPTION(
/* description */ (''),
/* implementation_level */ '2;1');

FILE_NAME(
/* name */ 'LampCap.step',
/* time_stamp */ '2026-09-30T17:58:12+02:00',
/* author */ (''),
/* organization */ (''),
/* preprocessor_version */ 'ST-DEVELOPER v20.2',
/* originating_system */ 'Autodesk Translation Framework v15.15.0.0',
/* authorisation */ '');

FILE_SCHEMA (('AUTOMOTIVE_DESIGN { 1 0 10303 214 3 1 1 }'));
ENDSEC;

DATA;
#10=MECHANICAL_DESIGN_GEOMETRIC_PRESENTATION_REPRESENTATION('',(#17),#1087);
#11=ITEM_DEFINED_TRANSFORMATION($,$,#587,#625);
#12=(
REPRESENTATION_RELATIONSHIP($,$,#1098,#1097)
REPRESENTATION_RELATIONSHIP_WITH_TRANSFORMATION(#11)
SHAPE_REPRESENTATION_RELATIONSHIP()
);
#13=CONTEXT_DEPENDENT_SHAPE_REPRESENTATION(#12,#1096);
#14=NEXT_ASSEMBLY_USAGE_OCCURRENCE('LampCap:1','LampCap:1','LampCap:1',
#1100,#1101,'LampCap:1');
#15=SHAPE_REPRESENTATION_RELATIONSHIP('SRR','None',#1098,#16);
#16=ADVANCED_BREP_SHAPE_REPRESENTATION('',(#18),#1086);
#17=STYLED_ITEM('',(#1112),#18);
#18=MANIFOLD_SOLID_BREP('Body1',#573);
#19=B_SPLINE_CURVE_WITH_KNOTS('',3,(#953,#954,#955,#956,#957,#958,#959,
#960),.UNSPECIFIED.,.F.,.F.,(4,2,2,4),(0.,0.679188417079564,0.910561532360323,
1.),.UNSPECIFIED.);
#20=B_SPLINE_CURVE_WITH_KNOTS('',3,(#961,#962,#963,#964,#965,#966,#967,
#968),.UNSPECIFIED.,.F.,.F.,(4,2,2,4),(0.,0.679188417079564,0.910561532360323,
1.),.UNSPECIFIED.);
#21=B_SPLINE_CURVE_WITH_KNOTS('',3,(#1001,#1002,#1003,#1004,#1005,#1006,
#1007,#1008),.UNSPECIFIED.,.F.,.F.,(4,2,2,4),(0.,0.679188417079564,0.910561532360323,
1.),.UNSPECIFIED.);
#22=B_SPLINE_CURVE_WITH_KNOTS('',3,(#1041,#1042,#1043,#1044,#1045,#1046,
#1047,#1048),.UNSPECIFIED.,.F.,.F.,(4,2,2,4),(0.,0.679188417079564,0.910561532360323,
1.),.UNSPECIFIED.);
#23=B_SPLINE_SURFACE_WITH_KNOTS('',3,3,((#921,#922,#923,#924,#925,#926,
#927,#928),(#929,#930,#931,#932,#933,#934,#935,#936),(#937,#938,#939,#940,
#941,#942,#943,#944),(#945,#946,#947,#948,#949,#950,#951,#952)),
 .UNSPECIFIED.,.F.,.F.,.F.,(4,4),(4,2,2,4),(0.,1.),(0.,0.679188417079564,
0.910561532360323,1.),.UNSPECIFIED.);
#24=B_SPLINE_SURFACE_WITH_KNOTS('',3,3,((#969,#970,#971,#972,#973,#974,
#975,#976),(#977,#978,#979,#980,#981,#982,#983,#984),(#985,#986,#987,#988,
#989,#990,#991,#992),(#993,#994,#995,#996,#997,#998,#999,#1000)),
 .UNSPECIFIED.,.F.,.F.,.F.,(4,4),(4,2,2,4),(0.,1.),(0.,0.679188417079564,
0.910561532360323,1.),.UNSPECIFIED.);
#25=B_SPLINE_SURFACE_WITH_KNOTS('',3,3,((#1009,#1010,#1011,#1012,#1013,
#1014,#1015,#1016),(#1017,#1018,#1019,#1020,#1021,#1022,#1023,#1024),(#1025,
#1026,#1027,#1028,#1029,#1030,#1031,#1032),(#1033,#1034,#1035,#1036,#1037,
#1038,#1039,#1040)),.UNSPECIFIED.,.F.,.F.,.F.,(4,4),(4,2,2,4),(0.,1.),(0.,
0.679188417079564,0.910561532360323,1.),.UNSPECIFIED.);
#26=B_SPLINE_SURFACE_WITH_KNOTS('',3,3,((#1049,#1050,#1051,#1052,#1053,
#1054,#1055,#1056),(#1057,#1058,#1059,#1060,#1061,#1062,#1063,#1064),(#1065,
#1066,#1067,#1068,#1069,#1070,#1071,#1072),(#1073,#1074,#1075,#1076,#1077,
#1078,#1079,#1080)),.UNSPECIFIED.,.F.,.F.,.F.,(4,4),(4,2,2,4),(0.,1.),(0.,
0.679188417079564,0.910561532360323,1.),.UNSPECIFIED.);
#27=FACE_BOUND('',#93,.T.);
#28=FACE_BOUND('',#95,.T.);
#29=FACE_BOUND('',#106,.T.);
#30=CIRCLE('',#599,1.3);
#31=CIRCLE('',#600,1.3);
#32=CIRCLE('',#603,1.3);
#33=CIRCLE('',#604,1.3);
#34=CIRCLE('',#607,1.3);
#35=CIRCLE('',#608,1.3);
#36=CIRCLE('',#611,1.3);
#37=CIRCLE('',#612,1.3);
#38=CYLINDRICAL_SURFACE('',#598,1.3);
#39=CYLINDRICAL_SURFACE('',#602,1.3);
#40=CYLINDRICAL_SURFACE('',#606,1.3);
#41=CYLINDRICAL_SURFACE('',#610,1.3);
#42=FACE_OUTER_BOUND('',#75,.T.);
#43=FACE_OUTER_BOUND('',#76,.T.);
#44=FACE_OUTER_BOUND('',#77,.T.);
#45=FACE_OUTER_BOUND('',#78,.T.);
#46=FACE_OUTER_BOUND('',#79,.T.);
#47=FACE_OUTER_BOUND('',#80,.T.);
#48=FACE_OUTER_BOUND('',#81,.T.);
#49=FACE_OUTER_BOUND('',#82,.T.);
#50=FACE_OUTER_BOUND('',#83,.T.);
#51=FACE_OUTER_BOUND('',#84,.T.);
#52=FACE_OUTER_BOUND('',#85,.T.);
#53=FACE_OUTER_BOUND('',#86,.T.);
#54=FACE_OUTER_BOUND('',#87,.T.);
#55=FACE_OUTER_BOUND('',#88,.T.);
#56=FACE_OUTER_BOUND('',#89,.T.);
#57=FACE_OUTER_BOUND('',#90,.T.);
#58=FACE_OUTER_BOUND('',#91,.T.);
#59=FACE_OUTER_BOUND('',#92,.T.);
#60=FACE_OUTER_BOUND('',#94,.T.);
#61=FACE_OUTER_BOUND('',#96,.T.);
#62=FACE_OUTER_BOUND('',#97,.T.);
#63=FACE_OUTER_BOUND('',#98,.T.);
#64=FACE_OUTER_BOUND('',#99,.T.);
#65=FACE_OUTER_BOUND('',#100,.T.);
#66=FACE_OUTER_BOUND('',#101,.T.);
#67=FACE_OUTER_BOUND('',#102,.T.);
#68=FACE_OUTER_BOUND('',#103,.T.);
#69=FACE_OUTER_BOUND('',#104,.T.);
#70=FACE_OUTER_BOUND('',#105,.T.);
#71=FACE_OUTER_BOUND('',#107,.T.);
#72=FACE_OUTER_BOUND('',#108,.T.);
#73=FACE_OUTER_BOUND('',#109,.T.);
#74=FACE_OUTER_BOUND('',#110,.T.);
#75=EDGE_LOOP('',(#363,#364,#365,#366));
#76=EDGE_LOOP('',(#367,#368,#369,#370));
#77=EDGE_LOOP('',(#371,#372,#373,#374));
#78=EDGE_LOOP('',(#375,#376,#377,#378));
#79=EDGE_LOOP('',(#379,#380,#381,#382));
#80=EDGE_LOOP('',(#383,#384,#385,#386));
#81=EDGE_LOOP('',(#387,#388,#389,#390));
#82=EDGE_LOOP('',(#391,#392,#393,#394));
#83=EDGE_LOOP('',(#395,#396,#397,#398));
#84=EDGE_LOOP('',(#399,#400,#401,#402));
#85=EDGE_LOOP('',(#403,#404,#405,#406));
#86=EDGE_LOOP('',(#407,#408,#409,#410));
#87=EDGE_LOOP('',(#411,#412,#413,#414));
#88=EDGE_LOOP('',(#415,#416,#417,#418));
#89=EDGE_LOOP('',(#419,#420,#421,#422));
#90=EDGE_LOOP('',(#423,#424,#425,#426));
#91=EDGE_LOOP('',(#427,#428,#429,#430));
#92=EDGE_LOOP('',(#431,#432,#433,#434,#435,#436,#437,#438));
#93=EDGE_LOOP('',(#439,#440,#441,#442));
#94=EDGE_LOOP('',(#443,#444,#445,#446));
#95=EDGE_LOOP('',(#447,#448,#449,#450,#451,#452,#453,#454));
#96=EDGE_LOOP('',(#455,#456,#457,#458));
#97=EDGE_LOOP('',(#459,#460,#461,#462));
#98=EDGE_LOOP('',(#463,#464,#465,#466));
#99=EDGE_LOOP('',(#467,#468,#469,#470));
#100=EDGE_LOOP('',(#471,#472,#473,#474));
#101=EDGE_LOOP('',(#475,#476,#477,#478));
#102=EDGE_LOOP('',(#479,#480,#481,#482));
#103=EDGE_LOOP('',(#483,#484,#485,#486));
#104=EDGE_LOOP('',(#487,#488,#489,#490));
#105=EDGE_LOOP('',(#491,#492,#493,#494));
#106=EDGE_LOOP('',(#495,#496,#497,#498));
#107=EDGE_LOOP('',(#499,#500,#501,#502));
#108=EDGE_LOOP('',(#503,#504,#505,#506));
#109=EDGE_LOOP('',(#507,#508,#509,#510));
#110=EDGE_LOOP('',(#511,#512,#513,#514));
#111=LINE('',#775,#175);
#112=LINE('',#777,#176);
#113=LINE('',#779,#177);
#114=LINE('',#780,#178);
#115=LINE('',#783,#179);
#116=LINE('',#785,#180);
#117=LINE('',#786,#181);
#118=LINE('',#789,#182);
#119=LINE('',#791,#183);
#120=LINE('',#792,#184);
#121=LINE('',#794,#185);
#122=LINE('',#795,#186);
#123=LINE('',#800,#187);
#124=LINE('',#802,#188);
#125=LINE('',#804,#189);
#126=LINE('',#805,#190);
#127=LINE('',#808,#191);
#128=LINE('',#810,#192);
#129=LINE('',#811,#193);
#130=LINE('',#814,#194);
#131=LINE('',#816,#195);
#132=LINE('',#817,#196);
#133=LINE('',#819,#197);
#134=LINE('',#820,#198);
#135=LINE('',#824,#199);
#136=LINE('',#826,#200);
#137=LINE('',#828,#201);
#138=LINE('',#829,#202);
#139=LINE('',#834,#203);
#140=LINE('',#838,#204);
#141=LINE('',#840,#205);
#142=LINE('',#841,#206);
#143=LINE('',#846,#207);
#144=LINE('',#850,#208);
#145=LINE('',#852,#209);
#146=LINE('',#853,#210);
#147=LINE('',#858,#211);
#148=LINE('',#862,#212);
#149=LINE('',#864,#213);
#150=LINE('',#865,#214);
#151=LINE('',#873,#215);
#152=LINE('',#875,#216);
#153=LINE('',#877,#217);
#154=LINE('',#878,#218);
#155=LINE('',#882,#219);
#156=LINE('',#883,#220);
#157=LINE('',#884,#221);
#158=LINE('',#887,#222);
#159=LINE('',#888,#223);
#160=LINE('',#891,#224);
#161=LINE('',#892,#225);
#162=LINE('',#894,#226);
#163=LINE('',#899,#227);
#164=LINE('',#901,#228);
#165=LINE('',#903,#229);
#166=LINE('',#904,#230);
#167=LINE('',#907,#231);
#168=LINE('',#909,#232);
#169=LINE('',#910,#233);
#170=LINE('',#913,#234);
#171=LINE('',#915,#235);
#172=LINE('',#916,#236);
#173=LINE('',#918,#237);
#174=LINE('',#919,#238);
#175=VECTOR('',#632,10.);
#176=VECTOR('',#633,10.);
#177=VECTOR('',#634,10.);
#178=VECTOR('',#635,10.);
#179=VECTOR('',#638,10.);
#180=VECTOR('',#639,10.);
#181=VECTOR('',#640,10.);
#182=VECTOR('',#643,10.);
#183=VECTOR('',#644,10.);
#184=VECTOR('',#645,10.);
#185=VECTOR('',#648,10.);
#186=VECTOR('',#649,10.);
#187=VECTOR('',#654,10.);
#188=VECTOR('',#655,10.);
#189=VECTOR('',#656,10.);
#190=VECTOR('',#657,10.);
#191=VECTOR('',#660,10.);
#192=VECTOR('',#661,10.);
#193=VECTOR('',#662,10.);
#194=VECTOR('',#665,10.);
#195=VECTOR('',#666,10.);
#196=VECTOR('',#667,10.);
#197=VECTOR('',#670,10.);
#198=VECTOR('',#671,10.);
#199=VECTOR('',#674,10.);
#200=VECTOR('',#675,10.);
#201=VECTOR('',#676,10.);
#202=VECTOR('',#677,10.);
#203=VECTOR('',#682,10.);
#204=VECTOR('',#687,10.);
#205=VECTOR('',#688,10.);
#206=VECTOR('',#689,10.);
#207=VECTOR('',#694,10.);
#208=VECTOR('',#699,10.);
#209=VECTOR('',#700,10.);
#210=VECTOR('',#701,10.);
#211=VECTOR('',#706,10.);
#212=VECTOR('',#711,10.);
#213=VECTOR('',#712,10.);
#214=VECTOR('',#713,10.);
#215=VECTOR('',#724,10.);
#216=VECTOR('',#725,10.);
#217=VECTOR('',#726,10.);
#218=VECTOR('',#727,10.);
#219=VECTOR('',#730,10.);
#220=VECTOR('',#731,10.);
#221=VECTOR('',#732,10.);
#222=VECTOR('',#735,10.);
#223=VECTOR('',#736,10.);
#224=VECTOR('',#739,10.);
#225=VECTOR('',#740,10.);
#226=VECTOR('',#743,10.);
#227=VECTOR('',#748,10.);
#228=VECTOR('',#749,10.);
#229=VECTOR('',#750,10.);
#230=VECTOR('',#751,10.);
#231=VECTOR('',#754,10.);
#232=VECTOR('',#755,10.);
#233=VECTOR('',#756,10.);
#234=VECTOR('',#759,10.);
#235=VECTOR('',#760,10.);
#236=VECTOR('',#761,10.);
#237=VECTOR('',#764,10.);
#238=VECTOR('',#765,10.);
#239=VERTEX_POINT('',#773);
#240=VERTEX_POINT('',#774);
#241=VERTEX_POINT('',#776);
#242=VERTEX_POINT('',#778);
#243=VERTEX_POINT('',#782);
#244=VERTEX_POINT('',#784);
#245=VERTEX_POINT('',#788);
#246=VERTEX_POINT('',#790);
#247=VERTEX_POINT('',#798);
#248=VERTEX_POINT('',#799);
#249=VERTEX_POINT('',#801);
#250=VERTEX_POINT('',#803);
#251=VERTEX_POINT('',#807);
#252=VERTEX_POINT('',#809);
#253=VERTEX_POINT('',#813);
#254=VERTEX_POINT('',#815);
#255=VERTEX_POINT('',#822);
#256=VERTEX_POINT('',#823);
#257=VERTEX_POINT('',#825);
#258=VERTEX_POINT('',#827);
#259=VERTEX_POINT('',#831);
#260=VERTEX_POINT('',#833);
#261=VERTEX_POINT('',#837);
#262=VERTEX_POINT('',#839);
#263=VERTEX_POINT('',#843);
#264=VERTEX_POINT('',#845);
#265=VERTEX_POINT('',#849);
#266=VERTEX_POINT('',#851);
#267=VERTEX_POINT('',#855);
#268=VERTEX_POINT('',#857);
#269=VERTEX_POINT('',#861);
#270=VERTEX_POINT('',#863);
#271=VERTEX_POINT('',#871);
#272=VERTEX_POINT('',#872);
#273=VERTEX_POINT('',#874);
#274=VERTEX_POINT('',#876);
#275=VERTEX_POINT('',#880);
#276=VERTEX_POINT('',#881);
#277=VERTEX_POINT('',#886);
#278=VERTEX_POINT('',#890);
#279=VERTEX_POINT('',#897);
#280=VERTEX_POINT('',#898);
#281=VERTEX_POINT('',#900);
#282=VERTEX_POINT('',#902);
#283=VERTEX_POINT('',#906);
#284=VERTEX_POINT('',#908);
#285=VERTEX_POINT('',#912);
#286=VERTEX_POINT('',#914);
#287=EDGE_CURVE('',#239,#240,#111,.T.);
#288=EDGE_CURVE('',#239,#241,#112,.T.);
#289=EDGE_CURVE('',#242,#241,#113,.T.);
#290=EDGE_CURVE('',#240,#242,#114,.T.);
#291=EDGE_CURVE('',#240,#243,#115,.T.);
#292=EDGE_CURVE('',#244,#242,#116,.T.);
#293=EDGE_CURVE('',#243,#244,#117,.T.);
#294=EDGE_CURVE('',#243,#245,#118,.T.);
#295=EDGE_CURVE('',#246,#244,#119,.T.);
#296=EDGE_CURVE('',#245,#246,#120,.T.);
#297=EDGE_CURVE('',#245,#239,#121,.T.);
#298=EDGE_CURVE('',#241,#246,#122,.T.);
#299=EDGE_CURVE('',#247,#248,#123,.T.);
#300=EDGE_CURVE('',#247,#249,#124,.T.);
#301=EDGE_CURVE('',#249,#250,#125,.T.);
#302=EDGE_CURVE('',#248,#250,#126,.T.);
#303=EDGE_CURVE('',#251,#247,#127,.T.);
#304=EDGE_CURVE('',#251,#252,#128,.T.);
#305=EDGE_CURVE('',#252,#249,#129,.T.);
#306=EDGE_CURVE('',#253,#251,#130,.T.);
#307=EDGE_CURVE('',#253,#254,#131,.T.);
#308=EDGE_CURVE('',#254,#252,#132,.T.);
#309=EDGE_CURVE('',#248,#253,#133,.T.);
#310=EDGE_CURVE('',#250,#254,#134,.T.);
#311=EDGE_CURVE('',#255,#256,#135,.T.);
#312=EDGE_CURVE('',#255,#257,#136,.T.);
#313=EDGE_CURVE('',#257,#258,#137,.T.);
#314=EDGE_CURVE('',#256,#258,#138,.T.);
#315=EDGE_CURVE('',#259,#255,#30,.T.);
#316=EDGE_CURVE('',#259,#260,#139,.T.);
#317=EDGE_CURVE('',#260,#257,#31,.T.);
#318=EDGE_CURVE('',#261,#259,#140,.T.);
#319=EDGE_CURVE('',#261,#262,#141,.T.);
#320=EDGE_CURVE('',#262,#260,#142,.T.);
#321=EDGE_CURVE('',#263,#261,#32,.T.);
#322=EDGE_CURVE('',#263,#264,#143,.T.);
#323=EDGE_CURVE('',#264,#262,#33,.T.);
#324=EDGE_CURVE('',#265,#263,#144,.T.);
#325=EDGE_CURVE('',#265,#266,#145,.T.);
#326=EDGE_CURVE('',#266,#264,#146,.T.);
#327=EDGE_CURVE('',#267,#265,#34,.T.);
#328=EDGE_CURVE('',#267,#268,#147,.T.);
#329=EDGE_CURVE('',#268,#266,#35,.T.);
#330=EDGE_CURVE('',#269,#267,#148,.T.);
#331=EDGE_CURVE('',#269,#270,#149,.T.);
#332=EDGE_CURVE('',#270,#268,#150,.T.);
#333=EDGE_CURVE('',#256,#269,#36,.T.);
#334=EDGE_CURVE('',#258,#270,#37,.T.);
#335=EDGE_CURVE('',#271,#272,#151,.T.);
#336=EDGE_CURVE('',#272,#273,#152,.T.);
#337=EDGE_CURVE('',#273,#274,#153,.T.);
#338=EDGE_CURVE('',#274,#271,#154,.T.);
#339=EDGE_CURVE('',#275,#276,#155,.T.);
#340=EDGE_CURVE('',#276,#271,#156,.T.);
#341=EDGE_CURVE('',#275,#274,#157,.T.);
#342=EDGE_CURVE('',#277,#275,#158,.T.);
#343=EDGE_CURVE('',#277,#273,#159,.T.);
#344=EDGE_CURVE('',#278,#277,#160,.T.);
#345=EDGE_CURVE('',#278,#272,#161,.T.);
#346=EDGE_CURVE('',#276,#278,#162,.T.);
#347=EDGE_CURVE('',#279,#280,#163,.T.);
#348=EDGE_CURVE('',#279,#281,#164,.T.);
#349=EDGE_CURVE('',#282,#281,#165,.T.);
#350=EDGE_CURVE('',#280,#282,#166,.T.);
#351=EDGE_CURVE('',#280,#283,#167,.T.);
#352=EDGE_CURVE('',#284,#282,#168,.T.);
#353=EDGE_CURVE('',#283,#284,#169,.T.);
#354=EDGE_CURVE('',#283,#285,#170,.T.);
#355=EDGE_CURVE('',#286,#284,#171,.T.);
#356=EDGE_CURVE('',#285,#286,#172,.T.);
#357=EDGE_CURVE('',#285,#279,#173,.T.);
#358=EDGE_CURVE('',#281,#286,#174,.T.);
#359=EDGE_CURVE('',#276,#285,#19,.T.);
#360=EDGE_CURVE('',#278,#279,#20,.T.);
#361=EDGE_CURVE('',#277,#280,#21,.T.);
#362=EDGE_CURVE('',#275,#283,#22,.T.);
#363=ORIENTED_EDGE('',*,*,#287,.F.);
#364=ORIENTED_EDGE('',*,*,#288,.T.);
#365=ORIENTED_EDGE('',*,*,#289,.F.);
#366=ORIENTED_EDGE('',*,*,#290,.F.);
#367=ORIENTED_EDGE('',*,*,#291,.F.);
#368=ORIENTED_EDGE('',*,*,#290,.T.);
#369=ORIENTED_EDGE('',*,*,#292,.F.);
#370=ORIENTED_EDGE('',*,*,#293,.F.);
#371=ORIENTED_EDGE('',*,*,#294,.F.);
#372=ORIENTED_EDGE('',*,*,#293,.T.);
#373=ORIENTED_EDGE('',*,*,#295,.F.);
#374=ORIENTED_EDGE('',*,*,#296,.F.);
#375=ORIENTED_EDGE('',*,*,#297,.F.);
#376=ORIENTED_EDGE('',*,*,#296,.T.);
#377=ORIENTED_EDGE('',*,*,#298,.F.);
#378=ORIENTED_EDGE('',*,*,#288,.F.);
#379=ORIENTED_EDGE('',*,*,#298,.T.);
#380=ORIENTED_EDGE('',*,*,#295,.T.);
#381=ORIENTED_EDGE('',*,*,#292,.T.);
#382=ORIENTED_EDGE('',*,*,#289,.T.);
#383=ORIENTED_EDGE('',*,*,#299,.F.);
#384=ORIENTED_EDGE('',*,*,#300,.T.);
#385=ORIENTED_EDGE('',*,*,#301,.T.);
#386=ORIENTED_EDGE('',*,*,#302,.F.);
#387=ORIENTED_EDGE('',*,*,#303,.F.);
#388=ORIENTED_EDGE('',*,*,#304,.T.);
#389=ORIENTED_EDGE('',*,*,#305,.T.);
#390=ORIENTED_EDGE('',*,*,#300,.F.);
#391=ORIENTED_EDGE('',*,*,#306,.F.);
#392=ORIENTED_EDGE('',*,*,#307,.T.);
#393=ORIENTED_EDGE('',*,*,#308,.T.);
#394=ORIENTED_EDGE('',*,*,#304,.F.);
#395=ORIENTED_EDGE('',*,*,#309,.F.);
#396=ORIENTED_EDGE('',*,*,#302,.T.);
#397=ORIENTED_EDGE('',*,*,#310,.T.);
#398=ORIENTED_EDGE('',*,*,#307,.F.);
#399=ORIENTED_EDGE('',*,*,#311,.F.);
#400=ORIENTED_EDGE('',*,*,#312,.T.);
#401=ORIENTED_EDGE('',*,*,#313,.T.);
#402=ORIENTED_EDGE('',*,*,#314,.F.);
#403=ORIENTED_EDGE('',*,*,#315,.F.);
#404=ORIENTED_EDGE('',*,*,#316,.T.);
#405=ORIENTED_EDGE('',*,*,#317,.T.);
#406=ORIENTED_EDGE('',*,*,#312,.F.);
#407=ORIENTED_EDGE('',*,*,#318,.F.);
#408=ORIENTED_EDGE('',*,*,#319,.T.);
#409=ORIENTED_EDGE('',*,*,#320,.T.);
#410=ORIENTED_EDGE('',*,*,#316,.F.);
#411=ORIENTED_EDGE('',*,*,#321,.F.);
#412=ORIENTED_EDGE('',*,*,#322,.T.);
#413=ORIENTED_EDGE('',*,*,#323,.T.);
#414=ORIENTED_EDGE('',*,*,#319,.F.);
#415=ORIENTED_EDGE('',*,*,#324,.F.);
#416=ORIENTED_EDGE('',*,*,#325,.T.);
#417=ORIENTED_EDGE('',*,*,#326,.T.);
#418=ORIENTED_EDGE('',*,*,#322,.F.);
#419=ORIENTED_EDGE('',*,*,#327,.F.);
#420=ORIENTED_EDGE('',*,*,#328,.T.);
#421=ORIENTED_EDGE('',*,*,#329,.T.);
#422=ORIENTED_EDGE('',*,*,#325,.F.);
#423=ORIENTED_EDGE('',*,*,#330,.F.);
#424=ORIENTED_EDGE('',*,*,#331,.T.);
#425=ORIENTED_EDGE('',*,*,#332,.T.);
#426=ORIENTED_EDGE('',*,*,#328,.F.);
#427=ORIENTED_EDGE('',*,*,#333,.F.);
#428=ORIENTED_EDGE('',*,*,#314,.T.);
#429=ORIENTED_EDGE('',*,*,#334,.T.);
#430=ORIENTED_EDGE('',*,*,#331,.F.);
#431=ORIENTED_EDGE('',*,*,#334,.F.);
#432=ORIENTED_EDGE('',*,*,#313,.F.);
#433=ORIENTED_EDGE('',*,*,#317,.F.);
#434=ORIENTED_EDGE('',*,*,#320,.F.);
#435=ORIENTED_EDGE('',*,*,#323,.F.);
#436=ORIENTED_EDGE('',*,*,#326,.F.);
#437=ORIENTED_EDGE('',*,*,#329,.F.);
#438=ORIENTED_EDGE('',*,*,#332,.F.);
#439=ORIENTED_EDGE('',*,*,#310,.F.);
#440=ORIENTED_EDGE('',*,*,#301,.F.);
#441=ORIENTED_EDGE('',*,*,#305,.F.);
#442=ORIENTED_EDGE('',*,*,#308,.F.);
#443=ORIENTED_EDGE('',*,*,#335,.T.);
#444=ORIENTED_EDGE('',*,*,#336,.T.);
#445=ORIENTED_EDGE('',*,*,#337,.T.);
#446=ORIENTED_EDGE('',*,*,#338,.T.);
#447=ORIENTED_EDGE('',*,*,#311,.T.);
#448=ORIENTED_EDGE('',*,*,#333,.T.);
#449=ORIENTED_EDGE('',*,*,#330,.T.);
#450=ORIENTED_EDGE('',*,*,#327,.T.);
#451=ORIENTED_EDGE('',*,*,#324,.T.);
#452=ORIENTED_EDGE('',*,*,#321,.T.);
#453=ORIENTED_EDGE('',*,*,#318,.T.);
#454=ORIENTED_EDGE('',*,*,#315,.T.);
#455=ORIENTED_EDGE('',*,*,#339,.T.);
#456=ORIENTED_EDGE('',*,*,#340,.T.);
#457=ORIENTED_EDGE('',*,*,#338,.F.);
#458=ORIENTED_EDGE('',*,*,#341,.F.);
#459=ORIENTED_EDGE('',*,*,#342,.T.);
#460=ORIENTED_EDGE('',*,*,#341,.T.);
#461=ORIENTED_EDGE('',*,*,#337,.F.);
#462=ORIENTED_EDGE('',*,*,#343,.F.);
#463=ORIENTED_EDGE('',*,*,#344,.T.);
#464=ORIENTED_EDGE('',*,*,#343,.T.);
#465=ORIENTED_EDGE('',*,*,#336,.F.);
#466=ORIENTED_EDGE('',*,*,#345,.F.);
#467=ORIENTED_EDGE('',*,*,#346,.T.);
#468=ORIENTED_EDGE('',*,*,#345,.T.);
#469=ORIENTED_EDGE('',*,*,#335,.F.);
#470=ORIENTED_EDGE('',*,*,#340,.F.);
#471=ORIENTED_EDGE('',*,*,#299,.T.);
#472=ORIENTED_EDGE('',*,*,#309,.T.);
#473=ORIENTED_EDGE('',*,*,#306,.T.);
#474=ORIENTED_EDGE('',*,*,#303,.T.);
#475=ORIENTED_EDGE('',*,*,#347,.F.);
#476=ORIENTED_EDGE('',*,*,#348,.T.);
#477=ORIENTED_EDGE('',*,*,#349,.F.);
#478=ORIENTED_EDGE('',*,*,#350,.F.);
#479=ORIENTED_EDGE('',*,*,#351,.F.);
#480=ORIENTED_EDGE('',*,*,#350,.T.);
#481=ORIENTED_EDGE('',*,*,#352,.F.);
#482=ORIENTED_EDGE('',*,*,#353,.F.);
#483=ORIENTED_EDGE('',*,*,#354,.F.);
#484=ORIENTED_EDGE('',*,*,#353,.T.);
#485=ORIENTED_EDGE('',*,*,#355,.F.);
#486=ORIENTED_EDGE('',*,*,#356,.F.);
#487=ORIENTED_EDGE('',*,*,#357,.F.);
#488=ORIENTED_EDGE('',*,*,#356,.T.);
#489=ORIENTED_EDGE('',*,*,#358,.F.);
#490=ORIENTED_EDGE('',*,*,#348,.F.);
#491=ORIENTED_EDGE('',*,*,#358,.T.);
#492=ORIENTED_EDGE('',*,*,#355,.T.);
#493=ORIENTED_EDGE('',*,*,#352,.T.);
#494=ORIENTED_EDGE('',*,*,#349,.T.);
#495=ORIENTED_EDGE('',*,*,#287,.T.);
#496=ORIENTED_EDGE('',*,*,#291,.T.);
#497=ORIENTED_EDGE('',*,*,#294,.T.);
#498=ORIENTED_EDGE('',*,*,#297,.T.);
#499=ORIENTED_EDGE('',*,*,#346,.F.);
#500=ORIENTED_EDGE('',*,*,#359,.T.);
#501=ORIENTED_EDGE('',*,*,#357,.T.);
#502=ORIENTED_EDGE('',*,*,#360,.F.);
#503=ORIENTED_EDGE('',*,*,#344,.F.);
#504=ORIENTED_EDGE('',*,*,#360,.T.);
#505=ORIENTED_EDGE('',*,*,#347,.T.);
#506=ORIENTED_EDGE('',*,*,#361,.F.);
#507=ORIENTED_EDGE('',*,*,#342,.F.);
#508=ORIENTED_EDGE('',*,*,#361,.T.);
#509=ORIENTED_EDGE('',*,*,#351,.T.);
#510=ORIENTED_EDGE('',*,*,#362,.F.);
#511=ORIENTED_EDGE('',*,*,#339,.F.);
#512=ORIENTED_EDGE('',*,*,#362,.T.);
#513=ORIENTED_EDGE('',*,*,#354,.T.);
#514=ORIENTED_EDGE('',*,*,#359,.F.);
#515=PLANE('',#588);
#516=PLANE('',#589);
#517=PLANE('',#590);
#518=PLANE('',#591);
#519=PLANE('',#592);
#520=PLANE('',#593);
#521=PLANE('',#594);
#522=PLANE('',#595);
#523=PLANE('',#596);
#524=PLANE('',#597);
#525=PLANE('',#601);
#526=PLANE('',#605);
#527=PLANE('',#609);
#528=PLANE('',#613);
#529=PLANE('',#614);
#530=PLANE('',#615);
#531=PLANE('',#616);
#532=PLANE('',#617);
#533=PLANE('',#618);
#534=PLANE('',#619);
#535=PLANE('',#620);
#536=PLANE('',#621);
#537=PLANE('',#622);
#538=PLANE('',#623);
#539=PLANE('',#624);
#540=ADVANCED_FACE('',(#42),#515,.T.);
#541=ADVANCED_FACE('',(#43),#516,.T.);
#542=ADVANCED_FACE('',(#44),#517,.T.);
#543=ADVANCED_FACE('',(#45),#518,.T.);
#544=ADVANCED_FACE('',(#46),#519,.T.);
#545=ADVANCED_FACE('',(#47),#520,.F.);
#546=ADVANCED_FACE('',(#48),#521,.F.);
#547=ADVANCED_FACE('',(#49),#522,.F.);
#548=ADVANCED_FACE('',(#50),#523,.F.);
#549=ADVANCED_FACE('',(#51),#524,.F.);
#550=ADVANCED_FACE('',(#52),#38,.F.);
#551=ADVANCED_FACE('',(#53),#525,.F.);
#552=ADVANCED_FACE('',(#54),#39,.F.);
#553=ADVANCED_FACE('',(#55),#526,.F.);
#554=ADVANCED_FACE('',(#56),#40,.F.);
#555=ADVANCED_FACE('',(#57),#527,.F.);
#556=ADVANCED_FACE('',(#58),#41,.F.);
#557=ADVANCED_FACE('',(#59,#27),#528,.T.);
#558=ADVANCED_FACE('',(#60,#28),#529,.T.);
#559=ADVANCED_FACE('',(#61),#530,.T.);
#560=ADVANCED_FACE('',(#62),#531,.T.);
#561=ADVANCED_FACE('',(#63),#532,.T.);
#562=ADVANCED_FACE('',(#64),#533,.T.);
#563=ADVANCED_FACE('',(#65),#534,.T.);
#564=ADVANCED_FACE('',(#66),#535,.T.);
#565=ADVANCED_FACE('',(#67),#536,.T.);
#566=ADVANCED_FACE('',(#68),#537,.T.);
#567=ADVANCED_FACE('',(#69),#538,.T.);
#568=ADVANCED_FACE('',(#70,#29),#539,.T.);
#569=ADVANCED_FACE('',(#71),#23,.F.);
#570=ADVANCED_FACE('',(#72),#24,.F.);
#571=ADVANCED_FACE('',(#73),#25,.F.);
#572=ADVANCED_FACE('',(#74),#26,.F.);
#573=CLOSED_SHELL('',(#540,#541,#542,#543,#544,#545,#546,#547,#548,#549,
#550,#551,#552,#553,#554,#555,#556,#557,#558,#559,#560,#561,#562,#563,#564,
#565,#566,#567,#568,#569,#570,#571,#572));
#574=DERIVED_UNIT_ELEMENT(#576,1.);
#575=DERIVED_UNIT_ELEMENT(#1089,-3.);
#576=(
MASS_UNIT()
NAMED_UNIT(*)
SI_UNIT(.KILO.,.GRAM.)
);
#577=DERIVED_UNIT((#574,#575));
#578=MEASURE_REPRESENTATION_ITEM('density measure',
POSITIVE_RATIO_MEASURE(7850.),#577);
#579=PROPERTY_DEFINITION_REPRESENTATION(#584,#581);
#580=PROPERTY_DEFINITION_REPRESENTATION(#585,#582);
#581=REPRESENTATION('material name',(#583),#1086);
#582=REPRESENTATION('density',(#578),#1086);
#583=DESCRIPTIVE_REPRESENTATION_ITEM('Steel','Steel');
#584=PROPERTY_DEFINITION('material property','material name',#1101);
#585=PROPERTY_DEFINITION('material property','density of part',#1101);
#586=AXIS2_PLACEMENT_3D('',#770,#626,#627);
#587=AXIS2_PLACEMENT_3D('',#771,#628,#629);
#588=AXIS2_PLACEMENT_3D('',#772,#630,#631);
#589=AXIS2_PLACEMENT_3D('',#781,#636,#637);
#590=AXIS2_PLACEMENT_3D('',#787,#641,#642);
#591=AXIS2_PLACEMENT_3D('',#793,#646,#647);
#592=AXIS2_PLACEMENT_3D('',#796,#650,#651);
#593=AXIS2_PLACEMENT_3D('',#797,#652,#653);
#594=AXIS2_PLACEMENT_3D('',#806,#658,#659);
#595=AXIS2_PLACEMENT_3D('',#812,#663,#664);
#596=AXIS2_PLACEMENT_3D('',#818,#668,#669);
#597=AXIS2_PLACEMENT_3D('',#821,#672,#673);
#598=AXIS2_PLACEMENT_3D('',#830,#678,#679);
#599=AXIS2_PLACEMENT_3D('',#832,#680,#681);
#600=AXIS2_PLACEMENT_3D('',#835,#683,#684);
#601=AXIS2_PLACEMENT_3D('',#836,#685,#686);
#602=AXIS2_PLACEMENT_3D('',#842,#690,#691);
#603=AXIS2_PLACEMENT_3D('',#844,#692,#693);
#604=AXIS2_PLACEMENT_3D('',#847,#695,#696);
#605=AXIS2_PLACEMENT_3D('',#848,#697,#698);
#606=AXIS2_PLACEMENT_3D('',#854,#702,#703);
#607=AXIS2_PLACEMENT_3D('',#856,#704,#705);
#608=AXIS2_PLACEMENT_3D('',#859,#707,#708);
#609=AXIS2_PLACEMENT_3D('',#860,#709,#710);
#610=AXIS2_PLACEMENT_3D('',#866,#714,#715);
#611=AXIS2_PLACEMENT_3D('',#867,#716,#717);
#612=AXIS2_PLACEMENT_3D('',#868,#718,#719);
#613=AXIS2_PLACEMENT_3D('',#869,#720,#721);
#614=AXIS2_PLACEMENT_3D('',#870,#722,#723);
#615=AXIS2_PLACEMENT_3D('',#879,#728,#729);
#616=AXIS2_PLACEMENT_3D('',#885,#733,#734);
#617=AXIS2_PLACEMENT_3D('',#889,#737,#738);
#618=AXIS2_PLACEMENT_3D('',#893,#741,#742);
#619=AXIS2_PLACEMENT_3D('',#895,#744,#745);
#620=AXIS2_PLACEMENT_3D('',#896,#746,#747);
#621=AXIS2_PLACEMENT_3D('',#905,#752,#753);
#622=AXIS2_PLACEMENT_3D('',#911,#757,#758);
#623=AXIS2_PLACEMENT_3D('',#917,#762,#763);
#624=AXIS2_PLACEMENT_3D('',#920,#766,#767);
#625=AXIS2_PLACEMENT_3D('',#1081,#768,#769);
#626=DIRECTION('axis',(0.,0.,1.));
#627=DIRECTION('refdir',(1.,0.,0.));
#628=DIRECTION('axis',(0.,0.,1.));
#629=DIRECTION('refdir',(1.,0.,0.));
#630=DIRECTION('center_axis',(-1.,0.,0.));
#631=DIRECTION('ref_axis',(0.,-1.,0.));
#632=DIRECTION('',(0.,1.,0.));
#633=DIRECTION('',(0.,0.,1.));
#634=DIRECTION('',(0.,-1.,0.));
#635=DIRECTION('',(0.,0.,1.));
#636=DIRECTION('center_axis',(1.58603289232165E-16,1.,0.));
#637=DIRECTION('ref_axis',(-1.,1.58603289232165E-16,0.));
#638=DIRECTION('',(1.,-1.58603289232165E-16,0.));
#639=DIRECTION('',(-1.,1.58603289232165E-16,0.));
#640=DIRECTION('',(0.,0.,1.));
#641=DIRECTION('center_axis',(1.,0.,0.));
#642=DIRECTION('ref_axis',(0.,1.,0.));
#643=DIRECTION('',(0.,-1.,0.));
#644=DIRECTION('',(0.,1.,0.));
#645=DIRECTION('',(0.,0.,1.));
#646=DIRECTION('center_axis',(-1.58603289232165E-16,-1.,0.));
#647=DIRECTION('ref_axis',(1.,-1.58603289232165E-16,0.));
#648=DIRECTION('',(-1.,1.58603289232165E-16,0.));
#649=DIRECTION('',(1.,-1.58603289232165E-16,0.));
#650=DIRECTION('center_axis',(0.,0.,1.));
#651=DIRECTION('ref_axis',(1.,0.,0.));
#652=DIRECTION('center_axis',(0.,-1.,0.));
#653=DIRECTION('ref_axis',(1.,0.,0.));
#654=DIRECTION('',(1.,0.,0.));
#655=DIRECTION('',(0.,0.,1.));
#656=DIRECTION('',(1.,0.,0.));
#657=DIRECTION('',(0.,0.,1.));
#658=DIRECTION('center_axis',(1.,0.,0.));
#659=DIRECTION('ref_axis',(0.,1.,0.));
#660=DIRECTION('',(0.,1.,0.));
#661=DIRECTION('',(0.,0.,1.));
#662=DIRECTION('',(0.,1.,0.));
#663=DIRECTION('center_axis',(0.,1.,0.));
#664=DIRECTION('ref_axis',(-1.,0.,0.));
#665=DIRECTION('',(-1.,0.,0.));
#666=DIRECTION('',(0.,0.,1.));
#667=DIRECTION('',(-1.,0.,0.));
#668=DIRECTION('center_axis',(-1.,0.,0.));
#669=DIRECTION('ref_axis',(0.,-1.,0.));
#670=DIRECTION('',(0.,-1.,0.));
#671=DIRECTION('',(0.,-1.,0.));
#672=DIRECTION('center_axis',(1.,0.,0.));
#673=DIRECTION('ref_axis',(0.,1.,0.));
#674=DIRECTION('',(0.,1.,0.));
#675=DIRECTION('',(0.,0.,1.));
#676=DIRECTION('',(0.,1.,0.));
#677=DIRECTION('',(0.,0.,1.));
#678=DIRECTION('center_axis',(0.,0.,1.));
#679=DIRECTION('ref_axis',(1.,0.,0.));
#680=DIRECTION('center_axis',(0.,0.,1.));
#681=DIRECTION('ref_axis',(1.,0.,0.));
#682=DIRECTION('',(0.,0.,1.));
#683=DIRECTION('center_axis',(0.,0.,1.));
#684=DIRECTION('ref_axis',(1.,0.,0.));
#685=DIRECTION('center_axis',(0.,-1.,0.));
#686=DIRECTION('ref_axis',(1.,0.,0.));
#687=DIRECTION('',(1.,0.,0.));
#688=DIRECTION('',(0.,0.,1.));
#689=DIRECTION('',(1.,0.,0.));
#690=DIRECTION('center_axis',(0.,0.,1.));
#691=DIRECTION('ref_axis',(0.,-1.,0.));
#692=DIRECTION('center_axis',(0.,0.,1.));
#693=DIRECTION('ref_axis',(0.,-1.,0.));
#694=DIRECTION('',(0.,0.,1.));
#695=DIRECTION('center_axis',(0.,0.,1.));
#696=DIRECTION('ref_axis',(0.,-1.,0.));
#697=DIRECTION('center_axis',(-1.,-7.93016446160826E-17,0.));
#698=DIRECTION('ref_axis',(7.93016446160826E-17,-1.,0.));
#699=DIRECTION('',(7.93016446160826E-17,-1.,0.));
#700=DIRECTION('',(0.,0.,1.));
#701=DIRECTION('',(7.93016446160826E-17,-1.,0.));
#702=DIRECTION('center_axis',(0.,0.,1.));
#703=DIRECTION('ref_axis',(-1.,0.,0.));
#704=DIRECTION('center_axis',(0.,0.,1.));
#705=DIRECTION('ref_axis',(-1.,0.,0.));
#706=DIRECTION('',(0.,0.,1.));
#707=DIRECTION('center_axis',(0.,0.,1.));
#708=DIRECTION('ref_axis',(-1.,0.,0.));
#709=DIRECTION('center_axis',(0.,1.,0.));
#710=DIRECTION('ref_axis',(-1.,0.,0.));
#711=DIRECTION('',(-1.,0.,0.));
#712=DIRECTION('',(0.,0.,1.));
#713=DIRECTION('',(-1.,0.,0.));
#714=DIRECTION('center_axis',(0.,0.,1.));
#715=DIRECTION('ref_axis',(0.,1.,0.));
#716=DIRECTION('center_axis',(0.,0.,1.));
#717=DIRECTION('ref_axis',(0.,1.,0.));
#718=DIRECTION('center_axis',(0.,0.,1.));
#719=DIRECTION('ref_axis',(0.,1.,0.));
#720=DIRECTION('center_axis',(0.,0.,-1.));
#721=DIRECTION('ref_axis',(1.,0.,0.));
#722=DIRECTION('center_axis',(0.,0.,-1.));
#723=DIRECTION('ref_axis',(-1.,0.,0.));
#724=DIRECTION('',(-1.,0.,0.));
#725=DIRECTION('',(0.,1.,0.));
#726=DIRECTION('',(1.,0.,0.));
#727=DIRECTION('',(0.,-1.,0.));
#728=DIRECTION('center_axis',(1.,0.,0.));
#729=DIRECTION('ref_axis',(0.,-1.,0.));
#730=DIRECTION('',(0.,-1.,0.));
#731=DIRECTION('',(0.,0.,-1.));
#732=DIRECTION('',(0.,0.,-1.));
#733=DIRECTION('center_axis',(0.,1.,0.));
#734=DIRECTION('ref_axis',(1.,0.,0.));
#735=DIRECTION('',(1.,0.,0.));
#736=DIRECTION('',(0.,0.,-1.));
#737=DIRECTION('center_axis',(-1.,0.,0.));
#738=DIRECTION('ref_axis',(0.,1.,0.));
#739=DIRECTION('',(0.,1.,0.));
#740=DIRECTION('',(0.,0.,-1.));
#741=DIRECTION('center_axis',(0.,-1.,0.));
#742=DIRECTION('ref_axis',(-1.,0.,0.));
#743=DIRECTION('',(-1.,0.,0.));
#744=DIRECTION('center_axis',(0.,0.,-1.));
#745=DIRECTION('ref_axis',(-1.,0.,0.));
#746=DIRECTION('center_axis',(-1.,0.,0.));
#747=DIRECTION('ref_axis',(0.,-1.,0.));
#748=DIRECTION('',(0.,1.,0.));
#749=DIRECTION('',(0.,0.,1.));
#750=DIRECTION('',(0.,-1.,0.));
#751=DIRECTION('',(0.,0.,1.));
#752=DIRECTION('center_axis',(0.,1.,0.));
#753=DIRECTION('ref_axis',(-1.,0.,0.));
#754=DIRECTION('',(1.,0.,0.));
#755=DIRECTION('',(-1.,0.,0.));
#756=DIRECTION('',(0.,0.,1.));
#757=DIRECTION('center_axis',(1.,0.,0.));
#758=DIRECTION('ref_axis',(0.,1.,0.));
#759=DIRECTION('',(0.,-1.,0.));
#760=DIRECTION('',(0.,1.,0.));
#761=DIRECTION('',(0.,0.,1.));
#762=DIRECTION('center_axis',(0.,-1.,0.));
#763=DIRECTION('ref_axis',(1.,0.,0.));
#764=DIRECTION('',(-1.,0.,0.));
#765=DIRECTION('',(1.,0.,0.));
#766=DIRECTION('center_axis',(0.,0.,1.));
#767=DIRECTION('ref_axis',(1.,0.,0.));
#768=DIRECTION('',(0.,0.,1.));
#769=DIRECTION('',(1.,0.,0.));
#770=CARTESIAN_POINT('',(0.,0.,0.));
#771=CARTESIAN_POINT('',(0.,0.,0.));
#772=CARTESIAN_POINT('Origin',(-3.5,3.5,43.));
#773=CARTESIAN_POINT('',(-3.5,-3.5,43.));
#774=CARTESIAN_POINT('',(-3.5,3.5,43.));
#775=CARTESIAN_POINT('',(-3.5,1.75,43.));
#776=CARTESIAN_POINT('',(-3.5,-3.5,44.));
#777=CARTESIAN_POINT('',(-3.5,-3.5,43.));
#778=CARTESIAN_POINT('',(-3.5,3.5,44.));
#779=CARTESIAN_POINT('',(-3.5,3.5,44.));
#780=CARTESIAN_POINT('',(-3.5,3.5,43.));
#781=CARTESIAN_POINT('Origin',(3.5,3.5,43.));
#782=CARTESIAN_POINT('',(3.5,3.5,43.));
#783=CARTESIAN_POINT('',(1.75,3.5,43.));
#784=CARTESIAN_POINT('',(3.5,3.5,44.));
#785=CARTESIAN_POINT('',(3.5,3.5,44.));
#786=CARTESIAN_POINT('',(3.5,3.5,43.));
#787=CARTESIAN_POINT('Origin',(3.5,-3.5,43.));
#788=CARTESIAN_POINT('',(3.5,-3.5,43.));
#789=CARTESIAN_POINT('',(3.5,-1.75,43.));
#790=CARTESIAN_POINT('',(3.5,-3.5,44.));
#791=CARTESIAN_POINT('',(3.5,-3.5,44.));
#792=CARTESIAN_POINT('',(3.5,-3.5,43.));
#793=CARTESIAN_POINT('Origin',(-3.5,-3.5,43.));
#794=CARTESIAN_POINT('',(-1.75,-3.5,43.));
#795=CARTESIAN_POINT('',(-3.5,-3.5,44.));
#796=CARTESIAN_POINT('Origin',(0.,-5.55111512312578E-16,44.));
#797=CARTESIAN_POINT('Origin',(-4.87906042778473,4.8790604277847,28.));
#798=CARTESIAN_POINT('',(-4.87906042778473,4.8790604277847,28.));
#799=CARTESIAN_POINT('',(4.87906042778469,4.8790604277847,28.));
#800=CARTESIAN_POINT('',(-2.43953021389237,4.8790604277847,28.));
#801=CARTESIAN_POINT('',(-4.87906042778473,4.8790604277847,30.));
#802=CARTESIAN_POINT('',(-4.87906042778473,4.8790604277847,28.));
#803=CARTESIAN_POINT('',(4.87906042778469,4.8790604277847,30.));
#804=CARTESIAN_POINT('',(-4.87906042778473,4.8790604277847,30.));
#805=CARTESIAN_POINT('',(4.87906042778469,4.8790604277847,28.));
#806=CARTESIAN_POINT('Origin',(-4.87906042778473,-4.87906042778473,28.));
#807=CARTESIAN_POINT('',(-4.87906042778473,-4.87906042778473,28.));
#808=CARTESIAN_POINT('',(-4.87906042778473,-2.43953021389236,28.));
#809=CARTESIAN_POINT('',(-4.87906042778473,-4.87906042778473,30.));
#810=CARTESIAN_POINT('',(-4.87906042778473,-4.87906042778473,28.));
#811=CARTESIAN_POINT('',(-4.87906042778473,-4.87906042778473,30.));
#812=CARTESIAN_POINT('Origin',(4.87906042778469,-4.87906042778473,28.));
#813=CARTESIAN_POINT('',(4.87906042778469,-4.87906042778473,28.));
#814=CARTESIAN_POINT('',(2.43953021389235,-4.87906042778473,28.));
#815=CARTESIAN_POINT('',(4.87906042778469,-4.87906042778473,30.));
#816=CARTESIAN_POINT('',(4.87906042778469,-4.87906042778473,28.));
#817=CARTESIAN_POINT('',(4.87906042778469,-4.87906042778473,30.));
#818=CARTESIAN_POINT('Origin',(4.87906042778469,4.8790604277847,28.));
#819=CARTESIAN_POINT('',(4.87906042778469,2.43953021389235,28.));
#820=CARTESIAN_POINT('',(4.87906042778469,4.8790604277847,30.));
#821=CARTESIAN_POINT('Origin',(8.29999999999998,-7.00000000000001,28.));
#822=CARTESIAN_POINT('',(8.29999999999998,-7.00000000000001,28.));
#823=CARTESIAN_POINT('',(8.29999999999998,6.99999999999999,28.));
#824=CARTESIAN_POINT('',(8.29999999999998,-3.5,28.));
#825=CARTESIAN_POINT('',(8.29999999999998,-7.00000000000001,30.));
#826=CARTESIAN_POINT('',(8.29999999999998,-7.00000000000001,28.));
#827=CARTESIAN_POINT('',(8.29999999999998,6.99999999999999,30.));
#828=CARTESIAN_POINT('',(8.29999999999998,-7.00000000000001,30.));
#829=CARTESIAN_POINT('',(8.29999999999998,6.99999999999999,28.));
#830=CARTESIAN_POINT('Origin',(6.99999999999998,-7.00000000000001,28.));
#831=CARTESIAN_POINT('',(6.99999999999998,-8.30000000000001,28.));
#832=CARTESIAN_POINT('Origin',(6.99999999999998,-7.00000000000001,28.));
#833=CARTESIAN_POINT('',(6.99999999999998,-8.30000000000001,30.));
#834=CARTESIAN_POINT('',(6.99999999999998,-8.30000000000001,28.));
#835=CARTESIAN_POINT('Origin',(6.99999999999998,-7.00000000000001,30.));
#836=CARTESIAN_POINT('Origin',(-7.00000000000002,-8.30000000000001,28.));
#837=CARTESIAN_POINT('',(-7.00000000000002,-8.30000000000001,28.));
#838=CARTESIAN_POINT('',(-3.50000000000001,-8.30000000000001,28.));
#839=CARTESIAN_POINT('',(-7.00000000000002,-8.30000000000001,30.));
#840=CARTESIAN_POINT('',(-7.00000000000002,-8.30000000000001,28.));
#841=CARTESIAN_POINT('',(-7.00000000000002,-8.30000000000001,30.));
#842=CARTESIAN_POINT('Origin',(-7.00000000000002,-7.00000000000001,28.));
#843=CARTESIAN_POINT('',(-8.30000000000002,-7.00000000000001,28.));
#844=CARTESIAN_POINT('Origin',(-7.00000000000002,-7.00000000000001,28.));
#845=CARTESIAN_POINT('',(-8.30000000000002,-7.00000000000001,30.));
#846=CARTESIAN_POINT('',(-8.30000000000002,-7.00000000000001,28.));
#847=CARTESIAN_POINT('Origin',(-7.00000000000002,-7.00000000000001,30.));
#848=CARTESIAN_POINT('Origin',(-8.30000000000002,6.99999999999999,28.));
#849=CARTESIAN_POINT('',(-8.30000000000002,6.99999999999999,28.));
#850=CARTESIAN_POINT('',(-8.30000000000002,3.49999999999999,28.));
#851=CARTESIAN_POINT('',(-8.30000000000002,6.99999999999999,30.));
#852=CARTESIAN_POINT('',(-8.30000000000002,6.99999999999999,28.));
#853=CARTESIAN_POINT('',(-8.30000000000002,6.99999999999999,30.));
#854=CARTESIAN_POINT('Origin',(-7.00000000000002,6.99999999999999,28.));
#855=CARTESIAN_POINT('',(-7.00000000000002,8.29999999999999,28.));
#856=CARTESIAN_POINT('Origin',(-7.00000000000002,6.99999999999999,28.));
#857=CARTESIAN_POINT('',(-7.00000000000002,8.29999999999999,30.));
#858=CARTESIAN_POINT('',(-7.00000000000002,8.29999999999999,28.));
#859=CARTESIAN_POINT('Origin',(-7.00000000000002,6.99999999999999,30.));
#860=CARTESIAN_POINT('Origin',(6.99999999999998,8.29999999999999,28.));
#861=CARTESIAN_POINT('',(6.99999999999998,8.29999999999999,28.));
#862=CARTESIAN_POINT('',(3.49999999999999,8.29999999999999,28.));
#863=CARTESIAN_POINT('',(6.99999999999998,8.29999999999999,30.));
#864=CARTESIAN_POINT('',(6.99999999999998,8.29999999999999,28.));
#865=CARTESIAN_POINT('',(6.99999999999998,8.29999999999999,30.));
#866=CARTESIAN_POINT('Origin',(6.99999999999998,6.99999999999999,28.));
#867=CARTESIAN_POINT('Origin',(6.99999999999998,6.99999999999999,28.));
#868=CARTESIAN_POINT('Origin',(6.99999999999998,6.99999999999999,30.));
#869=CARTESIAN_POINT('Origin',(-1.66533453693773E-14,-9.99200722162641E-15,
30.));
#870=CARTESIAN_POINT('Origin',(0.,-1.11022302462516E-15,28.));
#871=CARTESIAN_POINT('',(9.49999999999998,-9.49999999999999,28.));
#872=CARTESIAN_POINT('',(-9.49999999999998,-9.49999999999999,28.));
#873=CARTESIAN_POINT('',(9.49999999999998,-9.49999999999999,28.));
#874=CARTESIAN_POINT('',(-9.49999999999998,9.49999999999999,28.));
#875=CARTESIAN_POINT('',(-9.49999999999998,-9.49999999999999,28.));
#876=CARTESIAN_POINT('',(9.49999999999998,9.49999999999999,28.));
#877=CARTESIAN_POINT('',(-9.49999999999998,9.49999999999999,28.));
#878=CARTESIAN_POINT('',(9.49999999999998,9.49999999999999,28.));
#879=CARTESIAN_POINT('Origin',(9.49999999999998,9.49999999999999,31.));
#880=CARTESIAN_POINT('',(9.49999999999998,9.49999999999999,31.));
#881=CARTESIAN_POINT('',(9.49999999999998,-9.49999999999999,31.));
#882=CARTESIAN_POINT('',(9.49999999999998,9.49999999999999,31.));
#883=CARTESIAN_POINT('',(9.49999999999998,-9.49999999999999,31.));
#884=CARTESIAN_POINT('',(9.49999999999998,9.49999999999999,31.));
#885=CARTESIAN_POINT('Origin',(-9.49999999999998,9.49999999999999,31.));
#886=CARTESIAN_POINT('',(-9.49999999999998,9.49999999999999,31.));
#887=CARTESIAN_POINT('',(-9.49999999999998,9.49999999999999,31.));
#888=CARTESIAN_POINT('',(-9.49999999999998,9.49999999999999,31.));
#889=CARTESIAN_POINT('Origin',(-9.49999999999998,-9.49999999999999,31.));
#890=CARTESIAN_POINT('',(-9.49999999999998,-9.49999999999999,31.));
#891=CARTESIAN_POINT('',(-9.49999999999998,-9.49999999999999,31.));
#892=CARTESIAN_POINT('',(-9.49999999999998,-9.49999999999999,31.));
#893=CARTESIAN_POINT('Origin',(9.49999999999998,-9.49999999999999,31.));
#894=CARTESIAN_POINT('',(9.49999999999998,-9.49999999999999,31.));
#895=CARTESIAN_POINT('Origin',(0.,-1.11022302462516E-15,28.));
#896=CARTESIAN_POINT('Origin',(-4.5,4.5,41.));
#897=CARTESIAN_POINT('',(-4.5,-4.5,41.));
#898=CARTESIAN_POINT('',(-4.5,4.5,41.));
#899=CARTESIAN_POINT('',(-4.5,4.5,41.));
#900=CARTESIAN_POINT('',(-4.5,-4.5,43.));
#901=CARTESIAN_POINT('',(-4.5,-4.5,41.));
#902=CARTESIAN_POINT('',(-4.5,4.5,43.));
#903=CARTESIAN_POINT('',(-4.5,4.5,43.));
#904=CARTESIAN_POINT('',(-4.5,4.5,41.));
#905=CARTESIAN_POINT('Origin',(4.5,4.5,41.));
#906=CARTESIAN_POINT('',(4.5,4.5,41.));
#907=CARTESIAN_POINT('',(4.5,4.5,41.));
#908=CARTESIAN_POINT('',(4.5,4.5,43.));
#909=CARTESIAN_POINT('',(4.5,4.5,43.));
#910=CARTESIAN_POINT('',(4.5,4.5,41.));
#911=CARTESIAN_POINT('Origin',(4.5,-4.5,41.));
#912=CARTESIAN_POINT('',(4.5,-4.5,41.));
#913=CARTESIAN_POINT('',(4.5,-4.5,41.));
#914=CARTESIAN_POINT('',(4.5,-4.5,43.));
#915=CARTESIAN_POINT('',(4.5,-4.5,43.));
#916=CARTESIAN_POINT('',(4.5,-4.5,41.));
#917=CARTESIAN_POINT('Origin',(-4.5,-4.5,41.));
#918=CARTESIAN_POINT('',(-4.5,-4.5,41.));
#919=CARTESIAN_POINT('',(-4.5,-4.5,43.));
#920=CARTESIAN_POINT('Origin',(0.,0.,43.));
#921=CARTESIAN_POINT('Ctrl Pts',(9.49999999999998,-9.49999999999999,31.));
#922=CARTESIAN_POINT('Ctrl Pts',(9.49999999999998,-9.49999999999999,32.3583768341591));
#923=CARTESIAN_POINT('Ctrl Pts',(4.72677319035538,-4.72677319035538,34.3022337005756));
#924=CARTESIAN_POINT('Ctrl Pts',(3.75241660056849,-3.7524166005685,37.9190242019751));
#925=CARTESIAN_POINT('Ctrl Pts',(3.68725842141969,-3.68725842141969,39.097532950759));
#926=CARTESIAN_POINT('Ctrl Pts',(4.12089186559767,-4.12089186559767,40.3488532791784));
#927=CARTESIAN_POINT('Ctrl Pts',(4.2868686416985,-4.2868686416985,40.6815042764842));
#928=CARTESIAN_POINT('Ctrl Pts',(4.5,-4.5,41.));
#929=CARTESIAN_POINT('Ctrl Pts',(3.16666666666666,-9.49999999999999,31.));
#930=CARTESIAN_POINT('Ctrl Pts',(3.16666666666667,-9.49999999999999,32.3583768341591));
#931=CARTESIAN_POINT('Ctrl Pts',(1.57559106345179,-4.72677319035538,34.3022337005756));
#932=CARTESIAN_POINT('Ctrl Pts',(1.25080553352283,-3.7524166005685,37.9190242019751));
#933=CARTESIAN_POINT('Ctrl Pts',(1.22908614047323,-3.68725842141969,39.097532950759));
#934=CARTESIAN_POINT('Ctrl Pts',(1.37363062186589,-4.12089186559767,40.3488532791784));
#935=CARTESIAN_POINT('Ctrl Pts',(1.4289562138995,-4.2868686416985,40.6815042764842));
#936=CARTESIAN_POINT('Ctrl Pts',(1.5,-4.5,41.));
#937=CARTESIAN_POINT('Ctrl Pts',(-3.16666666666666,-9.49999999999999,31.));
#938=CARTESIAN_POINT('Ctrl Pts',(-3.16666666666667,-9.49999999999999,32.3583768341591));
#939=CARTESIAN_POINT('Ctrl Pts',(-1.57559106345179,-4.72677319035538,34.3022337005756));
#940=CARTESIAN_POINT('Ctrl Pts',(-1.25080553352284,-3.75241660056849,37.9190242019751));
#941=CARTESIAN_POINT('Ctrl Pts',(-1.22908614047323,-3.68725842141969,39.097532950759));
#942=CARTESIAN_POINT('Ctrl Pts',(-1.37363062186589,-4.12089186559767,40.3488532791784));
#943=CARTESIAN_POINT('Ctrl Pts',(-1.4289562138995,-4.2868686416985,40.6815042764842));
#944=CARTESIAN_POINT('Ctrl Pts',(-1.5,-4.5,41.));
#945=CARTESIAN_POINT('Ctrl Pts',(-9.49999999999998,-9.49999999999999,31.));
#946=CARTESIAN_POINT('Ctrl Pts',(-9.49999999999998,-9.49999999999999,32.3583768341591));
#947=CARTESIAN_POINT('Ctrl Pts',(-4.72677319035538,-4.72677319035538,34.3022337005756));
#948=CARTESIAN_POINT('Ctrl Pts',(-3.7524166005685,-3.75241660056849,37.9190242019751));
#949=CARTESIAN_POINT('Ctrl Pts',(-3.68725842141969,-3.68725842141969,39.097532950759));
#950=CARTESIAN_POINT('Ctrl Pts',(-4.12089186559768,-4.12089186559767,40.3488532791784));
#951=CARTESIAN_POINT('Ctrl Pts',(-4.28686864169851,-4.2868686416985,40.6815042764842));
#952=CARTESIAN_POINT('Ctrl Pts',(-4.5,-4.5,41.));
#953=CARTESIAN_POINT('Ctrl Pts',(9.49999999999998,-9.49999999999999,31.));
#954=CARTESIAN_POINT('Ctrl Pts',(9.49999999999998,-9.49999999999999,32.3583768341591));
#955=CARTESIAN_POINT('Ctrl Pts',(4.72677319035538,-4.72677319035539,34.3022337005756));
#956=CARTESIAN_POINT('Ctrl Pts',(3.75241660056849,-3.7524166005685,37.9190242019751));
#957=CARTESIAN_POINT('Ctrl Pts',(3.68725842141969,-3.68725842141969,39.097532950759));
#958=CARTESIAN_POINT('Ctrl Pts',(4.12089186559767,-4.12089186559768,40.3488532791784));
#959=CARTESIAN_POINT('Ctrl Pts',(4.2868686416985,-4.28686864169851,40.6815042764842));
#960=CARTESIAN_POINT('Ctrl Pts',(4.5,-4.5,41.));
#961=CARTESIAN_POINT('Ctrl Pts',(-9.49999999999998,-9.49999999999999,31.));
#962=CARTESIAN_POINT('Ctrl Pts',(-9.49999999999998,-9.49999999999999,32.3583768341591));
#963=CARTESIAN_POINT('Ctrl Pts',(-4.72677319035538,-4.72677319035538,34.3022337005756));
#964=CARTESIAN_POINT('Ctrl Pts',(-3.7524166005685,-3.7524166005685,37.9190242019751));
#965=CARTESIAN_POINT('Ctrl Pts',(-3.68725842141969,-3.68725842141969,39.097532950759));
#966=CARTESIAN_POINT('Ctrl Pts',(-4.12089186559767,-4.12089186559767,40.3488532791784));
#967=CARTESIAN_POINT('Ctrl Pts',(-4.28686864169851,-4.2868686416985,40.6815042764842));
#968=CARTESIAN_POINT('Ctrl Pts',(-4.5,-4.5,41.));
#969=CARTESIAN_POINT('Ctrl Pts',(-9.49999999999998,-9.49999999999999,31.));
#970=CARTESIAN_POINT('Ctrl Pts',(-9.49999999999998,-9.49999999999999,32.3583768341591));
#971=CARTESIAN_POINT('Ctrl Pts',(-4.72677319035538,-4.72677319035538,34.3022337005756));
#972=CARTESIAN_POINT('Ctrl Pts',(-3.7524166005685,-3.75241660056849,37.9190242019751));
#973=CARTESIAN_POINT('Ctrl Pts',(-3.68725842141969,-3.68725842141969,39.097532950759));
#974=CARTESIAN_POINT('Ctrl Pts',(-4.12089186559767,-4.12089186559767,40.3488532791784));
#975=CARTESIAN_POINT('Ctrl Pts',(-4.28686864169851,-4.2868686416985,40.6815042764842));
#976=CARTESIAN_POINT('Ctrl Pts',(-4.5,-4.5,41.));
#977=CARTESIAN_POINT('Ctrl Pts',(-9.49999999999998,-3.16666666666666,31.));
#978=CARTESIAN_POINT('Ctrl Pts',(-9.49999999999998,-3.16666666666667,32.3583768341591));
#979=CARTESIAN_POINT('Ctrl Pts',(-4.72677319035538,-1.5755910634518,34.3022337005756));
#980=CARTESIAN_POINT('Ctrl Pts',(-3.7524166005685,-1.25080553352283,37.9190242019751));
#981=CARTESIAN_POINT('Ctrl Pts',(-3.68725842141969,-1.22908614047323,39.097532950759));
#982=CARTESIAN_POINT('Ctrl Pts',(-4.12089186559767,-1.37363062186589,40.3488532791784));
#983=CARTESIAN_POINT('Ctrl Pts',(-4.28686864169851,-1.4289562138995,40.6815042764842));
#984=CARTESIAN_POINT('Ctrl Pts',(-4.5,-1.5,41.));
#985=CARTESIAN_POINT('Ctrl Pts',(-9.49999999999998,3.16666666666666,31.));
#986=CARTESIAN_POINT('Ctrl Pts',(-9.49999999999998,3.16666666666666,32.3583768341591));
#987=CARTESIAN_POINT('Ctrl Pts',(-4.72677319035538,1.57559106345179,34.3022337005756));
#988=CARTESIAN_POINT('Ctrl Pts',(-3.7524166005685,1.25080553352283,37.9190242019751));
#989=CARTESIAN_POINT('Ctrl Pts',(-3.68725842141969,1.22908614047323,39.097532950759));
#990=CARTESIAN_POINT('Ctrl Pts',(-4.12089186559767,1.37363062186589,40.3488532791784));
#991=CARTESIAN_POINT('Ctrl Pts',(-4.2868686416985,1.4289562138995,40.6815042764842));
#992=CARTESIAN_POINT('Ctrl Pts',(-4.5,1.5,41.));
#993=CARTESIAN_POINT('Ctrl Pts',(-9.49999999999998,9.49999999999999,31.));
#994=CARTESIAN_POINT('Ctrl Pts',(-9.49999999999998,9.49999999999999,32.3583768341591));
#995=CARTESIAN_POINT('Ctrl Pts',(-4.72677319035538,4.72677319035538,34.3022337005756));
#996=CARTESIAN_POINT('Ctrl Pts',(-3.7524166005685,3.7524166005685,37.9190242019751));
#997=CARTESIAN_POINT('Ctrl Pts',(-3.68725842141969,3.68725842141969,39.097532950759));
#998=CARTESIAN_POINT('Ctrl Pts',(-4.12089186559767,4.12089186559768,40.3488532791784));
#999=CARTESIAN_POINT('Ctrl Pts',(-4.2868686416985,4.28686864169851,40.6815042764842));
#1000=CARTESIAN_POINT('Ctrl Pts',(-4.5,4.5,41.));
#1001=CARTESIAN_POINT('Ctrl Pts',(-9.49999999999998,9.49999999999999,31.));
#1002=CARTESIAN_POINT('Ctrl Pts',(-9.49999999999998,9.49999999999999,32.3583768341591));
#1003=CARTESIAN_POINT('Ctrl Pts',(-4.72677319035538,4.72677319035538,34.3022337005756));
#1004=CARTESIAN_POINT('Ctrl Pts',(-3.7524166005685,3.7524166005685,37.9190242019751));
#1005=CARTESIAN_POINT('Ctrl Pts',(-3.68725842141969,3.68725842141969,39.097532950759));
#1006=CARTESIAN_POINT('Ctrl Pts',(-4.12089186559767,4.12089186559767,40.3488532791784));
#1007=CARTESIAN_POINT('Ctrl Pts',(-4.2868686416985,4.2868686416985,40.6815042764842));
#1008=CARTESIAN_POINT('Ctrl Pts',(-4.5,4.5,41.));
#1009=CARTESIAN_POINT('Ctrl Pts',(-9.49999999999998,9.49999999999999,31.));
#1010=CARTESIAN_POINT('Ctrl Pts',(-9.49999999999998,9.49999999999999,32.3583768341591));
#1011=CARTESIAN_POINT('Ctrl Pts',(-4.72677319035538,4.72677319035538,34.3022337005756));
#1012=CARTESIAN_POINT('Ctrl Pts',(-3.7524166005685,3.7524166005685,37.9190242019751));
#1013=CARTESIAN_POINT('Ctrl Pts',(-3.68725842141969,3.68725842141969,39.097532950759));
#1014=CARTESIAN_POINT('Ctrl Pts',(-4.12089186559767,4.12089186559767,40.3488532791784));
#1015=CARTESIAN_POINT('Ctrl Pts',(-4.2868686416985,4.2868686416985,40.6815042764842));
#1016=CARTESIAN_POINT('Ctrl Pts',(-4.5,4.5,41.));
#1017=CARTESIAN_POINT('Ctrl Pts',(-3.16666666666666,9.49999999999999,31.));
#1018=CARTESIAN_POINT('Ctrl Pts',(-3.16666666666667,9.49999999999999,32.3583768341591));
#1019=CARTESIAN_POINT('Ctrl Pts',(-1.57559106345179,4.72677319035538,34.3022337005756));
#1020=CARTESIAN_POINT('Ctrl Pts',(-1.25080553352283,3.7524166005685,37.9190242019751));
#1021=CARTESIAN_POINT('Ctrl Pts',(-1.22908614047323,3.68725842141969,39.097532950759));
#1022=CARTESIAN_POINT('Ctrl Pts',(-1.37363062186589,4.12089186559767,40.3488532791784));
#1023=CARTESIAN_POINT('Ctrl Pts',(-1.4289562138995,4.2868686416985,40.6815042764842));
#1024=CARTESIAN_POINT('Ctrl Pts',(-1.5,4.5,41.));
#1025=CARTESIAN_POINT('Ctrl Pts',(3.16666666666666,9.49999999999999,31.));
#1026=CARTESIAN_POINT('Ctrl Pts',(3.16666666666667,9.49999999999999,32.3583768341591));
#1027=CARTESIAN_POINT('Ctrl Pts',(1.57559106345179,4.72677319035538,34.3022337005756));
#1028=CARTESIAN_POINT('Ctrl Pts',(1.25080553352284,3.7524166005685,37.9190242019751));
#1029=CARTESIAN_POINT('Ctrl Pts',(1.22908614047323,3.68725842141969,39.097532950759));
#1030=CARTESIAN_POINT('Ctrl Pts',(1.37363062186589,4.12089186559767,40.3488532791784));
#1031=CARTESIAN_POINT('Ctrl Pts',(1.4289562138995,4.2868686416985,40.6815042764842));
#1032=CARTESIAN_POINT('Ctrl Pts',(1.5,4.5,41.));
#1033=CARTESIAN_POINT('Ctrl Pts',(9.49999999999998,9.49999999999999,31.));
#1034=CARTESIAN_POINT('Ctrl Pts',(9.49999999999998,9.49999999999999,32.3583768341591));
#1035=CARTESIAN_POINT('Ctrl Pts',(4.72677319035538,4.72677319035538,34.3022337005756));
#1036=CARTESIAN_POINT('Ctrl Pts',(3.7524166005685,3.7524166005685,37.9190242019751));
#1037=CARTESIAN_POINT('Ctrl Pts',(3.68725842141969,3.68725842141969,39.097532950759));
#1038=CARTESIAN_POINT('Ctrl Pts',(4.12089186559768,4.12089186559767,40.3488532791784));
#1039=CARTESIAN_POINT('Ctrl Pts',(4.28686864169851,4.2868686416985,40.6815042764842));
#1040=CARTESIAN_POINT('Ctrl Pts',(4.5,4.5,41.));
#1041=CARTESIAN_POINT('Ctrl Pts',(9.49999999999998,9.49999999999999,31.));
#1042=CARTESIAN_POINT('Ctrl Pts',(9.49999999999998,9.49999999999999,32.3583768341591));
#1043=CARTESIAN_POINT('Ctrl Pts',(4.72677319035538,4.72677319035538,34.3022337005756));
#1044=CARTESIAN_POINT('Ctrl Pts',(3.7524166005685,3.7524166005685,37.9190242019751));
#1045=CARTESIAN_POINT('Ctrl Pts',(3.68725842141969,3.68725842141969,39.097532950759));
#1046=CARTESIAN_POINT('Ctrl Pts',(4.12089186559767,4.12089186559767,40.3488532791784));
#1047=CARTESIAN_POINT('Ctrl Pts',(4.2868686416985,4.2868686416985,40.6815042764842));
#1048=CARTESIAN_POINT('Ctrl Pts',(4.5,4.5,41.));
#1049=CARTESIAN_POINT('Ctrl Pts',(9.49999999999998,9.49999999999999,31.));
#1050=CARTESIAN_POINT('Ctrl Pts',(9.49999999999998,9.49999999999999,32.3583768341591));
#1051=CARTESIAN_POINT('Ctrl Pts',(4.72677319035538,4.72677319035538,34.3022337005756));
#1052=CARTESIAN_POINT('Ctrl Pts',(3.7524166005685,3.7524166005685,37.9190242019751));
#1053=CARTESIAN_POINT('Ctrl Pts',(3.68725842141969,3.68725842141969,39.097532950759));
#1054=CARTESIAN_POINT('Ctrl Pts',(4.12089186559767,4.12089186559768,40.3488532791784));
#1055=CARTESIAN_POINT('Ctrl Pts',(4.2868686416985,4.2868686416985,40.6815042764842));
#1056=CARTESIAN_POINT('Ctrl Pts',(4.5,4.5,41.));
#1057=CARTESIAN_POINT('Ctrl Pts',(9.49999999999998,3.16666666666666,31.));
#1058=CARTESIAN_POINT('Ctrl Pts',(9.49999999999998,3.16666666666667,32.3583768341591));
#1059=CARTESIAN_POINT('Ctrl Pts',(4.72677319035538,1.57559106345179,34.3022337005756));
#1060=CARTESIAN_POINT('Ctrl Pts',(3.7524166005685,1.25080553352284,37.9190242019751));
#1061=CARTESIAN_POINT('Ctrl Pts',(3.68725842141969,1.22908614047323,39.097532950759));
#1062=CARTESIAN_POINT('Ctrl Pts',(4.12089186559767,1.3736306218659,40.3488532791784));
#1063=CARTESIAN_POINT('Ctrl Pts',(4.2868686416985,1.4289562138995,40.6815042764842));
#1064=CARTESIAN_POINT('Ctrl Pts',(4.5,1.5,41.));
#1065=CARTESIAN_POINT('Ctrl Pts',(9.49999999999998,-3.16666666666667,31.));
#1066=CARTESIAN_POINT('Ctrl Pts',(9.49999999999998,-3.16666666666667,32.3583768341591));
#1067=CARTESIAN_POINT('Ctrl Pts',(4.72677319035538,-1.5755910634518,34.3022337005756));
#1068=CARTESIAN_POINT('Ctrl Pts',(3.7524166005685,-1.25080553352283,37.9190242019751));
#1069=CARTESIAN_POINT('Ctrl Pts',(3.68725842141969,-1.22908614047323,39.097532950759));
#1070=CARTESIAN_POINT('Ctrl Pts',(4.12089186559768,-1.37363062186589,40.3488532791784));
#1071=CARTESIAN_POINT('Ctrl Pts',(4.2868686416985,-1.4289562138995,40.6815042764842));
#1072=CARTESIAN_POINT('Ctrl Pts',(4.5,-1.5,41.));
#1073=CARTESIAN_POINT('Ctrl Pts',(9.49999999999998,-9.49999999999999,31.));
#1074=CARTESIAN_POINT('Ctrl Pts',(9.49999999999998,-9.49999999999999,32.3583768341591));
#1075=CARTESIAN_POINT('Ctrl Pts',(4.72677319035538,-4.72677319035538,34.3022337005756));
#1076=CARTESIAN_POINT('Ctrl Pts',(3.7524166005685,-3.7524166005685,37.9190242019751));
#1077=CARTESIAN_POINT('Ctrl Pts',(3.68725842141969,-3.68725842141969,39.097532950759));
#1078=CARTESIAN_POINT('Ctrl Pts',(4.12089186559768,-4.12089186559768,40.3488532791784));
#1079=CARTESIAN_POINT('Ctrl Pts',(4.2868686416985,-4.28686864169851,40.6815042764842));
#1080=CARTESIAN_POINT('Ctrl Pts',(4.5,-4.5,41.));
#1081=CARTESIAN_POINT('',(1.88737914186277E-14,1.77635683940025E-14,-28.));
#1082=UNCERTAINTY_MEASURE_WITH_UNIT(LENGTH_MEASURE(0.01),#1088,
'DISTANCE_ACCURACY_VALUE',
'Maximum model space distance between geometric entities at asserted c
onnectivities');
#1083=UNCERTAINTY_MEASURE_WITH_UNIT(LENGTH_MEASURE(0.01),#1088,
'DISTANCE_ACCURACY_VALUE',
'Maximum model space distance between geometric entities at asserted c
onnectivities');
#1084=UNCERTAINTY_MEASURE_WITH_UNIT(LENGTH_MEASURE(0.01),#1088,
'DISTANCE_ACCURACY_VALUE',
'Maximum model space distance between geometric entities at asserted c
onnectivities');
#1085=(
GEOMETRIC_REPRESENTATION_CONTEXT(3)
GLOBAL_UNCERTAINTY_ASSIGNED_CONTEXT((#1082))
GLOBAL_UNIT_ASSIGNED_CONTEXT((#1088,#1090,#1091))
REPRESENTATION_CONTEXT('','3D')
);
#1086=(
GEOMETRIC_REPRESENTATION_CONTEXT(3)
GLOBAL_UNCERTAINTY_ASSIGNED_CONTEXT((#1083))
GLOBAL_UNIT_ASSIGNED_CONTEXT((#1088,#1090,#1091))
REPRESENTATION_CONTEXT('','3D')
);
#1087=(
GEOMETRIC_REPRESENTATION_CONTEXT(3)
GLOBAL_UNCERTAINTY_ASSIGNED_CONTEXT((#1084))
GLOBAL_UNIT_ASSIGNED_CONTEXT((#1088,#1090,#1091))
REPRESENTATION_CONTEXT('','3D')
);
#1088=(
LENGTH_UNIT()
NAMED_UNIT(*)
SI_UNIT(.MILLI.,.METRE.)
);
#1089=(
LENGTH_UNIT()
NAMED_UNIT(*)
SI_UNIT($,.METRE.)
);
#1090=(
NAMED_UNIT(*)
PLANE_ANGLE_UNIT()
SI_UNIT($,.RADIAN.)
);
#1091=(
NAMED_UNIT(*)
SI_UNIT($,.STERADIAN.)
SOLID_ANGLE_UNIT()
);
#1092=SHAPE_DEFINITION_REPRESENTATION(#1094,#1097);
#1093=SHAPE_DEFINITION_REPRESENTATION(#1095,#1098);
#1094=PRODUCT_DEFINITION_SHAPE('',$,#1100);
#1095=PRODUCT_DEFINITION_SHAPE('',$,#1101);
#1096=PRODUCT_DEFINITION_SHAPE($,$,#14);
#1097=SHAPE_REPRESENTATION('',(#586,#625),#1085);
#1098=SHAPE_REPRESENTATION('',(#587),#1086);
#1099=PRODUCT_DEFINITION_CONTEXT('part definition',#1107,'design');
#1100=PRODUCT_DEFINITION('2026-09-30-17-58-12-403','PRINT_LAYOUT',#1102,
#1099);
#1101=PRODUCT_DEFINITION('2026-09-30-17-58-12-400','LampCap',#1103,#1099);
#1102=PRODUCT_DEFINITION_FORMATION('',$,#1109);
#1103=PRODUCT_DEFINITION_FORMATION('',$,#1110);
#1104=PRODUCT_RELATED_PRODUCT_CATEGORY('PRINT_LAYOUT','PRINT_LAYOUT',(#1109));
#1105=PRODUCT_RELATED_PRODUCT_CATEGORY('LampCap','LampCap',(#1110));
#1106=APPLICATION_PROTOCOL_DEFINITION('international standard',
'automotive_design',2009,#1107);
#1107=APPLICATION_CONTEXT(
'Core Data for Automotive Mechanical Design Process');
#1108=PRODUCT_CONTEXT('part definition',#1107,'mechanical');
#1109=PRODUCT('2026-09-30-17-58-12-403','PRINT_LAYOUT',$,(#1108));
#1110=PRODUCT('2026-09-30-17-58-12-400','LampCap',$,(#1108));
#1111=PRESENTATION_STYLE_ASSIGNMENT((#1113));
#1112=PRESENTATION_STYLE_ASSIGNMENT((#1114));
#1113=SURFACE_STYLE_USAGE(.BOTH.,#1115);
#1114=SURFACE_STYLE_USAGE(.BOTH.,#1116);
#1115=SURFACE_SIDE_STYLE('',(#1117));
#1116=SURFACE_SIDE_STYLE('',(#1118));
#1117=SURFACE_STYLE_FILL_AREA(#1119);
#1118=SURFACE_STYLE_FILL_AREA(#1120);
#1119=FILL_AREA_STYLE('Steel - Satin',(#1121));
#1120=FILL_AREA_STYLE('Brass - Old',(#1122));
#1121=FILL_AREA_STYLE_COLOUR('Steel - Satin',#1123);
#1122=FILL_AREA_STYLE_COLOUR('Brass - Old',#1124);
#1123=COLOUR_RGB('Steel - Satin',0.627450980392157,0.627450980392157,0.627450980392157);
#1124=COLOUR_RGB('Brass - Old',0.,0.,0.);
ENDSEC;
END-ISO-10303-21;
