ISO-10303-21;
HEADER;
/* Generated by software containing ST-Developer
 * from STEP Tools, Inc. (www.steptools.com)
 */

FILE_DESCRIPTION(
/* description */ (''),
/* implementation_level */ '2;1');

FILE_NAME(
/* name */ 'BottomCover_Fusion.step',
/* time_stamp */ '2026-09-25T20:10:25-07:00',
/* author */ (''),
/* organization */ (''),
/* preprocessor_version */ 'ST-DEVELOPER v20.2',
/* originating_system */ 'Autodesk Translation Framework v15.15.0.0',
/* authorisation */ '');

FILE_SCHEMA (('AUTOMOTIVE_DESIGN { 1 0 10303 214 3 1 1 }'));
ENDSEC;

DATA;
#10=MECHANICAL_DESIGN_GEOMETRIC_PRESENTATION_REPRESENTATION('',(#13),#1133);
#11=SHAPE_REPRESENTATION_RELATIONSHIP('SRR','None',#1140,#12);
#12=ADVANCED_BREP_SHAPE_REPRESENTATION('',(#14),#1132);
#13=STYLED_ITEM('',(#1149),#14);
#14=MANIFOLD_SOLID_BREP('BottomCover',#657);
#15=FACE_BOUND('',#83,.T.);
#16=FACE_BOUND('',#86,.T.);
#17=FACE_BOUND('',#89,.T.);
#18=FACE_BOUND('',#92,.T.);
#19=FACE_BOUND('',#120,.T.);
#20=FACE_BOUND('',#121,.T.);
#21=FACE_BOUND('',#122,.T.);
#22=FACE_BOUND('',#123,.T.);
#23=FACE_BOUND('',#125,.T.);
#24=FACE_BOUND('',#126,.T.);
#25=FACE_BOUND('',#127,.T.);
#26=FACE_BOUND('',#128,.T.);
#27=PLANE('',#674);
#28=PLANE('',#679);
#29=PLANE('',#684);
#30=PLANE('',#689);
#31=PLANE('',#699);
#32=PLANE('',#703);
#33=PLANE('',#707);
#34=PLANE('',#708);
#35=PLANE('',#709);
#36=PLANE('',#713);
#37=PLANE('',#717);
#38=PLANE('',#721);
#39=PLANE('',#725);
#40=PLANE('',#729);
#41=PLANE('',#733);
#42=PLANE('',#737);
#43=PLANE('',#741);
#44=PLANE('',#742);
#45=FACE_OUTER_BOUND('',#81,.T.);
#46=FACE_OUTER_BOUND('',#82,.T.);
#47=FACE_OUTER_BOUND('',#84,.T.);
#48=FACE_OUTER_BOUND('',#85,.T.);
#49=FACE_OUTER_BOUND('',#87,.T.);
#50=FACE_OUTER_BOUND('',#88,.T.);
#51=FACE_OUTER_BOUND('',#90,.T.);
#52=FACE_OUTER_BOUND('',#91,.T.);
#53=FACE_OUTER_BOUND('',#93,.T.);
#54=FACE_OUTER_BOUND('',#94,.T.);
#55=FACE_OUTER_BOUND('',#95,.T.);
#56=FACE_OUTER_BOUND('',#96,.T.);
#57=FACE_OUTER_BOUND('',#97,.T.);
#58=FACE_OUTER_BOUND('',#98,.T.);
#59=FACE_OUTER_BOUND('',#99,.T.);
#60=FACE_OUTER_BOUND('',#100,.T.);
#61=FACE_OUTER_BOUND('',#101,.T.);
#62=FACE_OUTER_BOUND('',#102,.T.);
#63=FACE_OUTER_BOUND('',#103,.T.);
#64=FACE_OUTER_BOUND('',#104,.T.);
#65=FACE_OUTER_BOUND('',#105,.T.);
#66=FACE_OUTER_BOUND('',#106,.T.);
#67=FACE_OUTER_BOUND('',#107,.T.);
#68=FACE_OUTER_BOUND('',#108,.T.);
#69=FACE_OUTER_BOUND('',#109,.T.);
#70=FACE_OUTER_BOUND('',#110,.T.);
#71=FACE_OUTER_BOUND('',#111,.T.);
#72=FACE_OUTER_BOUND('',#112,.T.);
#73=FACE_OUTER_BOUND('',#113,.T.);
#74=FACE_OUTER_BOUND('',#114,.T.);
#75=FACE_OUTER_BOUND('',#115,.T.);
#76=FACE_OUTER_BOUND('',#116,.T.);
#77=FACE_OUTER_BOUND('',#117,.T.);
#78=FACE_OUTER_BOUND('',#118,.T.);
#79=FACE_OUTER_BOUND('',#119,.T.);
#80=FACE_OUTER_BOUND('',#124,.T.);
#81=EDGE_LOOP('',(#423,#424,#425,#426));
#82=EDGE_LOOP('',(#427));
#83=EDGE_LOOP('',(#428));
#84=EDGE_LOOP('',(#429,#430,#431,#432));
#85=EDGE_LOOP('',(#433));
#86=EDGE_LOOP('',(#434));
#87=EDGE_LOOP('',(#435,#436,#437,#438));
#88=EDGE_LOOP('',(#439));
#89=EDGE_LOOP('',(#440));
#90=EDGE_LOOP('',(#441,#442,#443,#444));
#91=EDGE_LOOP('',(#445));
#92=EDGE_LOOP('',(#446));
#93=EDGE_LOOP('',(#447,#448,#449,#450));
#94=EDGE_LOOP('',(#451,#452,#453,#454));
#95=EDGE_LOOP('',(#455,#456,#457,#458));
#96=EDGE_LOOP('',(#459,#460,#461,#462));
#97=EDGE_LOOP('',(#463,#464,#465,#466));
#98=EDGE_LOOP('',(#467,#468,#469,#470));
#99=EDGE_LOOP('',(#471,#472,#473,#474));
#100=EDGE_LOOP('',(#475,#476,#477,#478));
#101=EDGE_LOOP('',(#479,#480,#481,#482));
#102=EDGE_LOOP('',(#483,#484,#485,#486));
#103=EDGE_LOOP('',(#487,#488,#489,#490));
#104=EDGE_LOOP('',(#491,#492,#493,#494));
#105=EDGE_LOOP('',(#495,#496,#497,#498));
#106=EDGE_LOOP('',(#499,#500,#501,#502));
#107=EDGE_LOOP('',(#503,#504,#505,#506));
#108=EDGE_LOOP('',(#507,#508,#509,#510));
#109=EDGE_LOOP('',(#511,#512,#513,#514));
#110=EDGE_LOOP('',(#515,#516,#517,#518));
#111=EDGE_LOOP('',(#519,#520,#521,#522));
#112=EDGE_LOOP('',(#523,#524,#525,#526));
#113=EDGE_LOOP('',(#527,#528,#529,#530));
#114=EDGE_LOOP('',(#531,#532,#533,#534));
#115=EDGE_LOOP('',(#535,#536,#537,#538));
#116=EDGE_LOOP('',(#539,#540,#541,#542));
#117=EDGE_LOOP('',(#543,#544,#545,#546));
#118=EDGE_LOOP('',(#547,#548,#549,#550));
#119=EDGE_LOOP('',(#551,#552,#553,#554,#555,#556,#557,#558,#559,#560,#561,
#562,#563,#564,#565,#566,#567,#568,#569,#570,#571,#572));
#120=EDGE_LOOP('',(#573));
#121=EDGE_LOOP('',(#574));
#122=EDGE_LOOP('',(#575));
#123=EDGE_LOOP('',(#576));
#124=EDGE_LOOP('',(#577,#578,#579,#580,#581,#582,#583,#584,#585,#586,#587,
#588,#589,#590,#591,#592,#593,#594,#595,#596,#597,#598));
#125=EDGE_LOOP('',(#599));
#126=EDGE_LOOP('',(#600));
#127=EDGE_LOOP('',(#601));
#128=EDGE_LOOP('',(#602));
#129=LINE('',#948,#183);
#130=LINE('',#957,#184);
#131=LINE('',#966,#185);
#132=LINE('',#975,#186);
#133=LINE('',#982,#187);
#134=LINE('',#986,#188);
#135=LINE('',#990,#189);
#136=LINE('',#994,#190);
#137=LINE('',#999,#191);
#138=LINE('',#1001,#192);
#139=LINE('',#1003,#193);
#140=LINE('',#1004,#194);
#141=LINE('',#1010,#195);
#142=LINE('',#1013,#196);
#143=LINE('',#1015,#197);
#144=LINE('',#1016,#198);
#145=LINE('',#1022,#199);
#146=LINE('',#1025,#200);
#147=LINE('',#1027,#201);
#148=LINE('',#1028,#202);
#149=LINE('',#1031,#203);
#150=LINE('',#1033,#204);
#151=LINE('',#1034,#205);
#152=LINE('',#1037,#206);
#153=LINE('',#1039,#207);
#154=LINE('',#1040,#208);
#155=LINE('',#1046,#209);
#156=LINE('',#1049,#210);
#157=LINE('',#1051,#211);
#158=LINE('',#1052,#212);
#159=LINE('',#1058,#213);
#160=LINE('',#1061,#214);
#161=LINE('',#1063,#215);
#162=LINE('',#1064,#216);
#163=LINE('',#1070,#217);
#164=LINE('',#1073,#218);
#165=LINE('',#1075,#219);
#166=LINE('',#1076,#220);
#167=LINE('',#1082,#221);
#168=LINE('',#1085,#222);
#169=LINE('',#1087,#223);
#170=LINE('',#1088,#224);
#171=LINE('',#1094,#225);
#172=LINE('',#1097,#226);
#173=LINE('',#1099,#227);
#174=LINE('',#1100,#228);
#175=LINE('',#1106,#229);
#176=LINE('',#1109,#230);
#177=LINE('',#1111,#231);
#178=LINE('',#1112,#232);
#179=LINE('',#1118,#233);
#180=LINE('',#1121,#234);
#181=LINE('',#1123,#235);
#182=LINE('',#1124,#236);
#183=VECTOR('',#749,0.215);
#184=VECTOR('',#760,0.215);
#185=VECTOR('',#771,0.215);
#186=VECTOR('',#782,0.215);
#187=VECTOR('',#791,0.115);
#188=VECTOR('',#796,0.115);
#189=VECTOR('',#801,0.115);
#190=VECTOR('',#806,0.115);
#191=VECTOR('',#811,1.);
#192=VECTOR('',#812,1.);
#193=VECTOR('',#813,1.);
#194=VECTOR('',#814,1.);
#195=VECTOR('',#821,1.);
#196=VECTOR('',#824,1.);
#197=VECTOR('',#825,1.);
#198=VECTOR('',#826,1.);
#199=VECTOR('',#833,1.);
#200=VECTOR('',#836,1.);
#201=VECTOR('',#837,1.);
#202=VECTOR('',#838,1.);
#203=VECTOR('',#841,1.);
#204=VECTOR('',#842,1.);
#205=VECTOR('',#843,1.);
#206=VECTOR('',#846,1.);
#207=VECTOR('',#847,1.);
#208=VECTOR('',#848,1.);
#209=VECTOR('',#855,1.);
#210=VECTOR('',#858,1.);
#211=VECTOR('',#859,1.);
#212=VECTOR('',#860,1.);
#213=VECTOR('',#867,1.);
#214=VECTOR('',#870,1.);
#215=VECTOR('',#871,1.);
#216=VECTOR('',#872,1.);
#217=VECTOR('',#879,1.);
#218=VECTOR('',#882,1.);
#219=VECTOR('',#883,1.);
#220=VECTOR('',#884,1.);
#221=VECTOR('',#891,1.);
#222=VECTOR('',#894,1.);
#223=VECTOR('',#895,1.);
#224=VECTOR('',#896,1.);
#225=VECTOR('',#903,1.);
#226=VECTOR('',#906,1.);
#227=VECTOR('',#907,1.);
#228=VECTOR('',#908,1.);
#229=VECTOR('',#915,1.);
#230=VECTOR('',#918,1.);
#231=VECTOR('',#919,1.);
#232=VECTOR('',#920,1.);
#233=VECTOR('',#927,1.);
#234=VECTOR('',#930,1.);
#235=VECTOR('',#931,1.);
#236=VECTOR('',#932,1.);
#237=CIRCLE('',#672,0.215);
#238=CIRCLE('',#673,0.215);
#239=CIRCLE('',#675,0.115);
#240=CIRCLE('',#677,0.215);
#241=CIRCLE('',#678,0.215);
#242=CIRCLE('',#680,0.115);
#243=CIRCLE('',#682,0.215);
#244=CIRCLE('',#683,0.215);
#245=CIRCLE('',#685,0.115);
#246=CIRCLE('',#687,0.215);
#247=CIRCLE('',#688,0.215);
#248=CIRCLE('',#690,0.115);
#249=CIRCLE('',#692,0.115);
#250=CIRCLE('',#694,0.115);
#251=CIRCLE('',#696,0.115);
#252=CIRCLE('',#698,0.115);
#253=CIRCLE('',#701,0.100000000063692);
#254=CIRCLE('',#702,0.100000000063692);
#255=CIRCLE('',#705,0.100000000063691);
#256=CIRCLE('',#706,0.100000000063691);
#257=CIRCLE('',#711,0.100000000063692);
#258=CIRCLE('',#712,0.100000000063692);
#259=CIRCLE('',#715,0.100000000063692);
#260=CIRCLE('',#716,0.100000000063692);
#261=CIRCLE('',#719,0.299999999849652);
#262=CIRCLE('',#720,0.299999999849652);
#263=CIRCLE('',#723,0.299999999849652);
#264=CIRCLE('',#724,0.299999999849652);
#265=CIRCLE('',#727,0.29999999984965);
#266=CIRCLE('',#728,0.29999999984965);
#267=CIRCLE('',#731,0.300000000020361);
#268=CIRCLE('',#732,0.300000000020361);
#269=CIRCLE('',#735,0.299999999849651);
#270=CIRCLE('',#736,0.299999999849651);
#271=CIRCLE('',#739,0.299999999849652);
#272=CIRCLE('',#740,0.299999999849652);
#273=VERTEX_POINT('',#945);
#274=VERTEX_POINT('',#947);
#275=VERTEX_POINT('',#951);
#276=VERTEX_POINT('',#954);
#277=VERTEX_POINT('',#956);
#278=VERTEX_POINT('',#960);
#279=VERTEX_POINT('',#963);
#280=VERTEX_POINT('',#965);
#281=VERTEX_POINT('',#969);
#282=VERTEX_POINT('',#972);
#283=VERTEX_POINT('',#974);
#284=VERTEX_POINT('',#978);
#285=VERTEX_POINT('',#981);
#286=VERTEX_POINT('',#985);
#287=VERTEX_POINT('',#989);
#288=VERTEX_POINT('',#993);
#289=VERTEX_POINT('',#997);
#290=VERTEX_POINT('',#998);
#291=VERTEX_POINT('',#1000);
#292=VERTEX_POINT('',#1002);
#293=VERTEX_POINT('',#1006);
#294=VERTEX_POINT('',#1008);
#295=VERTEX_POINT('',#1012);
#296=VERTEX_POINT('',#1014);
#297=VERTEX_POINT('',#1018);
#298=VERTEX_POINT('',#1020);
#299=VERTEX_POINT('',#1024);
#300=VERTEX_POINT('',#1026);
#301=VERTEX_POINT('',#1030);
#302=VERTEX_POINT('',#1032);
#303=VERTEX_POINT('',#1036);
#304=VERTEX_POINT('',#1038);
#305=VERTEX_POINT('',#1042);
#306=VERTEX_POINT('',#1044);
#307=VERTEX_POINT('',#1048);
#308=VERTEX_POINT('',#1050);
#309=VERTEX_POINT('',#1054);
#310=VERTEX_POINT('',#1056);
#311=VERTEX_POINT('',#1060);
#312=VERTEX_POINT('',#1062);
#313=VERTEX_POINT('',#1066);
#314=VERTEX_POINT('',#1068);
#315=VERTEX_POINT('',#1072);
#316=VERTEX_POINT('',#1074);
#317=VERTEX_POINT('',#1078);
#318=VERTEX_POINT('',#1080);
#319=VERTEX_POINT('',#1084);
#320=VERTEX_POINT('',#1086);
#321=VERTEX_POINT('',#1090);
#322=VERTEX_POINT('',#1092);
#323=VERTEX_POINT('',#1096);
#324=VERTEX_POINT('',#1098);
#325=VERTEX_POINT('',#1102);
#326=VERTEX_POINT('',#1104);
#327=VERTEX_POINT('',#1108);
#328=VERTEX_POINT('',#1110);
#329=VERTEX_POINT('',#1114);
#330=VERTEX_POINT('',#1116);
#331=VERTEX_POINT('',#1120);
#332=VERTEX_POINT('',#1122);
#333=EDGE_CURVE('',#273,#273,#237,.T.);
#334=EDGE_CURVE('',#273,#274,#129,.T.);
#335=EDGE_CURVE('',#274,#274,#238,.T.);
#336=EDGE_CURVE('',#275,#275,#239,.T.);
#337=EDGE_CURVE('',#276,#276,#240,.T.);
#338=EDGE_CURVE('',#276,#277,#130,.T.);
#339=EDGE_CURVE('',#277,#277,#241,.T.);
#340=EDGE_CURVE('',#278,#278,#242,.T.);
#341=EDGE_CURVE('',#279,#279,#243,.T.);
#342=EDGE_CURVE('',#279,#280,#131,.T.);
#343=EDGE_CURVE('',#280,#280,#244,.T.);
#344=EDGE_CURVE('',#281,#281,#245,.T.);
#345=EDGE_CURVE('',#282,#282,#246,.T.);
#346=EDGE_CURVE('',#282,#283,#132,.T.);
#347=EDGE_CURVE('',#283,#283,#247,.T.);
#348=EDGE_CURVE('',#284,#284,#248,.T.);
#349=EDGE_CURVE('',#275,#285,#133,.T.);
#350=EDGE_CURVE('',#285,#285,#249,.T.);
#351=EDGE_CURVE('',#278,#286,#134,.T.);
#352=EDGE_CURVE('',#286,#286,#250,.T.);
#353=EDGE_CURVE('',#281,#287,#135,.T.);
#354=EDGE_CURVE('',#287,#287,#251,.T.);
#355=EDGE_CURVE('',#284,#288,#136,.T.);
#356=EDGE_CURVE('',#288,#288,#252,.T.);
#357=EDGE_CURVE('',#289,#290,#137,.T.);
#358=EDGE_CURVE('',#289,#291,#138,.T.);
#359=EDGE_CURVE('',#292,#291,#139,.T.);
#360=EDGE_CURVE('',#290,#292,#140,.T.);
#361=EDGE_CURVE('',#290,#293,#253,.T.);
#362=EDGE_CURVE('',#294,#292,#254,.T.);
#363=EDGE_CURVE('',#293,#294,#141,.T.);
#364=EDGE_CURVE('',#293,#295,#142,.T.);
#365=EDGE_CURVE('',#296,#294,#143,.T.);
#366=EDGE_CURVE('',#295,#296,#144,.T.);
#367=EDGE_CURVE('',#295,#297,#255,.T.);
#368=EDGE_CURVE('',#298,#296,#256,.T.);
#369=EDGE_CURVE('',#297,#298,#145,.T.);
#370=EDGE_CURVE('',#297,#299,#146,.T.);
#371=EDGE_CURVE('',#300,#298,#147,.T.);
#372=EDGE_CURVE('',#299,#300,#148,.T.);
#373=EDGE_CURVE('',#299,#301,#149,.T.);
#374=EDGE_CURVE('',#302,#300,#150,.T.);
#375=EDGE_CURVE('',#301,#302,#151,.T.);
#376=EDGE_CURVE('',#301,#303,#152,.T.);
#377=EDGE_CURVE('',#304,#302,#153,.T.);
#378=EDGE_CURVE('',#303,#304,#154,.T.);
#379=EDGE_CURVE('',#303,#305,#257,.T.);
#380=EDGE_CURVE('',#306,#304,#258,.T.);
#381=EDGE_CURVE('',#305,#306,#155,.T.);
#382=EDGE_CURVE('',#305,#307,#156,.T.);
#383=EDGE_CURVE('',#308,#306,#157,.T.);
#384=EDGE_CURVE('',#307,#308,#158,.T.);
#385=EDGE_CURVE('',#307,#309,#259,.T.);
#386=EDGE_CURVE('',#310,#308,#260,.T.);
#387=EDGE_CURVE('',#309,#310,#159,.T.);
#388=EDGE_CURVE('',#309,#311,#160,.T.);
#389=EDGE_CURVE('',#312,#310,#161,.T.);
#390=EDGE_CURVE('',#311,#312,#162,.T.);
#391=EDGE_CURVE('',#313,#311,#261,.T.);
#392=EDGE_CURVE('',#314,#312,#262,.T.);
#393=EDGE_CURVE('',#313,#314,#163,.T.);
#394=EDGE_CURVE('',#313,#315,#164,.T.);
#395=EDGE_CURVE('',#316,#314,#165,.T.);
#396=EDGE_CURVE('',#315,#316,#166,.T.);
#397=EDGE_CURVE('',#317,#315,#263,.T.);
#398=EDGE_CURVE('',#318,#316,#264,.T.);
#399=EDGE_CURVE('',#317,#318,#167,.T.);
#400=EDGE_CURVE('',#317,#319,#168,.T.);
#401=EDGE_CURVE('',#320,#318,#169,.T.);
#402=EDGE_CURVE('',#319,#320,#170,.T.);
#403=EDGE_CURVE('',#321,#319,#265,.T.);
#404=EDGE_CURVE('',#322,#320,#266,.T.);
#405=EDGE_CURVE('',#321,#322,#171,.T.);
#406=EDGE_CURVE('',#321,#323,#172,.T.);
#407=EDGE_CURVE('',#324,#322,#173,.T.);
#408=EDGE_CURVE('',#323,#324,#174,.T.);
#409=EDGE_CURVE('',#325,#323,#267,.T.);
#410=EDGE_CURVE('',#326,#324,#268,.T.);
#411=EDGE_CURVE('',#325,#326,#175,.T.);
#412=EDGE_CURVE('',#325,#327,#176,.T.);
#413=EDGE_CURVE('',#328,#326,#177,.T.);
#414=EDGE_CURVE('',#327,#328,#178,.T.);
#415=EDGE_CURVE('',#329,#327,#269,.T.);
#416=EDGE_CURVE('',#330,#328,#270,.T.);
#417=EDGE_CURVE('',#329,#330,#179,.T.);
#418=EDGE_CURVE('',#329,#331,#180,.T.);
#419=EDGE_CURVE('',#332,#330,#181,.T.);
#420=EDGE_CURVE('',#331,#332,#182,.T.);
#421=EDGE_CURVE('',#289,#331,#271,.T.);
#422=EDGE_CURVE('',#291,#332,#272,.T.);
#423=ORIENTED_EDGE('',*,*,#333,.F.);
#424=ORIENTED_EDGE('',*,*,#334,.T.);
#425=ORIENTED_EDGE('',*,*,#335,.T.);
#426=ORIENTED_EDGE('',*,*,#334,.F.);
#427=ORIENTED_EDGE('',*,*,#335,.F.);
#428=ORIENTED_EDGE('',*,*,#336,.F.);
#429=ORIENTED_EDGE('',*,*,#337,.F.);
#430=ORIENTED_EDGE('',*,*,#338,.T.);
#431=ORIENTED_EDGE('',*,*,#339,.T.);
#432=ORIENTED_EDGE('',*,*,#338,.F.);
#433=ORIENTED_EDGE('',*,*,#339,.F.);
#434=ORIENTED_EDGE('',*,*,#340,.F.);
#435=ORIENTED_EDGE('',*,*,#341,.F.);
#436=ORIENTED_EDGE('',*,*,#342,.T.);
#437=ORIENTED_EDGE('',*,*,#343,.T.);
#438=ORIENTED_EDGE('',*,*,#342,.F.);
#439=ORIENTED_EDGE('',*,*,#343,.F.);
#440=ORIENTED_EDGE('',*,*,#344,.F.);
#441=ORIENTED_EDGE('',*,*,#345,.F.);
#442=ORIENTED_EDGE('',*,*,#346,.T.);
#443=ORIENTED_EDGE('',*,*,#347,.T.);
#444=ORIENTED_EDGE('',*,*,#346,.F.);
#445=ORIENTED_EDGE('',*,*,#347,.F.);
#446=ORIENTED_EDGE('',*,*,#348,.F.);
#447=ORIENTED_EDGE('',*,*,#336,.T.);
#448=ORIENTED_EDGE('',*,*,#349,.T.);
#449=ORIENTED_EDGE('',*,*,#350,.F.);
#450=ORIENTED_EDGE('',*,*,#349,.F.);
#451=ORIENTED_EDGE('',*,*,#340,.T.);
#452=ORIENTED_EDGE('',*,*,#351,.T.);
#453=ORIENTED_EDGE('',*,*,#352,.F.);
#454=ORIENTED_EDGE('',*,*,#351,.F.);
#455=ORIENTED_EDGE('',*,*,#344,.T.);
#456=ORIENTED_EDGE('',*,*,#353,.T.);
#457=ORIENTED_EDGE('',*,*,#354,.F.);
#458=ORIENTED_EDGE('',*,*,#353,.F.);
#459=ORIENTED_EDGE('',*,*,#348,.T.);
#460=ORIENTED_EDGE('',*,*,#355,.T.);
#461=ORIENTED_EDGE('',*,*,#356,.F.);
#462=ORIENTED_EDGE('',*,*,#355,.F.);
#463=ORIENTED_EDGE('',*,*,#357,.F.);
#464=ORIENTED_EDGE('',*,*,#358,.T.);
#465=ORIENTED_EDGE('',*,*,#359,.F.);
#466=ORIENTED_EDGE('',*,*,#360,.F.);
#467=ORIENTED_EDGE('',*,*,#361,.F.);
#468=ORIENTED_EDGE('',*,*,#360,.T.);
#469=ORIENTED_EDGE('',*,*,#362,.F.);
#470=ORIENTED_EDGE('',*,*,#363,.F.);
#471=ORIENTED_EDGE('',*,*,#364,.F.);
#472=ORIENTED_EDGE('',*,*,#363,.T.);
#473=ORIENTED_EDGE('',*,*,#365,.F.);
#474=ORIENTED_EDGE('',*,*,#366,.F.);
#475=ORIENTED_EDGE('',*,*,#367,.F.);
#476=ORIENTED_EDGE('',*,*,#366,.T.);
#477=ORIENTED_EDGE('',*,*,#368,.F.);
#478=ORIENTED_EDGE('',*,*,#369,.F.);
#479=ORIENTED_EDGE('',*,*,#370,.F.);
#480=ORIENTED_EDGE('',*,*,#369,.T.);
#481=ORIENTED_EDGE('',*,*,#371,.F.);
#482=ORIENTED_EDGE('',*,*,#372,.F.);
#483=ORIENTED_EDGE('',*,*,#373,.F.);
#484=ORIENTED_EDGE('',*,*,#372,.T.);
#485=ORIENTED_EDGE('',*,*,#374,.F.);
#486=ORIENTED_EDGE('',*,*,#375,.F.);
#487=ORIENTED_EDGE('',*,*,#376,.F.);
#488=ORIENTED_EDGE('',*,*,#375,.T.);
#489=ORIENTED_EDGE('',*,*,#377,.F.);
#490=ORIENTED_EDGE('',*,*,#378,.F.);
#491=ORIENTED_EDGE('',*,*,#379,.F.);
#492=ORIENTED_EDGE('',*,*,#378,.T.);
#493=ORIENTED_EDGE('',*,*,#380,.F.);
#494=ORIENTED_EDGE('',*,*,#381,.F.);
#495=ORIENTED_EDGE('',*,*,#382,.F.);
#496=ORIENTED_EDGE('',*,*,#381,.T.);
#497=ORIENTED_EDGE('',*,*,#383,.F.);
#498=ORIENTED_EDGE('',*,*,#384,.F.);
#499=ORIENTED_EDGE('',*,*,#385,.F.);
#500=ORIENTED_EDGE('',*,*,#384,.T.);
#501=ORIENTED_EDGE('',*,*,#386,.F.);
#502=ORIENTED_EDGE('',*,*,#387,.F.);
#503=ORIENTED_EDGE('',*,*,#388,.F.);
#504=ORIENTED_EDGE('',*,*,#387,.T.);
#505=ORIENTED_EDGE('',*,*,#389,.F.);
#506=ORIENTED_EDGE('',*,*,#390,.F.);
#507=ORIENTED_EDGE('',*,*,#391,.T.);
#508=ORIENTED_EDGE('',*,*,#390,.T.);
#509=ORIENTED_EDGE('',*,*,#392,.F.);
#510=ORIENTED_EDGE('',*,*,#393,.F.);
#511=ORIENTED_EDGE('',*,*,#394,.F.);
#512=ORIENTED_EDGE('',*,*,#393,.T.);
#513=ORIENTED_EDGE('',*,*,#395,.F.);
#514=ORIENTED_EDGE('',*,*,#396,.F.);
#515=ORIENTED_EDGE('',*,*,#397,.T.);
#516=ORIENTED_EDGE('',*,*,#396,.T.);
#517=ORIENTED_EDGE('',*,*,#398,.F.);
#518=ORIENTED_EDGE('',*,*,#399,.F.);
#519=ORIENTED_EDGE('',*,*,#400,.F.);
#520=ORIENTED_EDGE('',*,*,#399,.T.);
#521=ORIENTED_EDGE('',*,*,#401,.F.);
#522=ORIENTED_EDGE('',*,*,#402,.F.);
#523=ORIENTED_EDGE('',*,*,#403,.T.);
#524=ORIENTED_EDGE('',*,*,#402,.T.);
#525=ORIENTED_EDGE('',*,*,#404,.F.);
#526=ORIENTED_EDGE('',*,*,#405,.F.);
#527=ORIENTED_EDGE('',*,*,#406,.F.);
#528=ORIENTED_EDGE('',*,*,#405,.T.);
#529=ORIENTED_EDGE('',*,*,#407,.F.);
#530=ORIENTED_EDGE('',*,*,#408,.F.);
#531=ORIENTED_EDGE('',*,*,#409,.T.);
#532=ORIENTED_EDGE('',*,*,#408,.T.);
#533=ORIENTED_EDGE('',*,*,#410,.F.);
#534=ORIENTED_EDGE('',*,*,#411,.F.);
#535=ORIENTED_EDGE('',*,*,#412,.F.);
#536=ORIENTED_EDGE('',*,*,#411,.T.);
#537=ORIENTED_EDGE('',*,*,#413,.F.);
#538=ORIENTED_EDGE('',*,*,#414,.F.);
#539=ORIENTED_EDGE('',*,*,#415,.T.);
#540=ORIENTED_EDGE('',*,*,#414,.T.);
#541=ORIENTED_EDGE('',*,*,#416,.F.);
#542=ORIENTED_EDGE('',*,*,#417,.F.);
#543=ORIENTED_EDGE('',*,*,#418,.F.);
#544=ORIENTED_EDGE('',*,*,#417,.T.);
#545=ORIENTED_EDGE('',*,*,#419,.F.);
#546=ORIENTED_EDGE('',*,*,#420,.F.);
#547=ORIENTED_EDGE('',*,*,#421,.T.);
#548=ORIENTED_EDGE('',*,*,#420,.T.);
#549=ORIENTED_EDGE('',*,*,#422,.F.);
#550=ORIENTED_EDGE('',*,*,#358,.F.);
#551=ORIENTED_EDGE('',*,*,#422,.T.);
#552=ORIENTED_EDGE('',*,*,#419,.T.);
#553=ORIENTED_EDGE('',*,*,#416,.T.);
#554=ORIENTED_EDGE('',*,*,#413,.T.);
#555=ORIENTED_EDGE('',*,*,#410,.T.);
#556=ORIENTED_EDGE('',*,*,#407,.T.);
#557=ORIENTED_EDGE('',*,*,#404,.T.);
#558=ORIENTED_EDGE('',*,*,#401,.T.);
#559=ORIENTED_EDGE('',*,*,#398,.T.);
#560=ORIENTED_EDGE('',*,*,#395,.T.);
#561=ORIENTED_EDGE('',*,*,#392,.T.);
#562=ORIENTED_EDGE('',*,*,#389,.T.);
#563=ORIENTED_EDGE('',*,*,#386,.T.);
#564=ORIENTED_EDGE('',*,*,#383,.T.);
#565=ORIENTED_EDGE('',*,*,#380,.T.);
#566=ORIENTED_EDGE('',*,*,#377,.T.);
#567=ORIENTED_EDGE('',*,*,#374,.T.);
#568=ORIENTED_EDGE('',*,*,#371,.T.);
#569=ORIENTED_EDGE('',*,*,#368,.T.);
#570=ORIENTED_EDGE('',*,*,#365,.T.);
#571=ORIENTED_EDGE('',*,*,#362,.T.);
#572=ORIENTED_EDGE('',*,*,#359,.T.);
#573=ORIENTED_EDGE('',*,*,#350,.T.);
#574=ORIENTED_EDGE('',*,*,#352,.T.);
#575=ORIENTED_EDGE('',*,*,#354,.T.);
#576=ORIENTED_EDGE('',*,*,#356,.T.);
#577=ORIENTED_EDGE('',*,*,#421,.F.);
#578=ORIENTED_EDGE('',*,*,#357,.T.);
#579=ORIENTED_EDGE('',*,*,#361,.T.);
#580=ORIENTED_EDGE('',*,*,#364,.T.);
#581=ORIENTED_EDGE('',*,*,#367,.T.);
#582=ORIENTED_EDGE('',*,*,#370,.T.);
#583=ORIENTED_EDGE('',*,*,#373,.T.);
#584=ORIENTED_EDGE('',*,*,#376,.T.);
#585=ORIENTED_EDGE('',*,*,#379,.T.);
#586=ORIENTED_EDGE('',*,*,#382,.T.);
#587=ORIENTED_EDGE('',*,*,#385,.T.);
#588=ORIENTED_EDGE('',*,*,#388,.T.);
#589=ORIENTED_EDGE('',*,*,#391,.F.);
#590=ORIENTED_EDGE('',*,*,#394,.T.);
#591=ORIENTED_EDGE('',*,*,#397,.F.);
#592=ORIENTED_EDGE('',*,*,#400,.T.);
#593=ORIENTED_EDGE('',*,*,#403,.F.);
#594=ORIENTED_EDGE('',*,*,#406,.T.);
#595=ORIENTED_EDGE('',*,*,#409,.F.);
#596=ORIENTED_EDGE('',*,*,#412,.T.);
#597=ORIENTED_EDGE('',*,*,#415,.F.);
#598=ORIENTED_EDGE('',*,*,#418,.T.);
#599=ORIENTED_EDGE('',*,*,#345,.T.);
#600=ORIENTED_EDGE('',*,*,#341,.T.);
#601=ORIENTED_EDGE('',*,*,#337,.T.);
#602=ORIENTED_EDGE('',*,*,#333,.T.);
#603=CYLINDRICAL_SURFACE('',#671,0.215);
#604=CYLINDRICAL_SURFACE('',#676,0.215);
#605=CYLINDRICAL_SURFACE('',#681,0.215);
#606=CYLINDRICAL_SURFACE('',#686,0.215);
#607=CYLINDRICAL_SURFACE('',#691,0.115);
#608=CYLINDRICAL_SURFACE('',#693,0.115);
#609=CYLINDRICAL_SURFACE('',#695,0.115);
#610=CYLINDRICAL_SURFACE('',#697,0.115);
#611=CYLINDRICAL_SURFACE('',#700,0.100000000063692);
#612=CYLINDRICAL_SURFACE('',#704,0.100000000063691);
#613=CYLINDRICAL_SURFACE('',#710,0.100000000063692);
#614=CYLINDRICAL_SURFACE('',#714,0.100000000063692);
#615=CYLINDRICAL_SURFACE('',#718,0.299999999849652);
#616=CYLINDRICAL_SURFACE('',#722,0.299999999849652);
#617=CYLINDRICAL_SURFACE('',#726,0.29999999984965);
#618=CYLINDRICAL_SURFACE('',#730,0.300000000020361);
#619=CYLINDRICAL_SURFACE('',#734,0.299999999849651);
#620=CYLINDRICAL_SURFACE('',#738,0.299999999849652);
#621=ADVANCED_FACE('',(#45),#603,.F.);
#622=ADVANCED_FACE('',(#46,#15),#27,.F.);
#623=ADVANCED_FACE('',(#47),#604,.F.);
#624=ADVANCED_FACE('',(#48,#16),#28,.F.);
#625=ADVANCED_FACE('',(#49),#605,.F.);
#626=ADVANCED_FACE('',(#50,#17),#29,.F.);
#627=ADVANCED_FACE('',(#51),#606,.F.);
#628=ADVANCED_FACE('',(#52,#18),#30,.F.);
#629=ADVANCED_FACE('',(#53),#607,.F.);
#630=ADVANCED_FACE('',(#54),#608,.F.);
#631=ADVANCED_FACE('',(#55),#609,.F.);
#632=ADVANCED_FACE('',(#56),#610,.F.);
#633=ADVANCED_FACE('',(#57),#31,.T.);
#634=ADVANCED_FACE('',(#58),#611,.F.);
#635=ADVANCED_FACE('',(#59),#32,.T.);
#636=ADVANCED_FACE('',(#60),#612,.F.);
#637=ADVANCED_FACE('',(#61),#33,.T.);
#638=ADVANCED_FACE('',(#62),#34,.T.);
#639=ADVANCED_FACE('',(#63),#35,.T.);
#640=ADVANCED_FACE('',(#64),#613,.F.);
#641=ADVANCED_FACE('',(#65),#36,.T.);
#642=ADVANCED_FACE('',(#66),#614,.F.);
#643=ADVANCED_FACE('',(#67),#37,.T.);
#644=ADVANCED_FACE('',(#68),#615,.T.);
#645=ADVANCED_FACE('',(#69),#38,.T.);
#646=ADVANCED_FACE('',(#70),#616,.T.);
#647=ADVANCED_FACE('',(#71),#39,.T.);
#648=ADVANCED_FACE('',(#72),#617,.T.);
#649=ADVANCED_FACE('',(#73),#40,.T.);
#650=ADVANCED_FACE('',(#74),#618,.T.);
#651=ADVANCED_FACE('',(#75),#41,.T.);
#652=ADVANCED_FACE('',(#76),#619,.T.);
#653=ADVANCED_FACE('',(#77),#42,.T.);
#654=ADVANCED_FACE('',(#78),#620,.T.);
#655=ADVANCED_FACE('',(#79,#19,#20,#21,#22),#43,.T.);
#656=ADVANCED_FACE('',(#80,#23,#24,#25,#26),#44,.F.);
#657=CLOSED_SHELL('',(#621,#622,#623,#624,#625,#626,#627,#628,#629,#630,
#631,#632,#633,#634,#635,#636,#637,#638,#639,#640,#641,#642,#643,#644,#645,
#646,#647,#648,#649,#650,#651,#652,#653,#654,#655,#656));
#658=DERIVED_UNIT_ELEMENT(#660,1.);
#659=DERIVED_UNIT_ELEMENT(#1135,-3.);
#660=(
MASS_UNIT()
NAMED_UNIT(*)
SI_UNIT(.KILO.,.GRAM.)
);
#661=DERIVED_UNIT((#658,#659));
#662=MEASURE_REPRESENTATION_ITEM('density measure',
POSITIVE_RATIO_MEASURE(7850.),#661);
#663=PROPERTY_DEFINITION_REPRESENTATION(#668,#665);
#664=PROPERTY_DEFINITION_REPRESENTATION(#669,#666);
#665=REPRESENTATION('material name',(#667),#1132);
#666=REPRESENTATION('density',(#662),#1132);
#667=DESCRIPTIVE_REPRESENTATION_ITEM('Steel','Steel');
#668=PROPERTY_DEFINITION('material property','material name',#1142);
#669=PROPERTY_DEFINITION('material property','density of part',#1142);
#670=AXIS2_PLACEMENT_3D('',#943,#743,#744);
#671=AXIS2_PLACEMENT_3D('',#944,#745,#746);
#672=AXIS2_PLACEMENT_3D('',#946,#747,#748);
#673=AXIS2_PLACEMENT_3D('',#949,#750,#751);
#674=AXIS2_PLACEMENT_3D('',#950,#752,#753);
#675=AXIS2_PLACEMENT_3D('',#952,#754,#755);
#676=AXIS2_PLACEMENT_3D('',#953,#756,#757);
#677=AXIS2_PLACEMENT_3D('',#955,#758,#759);
#678=AXIS2_PLACEMENT_3D('',#958,#761,#762);
#679=AXIS2_PLACEMENT_3D('',#959,#763,#764);
#680=AXIS2_PLACEMENT_3D('',#961,#765,#766);
#681=AXIS2_PLACEMENT_3D('',#962,#767,#768);
#682=AXIS2_PLACEMENT_3D('',#964,#769,#770);
#683=AXIS2_PLACEMENT_3D('',#967,#772,#773);
#684=AXIS2_PLACEMENT_3D('',#968,#774,#775);
#685=AXIS2_PLACEMENT_3D('',#970,#776,#777);
#686=AXIS2_PLACEMENT_3D('',#971,#778,#779);
#687=AXIS2_PLACEMENT_3D('',#973,#780,#781);
#688=AXIS2_PLACEMENT_3D('',#976,#783,#784);
#689=AXIS2_PLACEMENT_3D('',#977,#785,#786);
#690=AXIS2_PLACEMENT_3D('',#979,#787,#788);
#691=AXIS2_PLACEMENT_3D('',#980,#789,#790);
#692=AXIS2_PLACEMENT_3D('',#983,#792,#793);
#693=AXIS2_PLACEMENT_3D('',#984,#794,#795);
#694=AXIS2_PLACEMENT_3D('',#987,#797,#798);
#695=AXIS2_PLACEMENT_3D('',#988,#799,#800);
#696=AXIS2_PLACEMENT_3D('',#991,#802,#803);
#697=AXIS2_PLACEMENT_3D('',#992,#804,#805);
#698=AXIS2_PLACEMENT_3D('',#995,#807,#808);
#699=AXIS2_PLACEMENT_3D('',#996,#809,#810);
#700=AXIS2_PLACEMENT_3D('',#1005,#815,#816);
#701=AXIS2_PLACEMENT_3D('',#1007,#817,#818);
#702=AXIS2_PLACEMENT_3D('',#1009,#819,#820);
#703=AXIS2_PLACEMENT_3D('',#1011,#822,#823);
#704=AXIS2_PLACEMENT_3D('',#1017,#827,#828);
#705=AXIS2_PLACEMENT_3D('',#1019,#829,#830);
#706=AXIS2_PLACEMENT_3D('',#1021,#831,#832);
#707=AXIS2_PLACEMENT_3D('',#1023,#834,#835);
#708=AXIS2_PLACEMENT_3D('',#1029,#839,#840);
#709=AXIS2_PLACEMENT_3D('',#1035,#844,#845);
#710=AXIS2_PLACEMENT_3D('',#1041,#849,#850);
#711=AXIS2_PLACEMENT_3D('',#1043,#851,#852);
#712=AXIS2_PLACEMENT_3D('',#1045,#853,#854);
#713=AXIS2_PLACEMENT_3D('',#1047,#856,#857);
#714=AXIS2_PLACEMENT_3D('',#1053,#861,#862);
#715=AXIS2_PLACEMENT_3D('',#1055,#863,#864);
#716=AXIS2_PLACEMENT_3D('',#1057,#865,#866);
#717=AXIS2_PLACEMENT_3D('',#1059,#868,#869);
#718=AXIS2_PLACEMENT_3D('',#1065,#873,#874);
#719=AXIS2_PLACEMENT_3D('',#1067,#875,#876);
#720=AXIS2_PLACEMENT_3D('',#1069,#877,#878);
#721=AXIS2_PLACEMENT_3D('',#1071,#880,#881);
#722=AXIS2_PLACEMENT_3D('',#1077,#885,#886);
#723=AXIS2_PLACEMENT_3D('',#1079,#887,#888);
#724=AXIS2_PLACEMENT_3D('',#1081,#889,#890);
#725=AXIS2_PLACEMENT_3D('',#1083,#892,#893);
#726=AXIS2_PLACEMENT_3D('',#1089,#897,#898);
#727=AXIS2_PLACEMENT_3D('',#1091,#899,#900);
#728=AXIS2_PLACEMENT_3D('',#1093,#901,#902);
#729=AXIS2_PLACEMENT_3D('',#1095,#904,#905);
#730=AXIS2_PLACEMENT_3D('',#1101,#909,#910);
#731=AXIS2_PLACEMENT_3D('',#1103,#911,#912);
#732=AXIS2_PLACEMENT_3D('',#1105,#913,#914);
#733=AXIS2_PLACEMENT_3D('',#1107,#916,#917);
#734=AXIS2_PLACEMENT_3D('',#1113,#921,#922);
#735=AXIS2_PLACEMENT_3D('',#1115,#923,#924);
#736=AXIS2_PLACEMENT_3D('',#1117,#925,#926);
#737=AXIS2_PLACEMENT_3D('',#1119,#928,#929);
#738=AXIS2_PLACEMENT_3D('',#1125,#933,#934);
#739=AXIS2_PLACEMENT_3D('',#1126,#935,#936);
#740=AXIS2_PLACEMENT_3D('',#1127,#937,#938);
#741=AXIS2_PLACEMENT_3D('',#1128,#939,#940);
#742=AXIS2_PLACEMENT_3D('',#1129,#941,#942);
#743=DIRECTION('axis',(0.,0.,1.));
#744=DIRECTION('refdir',(1.,0.,0.));
#745=DIRECTION('center_axis',(0.,0.,1.));
#746=DIRECTION('ref_axis',(1.,0.,0.));
#747=DIRECTION('center_axis',(0.,0.,1.));
#748=DIRECTION('ref_axis',(1.,0.,0.));
#749=DIRECTION('',(0.,0.,1.));
#750=DIRECTION('center_axis',(0.,0.,1.));
#751=DIRECTION('ref_axis',(1.,0.,0.));
#752=DIRECTION('center_axis',(0.,0.,1.));
#753=DIRECTION('ref_axis',(1.,0.,0.));
#754=DIRECTION('center_axis',(0.,0.,-1.));
#755=DIRECTION('ref_axis',(1.,0.,0.));
#756=DIRECTION('center_axis',(0.,0.,1.));
#757=DIRECTION('ref_axis',(1.,0.,0.));
#758=DIRECTION('center_axis',(0.,0.,1.));
#759=DIRECTION('ref_axis',(1.,0.,0.));
#760=DIRECTION('',(0.,0.,1.));
#761=DIRECTION('center_axis',(0.,0.,1.));
#762=DIRECTION('ref_axis',(1.,0.,0.));
#763=DIRECTION('center_axis',(0.,0.,1.));
#764=DIRECTION('ref_axis',(1.,0.,0.));
#765=DIRECTION('center_axis',(0.,0.,-1.));
#766=DIRECTION('ref_axis',(1.,0.,0.));
#767=DIRECTION('center_axis',(0.,0.,1.));
#768=DIRECTION('ref_axis',(1.,0.,0.));
#769=DIRECTION('center_axis',(0.,0.,1.));
#770=DIRECTION('ref_axis',(1.,0.,0.));
#771=DIRECTION('',(0.,0.,1.));
#772=DIRECTION('center_axis',(0.,0.,1.));
#773=DIRECTION('ref_axis',(1.,0.,0.));
#774=DIRECTION('center_axis',(0.,0.,1.));
#775=DIRECTION('ref_axis',(1.,0.,0.));
#776=DIRECTION('center_axis',(0.,0.,-1.));
#777=DIRECTION('ref_axis',(1.,0.,0.));
#778=DIRECTION('center_axis',(0.,0.,1.));
#779=DIRECTION('ref_axis',(1.,0.,0.));
#780=DIRECTION('center_axis',(0.,0.,1.));
#781=DIRECTION('ref_axis',(1.,0.,0.));
#782=DIRECTION('',(0.,0.,1.));
#783=DIRECTION('center_axis',(0.,0.,1.));
#784=DIRECTION('ref_axis',(1.,0.,0.));
#785=DIRECTION('center_axis',(0.,0.,1.));
#786=DIRECTION('ref_axis',(1.,0.,0.));
#787=DIRECTION('center_axis',(0.,0.,-1.));
#788=DIRECTION('ref_axis',(1.,0.,0.));
#789=DIRECTION('center_axis',(0.,0.,1.));
#790=DIRECTION('ref_axis',(1.,0.,0.));
#791=DIRECTION('',(0.,0.,1.));
#792=DIRECTION('center_axis',(0.,0.,-1.));
#793=DIRECTION('ref_axis',(1.,0.,0.));
#794=DIRECTION('center_axis',(0.,0.,1.));
#795=DIRECTION('ref_axis',(1.,0.,0.));
#796=DIRECTION('',(0.,0.,1.));
#797=DIRECTION('center_axis',(0.,0.,-1.));
#798=DIRECTION('ref_axis',(1.,0.,0.));
#799=DIRECTION('center_axis',(0.,0.,1.));
#800=DIRECTION('ref_axis',(1.,0.,0.));
#801=DIRECTION('',(0.,0.,1.));
#802=DIRECTION('center_axis',(0.,0.,-1.));
#803=DIRECTION('ref_axis',(1.,0.,0.));
#804=DIRECTION('center_axis',(0.,0.,1.));
#805=DIRECTION('ref_axis',(1.,0.,0.));
#806=DIRECTION('',(0.,0.,1.));
#807=DIRECTION('center_axis',(0.,0.,-1.));
#808=DIRECTION('ref_axis',(1.,0.,0.));
#809=DIRECTION('center_axis',(0.,1.,0.));
#810=DIRECTION('ref_axis',(-1.,0.,0.));
#811=DIRECTION('',(1.,0.,0.));
#812=DIRECTION('',(0.,0.,1.));
#813=DIRECTION('',(-1.,0.,0.));
#814=DIRECTION('',(0.,0.,1.));
#815=DIRECTION('center_axis',(0.,0.,1.));
#816=DIRECTION('ref_axis',(6.36921626145487E-10,-1.,0.));
#817=DIRECTION('center_axis',(0.,0.,1.));
#818=DIRECTION('ref_axis',(6.36921626145487E-10,-1.,0.));
#819=DIRECTION('center_axis',(0.,0.,-1.));
#820=DIRECTION('ref_axis',(6.36921626145487E-10,-1.,0.));
#821=DIRECTION('',(0.,0.,1.));
#822=DIRECTION('center_axis',(-1.,0.,0.));
#823=DIRECTION('ref_axis',(0.,-1.,0.));
#824=DIRECTION('',(0.,1.,0.));
#825=DIRECTION('',(0.,-1.,0.));
#826=DIRECTION('',(0.,0.,1.));
#827=DIRECTION('center_axis',(0.,0.,1.));
#828=DIRECTION('ref_axis',(1.,6.36917185253397E-10,0.));
#829=DIRECTION('center_axis',(0.,0.,1.));
#830=DIRECTION('ref_axis',(1.,6.36917185253397E-10,0.));
#831=DIRECTION('center_axis',(0.,0.,-1.));
#832=DIRECTION('ref_axis',(1.,6.36917185253397E-10,0.));
#833=DIRECTION('',(0.,0.,1.));
#834=DIRECTION('center_axis',(0.,-1.,0.));
#835=DIRECTION('ref_axis',(1.,0.,0.));
#836=DIRECTION('',(-1.,0.,0.));
#837=DIRECTION('',(1.,0.,0.));
#838=DIRECTION('',(0.,0.,1.));
#839=DIRECTION('center_axis',(-1.,0.,0.));
#840=DIRECTION('ref_axis',(0.,-1.,0.));
#841=DIRECTION('',(0.,1.,0.));
#842=DIRECTION('',(0.,-1.,0.));
#843=DIRECTION('',(0.,0.,1.));
#844=DIRECTION('center_axis',(0.,1.,0.));
#845=DIRECTION('ref_axis',(-1.,0.,0.));
#846=DIRECTION('',(1.,0.,0.));
#847=DIRECTION('',(-1.,0.,0.));
#848=DIRECTION('',(0.,0.,1.));
#849=DIRECTION('center_axis',(0.,0.,1.));
#850=DIRECTION('ref_axis',(6.36912744361299E-10,-1.,0.));
#851=DIRECTION('center_axis',(0.,0.,1.));
#852=DIRECTION('ref_axis',(6.36912744361299E-10,-1.,0.));
#853=DIRECTION('center_axis',(0.,0.,-1.));
#854=DIRECTION('ref_axis',(6.36912744361299E-10,-1.,0.));
#855=DIRECTION('',(0.,0.,1.));
#856=DIRECTION('center_axis',(-1.,0.,0.));
#857=DIRECTION('ref_axis',(0.,-1.,0.));
#858=DIRECTION('',(0.,1.,0.));
#859=DIRECTION('',(0.,-1.,0.));
#860=DIRECTION('',(0.,0.,1.));
#861=DIRECTION('center_axis',(0.,0.,1.));
#862=DIRECTION('ref_axis',(1.,6.36921626145487E-10,0.));
#863=DIRECTION('center_axis',(0.,0.,1.));
#864=DIRECTION('ref_axis',(1.,6.36921626145487E-10,0.));
#865=DIRECTION('center_axis',(0.,0.,-1.));
#866=DIRECTION('ref_axis',(1.,6.36921626145487E-10,0.));
#867=DIRECTION('',(0.,0.,1.));
#868=DIRECTION('center_axis',(0.,-1.,0.));
#869=DIRECTION('ref_axis',(1.,0.,0.));
#870=DIRECTION('',(-1.,0.,0.));
#871=DIRECTION('',(1.,0.,0.));
#872=DIRECTION('',(0.,0.,1.));
#873=DIRECTION('center_axis',(0.,0.,1.));
#874=DIRECTION('ref_axis',(-1.,5.01160594756423E-10,0.));
#875=DIRECTION('center_axis',(0.,0.,1.));
#876=DIRECTION('ref_axis',(-1.,5.01160594756423E-10,0.));
#877=DIRECTION('center_axis',(0.,0.,1.));
#878=DIRECTION('ref_axis',(-1.,5.01160594756423E-10,0.));
#879=DIRECTION('',(0.,0.,1.));
#880=DIRECTION('center_axis',(-1.,0.,0.));
#881=DIRECTION('ref_axis',(0.,-1.,0.));
#882=DIRECTION('',(0.,1.,0.));
#883=DIRECTION('',(0.,-1.,0.));
#884=DIRECTION('',(0.,0.,1.));
#885=DIRECTION('center_axis',(0.,0.,1.));
#886=DIRECTION('ref_axis',(5.01162075053789E-10,1.,0.));
#887=DIRECTION('center_axis',(0.,0.,1.));
#888=DIRECTION('ref_axis',(5.01162075053789E-10,1.,0.));
#889=DIRECTION('center_axis',(0.,0.,1.));
#890=DIRECTION('ref_axis',(5.01162075053789E-10,1.,0.));
#891=DIRECTION('',(0.,0.,1.));
#892=DIRECTION('center_axis',(0.,1.,0.));
#893=DIRECTION('ref_axis',(-1.,0.,0.));
#894=DIRECTION('',(1.,0.,0.));
#895=DIRECTION('',(-1.,0.,0.));
#896=DIRECTION('',(0.,0.,1.));
#897=DIRECTION('center_axis',(0.,0.,1.));
#898=DIRECTION('ref_axis',(1.,-5.01160594756425E-10,0.));
#899=DIRECTION('center_axis',(0.,0.,1.));
#900=DIRECTION('ref_axis',(1.,-5.01160594756425E-10,0.));
#901=DIRECTION('center_axis',(0.,0.,1.));
#902=DIRECTION('ref_axis',(1.,-5.01160594756425E-10,0.));
#903=DIRECTION('',(0.,0.,1.));
#904=DIRECTION('center_axis',(1.,0.,0.));
#905=DIRECTION('ref_axis',(0.,1.,0.));
#906=DIRECTION('',(0.,-1.,0.));
#907=DIRECTION('',(0.,1.,0.));
#908=DIRECTION('',(0.,0.,1.));
#909=DIRECTION('center_axis',(0.,0.,1.));
#910=DIRECTION('ref_axis',(6.78701539367787E-11,-1.,0.));
#911=DIRECTION('center_axis',(0.,0.,1.));
#912=DIRECTION('ref_axis',(6.78701539367787E-11,-1.,0.));
#913=DIRECTION('center_axis',(0.,0.,1.));
#914=DIRECTION('ref_axis',(6.78701539367787E-11,-1.,0.));
#915=DIRECTION('',(0.,0.,1.));
#916=DIRECTION('center_axis',(0.,-1.,0.));
#917=DIRECTION('ref_axis',(1.,0.,0.));
#918=DIRECTION('',(-1.,0.,0.));
#919=DIRECTION('',(1.,0.,0.));
#920=DIRECTION('',(0.,0.,1.));
#921=DIRECTION('center_axis',(0.,0.,1.));
#922=DIRECTION('ref_axis',(-1.,5.0115763416169E-10,0.));
#923=DIRECTION('center_axis',(0.,0.,1.));
#924=DIRECTION('ref_axis',(-1.,5.0115763416169E-10,0.));
#925=DIRECTION('center_axis',(0.,0.,1.));
#926=DIRECTION('ref_axis',(-1.,5.0115763416169E-10,0.));
#927=DIRECTION('',(0.,0.,1.));
#928=DIRECTION('center_axis',(-1.,0.,0.));
#929=DIRECTION('ref_axis',(0.,-1.,0.));
#930=DIRECTION('',(0.,1.,0.));
#931=DIRECTION('',(0.,-1.,0.));
#932=DIRECTION('',(0.,0.,1.));
#933=DIRECTION('center_axis',(0.,0.,1.));
#934=DIRECTION('ref_axis',(5.01160594756423E-10,1.,0.));
#935=DIRECTION('center_axis',(0.,0.,1.));
#936=DIRECTION('ref_axis',(5.01160594756423E-10,1.,0.));
#937=DIRECTION('center_axis',(0.,0.,1.));
#938=DIRECTION('ref_axis',(5.01160594756423E-10,1.,0.));
#939=DIRECTION('center_axis',(0.,0.,1.));
#940=DIRECTION('ref_axis',(1.,0.,0.));
#941=DIRECTION('center_axis',(0.,0.,1.));
#942=DIRECTION('ref_axis',(1.,0.,0.));
#943=CARTESIAN_POINT('',(0.,0.,0.));
#944=CARTESIAN_POINT('Origin',(-3.,6.16,0.));
#945=CARTESIAN_POINT('',(-3.215,6.16,0.));
#946=CARTESIAN_POINT('Origin',(-3.,6.16,0.));
#947=CARTESIAN_POINT('',(-3.215,6.16,0.23));
#948=CARTESIAN_POINT('',(-3.215,6.16,0.));
#949=CARTESIAN_POINT('Origin',(-3.,6.16,0.23));
#950=CARTESIAN_POINT('Origin',(-3.,6.16,0.23));
#951=CARTESIAN_POINT('',(-3.115,6.16,0.23));
#952=CARTESIAN_POINT('Origin',(-3.,6.16,0.23));
#953=CARTESIAN_POINT('Origin',(2.6,-6.16,0.));
#954=CARTESIAN_POINT('',(2.385,-6.16,0.));
#955=CARTESIAN_POINT('Origin',(2.6,-6.16,0.));
#956=CARTESIAN_POINT('',(2.385,-6.16,0.23));
#957=CARTESIAN_POINT('',(2.385,-6.16,0.));
#958=CARTESIAN_POINT('Origin',(2.6,-6.16,0.23));
#959=CARTESIAN_POINT('Origin',(2.6,-6.16,0.23));
#960=CARTESIAN_POINT('',(2.485,-6.16,0.23));
#961=CARTESIAN_POINT('Origin',(2.6,-6.16,0.23));
#962=CARTESIAN_POINT('Origin',(-3.,-6.16,0.));
#963=CARTESIAN_POINT('',(-3.215,-6.16,0.));
#964=CARTESIAN_POINT('Origin',(-3.,-6.16,0.));
#965=CARTESIAN_POINT('',(-3.215,-6.16,0.23));
#966=CARTESIAN_POINT('',(-3.215,-6.16,0.));
#967=CARTESIAN_POINT('Origin',(-3.,-6.16,0.23));
#968=CARTESIAN_POINT('Origin',(-3.,-6.16,0.23));
#969=CARTESIAN_POINT('',(-3.115,-6.16,0.23));
#970=CARTESIAN_POINT('Origin',(-3.,-6.16,0.23));
#971=CARTESIAN_POINT('Origin',(2.6,6.16,0.));
#972=CARTESIAN_POINT('',(2.385,6.16,0.));
#973=CARTESIAN_POINT('Origin',(2.6,6.16,0.));
#974=CARTESIAN_POINT('',(2.385,6.16,0.23));
#975=CARTESIAN_POINT('',(2.385,6.16,0.));
#976=CARTESIAN_POINT('Origin',(2.6,6.16,0.23));
#977=CARTESIAN_POINT('Origin',(2.6,6.16,0.23));
#978=CARTESIAN_POINT('',(2.485,6.16,0.23));
#979=CARTESIAN_POINT('Origin',(2.6,6.16,0.23));
#980=CARTESIAN_POINT('Origin',(-3.,6.16,0.));
#981=CARTESIAN_POINT('',(-3.115,6.16,0.45));
#982=CARTESIAN_POINT('',(-3.115,6.16,0.));
#983=CARTESIAN_POINT('Origin',(-3.,6.16,0.45));
#984=CARTESIAN_POINT('Origin',(2.6,-6.16,0.));
#985=CARTESIAN_POINT('',(2.485,-6.16,0.45));
#986=CARTESIAN_POINT('',(2.485,-6.16,0.));
#987=CARTESIAN_POINT('Origin',(2.6,-6.16,0.45));
#988=CARTESIAN_POINT('Origin',(-3.,-6.16,0.));
#989=CARTESIAN_POINT('',(-3.115,-6.16,0.45));
#990=CARTESIAN_POINT('',(-3.115,-6.16,0.));
#991=CARTESIAN_POINT('Origin',(-3.,-6.16,0.45));
#992=CARTESIAN_POINT('Origin',(2.6,6.16,0.));
#993=CARTESIAN_POINT('',(2.485,6.16,0.45));
#994=CARTESIAN_POINT('',(2.485,6.16,0.));
#995=CARTESIAN_POINT('Origin',(2.6,6.16,0.45));
#996=CARTESIAN_POINT('Origin',(-2.4,-3.86,0.));
#997=CARTESIAN_POINT('',(-3.,-3.86,0.));
#998=CARTESIAN_POINT('',(-2.4,-3.86,0.));
#999=CARTESIAN_POINT('',(-3.,-3.86,0.));
#1000=CARTESIAN_POINT('',(-3.,-3.86,0.45));
#1001=CARTESIAN_POINT('',(-3.,-3.86,0.));
#1002=CARTESIAN_POINT('',(-2.4,-3.86,0.45));
#1003=CARTESIAN_POINT('',(-3.,-3.86,0.45));
#1004=CARTESIAN_POINT('',(-2.4,-3.86,0.));
#1005=CARTESIAN_POINT('Origin',(-2.40000000006369,-3.75999999993631,0.));
#1006=CARTESIAN_POINT('',(-2.3,-3.76,0.));
#1007=CARTESIAN_POINT('Origin',(-2.40000000006369,-3.75999999993631,0.));
#1008=CARTESIAN_POINT('',(-2.3,-3.76,0.45));
#1009=CARTESIAN_POINT('Origin',(-2.40000000006369,-3.75999999993631,0.45));
#1010=CARTESIAN_POINT('',(-2.3,-3.76,0.));
#1011=CARTESIAN_POINT('Origin',(-2.3,-3.66,0.));
#1012=CARTESIAN_POINT('',(-2.3,-3.66,0.));
#1013=CARTESIAN_POINT('',(-2.3,-3.76,0.));
#1014=CARTESIAN_POINT('',(-2.3,-3.66,0.45));
#1015=CARTESIAN_POINT('',(-2.3,-3.76,0.45));
#1016=CARTESIAN_POINT('',(-2.3,-3.66,0.));
#1017=CARTESIAN_POINT('Origin',(-2.40000000006369,-3.66000000006369,0.));
#1018=CARTESIAN_POINT('',(-2.4,-3.56,0.));
#1019=CARTESIAN_POINT('Origin',(-2.40000000006369,-3.66000000006369,0.));
#1020=CARTESIAN_POINT('',(-2.4,-3.56,0.45));
#1021=CARTESIAN_POINT('Origin',(-2.40000000006369,-3.66000000006369,0.45));
#1022=CARTESIAN_POINT('',(-2.4,-3.56,0.));
#1023=CARTESIAN_POINT('Origin',(-7.53,-3.56,0.));
#1024=CARTESIAN_POINT('',(-7.53,-3.56,0.));
#1025=CARTESIAN_POINT('',(-2.4,-3.56,0.));
#1026=CARTESIAN_POINT('',(-7.53,-3.56,0.45));
#1027=CARTESIAN_POINT('',(-2.4,-3.56,0.45));
#1028=CARTESIAN_POINT('',(-7.53,-3.56,0.));
#1029=CARTESIAN_POINT('Origin',(-7.53,3.56,0.));
#1030=CARTESIAN_POINT('',(-7.53,3.56,0.));
#1031=CARTESIAN_POINT('',(-7.53,-3.56,0.));
#1032=CARTESIAN_POINT('',(-7.53,3.56,0.45));
#1033=CARTESIAN_POINT('',(-7.53,-3.56,0.45));
#1034=CARTESIAN_POINT('',(-7.53,3.56,0.));
#1035=CARTESIAN_POINT('Origin',(-2.4,3.56,0.));
#1036=CARTESIAN_POINT('',(-2.4,3.56,0.));
#1037=CARTESIAN_POINT('',(-7.53,3.56,0.));
#1038=CARTESIAN_POINT('',(-2.4,3.56,0.45));
#1039=CARTESIAN_POINT('',(-7.53,3.56,0.45));
#1040=CARTESIAN_POINT('',(-2.4,3.56,0.));
#1041=CARTESIAN_POINT('Origin',(-2.40000000006369,3.66000000006369,0.));
#1042=CARTESIAN_POINT('',(-2.3,3.66,0.));
#1043=CARTESIAN_POINT('Origin',(-2.40000000006369,3.66000000006369,0.));
#1044=CARTESIAN_POINT('',(-2.3,3.66,0.45));
#1045=CARTESIAN_POINT('Origin',(-2.40000000006369,3.66000000006369,0.45));
#1046=CARTESIAN_POINT('',(-2.3,3.66,0.));
#1047=CARTESIAN_POINT('Origin',(-2.3,3.76,0.));
#1048=CARTESIAN_POINT('',(-2.3,3.76,0.));
#1049=CARTESIAN_POINT('',(-2.3,3.66,0.));
#1050=CARTESIAN_POINT('',(-2.3,3.76,0.45));
#1051=CARTESIAN_POINT('',(-2.3,3.66,0.45));
#1052=CARTESIAN_POINT('',(-2.3,3.76,0.));
#1053=CARTESIAN_POINT('Origin',(-2.40000000006369,3.75999999993631,0.));
#1054=CARTESIAN_POINT('',(-2.4,3.86,0.));
#1055=CARTESIAN_POINT('Origin',(-2.40000000006369,3.75999999993631,0.));
#1056=CARTESIAN_POINT('',(-2.4,3.86,0.45));
#1057=CARTESIAN_POINT('Origin',(-2.40000000006369,3.75999999993631,0.45));
#1058=CARTESIAN_POINT('',(-2.4,3.86,0.));
#1059=CARTESIAN_POINT('Origin',(-3.,3.86,0.));
#1060=CARTESIAN_POINT('',(-3.,3.86,0.));
#1061=CARTESIAN_POINT('',(-2.4,3.86,0.));
#1062=CARTESIAN_POINT('',(-3.,3.86,0.45));
#1063=CARTESIAN_POINT('',(-2.4,3.86,0.45));
#1064=CARTESIAN_POINT('',(-3.,3.86,0.));
#1065=CARTESIAN_POINT('Origin',(-3.00000000015035,4.15999999984965,0.));
#1066=CARTESIAN_POINT('',(-3.3,4.16,0.));
#1067=CARTESIAN_POINT('Origin',(-3.00000000015035,4.15999999984965,0.));
#1068=CARTESIAN_POINT('',(-3.3,4.16,0.45));
#1069=CARTESIAN_POINT('Origin',(-3.00000000015035,4.15999999984965,0.45));
#1070=CARTESIAN_POINT('',(-3.3,4.16,0.));
#1071=CARTESIAN_POINT('Origin',(-3.3,6.16,0.));
#1072=CARTESIAN_POINT('',(-3.3,6.16,0.));
#1073=CARTESIAN_POINT('',(-3.3,4.16,0.));
#1074=CARTESIAN_POINT('',(-3.3,6.16,0.45));
#1075=CARTESIAN_POINT('',(-3.3,4.16,0.45));
#1076=CARTESIAN_POINT('',(-3.3,6.16,0.));
#1077=CARTESIAN_POINT('Origin',(-3.00000000015035,6.16000000015035,0.));
#1078=CARTESIAN_POINT('',(-3.,6.46,0.));
#1079=CARTESIAN_POINT('Origin',(-3.00000000015035,6.16000000015035,0.));
#1080=CARTESIAN_POINT('',(-3.,6.46,0.45));
#1081=CARTESIAN_POINT('Origin',(-3.00000000015035,6.16000000015035,0.45));
#1082=CARTESIAN_POINT('',(-3.,6.46,0.));
#1083=CARTESIAN_POINT('Origin',(2.6,6.46,0.));
#1084=CARTESIAN_POINT('',(2.6,6.46,0.));
#1085=CARTESIAN_POINT('',(-3.,6.46,0.));
#1086=CARTESIAN_POINT('',(2.6,6.46,0.45));
#1087=CARTESIAN_POINT('',(-3.,6.46,0.45));
#1088=CARTESIAN_POINT('',(2.6,6.46,0.));
#1089=CARTESIAN_POINT('Origin',(2.60000000015035,6.16000000015035,0.));
#1090=CARTESIAN_POINT('',(2.9,6.16,0.));
#1091=CARTESIAN_POINT('Origin',(2.60000000015035,6.16000000015035,0.));
#1092=CARTESIAN_POINT('',(2.9,6.16,0.45));
#1093=CARTESIAN_POINT('Origin',(2.60000000015035,6.16000000015035,0.45));
#1094=CARTESIAN_POINT('',(2.9,6.16,0.));
#1095=CARTESIAN_POINT('Origin',(2.9,-6.16,0.));
#1096=CARTESIAN_POINT('',(2.9,-6.16,0.));
#1097=CARTESIAN_POINT('',(2.9,6.16,0.));
#1098=CARTESIAN_POINT('',(2.9,-6.16,0.45));
#1099=CARTESIAN_POINT('',(2.9,6.16,0.45));
#1100=CARTESIAN_POINT('',(2.9,-6.16,0.));
#1101=CARTESIAN_POINT('Origin',(2.59999999997964,-6.15999999997964,0.));
#1102=CARTESIAN_POINT('',(2.6,-6.46,0.));
#1103=CARTESIAN_POINT('Origin',(2.59999999997964,-6.15999999997964,0.));
#1104=CARTESIAN_POINT('',(2.6,-6.46,0.45));
#1105=CARTESIAN_POINT('Origin',(2.59999999997964,-6.15999999997964,0.45));
#1106=CARTESIAN_POINT('',(2.6,-6.46,0.));
#1107=CARTESIAN_POINT('Origin',(-3.,-6.46,0.));
#1108=CARTESIAN_POINT('',(-3.,-6.46,0.));
#1109=CARTESIAN_POINT('',(2.6,-6.46,0.));
#1110=CARTESIAN_POINT('',(-3.,-6.46,0.45));
#1111=CARTESIAN_POINT('',(2.6,-6.46,0.45));
#1112=CARTESIAN_POINT('',(-3.,-6.46,0.));
#1113=CARTESIAN_POINT('Origin',(-3.00000000015035,-6.16000000015035,0.));
#1114=CARTESIAN_POINT('',(-3.3,-6.16,0.));
#1115=CARTESIAN_POINT('Origin',(-3.00000000015035,-6.16000000015035,0.));
#1116=CARTESIAN_POINT('',(-3.3,-6.16,0.45));
#1117=CARTESIAN_POINT('Origin',(-3.00000000015035,-6.16000000015035,0.45));
#1118=CARTESIAN_POINT('',(-3.3,-6.16,0.));
#1119=CARTESIAN_POINT('Origin',(-3.3,-4.16,0.));
#1120=CARTESIAN_POINT('',(-3.3,-4.16,0.));
#1121=CARTESIAN_POINT('',(-3.3,-6.16,0.));
#1122=CARTESIAN_POINT('',(-3.3,-4.16,0.45));
#1123=CARTESIAN_POINT('',(-3.3,-6.16,0.45));
#1124=CARTESIAN_POINT('',(-3.3,-4.16,0.));
#1125=CARTESIAN_POINT('Origin',(-3.00000000015035,-4.15999999984965,0.));
#1126=CARTESIAN_POINT('Origin',(-3.00000000015035,-4.15999999984965,0.));
#1127=CARTESIAN_POINT('Origin',(-3.00000000015035,-4.15999999984965,0.45));
#1128=CARTESIAN_POINT('Origin',(-2.315,0.,0.45));
#1129=CARTESIAN_POINT('Origin',(-2.315,0.,0.));
#1130=UNCERTAINTY_MEASURE_WITH_UNIT(LENGTH_MEASURE(0.001),#1134,
'DISTANCE_ACCURACY_VALUE',
'Maximum model space distance between geometric entities at asserted c
onnectivities');
#1131=UNCERTAINTY_MEASURE_WITH_UNIT(LENGTH_MEASURE(0.001),#1134,
'DISTANCE_ACCURACY_VALUE',
'Maximum model space distance between geometric entities at asserted c
onnectivities');
#1132=(
GEOMETRIC_REPRESENTATION_CONTEXT(3)
GLOBAL_UNCERTAINTY_ASSIGNED_CONTEXT((#1130))
GLOBAL_UNIT_ASSIGNED_CONTEXT((#1134,#1136,#1137))
REPRESENTATION_CONTEXT('','3D')
);
#1133=(
GEOMETRIC_REPRESENTATION_CONTEXT(3)
GLOBAL_UNCERTAINTY_ASSIGNED_CONTEXT((#1131))
GLOBAL_UNIT_ASSIGNED_CONTEXT((#1134,#1136,#1137))
REPRESENTATION_CONTEXT('','3D')
);
#1134=(
LENGTH_UNIT()
NAMED_UNIT(*)
SI_UNIT(.CENTI.,.METRE.)
);
#1135=(
LENGTH_UNIT()
NAMED_UNIT(*)
SI_UNIT($,.METRE.)
);
#1136=(
NAMED_UNIT(*)
PLANE_ANGLE_UNIT()
SI_UNIT($,.RADIAN.)
);
#1137=(
NAMED_UNIT(*)
SI_UNIT($,.STERADIAN.)
SOLID_ANGLE_UNIT()
);
#1138=SHAPE_DEFINITION_REPRESENTATION(#1139,#1140);
#1139=PRODUCT_DEFINITION_SHAPE('',$,#1142);
#1140=SHAPE_REPRESENTATION('',(#670),#1132);
#1141=PRODUCT_DEFINITION_CONTEXT('part definition',#1146,'design');
#1142=PRODUCT_DEFINITION('2026-09-25-20-10-25-456','(Unsaved)',#1143,#1141);
#1143=PRODUCT_DEFINITION_FORMATION('',$,#1148);
#1144=PRODUCT_RELATED_PRODUCT_CATEGORY('(Unsaved)','(Unsaved)',(#1148));
#1145=APPLICATION_PROTOCOL_DEFINITION('international standard',
'automotive_design',2009,#1146);
#1146=APPLICATION_CONTEXT(
'Core Data for Automotive Mechanical Design Process');
#1147=PRODUCT_CONTEXT('part definition',#1146,'mechanical');
#1148=PRODUCT('2026-09-25-20-10-25-456','(Unsaved)',$,(#1147));
#1149=PRESENTATION_STYLE_ASSIGNMENT((#1150));
#1150=SURFACE_STYLE_USAGE(.BOTH.,#1151);
#1151=SURFACE_SIDE_STYLE('',(#1152));
#1152=SURFACE_STYLE_FILL_AREA(#1153);
#1153=FILL_AREA_STYLE('Steel - Satin',(#1154));
#1154=FILL_AREA_STYLE_COLOUR('Steel - Satin',#1155);
#1155=COLOUR_RGB('Steel - Satin',0.627450980392157,0.627450980392157,0.627450980392157);
ENDSEC;
END-ISO-10303-21;
