ISO-10303-21;
HEADER;
/* Generated by software containing ST-Developer
 * from STEP Tools, Inc. (www.steptools.com) 
 */

FILE_DESCRIPTION(
/* description */ (''),
/* implementation_level */ '2;1');

FILE_NAME(
/* name */ 'SeatLeft.step',
/* time_stamp */ '2026-10-08T19:25:30+02:00',
/* author */ (''),
/* organization */ (''),
/* preprocessor_version */ 'ST-DEVELOPER v20.2',
/* originating_system */ 'Autodesk Translation Framework v15.15.0.0',
/* authorisation */ '');

FILE_SCHEMA (('AUTOMOTIVE_DESIGN { 1 0 10303 214 3 1 1 }'));
ENDSEC;

DATA;
#10=MECHANICAL_DESIGN_GEOMETRIC_PRESENTATION_REPRESENTATION('',(#20,#21),
#1705);
#11=CONTEXT_DEPENDENT_OVER_RIDING_STYLED_ITEM('',(#1730),#1716,#21,(#15));
#12=MAPPED_ITEM('',#13,#1041);
#13=REPRESENTATION_MAP(#1041,#1715);
#14=ITEM_DEFINED_TRANSFORMATION($,$,#946,#1040);
#15=(
REPRESENTATION_RELATIONSHIP($,$,#1716,#1715)
REPRESENTATION_RELATIONSHIP_WITH_TRANSFORMATION(#14)
SHAPE_REPRESENTATION_RELATIONSHIP()
);
#16=CONTEXT_DEPENDENT_SHAPE_REPRESENTATION(#15,#1714);
#17=NEXT_ASSEMBLY_USAGE_OCCURRENCE('SeatLeft:1','SeatLeft:1',
'SeatLeft:1',#1718,#1719,'SeatLeft:1');
#18=SHAPE_REPRESENTATION_RELATIONSHIP('SRR','None',#1716,#19);
#19=ADVANCED_BREP_SHAPE_REPRESENTATION('',(#22),#1704);
#20=STYLED_ITEM('',(#1729),#22);
#21=STYLED_ITEM('',(#1732),#12);
#22=MANIFOLD_SOLID_BREP('Body1',#932);
#23=(
BOUNDED_CURVE()
B_SPLINE_CURVE(2,(#1649,#1650,#1651),.UNSPECIFIED.,.F.,.F.)
B_SPLINE_CURVE_WITH_KNOTS((3,3),(0.,0.0602895856987586),.UNSPECIFIED.)
CURVE()
GEOMETRIC_REPRESENTATION_ITEM()
RATIONAL_B_SPLINE_CURVE((1.,1.00011507709241,1.))
REPRESENTATION_ITEM('')
);
#24=(
BOUNDED_CURVE()
B_SPLINE_CURVE(2,(#1670,#1671,#1672),.UNSPECIFIED.,.F.,.F.)
B_SPLINE_CURVE_WITH_KNOTS((3,3),(0.,0.0602895856988465),.UNSPECIFIED.)
CURVE()
GEOMETRIC_REPRESENTATION_ITEM()
RATIONAL_B_SPLINE_CURVE((1.,1.00011507707799,1.))
REPRESENTATION_ITEM('')
);
#25=CONICAL_SURFACE('',#1022,14.4393398282195,0.785398163397281);
#26=CONICAL_SURFACE('',#1039,14.4393398282187,0.785398163397074);
#27=B_SPLINE_SURFACE_WITH_KNOTS('',3,3,((#1472,#1473,#1474,#1475,#1476,
#1477),(#1478,#1479,#1480,#1481,#1482,#1483),(#1484,#1485,#1486,#1487,#1488,
#1489),(#1490,#1491,#1492,#1493,#1494,#1495),(#1496,#1497,#1498,#1499,#1500,
#1501),(#1502,#1503,#1504,#1505,#1506,#1507),(#1508,#1509,#1510,#1511,#1512,
#1513)),.UNSPECIFIED.,.F.,.F.,.F.,(4,1,1,1,4),(4,1,1,4),(0.,0.285714285714286,
0.571428571428571,0.785714285714286,1.),(4.05866402632913E-16,0.285714285714286,
0.571428571428572,1.),.UNSPECIFIED.);
#28=B_SPLINE_CURVE_WITH_KNOTS('',3,(#1366,#1367,#1368,#1369,#1370,#1371,
#1372,#1373,#1374,#1375),.UNSPECIFIED.,.F.,.F.,(4,2,2,2,4),(0.316243170228568,
0.33407438494746,0.352970413672329,0.373300073072129,0.395038278877089),
 .UNSPECIFIED.);
#29=B_SPLINE_CURVE_WITH_KNOTS('',3,(#1384,#1385,#1386,#1387,#1388,#1389,
#1390,#1391,#1392,#1393),.UNSPECIFIED.,.F.,.F.,(4,2,2,2,4),(0.0794176540823012,
0.101770609436149,0.122739885373999,0.14187585603605,0.159488818669726),
 .UNSPECIFIED.);
#30=B_SPLINE_CURVE_WITH_KNOTS('',3,(#1407,#1408,#1409,#1410,#1411,#1412,
#1413,#1414,#1415,#1416),.UNSPECIFIED.,.F.,.F.,(4,2,2,2,4),(0.791809940209919,
0.84100644899451,0.940977398561536,1.04094834812857,1.09014485691317),
 .UNSPECIFIED.);
#31=B_SPLINE_CURVE_WITH_KNOTS('',3,(#1516,#1517,#1518,#1519,#1520,#1521),
 .UNSPECIFIED.,.F.,.F.,(4,1,1,4),(4.05866402632913E-16,0.285714285714286,
0.571428571428572,1.),.UNSPECIFIED.);
#32=B_SPLINE_CURVE_WITH_KNOTS('',3,(#1525,#1526,#1527,#1528,#1529,#1530),
 .UNSPECIFIED.,.F.,.F.,(4,1,1,4),(-1.,-0.571428571428572,-0.285714285714286,
-4.05866402632913E-16),.UNSPECIFIED.);
#33=B_SPLINE_CURVE_WITH_KNOTS('',3,(#1630,#1631,#1632,#1633,#1634,#1635,
#1636,#1637,#1638,#1639,#1640,#1641,#1642,#1643,#1644),.UNSPECIFIED.,.F.,
 .F.,(4,2,2,3,2,2,4),(-0.112305221502001,-0.110587500033243,-0.0545666809326075,
0.,0.0545666809326075,0.110587500033243,0.112305221502056),
 .UNSPECIFIED.);
#34=B_SPLINE_CURVE_WITH_KNOTS('',3,(#1655,#1656,#1657,#1658,#1659,#1660,
#1661,#1662),.UNSPECIFIED.,.F.,.F.,(4,2,2,4),(0.570603394380143,0.573318856187464,
0.667210098616284,0.758054588442901),.UNSPECIFIED.);
#35=B_SPLINE_CURVE_WITH_KNOTS('',3,(#1674,#1675,#1676,#1677,#1678,#1679,
#1680,#1681),.UNSPECIFIED.,.F.,.F.,(4,2,2,4),(0.758054588443383,0.848899078270055,
0.942790320698936,0.945505782506159),.UNSPECIFIED.);
#36=TOROIDAL_SURFACE('',#959,10.,0.5);
#37=TOROIDAL_SURFACE('',#964,9.50000000000001,0.5);
#38=TOROIDAL_SURFACE('',#966,7.,2.);
#39=TOROIDAL_SURFACE('',#991,15.,2.);
#40=TOROIDAL_SURFACE('',#1019,13.5857864376269,1.49999999999821);
#41=TOROIDAL_SURFACE('',#1024,16.,2.5);
#42=TOROIDAL_SURFACE('',#1037,16.,2.50000000000159);
#43=FACE_BOUND('',#127,.T.);
#44=FACE_BOUND('',#148,.T.);
#45=FACE_BOUND('',#150,.T.);
#46=FACE_BOUND('',#167,.T.);
#47=FACE_BOUND('',#169,.T.);
#48=PLANE('',#950);
#49=PLANE('',#954);
#50=PLANE('',#955);
#51=PLANE('',#962);
#52=PLANE('',#977);
#53=PLANE('',#979);
#54=PLANE('',#987);
#55=PLANE('',#996);
#56=PLANE('',#998);
#57=PLANE('',#1005);
#58=PLANE('',#1007);
#59=PLANE('',#1012);
#60=PLANE('',#1013);
#61=PLANE('',#1014);
#62=PLANE('',#1015);
#63=PLANE('',#1016);
#64=PLANE('',#1017);
#65=PLANE('',#1018);
#66=PLANE('',#1027);
#67=PLANE('',#1028);
#68=PLANE('',#1029);
#69=PLANE('',#1030);
#70=PLANE('',#1031);
#71=PLANE('',#1032);
#72=PLANE('',#1033);
#73=FACE_OUTER_BOUND('',#122,.T.);
#74=FACE_OUTER_BOUND('',#123,.T.);
#75=FACE_OUTER_BOUND('',#124,.T.);
#76=FACE_OUTER_BOUND('',#125,.T.);
#77=FACE_OUTER_BOUND('',#126,.T.);
#78=FACE_OUTER_BOUND('',#128,.T.);
#79=FACE_OUTER_BOUND('',#129,.T.);
#80=FACE_OUTER_BOUND('',#130,.T.);
#81=FACE_OUTER_BOUND('',#131,.T.);
#82=FACE_OUTER_BOUND('',#132,.T.);
#83=FACE_OUTER_BOUND('',#133,.T.);
#84=FACE_OUTER_BOUND('',#134,.T.);
#85=FACE_OUTER_BOUND('',#135,.T.);
#86=FACE_OUTER_BOUND('',#136,.T.);
#87=FACE_OUTER_BOUND('',#137,.T.);
#88=FACE_OUTER_BOUND('',#138,.T.);
#89=FACE_OUTER_BOUND('',#139,.T.);
#90=FACE_OUTER_BOUND('',#140,.T.);
#91=FACE_OUTER_BOUND('',#141,.T.);
#92=FACE_OUTER_BOUND('',#142,.T.);
#93=FACE_OUTER_BOUND('',#143,.T.);
#94=FACE_OUTER_BOUND('',#144,.T.);
#95=FACE_OUTER_BOUND('',#145,.T.);
#96=FACE_OUTER_BOUND('',#146,.T.);
#97=FACE_OUTER_BOUND('',#147,.T.);
#98=FACE_OUTER_BOUND('',#149,.T.);
#99=FACE_OUTER_BOUND('',#151,.T.);
#100=FACE_OUTER_BOUND('',#152,.T.);
#101=FACE_OUTER_BOUND('',#153,.T.);
#102=FACE_OUTER_BOUND('',#154,.T.);
#103=FACE_OUTER_BOUND('',#155,.T.);
#104=FACE_OUTER_BOUND('',#156,.T.);
#105=FACE_OUTER_BOUND('',#157,.T.);
#106=FACE_OUTER_BOUND('',#158,.T.);
#107=FACE_OUTER_BOUND('',#159,.T.);
#108=FACE_OUTER_BOUND('',#160,.T.);
#109=FACE_OUTER_BOUND('',#161,.T.);
#110=FACE_OUTER_BOUND('',#162,.T.);
#111=FACE_OUTER_BOUND('',#163,.T.);
#112=FACE_OUTER_BOUND('',#164,.T.);
#113=FACE_OUTER_BOUND('',#165,.T.);
#114=FACE_OUTER_BOUND('',#166,.T.);
#115=FACE_OUTER_BOUND('',#168,.T.);
#116=FACE_OUTER_BOUND('',#170,.T.);
#117=FACE_OUTER_BOUND('',#171,.T.);
#118=FACE_OUTER_BOUND('',#172,.T.);
#119=FACE_OUTER_BOUND('',#173,.T.);
#120=FACE_OUTER_BOUND('',#174,.T.);
#121=FACE_OUTER_BOUND('',#175,.T.);
#122=EDGE_LOOP('',(#601,#602,#603,#604));
#123=EDGE_LOOP('',(#605,#606,#607,#608));
#124=EDGE_LOOP('',(#609,#610,#611,#612));
#125=EDGE_LOOP('',(#613,#614,#615,#616));
#126=EDGE_LOOP('',(#617,#618,#619,#620,#621,#622,#623,#624,#625));
#127=EDGE_LOOP('',(#626));
#128=EDGE_LOOP('',(#627,#628,#629,#630));
#129=EDGE_LOOP('',(#631,#632,#633,#634));
#130=EDGE_LOOP('',(#635,#636,#637,#638));
#131=EDGE_LOOP('',(#639,#640,#641,#642));
#132=EDGE_LOOP('',(#643,#644,#645,#646,#647,#648));
#133=EDGE_LOOP('',(#649,#650,#651,#652));
#134=EDGE_LOOP('',(#653,#654,#655,#656));
#135=EDGE_LOOP('',(#657,#658,#659,#660,#661,#662,#663,#664));
#136=EDGE_LOOP('',(#665,#666,#667,#668,#669,#670,#671,#672,#673,#674,#675,
#676,#677,#678,#679,#680));
#137=EDGE_LOOP('',(#681,#682,#683,#684,#685,#686));
#138=EDGE_LOOP('',(#687,#688,#689,#690,#691,#692,#693));
#139=EDGE_LOOP('',(#694,#695,#696,#697));
#140=EDGE_LOOP('',(#698,#699,#700,#701));
#141=EDGE_LOOP('',(#702,#703,#704,#705));
#142=EDGE_LOOP('',(#706,#707,#708,#709));
#143=EDGE_LOOP('',(#710,#711,#712,#713));
#144=EDGE_LOOP('',(#714,#715,#716,#717));
#145=EDGE_LOOP('',(#718,#719,#720,#721,#722,#723,#724,#725,#726,#727,#728));
#146=EDGE_LOOP('',(#729,#730,#731,#732));
#147=EDGE_LOOP('',(#733));
#148=EDGE_LOOP('',(#734));
#149=EDGE_LOOP('',(#735));
#150=EDGE_LOOP('',(#736));
#151=EDGE_LOOP('',(#737,#738,#739,#740));
#152=EDGE_LOOP('',(#741,#742,#743,#744));
#153=EDGE_LOOP('',(#745,#746,#747,#748));
#154=EDGE_LOOP('',(#749,#750,#751,#752));
#155=EDGE_LOOP('',(#753,#754,#755,#756));
#156=EDGE_LOOP('',(#757,#758,#759,#760));
#157=EDGE_LOOP('',(#761,#762,#763,#764,#765,#766,#767,#768,#769,#770,#771,
#772,#773,#774,#775,#776,#777));
#158=EDGE_LOOP('',(#778,#779,#780,#781));
#159=EDGE_LOOP('',(#782,#783,#784,#785));
#160=EDGE_LOOP('',(#786,#787,#788,#789));
#161=EDGE_LOOP('',(#790,#791,#792,#793));
#162=EDGE_LOOP('',(#794,#795,#796,#797));
#163=EDGE_LOOP('',(#798,#799,#800,#801));
#164=EDGE_LOOP('',(#802,#803,#804,#805));
#165=EDGE_LOOP('',(#806,#807,#808,#809,#810,#811,#812,#813,#814,#815,#816,
#817,#818,#819,#820,#821,#822,#823,#824,#825));
#166=EDGE_LOOP('',(#826,#827,#828,#829));
#167=EDGE_LOOP('',(#830));
#168=EDGE_LOOP('',(#831,#832,#833,#834,#835,#836));
#169=EDGE_LOOP('',(#837));
#170=EDGE_LOOP('',(#838,#839,#840,#841,#842,#843));
#171=EDGE_LOOP('',(#844,#845,#846,#847));
#172=EDGE_LOOP('',(#848,#849,#850,#851,#852,#853,#854,#855,#856));
#173=EDGE_LOOP('',(#857,#858,#859,#860));
#174=EDGE_LOOP('',(#861,#862,#863,#864));
#175=EDGE_LOOP('',(#865,#866,#867,#868));
#176=LINE('',#1322,#255);
#177=LINE('',#1325,#256);
#178=LINE('',#1328,#257);
#179=LINE('',#1330,#258);
#180=LINE('',#1331,#259);
#181=LINE('',#1337,#260);
#182=LINE('',#1340,#261);
#183=LINE('',#1343,#262);
#184=LINE('',#1345,#263);
#185=LINE('',#1346,#264);
#186=LINE('',#1349,#265);
#187=LINE('',#1353,#266);
#188=LINE('',#1357,#267);
#189=LINE('',#1359,#268);
#190=LINE('',#1360,#269);
#191=LINE('',#1380,#270);
#192=LINE('',#1418,#271);
#193=LINE('',#1421,#272);
#194=LINE('',#1422,#273);
#195=LINE('',#1427,#274);
#196=LINE('',#1428,#275);
#197=LINE('',#1433,#276);
#198=LINE('',#1434,#277);
#199=LINE('',#1437,#278);
#200=LINE('',#1439,#279);
#201=LINE('',#1441,#280);
#202=LINE('',#1443,#281);
#203=LINE('',#1447,#282);
#204=LINE('',#1448,#283);
#205=LINE('',#1450,#284);
#206=LINE('',#1452,#285);
#207=LINE('',#1458,#286);
#208=LINE('',#1461,#287);
#209=LINE('',#1462,#288);
#210=LINE('',#1467,#289);
#211=LINE('',#1471,#290);
#212=LINE('',#1533,#291);
#213=LINE('',#1534,#292);
#214=LINE('',#1542,#293);
#215=LINE('',#1543,#294);
#216=LINE('',#1546,#295);
#217=LINE('',#1549,#296);
#218=LINE('',#1551,#297);
#219=LINE('',#1555,#298);
#220=LINE('',#1559,#299);
#221=LINE('',#1562,#300);
#222=LINE('',#1567,#301);
#223=LINE('',#1576,#302);
#224=LINE('',#1579,#303);
#225=LINE('',#1584,#304);
#226=LINE('',#1586,#305);
#227=LINE('',#1588,#306);
#228=LINE('',#1589,#307);
#229=LINE('',#1593,#308);
#230=LINE('',#1595,#309);
#231=LINE('',#1597,#310);
#232=LINE('',#1598,#311);
#233=LINE('',#1600,#312);
#234=LINE('',#1601,#313);
#235=LINE('',#1603,#314);
#236=LINE('',#1606,#315);
#237=LINE('',#1608,#316);
#238=LINE('',#1609,#317);
#239=LINE('',#1611,#318);
#240=LINE('',#1612,#319);
#241=LINE('',#1613,#320);
#242=LINE('',#1615,#321);
#243=LINE('',#1616,#322);
#244=LINE('',#1619,#323);
#245=LINE('',#1621,#324);
#246=LINE('',#1622,#325);
#247=LINE('',#1625,#326);
#248=LINE('',#1626,#327);
#249=LINE('',#1665,#328);
#250=LINE('',#1667,#329);
#251=LINE('',#1683,#330);
#252=LINE('',#1684,#331);
#253=LINE('',#1686,#332);
#254=LINE('',#1689,#333);
#255=VECTOR('',#1050,10.);
#256=VECTOR('',#1053,10.);
#257=VECTOR('',#1056,10.);
#258=VECTOR('',#1057,10.);
#259=VECTOR('',#1058,10.);
#260=VECTOR('',#1063,10.);
#261=VECTOR('',#1066,10.);
#262=VECTOR('',#1069,10.);
#263=VECTOR('',#1070,10.);
#264=VECTOR('',#1071,10.);
#265=VECTOR('',#1074,10.);
#266=VECTOR('',#1077,10.);
#267=VECTOR('',#1080,10.);
#268=VECTOR('',#1081,10.);
#269=VECTOR('',#1082,10.);
#270=VECTOR('',#1093,10.);
#271=VECTOR('',#1112,10.);
#272=VECTOR('',#1115,10.);
#273=VECTOR('',#1116,10.);
#274=VECTOR('',#1121,10.);
#275=VECTOR('',#1122,10.);
#276=VECTOR('',#1127,10.);
#277=VECTOR('',#1128,10.);
#278=VECTOR('',#1131,10.);
#279=VECTOR('',#1132,10.);
#280=VECTOR('',#1133,10.);
#281=VECTOR('',#1134,10.);
#282=VECTOR('',#1137,10.);
#283=VECTOR('',#1138,10.);
#284=VECTOR('',#1141,10.);
#285=VECTOR('',#1142,10.);
#286=VECTOR('',#1147,10.);
#287=VECTOR('',#1150,10.);
#288=VECTOR('',#1151,10.);
#289=VECTOR('',#1156,2.);
#290=VECTOR('',#1163,10.);
#291=VECTOR('',#1170,10.);
#292=VECTOR('',#1171,10.);
#293=VECTOR('',#1182,10.);
#294=VECTOR('',#1183,10.);
#295=VECTOR('',#1188,10.);
#296=VECTOR('',#1191,10.);
#297=VECTOR('',#1192,10.);
#298=VECTOR('',#1195,10.);
#299=VECTOR('',#1198,10.);
#300=VECTOR('',#1201,10.);
#301=VECTOR('',#1206,2.);
#302=VECTOR('',#1219,1.05);
#303=VECTOR('',#1222,1.05);
#304=VECTOR('',#1227,10.);
#305=VECTOR('',#1228,10.);
#306=VECTOR('',#1229,10.);
#307=VECTOR('',#1230,10.);
#308=VECTOR('',#1233,10.);
#309=VECTOR('',#1234,10.);
#310=VECTOR('',#1235,10.);
#311=VECTOR('',#1236,10.);
#312=VECTOR('',#1239,10.);
#313=VECTOR('',#1240,10.);
#314=VECTOR('',#1243,10.);
#315=VECTOR('',#1246,10.);
#316=VECTOR('',#1247,10.);
#317=VECTOR('',#1248,10.);
#318=VECTOR('',#1249,10.);
#319=VECTOR('',#1250,10.);
#320=VECTOR('',#1251,10.);
#321=VECTOR('',#1252,10.);
#322=VECTOR('',#1253,10.);
#323=VECTOR('',#1256,10.);
#324=VECTOR('',#1257,10.);
#325=VECTOR('',#1258,10.);
#326=VECTOR('',#1261,10.);
#327=VECTOR('',#1262,10.);
#328=VECTOR('',#1279,10.);
#329=VECTOR('',#1282,10.);
#330=VECTOR('',#1285,10.);
#331=VECTOR('',#1286,10.);
#332=VECTOR('',#1289,10.);
#333=VECTOR('',#1294,10.);
#334=CIRCLE('',#948,2.);
#335=CIRCLE('',#949,2.);
#336=CIRCLE('',#952,2.);
#337=CIRCLE('',#953,2.);
#338=CIRCLE('',#956,0.5);
#339=CIRCLE('',#957,0.5);
#340=CIRCLE('',#958,1.05);
#341=CIRCLE('',#960,10.);
#342=CIRCLE('',#961,10.5);
#343=CIRCLE('',#963,9.50000000000001);
#344=CIRCLE('',#965,9.00000000000001);
#345=CIRCLE('',#967,7.);
#346=CIRCLE('',#968,2.);
#347=CIRCLE('',#969,5.);
#348=CIRCLE('',#970,2.);
#349=CIRCLE('',#972,2.);
#350=CIRCLE('',#974,2.);
#351=CIRCLE('',#976,5.);
#352=CIRCLE('',#978,1.5);
#353=CIRCLE('',#980,6.);
#354=CIRCLE('',#981,17.);
#355=CIRCLE('',#982,13.5);
#356=CIRCLE('',#984,2.);
#357=CIRCLE('',#985,2.);
#358=CIRCLE('',#986,2.);
#359=CIRCLE('',#988,1.5);
#360=CIRCLE('',#989,2.);
#361=CIRCLE('',#992,2.);
#362=CIRCLE('',#993,17.);
#363=CIRCLE('',#994,15.);
#364=CIRCLE('',#999,2.50000000000159);
#365=CIRCLE('',#1000,1.49999999999821);
#366=CIRCLE('',#1001,2.5);
#367=CIRCLE('',#1003,2.);
#368=CIRCLE('',#1004,2.);
#369=CIRCLE('',#1006,1.05);
#370=CIRCLE('',#1008,1.05);
#371=CIRCLE('',#1011,1.05);
#372=CIRCLE('',#1020,14.6464466094065);
#373=CIRCLE('',#1021,14.6464466094062);
#374=CIRCLE('',#1023,14.232233047033);
#375=CIRCLE('',#1025,13.5);
#376=CIRCLE('',#1034,13.4999999999999);
#377=CIRCLE('',#1036,13.5);
#378=CIRCLE('',#1038,14.2322330470312);
#379=VERTEX_POINT('',#1318);
#380=VERTEX_POINT('',#1319);
#381=VERTEX_POINT('',#1321);
#382=VERTEX_POINT('',#1323);
#383=VERTEX_POINT('',#1327);
#384=VERTEX_POINT('',#1329);
#385=VERTEX_POINT('',#1333);
#386=VERTEX_POINT('',#1334);
#387=VERTEX_POINT('',#1336);
#388=VERTEX_POINT('',#1338);
#389=VERTEX_POINT('',#1342);
#390=VERTEX_POINT('',#1344);
#391=VERTEX_POINT('',#1348);
#392=VERTEX_POINT('',#1350);
#393=VERTEX_POINT('',#1352);
#394=VERTEX_POINT('',#1354);
#395=VERTEX_POINT('',#1356);
#396=VERTEX_POINT('',#1358);
#397=VERTEX_POINT('',#1361);
#398=VERTEX_POINT('',#1364);
#399=VERTEX_POINT('',#1365);
#400=VERTEX_POINT('',#1379);
#401=VERTEX_POINT('',#1383);
#402=VERTEX_POINT('',#1396);
#403=VERTEX_POINT('',#1397);
#404=VERTEX_POINT('',#1399);
#405=VERTEX_POINT('',#1401);
#406=VERTEX_POINT('',#1405);
#407=VERTEX_POINT('',#1406);
#408=VERTEX_POINT('',#1417);
#409=VERTEX_POINT('',#1419);
#410=VERTEX_POINT('',#1424);
#411=VERTEX_POINT('',#1425);
#412=VERTEX_POINT('',#1430);
#413=VERTEX_POINT('',#1431);
#414=VERTEX_POINT('',#1436);
#415=VERTEX_POINT('',#1438);
#416=VERTEX_POINT('',#1440);
#417=VERTEX_POINT('',#1442);
#418=VERTEX_POINT('',#1444);
#419=VERTEX_POINT('',#1446);
#420=VERTEX_POINT('',#1451);
#421=VERTEX_POINT('',#1453);
#422=VERTEX_POINT('',#1455);
#423=VERTEX_POINT('',#1457);
#424=VERTEX_POINT('',#1459);
#425=VERTEX_POINT('',#1464);
#426=VERTEX_POINT('',#1466);
#427=VERTEX_POINT('',#1514);
#428=VERTEX_POINT('',#1515);
#429=VERTEX_POINT('',#1522);
#430=VERTEX_POINT('',#1524);
#431=VERTEX_POINT('',#1536);
#432=VERTEX_POINT('',#1537);
#433=VERTEX_POINT('',#1548);
#434=VERTEX_POINT('',#1550);
#435=VERTEX_POINT('',#1552);
#436=VERTEX_POINT('',#1554);
#437=VERTEX_POINT('',#1556);
#438=VERTEX_POINT('',#1558);
#439=VERTEX_POINT('',#1560);
#440=VERTEX_POINT('',#1564);
#441=VERTEX_POINT('',#1566);
#442=VERTEX_POINT('',#1570);
#443=VERTEX_POINT('',#1573);
#444=VERTEX_POINT('',#1578);
#445=VERTEX_POINT('',#1582);
#446=VERTEX_POINT('',#1583);
#447=VERTEX_POINT('',#1585);
#448=VERTEX_POINT('',#1587);
#449=VERTEX_POINT('',#1591);
#450=VERTEX_POINT('',#1592);
#451=VERTEX_POINT('',#1594);
#452=VERTEX_POINT('',#1596);
#453=VERTEX_POINT('',#1605);
#454=VERTEX_POINT('',#1607);
#455=VERTEX_POINT('',#1610);
#456=VERTEX_POINT('',#1614);
#457=VERTEX_POINT('',#1618);
#458=VERTEX_POINT('',#1620);
#459=VERTEX_POINT('',#1624);
#460=VERTEX_POINT('',#1628);
#461=VERTEX_POINT('',#1629);
#462=VERTEX_POINT('',#1648);
#463=VERTEX_POINT('',#1654);
#464=VERTEX_POINT('',#1669);
#465=VERTEX_POINT('',#1673);
#466=VERTEX_POINT('',#1682);
#467=EDGE_CURVE('',#379,#380,#334,.T.);
#468=EDGE_CURVE('',#380,#381,#176,.T.);
#469=EDGE_CURVE('',#381,#382,#335,.F.);
#470=EDGE_CURVE('',#382,#379,#177,.T.);
#471=EDGE_CURVE('',#382,#383,#178,.T.);
#472=EDGE_CURVE('',#384,#383,#179,.T.);
#473=EDGE_CURVE('',#379,#384,#180,.T.);
#474=EDGE_CURVE('',#385,#386,#336,.T.);
#475=EDGE_CURVE('',#386,#387,#181,.T.);
#476=EDGE_CURVE('',#387,#388,#337,.T.);
#477=EDGE_CURVE('',#388,#385,#182,.T.);
#478=EDGE_CURVE('',#388,#389,#183,.T.);
#479=EDGE_CURVE('',#390,#389,#184,.T.);
#480=EDGE_CURVE('',#385,#390,#185,.T.);
#481=EDGE_CURVE('',#387,#391,#186,.T.);
#482=EDGE_CURVE('',#392,#391,#338,.T.);
#483=EDGE_CURVE('',#393,#392,#187,.T.);
#484=EDGE_CURVE('',#394,#393,#339,.T.);
#485=EDGE_CURVE('',#394,#395,#188,.T.);
#486=EDGE_CURVE('',#395,#396,#189,.T.);
#487=EDGE_CURVE('',#389,#396,#190,.T.);
#488=EDGE_CURVE('',#397,#397,#340,.T.);
#489=EDGE_CURVE('',#398,#399,#28,.T.);
#490=EDGE_CURVE('',#399,#392,#341,.T.);
#491=EDGE_CURVE('',#398,#391,#342,.T.);
#492=EDGE_CURVE('',#399,#400,#191,.T.);
#493=EDGE_CURVE('',#393,#400,#343,.T.);
#494=EDGE_CURVE('',#400,#401,#29,.T.);
#495=EDGE_CURVE('',#394,#401,#344,.T.);
#496=EDGE_CURVE('',#402,#403,#345,.T.);
#497=EDGE_CURVE('',#404,#403,#346,.T.);
#498=EDGE_CURVE('',#405,#404,#347,.F.);
#499=EDGE_CURVE('',#402,#405,#348,.T.);
#500=EDGE_CURVE('',#406,#407,#30,.T.);
#501=EDGE_CURVE('',#407,#408,#192,.T.);
#502=EDGE_CURVE('',#408,#409,#349,.T.);
#503=EDGE_CURVE('',#409,#402,#193,.T.);
#504=EDGE_CURVE('',#405,#406,#194,.T.);
#505=EDGE_CURVE('',#410,#411,#350,.T.);
#506=EDGE_CURVE('',#411,#404,#195,.T.);
#507=EDGE_CURVE('',#403,#410,#196,.T.);
#508=EDGE_CURVE('',#412,#413,#351,.T.);
#509=EDGE_CURVE('',#413,#405,#197,.T.);
#510=EDGE_CURVE('',#404,#412,#198,.T.);
#511=EDGE_CURVE('',#408,#414,#199,.T.);
#512=EDGE_CURVE('',#415,#414,#200,.T.);
#513=EDGE_CURVE('',#416,#415,#201,.T.);
#514=EDGE_CURVE('',#416,#417,#202,.T.);
#515=EDGE_CURVE('',#418,#417,#352,.T.);
#516=EDGE_CURVE('',#419,#418,#203,.T.);
#517=EDGE_CURVE('',#409,#419,#204,.T.);
#518=EDGE_CURVE('',#380,#410,#205,.T.);
#519=EDGE_CURVE('',#419,#420,#206,.T.);
#520=EDGE_CURVE('',#420,#421,#353,.T.);
#521=EDGE_CURVE('',#422,#421,#354,.T.);
#522=EDGE_CURVE('',#423,#422,#207,.T.);
#523=EDGE_CURVE('',#423,#424,#355,.T.);
#524=EDGE_CURVE('',#424,#398,#208,.T.);
#525=EDGE_CURVE('',#381,#386,#209,.T.);
#526=EDGE_CURVE('',#425,#406,#356,.T.);
#527=EDGE_CURVE('',#425,#426,#210,.T.);
#528=EDGE_CURVE('',#426,#426,#357,.F.);
#529=EDGE_CURVE('',#407,#425,#358,.T.);
#530=EDGE_CURVE('',#414,#413,#211,.T.);
#531=EDGE_CURVE('',#427,#428,#31,.F.);
#532=EDGE_CURVE('',#429,#427,#359,.T.);
#533=EDGE_CURVE('',#429,#430,#32,.T.);
#534=EDGE_CURVE('',#428,#430,#360,.T.);
#535=EDGE_CURVE('',#417,#429,#212,.T.);
#536=EDGE_CURVE('',#427,#418,#213,.T.);
#537=EDGE_CURVE('',#431,#432,#361,.T.);
#538=EDGE_CURVE('',#432,#428,#362,.T.);
#539=EDGE_CURVE('',#430,#431,#363,.T.);
#540=EDGE_CURVE('',#420,#427,#214,.T.);
#541=EDGE_CURVE('',#428,#421,#215,.T.);
#542=EDGE_CURVE('',#422,#432,#216,.T.);
#543=EDGE_CURVE('',#431,#433,#217,.T.);
#544=EDGE_CURVE('',#433,#434,#218,.T.);
#545=EDGE_CURVE('',#434,#435,#364,.T.);
#546=EDGE_CURVE('',#435,#436,#219,.T.);
#547=EDGE_CURVE('',#436,#437,#365,.T.);
#548=EDGE_CURVE('',#437,#438,#220,.T.);
#549=EDGE_CURVE('',#438,#439,#366,.T.);
#550=EDGE_CURVE('',#439,#423,#221,.T.);
#551=EDGE_CURVE('',#440,#440,#367,.T.);
#552=EDGE_CURVE('',#440,#441,#222,.T.);
#553=EDGE_CURVE('',#441,#441,#368,.F.);
#554=EDGE_CURVE('',#442,#442,#369,.T.);
#555=EDGE_CURVE('',#443,#443,#370,.T.);
#556=EDGE_CURVE('',#442,#397,#223,.T.);
#557=EDGE_CURVE('',#443,#444,#224,.T.);
#558=EDGE_CURVE('',#444,#444,#371,.T.);
#559=EDGE_CURVE('',#445,#446,#225,.T.);
#560=EDGE_CURVE('',#447,#445,#226,.T.);
#561=EDGE_CURVE('',#447,#448,#227,.T.);
#562=EDGE_CURVE('',#446,#448,#228,.T.);
#563=EDGE_CURVE('',#449,#450,#229,.T.);
#564=EDGE_CURVE('',#449,#451,#230,.T.);
#565=EDGE_CURVE('',#451,#452,#231,.T.);
#566=EDGE_CURVE('',#450,#452,#232,.T.);
#567=EDGE_CURVE('',#446,#449,#233,.T.);
#568=EDGE_CURVE('',#448,#451,#234,.T.);
#569=EDGE_CURVE('',#452,#447,#235,.T.);
#570=EDGE_CURVE('',#445,#453,#236,.T.);
#571=EDGE_CURVE('',#453,#454,#237,.T.);
#572=EDGE_CURVE('',#454,#415,#238,.T.);
#573=EDGE_CURVE('',#412,#455,#239,.T.);
#574=EDGE_CURVE('',#455,#384,#240,.T.);
#575=EDGE_CURVE('',#383,#390,#241,.T.);
#576=EDGE_CURVE('',#396,#456,#242,.T.);
#577=EDGE_CURVE('',#456,#450,#243,.T.);
#578=EDGE_CURVE('',#457,#453,#244,.T.);
#579=EDGE_CURVE('',#458,#457,#245,.T.);
#580=EDGE_CURVE('',#454,#458,#246,.T.);
#581=EDGE_CURVE('',#459,#395,#247,.T.);
#582=EDGE_CURVE('',#459,#456,#248,.T.);
#583=EDGE_CURVE('',#460,#461,#33,.T.);
#584=EDGE_CURVE('',#437,#461,#372,.T.);
#585=EDGE_CURVE('',#436,#460,#373,.T.);
#586=EDGE_CURVE('',#461,#462,#23,.T.);
#587=EDGE_CURVE('',#438,#462,#374,.T.);
#588=EDGE_CURVE('',#462,#463,#34,.T.);
#589=EDGE_CURVE('',#463,#439,#375,.T.);
#590=EDGE_CURVE('',#463,#424,#249,.T.);
#591=EDGE_CURVE('',#401,#459,#250,.T.);
#592=EDGE_CURVE('',#464,#460,#24,.T.);
#593=EDGE_CURVE('',#465,#464,#35,.T.);
#594=EDGE_CURVE('',#466,#465,#251,.T.);
#595=EDGE_CURVE('',#457,#466,#252,.T.);
#596=EDGE_CURVE('',#458,#416,#253,.T.);
#597=EDGE_CURVE('',#411,#455,#254,.T.);
#598=EDGE_CURVE('',#433,#466,#376,.T.);
#599=EDGE_CURVE('',#434,#465,#377,.T.);
#600=EDGE_CURVE('',#435,#464,#378,.T.);
#601=ORIENTED_EDGE('',*,*,#467,.T.);
#602=ORIENTED_EDGE('',*,*,#468,.T.);
#603=ORIENTED_EDGE('',*,*,#469,.T.);
#604=ORIENTED_EDGE('',*,*,#470,.T.);
#605=ORIENTED_EDGE('',*,*,#470,.F.);
#606=ORIENTED_EDGE('',*,*,#471,.T.);
#607=ORIENTED_EDGE('',*,*,#472,.F.);
#608=ORIENTED_EDGE('',*,*,#473,.F.);
#609=ORIENTED_EDGE('',*,*,#474,.T.);
#610=ORIENTED_EDGE('',*,*,#475,.T.);
#611=ORIENTED_EDGE('',*,*,#476,.T.);
#612=ORIENTED_EDGE('',*,*,#477,.T.);
#613=ORIENTED_EDGE('',*,*,#477,.F.);
#614=ORIENTED_EDGE('',*,*,#478,.T.);
#615=ORIENTED_EDGE('',*,*,#479,.F.);
#616=ORIENTED_EDGE('',*,*,#480,.F.);
#617=ORIENTED_EDGE('',*,*,#476,.F.);
#618=ORIENTED_EDGE('',*,*,#481,.T.);
#619=ORIENTED_EDGE('',*,*,#482,.F.);
#620=ORIENTED_EDGE('',*,*,#483,.F.);
#621=ORIENTED_EDGE('',*,*,#484,.F.);
#622=ORIENTED_EDGE('',*,*,#485,.T.);
#623=ORIENTED_EDGE('',*,*,#486,.T.);
#624=ORIENTED_EDGE('',*,*,#487,.F.);
#625=ORIENTED_EDGE('',*,*,#478,.F.);
#626=ORIENTED_EDGE('',*,*,#488,.T.);
#627=ORIENTED_EDGE('',*,*,#489,.T.);
#628=ORIENTED_EDGE('',*,*,#490,.T.);
#629=ORIENTED_EDGE('',*,*,#482,.T.);
#630=ORIENTED_EDGE('',*,*,#491,.F.);
#631=ORIENTED_EDGE('',*,*,#490,.F.);
#632=ORIENTED_EDGE('',*,*,#492,.T.);
#633=ORIENTED_EDGE('',*,*,#493,.F.);
#634=ORIENTED_EDGE('',*,*,#483,.T.);
#635=ORIENTED_EDGE('',*,*,#484,.T.);
#636=ORIENTED_EDGE('',*,*,#493,.T.);
#637=ORIENTED_EDGE('',*,*,#494,.T.);
#638=ORIENTED_EDGE('',*,*,#495,.F.);
#639=ORIENTED_EDGE('',*,*,#496,.T.);
#640=ORIENTED_EDGE('',*,*,#497,.F.);
#641=ORIENTED_EDGE('',*,*,#498,.F.);
#642=ORIENTED_EDGE('',*,*,#499,.F.);
#643=ORIENTED_EDGE('',*,*,#500,.T.);
#644=ORIENTED_EDGE('',*,*,#501,.T.);
#645=ORIENTED_EDGE('',*,*,#502,.T.);
#646=ORIENTED_EDGE('',*,*,#503,.T.);
#647=ORIENTED_EDGE('',*,*,#499,.T.);
#648=ORIENTED_EDGE('',*,*,#504,.T.);
#649=ORIENTED_EDGE('',*,*,#505,.T.);
#650=ORIENTED_EDGE('',*,*,#506,.T.);
#651=ORIENTED_EDGE('',*,*,#497,.T.);
#652=ORIENTED_EDGE('',*,*,#507,.T.);
#653=ORIENTED_EDGE('',*,*,#508,.T.);
#654=ORIENTED_EDGE('',*,*,#509,.T.);
#655=ORIENTED_EDGE('',*,*,#498,.T.);
#656=ORIENTED_EDGE('',*,*,#510,.T.);
#657=ORIENTED_EDGE('',*,*,#502,.F.);
#658=ORIENTED_EDGE('',*,*,#511,.T.);
#659=ORIENTED_EDGE('',*,*,#512,.F.);
#660=ORIENTED_EDGE('',*,*,#513,.F.);
#661=ORIENTED_EDGE('',*,*,#514,.T.);
#662=ORIENTED_EDGE('',*,*,#515,.F.);
#663=ORIENTED_EDGE('',*,*,#516,.F.);
#664=ORIENTED_EDGE('',*,*,#517,.F.);
#665=ORIENTED_EDGE('',*,*,#468,.F.);
#666=ORIENTED_EDGE('',*,*,#518,.T.);
#667=ORIENTED_EDGE('',*,*,#507,.F.);
#668=ORIENTED_EDGE('',*,*,#496,.F.);
#669=ORIENTED_EDGE('',*,*,#503,.F.);
#670=ORIENTED_EDGE('',*,*,#517,.T.);
#671=ORIENTED_EDGE('',*,*,#519,.T.);
#672=ORIENTED_EDGE('',*,*,#520,.T.);
#673=ORIENTED_EDGE('',*,*,#521,.F.);
#674=ORIENTED_EDGE('',*,*,#522,.F.);
#675=ORIENTED_EDGE('',*,*,#523,.T.);
#676=ORIENTED_EDGE('',*,*,#524,.T.);
#677=ORIENTED_EDGE('',*,*,#491,.T.);
#678=ORIENTED_EDGE('',*,*,#481,.F.);
#679=ORIENTED_EDGE('',*,*,#475,.F.);
#680=ORIENTED_EDGE('',*,*,#525,.F.);
#681=ORIENTED_EDGE('',*,*,#500,.F.);
#682=ORIENTED_EDGE('',*,*,#526,.F.);
#683=ORIENTED_EDGE('',*,*,#527,.T.);
#684=ORIENTED_EDGE('',*,*,#528,.F.);
#685=ORIENTED_EDGE('',*,*,#527,.F.);
#686=ORIENTED_EDGE('',*,*,#529,.F.);
#687=ORIENTED_EDGE('',*,*,#501,.F.);
#688=ORIENTED_EDGE('',*,*,#529,.T.);
#689=ORIENTED_EDGE('',*,*,#526,.T.);
#690=ORIENTED_EDGE('',*,*,#504,.F.);
#691=ORIENTED_EDGE('',*,*,#509,.F.);
#692=ORIENTED_EDGE('',*,*,#530,.F.);
#693=ORIENTED_EDGE('',*,*,#511,.F.);
#694=ORIENTED_EDGE('',*,*,#531,.F.);
#695=ORIENTED_EDGE('',*,*,#532,.F.);
#696=ORIENTED_EDGE('',*,*,#533,.T.);
#697=ORIENTED_EDGE('',*,*,#534,.F.);
#698=ORIENTED_EDGE('',*,*,#515,.T.);
#699=ORIENTED_EDGE('',*,*,#535,.T.);
#700=ORIENTED_EDGE('',*,*,#532,.T.);
#701=ORIENTED_EDGE('',*,*,#536,.T.);
#702=ORIENTED_EDGE('',*,*,#537,.T.);
#703=ORIENTED_EDGE('',*,*,#538,.T.);
#704=ORIENTED_EDGE('',*,*,#534,.T.);
#705=ORIENTED_EDGE('',*,*,#539,.T.);
#706=ORIENTED_EDGE('',*,*,#520,.F.);
#707=ORIENTED_EDGE('',*,*,#540,.T.);
#708=ORIENTED_EDGE('',*,*,#531,.T.);
#709=ORIENTED_EDGE('',*,*,#541,.T.);
#710=ORIENTED_EDGE('',*,*,#536,.F.);
#711=ORIENTED_EDGE('',*,*,#540,.F.);
#712=ORIENTED_EDGE('',*,*,#519,.F.);
#713=ORIENTED_EDGE('',*,*,#516,.T.);
#714=ORIENTED_EDGE('',*,*,#541,.F.);
#715=ORIENTED_EDGE('',*,*,#538,.F.);
#716=ORIENTED_EDGE('',*,*,#542,.F.);
#717=ORIENTED_EDGE('',*,*,#521,.T.);
#718=ORIENTED_EDGE('',*,*,#537,.F.);
#719=ORIENTED_EDGE('',*,*,#543,.T.);
#720=ORIENTED_EDGE('',*,*,#544,.T.);
#721=ORIENTED_EDGE('',*,*,#545,.T.);
#722=ORIENTED_EDGE('',*,*,#546,.T.);
#723=ORIENTED_EDGE('',*,*,#547,.T.);
#724=ORIENTED_EDGE('',*,*,#548,.T.);
#725=ORIENTED_EDGE('',*,*,#549,.T.);
#726=ORIENTED_EDGE('',*,*,#550,.T.);
#727=ORIENTED_EDGE('',*,*,#522,.T.);
#728=ORIENTED_EDGE('',*,*,#542,.T.);
#729=ORIENTED_EDGE('',*,*,#551,.F.);
#730=ORIENTED_EDGE('',*,*,#552,.T.);
#731=ORIENTED_EDGE('',*,*,#553,.F.);
#732=ORIENTED_EDGE('',*,*,#552,.F.);
#733=ORIENTED_EDGE('',*,*,#553,.T.);
#734=ORIENTED_EDGE('',*,*,#554,.F.);
#735=ORIENTED_EDGE('',*,*,#528,.T.);
#736=ORIENTED_EDGE('',*,*,#555,.F.);
#737=ORIENTED_EDGE('',*,*,#554,.T.);
#738=ORIENTED_EDGE('',*,*,#556,.T.);
#739=ORIENTED_EDGE('',*,*,#488,.F.);
#740=ORIENTED_EDGE('',*,*,#556,.F.);
#741=ORIENTED_EDGE('',*,*,#555,.T.);
#742=ORIENTED_EDGE('',*,*,#557,.T.);
#743=ORIENTED_EDGE('',*,*,#558,.F.);
#744=ORIENTED_EDGE('',*,*,#557,.F.);
#745=ORIENTED_EDGE('',*,*,#559,.F.);
#746=ORIENTED_EDGE('',*,*,#560,.F.);
#747=ORIENTED_EDGE('',*,*,#561,.T.);
#748=ORIENTED_EDGE('',*,*,#562,.F.);
#749=ORIENTED_EDGE('',*,*,#563,.F.);
#750=ORIENTED_EDGE('',*,*,#564,.T.);
#751=ORIENTED_EDGE('',*,*,#565,.T.);
#752=ORIENTED_EDGE('',*,*,#566,.F.);
#753=ORIENTED_EDGE('',*,*,#567,.F.);
#754=ORIENTED_EDGE('',*,*,#562,.T.);
#755=ORIENTED_EDGE('',*,*,#568,.T.);
#756=ORIENTED_EDGE('',*,*,#564,.F.);
#757=ORIENTED_EDGE('',*,*,#568,.F.);
#758=ORIENTED_EDGE('',*,*,#561,.F.);
#759=ORIENTED_EDGE('',*,*,#569,.F.);
#760=ORIENTED_EDGE('',*,*,#565,.F.);
#761=ORIENTED_EDGE('',*,*,#566,.T.);
#762=ORIENTED_EDGE('',*,*,#569,.T.);
#763=ORIENTED_EDGE('',*,*,#560,.T.);
#764=ORIENTED_EDGE('',*,*,#570,.T.);
#765=ORIENTED_EDGE('',*,*,#571,.T.);
#766=ORIENTED_EDGE('',*,*,#572,.T.);
#767=ORIENTED_EDGE('',*,*,#512,.T.);
#768=ORIENTED_EDGE('',*,*,#530,.T.);
#769=ORIENTED_EDGE('',*,*,#508,.F.);
#770=ORIENTED_EDGE('',*,*,#573,.T.);
#771=ORIENTED_EDGE('',*,*,#574,.T.);
#772=ORIENTED_EDGE('',*,*,#472,.T.);
#773=ORIENTED_EDGE('',*,*,#575,.T.);
#774=ORIENTED_EDGE('',*,*,#479,.T.);
#775=ORIENTED_EDGE('',*,*,#487,.T.);
#776=ORIENTED_EDGE('',*,*,#576,.T.);
#777=ORIENTED_EDGE('',*,*,#577,.T.);
#778=ORIENTED_EDGE('',*,*,#571,.F.);
#779=ORIENTED_EDGE('',*,*,#578,.F.);
#780=ORIENTED_EDGE('',*,*,#579,.F.);
#781=ORIENTED_EDGE('',*,*,#580,.F.);
#782=ORIENTED_EDGE('',*,*,#576,.F.);
#783=ORIENTED_EDGE('',*,*,#486,.F.);
#784=ORIENTED_EDGE('',*,*,#581,.F.);
#785=ORIENTED_EDGE('',*,*,#582,.T.);
#786=ORIENTED_EDGE('',*,*,#583,.T.);
#787=ORIENTED_EDGE('',*,*,#584,.F.);
#788=ORIENTED_EDGE('',*,*,#547,.F.);
#789=ORIENTED_EDGE('',*,*,#585,.T.);
#790=ORIENTED_EDGE('',*,*,#586,.T.);
#791=ORIENTED_EDGE('',*,*,#587,.F.);
#792=ORIENTED_EDGE('',*,*,#548,.F.);
#793=ORIENTED_EDGE('',*,*,#584,.T.);
#794=ORIENTED_EDGE('',*,*,#588,.T.);
#795=ORIENTED_EDGE('',*,*,#589,.T.);
#796=ORIENTED_EDGE('',*,*,#549,.F.);
#797=ORIENTED_EDGE('',*,*,#587,.T.);
#798=ORIENTED_EDGE('',*,*,#590,.T.);
#799=ORIENTED_EDGE('',*,*,#523,.F.);
#800=ORIENTED_EDGE('',*,*,#550,.F.);
#801=ORIENTED_EDGE('',*,*,#589,.F.);
#802=ORIENTED_EDGE('',*,*,#591,.T.);
#803=ORIENTED_EDGE('',*,*,#581,.T.);
#804=ORIENTED_EDGE('',*,*,#485,.F.);
#805=ORIENTED_EDGE('',*,*,#495,.T.);
#806=ORIENTED_EDGE('',*,*,#489,.F.);
#807=ORIENTED_EDGE('',*,*,#524,.F.);
#808=ORIENTED_EDGE('',*,*,#590,.F.);
#809=ORIENTED_EDGE('',*,*,#588,.F.);
#810=ORIENTED_EDGE('',*,*,#586,.F.);
#811=ORIENTED_EDGE('',*,*,#583,.F.);
#812=ORIENTED_EDGE('',*,*,#592,.F.);
#813=ORIENTED_EDGE('',*,*,#593,.F.);
#814=ORIENTED_EDGE('',*,*,#594,.F.);
#815=ORIENTED_EDGE('',*,*,#595,.F.);
#816=ORIENTED_EDGE('',*,*,#578,.T.);
#817=ORIENTED_EDGE('',*,*,#570,.F.);
#818=ORIENTED_EDGE('',*,*,#559,.T.);
#819=ORIENTED_EDGE('',*,*,#567,.T.);
#820=ORIENTED_EDGE('',*,*,#563,.T.);
#821=ORIENTED_EDGE('',*,*,#577,.F.);
#822=ORIENTED_EDGE('',*,*,#582,.F.);
#823=ORIENTED_EDGE('',*,*,#591,.F.);
#824=ORIENTED_EDGE('',*,*,#494,.F.);
#825=ORIENTED_EDGE('',*,*,#492,.F.);
#826=ORIENTED_EDGE('',*,*,#580,.T.);
#827=ORIENTED_EDGE('',*,*,#596,.T.);
#828=ORIENTED_EDGE('',*,*,#513,.T.);
#829=ORIENTED_EDGE('',*,*,#572,.F.);
#830=ORIENTED_EDGE('',*,*,#558,.T.);
#831=ORIENTED_EDGE('',*,*,#474,.F.);
#832=ORIENTED_EDGE('',*,*,#480,.T.);
#833=ORIENTED_EDGE('',*,*,#575,.F.);
#834=ORIENTED_EDGE('',*,*,#471,.F.);
#835=ORIENTED_EDGE('',*,*,#469,.F.);
#836=ORIENTED_EDGE('',*,*,#525,.T.);
#837=ORIENTED_EDGE('',*,*,#551,.T.);
#838=ORIENTED_EDGE('',*,*,#467,.F.);
#839=ORIENTED_EDGE('',*,*,#473,.T.);
#840=ORIENTED_EDGE('',*,*,#574,.F.);
#841=ORIENTED_EDGE('',*,*,#597,.F.);
#842=ORIENTED_EDGE('',*,*,#505,.F.);
#843=ORIENTED_EDGE('',*,*,#518,.F.);
#844=ORIENTED_EDGE('',*,*,#506,.F.);
#845=ORIENTED_EDGE('',*,*,#597,.T.);
#846=ORIENTED_EDGE('',*,*,#573,.F.);
#847=ORIENTED_EDGE('',*,*,#510,.F.);
#848=ORIENTED_EDGE('',*,*,#535,.F.);
#849=ORIENTED_EDGE('',*,*,#514,.F.);
#850=ORIENTED_EDGE('',*,*,#596,.F.);
#851=ORIENTED_EDGE('',*,*,#579,.T.);
#852=ORIENTED_EDGE('',*,*,#595,.T.);
#853=ORIENTED_EDGE('',*,*,#598,.F.);
#854=ORIENTED_EDGE('',*,*,#543,.F.);
#855=ORIENTED_EDGE('',*,*,#539,.F.);
#856=ORIENTED_EDGE('',*,*,#533,.F.);
#857=ORIENTED_EDGE('',*,*,#594,.T.);
#858=ORIENTED_EDGE('',*,*,#599,.F.);
#859=ORIENTED_EDGE('',*,*,#544,.F.);
#860=ORIENTED_EDGE('',*,*,#598,.T.);
#861=ORIENTED_EDGE('',*,*,#593,.T.);
#862=ORIENTED_EDGE('',*,*,#600,.F.);
#863=ORIENTED_EDGE('',*,*,#545,.F.);
#864=ORIENTED_EDGE('',*,*,#599,.T.);
#865=ORIENTED_EDGE('',*,*,#592,.T.);
#866=ORIENTED_EDGE('',*,*,#585,.F.);
#867=ORIENTED_EDGE('',*,*,#546,.F.);
#868=ORIENTED_EDGE('',*,*,#600,.T.);
#869=CYLINDRICAL_SURFACE('',#947,2.);
#870=CYLINDRICAL_SURFACE('',#951,2.);
#871=CYLINDRICAL_SURFACE('',#971,2.);
#872=CYLINDRICAL_SURFACE('',#973,2.);
#873=CYLINDRICAL_SURFACE('',#975,5.);
#874=CYLINDRICAL_SURFACE('',#983,2.);
#875=CYLINDRICAL_SURFACE('',#990,1.5);
#876=CYLINDRICAL_SURFACE('',#995,6.);
#877=CYLINDRICAL_SURFACE('',#997,17.);
#878=CYLINDRICAL_SURFACE('',#1002,2.);
#879=CYLINDRICAL_SURFACE('',#1009,1.05);
#880=CYLINDRICAL_SURFACE('',#1010,1.05);
#881=CYLINDRICAL_SURFACE('',#1026,13.5);
#882=CYLINDRICAL_SURFACE('',#1035,13.5);
#883=ADVANCED_FACE('',(#73),#869,.T.);
#884=ADVANCED_FACE('',(#74),#48,.T.);
#885=ADVANCED_FACE('',(#75),#870,.T.);
#886=ADVANCED_FACE('',(#76),#49,.T.);
#887=ADVANCED_FACE('',(#77,#43),#50,.T.);
#888=ADVANCED_FACE('',(#78),#36,.T.);
#889=ADVANCED_FACE('',(#79),#51,.F.);
#890=ADVANCED_FACE('',(#80),#37,.T.);
#891=ADVANCED_FACE('',(#81),#38,.T.);
#892=ADVANCED_FACE('',(#82),#871,.T.);
#893=ADVANCED_FACE('',(#83),#872,.T.);
#894=ADVANCED_FACE('',(#84),#873,.F.);
#895=ADVANCED_FACE('',(#85),#52,.T.);
#896=ADVANCED_FACE('',(#86),#53,.F.);
#897=ADVANCED_FACE('',(#87),#874,.F.);
#898=ADVANCED_FACE('',(#88),#54,.T.);
#899=ADVANCED_FACE('',(#89),#27,.T.);
#900=ADVANCED_FACE('',(#90),#875,.T.);
#901=ADVANCED_FACE('',(#91),#39,.T.);
#902=ADVANCED_FACE('',(#92),#876,.F.);
#903=ADVANCED_FACE('',(#93),#55,.T.);
#904=ADVANCED_FACE('',(#94),#877,.T.);
#905=ADVANCED_FACE('',(#95),#56,.F.);
#906=ADVANCED_FACE('',(#96),#878,.F.);
#907=ADVANCED_FACE('',(#97,#44),#57,.F.);
#908=ADVANCED_FACE('',(#98,#45),#58,.F.);
#909=ADVANCED_FACE('',(#99),#879,.F.);
#910=ADVANCED_FACE('',(#100),#880,.F.);
#911=ADVANCED_FACE('',(#101),#59,.F.);
#912=ADVANCED_FACE('',(#102),#60,.F.);
#913=ADVANCED_FACE('',(#103),#61,.F.);
#914=ADVANCED_FACE('',(#104),#62,.F.);
#915=ADVANCED_FACE('',(#105),#63,.T.);
#916=ADVANCED_FACE('',(#106),#64,.F.);
#917=ADVANCED_FACE('',(#107),#65,.F.);
#918=ADVANCED_FACE('',(#108),#40,.F.);
#919=ADVANCED_FACE('',(#109),#25,.F.);
#920=ADVANCED_FACE('',(#110),#41,.T.);
#921=ADVANCED_FACE('',(#111),#881,.F.);
#922=ADVANCED_FACE('',(#112),#66,.F.);
#923=ADVANCED_FACE('',(#113),#67,.T.);
#924=ADVANCED_FACE('',(#114,#46),#68,.T.);
#925=ADVANCED_FACE('',(#115,#47),#69,.T.);
#926=ADVANCED_FACE('',(#116),#70,.T.);
#927=ADVANCED_FACE('',(#117),#71,.T.);
#928=ADVANCED_FACE('',(#118),#72,.T.);
#929=ADVANCED_FACE('',(#119),#882,.F.);
#930=ADVANCED_FACE('',(#120),#42,.T.);
#931=ADVANCED_FACE('',(#121),#26,.F.);
#932=CLOSED_SHELL('',(#883,#884,#885,#886,#887,#888,#889,#890,#891,#892,
#893,#894,#895,#896,#897,#898,#899,#900,#901,#902,#903,#904,#905,#906,#907,
#908,#909,#910,#911,#912,#913,#914,#915,#916,#917,#918,#919,#920,#921,#922,
#923,#924,#925,#926,#927,#928,#929,#930,#931));
#933=DERIVED_UNIT_ELEMENT(#935,1.);
#934=DERIVED_UNIT_ELEMENT(#1707,-3.);
#935=(
MASS_UNIT()
NAMED_UNIT(*)
SI_UNIT(.KILO.,.GRAM.)
);
#936=DERIVED_UNIT((#933,#934));
#937=MEASURE_REPRESENTATION_ITEM('density measure',
POSITIVE_RATIO_MEASURE(7850.),#936);
#938=PROPERTY_DEFINITION_REPRESENTATION(#943,#940);
#939=PROPERTY_DEFINITION_REPRESENTATION(#944,#941);
#940=REPRESENTATION('material name',(#942),#1704);
#941=REPRESENTATION('density',(#937),#1704);
#942=DESCRIPTIVE_REPRESENTATION_ITEM('Steel','Steel');
#943=PROPERTY_DEFINITION('material property','material name',#1719);
#944=PROPERTY_DEFINITION('material property','density of part',#1719);
#945=AXIS2_PLACEMENT_3D('',#1315,#1042,#1043);
#946=AXIS2_PLACEMENT_3D('',#1316,#1044,#1045);
#947=AXIS2_PLACEMENT_3D('',#1317,#1046,#1047);
#948=AXIS2_PLACEMENT_3D('',#1320,#1048,#1049);
#949=AXIS2_PLACEMENT_3D('',#1324,#1051,#1052);
#950=AXIS2_PLACEMENT_3D('',#1326,#1054,#1055);
#951=AXIS2_PLACEMENT_3D('',#1332,#1059,#1060);
#952=AXIS2_PLACEMENT_3D('',#1335,#1061,#1062);
#953=AXIS2_PLACEMENT_3D('',#1339,#1064,#1065);
#954=AXIS2_PLACEMENT_3D('',#1341,#1067,#1068);
#955=AXIS2_PLACEMENT_3D('',#1347,#1072,#1073);
#956=AXIS2_PLACEMENT_3D('',#1351,#1075,#1076);
#957=AXIS2_PLACEMENT_3D('',#1355,#1078,#1079);
#958=AXIS2_PLACEMENT_3D('',#1362,#1083,#1084);
#959=AXIS2_PLACEMENT_3D('',#1363,#1085,#1086);
#960=AXIS2_PLACEMENT_3D('',#1376,#1087,#1088);
#961=AXIS2_PLACEMENT_3D('',#1377,#1089,#1090);
#962=AXIS2_PLACEMENT_3D('',#1378,#1091,#1092);
#963=AXIS2_PLACEMENT_3D('',#1381,#1094,#1095);
#964=AXIS2_PLACEMENT_3D('',#1382,#1096,#1097);
#965=AXIS2_PLACEMENT_3D('',#1394,#1098,#1099);
#966=AXIS2_PLACEMENT_3D('',#1395,#1100,#1101);
#967=AXIS2_PLACEMENT_3D('',#1398,#1102,#1103);
#968=AXIS2_PLACEMENT_3D('',#1400,#1104,#1105);
#969=AXIS2_PLACEMENT_3D('',#1402,#1106,#1107);
#970=AXIS2_PLACEMENT_3D('',#1403,#1108,#1109);
#971=AXIS2_PLACEMENT_3D('',#1404,#1110,#1111);
#972=AXIS2_PLACEMENT_3D('',#1420,#1113,#1114);
#973=AXIS2_PLACEMENT_3D('',#1423,#1117,#1118);
#974=AXIS2_PLACEMENT_3D('',#1426,#1119,#1120);
#975=AXIS2_PLACEMENT_3D('',#1429,#1123,#1124);
#976=AXIS2_PLACEMENT_3D('',#1432,#1125,#1126);
#977=AXIS2_PLACEMENT_3D('',#1435,#1129,#1130);
#978=AXIS2_PLACEMENT_3D('',#1445,#1135,#1136);
#979=AXIS2_PLACEMENT_3D('',#1449,#1139,#1140);
#980=AXIS2_PLACEMENT_3D('',#1454,#1143,#1144);
#981=AXIS2_PLACEMENT_3D('',#1456,#1145,#1146);
#982=AXIS2_PLACEMENT_3D('',#1460,#1148,#1149);
#983=AXIS2_PLACEMENT_3D('',#1463,#1152,#1153);
#984=AXIS2_PLACEMENT_3D('',#1465,#1154,#1155);
#985=AXIS2_PLACEMENT_3D('',#1468,#1157,#1158);
#986=AXIS2_PLACEMENT_3D('',#1469,#1159,#1160);
#987=AXIS2_PLACEMENT_3D('',#1470,#1161,#1162);
#988=AXIS2_PLACEMENT_3D('',#1523,#1164,#1165);
#989=AXIS2_PLACEMENT_3D('',#1531,#1166,#1167);
#990=AXIS2_PLACEMENT_3D('',#1532,#1168,#1169);
#991=AXIS2_PLACEMENT_3D('',#1535,#1172,#1173);
#992=AXIS2_PLACEMENT_3D('',#1538,#1174,#1175);
#993=AXIS2_PLACEMENT_3D('',#1539,#1176,#1177);
#994=AXIS2_PLACEMENT_3D('',#1540,#1178,#1179);
#995=AXIS2_PLACEMENT_3D('',#1541,#1180,#1181);
#996=AXIS2_PLACEMENT_3D('',#1544,#1184,#1185);
#997=AXIS2_PLACEMENT_3D('',#1545,#1186,#1187);
#998=AXIS2_PLACEMENT_3D('',#1547,#1189,#1190);
#999=AXIS2_PLACEMENT_3D('',#1553,#1193,#1194);
#1000=AXIS2_PLACEMENT_3D('',#1557,#1196,#1197);
#1001=AXIS2_PLACEMENT_3D('',#1561,#1199,#1200);
#1002=AXIS2_PLACEMENT_3D('',#1563,#1202,#1203);
#1003=AXIS2_PLACEMENT_3D('',#1565,#1204,#1205);
#1004=AXIS2_PLACEMENT_3D('',#1568,#1207,#1208);
#1005=AXIS2_PLACEMENT_3D('',#1569,#1209,#1210);
#1006=AXIS2_PLACEMENT_3D('',#1571,#1211,#1212);
#1007=AXIS2_PLACEMENT_3D('',#1572,#1213,#1214);
#1008=AXIS2_PLACEMENT_3D('',#1574,#1215,#1216);
#1009=AXIS2_PLACEMENT_3D('',#1575,#1217,#1218);
#1010=AXIS2_PLACEMENT_3D('',#1577,#1220,#1221);
#1011=AXIS2_PLACEMENT_3D('',#1580,#1223,#1224);
#1012=AXIS2_PLACEMENT_3D('',#1581,#1225,#1226);
#1013=AXIS2_PLACEMENT_3D('',#1590,#1231,#1232);
#1014=AXIS2_PLACEMENT_3D('',#1599,#1237,#1238);
#1015=AXIS2_PLACEMENT_3D('',#1602,#1241,#1242);
#1016=AXIS2_PLACEMENT_3D('',#1604,#1244,#1245);
#1017=AXIS2_PLACEMENT_3D('',#1617,#1254,#1255);
#1018=AXIS2_PLACEMENT_3D('',#1623,#1259,#1260);
#1019=AXIS2_PLACEMENT_3D('',#1627,#1263,#1264);
#1020=AXIS2_PLACEMENT_3D('',#1645,#1265,#1266);
#1021=AXIS2_PLACEMENT_3D('',#1646,#1267,#1268);
#1022=AXIS2_PLACEMENT_3D('',#1647,#1269,#1270);
#1023=AXIS2_PLACEMENT_3D('',#1652,#1271,#1272);
#1024=AXIS2_PLACEMENT_3D('',#1653,#1273,#1274);
#1025=AXIS2_PLACEMENT_3D('',#1663,#1275,#1276);
#1026=AXIS2_PLACEMENT_3D('',#1664,#1277,#1278);
#1027=AXIS2_PLACEMENT_3D('',#1666,#1280,#1281);
#1028=AXIS2_PLACEMENT_3D('',#1668,#1283,#1284);
#1029=AXIS2_PLACEMENT_3D('',#1685,#1287,#1288);
#1030=AXIS2_PLACEMENT_3D('',#1687,#1290,#1291);
#1031=AXIS2_PLACEMENT_3D('',#1688,#1292,#1293);
#1032=AXIS2_PLACEMENT_3D('',#1690,#1295,#1296);
#1033=AXIS2_PLACEMENT_3D('',#1691,#1297,#1298);
#1034=AXIS2_PLACEMENT_3D('',#1692,#1299,#1300);
#1035=AXIS2_PLACEMENT_3D('',#1693,#1301,#1302);
#1036=AXIS2_PLACEMENT_3D('',#1694,#1303,#1304);
#1037=AXIS2_PLACEMENT_3D('',#1695,#1305,#1306);
#1038=AXIS2_PLACEMENT_3D('',#1696,#1307,#1308);
#1039=AXIS2_PLACEMENT_3D('',#1697,#1309,#1310);
#1040=AXIS2_PLACEMENT_3D('',#1698,#1311,#1312);
#1041=AXIS2_PLACEMENT_3D('',#1699,#1313,#1314);
#1042=DIRECTION('axis',(0.,0.,1.));
#1043=DIRECTION('refdir',(1.,0.,0.));
#1044=DIRECTION('axis',(0.,0.,1.));
#1045=DIRECTION('refdir',(1.,0.,0.));
#1046=DIRECTION('center_axis',(7.66115225280586E-13,-1.,9.34804229523698E-16));
#1047=DIRECTION('ref_axis',(0.707106781186548,5.43251990704588E-13,0.707106781186547));
#1048=DIRECTION('center_axis',(3.25517390819513E-13,-1.,9.34804229523728E-16));
#1049=DIRECTION('ref_axis',(0.707106781186548,5.43251990704588E-13,0.707106781186547));
#1050=DIRECTION('',(7.66115225280586E-13,-1.,9.34804229523698E-16));
#1051=DIRECTION('center_axis',(-1.70058411798087E-12,-1.,9.34804229523728E-16));
#1052=DIRECTION('ref_axis',(0.707106781186548,5.43251990704588E-13,0.707106781186547));
#1053=DIRECTION('',(-7.66115225280586E-13,1.,-9.34804229523698E-16));
#1054=DIRECTION('center_axis',(1.,7.66115225280586E-13,-7.16167752894816E-28));
#1055=DIRECTION('ref_axis',(7.66115225280586E-13,-1.,9.34804229523698E-16));
#1056=DIRECTION('',(0.,-9.34804229523728E-16,-1.));
#1057=DIRECTION('',(7.66115225280586E-13,-1.,9.34804229523698E-16));
#1058=DIRECTION('',(0.,-9.34804229523728E-16,-1.));
#1059=DIRECTION('center_axis',(2.16624301578221E-12,1.,-9.34804229523698E-16));
#1060=DIRECTION('ref_axis',(0.707106781186548,-1.53084014721668E-12,0.707106781186547));
#1061=DIRECTION('center_axis',(-1.70058411798087E-12,-1.,9.34804229523728E-16));
#1062=DIRECTION('ref_axis',(0.707106781186548,-1.53084014721668E-12,0.707106781186547));
#1063=DIRECTION('',(-2.16624301578221E-12,-1.,9.34804229523698E-16));
#1064=DIRECTION('center_axis',(-1.22464679914735E-16,1.,-8.95074806573432E-16));
#1065=DIRECTION('ref_axis',(0.707106781186548,-1.53084014721668E-12,0.707106781186547));
#1066=DIRECTION('',(2.16624301578221E-12,1.,-9.34804229523698E-16));
#1067=DIRECTION('center_axis',(1.,-2.16624301578221E-12,2.02501313332944E-27));
#1068=DIRECTION('ref_axis',(-2.16624301578221E-12,-1.,9.34804229523698E-16));
#1069=DIRECTION('',(0.,-9.34804229523728E-16,-1.));
#1070=DIRECTION('',(-2.16624301578221E-12,-1.,9.34804229523698E-16));
#1071=DIRECTION('',(0.,-9.34804229523728E-16,-1.));
#1072=DIRECTION('center_axis',(1.22464679914735E-16,-1.,8.95074806573432E-16));
#1073=DIRECTION('ref_axis',(1.,1.22464679914735E-16,-4.28918890764738E-16));
#1074=DIRECTION('',(-1.,6.96133334773826E-16,-7.81501996849381E-31));
#1075=DIRECTION('center_axis',(-1.22464679914735E-16,1.,-8.95074806573432E-16));
#1076=DIRECTION('ref_axis',(1.,1.22464679914735E-16,1.6273110438811E-32));
#1077=DIRECTION('',(1.,-2.19695756670852E-13,2.05503276155512E-28));
#1078=DIRECTION('center_axis',(-1.22464679914735E-16,1.,-8.95074806573432E-16));
#1079=DIRECTION('ref_axis',(1.,1.22464679914735E-16,1.6273110438811E-32));
#1080=DIRECTION('',(-1.,6.96133334773826E-16,-7.81501996849381E-31));
#1081=DIRECTION('',(-4.03546035089714E-31,-8.95074806573432E-16,-1.));
#1082=DIRECTION('',(-1.,6.96133334773826E-16,-7.81501996849381E-31));
#1083=DIRECTION('center_axis',(-1.22464679914735E-16,1.,-8.95074806573432E-16));
#1084=DIRECTION('ref_axis',(-1.,-3.25413351244129E-13,-9.99863512094947E-33));
#1085=DIRECTION('center_axis',(-1.30753611190372E-31,9.34804229523698E-16,
1.));
#1086=DIRECTION('ref_axis',(1.,0.,0.));
#1087=DIRECTION('center_axis',(1.30753611190372E-31,-9.34804229523698E-16,
-1.));
#1088=DIRECTION('ref_axis',(0.22997353103972,0.973196883996822,-9.09748563319513E-16));
#1089=DIRECTION('center_axis',(1.30753611190372E-31,-9.34804229523698E-16,
-1.));
#1090=DIRECTION('ref_axis',(-0.894224350042301,0.447619047619094,-4.18436178929671E-16));
#1091=DIRECTION('center_axis',(1.30753611190372E-31,-9.34804229523698E-16,
-1.));
#1092=DIRECTION('ref_axis',(1.,0.,1.30753611190372E-31));
#1093=DIRECTION('',(1.,-3.5139097672602E-14,3.29789307371851E-29));
#1094=DIRECTION('center_axis',(-1.30753611190372E-31,9.34804229523698E-16,
1.));
#1095=DIRECTION('ref_axis',(0.271284494888674,0.962499206666165,-8.99748329304735E-16));
#1096=DIRECTION('center_axis',(1.30753611190372E-31,-9.34804229523698E-16,
-1.));
#1097=DIRECTION('ref_axis',(-1.,0.,0.));
#1098=DIRECTION('center_axis',(-1.30753611190372E-31,9.34804229523698E-16,
1.));
#1099=DIRECTION('ref_axis',(-0.852809445666049,0.52222222222227,-4.8817554208461E-16));
#1100=DIRECTION('center_axis',(2.09541177949331E-28,-5.11802368806133E-41,
-1.));
#1101=DIRECTION('ref_axis',(-1.,0.,0.));
#1102=DIRECTION('center_axis',(-1.30753611190372E-31,9.34804229523698E-16,
1.));
#1103=DIRECTION('ref_axis',(0.707106781186394,-0.707106781186701,1.79439138135283E-15));
#1104=DIRECTION('center_axis',(2.44249065417534E-13,1.,0.));
#1105=DIRECTION('ref_axis',(-1.,2.44249065417534E-13,0.));
#1106=DIRECTION('center_axis',(-4.35451219681999E-28,-1.77635683940025E-15,
-1.));
#1107=DIRECTION('ref_axis',(-1.88293824976427E-13,-1.,1.77635683940025E-15));
#1108=DIRECTION('center_axis',(-1.,1.88737914186276E-13,-2.09541177949331E-28));
#1109=DIRECTION('ref_axis',(0.,1.11022302462516E-15,1.));
#1110=DIRECTION('center_axis',(-1.,1.87997765503215E-13,-1.758718599446E-28));
#1111=DIRECTION('ref_axis',(1.3345785898812E-13,0.707106781186546,0.707106781186549));
#1112=DIRECTION('',(-1.,1.87997765503215E-13,-1.758718599446E-28));
#1113=DIRECTION('center_axis',(1.,2.73698485829232E-14,-2.55854502167406E-29));
#1114=DIRECTION('ref_axis',(1.3345785898812E-13,0.707106781186546,0.707106781186549));
#1115=DIRECTION('',(1.,-1.87997765503215E-13,1.758718599446E-28));
#1116=DIRECTION('',(-1.,1.87997765503215E-13,-1.758718599446E-28));
#1117=DIRECTION('center_axis',(-2.4480417692983E-13,-1.,9.34804229523698E-16));
#1118=DIRECTION('ref_axis',(-0.707106781186545,1.74280262913899E-13,0.70710678118655));
#1119=DIRECTION('center_axis',(3.25517390819513E-13,-1.,9.34804229523728E-16));
#1120=DIRECTION('ref_axis',(-0.707106781186545,1.74280262913899E-13,0.70710678118655));
#1121=DIRECTION('',(-2.4480417692983E-13,-1.,9.34804229523698E-16));
#1122=DIRECTION('',(2.4480417692983E-13,1.,-9.34804229523698E-16));
#1123=DIRECTION('center_axis',(0.,-9.34804229523728E-16,-1.));
#1124=DIRECTION('ref_axis',(0.707106781186394,-0.707106781186701,0.));
#1125=DIRECTION('center_axis',(0.,-9.34804229523728E-16,-1.));
#1126=DIRECTION('ref_axis',(0.707106781186394,-0.707106781186701,0.));
#1127=DIRECTION('',(0.,9.34804229523728E-16,1.));
#1128=DIRECTION('',(0.,-9.34804229523728E-16,-1.));
#1129=DIRECTION('center_axis',(-1.,-2.73698485829232E-14,2.55854502167406E-29));
#1130=DIRECTION('ref_axis',(-2.73698485829232E-14,1.,-9.34804229523698E-16));
#1131=DIRECTION('',(0.,-9.34804229523728E-16,-1.));
#1132=DIRECTION('',(-2.73698485829232E-14,1.,-9.34804229523698E-16));
#1133=DIRECTION('',(0.,-9.34804229523728E-16,-1.));
#1134=DIRECTION('',(-2.73698485829232E-14,1.,-9.34804229523698E-16));
#1135=DIRECTION('center_axis',(1.,2.73698485829232E-14,-2.55854502167406E-29));
#1136=DIRECTION('ref_axis',(-2.09345661157836E-14,0.707106781186547,0.707106781186548));
#1137=DIRECTION('',(0.,9.14317612809596E-16,1.));
#1138=DIRECTION('',(2.73698485829232E-14,-1.,9.34804229523698E-16));
#1139=DIRECTION('center_axis',(1.30753611190372E-31,-9.34804229523698E-16,
-1.));
#1140=DIRECTION('ref_axis',(1.,0.,1.30753611190372E-31));
#1141=DIRECTION('',(-1.,-3.25517390819513E-13,3.04164280110409E-28));
#1142=DIRECTION('',(1.,2.99166967704356E-14,-2.78355010631908E-29));
#1143=DIRECTION('center_axis',(-1.30753611190372E-31,9.34804229523698E-16,
1.));
#1144=DIRECTION('ref_axis',(0.484543711852349,-0.874767049736298,1.69221893601627E-15));
#1145=DIRECTION('center_axis',(-3.694335196903E-16,8.9189141363155E-16,
1.));
#1146=DIRECTION('ref_axis',(-3.10209374527617E-16,1.,-1.0449157878825E-15));
#1147=DIRECTION('',(0.5,0.866025403784439,-2.22044604925031E-16));
#1148=DIRECTION('center_axis',(-4.65212580350749E-16,1.12312252086936E-15,
1.));
#1149=DIRECTION('ref_axis',(-5.13992141030165E-16,1.,-1.31581988103722E-15));
#1150=DIRECTION('',(1.,-3.5139097672602E-14,3.29789307371851E-29));
#1151=DIRECTION('',(1.,-1.70058411798087E-12,1.58984397976053E-27));
#1152=DIRECTION('center_axis',(3.25419897842285E-13,-1.,1.02301131041272E-15));
#1153=DIRECTION('ref_axis',(-1.,-3.25419897842285E-13,-3.78566046301636E-33));
#1154=DIRECTION('center_axis',(-1.87997765503215E-13,-1.,9.34804229523728E-16));
#1155=DIRECTION('ref_axis',(-1.,-3.25419897842285E-13,-3.78566046301636E-33));
#1156=DIRECTION('',(3.25419897842285E-13,-1.,1.02301131041272E-15));
#1157=DIRECTION('center_axis',(1.22464679914735E-16,-1.,8.95074806573432E-16));
#1158=DIRECTION('ref_axis',(-1.,-3.25419897842285E-13,-3.78566046301636E-33));
#1159=DIRECTION('center_axis',(-1.87997765503215E-13,-1.,9.34804229523728E-16));
#1160=DIRECTION('ref_axis',(-1.,-3.25419897842285E-13,-3.78566046301636E-33));
#1161=DIRECTION('center_axis',(1.87997765503215E-13,1.,-9.34804229523728E-16));
#1162=DIRECTION('ref_axis',(1.,-1.87997765503215E-13,1.758718599446E-28));
#1163=DIRECTION('',(1.,-1.87997765503215E-13,1.758718599446E-28));
#1164=DIRECTION('center_axis',(-1.,-2.96059473233375E-14,3.28692043842087E-29));
#1165=DIRECTION('ref_axis',(0.,1.11022302462515E-15,1.));
#1166=DIRECTION('center_axis',(0.530434782608719,0.847725746570694,-9.41164642410334E-16));
#1167=DIRECTION('ref_axis',(-0.847725746570694,0.530434782608719,0.));
#1168=DIRECTION('center_axis',(1.,2.99166967704356E-14,-2.78352614625995E-29));
#1169=DIRECTION('ref_axis',(-2.09345661157836E-14,0.707106781186547,0.707106781186548));
#1170=DIRECTION('',(1.,2.99166967704356E-14,-2.78352614625995E-29));
#1171=DIRECTION('',(-1.,-2.99166967704356E-14,2.78352614625995E-29));
#1172=DIRECTION('center_axis',(-1.30993211781669E-31,9.34804229523698E-16,
1.));
#1173=DIRECTION('ref_axis',(1.,0.,0.));
#1174=DIRECTION('center_axis',(-0.866025403784439,0.5,-4.47537403286716E-16));
#1175=DIRECTION('ref_axis',(0.5,0.866025403784439,-8.09564210332662E-16));
#1176=DIRECTION('center_axis',(-1.30993211781669E-31,9.34804229523698E-16,
1.));
#1177=DIRECTION('ref_axis',(-0.330601008929295,0.943770614553628,-8.8164769602586E-16));
#1178=DIRECTION('center_axis',(1.30993211781669E-31,-9.34804229523698E-16,
-1.));
#1179=DIRECTION('ref_axis',(-0.330601008929295,0.943770614553628,-8.82240762184911E-16));
#1180=DIRECTION('center_axis',(-1.30993211781669E-31,9.34804229523698E-16,
1.));
#1181=DIRECTION('ref_axis',(0.484543711852349,-0.874767049736298,1.69221893601627E-15));
#1182=DIRECTION('',(4.81898688306262E-31,9.14317612809596E-16,1.));
#1183=DIRECTION('',(1.30993211781669E-31,-9.34804229523698E-16,-1.));
#1184=DIRECTION('center_axis',(-2.99166967704356E-14,1.,-9.14317612809596E-16));
#1185=DIRECTION('ref_axis',(-1.,-2.99166967704356E-14,2.78355010631908E-29));
#1186=DIRECTION('center_axis',(-1.30993211781669E-31,9.34804229523698E-16,
1.));
#1187=DIRECTION('ref_axis',(-1.83083483162748E-16,1.,-8.95074806573432E-16));
#1188=DIRECTION('',(8.91705871963366E-17,1.04952279413824E-15,1.));
#1189=DIRECTION('center_axis',(-0.866025403784439,0.5,-4.47537403286716E-16));
#1190=DIRECTION('ref_axis',(-0.5,-0.866025403784439,2.22044604925031E-16));
#1191=DIRECTION('',(-0.5,-0.866025403784439,7.83500248806877E-15));
#1192=DIRECTION('',(2.02605709011803E-14,3.41972633846224E-14,-1.));
#1193=DIRECTION('center_axis',(0.866025403784439,-0.5,4.47537403286716E-16));
#1194=DIRECTION('ref_axis',(-0.353553390593532,-0.612372435696244,-0.707106781186029));
#1195=DIRECTION('',(0.353553390593141,0.612372435695565,-0.707106781186813));
#1196=DIRECTION('center_axis',(-0.866025403784439,0.5,-4.47537403286716E-16));
#1197=DIRECTION('ref_axis',(0.353553390593532,0.612372435696243,0.70710678118603));
#1198=DIRECTION('',(-0.353553390593215,-0.612372435695693,-0.707106781186665));
#1199=DIRECTION('center_axis',(0.866025403784439,-0.5,4.47537403286716E-16));
#1200=DIRECTION('ref_axis',(-0.5,-0.866025403784439,2.22044604925031E-16));
#1201=DIRECTION('',(2.76556457927502E-16,-4.16064970281714E-16,-1.));
#1202=DIRECTION('center_axis',(3.25419897842285E-13,-1.,1.02301131041272E-15));
#1203=DIRECTION('ref_axis',(-1.,-3.25419897842285E-13,-3.7856604629518E-33));
#1204=DIRECTION('center_axis',(-1.70058411798087E-12,-1.,9.34804229523728E-16));
#1205=DIRECTION('ref_axis',(-1.,-3.25419897842285E-13,-3.7856604629518E-33));
#1206=DIRECTION('',(3.25419897842285E-13,-1.,1.02301131041272E-15));
#1207=DIRECTION('center_axis',(1.22464679914735E-16,-1.,8.95074806573432E-16));
#1208=DIRECTION('ref_axis',(-1.,-3.25419897842285E-13,-3.7856604629518E-33));
#1209=DIRECTION('center_axis',(1.22464679914735E-16,-1.,8.95074806573432E-16));
#1210=DIRECTION('ref_axis',(0.,-8.95074806573432E-16,-1.));
#1211=DIRECTION('center_axis',(-1.22464679914735E-16,1.,-8.95074806573432E-16));
#1212=DIRECTION('ref_axis',(-1.,-3.25413351244129E-13,-9.99863512094947E-33));
#1213=DIRECTION('center_axis',(1.22464679914735E-16,-1.,8.95074806573432E-16));
#1214=DIRECTION('ref_axis',(0.,-8.95074806573432E-16,-1.));
#1215=DIRECTION('center_axis',(-1.22464679914735E-16,1.,-8.95074806573432E-16));
#1216=DIRECTION('ref_axis',(-1.,-3.25413351244129E-13,-9.99863512094947E-33));
#1217=DIRECTION('center_axis',(3.25413351244129E-13,-1.,9.75752177643564E-16));
#1218=DIRECTION('ref_axis',(-1.,-3.25413351244129E-13,-9.99863512094947E-33));
#1219=DIRECTION('',(3.25413351244129E-13,-1.,9.75752177643564E-16));
#1220=DIRECTION('center_axis',(3.25413351244129E-13,-1.,9.75752177643564E-16));
#1221=DIRECTION('ref_axis',(-1.,-3.25413351244129E-13,-9.99863512094947E-33));
#1222=DIRECTION('',(3.25413351244129E-13,-1.,9.75752177643564E-16));
#1223=DIRECTION('center_axis',(-1.22464679914735E-16,1.,-8.95074806573432E-16));
#1224=DIRECTION('ref_axis',(-1.,-3.25413351244129E-13,-9.99863512094947E-33));
#1225=DIRECTION('center_axis',(-0.943599982132881,3.28364882668287E-14,
-0.331087713029079));
#1226=DIRECTION('ref_axis',(-0.331087713029079,1.25380911992221E-14,0.943599982132881));
#1227=DIRECTION('',(-0.331087713029079,1.25162047406035E-14,0.943599982132881));
#1228=DIRECTION('',(-3.5127163087042E-14,-1.,9.34804229523728E-16));
#1229=DIRECTION('',(-0.331087713029079,1.25380911992221E-14,0.943599982132881));
#1230=DIRECTION('',(3.51108031537706E-14,1.,-8.88178419700125E-16));
#1231=DIRECTION('center_axis',(0.943599982132881,-3.34246181903093E-14,
-0.331087713029081));
#1232=DIRECTION('ref_axis',(-0.331087713029081,1.07157582431168E-14,-0.943599982132881));
#1233=DIRECTION('',(-0.331087713029081,1.07520422320511E-14,-0.943599982132881));
#1234=DIRECTION('',(3.51108031537706E-14,1.,-8.88178419700125E-16));
#1235=DIRECTION('',(-0.331087713029081,1.07157582431168E-14,-0.943599982132881));
#1236=DIRECTION('',(3.50944432204991E-14,1.,-9.34804229523728E-16));
#1237=DIRECTION('center_axis',(1.48029736616691E-15,8.88178419700073E-16,
1.));
#1238=DIRECTION('ref_axis',(1.,-3.51173548990876E-14,-1.48029736616688E-15));
#1239=DIRECTION('',(1.,-3.5139097672602E-14,-1.48029736616688E-15));
#1240=DIRECTION('',(1.,-3.51173548990876E-14,-1.48029736616688E-15));
#1241=DIRECTION('center_axis',(3.51108031537706E-14,1.,-8.88178419700125E-16));
#1242=DIRECTION('ref_axis',(0.,8.88178419700125E-16,1.));
#1243=DIRECTION('',(-1.,3.51108031537706E-14,-3.28217272901198E-29));
#1244=DIRECTION('center_axis',(0.,-9.34804229523728E-16,-1.));
#1245=DIRECTION('ref_axis',(-1.,0.,0.));
#1246=DIRECTION('',(-1.,3.5139097672602E-14,-3.28481771259958E-29));
#1247=DIRECTION('',(9.92114192218868E-15,-1.,9.34804229523728E-16));
#1248=DIRECTION('',(-1.,6.96133334773826E-16,-7.81501996849381E-31));
#1249=DIRECTION('',(2.4480417692983E-13,1.,-9.34804229523698E-16));
#1250=DIRECTION('',(1.,3.25517390819513E-13,-3.04164280110409E-28));
#1251=DIRECTION('',(1.,-1.70058411798087E-12,1.58984397976053E-27));
#1252=DIRECTION('',(-1.01573595869961E-14,1.,-9.34804229523728E-16));
#1253=DIRECTION('',(-1.,3.5139097672602E-14,-3.28481771259958E-29));
#1254=DIRECTION('center_axis',(-1.,-9.92114192218868E-15,9.27432543056685E-30));
#1255=DIRECTION('ref_axis',(-9.92114192218868E-15,1.,-9.34804229523698E-16));
#1256=DIRECTION('',(0.,-9.34804229523698E-16,-1.));
#1257=DIRECTION('',(-9.92114192218868E-15,1.,-9.34804229523698E-16));
#1258=DIRECTION('',(3.94161243576254E-31,8.95074806573432E-16,1.));
#1259=DIRECTION('center_axis',(1.,1.01573595869961E-14,-9.49514270271705E-30));
#1260=DIRECTION('ref_axis',(1.01573595869961E-14,-1.,9.34804229523698E-16));
#1261=DIRECTION('',(1.01573595869961E-14,-1.,9.34804229523698E-16));
#1262=DIRECTION('',(0.,-9.34804229523698E-16,-1.));
#1263=DIRECTION('center_axis',(-1.30993211781669E-31,9.34804229523698E-16,
1.));
#1264=DIRECTION('ref_axis',(1.,0.,0.));
#1265=DIRECTION('center_axis',(-4.28798192641594E-16,1.03521041219641E-15,
1.));
#1266=DIRECTION('ref_axis',(-4.92709928388285E-16,1.,-1.21282443910963E-15));
#1267=DIRECTION('center_axis',(-4.28798192641601E-16,1.03521041219642E-15,
1.));
#1268=DIRECTION('ref_axis',(-4.92709928388294E-16,1.,-1.21282443910965E-15));
#1269=DIRECTION('center_axis',(-1.30993211781669E-31,9.34804229523698E-16,
1.));
#1270=DIRECTION('ref_axis',(-1.83083483162747E-16,1.,-8.95074806573432E-16));
#1271=DIRECTION('center_axis',(-4.41277894619942E-16,1.06533907796691E-15,
1.));
#1272=DIRECTION('ref_axis',(-4.87547799489818E-16,1.,-1.24812236669393E-15));
#1273=DIRECTION('center_axis',(-1.30993211781669E-31,9.34804229523698E-16,
1.));
#1274=DIRECTION('ref_axis',(1.,0.,0.));
#1275=DIRECTION('center_axis',(0.,0.,-1.));
#1276=DIRECTION('ref_axis',(3.90634027182925E-16,1.,0.));
#1277=DIRECTION('center_axis',(-1.30993211781669E-31,9.34804229523698E-16,
1.));
#1278=DIRECTION('ref_axis',(-1.83083483162747E-16,1.,-8.95074806573432E-16));
#1279=DIRECTION('',(1.30993211781669E-31,-9.34804229523698E-16,-1.));
#1280=DIRECTION('center_axis',(1.30753611190372E-31,-9.34804229523698E-16,
-1.));
#1281=DIRECTION('ref_axis',(1.,0.,1.30753611190372E-31));
#1282=DIRECTION('',(1.,-3.5139097672602E-14,3.29789307371851E-29));
#1283=DIRECTION('center_axis',(-3.5139097672602E-14,-1.,9.34804229523636E-16));
#1284=DIRECTION('ref_axis',(1.,-3.5139097672602E-14,3.29789307371851E-29));
#1285=DIRECTION('',(1.30993211781669E-31,-9.34804229523698E-16,-1.));
#1286=DIRECTION('',(1.,-3.5139097672602E-14,3.29791703377764E-29));
#1287=DIRECTION('center_axis',(1.22464679914735E-16,-1.,8.95074806573432E-16));
#1288=DIRECTION('ref_axis',(1.,1.22464679914735E-16,-4.28918890764738E-16));
#1289=DIRECTION('',(-1.,-1.22464679914742E-16,-7.184038992379E-15));
#1290=DIRECTION('center_axis',(1.70058411798087E-12,1.,-9.34804229523728E-16));
#1291=DIRECTION('ref_axis',(1.,-1.70058411798087E-12,1.58984397976053E-27));
#1292=DIRECTION('center_axis',(-3.25517390819513E-13,1.,-9.34804229523728E-16));
#1293=DIRECTION('ref_axis',(1.,3.25517390819513E-13,-3.04164280110409E-28));
#1294=DIRECTION('',(0.,-9.34804229523728E-16,-1.));
#1295=DIRECTION('center_axis',(-1.,2.4480417692983E-13,-2.2884397999908E-28));
#1296=DIRECTION('ref_axis',(2.4480417692983E-13,1.,-9.34804229523698E-16));
#1297=DIRECTION('center_axis',(-1.30993211781669E-31,9.34804229523698E-16,
1.));
#1298=DIRECTION('ref_axis',(1.,0.,1.30993211781669E-31));
#1299=DIRECTION('center_axis',(-4.65212580350752E-16,1.12312252086937E-15,
1.));
#1300=DIRECTION('ref_axis',(-5.96230883594995E-16,1.,-1.31581988103723E-15));
#1301=DIRECTION('center_axis',(-1.30993211781669E-31,9.34804229523698E-16,
1.));
#1302=DIRECTION('ref_axis',(-1.83083483162748E-16,1.,-8.95074806573432E-16));
#1303=DIRECTION('center_axis',(-4.65212580350749E-16,1.12312252086936E-15,
1.));
#1304=DIRECTION('ref_axis',(-7.60708368724644E-16,1.,-1.31581988103722E-15));
#1305=DIRECTION('center_axis',(-1.30993211781669E-31,9.34804229523698E-16,
1.));
#1306=DIRECTION('ref_axis',(1.,0.,0.));
#1307=DIRECTION('center_axis',(-4.41277894619999E-16,1.06533907796705E-15,
1.));
#1308=DIRECTION('ref_axis',(-6.43563095326643E-16,1.,-1.24812236669409E-15));
#1309=DIRECTION('center_axis',(1.30993211781669E-31,-9.34804229523698E-16,
-1.));
#1310=DIRECTION('ref_axis',(-1.83083483162748E-16,1.,-8.95074806573432E-16));
#1311=DIRECTION('',(-7.4789859695287E-31,2.67150065542256E-44,1.));
#1312=DIRECTION('',(1.,0.,7.47898596936637E-31));
#1313=DIRECTION('center_axis',(0.,0.,1.));
#1314=DIRECTION('ref_axis',(1.,0.,0.));
#1315=CARTESIAN_POINT('',(0.,0.,0.));
#1316=CARTESIAN_POINT('',(0.,0.,0.));
#1317=CARTESIAN_POINT('Origin',(9.20000000007023,24.8250000000011,-60.0999999999994));
#1318=CARTESIAN_POINT('',(11.2000000000639,33.0999999999965,-60.0999999999994));
#1319=CARTESIAN_POINT('',(9.20000000006389,33.0999999999959,-58.0999999999994));
#1320=CARTESIAN_POINT('Origin',(9.20000000006389,33.1000000000073,-60.0999999999994));
#1321=CARTESIAN_POINT('',(9.20000000007776,15.0000000000135,-58.0999999999994));
#1322=CARTESIAN_POINT('',(9.20000000007023,24.8250000000011,-58.0999999999994));
#1323=CARTESIAN_POINT('',(11.2000000000778,15.0000000000101,-60.0999999999994));
#1324=CARTESIAN_POINT('Origin',(9.20000000007776,15.0000000000086,-60.0999999999994));
#1325=CARTESIAN_POINT('',(11.2000000000702,24.8250000000026,-60.0999999999994));
#1326=CARTESIAN_POINT('Origin',(11.2000000000639,33.0999999999965,-58.0999999999994));
#1327=CARTESIAN_POINT('',(11.2000000000778,15.0000000000101,-64.9999999999994));
#1328=CARTESIAN_POINT('',(11.2000000000778,15.0000000000101,-58.0999999999994));
#1329=CARTESIAN_POINT('',(11.2000000000639,33.0999999999965,-64.9999999999994));
#1330=CARTESIAN_POINT('',(11.2000000000639,33.0999999999965,-64.9999999999994));
#1331=CARTESIAN_POINT('',(11.2000000000639,33.0999999999965,-58.0999999999994));
#1332=CARTESIAN_POINT('Origin',(17.2000000000264,15.7749999999748,-60.0999999999994));
#1333=CARTESIAN_POINT('',(19.2000000000247,14.9999999999965,-60.0999999999994));
#1334=CARTESIAN_POINT('',(17.2000000000247,14.9999999999999,-58.0999999999994));
#1335=CARTESIAN_POINT('Origin',(17.2000000000247,14.9999999999971,-60.0999999999994));
#1336=CARTESIAN_POINT('',(17.1999999999922,-3.8324793788388E-14,-58.0999999999993));
#1337=CARTESIAN_POINT('',(17.2000000000264,15.7749999999748,-58.0999999999994));
#1338=CARTESIAN_POINT('',(19.1999999999922,-3.50178071762702E-12,-60.0999999999993));
#1339=CARTESIAN_POINT('Origin',(17.1999999999922,-7.31348315241576E-11,
-60.0999999999993));
#1340=CARTESIAN_POINT('',(19.2000000000264,15.7749999999705,-60.0999999999994));
#1341=CARTESIAN_POINT('Origin',(19.2000000000247,14.9999999999965,-58.0999999999994));
#1342=CARTESIAN_POINT('',(19.1999999999922,-3.50636125835169E-12,-64.9999999999993));
#1343=CARTESIAN_POINT('',(19.1999999999922,-3.49991110916797E-12,-58.0999999999993));
#1344=CARTESIAN_POINT('',(19.2000000000247,14.9999999999965,-64.9999999999994));
#1345=CARTESIAN_POINT('',(19.1999999999922,-3.50636125835169E-12,-64.9999999999993));
#1346=CARTESIAN_POINT('',(19.2000000000247,14.9999999999965,-58.0999999999994));
#1347=CARTESIAN_POINT('Origin',(-16.550000000007,-1.69309011255336E-14,
-52.0286796564397));
#1348=CARTESIAN_POINT('',(9.19999999999219,-1.29998235936475E-12,-58.0999999999993));
#1349=CARTESIAN_POINT('',(3.39999999999218,-2.87181537685092E-14,-58.0999999999993));
#1350=CARTESIAN_POINT('',(8.69999999999219,-1.19263826200926E-12,-57.5999999999993));
#1351=CARTESIAN_POINT('Origin',(8.69999999999219,-2.42216802959248E-14,
-58.0999999999993));
#1352=CARTESIAN_POINT('',(8.19999999999219,-1.08279038367384E-12,-57.5999999999993));
#1353=CARTESIAN_POINT('',(3.39999999999218,-2.82507516537474E-14,-57.5999999999993));
#1354=CARTESIAN_POINT('',(7.69999999999219,-9.70801232563393E-13,-58.0999999999993));
#1355=CARTESIAN_POINT('Origin',(8.19999999999219,-2.42829126358822E-14,
-58.0999999999993));
#1356=CARTESIAN_POINT('',(3.39999999999218,-2.87181537685092E-14,-58.0999999999993));
#1357=CARTESIAN_POINT('',(3.39999999999218,-2.87181537685092E-14,-58.0999999999993));
#1358=CARTESIAN_POINT('',(3.39999999999218,-3.51683029522229E-14,-64.9999999999993));
#1359=CARTESIAN_POINT('',(3.39999999999218,-1.72084568816899E-14,-55.0643398282195));
#1360=CARTESIAN_POINT('',(3.39999999999218,-3.51683029522229E-14,-64.9999999999993));
#1361=CARTESIAN_POINT('',(17.7499999999922,1.11330518181629E-11,-61.5499999999993));
#1362=CARTESIAN_POINT('Origin',(16.6999999999922,1.07913677993565E-11,-61.5499999999993));
#1363=CARTESIAN_POINT('Origin',(-1.30000000000782,-2.54463270950722E-14,
-58.0999999999993));
#1364=CARTESIAN_POINT('',(-10.689355675452,4.70000000000047,-58.0999999999993));
#1365=CARTESIAN_POINT('',(-10.1266641490505,4.70000000000045,-57.5999999999993));
#1366=CARTESIAN_POINT('Ctrl Pts',(-10.689355675452,4.70000000000047,-58.0999999999993));
#1367=CARTESIAN_POINT('Ctrl Pts',(-10.689355675452,4.70000000000047,-58.040562617603));
#1368=CARTESIAN_POINT('Ctrl Pts',(-10.6743222954019,4.70000000000047,-57.9708400747787));
#1369=CARTESIAN_POINT('Ctrl Pts',(-10.624862321889,4.70000000000047,-57.8588517617582));
#1370=CARTESIAN_POINT('Ctrl Pts',(-10.5804223898705,4.70000000000046,-57.797712160293));
#1371=CARTESIAN_POINT('Ctrl Pts',(-10.484842562745,4.70000000000046,-57.7084896352936));
#1372=CARTESIAN_POINT('Ctrl Pts',(-10.4154804575381,4.70000000000046,-57.6660441504659));
#1373=CARTESIAN_POINT('Ctrl Pts',(-10.2846891570373,4.70000000000045,-57.6154770886037));
#1374=CARTESIAN_POINT('Ctrl Pts',(-10.199124835067,4.70000000000045,-57.5999999999993));
#1375=CARTESIAN_POINT('Ctrl Pts',(-10.1266641490505,4.70000000000045,-57.5999999999993));
#1376=CARTESIAN_POINT('Origin',(-1.30000000000782,-2.49789249803103E-14,
-57.5999999999993));
#1377=CARTESIAN_POINT('Origin',(-1.30000000000782,-2.54463270950722E-14,
-58.0999999999993));
#1378=CARTESIAN_POINT('Origin',(-4.79999999997192,16.5499999999965,-57.5999999999994));
#1379=CARTESIAN_POINT('',(-9.55590697622769,4.70000000000043,-57.5999999999993));
#1380=CARTESIAN_POINT('',(3.39999999999214,4.69999999999997,-57.5999999999993));
#1381=CARTESIAN_POINT('Origin',(-1.30000000000782,-2.49789249803103E-14,
-57.5999999999993));
#1382=CARTESIAN_POINT('Origin',(-1.30000000000782,-2.54463270950722E-14,
-58.0999999999993));
#1383=CARTESIAN_POINT('',(-8.97528501100227,4.70000000000041,-58.0999999999993));
#1384=CARTESIAN_POINT('Ctrl Pts',(-9.55590697622768,4.70000000000043,-57.5999999999993));
#1385=CARTESIAN_POINT('Ctrl Pts',(-9.48139712504819,4.70000000000042,-57.5999999999993));
#1386=CARTESIAN_POINT('Ctrl Pts',(-9.39339341971278,4.70000000000042,-57.6158057475633));
#1387=CARTESIAN_POINT('Ctrl Pts',(-9.25835849552885,4.70000000000042,-57.6669826690817));
#1388=CARTESIAN_POINT('Ctrl Pts',(-9.18631117050182,4.70000000000041,-57.7099309110734));
#1389=CARTESIAN_POINT('Ctrl Pts',(-9.08740366235673,4.70000000000041,-57.7998684350532));
#1390=CARTESIAN_POINT('Ctrl Pts',(-9.04136915222333,4.70000000000041,-57.8610222562555));
#1391=CARTESIAN_POINT('Ctrl Pts',(-8.99068810051633,4.70000000000041,-57.9725427022226));
#1392=CARTESIAN_POINT('Ctrl Pts',(-8.97528501100227,4.70000000000041,-58.0412901245538));
#1393=CARTESIAN_POINT('Ctrl Pts',(-8.97528501100227,4.70000000000041,-58.0999999999994));
#1394=CARTESIAN_POINT('Origin',(-1.30000000000782,-2.54463270950722E-14,
-58.0999999999993));
#1395=CARTESIAN_POINT('Origin',(-21.8000000000076,26.0999999999875,-60.0999999999994));
#1396=CARTESIAN_POINT('',(-21.8000000000089,19.0999999999875,-58.0999999999994));
#1397=CARTESIAN_POINT('',(-14.8000000000076,26.0999999999858,-58.0999999999994));
#1398=CARTESIAN_POINT('Origin',(-21.8000000000076,26.0999999999875,-58.0999999999994));
#1399=CARTESIAN_POINT('',(-16.8000000000076,26.0999999999863,-60.0999999999994));
#1400=CARTESIAN_POINT('Origin',(-14.8000000000076,26.0999999999858,-60.0999999999994));
#1401=CARTESIAN_POINT('',(-21.8000000000085,21.0999999999875,-60.0999999999994));
#1402=CARTESIAN_POINT('Origin',(-21.8000000000076,26.0999999999875,-60.0999999999994));
#1403=CARTESIAN_POINT('Origin',(-21.8000000000089,19.0999999999875,-60.0999999999994));
#1404=CARTESIAN_POINT('Origin',(-16.7999999999993,19.0999999999866,-60.0999999999994));
#1405=CARTESIAN_POINT('',(-24.9225022686181,21.0999999999894,-60.0999999999994));
#1406=CARTESIAN_POINT('',(-27.6774977314093,21.0999999999899,-60.0999999999994));
#1407=CARTESIAN_POINT('Ctrl Pts',(-24.9225022686181,21.0999999999881,-60.0999999999994));
#1408=CARTESIAN_POINT('Ctrl Pts',(-25.0430948766073,21.0999999999881,-59.9854372110834));
#1409=CARTESIAN_POINT('Ctrl Pts',(-25.1791377125187,21.0901401628546,-59.8851235573095));
#1410=CARTESIAN_POINT('Ctrl Pts',(-25.6233676657309,21.0529776585348,-59.6373086227448));
#1411=CARTESIAN_POINT('Ctrl Pts',(-25.9667635014569,21.0228884522912,-59.5499999999994));
#1412=CARTESIAN_POINT('Ctrl Pts',(-26.6332364985704,21.0228884522914,-59.5499999999994));
#1413=CARTESIAN_POINT('Ctrl Pts',(-26.9766323342965,21.052977658535,-59.6373086227448));
#1414=CARTESIAN_POINT('Ctrl Pts',(-27.4208622875087,21.090140162855,-59.8851235573095));
#1415=CARTESIAN_POINT('Ctrl Pts',(-27.5569051234201,21.0999999999886,-59.9854372110833));
#1416=CARTESIAN_POINT('Ctrl Pts',(-27.6774977314093,21.0999999999886,-60.0999999999994));
#1417=CARTESIAN_POINT('',(-28.8000000000074,21.0999999999888,-60.0999999999994));
#1418=CARTESIAN_POINT('',(-16.799999999999,21.0999999999866,-60.0999999999994));
#1419=CARTESIAN_POINT('',(-28.8000000000074,19.0999999999888,-58.0999999999994));
#1420=CARTESIAN_POINT('Origin',(-28.8000000000032,19.0999999999888,-60.0999999999994));
#1421=CARTESIAN_POINT('',(-16.7999999999993,19.0999999999866,-58.0999999999994));
#1422=CARTESIAN_POINT('',(-16.799999999999,21.0999999999866,-60.0999999999994));
#1423=CARTESIAN_POINT('Origin',(-14.8000000000094,18.8249999999925,-60.0999999999994));
#1424=CARTESIAN_POINT('',(-14.8000000000059,33.0999999999881,-58.0999999999994));
#1425=CARTESIAN_POINT('',(-16.8000000000059,33.0999999999874,-60.0999999999994));
#1426=CARTESIAN_POINT('Origin',(-14.8000000000059,33.0999999999869,-60.0999999999994));
#1427=CARTESIAN_POINT('',(-16.8000000000094,18.824999999993,-60.0999999999994));
#1428=CARTESIAN_POINT('',(-14.8000000000094,18.8249999999925,-58.0999999999994));
#1429=CARTESIAN_POINT('Origin',(-21.8000000000076,26.0999999999875,-58.0999999999994));
#1430=CARTESIAN_POINT('',(-16.8000000000076,26.0999999999863,-64.9999999999994));
#1431=CARTESIAN_POINT('',(-21.8000000000085,21.0999999999875,-64.9999999999994));
#1432=CARTESIAN_POINT('Origin',(-21.8000000000076,26.0999999999875,-64.9999999999994));
#1433=CARTESIAN_POINT('',(-21.8000000000085,21.0999999999875,-58.0999999999994));
#1434=CARTESIAN_POINT('',(-16.8000000000076,26.0999999999863,-58.0999999999994));
#1435=CARTESIAN_POINT('Origin',(-28.8000000000068,6.49258424800792E-12,
-58.0999999999993));
#1436=CARTESIAN_POINT('',(-28.8000000000074,21.0999999999888,-64.9999999999994));
#1437=CARTESIAN_POINT('',(-28.8000000000074,21.0999999999888,-58.0999999999994));
#1438=CARTESIAN_POINT('',(-28.8000000000068,6.48514085767982E-12,-64.9999999999993));
#1439=CARTESIAN_POINT('',(-28.8000000000077,33.0999999999835,-64.9999999999994));
#1440=CARTESIAN_POINT('',(-28.8000000000068,6.50269323710979E-12,-45.9573593128801));
#1441=CARTESIAN_POINT('',(-28.8000000000068,6.49159100686353E-12,-58.0999999999993));
#1442=CARTESIAN_POINT('',(-28.800000000007,4.70000000000031,-45.9573593128801));
#1443=CARTESIAN_POINT('',(-28.800000000007,4.65000000000023,-45.9573593128801));
#1444=CARTESIAN_POINT('',(-28.800000000007,6.2000000000003,-47.4573593128801));
#1445=CARTESIAN_POINT('Origin',(-28.800000000007,4.7000000000003,-47.4573593128801));
#1446=CARTESIAN_POINT('',(-28.800000000007,6.2000000000003,-58.0999999999994));
#1447=CARTESIAN_POINT('',(-28.800000000007,6.2000000000003,-58.0999999999994));
#1448=CARTESIAN_POINT('',(-28.8000000000077,33.0999999999835,-58.0999999999994));
#1449=CARTESIAN_POINT('Origin',(-4.79999999999136,16.5499999999965,-58.0999999999994));
#1450=CARTESIAN_POINT('',(11.2000000000639,33.0999999999965,-58.0999999999994));
#1451=CARTESIAN_POINT('',(-20.7976921711336,6.20000000000053,-58.0999999999994));
#1452=CARTESIAN_POINT('',(-10.2499999999995,6.20000000000085,-58.0999999999994));
#1453=CARTESIAN_POINT('',(-15.7113376917096,9.01739130434821,-58.0999999999994));
#1454=CARTESIAN_POINT('Origin',(-20.7976921711338,12.2000000000005,-58.0999999999994));
#1455=CARTESIAN_POINT('',(7.19999999999217,14.7224318643354,-58.0999999999994));
#1456=CARTESIAN_POINT('Origin',(-1.30000000000782,-2.44249065417534E-14,
-58.0999999999993));
#1457=CARTESIAN_POINT('',(5.44999999999218,11.6913429510899,-58.0999999999994));
#1458=CARTESIAN_POINT('',(5.44999999999218,11.6913429510899,-58.0999999999994));
#1459=CARTESIAN_POINT('',(-13.9554336156527,4.70000000000058,-58.0999999999994));
#1460=CARTESIAN_POINT('Origin',(-1.30000000000782,-2.33146835171283E-14,
-58.0999999999993));
#1461=CARTESIAN_POINT('',(-10.9999999999998,4.70000000000048,-58.0999999999994));
#1462=CARTESIAN_POINT('',(11.2000000000778,15.0000000000101,-58.0999999999994));
#1463=CARTESIAN_POINT('Origin',(-26.3000000000176,33.0999999999843,-61.5499999999994));
#1464=CARTESIAN_POINT('',(-24.3000000000137,21.0999999999903,-61.5499999999994));
#1465=CARTESIAN_POINT('Origin',(-26.3000000000137,21.0999999999896,-61.5499999999994));
#1466=CARTESIAN_POINT('',(-24.3000000000091,6.99999999999363,-61.5499999999993));
#1467=CARTESIAN_POINT('',(-24.3000000000176,33.099999999985,-61.5499999999994));
#1468=CARTESIAN_POINT('Origin',(-26.3000000000091,6.99999999999298,-61.5499999999993));
#1469=CARTESIAN_POINT('Origin',(-26.3000000000137,21.0999999999896,-61.5499999999994));
#1470=CARTESIAN_POINT('Origin',(-28.8000000000074,21.0999999999888,-58.0999999999994));
#1471=CARTESIAN_POINT('',(-16.8000000000088,21.0999999999866,-64.9999999999994));
#1472=CARTESIAN_POINT('Ctrl Pts',(-14.0158861985682,7.95652173913079,-45.9573593128801));
#1473=CARTESIAN_POINT('Ctrl Pts',(-14.3967762473616,7.34779412253912,-45.9573593128801));
#1474=CARTESIAN_POINT('Ctrl Pts',(-15.3915975387143,6.27092390488112,-45.9573593128801));
#1475=CARTESIAN_POINT('Ctrl Pts',(-17.7732570007291,4.96575803628215,-45.9573593128801));
#1476=CARTESIAN_POINT('Ctrl Pts',(-19.7205850659392,4.70000000000057,-45.9573593128801));
#1477=CARTESIAN_POINT('Ctrl Pts',(-20.7976921711336,4.70000000000054,-45.9573593128801));
#1478=CARTESIAN_POINT('Ctrl Pts',(-14.2442414838964,8.0994070845631,-45.9573593128801));
#1479=CARTESIAN_POINT('Ctrl Pts',(-14.6070312169142,7.5196068765939,-45.9573593128801));
#1480=CARTESIAN_POINT('Ctrl Pts',(-15.5487316551535,6.48139836732169,-45.9573853151861));
#1481=CARTESIAN_POINT('Ctrl Pts',(-17.8361615103022,5.18439504786629,-45.9573501281486));
#1482=CARTESIAN_POINT('Ctrl Pts',(-19.7380012181249,4.90203050891102,-45.9573593128801));
#1483=CARTESIAN_POINT('Ctrl Pts',(-20.7976921711336,4.90203050891099,-45.9573593128801));
#1484=CARTESIAN_POINT('Ctrl Pts',(-14.7449243307031,8.41269189167929,-46.0698075272143));
#1485=CARTESIAN_POINT('Ctrl Pts',(-15.0698064545563,7.89347454390956,-46.0698075272143));
#1486=CARTESIAN_POINT('Ctrl Pts',(-15.9018457451798,6.93807363048767,-46.0651944444103));
#1487=CARTESIAN_POINT('Ctrl Pts',(-17.9817170650971,5.66331199448926,-46.0503450398403));
#1488=CARTESIAN_POINT('Ctrl Pts',(-19.7813467736804,5.34499468290724,-46.0416954736307));
#1489=CARTESIAN_POINT('Ctrl Pts',(-20.7976921711336,5.34499468290721,-46.0416954736307));
#1490=CARTESIAN_POINT('Ctrl Pts',(-15.3474059460822,8.7896737233296,-46.6244384013698));
#1491=CARTESIAN_POINT('Ctrl Pts',(-15.6353690116374,8.32945936194856,-46.6244384013698));
#1492=CARTESIAN_POINT('Ctrl Pts',(-16.3551440001779,7.46256601558605,-46.5983623069666));
#1493=CARTESIAN_POINT('Ctrl Pts',(-18.1921218322485,6.22907832867361,-46.5100858883378));
#1494=CARTESIAN_POINT('Ctrl Pts',(-19.8512213233323,5.87802227274065,-46.4576686292473));
#1495=CARTESIAN_POINT('Ctrl Pts',(-20.7976921711336,5.87802227274062,-46.4576686292473));
#1496=CARTESIAN_POINT('Ctrl Pts',(-15.6585842253447,8.98438266496654,-47.3245682702113));
#1497=CARTESIAN_POINT('Ctrl Pts',(-15.9357582661013,8.54141101541751,-47.3245682702113));
#1498=CARTESIAN_POINT('Ctrl Pts',(-16.6158711272029,7.70800750911611,-47.2703912817632));
#1499=CARTESIAN_POINT('Ctrl Pts',(-18.3338637425921,6.50919828385087,-47.0892863471689));
#1500=CARTESIAN_POINT('Ctrl Pts',(-19.904983162183,6.15332794841581,-46.9827660308785));
#1501=CARTESIAN_POINT('Ctrl Pts',(-20.7976921711336,6.15332794841579,-46.9827660308785));
#1502=CARTESIAN_POINT('Ctrl Pts',(-15.7113376917096,9.01739130434822,-47.7553288039696));
#1503=CARTESIAN_POINT('Ctrl Pts',(-15.9929345628374,8.56735121339721,-47.7553288039696));
#1504=CARTESIAN_POINT('Ctrl Pts',(-16.6799289280175,7.73034935169959,-47.6826692830689));
#1505=CARTESIAN_POINT('Ctrl Pts',(-18.3827228679407,6.54738083828118,-47.4443128762163));
#1506=CARTESIAN_POINT('Ctrl Pts',(-19.9273929465863,6.20000000000057,-47.3058364311972));
#1507=CARTESIAN_POINT('Ctrl Pts',(-20.7976921711336,6.20000000000054,-47.3058364311972));
#1508=CARTESIAN_POINT('Ctrl Pts',(-15.7113376917096,9.01739130434822,-47.9573593128801));
#1509=CARTESIAN_POINT('Ctrl Pts',(-15.9970052283047,8.56084559190447,-47.9573593128801));
#1510=CARTESIAN_POINT('Ctrl Pts',(-16.6928473476839,7.71788745786314,-47.8757266598188));
#1511=CARTESIAN_POINT('Ctrl Pts',(-18.3988828433053,6.54141241175709,-47.6104205373699));
#1512=CARTESIAN_POINT('Ctrl Pts',(-19.9360064869781,6.20000000000057,-47.4573593128801));
#1513=CARTESIAN_POINT('Ctrl Pts',(-20.7976921711336,6.20000000000054,-47.4573593128801));
#1514=CARTESIAN_POINT('',(-20.7976921711336,6.20000000000054,-47.4573593128801));
#1515=CARTESIAN_POINT('',(-15.7113376917096,9.01739130434822,-47.9573593128801));
#1516=CARTESIAN_POINT('Ctrl Pts',(-15.7113376917096,9.01739130434822,-47.9573593128801));
#1517=CARTESIAN_POINT('Ctrl Pts',(-15.9970052283047,8.56084559190447,-47.9573593128801));
#1518=CARTESIAN_POINT('Ctrl Pts',(-16.6928473476839,7.71788745786314,-47.8757266598188));
#1519=CARTESIAN_POINT('Ctrl Pts',(-18.3988828433053,6.54141241175709,-47.6104205373699));
#1520=CARTESIAN_POINT('Ctrl Pts',(-19.9360064869781,6.20000000000057,-47.4573593128801));
#1521=CARTESIAN_POINT('Ctrl Pts',(-20.7976921711336,6.20000000000054,-47.4573593128801));
#1522=CARTESIAN_POINT('',(-20.7976921711336,4.70000000000055,-45.9573593128801));
#1523=CARTESIAN_POINT('Origin',(-20.7976921711336,4.70000000000054,-47.4573593128801));
#1524=CARTESIAN_POINT('',(-14.0158861985682,7.95652173913079,-45.9573593128801));
#1525=CARTESIAN_POINT('Ctrl Pts',(-20.7976921711336,4.70000000000054,-45.9573593128801));
#1526=CARTESIAN_POINT('Ctrl Pts',(-19.7205850659392,4.70000000000057,-45.9573593128801));
#1527=CARTESIAN_POINT('Ctrl Pts',(-17.7732570007291,4.96575803628215,-45.9573593128801));
#1528=CARTESIAN_POINT('Ctrl Pts',(-15.3915975387143,6.27092390488112,-45.9573593128801));
#1529=CARTESIAN_POINT('Ctrl Pts',(-14.3967762473616,7.34779412253912,-45.9573593128801));
#1530=CARTESIAN_POINT('Ctrl Pts',(-14.0158861985682,7.95652173913079,-45.9573593128801));
#1531=CARTESIAN_POINT('Origin',(-14.0158861985682,7.95652173913078,-47.9573593128801));
#1532=CARTESIAN_POINT('Origin',(-8.50000000000769,4.70000000000091,-47.4573593128801));
#1533=CARTESIAN_POINT('',(-8.50000000000769,4.70000000000091,-45.9573593128801));
#1534=CARTESIAN_POINT('',(-8.50000000000773,6.20000000000091,-47.4573593128801));
#1535=CARTESIAN_POINT('Origin',(-1.30000000000782,-1.12302861773546E-14,
-47.9573593128801));
#1536=CARTESIAN_POINT('',(6.19999999999218,12.9903810567666,-45.9573593128801));
#1537=CARTESIAN_POINT('',(7.19999999999217,14.7224318643355,-47.9573593128801));
#1538=CARTESIAN_POINT('Origin',(6.19999999999218,12.9903810567666,-47.9573593128801));
#1539=CARTESIAN_POINT('Origin',(-1.30000000000782,-1.12302861773546E-14,
-47.9573593128801));
#1540=CARTESIAN_POINT('Origin',(-1.30000000000782,-9.36067771830718E-15,
-45.9573593128801));
#1541=CARTESIAN_POINT('Origin',(-20.7976921711338,12.2000000000005,-52.0286796564397));
#1542=CARTESIAN_POINT('',(-20.7976921711336,6.20000000000054,-52.0286796564397));
#1543=CARTESIAN_POINT('',(-15.7113376917096,9.01739130434822,-52.0286796564397));
#1544=CARTESIAN_POINT('Origin',(-15.7000000000079,6.20000000000069,-58.0999999999994));
#1545=CARTESIAN_POINT('Origin',(-1.30000000000782,-1.503617365426E-14,-52.0286796564397));
#1546=CARTESIAN_POINT('',(7.19999999999217,14.7224318643354,-58.0999999999994));
#1547=CARTESIAN_POINT('Origin',(6.32499999999178,13.206887407712,-52.0286796564397));
#1548=CARTESIAN_POINT('',(5.44999999999213,11.6913429510898,-45.9573593128801));
#1549=CARTESIAN_POINT('',(7.19999999999217,14.7224318643355,-45.9573593128801));
#1550=CARTESIAN_POINT('',(5.44999999999217,11.6913429510899,-47.9573593128801));
#1551=CARTESIAN_POINT('',(5.44999999999217,11.6913429510899,-47.9573593128801));
#1552=CARTESIAN_POINT('',(5.81611652350778,12.3254753713094,-49.7251262658463));
#1553=CARTESIAN_POINT('Origin',(6.69999999999217,13.856406460551,-47.9573593128801));
#1554=CARTESIAN_POINT('',(6.02322330469529,12.6841948389182,-50.1393398282216));
#1555=CARTESIAN_POINT('',(5.81611652350778,12.3254753713094,-49.7251262658463));
#1556=CARTESIAN_POINT('',(6.02322330469542,12.6841948389185,-52.2606601717782));
#1557=CARTESIAN_POINT('Origin',(5.49289321880563,11.765636185375,-51.1999999999994));
#1558=CARTESIAN_POINT('',(5.81611652350869,12.325475371311,-52.6748737341529));
#1559=CARTESIAN_POINT('',(5.81611652350843,12.3254753713106,-52.6748737341524));
#1560=CARTESIAN_POINT('',(5.44999999999217,11.6913429510899,-54.4426406871187));
#1561=CARTESIAN_POINT('Origin',(6.69999999999217,13.856406460551,-54.4426406871187));
#1562=CARTESIAN_POINT('',(5.44999999999218,11.6913429510899,-57.5999999999994));
#1563=CARTESIAN_POINT('Origin',(16.6999999999814,33.0999999999983,-61.5499999999994));
#1564=CARTESIAN_POINT('',(18.6999999999873,15.0000000000125,-61.5499999999994));
#1565=CARTESIAN_POINT('Origin',(16.6999999999873,15.0000000000119,-61.5499999999994));
#1566=CARTESIAN_POINT('',(18.6999999999899,7.00000000000762,-61.5499999999993));
#1567=CARTESIAN_POINT('',(18.6999999999814,33.099999999999,-61.5499999999994));
#1568=CARTESIAN_POINT('Origin',(16.6999999999899,7.00000000000697,-61.5499999999993));
#1569=CARTESIAN_POINT('Origin',(-4.80000000000732,6.99999999999997,-61.5499999999994));
#1570=CARTESIAN_POINT('',(17.7499999999899,7.00000000000731,-61.5499999999993));
#1571=CARTESIAN_POINT('Origin',(16.6999999999899,7.00000000000697,-61.5499999999993));
#1572=CARTESIAN_POINT('Origin',(-4.80000000000732,6.99999999999997,-61.5499999999994));
#1573=CARTESIAN_POINT('',(-25.2500000000091,6.99999999999332,-61.5499999999993));
#1574=CARTESIAN_POINT('Origin',(-26.3000000000091,6.99999999999298,-61.5499999999993));
#1575=CARTESIAN_POINT('Origin',(16.6999999999814,33.0999999999983,-61.5499999999994));
#1576=CARTESIAN_POINT('',(17.7499999999814,33.0999999999987,-61.5499999999994));
#1577=CARTESIAN_POINT('Origin',(-26.3000000000176,33.0999999999843,-61.5499999999994));
#1578=CARTESIAN_POINT('',(-25.2500000000068,-2.85575829211412E-12,-61.5499999999993));
#1579=CARTESIAN_POINT('',(-25.2500000000176,33.0999999999847,-61.5499999999994));
#1580=CARTESIAN_POINT('Origin',(-26.3000000000068,-3.19744231092045E-12,
-61.5499999999993));
#1581=CARTESIAN_POINT('Origin',(-10.9000000000079,4.70000000000047,-64.9999999999993));
#1582=CARTESIAN_POINT('',(-10.9000000000079,4.70000000000046,-64.9999999999993));
#1583=CARTESIAN_POINT('',(-12.9000000000079,4.70000000000054,-59.2999999999993));
#1584=CARTESIAN_POINT('',(-11.9662842244773,4.70000000000051,-61.9610899602616));
#1585=CARTESIAN_POINT('',(-10.9000000000075,14.7000000000005,-64.9999999999994));
#1586=CARTESIAN_POINT('',(-10.9000000000077,10.6249999999986,-64.9999999999993));
#1587=CARTESIAN_POINT('',(-12.9000000000075,14.7000000000005,-59.2999999999993));
#1588=CARTESIAN_POINT('',(-12.9000000000075,14.7000000000005,-59.2999999999993));
#1589=CARTESIAN_POINT('',(-12.9000000000079,4.70000000000054,-59.2999999999993));
#1590=CARTESIAN_POINT('Origin',(-0.900000000007861,4.70000000000012,-59.2999999999994));
#1591=CARTESIAN_POINT('',(-0.900000000007861,4.70000000000012,-59.2999999999994));
#1592=CARTESIAN_POINT('',(-2.90000000000786,4.70000000000018,-64.9999999999993));
#1593=CARTESIAN_POINT('',(-1.24910143467183,4.70000000000013,-60.2949390887917));
#1594=CARTESIAN_POINT('',(-0.90000000000751,14.7000000000001,-59.2999999999994));
#1595=CARTESIAN_POINT('',(-0.900000000007861,4.70000000000012,-59.2999999999994));
#1596=CARTESIAN_POINT('',(-2.90000000000751,14.7000000000002,-64.9999999999994));
#1597=CARTESIAN_POINT('',(-0.90000000000751,14.7000000000001,-59.2999999999994));
#1598=CARTESIAN_POINT('',(-2.90000000000765,10.6249999999983,-64.9999999999993));
#1599=CARTESIAN_POINT('Origin',(-12.9000000000079,4.70000000000054,-59.2999999999993));
#1600=CARTESIAN_POINT('',(-11.7946778377299,4.7000000000005,-59.2999999999993));
#1601=CARTESIAN_POINT('',(-0.90000000000751,14.7000000000001,-59.2999999999994));
#1602=CARTESIAN_POINT('Origin',(-6.90000000000751,14.7000000000003,-62.1499999999994));
#1603=CARTESIAN_POINT('',(-5.84999999999947,14.7000000000003,-64.9999999999994));
#1604=CARTESIAN_POINT('Origin',(-4.79999999999136,16.5499999999965,-64.9999999999994));
#1605=CARTESIAN_POINT('',(-17.2000000000079,4.70000000000069,-64.9999999999993));
#1606=CARTESIAN_POINT('',(-10.9999999999998,4.70000000000047,-64.9999999999993));
#1607=CARTESIAN_POINT('',(-17.2000000000078,-2.08279562558821E-14,-64.9999999999993));
#1608=CARTESIAN_POINT('',(-17.2000000000079,8.27500000000006,-64.9999999999993));
#1609=CARTESIAN_POINT('',(3.39999999999218,-3.51683029522229E-14,-64.9999999999993));
#1610=CARTESIAN_POINT('',(-16.8000000000059,33.0999999999874,-64.9999999999994));
#1611=CARTESIAN_POINT('',(-16.8000000000059,33.0999999999874,-64.9999999999994));
#1612=CARTESIAN_POINT('',(11.2000000000639,33.0999999999965,-64.9999999999994));
#1613=CARTESIAN_POINT('',(11.2000000000778,15.0000000000101,-64.9999999999994));
#1614=CARTESIAN_POINT('',(3.39999999999214,4.69999999999997,-64.9999999999993));
#1615=CARTESIAN_POINT('',(3.39999999999208,10.6249999999983,-64.9999999999993));
#1616=CARTESIAN_POINT('',(-10.9999999999998,4.70000000000047,-64.9999999999993));
#1617=CARTESIAN_POINT('Origin',(-17.2000000000078,3.7425618160114E-12,-58.0999999999993));
#1618=CARTESIAN_POINT('',(-17.2000000000079,4.70000000000071,-45.9573593128801));
#1619=CARTESIAN_POINT('',(-17.2000000000079,4.7000000000007,-58.0999999999993));
#1620=CARTESIAN_POINT('',(-17.2000000000078,-1.12450748545016E-14,-45.9573593128801));
#1621=CARTESIAN_POINT('',(-17.2000000000079,6.75000000000175,-45.9573593128801));
#1622=CARTESIAN_POINT('',(-17.2000000000078,-1.97276461085569E-14,-55.0643398282195));
#1623=CARTESIAN_POINT('Origin',(3.39999999999214,4.69999999999997,-58.0999999999993));
#1624=CARTESIAN_POINT('',(3.39999999999214,4.69999999999997,-58.0999999999993));
#1625=CARTESIAN_POINT('',(3.39999999999208,10.6249999999983,-58.0999999999994));
#1626=CARTESIAN_POINT('',(3.39999999999214,4.69999999999997,-58.0999999999993));
#1627=CARTESIAN_POINT('Origin',(-1.30000000000782,-1.42615204064993E-14,
-51.1999999999994));
#1628=CARTESIAN_POINT('',(-15.1718563387313,4.70000000000063,-50.1393398282216));
#1629=CARTESIAN_POINT('',(-15.1718563387315,4.70000000000063,-52.2606601717782));
#1630=CARTESIAN_POINT('Ctrl Pts',(-15.1718563387312,4.70000000000063,-50.1393398282216));
#1631=CARTESIAN_POINT('Ctrl Pts',(-15.1760556812446,4.70000000000063,-50.1433170847955));
#1632=CARTESIAN_POINT('Ctrl Pts',(-15.1802121593516,4.70000000000063,-50.1472986808424));
#1633=CARTESIAN_POINT('Ctrl Pts',(-15.3184525531282,4.70000000000064,-50.2812058827335));
#1634=CARTESIAN_POINT('Ctrl Pts',(-15.4462635512009,4.70000000000064,-50.465264741621));
#1635=CARTESIAN_POINT('Ctrl Pts',(-15.5908657016028,4.70000000000065,-50.8043438014372));
#1636=CARTESIAN_POINT('Ctrl Pts',(-15.6349556135292,4.70000000000065,-51.0181110635574));
#1637=CARTESIAN_POINT('Ctrl Pts',(-15.6349556135292,4.70000000000065,-51.1999999999994));
#1638=CARTESIAN_POINT('Ctrl Pts',(-15.6349556135292,4.70000000000065,-51.3818889364414));
#1639=CARTESIAN_POINT('Ctrl Pts',(-15.5908657016028,4.70000000000065,-51.5956561985615));
#1640=CARTESIAN_POINT('Ctrl Pts',(-15.4462635512009,4.70000000000064,-51.9347352583777));
#1641=CARTESIAN_POINT('Ctrl Pts',(-15.3184525531282,4.70000000000064,-52.1187941172652));
#1642=CARTESIAN_POINT('Ctrl Pts',(-15.1802121593515,4.70000000000063,-52.2527013191565));
#1643=CARTESIAN_POINT('Ctrl Pts',(-15.1760556812443,4.70000000000063,-52.2566829152035));
#1644=CARTESIAN_POINT('Ctrl Pts',(-15.1718563387309,4.70000000000063,-52.2606601717775));
#1645=CARTESIAN_POINT('Origin',(-1.30000000000782,-1.99840144432528E-14,
-52.2606601717782));
#1646=CARTESIAN_POINT('Origin',(-1.30000000000782,-1.99840144432528E-14,
-50.1393398282216));
#1647=CARTESIAN_POINT('Origin',(-1.30000000000782,-1.54466343161822E-14,
-52.4677669529653));
#1648=CARTESIAN_POINT('',(-14.7337804621508,4.70000000000061,-52.6748737341529));
#1649=CARTESIAN_POINT('Ctrl Pts',(-15.1718563387315,4.70000000000063,-52.2606601717782));
#1650=CARTESIAN_POINT('Ctrl Pts',(-14.9496766887671,4.70000000000062,-52.4710896546342));
#1651=CARTESIAN_POINT('Ctrl Pts',(-14.7337804621496,4.70000000000061,-52.6748737341529));
#1652=CARTESIAN_POINT('Origin',(-1.30000000000782,-1.99840144432528E-14,
-52.6748737341529));
#1653=CARTESIAN_POINT('Origin',(-1.30000000000782,-1.72927546356441E-14,
-54.4426406871186));
#1654=CARTESIAN_POINT('',(-13.9554336156527,4.70000000000059,-54.4426406871187));
#1655=CARTESIAN_POINT('Ctrl Pts',(-14.7337804621508,4.70000000000061,-52.6748737341529));
#1656=CARTESIAN_POINT('Ctrl Pts',(-14.727134543972,4.70000000000061,-52.6811468049695));
#1657=CARTESIAN_POINT('Ctrl Pts',(-14.7205525270283,4.70000000000061,-52.6874258456374));
#1658=CARTESIAN_POINT('Ctrl Pts',(-14.4887095107783,4.70000000000061,-52.9109145658803));
#1659=CARTESIAN_POINT('Ctrl Pts',(-14.2732050161485,4.7000000000006,-53.2184968463705));
#1660=CARTESIAN_POINT('Ctrl Pts',(-14.0298188130482,4.70000000000059,-53.7841427389825));
#1661=CARTESIAN_POINT('Ctrl Pts',(-13.9554336156527,4.70000000000059,-54.1398257210299));
#1662=CARTESIAN_POINT('Ctrl Pts',(-13.9554336156527,4.70000000000058,-54.4426406871187));
#1663=CARTESIAN_POINT('Origin',(-1.30000000000783,-3.5527136788005E-14,
-54.4426406871187));
#1664=CARTESIAN_POINT('Origin',(-1.30000000000782,-1.90022121129284E-14,
-56.271320343559));
#1665=CARTESIAN_POINT('',(-13.9554336156527,4.70000000000058,-56.271320343559));
#1666=CARTESIAN_POINT('Origin',(-4.79999999999136,16.5499999999965,-58.0999999999994));
#1667=CARTESIAN_POINT('',(-10.9999999999998,4.70000000000048,-58.0999999999994));
#1668=CARTESIAN_POINT('Origin',(-10.689355675452,4.70000000000047,-58.0999999999993));
#1669=CARTESIAN_POINT('',(-14.7337804621488,4.70000000000062,-49.7251262658463));
#1670=CARTESIAN_POINT('Ctrl Pts',(-14.7337804621488,4.70000000000062,-49.7251262658463));
#1671=CARTESIAN_POINT('Ctrl Pts',(-14.9496766887832,4.70000000000063,-49.928910345381));
#1672=CARTESIAN_POINT('Ctrl Pts',(-15.1718563387313,4.70000000000063,-50.1393398282216));
#1673=CARTESIAN_POINT('',(-13.9554336156527,4.70000000000059,-47.9573593128801));
#1674=CARTESIAN_POINT('Ctrl Pts',(-13.955433615651,4.70000000000059,-47.9573593128801));
#1675=CARTESIAN_POINT('Ctrl Pts',(-13.955433615651,4.70000000000059,-48.260174278969));
#1676=CARTESIAN_POINT('Ctrl Pts',(-14.0298188130465,4.70000000000059,-48.6158572610166));
#1677=CARTESIAN_POINT('Ctrl Pts',(-14.273205016147,4.7000000000006,-49.181503153629));
#1678=CARTESIAN_POINT('Ctrl Pts',(-14.4887095107769,4.70000000000061,-49.4890854341194));
#1679=CARTESIAN_POINT('Ctrl Pts',(-14.7205525270268,4.70000000000062,-49.7125741543621));
#1680=CARTESIAN_POINT('Ctrl Pts',(-14.7271345439703,4.70000000000062,-49.7188531950299));
#1681=CARTESIAN_POINT('Ctrl Pts',(-14.7337804621488,4.70000000000062,-49.7251262658463));
#1682=CARTESIAN_POINT('',(-13.9554336156526,4.70000000000059,-45.9573593128801));
#1683=CARTESIAN_POINT('',(-13.9554336156526,4.70000000000059,-46.9573593128801));
#1684=CARTESIAN_POINT('',(-9.250000000008,4.70000000000043,-45.9573593128801));
#1685=CARTESIAN_POINT('Origin',(-16.550000000007,-1.69309011255336E-14,
-52.0286796564397));
#1686=CARTESIAN_POINT('',(-18.3000000000078,-1.13797860024079E-14,-45.9573593128801));
#1687=CARTESIAN_POINT('Origin',(11.2000000000778,15.0000000000101,-58.0999999999994));
#1688=CARTESIAN_POINT('Origin',(-16.8000000000059,33.0999999999874,-58.0999999999994));
#1689=CARTESIAN_POINT('',(-16.8000000000059,33.0999999999874,-58.0999999999994));
#1690=CARTESIAN_POINT('Origin',(-16.8000000000088,21.0999999999866,-58.0999999999994));
#1691=CARTESIAN_POINT('Origin',(-1.30000000000782,13.4999999999999,-45.9573593128801));
#1692=CARTESIAN_POINT('Origin',(-1.30000000000782,-1.88737914186277E-14,
-45.9573593128801));
#1693=CARTESIAN_POINT('Origin',(-1.30000000000782,-1.02954819478309E-14,
-46.9573593128801));
#1694=CARTESIAN_POINT('Origin',(-1.30000000000781,-1.88737914186277E-14,
-47.9573593128801));
#1695=CARTESIAN_POINT('Origin',(-1.30000000000782,-1.12302861773546E-14,
-47.9573593128801));
#1696=CARTESIAN_POINT('Origin',(-1.30000000000781,-1.55431223447522E-14,
-49.7251262658463));
#1697=CARTESIAN_POINT('Origin',(-1.30000000000782,-1.30764064968169E-14,
-49.9322330470339));
#1698=CARTESIAN_POINT('',(4.79999999999137,-16.5499999999965,64.9999999999993));
#1699=CARTESIAN_POINT('Origin',(0.,0.,0.));
#1700=UNCERTAINTY_MEASURE_WITH_UNIT(LENGTH_MEASURE(0.01),#1706,
'DISTANCE_ACCURACY_VALUE',
'Maximum model space distance between geometric entities at asserted c
onnectivities');
#1701=UNCERTAINTY_MEASURE_WITH_UNIT(LENGTH_MEASURE(0.01),#1706,
'DISTANCE_ACCURACY_VALUE',
'Maximum model space distance between geometric entities at asserted c
onnectivities');
#1702=UNCERTAINTY_MEASURE_WITH_UNIT(LENGTH_MEASURE(0.01),#1706,
'DISTANCE_ACCURACY_VALUE',
'Maximum model space distance between geometric entities at asserted c
onnectivities');
#1703=(
GEOMETRIC_REPRESENTATION_CONTEXT(3)
GLOBAL_UNCERTAINTY_ASSIGNED_CONTEXT((#1700))
GLOBAL_UNIT_ASSIGNED_CONTEXT((#1706,#1708,#1709))
REPRESENTATION_CONTEXT('','3D')
);
#1704=(
GEOMETRIC_REPRESENTATION_CONTEXT(3)
GLOBAL_UNCERTAINTY_ASSIGNED_CONTEXT((#1701))
GLOBAL_UNIT_ASSIGNED_CONTEXT((#1706,#1708,#1709))
REPRESENTATION_CONTEXT('','3D')
);
#1705=(
GEOMETRIC_REPRESENTATION_CONTEXT(3)
GLOBAL_UNCERTAINTY_ASSIGNED_CONTEXT((#1702))
GLOBAL_UNIT_ASSIGNED_CONTEXT((#1706,#1708,#1709))
REPRESENTATION_CONTEXT('','3D')
);
#1706=(
LENGTH_UNIT()
NAMED_UNIT(*)
SI_UNIT(.MILLI.,.METRE.)
);
#1707=(
LENGTH_UNIT()
NAMED_UNIT(*)
SI_UNIT($,.METRE.)
);
#1708=(
NAMED_UNIT(*)
PLANE_ANGLE_UNIT()
SI_UNIT($,.RADIAN.)
);
#1709=(
NAMED_UNIT(*)
SI_UNIT($,.STERADIAN.)
SOLID_ANGLE_UNIT()
);
#1710=SHAPE_DEFINITION_REPRESENTATION(#1712,#1715);
#1711=SHAPE_DEFINITION_REPRESENTATION(#1713,#1716);
#1712=PRODUCT_DEFINITION_SHAPE('',$,#1718);
#1713=PRODUCT_DEFINITION_SHAPE('',$,#1719);
#1714=PRODUCT_DEFINITION_SHAPE($,$,#17);
#1715=SHAPE_REPRESENTATION('',(#945,#1040),#1703);
#1716=SHAPE_REPRESENTATION('',(#946),#1704);
#1717=PRODUCT_DEFINITION_CONTEXT('part definition',#1725,'design');
#1718=PRODUCT_DEFINITION('2026-10-08-19-25-29-910','PRINT_LAYOUT',#1720,
#1717);
#1719=PRODUCT_DEFINITION('2026-10-08-19-25-29-855','SeatLeft',#1721,#1717);
#1720=PRODUCT_DEFINITION_FORMATION('',$,#1727);
#1721=PRODUCT_DEFINITION_FORMATION('',$,#1728);
#1722=PRODUCT_RELATED_PRODUCT_CATEGORY('PRINT_LAYOUT','PRINT_LAYOUT',(#1727));
#1723=PRODUCT_RELATED_PRODUCT_CATEGORY('SeatLeft','SeatLeft',(#1728));
#1724=APPLICATION_PROTOCOL_DEFINITION('international standard',
'automotive_design',2009,#1725);
#1725=APPLICATION_CONTEXT(
'Core Data for Automotive Mechanical Design Process');
#1726=PRODUCT_CONTEXT('part definition',#1725,'mechanical');
#1727=PRODUCT('2026-10-08-19-25-29-910','PRINT_LAYOUT',$,(#1726));
#1728=PRODUCT('2026-10-08-19-25-29-855','SeatLeft',$,(#1726));
#1729=PRESENTATION_STYLE_ASSIGNMENT((#1733));
#1730=PRESENTATION_STYLE_ASSIGNMENT((#1734));
#1731=PRESENTATION_STYLE_ASSIGNMENT((#1735));
#1732=PRESENTATION_STYLE_ASSIGNMENT((NULL_STYLE(.NULL.)));
#1733=SURFACE_STYLE_USAGE(.BOTH.,#1736);
#1734=SURFACE_STYLE_USAGE(.BOTH.,#1737);
#1735=SURFACE_STYLE_USAGE(.BOTH.,#1738);
#1736=SURFACE_SIDE_STYLE('',(#1739));
#1737=SURFACE_SIDE_STYLE('',(#1740));
#1738=SURFACE_SIDE_STYLE('',(#1741));
#1739=SURFACE_STYLE_FILL_AREA(#1742);
#1740=SURFACE_STYLE_FILL_AREA(#1743);
#1741=SURFACE_STYLE_FILL_AREA(#1744);
#1742=FILL_AREA_STYLE('Plastic - Matte (Black)',(#1745));
#1743=FILL_AREA_STYLE('Steel - Satin',(#1746));
#1744=FILL_AREA_STYLE('Brass - Old',(#1747));
#1745=FILL_AREA_STYLE_COLOUR('Plastic - Matte (Black)',#1748);
#1746=FILL_AREA_STYLE_COLOUR('Steel - Satin',#1749);
#1747=FILL_AREA_STYLE_COLOUR('Brass - Old',#1750);
#1748=COLOUR_RGB('Plastic - Matte (Black)',0.0980392156862745,0.0980392156862745,
0.0980392156862745);
#1749=COLOUR_RGB('Steel - Satin',0.627450980392157,0.627450980392157,0.627450980392157);
#1750=COLOUR_RGB('Brass - Old',0.,0.,0.);
ENDSEC;
END-ISO-10303-21;
