ISO-10303-21;
HEADER;
/* Generated by software containing ST-Developer
 * from STEP Tools, Inc. (www.steptools.com) 
 */

FILE_DESCRIPTION(
/* description */ (''),
/* implementation_level */ '2;1');

FILE_NAME(
/* name */ 'UpperArm.step',
/* time_stamp */ '2026-10-08T19:25:54+02:00',
/* author */ (''),
/* organization */ (''),
/* preprocessor_version */ 'ST-DEVELOPER v20.2',
/* originating_system */ 'Autodesk Translation Framework v15.15.0.0',
/* authorisation */ '');

FILE_SCHEMA (('AUTOMOTIVE_DESIGN { 1 0 10303 214 3 1 1 }'));
ENDSEC;

DATA;
#10=MECHANICAL_DESIGN_GEOMETRIC_PRESENTATION_REPRESENTATION('',(#17),#704);
#11=ITEM_DEFINED_TRANSFORMATION($,$,#404,#437);
#12=(
REPRESENTATION_RELATIONSHIP($,$,#715,#714)
REPRESENTATION_RELATIONSHIP_WITH_TRANSFORMATION(#11)
SHAPE_REPRESENTATION_RELATIONSHIP()
);
#13=CONTEXT_DEPENDENT_SHAPE_REPRESENTATION(#12,#713);
#14=NEXT_ASSEMBLY_USAGE_OCCURRENCE('UpperArm:1','UpperArm:1',
'UpperArm:1',#717,#718,'UpperArm:1');
#15=SHAPE_REPRESENTATION_RELATIONSHIP('SRR','None',#715,#16);
#16=ADVANCED_BREP_SHAPE_REPRESENTATION('',(#18),#703);
#17=STYLED_ITEM('',(#728),#18);
#18=MANIFOLD_SOLID_BREP('Body1',#390);
#19=(
BOUNDED_SURFACE()
B_SPLINE_SURFACE(2,2,((#655,#656,#657),(#658,#659,#660),(#661,#662,#663),
(#664,#665,#666),(#667,#668,#669),(#670,#671,#672),(#673,#674,#675),(#676,
#677,#678),(#679,#680,#681)),.UNSPECIFIED.,.T.,.F.,.F.)
B_SPLINE_SURFACE_WITH_KNOTS((3,2,2,2,3),(3,3),(-3.14159265358979,-1.5707963267949,
0.,1.5707963267949,3.14159265358979),(1.5707963267949,1.74532925199433),
 .UNSPECIFIED.)
GEOMETRIC_REPRESENTATION_ITEM()
RATIONAL_B_SPLINE_SURFACE(((1.,0.996194698091746,1.),(0.707106781186548,
0.704416026402759,0.707106781186548),(1.,0.996194698091746,1.),(0.707106781186548,
0.704416026402759,0.707106781186548),(1.,0.996194698091746,1.),(0.707106781186548,
0.704416026402759,0.707106781186548),(1.,0.996194698091746,1.),(0.707106781186548,
0.704416026402759,0.707106781186548),(1.,0.996194698091746,1.)))
REPRESENTATION_ITEM('')
SURFACE()
);
#20=ELLIPSE('',#412,0.812341289508596,0.8);
#21=FACE_BOUND('',#65,.T.);
#22=FACE_BOUND('',#67,.T.);
#23=FACE_BOUND('',#81,.T.);
#24=FACE_BOUND('',#84,.T.);
#25=PLANE('',#407);
#26=PLANE('',#410);
#27=PLANE('',#418);
#28=PLANE('',#419);
#29=PLANE('',#420);
#30=PLANE('',#421);
#31=PLANE('',#422);
#32=PLANE('',#423);
#33=PLANE('',#424);
#34=PLANE('',#425);
#35=PLANE('',#426);
#36=PLANE('',#427);
#37=PLANE('',#432);
#38=PLANE('',#433);
#39=PLANE('',#434);
#40=PLANE('',#436);
#41=FACE_OUTER_BOUND('',#63,.T.);
#42=FACE_OUTER_BOUND('',#64,.T.);
#43=FACE_OUTER_BOUND('',#66,.T.);
#44=FACE_OUTER_BOUND('',#68,.T.);
#45=FACE_OUTER_BOUND('',#69,.T.);
#46=FACE_OUTER_BOUND('',#70,.T.);
#47=FACE_OUTER_BOUND('',#71,.T.);
#48=FACE_OUTER_BOUND('',#72,.T.);
#49=FACE_OUTER_BOUND('',#73,.T.);
#50=FACE_OUTER_BOUND('',#74,.T.);
#51=FACE_OUTER_BOUND('',#75,.T.);
#52=FACE_OUTER_BOUND('',#76,.T.);
#53=FACE_OUTER_BOUND('',#77,.T.);
#54=FACE_OUTER_BOUND('',#78,.T.);
#55=FACE_OUTER_BOUND('',#79,.T.);
#56=FACE_OUTER_BOUND('',#80,.T.);
#57=FACE_OUTER_BOUND('',#82,.T.);
#58=FACE_OUTER_BOUND('',#83,.T.);
#59=FACE_OUTER_BOUND('',#85,.T.);
#60=FACE_OUTER_BOUND('',#86,.T.);
#61=FACE_OUTER_BOUND('',#87,.T.);
#62=FACE_OUTER_BOUND('',#88,.T.);
#63=EDGE_LOOP('',(#261,#262,#263,#264));
#64=EDGE_LOOP('',(#265,#266,#267,#268,#269,#270));
#65=EDGE_LOOP('',(#271));
#66=EDGE_LOOP('',(#272,#273,#274,#275));
#67=EDGE_LOOP('',(#276));
#68=EDGE_LOOP('',(#277,#278,#279,#280));
#69=EDGE_LOOP('',(#281,#282,#283,#284));
#70=EDGE_LOOP('',(#285,#286,#287,#288));
#71=EDGE_LOOP('',(#289));
#72=EDGE_LOOP('',(#290,#291,#292,#293));
#73=EDGE_LOOP('',(#294,#295,#296,#297));
#74=EDGE_LOOP('',(#298,#299,#300,#301));
#75=EDGE_LOOP('',(#302,#303,#304,#305));
#76=EDGE_LOOP('',(#306,#307,#308,#309));
#77=EDGE_LOOP('',(#310,#311,#312,#313));
#78=EDGE_LOOP('',(#314,#315,#316,#317));
#79=EDGE_LOOP('',(#318,#319,#320,#321));
#80=EDGE_LOOP('',(#322,#323,#324,#325,#326,#327,#328,#329));
#81=EDGE_LOOP('',(#330));
#82=EDGE_LOOP('',(#331,#332,#333,#334));
#83=EDGE_LOOP('',(#335));
#84=EDGE_LOOP('',(#336,#337,#338,#339,#340,#341,#342,#343));
#85=EDGE_LOOP('',(#344,#345,#346,#347));
#86=EDGE_LOOP('',(#348,#349,#350,#351));
#87=EDGE_LOOP('',(#352,#353,#354,#355,#356,#357,#358));
#88=EDGE_LOOP('',(#359,#360,#361,#362));
#89=B_SPLINE_CURVE_WITH_KNOTS('',3,(#555,#556,#557,#558,#559,#560,#561,
#562,#563,#564),.UNSPECIFIED.,.F.,.F.,(4,2,2,2,4),(0.152722188547374,0.193644521489916,
0.234566854432458,0.272453273797206,0.310339693161954),.UNSPECIFIED.);
#90=B_SPLINE_CURVE_WITH_KNOTS('',3,(#586,#587,#588,#589,#590,#591,#592,
#593,#594,#595),.UNSPECIFIED.,.F.,.F.,(4,2,2,2,4),(0.310339693161954,0.348226112526702,
0.38611253189145,0.427034864833992,0.467957197776534),.UNSPECIFIED.);
#91=LINE('',#553,#129);
#92=LINE('',#565,#130);
#93=LINE('',#568,#131);
#94=LINE('',#572,#132);
#95=LINE('',#574,#133);
#96=LINE('',#575,#134);
#97=LINE('',#581,#135);
#98=LINE('',#596,#136);
#99=LINE('',#600,#137);
#100=LINE('',#603,#138);
#101=LINE('',#609,#139);
#102=LINE('',#611,#140);
#103=LINE('',#613,#141);
#104=LINE('',#614,#142);
#105=LINE('',#617,#143);
#106=LINE('',#619,#144);
#107=LINE('',#620,#145);
#108=LINE('',#623,#146);
#109=LINE('',#625,#147);
#110=LINE('',#626,#148);
#111=LINE('',#629,#149);
#112=LINE('',#631,#150);
#113=LINE('',#632,#151);
#114=LINE('',#635,#152);
#115=LINE('',#637,#153);
#116=LINE('',#638,#154);
#117=LINE('',#641,#155);
#118=LINE('',#643,#156);
#119=LINE('',#644,#157);
#120=LINE('',#647,#158);
#121=LINE('',#649,#159);
#122=LINE('',#650,#160);
#123=LINE('',#652,#161);
#124=LINE('',#653,#162);
#125=LINE('',#691,#163);
#126=LINE('',#692,#164);
#127=LINE('',#694,#165);
#128=LINE('',#695,#166);
#129=VECTOR('',#446,10.);
#130=VECTOR('',#447,10.);
#131=VECTOR('',#450,10.);
#132=VECTOR('',#453,10.);
#133=VECTOR('',#454,10.);
#134=VECTOR('',#455,10.);
#135=VECTOR('',#462,10.);
#136=VECTOR('',#467,10.);
#137=VECTOR('',#472,0.8);
#138=VECTOR('',#475,1.05);
#139=VECTOR('',#482,10.);
#140=VECTOR('',#483,10.);
#141=VECTOR('',#484,10.);
#142=VECTOR('',#485,10.);
#143=VECTOR('',#488,10.);
#144=VECTOR('',#489,10.);
#145=VECTOR('',#490,10.);
#146=VECTOR('',#493,10.);
#147=VECTOR('',#494,10.);
#148=VECTOR('',#495,10.);
#149=VECTOR('',#498,10.);
#150=VECTOR('',#499,10.);
#151=VECTOR('',#500,10.);
#152=VECTOR('',#503,10.);
#153=VECTOR('',#504,10.);
#154=VECTOR('',#505,10.);
#155=VECTOR('',#508,10.);
#156=VECTOR('',#509,10.);
#157=VECTOR('',#510,10.);
#158=VECTOR('',#513,10.);
#159=VECTOR('',#514,10.);
#160=VECTOR('',#515,10.);
#161=VECTOR('',#518,10.);
#162=VECTOR('',#519,10.);
#163=VECTOR('',#534,10.);
#164=VECTOR('',#535,10.);
#165=VECTOR('',#538,10.);
#166=VECTOR('',#539,10.);
#167=CIRCLE('',#406,1.);
#168=CIRCLE('',#408,1.);
#169=CIRCLE('',#409,1.05);
#170=CIRCLE('',#411,4.93);
#171=CIRCLE('',#415,0.8);
#172=CIRCLE('',#417,1.05);
#173=CIRCLE('',#428,4.93);
#174=CIRCLE('',#429,4.93);
#175=CIRCLE('',#430,4.93);
#176=CIRCLE('',#431,4.93);
#177=VERTEX_POINT('',#549);
#178=VERTEX_POINT('',#550);
#179=VERTEX_POINT('',#552);
#180=VERTEX_POINT('',#554);
#181=VERTEX_POINT('',#567);
#182=VERTEX_POINT('',#569);
#183=VERTEX_POINT('',#571);
#184=VERTEX_POINT('',#573);
#185=VERTEX_POINT('',#576);
#186=VERTEX_POINT('',#579);
#187=VERTEX_POINT('',#582);
#188=VERTEX_POINT('',#585);
#189=VERTEX_POINT('',#598);
#190=VERTEX_POINT('',#602);
#191=VERTEX_POINT('',#607);
#192=VERTEX_POINT('',#608);
#193=VERTEX_POINT('',#610);
#194=VERTEX_POINT('',#612);
#195=VERTEX_POINT('',#616);
#196=VERTEX_POINT('',#618);
#197=VERTEX_POINT('',#622);
#198=VERTEX_POINT('',#624);
#199=VERTEX_POINT('',#628);
#200=VERTEX_POINT('',#630);
#201=VERTEX_POINT('',#634);
#202=VERTEX_POINT('',#636);
#203=VERTEX_POINT('',#640);
#204=VERTEX_POINT('',#642);
#205=VERTEX_POINT('',#646);
#206=VERTEX_POINT('',#648);
#207=VERTEX_POINT('',#682);
#208=VERTEX_POINT('',#683);
#209=VERTEX_POINT('',#686);
#210=EDGE_CURVE('',#177,#178,#167,.T.);
#211=EDGE_CURVE('',#178,#179,#91,.T.);
#212=EDGE_CURVE('',#179,#180,#89,.F.);
#213=EDGE_CURVE('',#180,#177,#92,.T.);
#214=EDGE_CURVE('',#181,#177,#93,.T.);
#215=EDGE_CURVE('',#182,#181,#168,.T.);
#216=EDGE_CURVE('',#183,#182,#94,.T.);
#217=EDGE_CURVE('',#184,#183,#95,.T.);
#218=EDGE_CURVE('',#184,#178,#96,.T.);
#219=EDGE_CURVE('',#185,#185,#169,.T.);
#220=EDGE_CURVE('',#180,#186,#170,.T.);
#221=EDGE_CURVE('',#181,#186,#97,.T.);
#222=EDGE_CURVE('',#187,#187,#20,.T.);
#223=EDGE_CURVE('',#186,#188,#90,.F.);
#224=EDGE_CURVE('',#188,#182,#98,.T.);
#225=EDGE_CURVE('',#189,#189,#171,.T.);
#226=EDGE_CURVE('',#189,#187,#99,.T.);
#227=EDGE_CURVE('',#185,#190,#100,.T.);
#228=EDGE_CURVE('',#190,#190,#172,.T.);
#229=EDGE_CURVE('',#191,#192,#101,.T.);
#230=EDGE_CURVE('',#191,#193,#102,.T.);
#231=EDGE_CURVE('',#193,#194,#103,.T.);
#232=EDGE_CURVE('',#192,#194,#104,.T.);
#233=EDGE_CURVE('',#195,#191,#105,.T.);
#234=EDGE_CURVE('',#195,#196,#106,.T.);
#235=EDGE_CURVE('',#196,#193,#107,.T.);
#236=EDGE_CURVE('',#197,#195,#108,.T.);
#237=EDGE_CURVE('',#197,#198,#109,.T.);
#238=EDGE_CURVE('',#198,#196,#110,.T.);
#239=EDGE_CURVE('',#199,#197,#111,.T.);
#240=EDGE_CURVE('',#199,#200,#112,.T.);
#241=EDGE_CURVE('',#200,#198,#113,.T.);
#242=EDGE_CURVE('',#201,#199,#114,.T.);
#243=EDGE_CURVE('',#201,#202,#115,.T.);
#244=EDGE_CURVE('',#202,#200,#116,.T.);
#245=EDGE_CURVE('',#203,#201,#117,.T.);
#246=EDGE_CURVE('',#203,#204,#118,.T.);
#247=EDGE_CURVE('',#204,#202,#119,.T.);
#248=EDGE_CURVE('',#205,#203,#120,.T.);
#249=EDGE_CURVE('',#205,#206,#121,.T.);
#250=EDGE_CURVE('',#206,#204,#122,.T.);
#251=EDGE_CURVE('',#192,#205,#123,.T.);
#252=EDGE_CURVE('',#194,#206,#124,.T.);
#253=EDGE_CURVE('',#207,#208,#173,.T.);
#254=EDGE_CURVE('',#207,#207,#174,.T.);
#255=EDGE_CURVE('',#209,#207,#175,.T.);
#256=EDGE_CURVE('',#208,#209,#176,.T.);
#257=EDGE_CURVE('',#209,#184,#125,.T.);
#258=EDGE_CURVE('',#209,#179,#126,.T.);
#259=EDGE_CURVE('',#208,#188,#127,.T.);
#260=EDGE_CURVE('',#183,#208,#128,.T.);
#261=ORIENTED_EDGE('',*,*,#210,.T.);
#262=ORIENTED_EDGE('',*,*,#211,.T.);
#263=ORIENTED_EDGE('',*,*,#212,.T.);
#264=ORIENTED_EDGE('',*,*,#213,.T.);
#265=ORIENTED_EDGE('',*,*,#210,.F.);
#266=ORIENTED_EDGE('',*,*,#214,.F.);
#267=ORIENTED_EDGE('',*,*,#215,.F.);
#268=ORIENTED_EDGE('',*,*,#216,.F.);
#269=ORIENTED_EDGE('',*,*,#217,.F.);
#270=ORIENTED_EDGE('',*,*,#218,.T.);
#271=ORIENTED_EDGE('',*,*,#219,.T.);
#272=ORIENTED_EDGE('',*,*,#213,.F.);
#273=ORIENTED_EDGE('',*,*,#220,.T.);
#274=ORIENTED_EDGE('',*,*,#221,.F.);
#275=ORIENTED_EDGE('',*,*,#214,.T.);
#276=ORIENTED_EDGE('',*,*,#222,.T.);
#277=ORIENTED_EDGE('',*,*,#215,.T.);
#278=ORIENTED_EDGE('',*,*,#221,.T.);
#279=ORIENTED_EDGE('',*,*,#223,.T.);
#280=ORIENTED_EDGE('',*,*,#224,.T.);
#281=ORIENTED_EDGE('',*,*,#225,.F.);
#282=ORIENTED_EDGE('',*,*,#226,.T.);
#283=ORIENTED_EDGE('',*,*,#222,.F.);
#284=ORIENTED_EDGE('',*,*,#226,.F.);
#285=ORIENTED_EDGE('',*,*,#219,.F.);
#286=ORIENTED_EDGE('',*,*,#227,.T.);
#287=ORIENTED_EDGE('',*,*,#228,.T.);
#288=ORIENTED_EDGE('',*,*,#227,.F.);
#289=ORIENTED_EDGE('',*,*,#228,.F.);
#290=ORIENTED_EDGE('',*,*,#229,.F.);
#291=ORIENTED_EDGE('',*,*,#230,.T.);
#292=ORIENTED_EDGE('',*,*,#231,.T.);
#293=ORIENTED_EDGE('',*,*,#232,.F.);
#294=ORIENTED_EDGE('',*,*,#233,.F.);
#295=ORIENTED_EDGE('',*,*,#234,.T.);
#296=ORIENTED_EDGE('',*,*,#235,.T.);
#297=ORIENTED_EDGE('',*,*,#230,.F.);
#298=ORIENTED_EDGE('',*,*,#236,.F.);
#299=ORIENTED_EDGE('',*,*,#237,.T.);
#300=ORIENTED_EDGE('',*,*,#238,.T.);
#301=ORIENTED_EDGE('',*,*,#234,.F.);
#302=ORIENTED_EDGE('',*,*,#239,.F.);
#303=ORIENTED_EDGE('',*,*,#240,.T.);
#304=ORIENTED_EDGE('',*,*,#241,.T.);
#305=ORIENTED_EDGE('',*,*,#237,.F.);
#306=ORIENTED_EDGE('',*,*,#242,.F.);
#307=ORIENTED_EDGE('',*,*,#243,.T.);
#308=ORIENTED_EDGE('',*,*,#244,.T.);
#309=ORIENTED_EDGE('',*,*,#240,.F.);
#310=ORIENTED_EDGE('',*,*,#245,.F.);
#311=ORIENTED_EDGE('',*,*,#246,.T.);
#312=ORIENTED_EDGE('',*,*,#247,.T.);
#313=ORIENTED_EDGE('',*,*,#243,.F.);
#314=ORIENTED_EDGE('',*,*,#248,.F.);
#315=ORIENTED_EDGE('',*,*,#249,.T.);
#316=ORIENTED_EDGE('',*,*,#250,.T.);
#317=ORIENTED_EDGE('',*,*,#246,.F.);
#318=ORIENTED_EDGE('',*,*,#251,.F.);
#319=ORIENTED_EDGE('',*,*,#232,.T.);
#320=ORIENTED_EDGE('',*,*,#252,.T.);
#321=ORIENTED_EDGE('',*,*,#249,.F.);
#322=ORIENTED_EDGE('',*,*,#252,.F.);
#323=ORIENTED_EDGE('',*,*,#231,.F.);
#324=ORIENTED_EDGE('',*,*,#235,.F.);
#325=ORIENTED_EDGE('',*,*,#238,.F.);
#326=ORIENTED_EDGE('',*,*,#241,.F.);
#327=ORIENTED_EDGE('',*,*,#244,.F.);
#328=ORIENTED_EDGE('',*,*,#247,.F.);
#329=ORIENTED_EDGE('',*,*,#250,.F.);
#330=ORIENTED_EDGE('',*,*,#225,.T.);
#331=ORIENTED_EDGE('',*,*,#253,.F.);
#332=ORIENTED_EDGE('',*,*,#254,.F.);
#333=ORIENTED_EDGE('',*,*,#255,.F.);
#334=ORIENTED_EDGE('',*,*,#256,.F.);
#335=ORIENTED_EDGE('',*,*,#254,.T.);
#336=ORIENTED_EDGE('',*,*,#229,.T.);
#337=ORIENTED_EDGE('',*,*,#251,.T.);
#338=ORIENTED_EDGE('',*,*,#248,.T.);
#339=ORIENTED_EDGE('',*,*,#245,.T.);
#340=ORIENTED_EDGE('',*,*,#242,.T.);
#341=ORIENTED_EDGE('',*,*,#239,.T.);
#342=ORIENTED_EDGE('',*,*,#236,.T.);
#343=ORIENTED_EDGE('',*,*,#233,.T.);
#344=ORIENTED_EDGE('',*,*,#211,.F.);
#345=ORIENTED_EDGE('',*,*,#218,.F.);
#346=ORIENTED_EDGE('',*,*,#257,.F.);
#347=ORIENTED_EDGE('',*,*,#258,.T.);
#348=ORIENTED_EDGE('',*,*,#224,.F.);
#349=ORIENTED_EDGE('',*,*,#259,.F.);
#350=ORIENTED_EDGE('',*,*,#260,.F.);
#351=ORIENTED_EDGE('',*,*,#216,.T.);
#352=ORIENTED_EDGE('',*,*,#255,.T.);
#353=ORIENTED_EDGE('',*,*,#253,.T.);
#354=ORIENTED_EDGE('',*,*,#259,.T.);
#355=ORIENTED_EDGE('',*,*,#223,.F.);
#356=ORIENTED_EDGE('',*,*,#220,.F.);
#357=ORIENTED_EDGE('',*,*,#212,.F.);
#358=ORIENTED_EDGE('',*,*,#258,.F.);
#359=ORIENTED_EDGE('',*,*,#256,.T.);
#360=ORIENTED_EDGE('',*,*,#257,.T.);
#361=ORIENTED_EDGE('',*,*,#217,.T.);
#362=ORIENTED_EDGE('',*,*,#260,.T.);
#363=CYLINDRICAL_SURFACE('',#405,1.);
#364=CYLINDRICAL_SURFACE('',#413,1.);
#365=CYLINDRICAL_SURFACE('',#414,0.8);
#366=CYLINDRICAL_SURFACE('',#416,1.05);
#367=CYLINDRICAL_SURFACE('',#435,4.93);
#368=ADVANCED_FACE('',(#41),#363,.T.);
#369=ADVANCED_FACE('',(#42,#21),#25,.T.);
#370=ADVANCED_FACE('',(#43,#22),#26,.T.);
#371=ADVANCED_FACE('',(#44),#364,.T.);
#372=ADVANCED_FACE('',(#45),#365,.F.);
#373=ADVANCED_FACE('',(#46),#366,.F.);
#374=ADVANCED_FACE('',(#47),#27,.T.);
#375=ADVANCED_FACE('',(#48),#28,.F.);
#376=ADVANCED_FACE('',(#49),#29,.F.);
#377=ADVANCED_FACE('',(#50),#30,.F.);
#378=ADVANCED_FACE('',(#51),#31,.F.);
#379=ADVANCED_FACE('',(#52),#32,.F.);
#380=ADVANCED_FACE('',(#53),#33,.F.);
#381=ADVANCED_FACE('',(#54),#34,.F.);
#382=ADVANCED_FACE('',(#55),#35,.F.);
#383=ADVANCED_FACE('',(#56,#23),#36,.F.);
#384=ADVANCED_FACE('',(#57),#19,.F.);
#385=ADVANCED_FACE('',(#58,#24),#37,.F.);
#386=ADVANCED_FACE('',(#59),#38,.T.);
#387=ADVANCED_FACE('',(#60),#39,.T.);
#388=ADVANCED_FACE('',(#61),#367,.T.);
#389=ADVANCED_FACE('',(#62),#40,.F.);
#390=CLOSED_SHELL('',(#368,#369,#370,#371,#372,#373,#374,#375,#376,#377,
#378,#379,#380,#381,#382,#383,#384,#385,#386,#387,#388,#389));
#391=DERIVED_UNIT_ELEMENT(#393,1.);
#392=DERIVED_UNIT_ELEMENT(#706,-3.);
#393=(
MASS_UNIT()
NAMED_UNIT(*)
SI_UNIT(.KILO.,.GRAM.)
);
#394=DERIVED_UNIT((#391,#392));
#395=MEASURE_REPRESENTATION_ITEM('density measure',
POSITIVE_RATIO_MEASURE(7850.),#394);
#396=PROPERTY_DEFINITION_REPRESENTATION(#401,#398);
#397=PROPERTY_DEFINITION_REPRESENTATION(#402,#399);
#398=REPRESENTATION('material name',(#400),#703);
#399=REPRESENTATION('density',(#395),#703);
#400=DESCRIPTIVE_REPRESENTATION_ITEM('Steel','Steel');
#401=PROPERTY_DEFINITION('material property','material name',#718);
#402=PROPERTY_DEFINITION('material property','density of part',#718);
#403=AXIS2_PLACEMENT_3D('',#546,#438,#439);
#404=AXIS2_PLACEMENT_3D('',#547,#440,#441);
#405=AXIS2_PLACEMENT_3D('',#548,#442,#443);
#406=AXIS2_PLACEMENT_3D('',#551,#444,#445);
#407=AXIS2_PLACEMENT_3D('',#566,#448,#449);
#408=AXIS2_PLACEMENT_3D('',#570,#451,#452);
#409=AXIS2_PLACEMENT_3D('',#577,#456,#457);
#410=AXIS2_PLACEMENT_3D('',#578,#458,#459);
#411=AXIS2_PLACEMENT_3D('',#580,#460,#461);
#412=AXIS2_PLACEMENT_3D('',#583,#463,#464);
#413=AXIS2_PLACEMENT_3D('',#584,#465,#466);
#414=AXIS2_PLACEMENT_3D('',#597,#468,#469);
#415=AXIS2_PLACEMENT_3D('',#599,#470,#471);
#416=AXIS2_PLACEMENT_3D('',#601,#473,#474);
#417=AXIS2_PLACEMENT_3D('',#604,#476,#477);
#418=AXIS2_PLACEMENT_3D('',#605,#478,#479);
#419=AXIS2_PLACEMENT_3D('',#606,#480,#481);
#420=AXIS2_PLACEMENT_3D('',#615,#486,#487);
#421=AXIS2_PLACEMENT_3D('',#621,#491,#492);
#422=AXIS2_PLACEMENT_3D('',#627,#496,#497);
#423=AXIS2_PLACEMENT_3D('',#633,#501,#502);
#424=AXIS2_PLACEMENT_3D('',#639,#506,#507);
#425=AXIS2_PLACEMENT_3D('',#645,#511,#512);
#426=AXIS2_PLACEMENT_3D('',#651,#516,#517);
#427=AXIS2_PLACEMENT_3D('',#654,#520,#521);
#428=AXIS2_PLACEMENT_3D('',#684,#522,#523);
#429=AXIS2_PLACEMENT_3D('',#685,#524,#525);
#430=AXIS2_PLACEMENT_3D('',#687,#526,#527);
#431=AXIS2_PLACEMENT_3D('',#688,#528,#529);
#432=AXIS2_PLACEMENT_3D('',#689,#530,#531);
#433=AXIS2_PLACEMENT_3D('',#690,#532,#533);
#434=AXIS2_PLACEMENT_3D('',#693,#536,#537);
#435=AXIS2_PLACEMENT_3D('',#696,#540,#541);
#436=AXIS2_PLACEMENT_3D('',#697,#542,#543);
#437=AXIS2_PLACEMENT_3D('',#698,#544,#545);
#438=DIRECTION('axis',(0.,0.,1.));
#439=DIRECTION('refdir',(1.,0.,0.));
#440=DIRECTION('axis',(0.,0.,1.));
#441=DIRECTION('refdir',(1.,0.,0.));
#442=DIRECTION('center_axis',(-1.,-1.19116111469724E-16,0.));
#443=DIRECTION('ref_axis',(0.,0.707106781186548,0.707106781186548));
#444=DIRECTION('center_axis',(-1.,0.,0.));
#445=DIRECTION('ref_axis',(0.,0.707106781186548,0.707106781186548));
#446=DIRECTION('',(-1.,-1.19116111469724E-16,0.));
#447=DIRECTION('',(1.,1.19116111469724E-16,0.));
#448=DIRECTION('center_axis',(1.,0.,0.));
#449=DIRECTION('ref_axis',(0.,1.,0.));
#450=DIRECTION('',(0.,1.,0.));
#451=DIRECTION('center_axis',(-1.,0.,0.));
#452=DIRECTION('ref_axis',(0.,-0.707106781186548,0.707106781186547));
#453=DIRECTION('',(0.,0.,1.));
#454=DIRECTION('',(0.,-1.,0.));
#455=DIRECTION('',(0.,0.,1.));
#456=DIRECTION('center_axis',(-1.,0.,0.));
#457=DIRECTION('ref_axis',(0.,1.,0.));
#458=DIRECTION('center_axis',(0.,0.,1.));
#459=DIRECTION('ref_axis',(1.,0.,0.));
#460=DIRECTION('center_axis',(0.,0.,1.));
#461=DIRECTION('ref_axis',(1.,0.,0.));
#462=DIRECTION('',(-1.,-6.80663494112705E-17,0.));
#463=DIRECTION('center_axis',(0.,0.,-1.));
#464=DIRECTION('ref_axis',(1.,-2.64921875168781E-12,0.));
#465=DIRECTION('center_axis',(1.,6.80663494112705E-17,0.));
#466=DIRECTION('ref_axis',(0.,-0.707106781186548,0.707106781186547));
#467=DIRECTION('',(1.,6.80663494112705E-17,0.));
#468=DIRECTION('center_axis',(0.173648177666931,-4.60035425221568E-13,0.984807753012208));
#469=DIRECTION('ref_axis',(-2.64921875168781E-12,-1.,-3.46945879296021E-18));
#470=DIRECTION('center_axis',(0.173648177666931,-4.60020910253434E-13,0.984807753012208));
#471=DIRECTION('ref_axis',(-2.64921875168781E-12,-1.,-3.46945879296021E-18));
#472=DIRECTION('',(0.173648177666931,-4.60035425221568E-13,0.984807753012208));
#473=DIRECTION('center_axis',(-1.,0.,0.));
#474=DIRECTION('ref_axis',(0.,1.,0.));
#475=DIRECTION('',(-1.,0.,0.));
#476=DIRECTION('center_axis',(-1.,0.,0.));
#477=DIRECTION('ref_axis',(0.,1.,0.));
#478=DIRECTION('center_axis',(1.,0.,0.));
#479=DIRECTION('ref_axis',(0.,1.,0.));
#480=DIRECTION('center_axis',(0.696364240321891,0.707106781184704,-0.122787803968973));
#481=DIRECTION('ref_axis',(-0.696364240318147,0.707106781188391,0.122787803968973));
#482=DIRECTION('',(-0.696364240318199,0.707106781188391,0.12278780396868));
#483=DIRECTION('',(0.173648177666931,-4.60020910253434E-13,0.984807753012208));
#484=DIRECTION('',(-0.696364240318147,0.707106781188391,0.122787803968973));
#485=DIRECTION('',(0.173648177666931,-4.60020910253434E-13,0.984807753012208));
#486=DIRECTION('center_axis',(0.984807753012208,-7.24119455043306E-12,-0.173648177666931));
#487=DIRECTION('ref_axis',(7.21106823582899E-12,1.,-8.04377253854737E-13));
#488=DIRECTION('',(7.13808809083226E-12,1.,-1.21826822336777E-12));
#489=DIRECTION('',(0.173648177666931,-4.60020910253434E-13,0.984807753012208));
#490=DIRECTION('',(7.21106823582899E-12,1.,-8.04377253854737E-13));
#491=DIRECTION('center_axis',(0.696364240315412,-0.707106781191169,-0.122787803968491));
#492=DIRECTION('ref_axis',(0.696364240324626,0.707106781181926,-0.122787803969455));
#493=DIRECTION('',(0.696364240324575,0.707106781181926,-0.122787803969748));
#494=DIRECTION('',(0.173648177666931,-4.60020910253434E-13,0.984807753012208));
#495=DIRECTION('',(0.696364240324626,0.707106781181926,-0.122787803969455));
#496=DIRECTION('center_axis',(-6.51560814279937E-12,-1.,6.81760037004065E-13));
#497=DIRECTION('ref_axis',(0.984807753012208,-6.53500780265019E-12,-0.173648177666931));
#498=DIRECTION('',(0.984807753012208,-6.53500780265019E-12,-0.17364817766693));
#499=DIRECTION('',(0.173648177666931,-4.60020910253434E-13,0.984807753012208));
#500=DIRECTION('',(0.984807753012208,-6.53500780265019E-12,-0.173648177666931));
#501=DIRECTION('center_axis',(-0.696364240324626,-0.707106781181927,0.122787803969455));
#502=DIRECTION('ref_axis',(0.696364240315412,-0.707106781191168,-0.122787803968491));
#503=DIRECTION('',(0.696364240315463,-0.707106781191168,-0.122787803968198));
#504=DIRECTION('',(0.173648177666931,-4.60020910253434E-13,0.984807753012208));
#505=DIRECTION('',(0.696364240315412,-0.707106781191168,-0.122787803968491));
#506=DIRECTION('center_axis',(-0.984807753012208,6.53500780265019E-12,0.173648177666931));
#507=DIRECTION('ref_axis',(-6.51561005153794E-12,-1.,6.81749212009704E-13));
#508=DIRECTION('',(-6.44262990654121E-12,-1.,1.09564018152274E-12));
#509=DIRECTION('',(0.173648177666931,-4.60020910253434E-13,0.984807753012208));
#510=DIRECTION('',(-6.51561005153794E-12,-1.,6.81749212009704E-13));
#511=DIRECTION('center_axis',(-0.696364240317159,0.707106781189395,0.122787803968799));
#512=DIRECTION('ref_axis',(-0.696364240322879,-0.707106781183701,0.122787803969147));
#513=DIRECTION('',(-0.696364240322828,-0.707106781183701,0.12278780396944));
#514=DIRECTION('',(0.173648177666931,-4.60020910253434E-13,0.984807753012208));
#515=DIRECTION('',(-0.696364240322879,-0.707106781183701,0.122787803969147));
#516=DIRECTION('center_axis',(1.00091400986597E-11,1.,-1.29776397878945E-12));
#517=DIRECTION('ref_axis',(-0.984807753012208,1.0082433120104E-11,0.173648177666931));
#518=DIRECTION('',(-0.984807753012208,1.0082433120104E-11,0.17364817766693));
#519=DIRECTION('',(-0.984807753012208,1.0082433120104E-11,0.173648177666931));
#520=DIRECTION('center_axis',(0.173648177666931,-4.60020910253434E-13,0.984807753012208));
#521=DIRECTION('ref_axis',(0.984807753012208,0.,-0.173648177666931));
#522=DIRECTION('center_axis',(0.,0.,1.));
#523=DIRECTION('ref_axis',(1.,0.,0.));
#524=DIRECTION('center_axis',(-0.17364817766693,3.97559973780537E-14,-0.984807753012208));
#525=DIRECTION('ref_axis',(0.984807753012208,3.46709296444852E-15,-0.17364817766693));
#526=DIRECTION('center_axis',(0.,0.,1.));
#527=DIRECTION('ref_axis',(1.,0.,0.));
#528=DIRECTION('center_axis',(0.,0.,1.));
#529=DIRECTION('ref_axis',(1.,-2.28927987677709E-13,0.));
#530=DIRECTION('center_axis',(0.17364817766693,-3.97559973780537E-14,0.984807753012208));
#531=DIRECTION('ref_axis',(0.984807753012208,3.46709296444852E-15,-0.17364817766693));
#532=DIRECTION('center_axis',(-1.19116111469724E-16,1.,0.));
#533=DIRECTION('ref_axis',(-1.,-1.19116111469724E-16,0.));
#534=DIRECTION('',(1.,1.19116111469724E-16,0.));
#535=DIRECTION('',(0.,0.,1.));
#536=DIRECTION('center_axis',(6.80663494112705E-17,-1.,0.));
#537=DIRECTION('ref_axis',(1.,6.80663494112705E-17,0.));
#538=DIRECTION('',(0.,0.,1.));
#539=DIRECTION('',(-1.,-6.80663494112705E-17,0.));
#540=DIRECTION('center_axis',(0.,0.,1.));
#541=DIRECTION('ref_axis',(-1.,5.00744598826542E-15,0.));
#542=DIRECTION('center_axis',(0.,0.,1.));
#543=DIRECTION('ref_axis',(1.,0.,0.));
#544=DIRECTION('',(-1.82708213884217E-17,6.92031009195377E-18,-1.));
#545=DIRECTION('',(1.,0.,2.77555756155378E-17));
#546=CARTESIAN_POINT('',(0.,0.,0.));
#547=CARTESIAN_POINT('',(0.,0.,0.));
#548=CARTESIAN_POINT('Origin',(14.1875,1.49999999999998,4.));
#549=CARTESIAN_POINT('',(20.56,1.49999999999998,5.));
#550=CARTESIAN_POINT('',(20.56,2.49999999999998,4.));
#551=CARTESIAN_POINT('Origin',(20.56,1.49999999999998,4.));
#552=CARTESIAN_POINT('',(4.24910578828072,2.49999999999998,4.));
#553=CARTESIAN_POINT('',(14.1875,2.49999999999998,4.));
#554=CARTESIAN_POINT('',(4.69626447296147,1.49999999999998,5.));
#555=CARTESIAN_POINT('Ctrl Pts',(4.69626447296147,1.49999999999998,5.));
#556=CARTESIAN_POINT('Ctrl Pts',(4.6547610926952,1.62994056683484,5.));
#557=CARTESIAN_POINT('Ctrl Pts',(4.60461076811767,1.76655634746212,4.97331302354372));
#558=CARTESIAN_POINT('Ctrl Pts',(4.50092349986172,2.01614714272225,4.86716931716297));
#559=CARTESIAN_POINT('Ctrl Pts',(4.44761089285052,2.12924940667769,4.78779283357074));
#560=CARTESIAN_POINT('Ctrl Pts',(4.36074164126815,2.30161742990949,4.60960163685175));
#561=CARTESIAN_POINT('Ctrl Pts',(4.32039566626494,2.37535884253124,4.50079854692603));
#562=CARTESIAN_POINT('Ctrl Pts',(4.26432605028972,2.47460538922517,4.2592227298961));
#563=CARTESIAN_POINT('Ctrl Pts',(4.24910578828065,2.49999999999998,4.12628806454916));
#564=CARTESIAN_POINT('Ctrl Pts',(4.24910578828065,2.49999999999998,4.));
#565=CARTESIAN_POINT('',(14.1875,1.49999999999998,5.));
#566=CARTESIAN_POINT('Origin',(20.56,-2.50000000000002,0.));
#567=CARTESIAN_POINT('',(20.56,-1.50000000000002,5.));
#568=CARTESIAN_POINT('',(20.56,2.49999999999998,5.));
#569=CARTESIAN_POINT('',(20.56,-2.50000000000002,4.));
#570=CARTESIAN_POINT('Origin',(20.56,-1.50000000000002,4.));
#571=CARTESIAN_POINT('',(20.56,-2.50000000000002,0.));
#572=CARTESIAN_POINT('',(20.56,-2.50000000000002,0.));
#573=CARTESIAN_POINT('',(20.56,2.49999999999998,0.));
#574=CARTESIAN_POINT('',(20.56,2.49999999999998,0.));
#575=CARTESIAN_POINT('',(20.56,2.49999999999998,0.));
#576=CARTESIAN_POINT('',(20.56,-1.05000000000001,2.5));
#577=CARTESIAN_POINT('Origin',(20.56,-5.55111512312578E-15,2.5));
#578=CARTESIAN_POINT('Origin',(7.815,0.,5.));
#579=CARTESIAN_POINT('',(4.69626447296146,-1.50000000000002,5.));
#580=CARTESIAN_POINT('Origin',(0.,0.,5.));
#581=CARTESIAN_POINT('',(6.03205289414035,-1.50000000000002,5.));
#582=CARTESIAN_POINT('',(0.881634903544447,0.799999999997699,5.));
#583=CARTESIAN_POINT('Origin',(0.881634903542328,-2.30136340733768E-12,
5.));
#584=CARTESIAN_POINT('Origin',(6.03205289414035,-1.50000000000002,4.));
#585=CARTESIAN_POINT('',(4.24910578828069,-2.50000000000002,4.));
#586=CARTESIAN_POINT('Ctrl Pts',(4.24910578828062,-2.50000000000002,4.));
#587=CARTESIAN_POINT('Ctrl Pts',(4.24910578828062,-2.50000000000002,4.12628806454916));
#588=CARTESIAN_POINT('Ctrl Pts',(4.2643260502897,-2.47460538922522,4.2592227298961));
#589=CARTESIAN_POINT('Ctrl Pts',(4.32039566626492,-2.37535884253128,4.50079854692603));
#590=CARTESIAN_POINT('Ctrl Pts',(4.36074164126813,-2.30161742990953,4.60960163685175));
#591=CARTESIAN_POINT('Ctrl Pts',(4.44761089285049,-2.12924940667773,4.78779283357074));
#592=CARTESIAN_POINT('Ctrl Pts',(4.5009234998617,-2.0161471427223,4.86716931716297));
#593=CARTESIAN_POINT('Ctrl Pts',(4.60461076811765,-1.76655634746216,4.97331302354372));
#594=CARTESIAN_POINT('Ctrl Pts',(4.65476109269519,-1.62994056683489,5.));
#595=CARTESIAN_POINT('Ctrl Pts',(4.69626447296146,-1.50000000000002,5.));
#596=CARTESIAN_POINT('',(6.03205289414035,-2.50000000000002,4.));
#597=CARTESIAN_POINT('Origin',(-0.148657689762736,4.28127322895244E-13,
-0.843079653297774));
#598=CARTESIAN_POINT('',(0.719583198574038,0.799999999998128,4.08095911176327));
#599=CARTESIAN_POINT('Origin',(0.719583198571919,-1.87204980321259E-12,
4.08095911176327));
#600=CARTESIAN_POINT('',(-0.148657689760617,0.800000000000428,-0.843079653297774));
#601=CARTESIAN_POINT('Origin',(20.56,-5.55111512312578E-15,2.5));
#602=CARTESIAN_POINT('',(10.56,-1.05000000000001,2.5));
#603=CARTESIAN_POINT('',(20.56,-1.05000000000001,2.5));
#604=CARTESIAN_POINT('Origin',(10.56,-5.55111512312578E-15,2.5));
#605=CARTESIAN_POINT('Origin',(10.56,-5.55111512312578E-15,2.5));
#606=CARTESIAN_POINT('Origin',(1.75202127355476,0.799432175374225,-1.17822063619527));
#607=CARTESIAN_POINT('',(1.75202127355476,0.799432175374226,-1.17822063619527));
#608=CARTESIAN_POINT('',(0.638629314570563,1.92999999999237,-0.981899593721975));
#609=CARTESIAN_POINT('',(1.49211326183494,1.06334968711816,-1.1323918412271));
#610=CARTESIAN_POINT('',(2.62026216188942,0.799432175371926,3.74581812886577));
#611=CARTESIAN_POINT('',(1.75202127355476,0.799432175374226,-1.17822063619527));
#612=CARTESIAN_POINT('',(1.50687020290522,1.92999999999007,3.94213917133906));
#613=CARTESIAN_POINT('',(1.50687020290522,1.92999999999007,3.94213917133906));
#614=CARTESIAN_POINT('',(0.638629314570563,1.92999999999237,-0.981899593721975));
#615=CARTESIAN_POINT('Origin',(1.75202127354323,-0.799432175391669,-1.17822063619398));
#616=CARTESIAN_POINT('',(1.75202127354323,-0.799432175391669,-1.17822063619398));
#617=CARTESIAN_POINT('',(1.75202127354614,-0.399716087702542,-1.17822063619414));
#618=CARTESIAN_POINT('',(2.62026216187789,-0.799432175393969,3.74581812886706));
#619=CARTESIAN_POINT('',(1.75202127354323,-0.799432175391669,-1.17822063619398));
#620=CARTESIAN_POINT('',(2.62026216188942,0.799432175371926,3.74581812886577));
#621=CARTESIAN_POINT('Origin',(0.638629314545412,-1.93000000000279,-0.981899593719344));
#622=CARTESIAN_POINT('',(0.638629314545413,-1.93000000000279,-0.981899593719344));
#623=CARTESIAN_POINT('',(0.93541728232346,-1.62863359943755,-1.03423131998741));
#624=CARTESIAN_POINT('',(1.50687020288007,-1.93000000000509,3.9421391713417));
#625=CARTESIAN_POINT('',(0.638629314545413,-1.93000000000279,-0.981899593719344));
#626=CARTESIAN_POINT('',(2.62026216187789,-0.799432175393969,3.74581812886706));
#627=CARTESIAN_POINT('Origin',(-0.935944694096035,-1.92999999999234,-0.704259712873572));
#628=CARTESIAN_POINT('',(-0.935944694096035,-1.92999999999234,-0.704259712873572));
#629=CARTESIAN_POINT('',(-0.505421235879072,-1.9299999999952,-0.780172614384313));
#630=CARTESIAN_POINT('',(-0.0677038057613805,-1.92999999999464,4.21977905218747));
#631=CARTESIAN_POINT('',(-0.935944694096035,-1.92999999999234,-0.704259712873572));
#632=CARTESIAN_POINT('',(1.50687020288007,-1.93000000000509,3.9421391713417));
#633=CARTESIAN_POINT('Origin',(-2.04933665307912,-0.799432175366444,-0.507938670400472));
#634=CARTESIAN_POINT('',(-2.04933665307912,-0.799432175366444,-0.507938670400472));
#635=CARTESIAN_POINT('',(-1.75254868530528,-1.10079857593537,-0.560270396668307));
#636=CARTESIAN_POINT('',(-1.18109576474447,-0.799432175368744,4.41610009466057));
#637=CARTESIAN_POINT('',(-2.04933665307912,-0.799432175366444,-0.507938670400472));
#638=CARTESIAN_POINT('',(-0.0677038057613803,-1.92999999999464,4.21977905218747));
#639=CARTESIAN_POINT('Origin',(-2.0493366530687,0.799432175391697,-0.507938670401562));
#640=CARTESIAN_POINT('',(-2.0493366530687,0.799432175391697,-0.507938670401562));
#641=CARTESIAN_POINT('',(-2.04933665307134,0.399716087702408,-0.507938670401456));
#642=CARTESIAN_POINT('',(-1.18109576473405,0.799432175389397,4.41610009465948));
#643=CARTESIAN_POINT('',(-2.0493366530687,0.799432175391697,-0.507938670401562));
#644=CARTESIAN_POINT('',(-1.18109576474447,-0.799432175368744,4.41610009466057));
#645=CARTESIAN_POINT('Origin',(-0.935944694070885,1.93000000000849,-0.704259712876203));
#646=CARTESIAN_POINT('',(-0.935944694070885,1.93000000000849,-0.704259712876203));
#647=CARTESIAN_POINT('',(-1.19585270579446,1.66608248826432,-0.658430917907879));
#648=CARTESIAN_POINT('',(-0.0677038057362304,1.93000000000619,4.21977905218484));
#649=CARTESIAN_POINT('',(-0.935944694070885,1.93000000000849,-0.704259712876203));
#650=CARTESIAN_POINT('',(-1.18109576473405,0.799432175389397,4.41610009465948));
#651=CARTESIAN_POINT('Origin',(0.638629314570563,1.92999999999237,-0.981899593721975));
#652=CARTESIAN_POINT('',(0.281865768469892,1.92999999999602,-0.918992554812022));
#653=CARTESIAN_POINT('',(-0.0677038057362303,1.93000000000619,4.21977905218484));
#654=CARTESIAN_POINT('Origin',(0.719583198572474,5.50115508701765E-13,4.08095911176317));
#655=CARTESIAN_POINT('Ctrl Pts',(-4.93,1.12793795365949E-12,0.));
#656=CARTESIAN_POINT('Ctrl Pts',(-4.93,1.12793795365949E-12,-9.71319286401639E-17));
#657=CARTESIAN_POINT('Ctrl Pts',(-4.93,1.12793795365949E-12,-1.92788205030026E-16));
#658=CARTESIAN_POINT('Ctrl Pts',(-4.93000000000113,-4.92999999999887,0.));
#659=CARTESIAN_POINT('Ctrl Pts',(-4.93000000000113,-4.92999999999887,-1.4782558924626E-16));
#660=CARTESIAN_POINT('Ctrl Pts',(-4.93000000000113,-4.92999999999887,-2.93405375629575E-16));
#661=CARTESIAN_POINT('Ctrl Pts',(-1.12798659301916E-12,-4.93,0.));
#662=CARTESIAN_POINT('Ctrl Pts',(-1.12798659301916E-12,-4.93,-0.431319111182805));
#663=CARTESIAN_POINT('Ctrl Pts',(-0.0748977776509424,-4.92999999999998,
-0.856085515897967));
#664=CARTESIAN_POINT('Ctrl Pts',(4.92999999999887,-4.93000000000113,0.));
#665=CARTESIAN_POINT('Ctrl Pts',(4.92999999999887,-4.93000000000113,-0.862638222365611));
#666=CARTESIAN_POINT('Ctrl Pts',(4.78020444469924,-4.93000000000109,-1.71217103179593));
#667=CARTESIAN_POINT('Ctrl Pts',(4.93,-1.12868825397074E-12,0.));
#668=CARTESIAN_POINT('Ctrl Pts',(4.93,-1.12868825397074E-12,-0.862638222365611));
#669=CARTESIAN_POINT('Ctrl Pts',(4.78020444470037,-1.09439585893293E-12,
-1.71217103179593));
#670=CARTESIAN_POINT('Ctrl Pts',(4.93000000000113,4.92999999999887,0.));
#671=CARTESIAN_POINT('Ctrl Pts',(4.93000000000113,4.92999999999887,-0.862638222365611));
#672=CARTESIAN_POINT('Ctrl Pts',(4.7802044447015,4.92999999999891,-1.71217103179593));
#673=CARTESIAN_POINT('Ctrl Pts',(1.12909681604378E-12,4.93,0.));
#674=CARTESIAN_POINT('Ctrl Pts',(1.12909681604378E-12,4.93,-0.431319111182805));
#675=CARTESIAN_POINT('Ctrl Pts',(-0.0748977776486853,4.93000000000002,-0.856085515897967));
#676=CARTESIAN_POINT('Ctrl Pts',(-4.92999999999887,4.93000000000113,0.));
#677=CARTESIAN_POINT('Ctrl Pts',(-4.92999999999887,4.93000000000113,-1.4782558924626E-16));
#678=CARTESIAN_POINT('Ctrl Pts',(-4.92999999999887,4.93000000000113,-2.93405375629575E-16));
#679=CARTESIAN_POINT('Ctrl Pts',(-4.93,1.12914545540345E-12,0.));
#680=CARTESIAN_POINT('Ctrl Pts',(-4.93,1.12914545540345E-12,-9.71319286401639E-17));
#681=CARTESIAN_POINT('Ctrl Pts',(-4.93,1.12914545540345E-12,-1.92788205030026E-16));
#682=CARTESIAN_POINT('',(-4.93,-6.03750871979645E-16,0.));
#683=CARTESIAN_POINT('',(4.24910578828069,-2.50000000000002,0.));
#684=CARTESIAN_POINT('Origin',(0.,0.,0.));
#685=CARTESIAN_POINT('Origin',(-0.074897777649815,1.72084568816899E-14,
-0.856085515897967));
#686=CARTESIAN_POINT('',(4.24910578828072,2.49999999999998,0.));
#687=CARTESIAN_POINT('Origin',(0.,0.,0.));
#688=CARTESIAN_POINT('Origin',(0.,-7.32747196364018E-17,0.));
#689=CARTESIAN_POINT('Origin',(-0.074897777649815,1.72084568816899E-14,
-0.856085515897967));
#690=CARTESIAN_POINT('Origin',(20.56,2.49999999999998,0.));
#691=CARTESIAN_POINT('',(4.24910578828072,2.49999999999998,0.));
#692=CARTESIAN_POINT('',(4.24910578828072,2.49999999999998,0.));
#693=CARTESIAN_POINT('Origin',(4.24910578828069,-2.50000000000002,0.));
#694=CARTESIAN_POINT('',(4.24910578828069,-2.50000000000002,0.));
#695=CARTESIAN_POINT('',(20.56,-2.50000000000002,0.));
#696=CARTESIAN_POINT('Origin',(0.,0.,0.));
#697=CARTESIAN_POINT('Origin',(7.815,0.,0.));
#698=CARTESIAN_POINT('',(-1.66533453693773E-15,0.,5.));
#699=UNCERTAINTY_MEASURE_WITH_UNIT(LENGTH_MEASURE(0.01),#705,
'DISTANCE_ACCURACY_VALUE',
'Maximum model space distance between geometric entities at asserted c
onnectivities');
#700=UNCERTAINTY_MEASURE_WITH_UNIT(LENGTH_MEASURE(0.01),#705,
'DISTANCE_ACCURACY_VALUE',
'Maximum model space distance between geometric entities at asserted c
onnectivities');
#701=UNCERTAINTY_MEASURE_WITH_UNIT(LENGTH_MEASURE(0.01),#705,
'DISTANCE_ACCURACY_VALUE',
'Maximum model space distance between geometric entities at asserted c
onnectivities');
#702=(
GEOMETRIC_REPRESENTATION_CONTEXT(3)
GLOBAL_UNCERTAINTY_ASSIGNED_CONTEXT((#699))
GLOBAL_UNIT_ASSIGNED_CONTEXT((#705,#707,#708))
REPRESENTATION_CONTEXT('','3D')
);
#703=(
GEOMETRIC_REPRESENTATION_CONTEXT(3)
GLOBAL_UNCERTAINTY_ASSIGNED_CONTEXT((#700))
GLOBAL_UNIT_ASSIGNED_CONTEXT((#705,#707,#708))
REPRESENTATION_CONTEXT('','3D')
);
#704=(
GEOMETRIC_REPRESENTATION_CONTEXT(3)
GLOBAL_UNCERTAINTY_ASSIGNED_CONTEXT((#701))
GLOBAL_UNIT_ASSIGNED_CONTEXT((#705,#707,#708))
REPRESENTATION_CONTEXT('','3D')
);
#705=(
LENGTH_UNIT()
NAMED_UNIT(*)
SI_UNIT(.MILLI.,.METRE.)
);
#706=(
LENGTH_UNIT()
NAMED_UNIT(*)
SI_UNIT($,.METRE.)
);
#707=(
NAMED_UNIT(*)
PLANE_ANGLE_UNIT()
SI_UNIT($,.RADIAN.)
);
#708=(
NAMED_UNIT(*)
SI_UNIT($,.STERADIAN.)
SOLID_ANGLE_UNIT()
);
#709=SHAPE_DEFINITION_REPRESENTATION(#711,#714);
#710=SHAPE_DEFINITION_REPRESENTATION(#712,#715);
#711=PRODUCT_DEFINITION_SHAPE('',$,#717);
#712=PRODUCT_DEFINITION_SHAPE('',$,#718);
#713=PRODUCT_DEFINITION_SHAPE($,$,#14);
#714=SHAPE_REPRESENTATION('',(#403,#437),#702);
#715=SHAPE_REPRESENTATION('',(#404),#703);
#716=PRODUCT_DEFINITION_CONTEXT('part definition',#724,'design');
#717=PRODUCT_DEFINITION('2026-10-08-19-25-53-659','PRINT_LAYOUT',#719,#716);
#718=PRODUCT_DEFINITION('2026-10-08-19-25-53-606','UpperArm',#720,#716);
#719=PRODUCT_DEFINITION_FORMATION('',$,#726);
#720=PRODUCT_DEFINITION_FORMATION('',$,#727);
#721=PRODUCT_RELATED_PRODUCT_CATEGORY('PRINT_LAYOUT','PRINT_LAYOUT',(#726));
#722=PRODUCT_RELATED_PRODUCT_CATEGORY('UpperArm','UpperArm',(#727));
#723=APPLICATION_PROTOCOL_DEFINITION('international standard',
'automotive_design',2009,#724);
#724=APPLICATION_CONTEXT(
'Core Data for Automotive Mechanical Design Process');
#725=PRODUCT_CONTEXT('part definition',#724,'mechanical');
#726=PRODUCT('2026-10-08-19-25-53-659','PRINT_LAYOUT',$,(#725));
#727=PRODUCT('2026-10-08-19-25-53-606','UpperArm',$,(#725));
#728=PRESENTATION_STYLE_ASSIGNMENT((#731));
#729=PRESENTATION_STYLE_ASSIGNMENT((#732));
#730=PRESENTATION_STYLE_ASSIGNMENT((#733));
#731=SURFACE_STYLE_USAGE(.BOTH.,#734);
#732=SURFACE_STYLE_USAGE(.BOTH.,#735);
#733=SURFACE_STYLE_USAGE(.BOTH.,#736);
#734=SURFACE_SIDE_STYLE('',(#737));
#735=SURFACE_SIDE_STYLE('',(#738));
#736=SURFACE_SIDE_STYLE('',(#739));
#737=SURFACE_STYLE_FILL_AREA(#740);
#738=SURFACE_STYLE_FILL_AREA(#741);
#739=SURFACE_STYLE_FILL_AREA(#742);
#740=FILL_AREA_STYLE('Plastic - Matte (Black)',(#743));
#741=FILL_AREA_STYLE('Steel - Satin',(#744));
#742=FILL_AREA_STYLE('Brass - Old',(#745));
#743=FILL_AREA_STYLE_COLOUR('Plastic - Matte (Black)',#746);
#744=FILL_AREA_STYLE_COLOUR('Steel - Satin',#747);
#745=FILL_AREA_STYLE_COLOUR('Brass - Old',#748);
#746=COLOUR_RGB('Plastic - Matte (Black)',0.0980392156862745,0.0980392156862745,
0.0980392156862745);
#747=COLOUR_RGB('Steel - Satin',0.627450980392157,0.627450980392157,0.627450980392157);
#748=COLOUR_RGB('Brass - Old',0.,0.,0.);
ENDSEC;
END-ISO-10303-21;
